<svg width="1200" height="221" viewBox="0 0 1200 221" fill="none" xmlns="http://www.w3.org/2000/svg">
<g clip-path="url(#clip0_1746_4474)">
<rect width="1200" height="221" fill="#26417B"/>
<path d="M1122.93 127.508C1120.01 121.791 1117.62 119.931 1115.75 119.061C1114.1 118.294 1112.56 117.4 1109.37 116.4C1106.26 115.425 1104.05 115.268 1101.05 115.067C1098.18 114.873 1095.79 114.997 1091.54 116.855C1087.33 118.7 1082.62 124.171 1080.96 125.905C1079.29 127.642 1077.83 128.833 1076.36 130.56C1073.97 133.386 1072.51 136.139 1070.31 140.334C1068.69 143.43 1067.18 146.526 1066.18 148.787C1064.32 153.01 1064.25 155.572 1063.59 159.231C1063.31 160.743 1063.32 161.967 1063.12 164.346C1062.7 169.343 1063.45 174.857 1064.44 179.304C1065.43 183.729 1066.78 186.45 1067.5 188.7C1070.06 196.615 1072.76 199.484 1076.74 205.197C1079.33 208.921 1081.81 209.736 1083.8 211.003C1085.95 212.37 1088.06 213.728 1092.84 216.189C1096.23 217.934 1100.43 218.79 1103.49 218.991C1106.69 219.202 1113.32 218.271 1116.47 216.801C1120.41 214.963 1124.24 211.229 1126.19 208.951C1127.75 207.127 1129.18 205.36 1131.04 202.77C1134.25 198.287 1137.29 190.231 1138.5 185.602C1139 183.691 1139.16 181.28 1139.7 179.278C1140.39 176.678 1140.36 174.223 1140.56 172.292C1140.65 171.411 1140.9 166.015 1140.76 157.969C1140.68 152.603 1139.43 150.542 1138.77 147.945C1137.81 144.208 1136.78 142.686 1135.51 140.955C1133.7 138.479 1132.38 137.097 1131.25 135.564C1130.13 134.046 1128.53 132.969 1126.93 131.903C1125.33 130.837 1123.74 129.775 1122.54 128.312C1121.6 126.714 1121.07 125.516 1120.61 124.72C1120.4 124.318 1120.27 123.923 1120.14 123.516" stroke="#81C1FF" stroke-width="8" stroke-linecap="round"/>
<path d="M1098.75 146.668C1096.77 149.734 1096.41 151.175 1096.09 153.83C1096.04 157.546 1096.13 160.299 1096.31 160.974C1096.4 161.293 1096.49 161.561 1096.86 162.379" stroke="#F2FF63" stroke-width="8" stroke-linecap="round"/>
<path d="M1109.89 153.167C1109.89 153.346 1109.89 153.525 1109.89 154.868C1109.89 156.212 1109.89 158.715 1109.75 160.853C1109.62 162.992 1109.35 164.69 1108.8 166.711" stroke="#F2FF63" stroke-width="8" stroke-linecap="round"/>
<path d="M1092.81 179.445C1092.9 180.704 1093.8 182.506 1095.65 184.18C1096.06 184.499 1096.33 184.678 1096.87 184.815C1097.41 184.952 1098.21 185.041 1099.04 185.133" stroke="#F2FF63" stroke-width="8" stroke-linecap="round"/>
<path d="M1109.59 194.612C1109.76 194.612 1110.12 194.433 1110.62 193.983C1110.85 193.712 1111.03 193.355 1111.16 193.036C1111.3 192.718 1111.39 192.45 1110.94 191.903" stroke="#F2FF63" stroke-width="8" stroke-linecap="round"/>
<path d="M1183.26 87.8165C1179.29 85.8285 1175.02 83.9603 1172.96 83.4273C1168.65 82.3154 1161.05 83.5531 1158.26 85.082C1155.88 86.3829 1154.53 88.072 1152.66 89.8066C1151.14 91.2246 1150 93.2617 1148.8 96.4513C1147.13 100.91 1147.07 103.377 1147 110.675C1146.97 114.041 1147.86 117.996 1151.58 128.493C1154.4 136.488 1158.24 139.968 1159.97 142.034C1161.51 143.879 1163.69 145.693 1165.29 146.96C1167.04 148.343 1169.15 149.158 1171.21 150.088C1173.44 151.089 1177.12 151.952 1182.91 152.022C1185.46 152.053 1188.83 149.31 1191.57 147.635C1193.99 146.159 1198.01 142.132 1200.75 138.99C1202.95 136.474 1205.07 131.489 1206.01 127.615C1206.53 125.505 1206.68 123.09 1206.75 117.645C1206.79 114.797 1205.75 112.711 1204.82 110.05C1203.76 107.023 1203.36 105.389 1202.83 103.791C1202.28 102.148 1201.36 100.599 1200.3 98.9343C1198.56 96.1996 1195.65 94.4752 1194.05 93.3435C1192.31 92.116 1190.86 91.1459 1189.26 90.5471C1188.86 90.3475 1188.46 90.084 1188.06 89.8824C1187.66 89.6808 1187.26 89.5491 1186.46 89.0142" stroke="#81C1FF" stroke-width="8" stroke-linecap="round"/>
<path d="M1166.92 107.906C1166.98 108.231 1167.19 108.882 1167.44 109.535C1167.63 109.861 1167.9 110.135 1168.17 110.379C1168.28 110.515 1168.33 110.676 1168.55 111.169" stroke="#F2FF63" stroke-width="8" stroke-linecap="round"/>
<path d="M1176.89 129.931C1177.18 129.931 1177.47 129.931 1177.63 129.888C1178.01 129.787 1178 129.233 1178.38 128.795C1178.61 128.563 1178.79 128.357 1178.9 128.182C1178.96 128.094 1179.02 128.008 1179.08 127.831" stroke="#F2FF63" stroke-width="8" stroke-linecap="round"/>
<path d="M1181.87 114.987C1182.16 114.987 1182.44 114.987 1182.61 114.944C1182.99 114.843 1182.98 114.289 1183.35 113.852C1183.59 113.619 1183.76 113.413 1183.88 113.239C1183.94 113.151 1184 113.064 1184.05 112.887" stroke="#F2FF63" stroke-width="8" stroke-linecap="round"/>
<path d="M1175.26 -6.18345C1171.29 -8.17148 1167.02 -10.0397 1164.96 -10.5727C1160.65 -11.6846 1153.05 -10.4469 1150.26 -8.91799C1147.88 -7.61706 1146.53 -5.92796 1144.66 -4.19343C1143.14 -2.77536 1142 -0.738338 1140.8 2.45129C1139.13 6.91047 1139.07 9.37744 1139 16.6748C1138.97 20.0405 1139.86 23.9962 1143.58 34.4932C1146.4 42.488 1150.24 45.9683 1151.97 48.0342C1153.51 49.8787 1155.69 51.6928 1157.29 52.9603C1159.04 54.3428 1161.15 55.1579 1163.21 56.0881C1165.44 57.0893 1169.12 57.9523 1174.91 58.0222C1177.46 58.0529 1180.83 55.3096 1183.57 53.635C1185.99 52.1588 1190.01 48.132 1192.75 44.9902C1194.95 42.4744 1197.07 37.4892 1198.01 33.615C1198.53 31.5051 1198.68 29.09 1198.75 23.6449C1198.79 20.7965 1197.75 18.7108 1196.82 16.0501C1195.76 13.0228 1195.36 11.3894 1194.83 9.79061C1194.28 8.148 1193.36 6.59899 1192.3 4.93432C1190.56 2.1996 1187.65 0.475236 1186.05 -0.656502C1184.31 -1.88402 1182.86 -2.85411 1181.26 -3.45291C1180.86 -3.65251 1180.46 -3.91599 1180.06 -4.11758C1179.66 -4.31918 1179.26 -4.45092 1178.46 -4.98585" stroke="#81C1FF" stroke-width="8" stroke-linecap="round"/>
<path d="M1158.92 13.9062C1158.98 14.2309 1159.19 14.8818 1159.44 15.5352C1159.63 15.8606 1159.9 16.1347 1160.17 16.3786C1160.28 16.5148 1160.33 16.6763 1160.55 17.169" stroke="#F2FF63" stroke-width="8" stroke-linecap="round"/>
<path d="M1168.89 35.9313C1169.18 35.9313 1169.47 35.9313 1169.63 35.888C1170.01 35.7866 1170 35.233 1170.38 34.7954C1170.61 34.5627 1170.79 34.357 1170.9 34.1824C1170.96 34.0945 1171.02 34.0078 1171.08 33.8311" stroke="#F2FF63" stroke-width="8" stroke-linecap="round"/>
<path d="M1173.87 20.9875C1174.16 20.9875 1174.44 20.9875 1174.61 20.9442C1174.99 20.8427 1174.98 20.2891 1175.35 19.8516C1175.59 19.6188 1175.76 19.4132 1175.88 19.2386C1175.94 19.1506 1176 19.064 1176.05 18.8872" stroke="#F2FF63" stroke-width="8" stroke-linecap="round"/>
<path d="M1037.26 66.8165C1033.29 64.8285 1029.02 62.9603 1026.96 62.4273C1022.65 61.3154 1015.05 62.5531 1012.26 64.082C1009.88 65.3829 1008.53 67.072 1006.66 68.8066C1005.14 70.2246 1004 72.2617 1002.8 75.4513C1001.13 79.9105 1001.07 82.3774 1001 89.6748C1000.97 93.0405 1001.86 96.9962 1005.58 107.493C1008.4 115.488 1012.24 118.968 1013.97 121.034C1015.51 122.879 1017.69 124.693 1019.29 125.96C1021.04 127.343 1023.15 128.158 1025.21 129.088C1027.44 130.089 1031.12 130.952 1036.91 131.022C1039.46 131.053 1042.83 128.31 1045.57 126.635C1047.99 125.159 1052.01 121.132 1054.75 117.99C1056.95 115.474 1059.07 110.489 1060.01 106.615C1060.53 104.505 1060.68 102.09 1060.75 96.6449C1060.79 93.7965 1059.75 91.7108 1058.82 89.0501C1057.76 86.0228 1057.36 84.3894 1056.83 82.7906C1056.28 81.148 1055.36 79.599 1054.3 77.9343C1052.56 75.1996 1049.65 73.4752 1048.05 72.3435C1046.31 71.116 1044.86 70.1459 1043.26 69.5471C1042.86 69.3475 1042.46 69.084 1042.06 68.8824C1041.66 68.6808 1041.26 68.5491 1040.46 68.0142" stroke="#81C1FF" stroke-width="8" stroke-linecap="round"/>
<path d="M1020.92 86.9062C1020.98 87.2309 1021.19 87.8818 1021.44 88.5352C1021.63 88.8606 1021.9 89.1347 1022.17 89.3786C1022.28 89.5148 1022.33 89.6763 1022.55 90.169" stroke="#F2FF63" stroke-width="8" stroke-linecap="round"/>
<path d="M1030.89 108.931C1031.18 108.931 1031.47 108.931 1031.63 108.888C1032.01 108.787 1032 108.233 1032.38 107.795C1032.61 107.563 1032.79 107.357 1032.9 107.182C1032.96 107.094 1033.02 107.008 1033.08 106.831" stroke="#F2FF63" stroke-width="8" stroke-linecap="round"/>
<path d="M1035.87 93.9875C1036.16 93.9875 1036.44 93.9875 1036.61 93.9442C1036.99 93.8427 1036.98 93.2891 1037.35 92.8516C1037.59 92.6188 1037.76 92.4132 1037.88 92.2386C1037.94 92.1506 1038 92.064 1038.05 91.8872" stroke="#F2FF63" stroke-width="8" stroke-linecap="round"/>
<path d="M1038.02 -25.8297C1035.43 -29.4424 1032.53 -33.0832 1030.95 -34.518C1027.66 -37.5115 1020.36 -39.9587 1017.17 -39.9093C1014.46 -39.8672 1012.48 -39.0029 1010.02 -38.3378C1008.01 -37.7941 1006.06 -36.523 1003.51 -34.2598C999.95 -31.0959 998.748 -28.9407 995.283 -22.5179C993.685 -19.5555 992.63 -15.6401 991.021 -4.62204C989.796 3.76955 991.566 8.63685 992.132 11.2704C992.637 13.6218 993.721 16.2438 994.544 18.1105C995.442 20.1467 996.929 21.8519 998.322 23.638C999.823 25.5608 1002.68 28.0432 1007.77 30.8033C1010.01 32.0185 1014.27 31.1634 1017.48 30.9617C1020.31 30.784 1025.74 29.0954 1029.63 27.5959C1032.75 26.3952 1036.95 22.9755 1039.59 19.9866C1041.03 18.3589 1042.29 16.2937 1044.89 11.5094C1046.25 9.00671 1046.31 6.6801 1046.73 3.89267C1047.2 0.721183 1047.6 -0.913443 1047.88 -2.57629C1048.16 -4.2847 1048.07 -6.08191 1047.91 -8.04968C1047.64 -11.2823 1045.87 -14.1648 1044.98 -15.9115C1044.02 -17.806 1043.18 -19.3438 1042.05 -20.6191C1041.79 -20.9828 1041.56 -21.4001 1041.3 -21.7655C1041.04 -22.131 1040.75 -22.4318 1040.29 -23.281" stroke="#81C1FF" stroke-width="8" stroke-linecap="round"/>
<path d="M1012.74 8.45317C1012.99 8.58784 1013.25 8.7225 1013.41 8.76029C1013.8 8.84879 1014.05 8.35203 1014.58 8.14124C1014.9 8.04387 1015.15 7.94437 1015.33 7.84421C1015.43 7.79374 1015.52 7.74404 1015.65 7.61541" stroke="#F2FF63" stroke-width="8" stroke-linecap="round"/>
<path d="M1024.11 -2.44331C1024.37 -2.30865 1024.63 -2.17398 1024.79 -2.13619C1025.18 -2.0477 1025.42 -2.54446 1025.96 -2.75524C1026.27 -2.85262 1026.53 -2.95211 1026.71 -3.05228C1026.8 -3.10274 1026.89 -3.15245 1027.03 -3.28108" stroke="#F2FF63" stroke-width="8" stroke-linecap="round"/>
<path d="M1212.21 162.93C1208.1 162.93 1204.91 162.667 1200.53 162.2C1195.02 161.612 1190.67 162.395 1188.02 163.585C1179.52 167.403 1177.24 170.236 1174.1 173.034C1172.3 174.639 1170.44 176.495 1168.97 178.425C1167.23 180.709 1165.12 182.883 1163.85 184.481C1161.65 187.257 1157.94 193.637 1156.33 196.523C1155.08 198.759 1153.41 204.407 1152.67 207.966C1152.24 210.011 1152.07 212.687 1152 221.777C1151.97 225.625 1153.52 229.31 1155.39 233.907C1156.38 236.342 1158.18 238.899 1161.64 242.36C1163.6 244.327 1165.76 245.294 1167.89 246.691C1170.91 248.664 1177.59 249.158 1182.26 248.032C1184.56 247.479 1187.05 245.709 1189.85 244.042C1194.23 241.431 1196.37 238.922 1201.81 233.543C1204.54 230.85 1209.39 224.056 1212.61 219.893C1214.55 217.375 1215.66 214.843 1217.33 211.843C1218.48 209.783 1219.53 207.649 1220.26 206.05C1221.02 204.398 1221.92 202.595 1222.59 200.861C1223.21 199.245 1224.32 197.669 1224.99 195.739C1225.61 193.927 1226.19 191.817 1226.58 189.685C1226.99 187.525 1227.38 179.37 1226.99 174.447C1226.82 172.411 1225 170.659 1223.73 168.99C1222.53 167.409 1220.61 166.395 1219.01 165.727C1217.41 165.194 1215.68 164.926 1214.09 164.861C1213.42 164.795 1213.02 164.663 1212.21 164.527" stroke="#81C1FF" stroke-width="8" stroke-linecap="round"/>
<path d="M1180.41 194.761C1180.1 194.699 1179.79 194.637 1179.47 194.636C1178.84 194.634 1177.16 196.256 1175.02 198.614C1173.35 200.451 1172.74 202.932 1172.52 204.128C1172.43 205.704 1172.17 206.581 1172.08 207.401C1172.05 207.591 1171.99 207.778 1171.92 208.159" stroke="#F2FF63" stroke-width="8" stroke-linecap="round"/>
<path d="M1186.83 210.99C1186.95 211.115 1187.02 212.424 1186.92 214.716C1186.64 216.572 1186.14 217.904 1185.08 219.282C1184.33 220.161 1183.14 221.406 1181.73 222.69" stroke="#F2FF63" stroke-width="8" stroke-linecap="round"/>
<path d="M1198.7 200.61C1199.44 199.489 1199.95 198.725 1200.17 198.348C1200.27 198.158 1200.33 197.972 1200.36 197.751C1200.39 197.53 1200.39 197.281 1200.58 197.024" stroke="#F2FF63" stroke-width="8" stroke-linecap="round"/>
<path d="M1117.85 22.8033C1115.84 15.5462 1114.5 13.7002 1112.62 12.1137C1110.44 10.2709 1108.19 8.81194 1105.11 7.49085C1103.7 6.88957 1098.43 6.95805 1091.18 7.08877C1086.08 7.18072 1083.49 9.32692 1077.99 14.5301C1075.86 16.5429 1075.43 18.4379 1072.74 23.6411C1071.48 26.0957 1070.99 28.6027 1069.38 38.0009C1068.68 42.1052 1069.11 48.0369 1069.38 51.917C1069.91 59.7827 1071.79 61.2202 1074 64.7794C1075.18 66.6793 1075.82 68.3505 1077.36 70.5926C1079.8 74.1552 1083.18 76.6614 1089.69 80.3613C1095.25 83.5188 1098.23 82.4845 1105.8 82.5538C1109.45 82.5873 1113.93 79.9889 1116.43 78.9253C1119.08 77.7965 1121.73 76.4237 1124.22 74.4391C1125.96 73.0544 1127.24 71.1393 1128.32 69.224C1129.37 67.3613 1129.8 65.1973 1130.27 61.5807C1131.39 52.9834 1129.67 51.0713 1129.13 49.0213C1128.63 47.0973 1128.06 44.7332 1127.52 42.3544C1127.12 40.5967 1126.45 39.0526 1125.84 37.4661C1125.2 35.7763 1124.43 34.2991 1123.56 32.7126C1122.74 31.2216 1122.42 29.5455 1121.81 27.6302C1121.25 25.85 1120.4 24.3958 1119.93 22.7439C1119.73 20.8266 1119.33 19.6382 1118.99 18.8479C1118.79 18.4498 1118.53 18.0577 1118.25 17.2575" stroke="#81C1FF" stroke-width="8" stroke-linecap="round"/>
<path d="M1087.69 39.0801C1087.69 42.4329 1087.85 44.7989 1089.51 47.8818C1090.18 48.7077 1090.77 49.2529 1091.39 49.888C1091.68 50.1633 1091.93 50.3432 1092.68 51.0738" stroke="#F2FF63" stroke-width="8" stroke-linecap="round"/>
<path d="M1101.68 40.4435C1101.76 40.3535 1101.84 40.2636 1102.01 40.2622C1104.25 42.0626 1107.76 46.0696 1108.63 47.0277C1108.84 47.2553 1109 47.5252 1109.17 47.8032" stroke="#F2FF63" stroke-width="8" stroke-linecap="round"/>
<path d="M1101.68 58.7056C1102.34 58.7955 1104.17 59.338 1105.42 60.0208C1105.92 60.2484 1106.42 60.521 1106.92 60.8385C1107.17 60.9762 1107.42 61.0661 1107.93 61.1588" stroke="#F2FF63" stroke-width="8" stroke-linecap="round"/>
<path d="M1035.16 169.727C1032.56 161.128 1030.83 158.94 1028.4 157.06C1025.58 154.876 1022.67 153.147 1018.69 151.582C1016.87 150.869 1010.05 150.95 1000.68 151.105C994.087 151.214 990.735 153.757 983.626 159.923C980.876 162.309 980.308 164.554 976.842 170.72C975.207 173.629 974.579 176.6 972.496 187.737C971.586 192.601 972.142 199.63 972.485 204.228C973.182 213.549 975.61 215.253 978.467 219.47C979.992 221.722 980.819 223.702 982.808 226.359C985.97 230.581 990.339 233.551 998.756 237.935C1005.94 241.677 1009.8 240.452 1019.59 240.534C1024.31 240.573 1030.1 237.494 1033.33 236.234C1036.76 234.896 1040.17 233.269 1043.4 230.918C1045.65 229.277 1047.31 227.007 1048.7 224.737C1050.05 222.53 1050.61 219.966 1051.22 215.68C1052.67 205.492 1050.44 203.226 1049.75 200.797C1049.1 198.517 1048.36 195.715 1047.66 192.896C1047.15 190.813 1046.28 188.983 1045.5 187.103C1044.66 185.101 1043.67 183.35 1042.55 181.47C1041.49 179.703 1041.07 177.717 1040.29 175.447C1039.56 173.338 1038.46 171.615 1037.86 169.657C1037.59 167.385 1037.07 165.977 1036.64 165.04C1036.38 164.568 1036.04 164.104 1035.68 163.155" stroke="#81C1FF" stroke-width="8" stroke-linecap="round"/>
<path d="M996.164 189.016C996.164 192.989 996.377 195.793 998.524 199.446C999.388 200.425 1000.14 201.071 1000.95 201.824C1001.33 202.15 1001.65 202.363 1002.62 203.229" stroke="#F2FF63" stroke-width="8" stroke-linecap="round"/>
<path d="M1014.26 190.632C1014.36 190.525 1014.47 190.419 1014.69 190.417C1017.58 192.551 1022.11 197.299 1023.24 198.434C1023.52 198.704 1023.73 199.024 1023.95 199.353" stroke="#F2FF63" stroke-width="8" stroke-linecap="round"/>
<path d="M1014.26 212.273C1015.11 212.38 1017.48 213.022 1019.1 213.832C1019.74 214.101 1020.39 214.424 1021.04 214.801C1021.36 214.964 1021.68 215.07 1022.33 215.18" stroke="#F2FF63" stroke-width="8" stroke-linecap="round"/>
<path d="M906.51 138.216C902.573 133.145 899.88 131.762 897.881 131.256C896.118 130.81 894.435 130.22 891.117 129.832C887.88 129.453 885.676 129.712 882.695 130.073C879.832 130.419 877.515 130.985 873.686 133.603C869.887 136.201 866.283 142.454 864.971 144.469C863.657 146.486 862.446 147.928 861.328 149.898C859.499 153.121 858.584 156.097 857.203 160.629C856.184 163.974 855.281 167.296 854.724 169.704C853.684 174.2 854.089 176.73 854.12 180.448C854.133 181.985 854.367 183.187 854.615 185.561C855.135 190.549 856.896 195.827 858.702 200.011C860.499 204.173 862.329 206.596 863.462 208.67C867.45 215.97 870.638 218.285 875.614 223.155C878.858 226.331 881.437 226.67 883.635 227.543C886.004 228.485 888.323 229.427 893.481 230.953C897.138 232.035 901.426 232.092 904.469 231.72C907.651 231.33 913.989 229.18 916.81 227.149C920.339 224.608 923.407 220.225 924.894 217.624C926.085 215.541 927.168 213.538 928.508 210.646C930.828 205.643 932.308 197.162 932.636 192.389C932.771 190.418 932.483 188.019 932.633 185.953C932.828 183.269 932.343 180.862 932.182 178.928C932.108 178.044 931.339 172.698 929.709 164.818C928.622 159.562 927.018 157.769 925.881 155.342C924.244 151.848 922.941 150.546 921.377 149.082C919.139 146.986 917.585 145.874 916.187 144.579C914.803 143.297 913.026 142.538 911.257 141.789C909.487 141.04 907.725 140.294 906.271 139.08C905.055 137.684 904.31 136.606 903.705 135.91C903.432 135.554 903.229 135.19 903.02 134.815" stroke="#81C1FF" stroke-width="8" stroke-linecap="round"/>
<path d="M886.331 161.549C884.952 164.931 884.867 166.414 885.05 169.082C885.698 172.741 886.299 175.429 886.602 176.059C886.751 176.355 886.888 176.602 887.398 177.338" stroke="#F2FF63" stroke-width="8" stroke-linecap="round"/>
<path d="M898.479 165.858C898.512 166.033 898.545 166.209 898.796 167.529C899.046 168.849 899.513 171.308 899.78 173.434C900.047 175.56 900.1 177.279 899.939 179.366" stroke="#F2FF63" stroke-width="8" stroke-linecap="round"/>
<path d="M886.602 194.859C886.924 196.08 888.141 197.682 890.272 198.982C890.735 199.219 891.032 199.345 891.588 199.379C892.145 199.412 892.952 199.35 893.783 199.286" stroke="#F2FF63" stroke-width="8" stroke-linecap="round"/>
<path d="M905.911 206.632C906.087 206.599 906.408 206.356 906.811 205.822C906.984 205.514 907.093 205.129 907.168 204.791C907.243 204.453 907.281 204.172 906.737 203.719" stroke="#F2FF63" stroke-width="8" stroke-linecap="round"/>
<path d="M958.376 87.9716C954.099 86.7598 949.562 85.7192 947.433 85.5809C942.991 85.2921 935.759 87.9244 933.299 89.9476C931.205 91.6691 930.193 93.5804 928.685 95.6322C927.452 97.3096 926.713 99.5231 926.131 102.88C925.318 107.573 925.721 110.008 927.013 117.19C927.609 120.503 929.223 124.223 934.83 133.843C939.1 141.17 943.517 143.874 945.601 145.582C947.461 147.106 949.942 148.482 951.749 149.429C953.72 150.462 955.946 150.869 958.149 151.398C960.52 151.967 964.303 152.127 970.001 151.117C972.51 150.672 975.309 147.349 977.693 145.192C979.795 143.29 982.992 138.585 985.102 134.986C986.792 132.105 987.949 126.811 988.15 122.83C988.26 120.661 987.96 118.26 987.013 112.897C986.518 110.092 985.114 108.236 983.704 105.795C982.1 103.018 981.396 101.489 980.574 100.018C979.73 98.5061 978.542 97.1549 977.188 95.7174C974.964 93.3559 971.784 92.2045 970.002 91.3907C968.069 90.5081 966.456 89.8267 964.774 89.5366C964.343 89.4153 963.905 89.2301 963.474 89.1068C963.042 88.9836 962.629 88.9279 961.737 88.5527" stroke="#81C1FF" stroke-width="8" stroke-linecap="round"/>
<path d="M946.07 110.755C946.184 111.064 946.518 111.663 946.881 112.26C947.127 112.544 947.446 112.763 947.758 112.951C947.892 113.065 947.975 113.213 948.281 113.657" stroke="#F2FF63" stroke-width="8" stroke-linecap="round"/>
<path d="M959.962 130.537C960.246 130.483 960.529 130.429 960.682 130.356C961.038 130.185 960.92 129.644 961.21 129.144C961.395 128.871 961.531 128.636 961.612 128.443C961.654 128.346 961.694 128.25 961.72 128.065" stroke="#F2FF63" stroke-width="8" stroke-linecap="round"/>
<path d="M962.071 114.926C962.355 114.872 962.639 114.819 962.791 114.746C963.148 114.575 963.03 114.034 963.319 113.533C963.505 113.261 963.64 113.026 963.722 112.833C963.763 112.736 963.804 112.64 963.829 112.455" stroke="#F2FF63" stroke-width="8" stroke-linecap="round"/>
<path d="M932.993 -2.88831C928.716 -4.1001 924.179 -5.14062 922.05 -5.27901C917.608 -5.56773 910.376 -2.93543 907.916 -0.91225C905.822 0.809209 904.81 2.72056 903.302 4.77229C902.069 6.44969 901.33 8.66327 900.748 12.0203C899.935 16.7134 900.338 19.148 901.63 26.3305C902.226 29.6431 903.84 33.363 909.447 42.9833C913.717 50.3104 918.134 53.0144 920.218 54.7218C922.078 56.2462 924.559 57.6218 926.366 58.5689C928.337 59.602 930.563 60.0093 932.766 60.5379C935.137 61.107 938.92 61.2675 944.618 60.2572C947.127 59.8124 949.927 56.4887 952.311 54.3317C954.412 52.4303 957.609 47.7249 959.719 44.1265C961.41 41.245 962.566 35.9513 962.768 31.9697C962.877 29.8014 962.577 27.4002 961.63 22.0375C961.135 19.2323 959.732 17.3756 958.322 14.9351C956.717 12.1582 956.013 10.6293 955.192 9.15789C954.347 7.64619 953.159 6.29506 951.805 4.85758C949.582 2.49609 946.401 1.34461 944.619 0.530835C942.687 -0.351811 941.074 -1.03312 939.391 -1.32331C938.96 -1.4446 938.522 -1.62976 938.091 -1.75302C937.659 -1.87627 937.246 -1.932 936.354 -2.30719" stroke="#81C1FF" stroke-width="8" stroke-linecap="round"/>
<path d="M920.688 19.8955C920.801 20.2044 921.135 20.8035 921.498 21.3997C921.744 21.6842 922.063 21.9027 922.375 22.0916C922.509 22.2049 922.592 22.3535 922.899 22.7968" stroke="#F2FF63" stroke-width="8" stroke-linecap="round"/>
<path d="M934.579 39.6767C934.863 39.6229 935.147 39.569 935.299 39.496C935.655 39.3251 935.537 38.7841 935.827 38.2837C936.013 38.0116 936.148 37.7766 936.23 37.5833C936.271 37.486 936.311 37.3901 936.337 37.2053" stroke="#F2FF63" stroke-width="8" stroke-linecap="round"/>
<path d="M936.688 24.0664C936.972 24.0125 937.256 23.9587 937.408 23.8857C937.765 23.7147 937.647 23.1737 937.937 22.6733C938.122 22.4012 938.257 22.1662 938.339 21.973C938.38 21.8756 938.421 21.7798 938.446 21.595" stroke="#F2FF63" stroke-width="8" stroke-linecap="round"/>
<path d="M881.995 36.2949C878.667 29.5399 877.005 27.9764 874.865 26.7677C872.379 25.3638 869.896 24.3501 866.62 23.6271C865.129 23.2981 859.957 24.3493 852.862 25.829C847.871 26.8698 845.725 29.4617 841.293 35.5989C839.578 37.973 839.5 39.9167 837.837 45.5285C837.052 48.1758 837.042 50.7293 837.212 60.2632C837.286 64.4266 838.814 70.1742 839.799 73.9367C841.795 81.5639 843.908 82.6261 846.742 85.7109C848.255 87.3576 849.195 88.8803 851.125 90.7962C854.191 93.8404 857.979 95.6724 865.064 98.0936C871.111 100.16 873.85 98.5873 881.301 97.2437C884.893 96.596 888.811 93.2077 891.067 91.697C893.46 90.0939 895.8 88.2524 897.882 85.8373C899.334 84.1523 900.237 82.0317 900.936 79.9494C901.617 77.9244 901.638 75.7177 901.427 72.0766C900.924 63.4212 898.877 61.8634 897.967 59.9497C897.112 58.1535 896.112 55.9369 895.141 53.7001C894.422 52.0474 893.47 50.6564 892.581 49.2104C891.633 47.6703 890.605 46.3618 889.453 44.9657C888.369 43.6537 887.74 42.0671 886.789 40.2981C885.906 38.6538 884.801 37.3833 884.03 35.8482C883.475 34.0021 882.857 32.9097 882.381 32.1956C882.109 31.842 881.775 31.5063 881.357 30.7712" stroke="#81C1FF" stroke-width="8" stroke-linecap="round"/>
<path d="M855.398 57.9102C856.024 61.2041 856.627 63.4979 858.833 66.2172C859.643 66.9041 860.319 67.3307 861.05 67.8384C861.39 68.0542 861.666 68.1848 862.544 68.7618" stroke="#F2FF63" stroke-width="8" stroke-linecap="round"/>
<path d="M869.401 56.6405C869.465 56.5367 869.529 56.433 869.692 56.4007C872.224 57.7528 876.419 61.0351 877.457 61.8133C877.706 61.9978 877.918 62.2322 878.137 62.4737" stroke="#F2FF63" stroke-width="8" stroke-linecap="round"/>
<path d="M872.805 74.5825C873.472 74.5474 875.367 74.7399 876.728 75.1766C877.26 75.3073 877.804 75.4815 878.353 75.7005C878.625 75.789 878.885 75.8312 879.398 75.8282" stroke="#F2FF63" stroke-width="8" stroke-linecap="round"/>
<path d="M828.148 196.061C823.991 188.096 821.879 186.27 819.144 184.876C815.967 183.256 812.786 182.1 808.577 181.305C806.661 180.944 799.973 182.296 790.796 184.195C784.341 185.531 781.522 188.655 775.687 196.038C773.43 198.894 773.291 201.206 771.036 207.911C769.972 211.073 769.909 214.109 769.939 225.439C769.952 230.387 771.808 237.19 773.003 241.643C775.426 250.671 778.129 251.892 781.722 255.503C783.64 257.43 784.822 259.222 787.272 261.461C791.165 265.02 796.012 267.123 805.099 269.861C812.853 272.198 816.416 270.274 826.048 268.529C830.692 267.688 835.81 263.583 838.748 261.743C841.865 259.789 844.919 257.554 847.65 254.642C849.556 252.61 850.761 250.071 851.704 247.582C852.622 245.161 852.693 242.537 852.492 238.213C852.016 227.934 849.408 226.122 848.271 223.865C847.205 221.747 845.96 219.132 844.752 216.492C843.858 214.541 842.658 212.907 841.54 211.205C840.349 209.393 839.049 207.858 837.591 206.221C836.221 204.683 835.441 202.809 834.25 200.725C833.143 198.788 831.744 197.299 830.78 195.489C830.101 193.306 829.327 192.019 828.727 191.18C828.384 190.765 827.959 190.372 827.434 189.507" stroke="#81C1FF" stroke-width="8" stroke-linecap="round"/>
<path d="M793.43 222.282C794.171 226.186 794.903 228.901 797.693 232.09C798.724 232.89 799.587 233.384 800.519 233.973C800.953 234.223 801.307 234.373 802.427 235.041" stroke="#F2FF63" stroke-width="8" stroke-linecap="round"/>
<path d="M811.509 220.495C811.594 220.371 811.679 220.246 811.889 220.204C815.126 221.762 820.47 225.581 821.793 226.485C822.109 226.7 822.378 226.974 822.656 227.257" stroke="#F2FF63" stroke-width="8" stroke-linecap="round"/>
</g>
<defs>
<clipPath id="clip0_1746_4474">
<rect width="1200" height="221" fill="white"/>
</clipPath>
</defs>
</svg>
