<svg width="1200" height="221" viewBox="0 0 1200 221" fill="none" xmlns="http://www.w3.org/2000/svg">
<g clip-path="url(#clip0_1746_3776)">
<rect width="1200" height="221" fill="#177B51"/>
<path d="M894.585 -13.3518C898.046 -4.54668 899.653 1.16621 898.499 10.5568C897.491 18.7588 896.295 24.0718 890.846 30.2851C883.012 39.2193 873.998 40.423 862.116 40.3039C855.324 40.2358 851.833 35.973 845.086 36.765C838.34 37.557 835.968 42.6699 829.339 44.152C823.872 45.3741 820.37 46.3428 815.007 44.7269C805.763 41.9417 802.199 34.7641 799.459 25.507C798.239 21.3876 798.677 18.848 798.176 14.5812C797.174 6.04754 795.557 1.32153 795.611 -7.27053C795.649 -13.4215 795.384 -17.0426 797.093 -22.9515C799.721 -32.0402 799.229 -36.3837 810.208 -43.3212C821.188 -50.2587 829.885 -55.926 842.986 -47.1693C856.086 -38.4125 864.256 -45.9417 874.989 -38.7424C885.391 -31.7653 890.002 -25.0085 894.585 -13.3518ZM894.585 -13.3518L857.627 2.06322M857.959 -42.2815L848.824 -6.87215" stroke="#5FE5AD" stroke-width="4"/>
<path d="M848.677 10.873L847.129 35.423" stroke="#5FE5AD" stroke-width="4"/>
<path d="M841.932 0.587904L799.844 -27.7002" stroke="#5FE5AD" stroke-width="4"/>
<path d="M843.922 8.10765L803.492 31.6841" stroke="#5FE5AD" stroke-width="4"/>
<circle cx="848.749" cy="2.002" r="7.83948" transform="rotate(-33.2609 848.749 2.002)" stroke="#5FE5AD" stroke-width="4"/>
<path d="M852.647 84.2048C857.771 80.8444 863.4 81.8206 865.559 85.1119C867.717 88.4033 866.37 93.9544 861.246 97.3151C856.123 100.676 850.494 99.7005 848.335 96.4093C846.176 93.1179 847.524 87.5656 852.647 84.2048Z" stroke="#5FE5AD" stroke-width="4"/>
<path d="M823.758 66.381C832.96 61.6509 841.574 47.0958 851.425 50.2569C869.496 56.0552 884.472 45.6724 902.296 56.053C913.947 62.8389 923.462 70.0191 923.24 83.5005C922.969 99.9417 901.321 94.9353 890.971 110.549C880.621 126.163 871.201 123.853 857.752 132.338C848.489 138.181 842.745 134.838 832.095 137.399C824.17 139.305 817.592 138.742 811.659 133.152C804.773 126.664 809.273 118.581 807.745 109.244C806.216 99.9068 801.119 94.3996 803.83 85.3351C806.908 75.0452 814.206 71.2911 823.758 66.381Z" stroke="#5FE5AD" stroke-width="4"/>
<path d="M861.004 96.9277L874.429 126.366" stroke="#5FE5AD" stroke-width="4"/>
<path d="M852.132 96.8628L815.683 135.479" stroke="#5FE5AD" stroke-width="4"/>
<path d="M850.144 89.3415L810.688 74.0361" stroke="#5FE5AD" stroke-width="4"/>
<path d="M863.837 83.3033L884.539 52.0742" stroke="#5FE5AD" stroke-width="4"/>
<path d="M865.82 90.8237L924.563 81.712" stroke="#5FE5AD" stroke-width="4"/>
<path d="M894.6 -13.3582C898.062 -4.55303 899.669 1.15986 898.515 10.5504C897.507 18.7524 896.31 24.0654 890.862 30.2788C883.028 39.2129 874.014 40.4166 862.132 40.2975C855.339 40.2295 851.848 35.9666 845.102 36.7586C838.355 37.5507 835.983 42.6636 829.354 44.1456C823.888 45.3677 820.386 46.3365 815.022 44.7205C805.779 41.9354 802.215 34.7578 799.474 25.5006C798.255 21.3813 798.693 18.8416 798.192 14.5748C797.19 6.04119 795.573 1.31518 795.626 -7.27687C795.665 -13.4278 795.399 -17.049 797.108 -22.9579C799.737 -32.0465 799.244 -36.39 810.224 -43.3276C821.203 -50.2651 829.901 -55.9324 843.001 -47.1756C856.102 -38.4189 864.271 -45.948 875.005 -38.7487C885.407 -31.7716 890.017 -25.0149 894.6 -13.3582ZM894.6 -13.3582L857.642 2.05688M857.975 -42.2878L848.84 -6.8785" stroke="#5FE5AD" stroke-width="4"/>
<path d="M848.693 10.8667L847.145 35.4166" stroke="#5FE5AD" stroke-width="4"/>
<path d="M841.948 0.583021L799.859 -27.7051" stroke="#5FE5AD" stroke-width="4"/>
<path d="M843.938 8.10277L803.508 31.6792" stroke="#5FE5AD" stroke-width="4"/>
<circle cx="848.757" cy="1.9981" r="7.83948" transform="rotate(-33.2609 848.757 1.9981)" stroke="#5FE5AD" stroke-width="4"/>
<circle cx="758.39" cy="43.6216" r="7.83948" transform="rotate(-33.2609 758.39 43.6216)" stroke="#5FE5AD" stroke-width="4"/>
<path d="M762.438 49.7925L782.674 80.646" stroke="#5FE5AD" stroke-width="4"/>
<path d="M765.906 41.6309L796.627 39.1319" stroke="#5FE5AD" stroke-width="4"/>
<path d="M759.802 36.8107L749.142 2.61767" stroke="#5FE5AD" stroke-width="4"/>
<path d="M751.574 42.2062L718.93 28.3164" stroke="#5FE5AD" stroke-width="4"/>
<path d="M756.972 50.435L737.686 74.8521" stroke="#5FE5AD" stroke-width="4"/>
<path d="M852.663 84.198C857.787 80.8375 863.416 81.8138 865.574 85.1051C867.733 88.3965 866.385 93.9476 861.262 97.3082C856.138 100.669 850.509 99.6936 848.35 96.4025C846.191 93.1111 847.539 87.5587 852.663 84.198Z" stroke="#5FE5AD" stroke-width="4"/>
<path d="M823.766 66.3781C832.968 61.648 841.581 47.0929 851.433 50.254C869.504 56.0523 884.48 45.6694 902.303 56.0501C913.955 62.836 923.47 70.0162 923.248 83.4976C922.977 99.9388 901.329 94.9324 890.979 110.546C880.629 126.16 871.209 123.851 857.76 132.335C848.497 138.179 842.752 134.835 832.103 137.396C824.178 139.302 817.6 138.739 811.667 133.149C804.781 126.661 809.281 118.578 807.752 109.241C806.224 99.9039 801.127 94.3967 803.838 85.3322C806.915 75.0423 814.213 71.2882 823.766 66.3781Z" stroke="#5FE5AD" stroke-width="4"/>
<path d="M861.012 96.9248L874.437 126.363" stroke="#5FE5AD" stroke-width="4"/>
<path d="M852.14 96.8574L815.691 135.473" stroke="#5FE5AD" stroke-width="4"/>
<path d="M850.144 89.3395L810.688 74.0342" stroke="#5FE5AD" stroke-width="4"/>
<path d="M863.837 83.2999L884.539 52.0708" stroke="#5FE5AD" stroke-width="4"/>
<path d="M865.836 90.8188L924.579 81.7071" stroke="#5FE5AD" stroke-width="4"/>
<path d="M798.546 55.5257C798.914 39.6867 790.675 32.0816 785.188 17.2189C779.701 2.35619 751.194 1.27216 751.194 1.27216C740.268 2.55493 741.521 2.40543 736.155 5.25291C727.295 9.95344 722.354 19.5465 719.633 24.9148C713.971 36.0872 719.914 45.6861 723.481 57.6925C725.687 65.1167 729.073 70.0951 736.331 72.7986C747.423 76.9305 749.313 93.3316 758.691 93.434C768.068 93.5365 780.394 82.7852 794.3 75.9619C808.206 69.1386 798.357 63.6748 798.546 55.5257Z" stroke="#5FE5AD" stroke-width="4"/>
<path d="M1094.6 -41.3567C1098.06 -32.5516 1099.67 -26.8387 1098.51 -17.4481C1097.51 -9.24611 1096.31 -3.9331 1090.86 2.28022C1083.03 11.2144 1074.01 12.4181 1062.13 12.299C1055.34 12.2309 1051.85 7.96808 1045.1 8.76011C1038.36 9.55214 1035.98 14.665 1029.35 16.1471C1023.89 17.3692 1020.39 18.3379 1015.02 16.722C1005.78 13.9368 1002.22 6.75923 999.474 -2.49789C998.255 -6.61725 998.693 -9.15692 998.192 -13.4237C997.19 -21.9573 995.573 -26.6834 995.626 -35.2754C995.665 -41.4264 995.399 -45.0475 997.108 -50.9564C999.737 -60.0451 999.244 -64.3885 1010.22 -71.3261C1021.2 -78.2636 1029.9 -83.9309 1043 -75.1742C1056.1 -66.4174 1064.27 -73.9466 1075 -66.7473C1085.41 -59.7702 1090.02 -53.0134 1094.6 -41.3567ZM1094.6 -41.3567L1057.64 -25.9417M1057.97 -70.2864L1048.84 -34.877" stroke="#5FE5AD" stroke-width="4"/>
<path d="M1048.7 -17.1333L1047.15 7.41661" stroke="#5FE5AD" stroke-width="4"/>
<path d="M1043.95 -19.8987L1003.52 3.67773" stroke="#5FE5AD" stroke-width="4"/>
<path d="M1052.67 56.1985C1057.79 52.838 1063.42 53.8143 1065.58 57.1056C1067.74 60.397 1066.39 65.948 1061.27 69.3087C1056.15 72.6694 1050.52 71.6941 1048.36 68.403C1046.2 65.1116 1047.55 59.5592 1052.67 56.1985Z" stroke="#5FE5AD" stroke-width="4"/>
<path d="M1023.77 38.3795C1032.98 33.6494 1041.59 19.0944 1051.44 22.2554C1069.51 28.0537 1084.49 17.6709 1102.31 28.0516C1113.96 34.8375 1123.48 42.0176 1123.26 55.499C1122.99 71.9403 1101.34 66.9338 1090.99 82.5479C1080.64 98.1619 1071.22 95.852 1057.77 104.336C1048.5 110.18 1042.76 106.836 1032.11 109.397C1024.19 111.304 1017.61 110.741 1011.67 105.151C1004.79 98.6626 1009.29 90.5791 1007.76 81.2422C1006.23 71.9054 1001.13 66.3982 1003.85 57.3337C1006.92 47.0437 1014.22 43.2897 1023.77 38.3795Z" stroke="#5FE5AD" stroke-width="4"/>
<path d="M1061.01 68.9263L1074.44 98.3642" stroke="#5FE5AD" stroke-width="4"/>
<path d="M1052.15 68.8589L1015.7 107.475" stroke="#5FE5AD" stroke-width="4"/>
<path d="M1050.15 61.341L1010.7 46.0356" stroke="#5FE5AD" stroke-width="4"/>
<path d="M1063.84 55.3018L1084.55 24.0727" stroke="#5FE5AD" stroke-width="4"/>
<path d="M1065.84 62.8223L1124.58 53.7106" stroke="#5FE5AD" stroke-width="4"/>
<path d="M1094.58 -41.3518C1098.05 -32.5467 1099.65 -26.8338 1098.5 -17.4432C1097.49 -9.24123 1096.29 -3.92822 1090.85 2.2851C1083.01 11.2193 1074 12.423 1062.12 12.3039C1055.32 12.2358 1051.83 7.97297 1045.09 8.76499C1038.34 9.55702 1035.97 14.6699 1029.34 16.152C1023.87 17.3741 1020.37 18.3428 1015.01 16.7269C1005.76 13.9417 1002.2 6.76411 999.459 -2.49301C998.239 -6.61237 998.677 -9.15204 998.176 -13.4188C997.174 -21.9525 995.557 -26.6785 995.611 -35.2705C995.649 -41.4215 995.384 -45.0426 997.093 -50.9515C999.721 -60.0402 999.229 -64.3837 1010.21 -71.3212C1021.19 -78.2587 1029.89 -83.926 1042.99 -75.1693C1056.09 -66.4125 1064.26 -73.9417 1074.99 -66.7424C1085.39 -59.7653 1090 -53.0085 1094.58 -41.3518ZM1094.58 -41.3518L1057.63 -25.9368M1057.96 -70.2815L1048.82 -34.8721" stroke="#5FE5AD" stroke-width="4"/>
<path d="M1048.68 -17.126L1047.13 7.42394" stroke="#5FE5AD" stroke-width="4"/>
<path d="M1043.94 -19.8933L1003.51 3.68311" stroke="#5FE5AD" stroke-width="4"/>
<circle cx="958.382" cy="15.6285" r="7.83948" transform="rotate(-33.2609 958.382 15.6285)" stroke="#5FE5AD" stroke-width="4"/>
<path d="M962.43 21.7974L982.667 52.6508" stroke="#5FE5AD" stroke-width="4"/>
<path d="M965.898 13.6372L996.619 11.1383" stroke="#5FE5AD" stroke-width="4"/>
<path d="M959.802 8.81416L949.142 -25.3789" stroke="#5FE5AD" stroke-width="4"/>
<path d="M951.574 14.2106L918.93 0.320801" stroke="#5FE5AD" stroke-width="4"/>
<path d="M956.972 22.4389L937.686 46.856" stroke="#5FE5AD" stroke-width="4"/>
<path d="M1052.66 56.2048C1057.78 52.8444 1063.41 53.8206 1065.57 57.1119C1067.73 60.4033 1066.38 65.9544 1061.25 69.3151C1056.13 72.6757 1050.5 71.7005 1048.34 68.4093C1046.18 65.1179 1047.53 59.5656 1052.66 56.2048Z" stroke="#5FE5AD" stroke-width="4"/>
<path d="M1023.76 38.3829C1032.96 33.6529 1041.57 19.0978 1051.43 22.2588C1069.5 28.0571 1084.47 17.6743 1102.3 28.055C1113.95 34.8409 1123.46 42.021 1123.24 55.5024C1122.97 71.9437 1101.32 66.9373 1090.97 82.5513C1080.62 98.1654 1071.2 95.8554 1057.75 104.34C1048.49 110.183 1042.74 106.84 1032.1 109.401C1024.17 111.307 1017.59 110.744 1011.66 105.154C1004.77 98.666 1009.27 90.5825 1007.74 81.2457C1006.22 71.9088 1001.12 66.4016 1003.83 57.3371C1006.91 47.0471 1014.21 43.2931 1023.76 38.3829Z" stroke="#5FE5AD" stroke-width="4"/>
<path d="M1061 68.9302L1074.43 98.3681" stroke="#5FE5AD" stroke-width="4"/>
<path d="M1052.13 68.8633L1015.68 107.479" stroke="#5FE5AD" stroke-width="4"/>
<path d="M1050.15 61.342L1010.7 46.0366" stroke="#5FE5AD" stroke-width="4"/>
<path d="M1063.84 55.3057L1084.54 24.0766" stroke="#5FE5AD" stroke-width="4"/>
<path d="M1065.82 62.8257L1124.56 53.714" stroke="#5FE5AD" stroke-width="4"/>
<path d="M998.546 27.5272C998.914 11.6882 990.675 4.08302 985.188 -10.7797C979.701 -25.6423 951.194 -26.7264 951.194 -26.7264C940.268 -25.4436 941.521 -25.5931 936.155 -22.7456C927.295 -18.0451 922.354 -8.45204 919.633 -3.08371C913.971 8.08862 919.914 17.6875 923.481 29.694C925.687 37.1182 929.073 42.0965 936.331 44.8001C947.423 48.932 949.313 65.333 958.691 65.4355C968.068 65.5379 980.394 54.7866 994.3 47.9633C1008.21 41.14 998.357 35.6763 998.546 27.5272Z" stroke="#5FE5AD" stroke-width="4"/>
<path d="M1016.6 135.643C1020.06 144.448 1021.67 150.161 1020.51 159.552C1019.51 167.754 1018.31 173.067 1012.86 179.28C1005.03 188.214 996.014 189.418 984.132 189.299C977.339 189.231 973.848 184.968 967.102 185.76C960.355 186.552 957.983 191.665 951.354 193.147C945.888 194.369 942.386 195.338 937.022 193.722C927.779 190.937 924.215 183.759 921.474 174.502C920.255 170.383 920.693 167.843 920.192 163.576C919.19 155.043 917.573 150.317 917.626 141.725C917.665 135.574 917.399 131.953 919.108 126.044C921.737 116.955 921.244 112.611 932.224 105.674C943.203 98.7364 951.901 93.0691 965.001 101.826C978.102 110.583 986.271 103.053 997.005 110.253C1007.41 117.23 1012.02 123.987 1016.6 135.643ZM1016.6 135.643L979.642 151.058M979.975 106.714L970.84 142.123" stroke="#5FE5AD" stroke-width="4"/>
<path d="M970.701 159.866L969.152 184.416" stroke="#5FE5AD" stroke-width="4"/>
<path d="M963.956 149.582L921.867 121.294" stroke="#5FE5AD" stroke-width="4"/>
<path d="M965.946 157.102L925.516 180.678" stroke="#5FE5AD" stroke-width="4"/>
<circle cx="970.765" cy="150.999" r="7.83948" transform="rotate(-33.2609 970.765 150.999)" stroke="#5FE5AD" stroke-width="4"/>
<path d="M945.773 215.38C954.975 210.65 963.589 196.095 973.441 199.256C991.512 205.054 1006.49 194.671 1024.31 205.052C1035.96 211.838 1045.48 219.018 1045.26 232.5C1044.99 248.941 1023.34 243.934 1012.99 259.548C1002.64 275.162 993.217 272.852 979.768 281.337C970.504 287.181 964.76 283.837 954.111 286.398C946.186 288.304 939.607 287.741 933.675 282.151C926.789 275.663 931.289 267.58 929.76 258.243C928.232 248.906 923.135 243.399 925.846 234.334C928.923 224.044 936.221 220.29 945.773 215.38Z" stroke="#5FE5AD" stroke-width="4"/>
<path d="M972.152 238.341L932.695 223.036" stroke="#5FE5AD" stroke-width="4"/>
<path d="M985.845 232.302L1006.55 201.073" stroke="#5FE5AD" stroke-width="4"/>
<path d="M987.836 239.823L1046.58 230.711" stroke="#5FE5AD" stroke-width="4"/>
<path d="M1016.58 135.648C1020.05 144.453 1021.65 150.166 1020.5 159.557C1019.49 167.759 1018.29 173.072 1012.85 179.285C1005.01 188.219 995.998 189.423 984.116 189.304C977.324 189.236 973.833 184.973 967.086 185.765C960.34 186.557 957.968 191.67 951.339 193.152C945.872 194.374 942.37 195.343 937.007 193.727C927.763 190.942 924.199 183.764 921.459 174.507C920.239 170.388 920.677 167.848 920.176 163.581C919.174 155.048 917.557 150.322 917.611 141.729C917.649 135.579 917.384 131.957 919.093 126.048C921.721 116.96 921.229 112.616 932.208 105.679C943.188 98.7413 951.885 93.074 964.986 101.831C978.086 110.587 986.256 103.058 996.989 110.258C1007.39 117.235 1012 123.991 1016.58 135.648ZM1016.58 135.648L979.627 151.063M979.959 106.719L970.824 142.128" stroke="#5FE5AD" stroke-width="4"/>
<path d="M970.685 159.873L969.137 184.423" stroke="#5FE5AD" stroke-width="4"/>
<path d="M963.948 149.587L921.859 121.299" stroke="#5FE5AD" stroke-width="4"/>
<path d="M965.93 157.108L925.5 180.685" stroke="#5FE5AD" stroke-width="4"/>
<circle cx="970.757" cy="151.002" r="7.83948" transform="rotate(-33.2609 970.757 151.002)" stroke="#5FE5AD" stroke-width="4"/>
<circle cx="880.382" cy="192.627" r="7.83948" transform="rotate(-33.2609 880.382 192.627)" stroke="#5FE5AD" stroke-width="4"/>
<path d="M884.438 198.796L904.674 229.649" stroke="#5FE5AD" stroke-width="4"/>
<path d="M887.898 190.638L918.619 188.139" stroke="#5FE5AD" stroke-width="4"/>
<path d="M881.802 185.814L871.142 151.621" stroke="#5FE5AD" stroke-width="4"/>
<path d="M873.567 191.213L840.922 177.323" stroke="#5FE5AD" stroke-width="4"/>
<path d="M878.972 199.438L859.686 223.856" stroke="#5FE5AD" stroke-width="4"/>
<path d="M945.758 215.383C954.96 210.653 963.574 196.098 973.425 199.259C991.496 205.058 1006.47 194.675 1024.3 205.055C1035.95 211.841 1045.46 219.022 1045.24 232.503C1044.97 248.944 1023.32 243.938 1012.97 259.552C1002.62 275.166 993.201 272.856 979.752 281.34C970.489 287.184 964.745 283.84 954.095 286.401C946.17 288.308 939.592 287.745 933.659 282.155C926.773 275.667 931.273 267.583 929.745 258.246C928.216 248.909 923.119 243.402 925.83 234.338C928.908 224.048 936.206 220.294 945.758 215.383Z" stroke="#5FE5AD" stroke-width="4"/>
<path d="M972.152 238.342L932.695 223.037" stroke="#5FE5AD" stroke-width="4"/>
<path d="M985.837 232.305L1006.54 201.076" stroke="#5FE5AD" stroke-width="4"/>
<path d="M987.828 239.824L1046.57 230.713" stroke="#5FE5AD" stroke-width="4"/>
<path d="M1016.58 135.648C1020.05 144.453 1021.65 150.166 1020.5 159.557C1019.49 167.759 1018.29 173.072 1012.85 179.285C1005.01 188.219 995.998 189.423 984.116 189.304C977.324 189.236 973.833 184.973 967.086 185.765C960.34 186.557 957.968 191.67 951.339 193.152C945.872 194.374 942.37 195.343 937.007 193.727C927.763 190.942 924.199 183.764 921.459 174.507C920.239 170.388 920.677 167.848 920.176 163.581C919.174 155.048 917.557 150.322 917.611 141.729C917.649 135.579 917.384 131.957 919.093 126.048C921.721 116.96 921.229 112.616 932.208 105.679C943.188 98.7413 951.885 93.074 964.986 101.831C978.086 110.587 986.256 103.058 996.989 110.258C1007.39 117.235 1012 123.991 1016.58 135.648ZM1016.58 135.648L979.627 151.063M979.959 106.719L970.824 142.128" stroke="#5FE5AD" stroke-width="4"/>
<path d="M970.685 159.873L969.137 184.423" stroke="#5FE5AD" stroke-width="4"/>
<path d="M963.948 149.587L921.859 121.299" stroke="#5FE5AD" stroke-width="4"/>
<path d="M965.93 157.108L925.5 180.685" stroke="#5FE5AD" stroke-width="4"/>
<circle cx="970.757" cy="151.002" r="7.83948" transform="rotate(-33.2609 970.757 151.002)" stroke="#5FE5AD" stroke-width="4"/>
<circle cx="880.382" cy="192.627" r="7.83948" transform="rotate(-33.2609 880.382 192.627)" stroke="#5FE5AD" stroke-width="4"/>
<path d="M884.438 198.796L904.674 229.649" stroke="#5FE5AD" stroke-width="4"/>
<path d="M887.898 190.638L918.619 188.139" stroke="#5FE5AD" stroke-width="4"/>
<path d="M881.802 185.814L871.142 151.621" stroke="#5FE5AD" stroke-width="4"/>
<path d="M873.567 191.213L840.922 177.323" stroke="#5FE5AD" stroke-width="4"/>
<path d="M878.972 199.438L859.686 223.856" stroke="#5FE5AD" stroke-width="4"/>
<path d="M945.758 215.383C954.96 210.653 963.574 196.098 973.425 199.259C991.496 205.058 1006.47 194.675 1024.3 205.055C1035.95 211.841 1045.46 219.022 1045.24 232.503C1044.97 248.944 1023.32 243.938 1012.97 259.552C1002.62 275.166 993.201 272.856 979.752 281.34C970.489 287.184 964.745 283.84 954.095 286.401C946.17 288.308 939.592 287.745 933.659 282.155C926.773 275.667 931.273 267.583 929.745 258.246C928.216 248.909 923.119 243.402 925.83 234.338C928.908 224.048 936.206 220.294 945.758 215.383Z" stroke="#5FE5AD" stroke-width="4"/>
<path d="M972.152 238.342L932.695 223.037" stroke="#5FE5AD" stroke-width="4"/>
<path d="M985.837 232.305L1006.54 201.076" stroke="#5FE5AD" stroke-width="4"/>
<path d="M987.828 239.824L1046.57 230.713" stroke="#5FE5AD" stroke-width="4"/>
<path d="M920.546 204.527C920.914 188.688 912.675 181.083 907.188 166.22C901.701 151.357 873.194 150.273 873.194 150.273C862.268 151.556 863.521 151.406 858.155 154.254C849.295 158.954 844.354 168.547 841.633 173.916C835.971 185.088 841.914 194.687 845.481 206.694C847.687 214.118 851.073 219.096 858.331 221.8C869.423 225.931 871.313 242.333 880.691 242.435C890.068 242.537 902.394 231.786 916.3 224.963C930.206 218.14 920.357 212.676 920.546 204.527Z" stroke="#5FE5AD" stroke-width="4"/>
<path d="M1222.58 116.637C1226.05 125.443 1227.65 131.155 1226.5 140.546C1225.49 148.748 1224.29 154.061 1218.85 160.274C1211.01 169.209 1202 170.412 1190.12 170.293C1183.32 170.225 1179.83 165.962 1173.09 166.754C1166.34 167.546 1163.97 172.659 1157.34 174.141C1151.87 175.363 1148.37 176.332 1143.01 174.716C1133.76 171.931 1130.2 164.753 1127.46 155.496C1126.24 151.377 1126.68 148.837 1126.18 144.57C1125.17 136.037 1123.56 131.311 1123.61 122.719C1123.65 116.568 1123.38 112.947 1125.09 107.038C1127.72 97.9491 1127.23 93.6056 1138.21 86.6681C1149.19 79.7305 1157.89 74.0632 1170.99 82.82C1184.09 91.5767 1192.26 84.0476 1202.99 91.2469C1213.39 98.224 1218 104.981 1222.58 116.637ZM1222.58 116.637L1185.63 132.052M1185.96 87.7078L1176.82 123.117" stroke="#5FE5AD" stroke-width="4"/>
<path d="M1176.69 140.86L1175.14 165.41" stroke="#5FE5AD" stroke-width="4"/>
<path d="M1169.94 130.577L1127.85 102.289" stroke="#5FE5AD" stroke-width="4"/>
<path d="M1171.93 138.096L1131.5 161.673" stroke="#5FE5AD" stroke-width="4"/>
<circle cx="1176.76" cy="131.992" r="7.83948" transform="rotate(-33.2609 1176.76 131.992)" stroke="#5FE5AD" stroke-width="4"/>
<path d="M1180.66 214.192C1185.79 210.831 1191.42 211.807 1193.57 215.099C1195.73 218.39 1194.39 223.941 1189.26 227.302C1184.14 230.663 1178.51 229.687 1176.35 226.396C1174.19 223.105 1175.54 217.552 1180.66 214.192Z" stroke="#5FE5AD" stroke-width="4"/>
<path d="M1151.77 196.373C1160.97 191.643 1169.58 177.088 1179.43 180.249C1197.5 186.047 1212.48 175.665 1230.3 186.045C1241.95 192.831 1251.47 200.011 1251.25 213.493C1250.98 229.934 1229.33 224.928 1218.98 240.542C1208.63 256.156 1199.21 253.846 1185.76 262.33C1176.5 268.174 1170.75 264.83 1160.1 267.391C1152.18 269.297 1145.6 268.734 1139.67 263.144C1132.78 256.656 1137.28 248.573 1135.75 239.236C1134.22 229.899 1129.13 224.392 1131.84 215.327C1134.92 205.037 1142.21 201.283 1151.77 196.373Z" stroke="#5FE5AD" stroke-width="4"/>
<path d="M1178.14 219.337L1138.69 204.031" stroke="#5FE5AD" stroke-width="4"/>
<path d="M1191.84 213.297L1212.54 182.068" stroke="#5FE5AD" stroke-width="4"/>
<path d="M1193.84 220.816L1252.58 211.704" stroke="#5FE5AD" stroke-width="4"/>
<path d="M1222.58 116.644C1226.04 125.449 1227.65 131.162 1226.49 140.552C1225.48 148.754 1224.29 154.067 1218.84 160.281C1211 169.215 1201.99 170.419 1190.11 170.299C1183.32 170.231 1179.82 165.969 1173.08 166.761C1166.33 167.553 1163.96 172.666 1157.33 174.148C1151.86 175.37 1148.36 176.338 1143 174.722C1133.76 171.937 1130.19 164.76 1127.45 155.503C1126.23 151.383 1126.67 148.844 1126.17 144.577C1125.17 136.043 1123.55 131.317 1123.6 122.725C1123.64 116.574 1123.38 112.953 1125.08 107.044C1127.71 97.9554 1127.22 93.6119 1138.2 86.6744C1149.18 79.7369 1157.88 74.0696 1170.98 82.8263C1184.08 91.5831 1192.25 84.0539 1202.98 91.2532C1213.38 98.2303 1217.99 104.987 1222.58 116.644ZM1222.58 116.644L1185.62 132.059M1185.95 87.7141L1176.82 123.123" stroke="#5FE5AD" stroke-width="4"/>
<path d="M1176.69 140.866L1175.14 165.416" stroke="#5FE5AD" stroke-width="4"/>
<path d="M1169.93 130.583L1127.84 102.294" stroke="#5FE5AD" stroke-width="4"/>
<path d="M1171.93 138.102L1131.5 161.679" stroke="#5FE5AD" stroke-width="4"/>
<circle cx="1176.75" cy="131.998" r="7.83948" transform="rotate(-33.2609 1176.75 131.998)" stroke="#5FE5AD" stroke-width="4"/>
<circle cx="1086.37" cy="173.622" r="7.83948" transform="rotate(-33.2609 1086.37 173.622)" stroke="#5FE5AD" stroke-width="4"/>
<path d="M1090.43 179.792L1110.67 210.645" stroke="#5FE5AD" stroke-width="4"/>
<path d="M1093.9 171.63L1124.62 169.131" stroke="#5FE5AD" stroke-width="4"/>
<path d="M1087.79 166.81L1077.13 132.617" stroke="#5FE5AD" stroke-width="4"/>
<path d="M1079.57 172.205L1046.92 158.315" stroke="#5FE5AD" stroke-width="4"/>
<path d="M1084.96 180.434L1065.67 204.851" stroke="#5FE5AD" stroke-width="4"/>
<path d="M1180.66 214.198C1185.78 210.837 1191.41 211.813 1193.57 215.105C1195.73 218.396 1194.38 223.947 1189.25 227.308C1184.13 230.668 1178.5 229.693 1176.34 226.402C1174.18 223.111 1175.53 217.558 1180.66 214.198Z" stroke="#5FE5AD" stroke-width="4"/>
<path d="M1151.75 196.377C1160.95 191.647 1169.57 177.092 1179.42 180.253C1197.49 186.051 1212.46 175.668 1230.29 186.049C1241.94 192.835 1251.45 200.015 1251.23 213.497C1250.96 229.938 1229.31 224.931 1218.96 240.545C1208.61 256.159 1199.19 253.85 1185.74 262.334C1176.48 268.178 1170.74 264.834 1160.09 267.395C1152.16 269.301 1145.58 268.738 1139.65 263.148C1132.77 256.66 1137.27 248.577 1135.74 239.24C1134.21 229.903 1129.11 224.396 1131.82 215.331C1134.9 205.041 1142.2 201.287 1151.75 196.377Z" stroke="#5FE5AD" stroke-width="4"/>
<path d="M1178.14 219.337L1138.68 204.031" stroke="#5FE5AD" stroke-width="4"/>
<path d="M1191.83 213.299L1212.53 182.07" stroke="#5FE5AD" stroke-width="4"/>
<path d="M1193.82 220.819L1252.56 211.708" stroke="#5FE5AD" stroke-width="4"/>
<path d="M1126.55 185.519C1126.91 169.68 1118.68 162.075 1113.19 147.213C1107.7 132.35 1079.19 131.266 1079.19 131.266C1068.27 132.549 1069.52 132.399 1064.15 135.247C1055.29 139.947 1050.35 149.54 1047.63 154.908C1041.97 166.081 1047.91 175.68 1051.48 187.686C1053.69 195.11 1057.07 200.089 1064.33 202.792C1075.42 206.924 1077.31 223.325 1086.69 223.428C1096.07 223.53 1108.39 212.779 1122.3 205.956C1136.21 199.132 1126.36 193.668 1126.55 185.519Z" stroke="#5FE5AD" stroke-width="4"/>
<path d="M1192.07 10.9238C1198.13 10.0184 1202.83 13.2625 1203.41 17.1555C1204 21.0483 1200.45 25.5246 1194.39 26.4304C1188.33 27.336 1183.62 24.0927 1183.04 20.1999C1182.46 16.3069 1186.01 11.8295 1192.07 10.9238Z" stroke="#5FE5AD" stroke-width="4"/>
<path d="M1173.3 -17.3608C1183.63 -17.8018 1197.55 -27.4108 1205.17 -20.414C1219.16 -7.57987 1237.1 -10.7354 1248.94 6.15597C1256.68 17.198 1262.31 27.7035 1256.46 39.8524C1249.33 54.6686 1231.77 41.0552 1215.83 50.8986C1199.89 60.7421 1192.31 54.699 1176.54 56.7701C1165.68 58.1966 1161.87 52.7543 1151.12 50.6198C1143.13 49.0313 1137.39 45.7648 1134.34 38.204C1130.81 29.4282 1138.28 23.9728 1140.8 14.8541C1143.33 5.73534 1141 -1.40027 1147.26 -8.49589C1154.37 -16.5508 1162.57 -16.9029 1173.3 -17.3608Z" stroke="#5FE5AD" stroke-width="4"/>
<path d="M1194.32 25.9765L1194.18 58.3307" stroke="#5FE5AD" stroke-width="4"/>
<path d="M1186.29 22.2021L1137.02 42.0012" stroke="#5FE5AD" stroke-width="4"/>
<path d="M1187.63 14.5382L1158.21 -15.8862" stroke="#5FE5AD" stroke-width="4"/>
<path d="M1202.6 14.791L1234.47 -4.896" stroke="#5FE5AD" stroke-width="4"/>
<path d="M1192.06 10.9248C1198.12 10.0194 1202.82 13.2635 1203.41 17.1564C1203.99 21.0493 1200.44 25.5256 1194.38 26.4313C1188.32 27.337 1183.62 24.0937 1183.03 20.2008C1182.45 16.3078 1186 11.8305 1192.06 10.9248Z" stroke="#5FE5AD" stroke-width="4"/>
<path d="M1173.28 -17.3622C1183.62 -17.8033 1197.54 -27.4122 1205.16 -20.4155C1219.14 -7.58133 1237.09 -10.7369 1248.92 6.1545C1256.66 17.1965 1262.3 27.7021 1256.45 39.8509C1249.31 54.6671 1231.75 41.0537 1215.82 50.8972C1199.88 60.7406 1192.29 54.6976 1176.53 56.7686C1165.67 58.1952 1161.85 52.7528 1151.11 50.6183C1143.11 49.0298 1137.37 45.7634 1134.33 38.2025C1130.79 29.4267 1138.27 23.9713 1140.79 14.8526C1143.31 5.73387 1140.99 -1.40174 1147.25 -8.49735C1154.35 -16.5522 1162.55 -16.9044 1173.28 -17.3622Z" stroke="#5FE5AD" stroke-width="4"/>
<path d="M1194.31 25.9755L1194.17 58.3298" stroke="#5FE5AD" stroke-width="4"/>
<path d="M1186.29 22.2012L1137.01 42.0002" stroke="#5FE5AD" stroke-width="4"/>
<path d="M1187.63 14.5382L1158.21 -15.8862" stroke="#5FE5AD" stroke-width="4"/>
<path d="M1202.59 14.79L1234.47 -4.89697" stroke="#5FE5AD" stroke-width="4"/>
</g>
<defs>
<clipPath id="clip0_1746_3776">
<rect width="1200" height="221" fill="white"/>
</clipPath>
</defs>
</svg>
