<svg width="1200" height="221" viewBox="0 0 1200 221" fill="none" xmlns="http://www.w3.org/2000/svg">
<g clip-path="url(#clip0_1745_3349)">
<rect width="1200" height="221" fill="#FD5D36"/>
<path d="M893.756 183.155L916.179 241.793M916.179 241.793L911.168 183.18M916.179 241.793L920.001 242.223L934.527 181.94" stroke="#FFB155" stroke-width="6"/>
<path d="M965.105 188.959L973.299 251.201M973.299 251.201L982.035 193.026M973.299 251.201L976.916 252.507L1005.04 197.245" stroke="#FFB155" stroke-width="6"/>
<path d="M1037.84 237.784L1074.45 288.78M1074.45 288.78L1054.68 233.375M1074.45 288.78L1078.26 288.223L1076.95 226.228" stroke="#FFB155" stroke-width="6"/>
<path d="M1108.31 225.234L1132.08 283.339M1132.08 283.339L1125.71 224.857M1132.08 283.339L1135.91 283.68L1149.04 223.078" stroke="#FFB155" stroke-width="6"/>
<path d="M993.782 159.878L1051.32 185.001M1051.32 185.001L1006.01 147.48M1051.32 185.001L1054.3 182.578L1021.5 129.954" stroke="#FFB155" stroke-width="6"/>
<path d="M1074.44 129.377L1111.05 180.373M1111.05 180.373L1091.28 124.968M1111.05 180.373L1114.86 179.816L1113.56 117.821" stroke="#FFB155" stroke-width="6"/>
<path d="M983.04 41.8348L1019.65 92.831M1019.65 92.831L999.885 37.4258M1019.65 92.831L1023.46 92.274L1022.16 30.2788" stroke="#FFB155" stroke-width="6"/>
<path d="M1053.52 29.2809L1077.29 87.3859M1077.29 87.3859L1070.92 28.9042M1077.29 87.3859L1081.12 87.7278L1094.25 27.1251" stroke="#FFB155" stroke-width="6"/>
<path d="M805.247 70.0887L850.543 113.557M850.543 113.557L821.005 62.6833M850.543 113.557L854.183 112.316L841.603 51.5962" stroke="#FFB155" stroke-width="6"/>
<path d="M785.076 5.19524L817.858 36.6541M817.858 36.6541L796.481 -0.164244M817.858 36.6541L820.492 35.7558L811.388 -8.1883" stroke="#FFB155" stroke-width="6"/>
<path d="M959.073 -16.9511L973.756 26.0458M973.756 26.0458L971.666 -16.4773M973.756 26.0458L976.509 26.4569L988.593 -16.763" stroke="#FFB155" stroke-width="6"/>
<path d="M1059.08 206.195L1091.86 237.654M1091.86 237.654L1070.48 200.836M1091.86 237.654L1094.49 236.756L1085.39 192.812" stroke="#FFB155" stroke-width="6"/>
<path d="M1106.08 26.1952L1138.86 57.6541M1138.86 57.6541L1117.48 20.8358M1138.86 57.6541L1141.49 56.7558L1132.39 12.8117" stroke="#FFB155" stroke-width="6"/>
<path d="M833.076 144.195L865.858 175.654M865.858 175.654L844.481 138.836M865.858 175.654L868.492 174.756L859.388 130.812" stroke="#FFB155" stroke-width="6"/>
<path d="M712.076 184.195L744.858 215.654M744.858 215.654L723.481 178.836M744.858 215.654L747.492 214.756L738.388 170.812" stroke="#FFB155" stroke-width="6"/>
<path d="M891.47 69.3495L908.191 129.861M908.191 129.861L908.8 71.0374M908.191 129.861L911.954 130.654L932.171 72.0335" stroke="#FFB155" stroke-width="6"/>
<path d="M721.946 -11.1813L738.667 49.3302M738.667 49.3302L739.276 -9.4934M738.667 49.3302L742.43 50.1234L762.647 -8.49724" stroke="#FFB155" stroke-width="6"/>
<path d="M950.946 83.8187L967.667 144.33M967.667 144.33L968.276 85.5066M967.667 144.33L971.43 145.123L991.647 86.5028" stroke="#FFB155" stroke-width="6"/>
<path d="M906.463 -31.8032L908.675 30.937M908.675 30.937L922.927 -26.137M908.675 30.937L912.15 32.5824L945.428 -19.7407" stroke="#FFB155" stroke-width="6"/>
<path d="M825.272 -9.61129L870.88 33.5301M870.88 33.5301L840.977 -17.1298M870.88 33.5301L874.51 32.2627L861.494 -28.3647" stroke="#FFB155" stroke-width="6"/>
<path d="M991.395 -27.714L1036.69 15.7541M1036.69 15.7541L1007.15 -35.1194M1036.69 15.7541L1040.33 14.5128L1027.75 -46.2066" stroke="#FFB155" stroke-width="6"/>
<path d="M1137.28 -17.4481L1168.48 37.0247M1168.48 37.0247L1154.48 -20.1116M1168.48 37.0247L1172.33 36.8597L1177.37 -24.9436" stroke="#FFB155" stroke-width="6"/>
<path d="M798.525 200.429L835.139 251.425M835.139 251.425L815.369 196.02M835.139 251.425L838.944 250.868L837.642 188.873" stroke="#FFB155" stroke-width="6"/>
<path d="M761.603 112.931L785.374 171.036M785.374 171.036L779.011 112.555M785.374 171.036L789.204 171.378L802.335 110.776" stroke="#FFB155" stroke-width="6"/>
<path d="M670.744 97.4939L728.572 121.93M728.572 121.93L682.821 84.9515M728.572 121.93L731.529 119.472L698.105 67.2425" stroke="#FFB155" stroke-width="6"/>
<path d="M601.744 19.4939L659.572 43.9305M659.572 43.9305L613.821 6.95145M659.572 43.9305L662.529 41.4718L629.105 -10.7575" stroke="#FFB155" stroke-width="6"/>
<path d="M1161.99 187.858L1194.36 241.651M1194.36 241.651L1179.13 184.827M1194.36 241.651L1198.19 241.403L1201.91 179.506" stroke="#FFB155" stroke-width="6"/>
<path d="M1136.36 88.0814L1184.78 128.029M1184.78 128.029L1151.51 79.5148M1184.78 128.029L1188.32 126.519L1171.22 66.9138" stroke="#FFB155" stroke-width="6"/>
<path d="M1193.09 0.283037L1241.52 40.231M1241.52 40.231L1208.25 -8.28356M1241.52 40.231L1245.06 38.7202L1227.96 -20.8845" stroke="#FFB155" stroke-width="6"/>
</g>
<defs>
<clipPath id="clip0_1745_3349">
<rect width="1200" height="221" fill="white"/>
</clipPath>
</defs>
</svg>
