<svg width="1200" height="221" viewBox="0 0 1200 221" fill="none" xmlns="http://www.w3.org/2000/svg">
<g clip-path="url(#clip0_1745_3396)">
<rect width="1200" height="221" fill="#E6B2E4"/>
<path d="M1042.85 79.3328C1042.45 79.5464 1041.3 79.4046 1039.12 78.3211C1038.65 78.0847 1038.67 77.6531 1038.66 77.3433C1038.66 77.0334 1038.69 76.748 1038.85 76.5169C1039.54 75.509 1041.21 75.7085 1042.41 75.7663C1042.7 75.7804 1042.98 75.8372 1043.11 75.998C1043.24 76.1588 1043.21 76.4442 1043.11 76.7555C1043.01 77.0667 1042.86 77.3951 1042.08 77.7453" stroke="#FFF2EA" stroke-width="12" stroke-linecap="round"/>
<path d="M1027.03 53.4414C1026.87 53.9756 1026.57 55.4542 1026.23 57.0255C1026.07 57.7639 1025.62 58.9657 1024.94 59.9673C1024.75 60.2483 1024.48 59.663 1024.43 59.2295C1024.25 57.7686 1024.7 56.6143 1024.91 55.4382C1024.96 55.1172 1025.16 54.7986 1025.38 54.647C1025.6 54.4954 1025.89 54.5306 1026.14 54.6484C1026.9 55.6168 1027.13 56.8461 1027.18 57.4805C1027.19 57.7903 1027.16 58.0757 1027.12 58.3698" stroke="#FFF2EA" stroke-width="12" stroke-linecap="round"/>
<path d="M1023.06 91.7704C1022.98 91.9346 1022.59 92.7581 1021.97 93.7369C1021.78 94.0395 1021.53 93.6954 1021.38 93.3686C1021.07 92.6923 1020.92 91.9791 1020.97 91.2411C1021 90.8181 1021.3 90.3351 1021.5 90.222C1022.51 89.6681 1022.78 92.5497 1022.93 93.8429C1022.94 94.1528 1022.9 94.4382 1022.71 94.9546C1022.51 95.4711 1022.16 96.21 1021.8 96.9713" stroke="#FFF2EA" stroke-width="12" stroke-linecap="round"/>
<path d="M1007.41 72.3558C1007.17 72.2397 1005.27 71.5367 1003.6 71.1979C1002.56 70.9884 1001.6 70.9073 1001.26 70.8514C999.907 70.6231 1004.09 70.9825 1005.33 70.9581C1005.66 70.9117 1006.02 70.7827 1006.39 70.6518C1006.76 70.5208 1007.12 70.3918 1007.74 70.3773" stroke="#FFF2EA" stroke-width="12" stroke-linecap="round"/>
<path d="M1024.18 75.0502C1024.14 75.0336 1024.11 75.0169 1023.93 74.9335C1023.76 74.85 1023.44 74.7003 1023.34 74.6306C1023.24 74.561 1023.36 74.576 1023.59 74.6418" stroke="#E6B2E4" stroke-width="12" stroke-linecap="round"/>
<path d="M1109.75 82.1189C1109.29 82.0948 1108.38 81.3824 1107.07 79.3353C1106.78 78.8886 1107.02 78.5305 1107.18 78.2612C1107.33 77.9919 1107.51 77.7651 1107.76 77.6484C1108.87 77.1394 1110.2 78.1681 1111.2 78.8313C1111.44 78.9931 1111.66 79.1874 1111.69 79.3919C1111.71 79.5964 1111.54 79.8232 1111.3 80.0408C1111.05 80.2584 1110.75 80.4598 1109.9 80.3612" stroke="#FFF2EA" stroke-width="12" stroke-linecap="round"/>
<path d="M1109.47 51.774C1109.06 52.1535 1108.05 53.2691 1106.95 54.4424C1106.43 54.9937 1105.42 55.7903 1104.32 56.3013C1104.02 56.4447 1104.09 55.8043 1104.26 55.4059C1104.87 54.0633 1105.84 53.3038 1106.62 52.3988C1106.83 52.1518 1107.17 51.9798 1107.44 51.9644C1107.71 51.9489 1107.93 52.1257 1108.09 52.3555C1108.24 53.5773 1107.81 54.75 1107.53 55.3218C1107.38 55.5911 1107.2 55.8179 1107.02 56.0516" stroke="#FFF2EA" stroke-width="12" stroke-linecap="round"/>
<path d="M1086.38 82.6243C1086.22 82.7251 1085.47 83.2303 1084.43 83.7532C1084.11 83.9149 1084.08 83.495 1084.12 83.137C1084.2 82.3961 1084.44 81.7085 1084.86 81.099C1085.1 80.7496 1085.6 80.4898 1085.84 80.498C1086.98 80.5384 1085.74 83.1526 1085.21 84.3386C1085.05 84.6079 1084.87 84.8347 1084.44 85.1782C1084.01 85.5217 1083.33 85.975 1082.63 86.4421" stroke="#FFF2EA" stroke-width="12" stroke-linecap="round"/>
<path d="M1082.92 57.9317C1082.77 57.7069 1081.5 56.1283 1080.24 54.9785C1079.46 54.2675 1078.67 53.7015 1078.41 53.483C1077.37 52.5902 1080.77 55.0485 1081.85 55.6613C1082.15 55.7904 1082.53 55.8664 1082.91 55.9435C1083.3 56.0207 1083.68 56.0967 1084.22 56.4044" stroke="#FFF2EA" stroke-width="12" stroke-linecap="round"/>
<path d="M1095.92 68.8521C1095.9 68.8199 1095.88 68.7876 1095.77 68.626C1095.66 68.4644 1095.47 68.1744 1095.42 68.0627C1095.36 67.9509 1095.46 68.0261 1095.63 68.2013" stroke="#E6B2E4" stroke-width="12" stroke-linecap="round"/>
<path d="M1080.98 141.089C1080.52 141.065 1079.6 140.353 1078.29 138.305C1078.01 137.859 1078.25 137.501 1078.4 137.231C1078.56 136.962 1078.73 136.735 1078.99 136.619C1080.1 136.11 1081.43 137.138 1082.43 137.801C1082.67 137.963 1082.88 138.158 1082.91 138.362C1082.94 138.567 1082.76 138.793 1082.52 139.011C1082.28 139.229 1081.98 139.43 1081.13 139.331" stroke="#FFF2EA" stroke-width="12" stroke-linecap="round"/>
<path d="M1080.69 110.744C1080.28 111.124 1079.26 112.239 1078.16 113.413C1077.65 113.964 1076.64 114.76 1075.54 115.271C1075.23 115.415 1075.3 114.775 1075.48 114.376C1076.08 113.033 1077.06 112.274 1077.84 111.369C1078.05 111.122 1078.39 110.95 1078.66 110.935C1078.92 110.919 1079.15 111.096 1079.31 111.326C1079.46 112.548 1079.03 113.72 1078.75 114.292C1078.59 114.561 1078.42 114.788 1078.24 115.022" stroke="#FFF2EA" stroke-width="12" stroke-linecap="round"/>
<path d="M1057.6 141.595C1057.44 141.695 1056.68 142.201 1055.65 142.723C1055.33 142.885 1055.3 142.465 1055.34 142.107C1055.42 141.366 1055.66 140.679 1056.08 140.069C1056.32 139.72 1056.82 139.46 1057.06 139.468C1058.2 139.509 1056.96 142.123 1056.42 143.309C1056.27 143.578 1056.09 143.805 1055.66 144.148C1055.23 144.492 1054.55 144.945 1053.85 145.412" stroke="#FFF2EA" stroke-width="12" stroke-linecap="round"/>
<path d="M1054.14 116.902C1053.99 116.677 1052.73 115.099 1051.46 113.949C1050.68 113.238 1049.9 112.672 1049.64 112.453C1048.59 111.56 1052 114.019 1053.07 114.632C1053.38 114.761 1053.76 114.837 1054.14 114.914C1054.52 114.991 1054.9 115.067 1055.44 115.375" stroke="#FFF2EA" stroke-width="12" stroke-linecap="round"/>
<path d="M1067.14 127.822C1067.12 127.79 1067.1 127.758 1066.99 127.596C1066.89 127.435 1066.69 127.145 1066.64 127.033C1066.59 126.921 1066.69 126.996 1066.85 127.171" stroke="#E6B2E4" stroke-width="12" stroke-linecap="round"/>
<path d="M1073.98 28.0959C1073.53 28.0718 1072.61 27.3594 1071.3 25.3123C1071.02 24.8656 1071.26 24.5075 1071.41 24.2382C1071.56 23.969 1071.74 23.7422 1072 23.6255C1073.11 23.1164 1074.44 24.1451 1075.43 24.8083C1075.68 24.9701 1075.89 25.1645 1075.92 25.369C1075.95 25.5734 1075.77 25.8002 1075.53 26.0178C1075.29 26.2354 1074.98 26.4369 1074.14 26.3383" stroke="#FFF2EA" stroke-width="12" stroke-linecap="round"/>
<path d="M1073.69 -2.24892C1073.29 -1.86947 1072.27 -0.753831 1071.17 0.419426C1070.66 0.97076 1069.65 1.7673 1068.55 2.27833C1068.24 2.42172 1068.31 1.78135 1068.49 1.38295C1069.09 0.0403059 1070.07 -0.719193 1070.85 -1.62411C1071.06 -1.87114 1071.39 -2.04318 1071.66 -2.0586C1071.93 -2.07402 1072.16 -1.89726 1072.31 -1.66746C1072.47 -0.445652 1072.04 0.727077 1071.76 1.29886C1071.6 1.56812 1071.43 1.79494 1071.24 2.02863" stroke="#FFF2EA" stroke-width="12" stroke-linecap="round"/>
<path d="M1050.6 28.6014C1050.45 28.7021 1049.69 29.2073 1048.66 29.7303C1048.34 29.8919 1048.31 29.472 1048.35 29.114C1048.43 28.3731 1048.67 27.6855 1049.09 27.076C1049.32 26.7267 1049.83 26.4669 1050.07 26.4751C1051.21 26.5155 1049.97 29.1297 1049.43 30.3157C1049.28 30.5849 1049.1 30.8117 1048.67 31.1552C1048.24 31.4988 1047.56 31.9521 1046.85 32.4192" stroke="#FFF2EA" stroke-width="12" stroke-linecap="round"/>
<path d="M1047.15 3.9088C1047 3.68397 1045.73 2.10536 1044.47 0.955516C1043.69 0.244579 1042.9 -0.321484 1042.65 -0.539917C1041.6 -1.43272 1045.01 1.02556 1046.08 1.63834C1046.39 1.76741 1046.76 1.84342 1047.15 1.92058C1047.53 1.99775 1047.91 2.07376 1048.45 2.38149" stroke="#FFF2EA" stroke-width="12" stroke-linecap="round"/>
<path d="M1060.15 14.8291C1060.13 14.7969 1060.11 14.7647 1060 14.6031C1059.89 14.4415 1059.7 14.1515 1059.65 14.0397C1059.6 13.9279 1059.7 14.0032 1059.86 14.1783" stroke="#E6B2E4" stroke-width="12" stroke-linecap="round"/>
<path d="M1164.38 87.2674C1164 87.0048 1163.61 85.9158 1163.58 83.4852C1163.58 82.9548 1163.97 82.7798 1164.24 82.633C1164.52 82.4863 1164.79 82.3879 1165.07 82.4243C1166.28 82.5833 1166.86 84.1611 1167.35 85.2516C1167.47 85.5177 1167.55 85.7961 1167.47 85.9845C1167.38 86.1729 1167.11 86.2713 1166.79 86.327C1166.47 86.3827 1166.11 86.3927 1165.44 85.8598" stroke="#FFF2EA" stroke-width="12" stroke-linecap="round"/>
<path d="M1180.24 61.3984C1179.69 61.5045 1178.24 61.9111 1176.68 62.322C1175.95 62.5151 1174.67 62.6544 1173.47 62.5056C1173.14 62.4638 1173.54 61.9581 1173.9 61.7151C1175.12 60.8964 1176.35 60.7722 1177.49 60.4183C1177.8 60.3217 1178.18 60.3525 1178.41 60.4825C1178.65 60.6124 1178.75 60.8826 1178.76 61.1594C1178.24 62.2776 1177.25 63.041 1176.71 63.377C1176.44 63.5238 1176.17 63.6222 1175.89 63.7236" stroke="#FFF2EA" stroke-width="12" stroke-linecap="round"/>
<path d="M1144.29 75.2892C1144.11 75.2942 1143.2 75.3194 1142.05 75.2147C1141.69 75.1823 1141.89 74.8097 1142.11 74.5266C1142.57 73.9406 1143.14 73.4852 1143.82 73.1908C1144.2 73.0221 1144.77 73.0707 1144.97 73.2018C1145.92 73.8444 1143.47 75.4 1142.39 76.1204C1142.12 76.2672 1141.85 76.3656 1141.3 76.4276C1140.75 76.4895 1139.93 76.5121 1139.09 76.5353" stroke="#FFF2EA" stroke-width="12" stroke-linecap="round"/>
<path d="M1154.48 52.5292C1154.47 52.2593 1154.23 50.248 1153.77 48.6039C1153.49 47.5874 1153.12 46.6895 1153.02 46.3684C1152.61 45.0559 1154.19 48.948 1154.77 50.036C1154.97 50.3078 1155.25 50.5729 1155.53 50.8421C1155.81 51.1113 1156.09 51.3765 1156.39 51.9252" stroke="#FFF2EA" stroke-width="12" stroke-linecap="round"/>
<path d="M1159.7 68.6839C1159.69 68.6452 1159.69 68.6065 1159.69 68.4125C1159.68 68.2185 1159.67 67.8703 1159.69 67.7484C1159.7 67.6265 1159.75 67.7415 1159.79 67.9773" stroke="#E6B2E4" stroke-width="12" stroke-linecap="round"/>
<path d="M1163.69 204.951C1163.5 204.533 1163.72 203.395 1164.95 201.297C1165.21 200.839 1165.64 200.892 1165.95 200.906C1166.26 200.921 1166.55 200.975 1166.77 201.149C1167.72 201.908 1167.41 203.561 1167.27 204.749C1167.24 205.039 1167.17 205.318 1167 205.436C1166.83 205.555 1166.54 205.5 1166.24 205.383C1165.94 205.266 1165.62 205.088 1165.32 204.289" stroke="#FFF2EA" stroke-width="12" stroke-linecap="round"/>
<path d="M1190.58 190.9C1190.06 190.711 1188.6 190.314 1187.06 189.868C1186.33 189.659 1185.16 189.122 1184.21 188.378C1183.94 188.169 1184.54 187.94 1184.98 187.918C1186.45 187.843 1187.57 188.369 1188.73 188.651C1189.05 188.728 1189.35 188.946 1189.49 189.179C1189.62 189.412 1189.57 189.694 1189.43 189.936C1188.42 190.631 1187.18 190.777 1186.54 190.788C1186.23 190.774 1185.95 190.719 1185.66 190.663" stroke="#FFF2EA" stroke-width="12" stroke-linecap="round"/>
<path d="M1152.61 184.361C1152.45 184.272 1151.65 183.826 1150.72 183.144C1150.43 182.933 1150.79 182.714 1151.13 182.585C1151.82 182.319 1152.54 182.22 1153.28 182.316C1153.7 182.371 1154.16 182.704 1154.26 182.916C1154.74 183.955 1151.85 184.036 1150.55 184.097C1150.24 184.083 1149.96 184.029 1149.45 183.8C1148.95 183.572 1148.24 183.171 1147.5 182.758" stroke="#FFF2EA" stroke-width="12" stroke-linecap="round"/>
<path d="M1173.03 170.059C1173.16 169.824 1173.99 167.976 1174.44 166.33C1174.72 165.312 1174.87 164.353 1174.94 164.025C1175.26 162.687 1174.62 166.839 1174.56 168.072C1174.59 168.403 1174.69 168.775 1174.8 169.152C1174.9 169.529 1175.01 169.9 1174.98 170.523" stroke="#FFF2EA" stroke-width="12" stroke-linecap="round"/>
<path d="M1169.21 186.602C1169.23 186.568 1169.25 186.535 1169.34 186.366C1169.44 186.196 1169.61 185.893 1169.69 185.796C1169.76 185.7 1169.74 185.82 1169.66 186.046" stroke="#E6B2E4" stroke-width="12" stroke-linecap="round"/>
<path d="M1099.68 210.95C1099.49 210.533 1099.71 209.395 1100.94 207.297C1101.21 206.839 1101.64 206.891 1101.95 206.906C1102.26 206.92 1102.54 206.974 1102.76 207.148C1103.72 207.908 1103.4 209.56 1103.27 210.748C1103.23 211.038 1103.16 211.317 1102.99 211.436C1102.82 211.554 1102.54 211.5 1102.23 211.383C1101.93 211.266 1101.61 211.088 1101.31 210.289" stroke="#FFF2EA" stroke-width="12" stroke-linecap="round"/>
<path d="M1126.58 196.9C1126.06 196.711 1124.6 196.314 1123.06 195.868C1122.33 195.659 1121.16 195.122 1120.21 194.378C1119.94 194.169 1120.54 193.94 1120.98 193.918C1122.45 193.843 1123.57 194.369 1124.73 194.651C1125.05 194.728 1125.35 194.946 1125.49 195.179C1125.62 195.412 1125.57 195.694 1125.43 195.936C1124.42 196.631 1123.18 196.777 1122.54 196.788C1122.23 196.774 1121.95 196.719 1121.66 196.663" stroke="#FFF2EA" stroke-width="12" stroke-linecap="round"/>
<path d="M1088.61 190.361C1088.45 190.272 1087.65 189.825 1086.72 189.143C1086.43 188.933 1086.79 188.714 1087.13 188.585C1087.82 188.319 1088.54 188.22 1089.28 188.315C1089.7 188.37 1090.16 188.703 1090.26 188.915C1090.74 189.954 1087.85 190.036 1086.55 190.097C1086.24 190.083 1085.96 190.028 1085.45 189.8C1084.95 189.572 1084.24 189.171 1083.5 188.758" stroke="#FFF2EA" stroke-width="12" stroke-linecap="round"/>
<path d="M1109.03 176.059C1109.16 175.823 1109.99 173.976 1110.44 172.329C1110.72 171.311 1110.87 170.352 1110.94 170.025C1111.26 168.686 1110.62 172.839 1110.56 174.072C1110.59 174.403 1110.69 174.774 1110.8 175.151C1110.9 175.529 1111.01 175.9 1110.98 176.523" stroke="#FFF2EA" stroke-width="12" stroke-linecap="round"/>
<path d="M1105.21 192.602C1105.23 192.568 1105.25 192.535 1105.34 192.366C1105.44 192.196 1105.61 191.893 1105.69 191.796C1105.76 191.7 1105.74 191.82 1105.66 192.046" stroke="#E6B2E4" stroke-width="12" stroke-linecap="round"/>
<path d="M1119.68 27.9501C1119.49 27.5328 1119.71 26.3947 1120.94 24.2965C1121.21 23.8387 1121.64 23.8915 1121.95 23.9058C1122.26 23.92 1122.54 23.9743 1122.76 24.1484C1123.72 24.9076 1123.4 26.5601 1123.27 27.7483C1123.23 28.0383 1123.16 28.3174 1122.99 28.4357C1122.82 28.554 1122.54 28.4997 1122.23 28.3827C1121.93 28.2656 1121.61 28.0875 1121.31 27.2886" stroke="#FFF2EA" stroke-width="12" stroke-linecap="round"/>
<path d="M1146.58 13.8997C1146.06 13.7105 1144.6 13.3135 1143.06 12.8678C1142.33 12.6584 1141.16 12.1215 1140.21 11.3773C1139.94 11.1685 1140.54 10.9394 1140.98 10.9172C1142.45 10.8424 1143.57 11.3688 1144.73 11.6504C1145.05 11.7273 1145.35 11.9456 1145.49 12.1785C1145.62 12.4115 1145.57 12.6938 1145.43 12.936C1144.42 13.6303 1143.18 13.7766 1142.54 13.7873C1142.23 13.773 1141.95 13.7187 1141.66 13.6628" stroke="#FFF2EA" stroke-width="12" stroke-linecap="round"/>
<path d="M1108.61 7.36028C1108.45 7.27122 1107.65 6.82457 1106.72 6.14295C1106.43 5.93225 1106.79 5.7133 1107.13 5.58452C1107.82 5.31802 1108.54 5.21907 1109.28 5.31481C1109.7 5.36969 1110.16 5.70271 1110.26 5.91474C1110.74 6.95389 1107.85 7.03504 1106.55 7.09645C1106.24 7.08217 1105.96 7.02787 1105.45 6.79951C1104.95 6.57115 1104.24 6.17038 1103.5 5.75747" stroke="#FFF2EA" stroke-width="12" stroke-linecap="round"/>
<path d="M1129.03 -6.94115C1129.16 -7.1766 1129.99 -9.02433 1130.44 -10.6707C1130.72 -11.6886 1130.87 -12.6477 1130.94 -12.9752C1131.26 -14.3138 1130.62 -10.161 1130.56 -8.92826C1130.59 -8.59707 1130.69 -8.22563 1130.8 -7.84856C1130.9 -7.47149 1131.01 -7.10005 1130.98 -6.47709" stroke="#FFF2EA" stroke-width="12" stroke-linecap="round"/>
<path d="M1125.21 9.60175C1125.23 9.568 1125.25 9.53426 1125.34 9.36503C1125.44 9.1958 1125.61 8.8921 1125.69 8.79574C1125.76 8.69938 1125.74 8.81957 1125.66 9.04565" stroke="#E6B2E4" stroke-width="12" stroke-linecap="round"/>
<path d="M1185.69 38.9506C1185.5 38.5332 1185.72 37.3952 1186.95 35.297C1187.21 34.8392 1187.64 34.892 1187.95 34.9062C1188.26 34.9205 1188.55 34.9748 1188.77 35.1489C1189.72 35.9081 1189.41 37.5606 1189.27 38.7488C1189.24 39.0388 1189.17 39.3179 1189 39.4362C1188.83 39.5545 1188.54 39.5002 1188.24 39.3832C1187.94 39.2661 1187.62 39.088 1187.32 38.289" stroke="#FFF2EA" stroke-width="12" stroke-linecap="round"/>
<path d="M1212.58 24.9007C1212.06 24.7115 1210.6 24.3145 1209.06 23.8688C1208.33 23.6593 1207.16 23.1225 1206.21 22.3783C1205.94 22.1695 1206.54 21.9404 1206.98 21.9182C1208.45 21.8433 1209.57 22.3698 1210.73 22.6514C1211.05 22.7283 1211.35 22.9465 1211.49 23.1795C1211.62 23.4124 1211.57 23.6948 1211.43 23.937C1210.42 24.6313 1209.18 24.7776 1208.54 24.7883C1208.23 24.774 1207.95 24.7197 1207.66 24.6637" stroke="#FFF2EA" stroke-width="12" stroke-linecap="round"/>
<path d="M1174.61 18.3613C1174.45 18.2722 1173.65 17.8255 1172.72 17.1439C1172.43 16.9332 1172.79 16.7143 1173.13 16.5855C1173.82 16.319 1174.54 16.22 1175.28 16.3158C1175.7 16.3707 1176.16 16.7037 1176.26 16.9157C1176.74 17.9549 1173.85 18.036 1172.55 18.0974C1172.24 18.0831 1171.96 18.0288 1171.45 17.8005C1170.95 17.5721 1170.24 17.1714 1169.5 16.7584" stroke="#FFF2EA" stroke-width="12" stroke-linecap="round"/>
<path d="M1195.03 4.05934C1195.16 3.82389 1195.99 1.97616 1196.44 0.329811C1196.72 -0.688104 1196.87 -1.6472 1196.94 -1.9747C1197.26 -3.31332 1196.62 0.839449 1196.56 2.07223C1196.59 2.40342 1196.69 2.77486 1196.8 3.15193C1196.9 3.529 1197.01 3.90044 1196.98 4.52339" stroke="#FFF2EA" stroke-width="12" stroke-linecap="round"/>
<path d="M1191.21 20.6027C1191.23 20.569 1191.25 20.5352 1191.34 20.366C1191.44 20.1968 1191.61 19.8931 1191.69 19.7967C1191.76 19.7004 1191.74 19.8205 1191.66 20.0466" stroke="#E6B2E4" stroke-width="12" stroke-linecap="round"/>
<path d="M1192.3 148.115C1192.12 147.697 1192.34 146.559 1193.56 144.461C1193.83 144.003 1194.26 144.056 1194.57 144.07C1194.88 144.085 1195.16 144.139 1195.38 144.313C1196.34 145.072 1196.03 146.725 1195.89 147.913C1195.86 148.203 1195.78 148.482 1195.61 148.6C1195.44 148.719 1195.16 148.664 1194.86 148.547C1194.55 148.43 1194.24 148.252 1193.94 147.453" stroke="#FFF2EA" stroke-width="12" stroke-linecap="round"/>
<path d="M1181.22 127.525C1181.07 127.436 1180.27 126.989 1179.34 126.308C1179.05 126.097 1179.41 125.878 1179.74 125.749C1180.44 125.483 1181.16 125.384 1181.89 125.479C1182.31 125.534 1182.77 125.867 1182.87 126.079C1183.36 127.118 1180.47 127.2 1179.16 127.261C1178.86 127.247 1178.57 127.192 1178.07 126.964C1177.57 126.736 1176.85 126.335 1176.12 125.922" stroke="#FFF2EA" stroke-width="12" stroke-linecap="round"/>
<path d="M1201.65 113.223C1201.78 112.988 1202.61 111.14 1203.06 109.494C1203.34 108.476 1203.48 107.517 1203.56 107.189C1203.88 105.851 1203.24 110.004 1203.18 111.236C1203.21 111.567 1203.31 111.939 1203.42 112.316C1203.52 112.693 1203.63 113.065 1203.6 113.687" stroke="#FFF2EA" stroke-width="12" stroke-linecap="round"/>
<path d="M1197.84 129.766C1197.85 129.733 1197.87 129.699 1197.97 129.53C1198.06 129.36 1198.23 129.057 1198.31 128.96C1198.39 128.864 1198.36 128.984 1198.28 129.21" stroke="#E6B2E4" stroke-width="12" stroke-linecap="round"/>
<path d="M1192.3 148.115C1192.12 147.697 1192.34 146.559 1193.56 144.461C1193.83 144.003 1194.26 144.056 1194.57 144.07C1194.88 144.085 1195.16 144.139 1195.38 144.313C1196.34 145.072 1196.03 146.725 1195.89 147.913C1195.86 148.203 1195.78 148.482 1195.61 148.6C1195.44 148.719 1195.16 148.664 1194.86 148.547C1194.55 148.43 1194.24 148.252 1193.94 147.453" stroke="#FFF2EA" stroke-width="12" stroke-linecap="round"/>
<path d="M1181.22 127.525C1181.07 127.436 1180.27 126.989 1179.34 126.308C1179.05 126.097 1179.41 125.878 1179.74 125.749C1180.44 125.483 1181.16 125.384 1181.89 125.479C1182.31 125.534 1182.77 125.867 1182.87 126.079C1183.36 127.118 1180.47 127.2 1179.16 127.261C1178.86 127.247 1178.57 127.192 1178.07 126.964C1177.57 126.736 1176.85 126.335 1176.12 125.922" stroke="#FFF2EA" stroke-width="12" stroke-linecap="round"/>
<path d="M1201.65 113.223C1201.78 112.988 1202.61 111.14 1203.06 109.494C1203.34 108.476 1203.48 107.517 1203.56 107.189C1203.88 105.851 1203.24 110.004 1203.18 111.236C1203.21 111.567 1203.31 111.939 1203.42 112.316C1203.52 112.693 1203.63 113.065 1203.6 113.687" stroke="#FFF2EA" stroke-width="12" stroke-linecap="round"/>
<path d="M1197.84 129.766C1197.85 129.733 1197.87 129.699 1197.97 129.53C1198.06 129.36 1198.23 129.057 1198.31 128.96C1198.39 128.864 1198.36 128.984 1198.28 129.21" stroke="#E6B2E4" stroke-width="12" stroke-linecap="round"/>
<path d="M1126.69 149.301C1126.51 148.883 1126.73 147.745 1127.95 145.647C1128.22 145.189 1128.65 145.242 1128.96 145.256C1129.27 145.271 1129.55 145.325 1129.77 145.499C1130.73 146.258 1130.42 147.911 1130.28 149.099C1130.25 149.389 1130.17 149.668 1130 149.786C1129.83 149.905 1129.55 149.85 1129.25 149.733C1128.94 149.616 1128.63 149.438 1128.33 148.639" stroke="#FFF2EA" stroke-width="12" stroke-linecap="round"/>
<path d="M1153.59 135.251C1153.06 135.062 1151.61 134.665 1150.06 134.219C1149.34 134.009 1148.17 133.473 1147.22 132.728C1146.95 132.52 1147.55 132.29 1147.99 132.268C1149.46 132.193 1150.58 132.72 1151.74 133.001C1152.05 133.078 1152.36 133.297 1152.5 133.53C1152.63 133.763 1152.58 134.045 1152.44 134.287C1151.43 134.981 1150.18 135.128 1149.55 135.138C1149.24 135.124 1148.95 135.07 1148.66 135.014" stroke="#FFF2EA" stroke-width="12" stroke-linecap="round"/>
<path d="M1115.61 128.711C1115.46 128.622 1114.66 128.176 1113.73 127.494C1113.44 127.283 1113.8 127.064 1114.13 126.936C1114.83 126.669 1115.55 126.57 1116.28 126.666C1116.7 126.721 1117.17 127.054 1117.26 127.266C1117.75 128.305 1114.86 128.386 1113.56 128.448C1113.25 128.433 1112.96 128.379 1112.46 128.151C1111.96 127.922 1111.25 127.521 1110.51 127.109" stroke="#FFF2EA" stroke-width="12" stroke-linecap="round"/>
<path d="M1136.04 114.409C1136.17 114.174 1137 112.326 1137.45 110.68C1137.73 109.662 1137.87 108.703 1137.95 108.375C1138.27 107.037 1137.63 111.19 1137.57 112.422C1137.6 112.754 1137.7 113.125 1137.81 113.502C1137.91 113.879 1138.02 114.251 1137.99 114.873" stroke="#FFF2EA" stroke-width="12" stroke-linecap="round"/>
<path d="M1132.23 130.953C1132.24 130.919 1132.26 130.885 1132.36 130.716C1132.45 130.547 1132.62 130.243 1132.7 130.147C1132.78 130.05 1132.75 130.171 1132.67 130.397" stroke="#E6B2E4" stroke-width="12" stroke-linecap="round"/>
<path d="M931.851 20.365C931.447 20.5786 930.297 20.4368 928.121 19.3534C927.646 19.117 927.67 18.6854 927.663 18.3755C927.656 18.0656 927.692 17.7802 927.85 17.5492C928.543 16.5412 930.213 16.7408 931.408 16.7985C931.699 16.8126 931.983 16.8694 932.112 17.0302C932.242 17.1911 932.207 17.4765 932.11 17.7877C932.014 18.0989 931.858 18.4273 931.081 18.7775" stroke="#FFF2EA" stroke-width="12" stroke-linecap="round"/>
<path d="M916.025 -5.52637C915.872 -4.99219 915.573 -3.51355 915.233 -1.94227C915.073 -1.2039 914.616 -0.00207156 913.937 0.999484C913.747 1.28051 913.478 0.695252 913.426 0.261768C913.253 -1.19914 913.703 -2.35348 913.906 -3.52954C913.961 -3.85058 914.158 -4.16916 914.381 -4.32075C914.605 -4.47233 914.89 -4.43715 915.141 -4.31933C915.902 -3.35101 916.131 -2.12164 916.185 -1.48729C916.192 -1.17743 916.156 -0.89203 916.12 -0.597985" stroke="#FFF2EA" stroke-width="12" stroke-linecap="round"/>
<path d="M912.056 32.8032C911.978 32.9674 911.586 33.7909 910.968 34.7697C910.778 35.0722 910.535 34.7281 910.384 34.4013C910.071 33.725 909.924 33.0118 909.97 32.2738C909.997 31.8509 910.298 31.3678 910.503 31.2548C911.507 30.7008 911.782 33.5825 911.931 34.8756C911.938 35.1855 911.903 35.4709 911.709 35.9874C911.514 36.5038 911.163 37.2427 910.8 38.004" stroke="#FFF2EA" stroke-width="12" stroke-linecap="round"/>
<path d="M896.413 13.3885C896.169 13.2724 894.27 12.5694 892.597 12.2306C891.562 12.0211 890.596 11.94 890.264 11.8841C888.907 11.6558 893.093 12.0152 894.327 11.9908C894.656 11.9445 895.019 11.8154 895.389 11.6845C895.758 11.5535 896.121 11.4245 896.745 11.41" stroke="#FFF2EA" stroke-width="12" stroke-linecap="round"/>
<path d="M913.176 16.0829C913.141 16.0663 913.106 16.0497 912.931 15.9662C912.756 15.8828 912.441 15.733 912.34 15.6634C912.239 15.5937 912.36 15.6087 912.591 15.6745" stroke="#E6B2E4" stroke-width="12" stroke-linecap="round"/>
<path d="M998.749 23.1487C998.292 23.1245 997.378 22.4122 996.067 20.365C995.781 19.9184 996.023 19.5602 996.177 19.291C996.33 19.0217 996.507 18.7949 996.762 18.6782C997.874 18.1692 999.205 19.1979 1000.2 19.861C1000.44 20.0229 1000.66 20.2172 1000.69 20.4217C1000.71 20.6262 1000.54 20.853 1000.3 21.0706C1000.05 21.2881 999.75 21.4896 998.903 21.391" stroke="#FFF2EA" stroke-width="12" stroke-linecap="round"/>
<path d="M998.459 -7.19619C998.052 -6.81673 997.037 -5.7011 995.938 -4.52784C995.421 -3.97651 994.412 -3.17996 993.316 -2.66893C993.008 -2.52554 993.078 -3.16592 993.256 -3.56431C993.857 -4.90696 994.836 -5.66646 995.614 -6.57138C995.827 -6.8184 996.16 -6.99045 996.429 -7.00586C996.698 -7.02128 996.925 -6.84453 997.08 -6.61472C997.236 -5.39292 996.801 -4.22019 996.521 -3.6484C996.368 -3.37915 996.191 -3.15233 996.009 -2.91863" stroke="#FFF2EA" stroke-width="12" stroke-linecap="round"/>
<path d="M975.369 23.6541C975.217 23.7549 974.458 24.2601 973.426 24.783C973.106 24.9447 973.075 24.5248 973.113 24.1667C973.192 23.4259 973.432 22.7383 973.851 22.1288C974.091 21.7794 974.597 21.5196 974.831 21.5278C975.977 21.5682 974.734 24.1824 974.197 25.3684C974.044 25.6377 973.867 25.8645 973.435 26.208C973.004 26.5515 972.322 27.0048 971.62 27.4719" stroke="#FFF2EA" stroke-width="12" stroke-linecap="round"/>
<path d="M971.918 -1.03847C971.768 -1.2633 970.499 -2.8419 969.238 -3.99175C968.458 -4.70269 967.67 -5.26875 967.414 -5.48718C966.366 -6.37999 969.774 -3.9217 970.845 -3.30892C971.151 -3.17986 971.53 -3.10385 971.914 -3.02668C972.298 -2.94952 972.676 -2.87351 973.218 -2.56577" stroke="#FFF2EA" stroke-width="12" stroke-linecap="round"/>
<path d="M984.918 9.88186C984.897 9.84964 984.875 9.81741 984.768 9.65582C984.66 9.49422 984.467 9.20422 984.416 9.09244C984.365 8.98066 984.461 9.05589 984.626 9.23104" stroke="#E6B2E4" stroke-width="12" stroke-linecap="round"/>
<path d="M969.975 82.1218C969.519 82.0977 968.605 81.3853 967.294 79.3382C967.008 78.8915 967.25 78.5334 967.404 78.2641C967.557 77.9949 967.734 77.7681 967.989 77.6514C969.101 77.1423 970.431 78.171 971.427 78.8342C971.67 78.996 971.884 79.1904 971.912 79.3948C971.941 79.5993 971.764 79.8261 971.522 80.0437C971.279 80.2613 970.976 80.4628 970.13 80.3642" stroke="#FFF2EA" stroke-width="12" stroke-linecap="round"/>
<path d="M969.693 51.777C969.287 52.1564 968.272 53.272 967.172 54.4453C966.656 54.9966 965.646 55.7932 964.55 56.3042C964.242 56.4476 964.312 55.8072 964.49 55.4088C965.092 54.0662 966.07 53.3067 966.849 52.4018C967.061 52.1547 967.394 51.9827 967.663 51.9673C967.933 51.9519 968.16 52.1286 968.314 52.3584C968.47 53.5802 968.036 54.753 967.756 55.3247C967.602 55.594 967.425 55.8208 967.243 56.0545" stroke="#FFF2EA" stroke-width="12" stroke-linecap="round"/>
<path d="M946.603 82.6277C946.452 82.7285 945.692 83.2337 944.66 83.7567C944.341 83.9183 944.309 83.4984 944.348 83.1404C944.427 82.3995 944.666 81.7119 945.085 81.1024C945.325 80.7531 945.832 80.4932 946.065 80.5015C947.211 80.5419 945.968 83.156 945.432 84.342C945.278 84.6113 945.101 84.8381 944.67 85.1816C944.238 85.5251 943.557 85.9785 942.855 86.4455" stroke="#FFF2EA" stroke-width="12" stroke-linecap="round"/>
<path d="M943.144 57.9352C942.994 57.7103 941.726 56.1317 940.464 54.9819C939.684 54.2709 938.896 53.7049 938.64 53.4865C937.593 52.5936 941.001 55.0519 942.072 55.6647C942.378 55.7938 942.756 55.8698 943.14 55.9469C943.524 56.0241 943.902 56.1001 944.445 56.4079" stroke="#FFF2EA" stroke-width="12" stroke-linecap="round"/>
<path d="M956.145 68.855C956.123 68.8228 956.102 68.7906 955.994 68.629C955.887 68.4674 955.694 68.1774 955.643 68.0656C955.591 67.9538 955.688 68.029 955.852 68.2042" stroke="#E6B2E4" stroke-width="12" stroke-linecap="round"/>
<path d="M1050.03 208.412C1049.87 208.946 1049.57 210.424 1049.23 211.996C1049.07 212.734 1048.62 213.936 1047.94 214.937C1047.75 215.218 1047.48 214.633 1047.43 214.2C1047.25 212.739 1047.7 211.585 1047.91 210.408C1047.96 210.087 1048.16 209.769 1048.38 209.617C1048.6 209.466 1048.89 209.501 1049.14 209.619C1049.9 210.587 1050.13 211.816 1050.18 212.451C1050.19 212.761 1050.16 213.046 1050.12 213.34" stroke="#FFF2EA" stroke-width="12" stroke-linecap="round"/>
<path d="M1030.41 227.326C1030.17 227.21 1028.27 226.507 1026.6 226.169C1025.56 225.959 1024.6 225.878 1024.26 225.822C1022.91 225.594 1027.09 225.953 1028.33 225.929C1028.66 225.882 1029.02 225.753 1029.39 225.622C1029.76 225.491 1030.12 225.362 1030.74 225.348" stroke="#FFF2EA" stroke-width="12" stroke-linecap="round"/>
<path d="M1047.18 230.02C1047.14 230.004 1047.11 229.987 1046.93 229.904C1046.76 229.82 1046.44 229.671 1046.34 229.601C1046.24 229.531 1046.36 229.546 1046.59 229.612" stroke="#E6B2E4" stroke-width="12" stroke-linecap="round"/>
<path d="M957.858 141.365C957.455 141.579 956.304 141.437 954.128 140.353C953.654 140.117 953.677 139.685 953.671 139.376C953.664 139.066 953.699 138.78 953.858 138.549C954.551 137.541 956.221 137.741 957.416 137.799C957.707 137.813 957.991 137.869 958.12 138.03C958.25 138.191 958.215 138.476 958.118 138.788C958.022 139.099 957.866 139.427 957.088 139.778" stroke="#FFF2EA" stroke-width="12" stroke-linecap="round"/>
<path d="M942.033 115.474C941.879 116.008 941.581 117.486 941.241 119.058C941.08 119.796 940.623 120.998 939.945 121.999C939.755 122.281 939.486 121.695 939.434 121.262C939.261 119.801 939.71 118.647 939.913 117.47C939.969 117.149 940.166 116.831 940.389 116.679C940.613 116.528 940.898 116.563 941.149 116.681C941.91 117.649 942.139 118.878 942.193 119.513C942.199 119.823 942.164 120.108 942.128 120.402" stroke="#FFF2EA" stroke-width="12" stroke-linecap="round"/>
<path d="M938.064 153.803C937.985 153.967 937.593 154.79 936.976 155.769C936.785 156.072 936.543 155.728 936.392 155.401C936.079 154.725 935.932 154.011 935.978 153.273C936.004 152.85 936.306 152.367 936.51 152.254C937.515 151.7 937.79 154.582 937.939 155.875C937.946 156.185 937.91 156.47 937.716 156.987C937.522 157.503 937.17 158.242 936.808 159.004" stroke="#FFF2EA" stroke-width="12" stroke-linecap="round"/>
<path d="M922.421 134.388C922.177 134.272 920.278 133.569 918.605 133.231C917.57 133.021 916.604 132.94 916.272 132.884C914.914 132.656 919.101 133.015 920.335 132.991C920.664 132.944 921.027 132.815 921.396 132.684C921.765 132.554 922.129 132.424 922.752 132.41" stroke="#FFF2EA" stroke-width="12" stroke-linecap="round"/>
<path d="M939.184 137.082C939.149 137.066 939.114 137.049 938.939 136.966C938.764 136.882 938.449 136.733 938.348 136.663C938.247 136.593 938.368 136.608 938.599 136.674" stroke="#E6B2E4" stroke-width="12" stroke-linecap="round"/>
<path d="M1021.76 178.119C1021.3 178.095 1020.39 177.382 1019.08 175.335C1018.79 174.889 1019.03 174.53 1019.18 174.261C1019.34 173.992 1019.51 173.765 1019.77 173.648C1020.88 173.139 1022.21 174.168 1023.21 174.831C1023.45 174.993 1023.67 175.187 1023.69 175.392C1023.72 175.596 1023.55 175.823 1023.3 176.041C1023.06 176.258 1022.76 176.46 1021.91 176.361" stroke="#FFF2EA" stroke-width="12" stroke-linecap="round"/>
<path d="M1021.47 147.774C1021.06 148.153 1020.05 149.269 1018.95 150.442C1018.43 150.994 1017.42 151.79 1016.32 152.301C1016.02 152.445 1016.09 151.804 1016.26 151.406C1016.87 150.063 1017.84 149.304 1018.62 148.399C1018.83 148.152 1019.17 147.98 1019.44 147.964C1019.71 147.949 1019.93 148.126 1020.09 148.355C1020.24 149.577 1019.81 150.75 1019.53 151.322C1019.38 151.591 1019.2 151.818 1019.02 152.052" stroke="#FFF2EA" stroke-width="12" stroke-linecap="round"/>
<path d="M998.376 178.624C998.225 178.725 997.466 179.23 996.433 179.753C996.114 179.915 996.083 179.495 996.121 179.137C996.2 178.396 996.44 177.708 996.858 177.099C997.098 176.75 997.605 176.49 997.839 176.498C998.985 176.538 997.742 179.153 997.205 180.339C997.052 180.608 996.875 180.835 996.443 181.178C996.011 181.522 995.33 181.975 994.628 182.442" stroke="#FFF2EA" stroke-width="12" stroke-linecap="round"/>
<path d="M994.925 153.932C994.776 153.707 993.507 152.128 992.246 150.978C991.466 150.268 990.678 149.701 990.421 149.483C989.374 148.59 992.782 151.049 993.853 151.661C994.159 151.79 994.537 151.866 994.921 151.944C995.305 152.021 995.684 152.097 996.226 152.404" stroke="#FFF2EA" stroke-width="12" stroke-linecap="round"/>
<path d="M1007.93 164.852C1007.9 164.82 1007.88 164.788 1007.78 164.626C1007.67 164.464 1007.47 164.174 1007.42 164.063C1007.37 163.951 1007.47 164.026 1007.63 164.201" stroke="#E6B2E4" stroke-width="12" stroke-linecap="round"/>
<path d="M992.693 206.744C992.287 207.123 991.272 208.239 990.172 209.412C989.656 209.963 988.646 210.76 987.55 211.271C987.242 211.414 987.312 210.774 987.49 210.376C988.092 209.033 989.07 208.273 989.849 207.369C990.061 207.122 990.394 206.949 990.663 206.934C990.933 206.919 991.16 207.095 991.314 207.325C991.47 208.547 991.036 209.72 990.756 210.292C990.602 210.561 990.425 210.788 990.243 211.021" stroke="#FFF2EA" stroke-width="12" stroke-linecap="round"/>
<path d="M966.152 212.902C966.002 212.677 964.734 211.099 963.472 209.949C962.692 209.238 961.904 208.672 961.648 208.453C960.601 207.56 964.009 210.019 965.08 210.632C965.386 210.761 965.764 210.837 966.148 210.914C966.532 210.991 966.91 211.067 967.453 211.375" stroke="#FFF2EA" stroke-width="12" stroke-linecap="round"/>
<path d="M979.152 223.822C979.131 223.79 979.109 223.757 979.002 223.596C978.894 223.434 978.702 223.144 978.65 223.032C978.599 222.921 978.696 222.996 978.86 223.171" stroke="#E6B2E4" stroke-width="12" stroke-linecap="round"/>
<path d="M888.858 66.303C888.455 66.5166 887.304 66.3748 885.128 65.2913C884.654 65.0549 884.677 64.6233 884.671 64.3135C884.664 64.0036 884.699 63.7182 884.858 63.4872C885.551 62.4792 887.221 62.6788 888.416 62.7365C888.707 62.7506 888.991 62.8074 889.12 62.9682C889.25 63.1291 889.215 63.4145 889.118 63.7257C889.022 64.0369 888.866 64.3653 888.088 64.7155" stroke="#FFF2EA" stroke-width="12" stroke-linecap="round"/>
<path d="M873.033 40.4116C872.879 40.9458 872.581 42.4244 872.241 43.9957C872.08 44.7341 871.623 45.9359 870.945 46.9375C870.755 47.2185 870.486 46.6332 870.434 46.1998C870.261 44.7388 870.71 43.5845 870.913 42.4084C870.969 42.0874 871.166 41.7688 871.389 41.6172C871.613 41.4657 871.898 41.5008 872.149 41.6187C872.91 42.587 873.139 43.8163 873.193 44.4507C873.199 44.7606 873.164 45.046 873.128 45.34" stroke="#FFF2EA" stroke-width="12" stroke-linecap="round"/>
<path d="M869.064 78.7407C868.985 78.9049 868.593 79.7284 867.976 80.7072C867.785 81.0097 867.543 80.6656 867.392 80.3388C867.079 79.6625 866.932 78.9493 866.978 78.2113C867.004 77.7884 867.306 77.3053 867.51 77.1923C868.515 76.6383 868.79 79.52 868.939 80.8131C868.946 81.123 868.91 81.4084 868.716 81.9249C868.522 82.4413 868.17 83.1802 867.808 83.9415" stroke="#FFF2EA" stroke-width="12" stroke-linecap="round"/>
<path d="M853.421 59.3265C853.177 59.2104 851.278 58.5074 849.605 58.1686C848.57 57.9591 847.604 57.878 847.272 57.8221C845.914 57.5938 850.101 57.9532 851.335 57.9288C851.664 57.8825 852.027 57.7534 852.396 57.6225C852.765 57.4915 853.129 57.3625 853.752 57.348" stroke="#FFF2EA" stroke-width="12" stroke-linecap="round"/>
<path d="M870.176 62.0204C870.141 62.0038 870.106 61.9872 869.931 61.9037C869.756 61.8203 869.441 61.6705 869.34 61.6009C869.239 61.5312 869.36 61.5462 869.591 61.612" stroke="#E6B2E4" stroke-width="12" stroke-linecap="round"/>
<path d="M777.858 7.33622C777.455 7.54982 776.304 7.40801 774.128 6.32455C773.654 6.08815 773.677 5.65655 773.671 5.34669C773.664 5.03683 773.699 4.75143 773.858 4.52036C774.551 3.51237 776.221 3.71196 777.416 3.76971C777.707 3.7838 777.991 3.84061 778.12 4.00144C778.25 4.16226 778.215 4.44766 778.118 4.75888C778.022 5.0701 777.866 5.39851 777.088 5.74871" stroke="#FFF2EA" stroke-width="12" stroke-linecap="round"/>
<path d="M758.056 19.7739C757.978 19.9381 757.586 20.7616 756.968 21.7404C756.778 22.0429 756.535 21.6988 756.384 21.372C756.071 20.6957 755.924 19.9825 755.97 19.2445C755.997 18.8216 756.298 18.3385 756.503 18.2255C757.507 17.6716 757.782 20.5532 757.931 21.8463C757.938 22.1562 757.903 22.4416 757.709 22.9581C757.514 23.4745 757.163 24.2134 756.8 24.9747" stroke="#FFF2EA" stroke-width="12" stroke-linecap="round"/>
<path d="M742.413 0.3592C742.169 0.2431 740.27 -0.459899 738.597 -0.798719C737.562 -1.00821 736.596 -1.08932 736.264 -1.14518C734.907 -1.37349 739.093 -1.0141 740.327 -1.03845C740.656 -1.08483 741.019 -1.21385 741.389 -1.34482C741.758 -1.47579 742.121 -1.60481 742.745 -1.61926" stroke="#FFF2EA" stroke-width="12" stroke-linecap="round"/>
<path d="M759.176 3.05364C759.141 3.037 759.106 3.02036 758.931 2.93691C758.756 2.85347 758.441 2.70371 758.34 2.63406C758.239 2.5644 758.36 2.57937 758.591 2.64522" stroke="#E6B2E4" stroke-width="12" stroke-linecap="round"/>
<path d="M703.858 5.36551C703.455 5.57912 702.304 5.43731 700.128 4.35384C699.654 4.11744 699.677 3.68585 699.671 3.37599C699.664 3.06613 699.699 2.78073 699.858 2.54965C700.551 1.54167 702.221 1.74126 703.416 1.79901C703.707 1.8131 703.991 1.86991 704.12 2.03073C704.25 2.19156 704.215 2.47695 704.118 2.78818C704.022 3.0994 703.866 3.4278 703.088 3.77801" stroke="#FFF2EA" stroke-width="12" stroke-linecap="round"/>
<path d="M684.056 17.8032C683.978 17.9674 683.586 18.7909 682.968 19.7697C682.778 20.0722 682.535 19.7281 682.384 19.4013C682.071 18.725 681.924 18.0118 681.97 17.2738C681.997 16.8509 682.298 16.3678 682.503 16.2548C683.507 15.7008 683.782 18.5825 683.931 19.8756C683.938 20.1855 683.903 20.4709 683.709 20.9874C683.514 21.5038 683.163 22.2427 682.8 23.004" stroke="#FFF2EA" stroke-width="12" stroke-linecap="round"/>
<path d="M668.413 -1.6115C668.169 -1.7276 666.27 -2.4306 664.597 -2.76942C663.562 -2.97891 662.596 -3.06002 662.264 -3.11588C660.907 -3.34419 665.093 -2.9848 666.327 -3.00915C666.656 -3.05554 667.019 -3.18455 667.389 -3.31552C667.758 -3.4465 668.121 -3.57551 668.745 -3.58997" stroke="#FFF2EA" stroke-width="12" stroke-linecap="round"/>
<path d="M685.176 1.08294C685.141 1.0663 685.106 1.04966 684.931 0.966211C684.756 0.882763 684.441 0.73301 684.34 0.663353C684.239 0.593695 684.36 0.60867 684.591 0.67452" stroke="#E6B2E4" stroke-width="12" stroke-linecap="round"/>
<path d="M879.858 135.366C879.455 135.579 878.304 135.437 876.128 134.354C875.654 134.117 875.677 133.686 875.671 133.376C875.664 133.066 875.699 132.781 875.858 132.55C876.551 131.542 878.221 131.741 879.416 131.799C879.707 131.813 879.991 131.87 880.12 132.031C880.25 132.192 880.215 132.477 880.118 132.788C880.022 133.099 879.866 133.428 879.088 133.778" stroke="#FFF2EA" stroke-width="12" stroke-linecap="round"/>
<path d="M864.025 109.474C863.872 110.008 863.573 111.487 863.233 113.058C863.073 113.797 862.616 114.998 861.937 116C861.747 116.281 861.478 115.696 861.426 115.262C861.253 113.801 861.703 112.647 861.906 111.471C861.961 111.15 862.158 110.831 862.381 110.68C862.605 110.528 862.89 110.563 863.141 110.681C863.902 111.649 864.131 112.879 864.185 113.513C864.192 113.823 864.156 114.108 864.12 114.403" stroke="#FFF2EA" stroke-width="12" stroke-linecap="round"/>
<path d="M860.056 147.803C859.978 147.967 859.586 148.791 858.968 149.77C858.778 150.072 858.535 149.728 858.384 149.401C858.071 148.725 857.924 148.012 857.97 147.274C857.997 146.851 858.298 146.368 858.503 146.255C859.507 145.701 859.782 148.582 859.931 149.876C859.938 150.185 859.903 150.471 859.709 150.987C859.514 151.504 859.163 152.243 858.8 153.004" stroke="#FFF2EA" stroke-width="12" stroke-linecap="round"/>
<path d="M844.413 128.389C844.169 128.273 842.27 127.57 840.597 127.231C839.562 127.022 838.596 126.94 838.264 126.885C836.907 126.656 841.093 127.016 842.327 126.991C842.656 126.945 843.019 126.816 843.389 126.685C843.758 126.554 844.121 126.425 844.745 126.411" stroke="#FFF2EA" stroke-width="12" stroke-linecap="round"/>
<path d="M861.176 131.083C861.141 131.066 861.106 131.05 860.931 130.966C860.756 130.883 860.441 130.733 860.34 130.663C860.239 130.594 860.36 130.609 860.591 130.675" stroke="#E6B2E4" stroke-width="12" stroke-linecap="round"/>
<path d="M911.858 211.365C911.455 211.579 910.304 211.437 908.128 210.353C907.654 210.117 907.677 209.685 907.671 209.376C907.664 209.066 907.699 208.78 907.858 208.549C908.551 207.541 910.221 207.741 911.416 207.799C911.707 207.813 911.991 207.869 912.12 208.03C912.25 208.191 912.215 208.476 912.118 208.788C912.022 209.099 911.866 209.427 911.088 209.778" stroke="#FFF2EA" stroke-width="12" stroke-linecap="round"/>
<path d="M896.033 185.474C895.879 186.008 895.581 187.486 895.241 189.058C895.08 189.796 894.623 190.998 893.945 191.999C893.755 192.281 893.486 191.695 893.434 191.262C893.261 189.801 893.71 188.647 893.913 187.47C893.969 187.149 894.166 186.831 894.389 186.679C894.613 186.528 894.898 186.563 895.149 186.681C895.91 187.649 896.139 188.878 896.193 189.513C896.199 189.823 896.164 190.108 896.128 190.402" stroke="#FFF2EA" stroke-width="12" stroke-linecap="round"/>
<path d="M892.064 223.803C891.985 223.967 891.593 224.79 890.976 225.769C890.785 226.072 890.543 225.728 890.392 225.401C890.079 224.725 889.932 224.011 889.978 223.273C890.004 222.85 890.306 222.367 890.51 222.254C891.515 221.7 891.79 224.582 891.939 225.875C891.946 226.185 891.91 226.47 891.716 226.987C891.522 227.503 891.17 228.242 890.808 229.004" stroke="#FFF2EA" stroke-width="12" stroke-linecap="round"/>
<path d="M876.413 204.388C876.169 204.272 874.27 203.569 872.597 203.231C871.562 203.021 870.596 202.94 870.264 202.884C868.907 202.656 873.093 203.015 874.327 202.991C874.656 202.944 875.019 202.815 875.389 202.684C875.758 202.554 876.121 202.424 876.745 202.41" stroke="#FFF2EA" stroke-width="12" stroke-linecap="round"/>
<path d="M893.176 207.083C893.141 207.066 893.106 207.05 892.931 206.966C892.756 206.883 892.441 206.733 892.34 206.663C892.239 206.594 892.36 206.609 892.591 206.675" stroke="#E6B2E4" stroke-width="12" stroke-linecap="round"/>
<path d="M844.764 10.1189C844.308 10.0948 843.394 9.38239 842.083 7.33526C841.797 6.88859 842.039 6.53046 842.193 6.2612C842.346 5.99194 842.523 5.76512 842.778 5.64843C843.89 5.1394 845.22 6.1681 846.216 6.83125C846.459 6.99308 846.673 7.18744 846.701 7.3919C846.73 7.59637 846.553 7.82319 846.311 8.04077C846.068 8.25836 845.765 8.45984 844.919 8.36123" stroke="#FFF2EA" stroke-width="12" stroke-linecap="round"/>
<path d="M821.392 10.6243C821.241 10.7251 820.481 11.2303 819.449 11.7532C819.13 11.9149 819.098 11.495 819.137 11.137C819.216 10.3961 819.455 9.70848 819.874 9.09899C820.114 8.74963 820.621 8.48981 820.854 8.49805C822.001 8.53844 820.757 11.1526 820.221 12.3386C820.067 12.6079 819.89 12.8347 819.459 13.1782C819.027 13.5217 818.346 13.975 817.644 14.4421" stroke="#FFF2EA" stroke-width="12" stroke-linecap="round"/>
<path d="M830.934 -3.14793C830.912 -3.18015 830.891 -3.21237 830.783 -3.37397C830.676 -3.53557 830.483 -3.82557 830.432 -3.93734C830.381 -4.04912 830.477 -3.9739 830.641 -3.79875" stroke="#E6B2E4" stroke-width="12" stroke-linecap="round"/>
<path d="M815.991 69.092C815.534 69.0679 814.62 68.3555 813.31 66.3084C813.024 65.8617 813.266 65.5036 813.419 65.2343C813.573 64.9651 813.749 64.7383 814.004 64.6216C815.117 64.1125 816.447 65.1412 817.442 65.8044C817.685 65.9662 817.899 66.1606 817.928 66.365C817.956 66.5695 817.78 66.7963 817.537 67.0139C817.295 67.2315 816.992 67.433 816.145 67.3344" stroke="#FFF2EA" stroke-width="12" stroke-linecap="round"/>
<path d="M815.701 38.7472C815.295 39.1266 814.279 40.2423 813.18 41.4155C812.663 41.9669 811.654 42.7634 810.558 43.2744C810.25 43.4178 810.32 42.7774 810.498 42.379C811.1 41.0364 812.078 40.2769 812.856 39.372C813.069 39.125 813.402 38.9529 813.671 38.9375C813.941 38.9221 814.167 39.0988 814.322 39.3286C814.478 40.5504 814.043 41.7232 813.764 42.295C813.61 42.5642 813.433 42.791 813.251 43.0247" stroke="#FFF2EA" stroke-width="12" stroke-linecap="round"/>
<path d="M792.611 69.5975C792.459 69.6982 791.7 70.2034 790.668 70.7264C790.349 70.888 790.317 70.4681 790.355 70.1101C790.434 69.3692 790.674 68.6816 791.093 68.0721C791.333 67.7228 791.839 67.463 792.073 67.4712C793.219 67.5116 791.976 70.1257 791.439 71.3118C791.286 71.581 791.109 71.8078 790.678 72.1513C790.246 72.4949 789.564 72.9482 788.862 73.4153" stroke="#FFF2EA" stroke-width="12" stroke-linecap="round"/>
<path d="M789.16 44.9054C789.01 44.6805 787.741 43.1019 786.48 41.9521C785.7 41.2412 784.912 40.6751 784.656 40.4567C783.609 39.5639 787.016 42.0221 788.088 42.6349C788.394 42.764 788.772 42.84 789.156 42.9172C789.54 42.9943 789.918 43.0703 790.46 43.3781" stroke="#FFF2EA" stroke-width="12" stroke-linecap="round"/>
<path d="M802.16 55.8252C802.139 55.793 802.117 55.7608 802.01 55.5992C801.902 55.4376 801.709 55.1476 801.658 55.0358C801.607 54.924 801.704 54.9992 801.868 55.1744" stroke="#E6B2E4" stroke-width="12" stroke-linecap="round"/>
</g>
<defs>
<clipPath id="clip0_1745_3396">
<rect width="1200" height="221" fill="white"/>
</clipPath>
</defs>
</svg>
