<svg width="1200" height="221" viewBox="0 0 1200 221" fill="none" xmlns="http://www.w3.org/2000/svg">
<g clip-path="url(#clip0_1746_4215)">
<rect width="1200" height="221" fill="#26417B"/>
<path d="M998.568 101.643C997.606 101.981 990.379 104.522 979.595 108.496C971.563 111.455 968.459 114.791 966.606 116.267C964.704 117.783 963.611 120.157 961.693 122.208C959.673 124.369 957.388 127.293 955.866 130.205C953.436 134.856 953.437 137.29 953.074 139.62C952.985 140.195 953.012 140.738 953.314 141.094C957.377 145.87 970.398 135.922 972.633 134.493C975.39 132.73 979.059 131.59 981.437 130.298C983.639 129.101 986.053 127.669 988.321 126.594C990.973 125.337 993.415 123.244 996.16 121.732C998.539 120.421 1001.19 117.948 1003.15 115.98C1005.1 114.014 1006.69 112.354 1008.12 110.202C1009.76 107.732 1008.47 104.957 1007.48 102.923C1007.08 102.101 1006.35 102.027 1005.81 102.032C1003.75 102.388 1002.12 102.412 1000.82 102.592C1000.07 102.765 999.104 103.103 998.113 103.452" stroke="#81C1FF" stroke-width="5" stroke-linecap="round"/>
<path d="M954.705 101.124C948.975 102.767 937.249 105.761 934.292 106.141C931.888 106.45 928.795 107.042 925.531 107.343C921.023 107.759 917.345 108.619 914.843 109.031C912.369 109.438 909.708 110.176 906.451 110.76C903.862 111.224 900.818 111.802 898.538 112.318C895.581 112.989 892.53 113.588 889.748 114.467C887.339 115.229 885.948 118.147 884.494 122.035C884.094 123.105 884.843 124.347 885.301 125.136C887.222 128.449 892.594 129.35 894.944 129.562C897.678 129.809 900.17 129.699 902.852 129.041C904.205 128.709 905.593 128.548 906.914 128.177C908.255 127.8 916.866 125.148 929.054 120.77C935.373 118.5 938.263 116.496 940.608 115.111C942.944 113.73 945.087 112.596 947.229 111.183C949.039 109.989 950.87 108.87 952.726 107.933C954.644 106.964 956.168 105.315 958.28 103.819C958.795 103.455 959.214 103.115 959.425 102.666C959.635 102.217 959.621 101.664 959.314 101.298C958.411 100.769 957.257 100.605 956.119 100.723C955.521 100.837 954.88 101.063 954.22 101.295" stroke="#81C1FF" stroke-width="5" stroke-linecap="round"/>
<path d="M984.725 155.265C982.449 156.065 976.236 158.25 968.084 161.026C961.195 163.373 956.044 164.445 947.935 165.399C934.244 167.01 924.349 166.686 922.154 166.19C916.394 164.889 912.797 164.756 909.808 164.166C907.352 163.681 904.96 162.964 902.559 162.443C900.385 161.97 896.724 162.589 893.118 163.396C891.902 163.668 890.185 163.972 888.464 164.847C887.792 165.189 887.887 165.86 888.087 166.697C889.257 171.584 895.121 174.94 898.835 177.094C905.144 180.753 915.628 184.457 919.706 185.567C926.458 187.405 932.825 186.763 936.959 186.327C942.138 185.779 949.796 181.908 951.683 180.969C954.716 179.46 958.474 176.676 960.763 175.053C963.548 173.079 965.616 171.798 967.768 170.047C970.011 168.221 972.211 166.939 973.928 165.517C975.757 164.003 977.27 162.434 979.016 161.092C980.761 159.75 982.012 158.585 982.824 157.755C983.261 157.415 983.749 157.244 985.066 156.236" stroke="#81C1FF" stroke-width="5" stroke-linecap="round"/>
<path d="M1003.04 179.077C994.564 182.058 983.489 185.231 980.191 185.295C976.22 185.371 973.386 185.318 969.165 185.618C966.026 185.842 963.187 186.171 960.882 186.705C958.191 187.329 955.41 187.626 951.1 188.688C940.535 191.29 936.093 194.418 931.381 196.529C926.428 198.747 922.573 200.08 922.009 201.095C921.485 202.04 922.173 203.675 923.015 205.29C924.314 207.784 927.867 207.325 931.57 207.392C934.421 207.444 937.127 206.442 939.631 206.201C941.724 206 944.736 205.045 947.349 204.58C949.588 204.182 952.622 203.366 955.476 202.816C957.796 202.369 960.508 201.686 964.425 201.306C968.728 200.889 973.229 201.215 978.453 201.655C981.212 201.887 983.63 202.477 985.967 202.571C988.792 202.684 992.839 202.519 996.031 201.859C1001.21 200.787 1009.58 197.191 1013.22 194.725C1015.73 193.028 1017.13 190.894 1018.82 189.386C1020.67 187.729 1022.33 185.24 1022.69 183.109C1022.87 182.037 1022.44 180.826 1021.72 179.807C1020.09 177.505 1016.6 178.322 1014.29 178.041C1012.19 177.787 1010.02 178.451 1007.82 178.494C1005.46 178.594 1002.94 178.753 1000.74 178.796C1000.19 178.806 999.646 178.817 998.594 179.001" stroke="#81C1FF" stroke-width="5" stroke-linecap="round"/>
<path d="M959.577 73.2545C953.045 66.6627 949.273 63.2552 946.622 61.191C944.331 59.4074 941.983 58.7239 940.582 57.8586C938.472 56.5547 930.931 54.8229 920.65 52.7172C911.681 50.88 907.686 50.4373 903.202 49.4617C896.563 48.0171 894.006 47.6021 891.448 47.1355C889.201 46.7257 886.873 46.6528 884.54 46.2926C882.127 45.9201 878.926 45.4554 873.963 44.6536C872.274 44.3808 865.475 43.1174 855.686 41.3817C847.896 40.0005 836.586 39.8059 831.861 40.6356C829.602 41.0324 826.872 41.5747 822.539 42.8228C818.03 44.1217 812.859 46.131 811.151 47.5495C810.23 48.315 809.832 49.5566 809.602 50.7257C809.386 51.8201 810.159 54.1533 811.643 57.0807C813.629 60.9984 817.411 60.705 819.802 61.2303C822.032 61.7201 824.377 61.713 829.984 62.2799C834.316 62.7179 845.91 64.0991 851.735 65.0885C855.599 65.7448 862.002 66.4574 866.593 66.8633C869.912 67.1566 872.185 67.621 874.951 67.652C877.857 67.6845 880.132 68.2842 882.736 68.6391C886.887 69.2049 890.647 68.9495 893.554 69.1079C896.075 69.2454 898.815 69.7093 903.215 69.978C909.718 70.3751 912.73 71.175 917.028 71.6623C927.967 72.9025 931.816 74.2797 934.794 74.8741C937.152 75.3449 939.777 75.4833 942.274 75.5187C944.88 75.5555 947.495 75.4961 949.939 75.64C952.299 75.7788 954.781 75.8463 957.518 75.5219C958.609 75.2311 959.65 75.0447 960.387 74.7885C960.581 74.5429 960.412 74.0624 960.238 73.5674" stroke="#81C1FF" stroke-width="5" stroke-linecap="round"/>
<path d="M928.527 86.0183C922.223 88.056 919.364 88.3393 916.035 88.3348C912.42 88.33 900.621 88.4496 892.736 87.8465C889.891 87.6288 887.303 87.13 884.297 86.4721C881.223 85.7994 878.423 85.5524 875.938 85.0667C873.294 84.5499 870.925 84.748 868.551 84.3182C866.085 83.8716 863.809 83.4511 861.463 83.101C859.193 82.7622 856.863 82.6372 854.658 82.688C853.559 82.7133 850.716 83.5286 847.016 85.0981C843.51 86.5856 843.496 90.3982 843.347 92.8931C843.146 96.2406 846.686 97.4176 849.148 98.6358C851.948 100.021 855.855 100.891 858.508 101.317C861.17 101.745 863.847 101.521 866.93 101.341C871.772 101.057 876.07 101.022 878.767 100.799C881.468 100.575 883.991 100.408 886.774 100.154C889.221 99.9311 892.08 99.7352 894.997 99.3442C898.228 98.9113 900.718 98.5104 902.837 98.2157C905.629 97.8274 909.783 96.9513 912.564 96.4238C916.687 95.6418 925.543 92.4949 930.324 90.0947C931.23 89.64 930.366 88.0908 929.839 87.3726C929.48 87.1325 928.935 87.1451 928.409 87.2375C927.884 87.33 927.395 87.5019 926.891 87.6791" stroke="#81C1FF" stroke-width="5" stroke-linecap="round"/>
<path d="M869.175 119.071C861.758 119.849 855.553 118.761 849.832 117.181C843.862 115.532 835.06 110.579 831.036 108.04C827.075 105.54 824.531 102.554 822.375 100.363C820.718 98.6802 818.851 96.8461 816.701 94.1235C813.252 89.7576 811.439 88.2745 809.443 86.775C807.448 85.2756 805.251 84.2181 802.329 82.6848C798.853 80.8611 795.842 80.3822 792.59 80.5146C790.112 80.6155 787.381 81.3351 785.162 82.5688C781.506 84.6015 782.517 88.8926 782.866 92.2459C783.727 100.52 789.306 103.542 796.906 110.097C802.218 114.679 805.676 115.196 809.721 117.335C816.379 120.855 819.827 121.574 826.014 122.784C832.84 124.118 837.646 125.376 842.124 125.829C845.281 126.149 849.43 126.552 853.401 126.629C855.768 126.674 857.793 125.821 860.411 125.447C861.819 125.246 864.811 124.452 868.151 123.006C869.23 122.354 869.06 121.87 868.726 121.435C868.392 121.001 867.898 120.63 866.24 120.103" stroke="#81C1FF" stroke-width="5" stroke-linecap="round"/>
<path d="M890.149 140.051C886.594 141.301 883.577 142 880.555 141.965C878.179 141.938 874.515 142.081 870.684 142.328C866.768 142.58 864.183 141.687 861.433 141.375C857.83 140.967 851.232 140.951 846.28 141.214C843.23 141.375 841.218 142.08 831.401 145.617C828.073 146.816 827.215 148.825 826.502 149.896C826.129 150.457 825.847 151.128 825.885 152.028C825.973 154.1 827.219 155.589 828.368 156.28C831.933 158.424 841.623 159.463 846.944 159.721C851.009 159.918 854.807 159.063 859.132 158.453C862.221 158.017 866.152 156.72 869.656 156.034C871.285 155.715 880.039 152.934 892.229 148.557C897.23 146.762 898.177 145.827 899.003 145.081C899.432 144.693 899.773 144.174 899.849 143.598C899.925 143.023 899.698 142.378 899.256 141.889C897.537 139.987 894.789 140.801 892.615 140.833C892.069 140.841 891.532 140.849 890.986 140.857C890.441 140.865 889.903 140.873 888.692 140.564" stroke="#81C1FF" stroke-width="5" stroke-linecap="round"/>
<path d="M958.404 10.449C957.433 10.7902 949.702 13.1446 938.364 16.397C932.118 18.1889 928.388 16.4106 920.67 14.537C914.116 12.9458 909.45 11.113 905.561 9.99343C903.133 9.29439 900.203 8.84432 897.146 8.25759C894.702 7.78853 891.52 7.11679 888.489 6.60952C884.004 5.85908 880.632 5.41404 878.358 5.47696C877.019 5.514 873.708 6.55695 869.711 8.23595C868.23 8.85766 868.148 9.60497 868.44 10.9679C869.789 17.2611 872.725 18.4841 875.385 20.3088C878.228 22.2588 884.849 24.8636 890.862 27.011C895.114 28.5296 902.801 30.5193 911.734 32.0897C917.155 33.0429 923.237 34.2192 925.684 34.6451C928.437 35.1244 931.084 35.1365 935.425 36.0003C939.32 36.7752 942.772 36.5468 945.777 36.9639C948.476 37.3384 951.328 36.8503 954.178 36.3148C959.361 35.3407 967.358 31.777 969.257 30.3722C971.152 28.9704 973.092 27.1883 974.485 25.1336C975.822 23.1607 974.236 19.4443 972.597 16.6008C971.374 14.478 969.471 13.1929 967.637 11.6269C965.531 10.3386 963.772 10.0353 962.142 10.3326C961.054 10.6214 959.436 11.1902 956.616 11.6297" stroke="#81C1FF" stroke-width="5" stroke-linecap="round"/>
<path d="M870.697 190.515C857.211 188.486 852.305 188.065 850.127 188.116C849.042 188.141 847.683 188.437 846.601 189.259C846.115 189.629 846.601 190.584 846.987 191.168C848.856 193.994 852.631 196.321 855.504 198.52C859.184 201.337 863.343 202.371 868.603 204.616C871.787 205.975 875.882 206.88 883.957 208.049C891.204 209.099 894.227 208.104 900.455 206.102C901.797 205.671 902.092 204.996 902.09 204.197C902.089 203.397 901.702 202.297 901.07 201.529C898.746 198.704 895.041 198.912 892.639 198.327C890.238 197.742 887.846 197.16 885.306 196.179C882.961 195.275 880.696 194.503 878.159 193.519C874.791 191.757 873.534 190.77 872.31 190.4C871.68 190.175 871.031 189.873 869.874 189.734" stroke="#81C1FF" stroke-width="5" stroke-linecap="round"/>
<path d="M998.259 226.179C995.235 226.88 992.917 227.144 987.196 227.698C982.217 228.179 973.098 229.744 968.148 230.549C958.306 232.149 947.187 231.678 942.439 231.507C934.438 231.218 929.548 230.55 925.269 229.93C919.839 229.144 916.085 228.306 913.051 228.077C910.486 227.883 907.199 228.117 897.587 231.492C894.585 232.546 893.66 234.518 893.029 236.113C892.559 237.302 893.29 239.227 894.387 241.315C896.013 244.407 900.914 244.251 903.995 244.917C909.001 246.001 912.123 246.913 915.809 247.461C918.495 247.86 922.973 248.051 928.404 248.076C933.512 248.099 936.138 248.386 942.085 248.397C952.184 248.416 954.901 247.479 961.869 245.485C973.749 242.087 981.759 238.767 983.146 238.554C986.926 237.975 988.902 237.174 991.007 236.891C993.084 236.611 996.096 235.746 999.623 235.053C1002.64 234.46 1005.38 233.944 1010.74 231.976C1011.76 231.6 1011.48 230.897 1010.85 230.386C1007.84 227.962 1004.98 228.042 1002.56 227.425C1001.35 227.117 1000.14 226.807 998.931 226.499C998.323 226.344 997.724 226.192 995.955 225.889" stroke="#81C1FF" stroke-width="5" stroke-linecap="round"/>
<path d="M906.393 270.386C891.691 264.7 882.316 260.776 878.52 258.559C869.819 253.475 862.893 248.796 856.92 244.586C854.237 242.695 851.816 240.251 847.705 236.606C840.91 230.581 834.988 222.621 830.941 217.103C827.871 212.916 825.371 209.895 823 206.795C821.077 204.281 818.418 202.099 814.832 197.891C812.657 195.338 810.306 193.619 808.355 192.754C806.947 192.129 805.739 192.111 804.273 192.352C801.984 192.729 800.354 193.999 799.606 194.991C797.913 197.236 797.882 200.526 797.932 203.795C797.982 207.096 801.655 216.48 804.032 221.941C804.876 223.881 808.227 227.382 810.938 230.384C812.698 232.334 814.742 234.433 817.291 236.464C819.725 238.405 821.461 241.029 825.334 244.499C829.248 248.006 833.455 250.682 840.476 256.596C844.41 259.91 851.347 265.816 855.4 269.13C860.293 273.133 865.12 276.631 872.242 282.062C878.128 286.55 884.951 289.773 890.868 292.533C895.83 294.849 907.112 297.14 912.599 297.442C916.146 297.637 920.172 295.513 920.897 294.713C922.442 293.006 919.667 286.244 917.187 282.043C915.987 280.012 913.909 278.719 912.488 277.023C910.923 275.155 909.721 273.064 907.894 271.511C906.901 270.767 905.9 270.016 904.854 269.381C904.302 269.115 903.704 268.963 903.088 268.807" stroke="#81C1FF" stroke-width="5" stroke-linecap="round"/>
<path d="M818.441 179.787C817.511 178.666 814.933 174.426 813.015 171.526C811.616 169.409 810.733 167.096 809.507 165.141C807.918 162.607 806.927 160.365 802.571 155.393C800.237 152.73 797.033 151.183 794.385 149.814C792.222 148.696 789.874 149.286 786.867 149.699C785.769 149.85 784.366 150.485 783.555 151.043C782.745 151.6 782.598 152.197 782.721 153.07C783.277 157.014 786.458 159.636 790.045 162.145C793.103 164.284 795.649 165.773 797.709 167.253C799.556 168.58 800.932 170.52 802.744 172.088C804.558 173.657 806.206 175.271 807.702 176.949C809.157 178.582 810.363 180.415 812.197 181.793C814.389 182.126 816.768 182.753 818.719 182.901C818.881 182.577 818.597 181.769 818.304 180.936" stroke="#81C1FF" stroke-width="5" stroke-linecap="round"/>
<path d="M792.111 136.538C787.748 136.417 785.454 135.014 783.368 133.44C780.972 131.632 777.625 129.11 775.155 127.008C773.355 125.475 771.768 123.773 766.593 116.483C764.486 113.514 763.157 110.57 760.559 102.183C759.941 100.186 760.974 98.7937 761.497 97.9535C762.295 96.6747 763.984 96.0523 765.964 95.5388C768.847 94.791 771.31 97.894 774.419 100.855C776.43 102.771 777.623 105.085 778.56 106.972C780.114 110.104 782.05 114.6 782.987 116.487C784.029 118.586 785.86 120.822 787.176 122.765C788.356 124.507 789.442 126.394 790.778 128.141C792.114 129.888 793.446 131.629 794.702 133.404C795.13 134.358 795.16 135.46 794.729 136.533C794.445 137.007 794.025 137.337 793.112 137.847" stroke="#81C1FF" stroke-width="5" stroke-linecap="round"/>
<path d="M772.108 77.3891C770.819 73.7224 764.955 62.4373 762.515 58.5437C760.896 55.9619 757.788 52.4452 756.227 49.9152C754.871 47.7185 753.094 42.9174 753.025 39.2011C752.981 36.8447 757.329 35.9637 760.393 35.1546C763.499 34.3347 765.176 38.0727 767.579 40.8383C769.63 43.1987 770.724 46.2379 771.747 48.323C772.942 50.758 774.69 52.6171 776.191 56.0604C777.297 58.5974 778.766 60.942 780.437 65.6756C781.384 68.3603 779.618 70.9429 778.053 73.0354C776.317 74.6406 775.011 75.8264 774.019 76.2646C773.533 76.5248 773.083 76.862 772.619 77.2094" stroke="#81C1FF" stroke-width="5" stroke-linecap="round"/>
<path d="M844.247 17.3784C836.453 16.8744 829.539 15.7141 819.85 14.1675C803.186 11.5075 799.036 12.7029 796.21 12.9651C792.858 13.2762 790.159 13.8308 787.326 14.5533C784.961 15.1566 781.906 15.6493 775.608 17.8585C774.286 18.3222 773.984 18.9658 773.798 19.4834C772.876 22.0518 774.823 24.9923 775.346 25.9781C778.128 31.2138 789.685 28.0704 792.996 27.9028C796.14 27.7437 798.62 27.6367 804.406 27.5876C808.718 27.551 813.763 27.9023 817.994 28.2291C820.675 28.4362 823.774 29.4415 826.793 30.0102C829.207 30.4648 832.671 31.0041 835.614 31.334C838.851 31.6967 842.754 31.2612 845.473 31.4779C848.229 31.6977 850.72 31.1686 853.291 30.9877C855.537 30.8297 857.91 30.4496 859.846 29.5008C860.585 29.1381 860.493 28.4686 860.377 27.8756C859.901 25.4356 857.673 24.0435 855.569 22.4354C852.445 20.0484 850.131 19.112 847.703 17.8858C847.073 17.6522 846.481 17.5028 845.88 17.3512C845.279 17.1996 844.687 17.0502 843.108 17.2373" stroke="#81C1FF" stroke-width="5" stroke-linecap="round"/>
<path d="M859.798 -10.0634C857.316 -9.37047 854.716 -9.54087 844.224 -10.277C838.017 -10.7125 827.543 -12.783 821.803 -13.814C812.854 -15.4213 808.044 -17.4702 804.883 -18.1791C800.65 -19.1285 795.695 -20.0281 792.355 -20.137C788.053 -20.2774 782.571 -16.8848 781.856 -15.8187C781.081 -14.6624 781.607 -11.8425 783.069 -8.45418C785.318 -3.24156 793.645 -2.43333 798.659 -0.841841C801.701 0.123821 804.276 0.368523 806.891 0.541922C810.722 0.795973 814.07 1.28489 817.246 1.53087C824.643 2.10389 827.784 3.00302 830.073 3.29094C832.769 3.63003 835.731 4.3835 838.342 4.29103C842.155 4.15601 844.643 4.3455 847.16 3.73577C849.897 3.07264 857.789 0.998602 862.348 -1.23665C864.387 -2.23647 865.808 -3.81588 867.169 -5.65426C867.498 -6.09863 867.346 -6.71126 867.177 -7.19959C867.008 -7.68791 866.679 -8.1117 866.212 -8.40546C864.003 -8.99646 862.317 -9.12876 861.149 -9.35283C860.574 -9.42599 860.037 -9.41683 859.312 -9.89244" stroke="#81C1FF" stroke-width="5" stroke-linecap="round"/>
<path d="M765.397 6.60774C763.365 0.828475 760.378 -6.07901 755.645 -10.7767C742.987 -23.3413 735.623 -22.0562 731.297 -23.0968C729.435 -23.5449 727.661 -23.8098 726.619 -23.1669C722.332 -20.5208 732.192 -14.0748 735.244 -10.6117C739.42 -5.87278 744.392 -4.18567 748.069 -1.78072C751.423 0.412744 754.961 2.60064 758.519 3.91109C760.374 4.39078 762.155 4.62412 763.833 4.60011C764.679 4.58802 765.511 4.57611 766.369 4.56383" stroke="#81C1FF" stroke-width="5" stroke-linecap="round"/>
<path d="M1253.85 112C1252.83 112 1245.17 112 1233.67 112.171C1225.12 112.299 1221.08 114.417 1218.84 115.194C1216.55 115.993 1214.73 117.87 1212.24 119.169C1209.62 120.538 1206.49 122.538 1204.09 124.781C1200.25 128.362 1199.45 130.659 1198.33 132.736C1198.06 133.249 1197.9 133.77 1198.07 134.206C1200.32 140.06 1215.9 134.994 1218.48 134.387C1221.67 133.639 1225.51 133.781 1228.18 133.35C1230.66 132.952 1233.41 132.401 1235.9 132.139C1238.82 131.833 1241.82 130.669 1244.91 130.153C1247.59 129.706 1250.91 128.253 1253.41 127.044C1255.9 125.837 1257.96 124.799 1260.02 123.243C1262.39 121.457 1262.09 118.41 1261.83 116.164C1261.73 115.257 1261.07 114.946 1260.55 114.769C1258.49 114.422 1256.94 113.903 1255.66 113.644C1254.89 113.556 1253.87 113.556 1252.82 113.556" stroke="#81C1FF" stroke-width="5" stroke-linecap="round"/>
<path d="M1212.64 96.9619C1206.69 96.6106 1194.64 95.5462 1191.72 94.9235C1189.35 94.4174 1186.24 93.9496 1183.06 93.1512C1178.67 92.0485 1174.91 91.6398 1172.42 91.198C1169.95 90.7612 1167.19 90.5753 1163.93 90.0458C1161.33 89.6249 1158.27 89.1596 1155.94 88.8909C1152.93 88.5421 1149.85 88.0952 1146.94 88.0021C1144.41 87.9214 1142.13 90.2134 1139.47 93.3987C1138.74 94.2758 1139.03 95.6952 1139.2 96.592C1139.92 100.355 1144.69 102.987 1146.83 103.966C1149.33 105.105 1151.72 105.829 1154.47 106.097C1155.85 106.233 1157.22 106.542 1158.59 106.63C1159.98 106.719 1168.98 107.074 1181.93 106.986C1188.64 106.941 1192.03 106.01 1194.71 105.48C1197.37 104.952 1199.77 104.594 1202.25 103.971C1204.36 103.445 1206.46 102.997 1208.52 102.728C1210.65 102.451 1212.63 101.401 1215.12 100.69C1215.73 100.517 1216.24 100.336 1216.59 99.9822C1216.93 99.6283 1217.1 99.1014 1216.94 98.6543C1216.26 97.856 1215.22 97.3185 1214.11 97.0524C1213.51 96.9619 1212.83 96.9619 1212.13 96.9619" stroke="#81C1FF" stroke-width="5" stroke-linecap="round"/>
<path d="M1223 157.994C1220.59 157.994 1214 157.994 1205.39 157.909C1198.11 157.837 1192.9 157.14 1184.93 155.35C1171.48 152.328 1162.25 148.741 1160.35 147.545C1155.35 144.406 1152 143.088 1149.37 141.54C1147.22 140.267 1145.2 138.798 1143.11 137.51C1141.21 136.343 1137.55 135.712 1133.88 135.277C1132.65 135.131 1130.92 134.848 1129.01 135.102C1128.26 135.202 1128.13 135.866 1128.04 136.723C1127.52 141.721 1131.94 146.832 1134.73 150.096C1139.47 155.641 1148.13 162.613 1151.61 165.012C1157.37 168.986 1163.59 170.493 1167.64 171.452C1172.7 172.654 1181.21 171.542 1183.3 171.282C1186.66 170.865 1191.13 169.485 1193.83 168.713C1197.11 167.774 1199.49 167.252 1202.1 166.314C1204.82 165.335 1207.32 164.855 1209.41 164.084C1211.64 163.262 1213.59 162.284 1215.68 161.597C1217.77 160.91 1219.34 160.226 1220.38 159.712C1220.91 159.537 1221.42 159.537 1223 159.023" stroke="#81C1FF" stroke-width="5" stroke-linecap="round"/>
<path d="M1232.38 186.533C1223.39 186.533 1211.89 185.852 1208.76 184.818C1204.99 183.573 1202.33 182.582 1198.25 181.466C1195.22 180.636 1192.43 180.004 1190.08 179.743C1187.33 179.439 1184.61 178.797 1180.19 178.369C1169.36 177.32 1164.13 178.797 1158.99 179.225C1153.58 179.675 1149.5 179.653 1148.63 180.424C1147.82 181.142 1147.93 182.912 1148.19 184.715C1148.59 187.499 1152.09 188.245 1155.56 189.537C1158.23 190.531 1161.12 190.483 1163.56 191.086C1165.6 191.591 1168.76 191.69 1171.38 192.118C1173.63 192.484 1176.76 192.721 1179.63 193.149C1181.97 193.497 1184.75 193.752 1188.58 194.694C1192.77 195.727 1196.91 197.527 1201.69 199.675C1204.22 200.809 1206.3 202.169 1208.48 203.032C1211.11 204.076 1214.98 205.263 1218.21 205.699C1223.45 206.406 1232.54 205.789 1236.8 204.672C1239.73 203.904 1241.75 202.354 1243.84 201.49C1246.14 200.541 1248.53 198.744 1249.58 196.854C1250.11 195.904 1250.1 194.619 1249.76 193.417C1248.98 190.704 1245.42 190.318 1243.33 189.286C1241.44 188.351 1239.17 188.255 1237.08 187.567C1234.82 186.878 1232.39 186.192 1230.3 185.504C1229.78 185.331 1229.26 185.161 1228.21 184.986" stroke="#81C1FF" stroke-width="5" stroke-linecap="round"/>
<path d="M1226.48 72.2843C1222.5 63.8987 1220.08 59.4332 1218.26 56.6063C1216.69 54.1639 1214.7 52.7402 1213.67 51.4592C1212.11 49.5291 1205.57 45.3938 1196.57 39.9972C1188.72 35.2887 1185.1 33.5459 1181.19 31.1383C1175.41 27.5732 1173.13 26.3333 1170.87 25.0446C1168.89 23.9126 1166.72 23.0717 1164.63 21.9579C1162.48 20.8063 1159.62 19.3059 1155.2 16.9034C1153.7 16.0858 1147.7 12.6386 1139.04 7.75382C1132.15 3.86679 1121.55 -0.0684476 1116.82 -0.852989C1114.55 -1.22816 1111.8 -1.6221 1107.3 -1.8819C1102.61 -2.1523 1097.07 -1.97193 1094.98 -1.20025C1093.86 -0.783841 1093.07 0.255658 1092.47 1.28199C1091.9 2.24278 1091.86 4.70054 1092.29 7.95445C1092.86 12.3091 1096.53 13.2868 1098.61 14.5755C1100.55 15.7773 1102.76 16.5484 1107.86 18.9432C1111.81 20.7931 1122.29 25.9423 1127.45 28.8078C1130.88 30.7086 1136.68 33.5048 1140.88 35.4108C1143.91 36.7885 1145.9 37.9805 1148.5 38.9271C1151.23 39.9219 1153.18 41.2422 1155.52 42.4408C1159.25 44.3516 1162.88 45.3578 1165.57 46.4716C1167.9 47.4374 1170.33 48.7841 1174.4 50.4972C1180.4 53.0288 1182.98 54.7826 1186.87 56.6681C1196.78 61.4667 1199.95 64.0427 1202.56 65.5913C1204.63 66.8175 1207.06 67.8188 1209.41 68.6805C1211.85 69.5798 1214.34 70.3911 1216.6 71.3377C1218.78 72.2515 1221.1 73.1383 1223.79 73.7402C1224.91 73.8277 1225.96 73.9974 1226.73 74C1227 73.8328 1227 73.3235 1227 72.7987" stroke="#81C1FF" stroke-width="5" stroke-linecap="round"/>
<path d="M1192.96 74.0272C1186.34 73.8582 1183.54 73.1772 1180.41 72.0688C1177 70.8649 1165.83 67.064 1158.59 63.8793C1155.98 62.7302 1153.7 61.4012 1151.08 59.7833C1148.41 58.1289 1145.85 56.9673 1143.66 55.6848C1141.34 54.3201 1139.04 53.7213 1136.94 52.5283C1134.76 51.289 1132.76 50.1373 1130.66 49.0288C1128.63 47.9562 1126.47 47.0653 1124.38 46.3817C1123.33 46.0413 1120.38 45.8672 1116.37 46.1206C1112.57 46.3608 1111.29 49.9529 1110.32 52.2569C1109.02 55.3484 1111.97 57.6329 1113.89 59.599C1116.07 61.8345 1119.47 63.951 1121.83 65.2336C1124.2 66.5204 1126.8 67.1971 1129.77 68.0496C1134.43 69.3883 1138.49 70.7811 1141.11 71.4646C1143.74 72.1494 1146.17 72.8291 1148.88 73.5126C1151.26 74.1135 1154.02 74.8771 1156.91 75.4761C1160.1 76.1393 1162.58 76.5871 1164.68 77.0121C1167.44 77.5721 1171.65 78.1231 1174.45 78.5481C1178.6 79.1782 1188 79.1471 1193.3 78.4687C1194.31 78.3402 1194.01 76.5923 1193.75 75.7398C1193.49 75.3942 1192.97 75.2252 1192.44 75.1382C1191.92 75.0511 1191.4 75.0512 1190.86 75.0512" stroke="#81C1FF" stroke-width="5" stroke-linecap="round"/>
<path d="M1126 85.519C1118.74 83.7926 1113.25 80.7079 1108.38 77.3199C1103.29 73.7841 1096.63 66.1915 1093.68 62.4613C1090.77 58.7886 1089.36 55.128 1088.05 52.3465C1087.05 50.209 1085.9 47.8594 1084.77 44.5777C1082.97 39.3151 1081.75 37.3143 1080.36 35.238C1078.98 33.1616 1077.26 31.4352 1075.01 29.0193C1072.33 26.1457 1069.65 24.6955 1066.54 23.7415C1064.17 23.0145 1061.35 22.7876 1058.85 23.2153C1054.73 23.9201 1054.26 28.3038 1053.48 31.583C1051.54 39.6746 1055.8 44.3755 1060.8 53.0801C1064.29 59.1651 1067.38 60.7997 1070.49 64.1592C1075.6 69.6888 1078.62 71.5107 1084.05 74.7043C1090.05 78.2276 1094.16 81.0086 1098.24 82.9216C1101.11 84.2703 1104.89 86.0271 1108.61 87.4165C1110.83 88.2445 1113.02 88.1112 1115.62 88.6271C1117.01 88.9045 1120.1 89.1481 1123.73 88.8915C1124.96 88.6349 1124.96 88.1216 1124.79 87.6006C1124.62 87.0795 1124.28 86.5663 1122.89 85.519" stroke="#81C1FF" stroke-width="5" stroke-linecap="round"/>
<path d="M1138.83 112.27C1135.06 112.27 1131.98 111.928 1129.14 110.893C1126.91 110.079 1123.41 108.999 1119.71 107.961C1115.93 106.9 1113.79 105.199 1111.3 103.993C1108.04 102.413 1101.82 100.209 1097.06 98.8144C1094.13 97.9553 1091.99 97.9526 1081.56 98.0328C1078.02 98.06 1076.55 99.6711 1075.52 100.445C1074.98 100.851 1074.49 101.39 1074.23 102.251C1073.63 104.235 1074.31 106.053 1075.16 107.086C1077.81 110.291 1086.61 114.486 1091.54 116.494C1095.31 118.028 1099.18 118.482 1103.46 119.341C1106.52 119.954 1110.66 120.034 1114.19 120.55C1115.84 120.789 1125.02 121.07 1137.97 120.984C1143.28 120.949 1144.49 120.381 1145.51 119.952C1146.05 119.728 1146.54 119.351 1146.8 118.834C1147.06 118.316 1147.06 117.633 1146.81 117.025C1145.82 114.66 1142.96 114.517 1140.9 113.826C1140.38 113.652 1139.87 113.481 1139.35 113.308C1138.83 113.135 1138.32 112.964 1137.28 112.27" stroke="#81C1FF" stroke-width="5" stroke-linecap="round"/>
<path d="M1246.21 12.646C1245.18 12.646 1237.1 12.3023 1225.33 11.6097C1218.84 11.2281 1215.91 8.31325 1209.25 3.98574C1203.6 0.310474 1199.81 -2.96641 1196.51 -5.31244C1194.45 -6.77733 1191.83 -8.17402 1189.14 -9.7415C1187 -10.9946 1184.22 -12.6838 1181.52 -14.168C1177.54 -16.3636 1174.51 -17.9018 1172.34 -18.597C1171.07 -19.0063 1167.6 -19.1204 1163.27 -18.8626C1161.67 -18.7672 1161.34 -18.0893 1161.17 -16.7067C1160.35 -10.3227 1162.71 -8.19485 1164.62 -5.59105C1166.65 -2.80842 1172.04 1.84541 1177 5.86568C1180.5 8.70876 1187.09 13.1355 1195 17.5802C1199.8 20.2777 1205.15 23.4049 1207.31 24.6183C1209.75 25.9838 1212.24 26.8731 1216.05 29.128C1219.47 31.1511 1222.8 32.0807 1225.5 33.4712C1227.92 34.7197 1230.77 35.2053 1233.64 35.6454C1238.85 36.4458 1247.58 35.7365 1249.84 35.0413C1252.09 34.3475 1254.51 33.3097 1256.51 31.8334C1258.42 30.4157 1258.16 26.3836 1257.56 23.1575C1257.11 20.7491 1255.74 18.9055 1254.53 16.8199C1252.97 14.9061 1251.41 14.0364 1249.77 13.776C1248.65 13.6875 1246.94 13.6875 1244.13 13.1667" stroke="#81C1FF" stroke-width="5" stroke-linecap="round"/>
<path d="M1103.73 153.422C1091.68 147.035 1087.2 145.01 1085.12 144.336C1084.09 144 1082.71 143.828 1081.42 144.245C1080.84 144.432 1080.98 145.495 1081.15 146.174C1081.98 149.459 1084.76 152.907 1086.75 155.935C1089.28 159.813 1092.86 162.168 1097.08 166.031C1099.63 168.369 1103.2 170.58 1110.43 174.362C1116.92 177.757 1120.1 177.821 1126.64 177.998C1128.05 178.036 1128.55 177.498 1128.81 176.743C1129.07 175.988 1129.07 174.822 1128.73 173.888C1127.48 170.452 1123.91 169.419 1121.84 168.071C1119.77 166.723 1117.71 165.38 1115.64 163.612C1113.72 161.981 1111.84 160.502 1109.78 158.732C1107.18 155.952 1106.32 154.604 1105.29 153.849C1104.77 153.427 1104.26 152.928 1103.22 152.413" stroke="#81C1FF" stroke-width="5" stroke-linecap="round"/>
<path d="M1212.24 229.383C1209.16 229.04 1206.88 228.521 1201.3 227.145C1196.45 225.948 1187.33 224.399 1182.39 223.516C1172.57 221.761 1162.24 217.629 1157.82 215.892C1150.37 212.966 1145.97 210.714 1142.14 208.71C1137.28 206.166 1134.02 204.131 1131.23 202.908C1128.88 201.874 1125.7 201.005 1115.51 201C1112.33 200.998 1110.8 202.552 1109.68 203.848C1108.84 204.814 1108.89 206.872 1109.23 209.205C1109.74 212.662 1114.42 214.14 1117.1 215.791C1121.47 218.474 1124.11 220.37 1127.4 222.109C1129.8 223.377 1133.97 225.043 1139.08 226.868C1143.89 228.584 1146.27 229.726 1151.88 231.709C1161.4 235.077 1164.28 235.094 1171.51 235.525C1183.85 236.259 1192.5 235.784 1193.88 236.044C1197.64 236.751 1199.77 236.651 1201.85 237.082C1203.9 237.507 1207.03 237.69 1210.59 238.206C1213.63 238.648 1216.39 239.071 1222.09 238.99C1223.18 238.975 1223.15 238.219 1222.72 237.526C1220.69 234.243 1217.97 233.37 1215.89 231.984C1214.85 231.293 1213.81 230.598 1212.77 229.907C1212.25 229.559 1211.74 229.217 1210.17 228.345" stroke="#81C1FF" stroke-width="5" stroke-linecap="round"/>
<path d="M1110.92 240.614C1098.93 230.373 1091.39 223.562 1088.55 220.21C1082.02 212.528 1077.04 205.816 1072.8 199.863C1070.9 197.19 1069.43 194.081 1066.76 189.279C1062.35 181.341 1059.4 171.867 1057.41 165.319C1055.91 160.35 1054.55 156.672 1053.34 152.961C1052.36 149.951 1050.58 147.01 1048.59 141.851C1047.38 138.722 1045.74 136.32 1044.18 134.856C1043.06 133.8 1041.93 133.382 1040.47 133.124C1038.18 132.72 1036.22 133.377 1035.19 134.065C1032.85 135.621 1031.72 138.715 1030.69 141.815C1029.64 144.945 1029.99 155.017 1030.42 160.957C1030.58 163.067 1032.58 167.481 1034.14 171.213C1035.15 173.636 1036.38 176.294 1038.11 179.056C1039.77 181.695 1040.53 184.746 1043.04 189.305C1045.56 193.911 1048.65 197.831 1053.31 205.739C1055.92 210.171 1060.51 218.043 1063.23 222.514C1066.52 227.913 1069.91 232.814 1074.83 240.301C1078.89 246.487 1084.26 251.79 1088.93 256.357C1092.84 260.188 1102.72 266.091 1107.8 268.196C1111.08 269.557 1115.58 268.889 1116.53 268.374C1118.56 267.277 1118.18 259.978 1117.23 255.191C1116.78 252.877 1115.24 250.968 1114.47 248.897C1113.61 246.616 1113.17 244.244 1111.96 242.173C1111.27 241.141 1110.58 240.102 1109.8 239.155C1109.37 238.721 1108.85 238.379 1108.32 238.028" stroke="#81C1FF" stroke-width="5" stroke-linecap="round"/>
<path d="M1058 125.97C1057.49 124.604 1056.47 119.749 1055.62 116.376C1055 113.916 1054.94 111.441 1054.43 109.19C1053.77 106.273 1053.58 103.828 1051.12 97.6927C1049.8 94.4063 1047.29 91.8845 1045.25 89.714C1043.58 87.9417 1041.17 87.7199 1038.19 87.1124C1037.11 86.8903 1035.57 87.0241 1034.62 87.2811C1033.68 87.5382 1033.34 88.0523 1033.16 88.9169C1032.38 92.8218 1034.51 96.3503 1037.06 99.9074C1039.24 102.94 1041.15 105.188 1042.6 107.268C1043.9 109.133 1044.56 111.42 1045.75 113.5C1046.94 115.582 1047.96 117.651 1048.81 119.731C1049.64 121.753 1050.17 123.883 1051.44 125.791C1053.4 126.832 1055.44 128.213 1057.23 129C1057.49 128.748 1057.49 127.891 1057.49 127.009" stroke="#81C1FF" stroke-width="5" stroke-linecap="round"/>
<path d="M1047.5 76.4333C1043.43 74.8718 1041.73 72.7881 1040.28 70.6104C1038.62 68.1105 1036.3 64.6203 1034.67 61.8185C1033.48 59.7755 1032.55 57.6433 1030.08 49.0499C1029.08 45.5496 1028.8 42.3313 1029.13 33.5578C1029.21 31.4682 1030.65 30.4975 1031.42 29.8787C1032.6 28.9367 1034.4 28.9099 1036.44 29.0822C1039.4 29.3333 1040.7 33.0773 1042.65 36.9027C1043.91 39.3764 1044.27 41.9553 1044.53 44.0469C1044.95 47.517 1045.29 52.4 1045.55 54.4916C1045.83 56.8174 1046.82 59.5338 1047.42 61.8029C1047.95 63.8382 1048.35 65.9782 1049.03 68.0697C1049.71 70.1613 1050.39 72.245 1050.99 74.3365C1051.07 75.3784 1050.74 76.4281 1049.97 77.2976C1049.55 77.6501 1049.04 77.8224 1048.01 78" stroke="#81C1FF" stroke-width="5" stroke-linecap="round"/>
<path d="M1015.39 79.6555C1011.12 80.5714 1008.56 79.7525 1006.16 78.7169C1003.41 77.5282 999.557 75.8705 996.66 74.4136C994.548 73.3513 992.603 72.0731 985.849 66.217C983.098 63.8316 981.109 61.286 976.599 53.7533C975.525 51.9592 976.198 50.3621 976.508 49.4218C976.98 47.9905 978.474 46.9856 980.275 46.0178C982.9 44.6081 986.027 47.0394 989.75 49.18C992.157 50.5642 993.865 52.5299 995.222 54.1419C997.474 56.8164 1000.42 60.7252 1001.78 62.3372C1003.29 64.1297 1005.6 65.8676 1007.33 67.4433C1008.89 68.8566 1010.39 70.4325 1012.11 71.8134C1013.82 73.1944 1015.52 74.5701 1017.17 75.997C1017.81 76.8227 1018.1 77.886 1017.93 79.0309C1017.77 79.5587 1017.44 79.9787 1016.67 80.6899" stroke="#81C1FF" stroke-width="5" stroke-linecap="round"/>
<path d="M1048.26 14C1048.26 10.1132 1046.47 -2.47798 1045.46 -6.96059C1044.79 -9.93301 1043.02 -14.2816 1042.39 -17.1864C1041.84 -19.7084 1041.75 -24.8271 1042.92 -28.3559C1043.66 -30.5933 1048.06 -29.9822 1051.22 -29.729C1054.42 -29.4725 1054.76 -25.3896 1056.11 -21.9836C1057.26 -19.0766 1057.29 -15.8465 1057.56 -13.54C1057.88 -10.8465 1058.91 -8.51275 1059.18 -4.76659C1059.39 -2.00644 1059.99 0.692828 1060 5.71242C1060 8.55934 1057.48 10.4098 1055.31 11.8648C1053.14 12.8033 1051.51 13.4886 1050.43 13.573C1049.89 13.6573 1049.35 13.8261 1048.8 14" stroke="#81C1FF" stroke-width="5" stroke-linecap="round"/>
<path d="M1008.16 33.3703C1006.33 29.9372 998.85 19.6538 995.856 16.1681C993.871 13.8568 990.272 10.8435 988.351 8.57485C986.682 6.60524 984.209 2.12316 983.586 -1.54128C983.191 -3.86473 987.358 -5.38488 990.268 -6.64236C993.215 -7.91658 995.432 -4.47085 998.221 -2.09487C1000.6 -0.0670269 1002.14 2.77468 1003.46 4.68371C1005 6.91305 1007.01 8.49042 1009.01 11.6711C1010.48 14.0146 1012.28 16.1136 1014.64 20.5448C1015.98 23.058 1014.62 25.8753 1013.38 28.1779C1011.91 30.0243 1010.79 31.3918 1009.88 31.9732C1009.44 32.303 1009.04 32.7036 1008.63 33.1163" stroke="#81C1FF" stroke-width="5" stroke-linecap="round"/>
<path d="M1136.21 -18.6844C1129.03 -21.7453 1122.89 -25.1333 1114.26 -29.8064C1099.43 -37.8435 1095.11 -38.0924 1092.36 -38.7822C1089.1 -39.6006 1086.37 -39.9729 1083.45 -40.2309C1081.02 -40.4464 1077.98 -40.9949 1071.3 -41C1069.9 -41.0011 1069.4 -40.4941 1069.06 -40.0674C1067.33 -37.9502 1068.2 -34.5307 1068.36 -33.4269C1069.25 -27.565 1081.19 -26.6969 1084.37 -25.7567C1087.39 -24.8638 1089.77 -24.1419 1095.24 -22.2691C1099.32 -20.8731 1103.97 -18.8683 1107.85 -17.1565C1110.31 -16.0717 1112.9 -14.0955 1115.56 -12.5574C1117.69 -11.3278 1120.77 -9.67022 1123.44 -8.38248C1126.37 -6.96664 1130.2 -6.08296 1132.69 -4.97663C1135.22 -3.85503 1137.75 -3.52793 1140.23 -2.84573C1142.4 -2.24959 1144.77 -1.82117 1146.91 -2.07411C1147.73 -2.17081 1147.86 -2.83296 1147.95 -3.43083C1148.31 -5.89091 1146.67 -7.94302 1145.22 -10.1582C1143.06 -13.4463 1141.19 -15.0971 1139.31 -17.0594C1138.79 -17.4886 1138.28 -17.8259 1137.76 -18.1682C1137.25 -18.5106 1136.74 -18.8479 1135.19 -19.1954" stroke="#81C1FF" stroke-width="5" stroke-linecap="round"/>
</g>
<defs>
<clipPath id="clip0_1746_4215">
<rect width="1200" height="221" fill="white"/>
</clipPath>
</defs>
</svg>
