<svg width="1200" height="221" viewBox="0 0 1200 221" fill="none" xmlns="http://www.w3.org/2000/svg">
<g clip-path="url(#clip0_1745_3302)">
<rect width="1200" height="221" fill="#FFB155"/>
<path d="M1068.08 263.678C1066.85 263.785 1064.03 263.857 1061.13 263.754C1058 263.642 1056.01 264.751 1042.91 270.465C1038 272.607 1036.43 274.61 1035.74 275.477C1034.83 276.621 1033.05 280.603 1031.77 286.566C1031.01 290.104 1033.09 292.014 1034.51 293.323C1036.36 295.028 1038.96 296.043 1041 296.803C1044.91 298.265 1055.28 294.006 1059.43 291.44C1064.49 288.305 1065.75 283.802 1067.61 280.642C1068.99 278.301 1069.91 275.877 1070.56 273.738C1071.12 271.887 1071.57 269.169 1072.22 267.174C1072.69 265.7 1073.23 263.748 1074.07 261.883C1074.87 260.101 1075.2 258.05 1077.83 251.296C1079.17 247.861 1080.84 245.352 1084.79 239.523C1088.42 234.176 1093.89 230.026 1098.72 226.875C1103.38 223.835 1106.72 223.343 1107.61 223.598C1109.52 224.141 1110.73 226.028 1113.32 232.022C1114.61 235.007 1112.38 237.439 1111.22 238.726C1108.34 241.926 1102.47 245.855 1100.97 246.856C1099.27 247.99 1096.18 249.423 1092.52 251.355C1083.3 256.227 1081.79 256.765 1075.33 259.765C1072.84 260.922 1072.1 262.085 1071.65 262.703C1070.76 263.946 1072.7 265.809 1075.13 268.466C1076.73 270.216 1078.73 272.185 1081.45 274.371C1083.08 275.676 1084.43 277.15 1085.84 278.258C1089.12 281.098 1094.29 285.451 1094.92 286.248C1095.22 286.62 1095.49 286.925 1095.78 287.241" stroke="#F2FF63" stroke-width="5" stroke-linecap="round"/>
<path d="M980.264 145.94C979.035 146.047 976.218 146.119 973.322 146.016C970.186 145.904 968.193 147.013 955.094 152.727C950.183 154.87 948.621 156.872 947.93 157.739C947.018 158.883 945.238 162.865 943.959 168.828C943.2 172.367 945.282 174.277 946.697 175.585C948.543 177.291 951.147 178.305 953.184 179.066C957.099 180.527 967.469 176.268 971.616 173.702C976.68 170.567 977.939 166.064 979.797 162.904C981.174 160.563 982.093 158.139 982.743 156C983.305 154.149 983.761 151.431 984.405 149.436C984.88 147.963 985.419 146.011 986.258 144.145C987.059 142.363 987.385 140.312 990.017 133.558C991.356 130.124 993.024 127.614 996.979 121.785C1000.61 116.438 1006.08 112.288 1010.91 109.137C1015.56 106.097 1018.91 105.606 1019.8 105.86C1021.7 106.403 1022.92 108.291 1025.51 114.284C1026.8 117.27 1024.57 119.702 1023.41 120.988C1020.53 124.188 1014.66 128.117 1013.16 129.118C1011.46 130.252 1008.37 131.685 1004.71 133.617C995.484 138.489 993.975 139.027 987.52 142.027C985.029 143.185 984.287 144.347 983.841 144.965C982.944 146.208 984.887 148.071 987.315 150.729C988.913 152.479 990.914 154.447 993.638 156.633C995.265 157.938 996.622 159.412 998.026 160.52C1001.31 163.36 1006.48 167.714 1007.1 168.51C1007.41 168.882 1007.68 169.188 1007.96 169.503" stroke="#F2FF63" stroke-width="5" stroke-linecap="round"/>
<path d="M1093.05 124.935C1091.91 124.457 1089.39 123.211 1086.87 121.773C1084.15 120.215 1081.87 120.269 1067.61 119.234C1062.27 118.846 1059.96 119.892 1058.94 120.338C1057.6 120.927 1054.17 123.624 1050.27 128.307C1047.95 131.087 1048.9 133.746 1049.55 135.562C1050.39 137.931 1052.22 140.041 1053.67 141.661C1056.46 144.776 1067.62 145.83 1072.48 145.487C1078.42 145.068 1081.63 141.667 1084.75 139.734C1087.05 138.302 1089 136.584 1090.57 134.993C1091.92 133.616 1093.59 131.422 1095.09 129.955C1096.2 128.872 1097.58 127.395 1099.19 126.134C1100.73 124.928 1101.97 123.265 1107.44 118.51C1110.23 116.093 1112.87 114.647 1119.08 111.327C1124.78 108.281 1131.55 107.152 1137.29 106.609C1142.83 106.084 1146.02 107.205 1146.69 107.845C1148.13 109.212 1148.32 111.447 1147.83 117.957C1147.58 121.2 1144.48 122.317 1142.85 122.917C1138.81 124.409 1131.79 125.155 1129.99 125.344C1127.97 125.559 1124.56 125.387 1120.42 125.396C1109.99 125.419 1108.4 125.193 1101.29 124.846C1098.55 124.711 1097.35 125.396 1096.67 125.735C1095.3 126.419 1096.15 128.971 1097.06 132.453C1097.67 134.745 1098.52 137.419 1099.92 140.621C1100.75 142.533 1101.26 144.469 1101.99 146.103C1103.57 150.143 1106.13 156.402 1106.31 157.399C1106.41 157.87 1106.51 158.267 1106.61 158.677" stroke="#F2FF63" stroke-width="5" stroke-linecap="round"/>
<path d="M1140.22 -29.0628C1139.08 -29.5403 1136.55 -30.7866 1134.03 -32.2249C1131.31 -33.7826 1129.03 -33.7285 1114.78 -34.7632C1109.43 -35.1512 1107.12 -34.1051 1106.1 -33.6592C1104.76 -33.0707 1101.34 -30.3736 1097.43 -25.6901C1095.11 -22.9107 1096.07 -20.2517 1096.71 -18.4352C1097.55 -16.0666 1099.38 -13.957 1100.83 -12.3366C1103.62 -9.22195 1114.78 -8.16772 1119.65 -8.51077C1125.59 -8.92977 1128.8 -12.3301 1131.91 -14.2634C1134.22 -15.6953 1136.16 -17.4135 1137.73 -19.0046C1139.09 -20.3813 1140.76 -22.5758 1142.25 -24.0425C1143.36 -25.1257 1144.75 -26.6028 1146.36 -27.8639C1147.89 -29.0691 1149.14 -30.7329 1154.61 -35.4871C1157.39 -37.9049 1160.04 -39.3504 1166.25 -42.6707C1171.95 -45.7164 1178.72 -46.8454 1184.46 -47.389C1190 -47.9134 1193.19 -46.793 1193.86 -46.1524C1195.29 -44.7857 1195.49 -42.5502 1194.99 -36.0405C1194.74 -32.7979 1191.64 -31.6807 1190.02 -31.0806C1185.98 -29.5881 1178.95 -28.8427 1177.16 -28.6534C1175.13 -28.439 1171.72 -28.6104 1167.58 -28.6015C1157.15 -28.5791 1155.57 -28.8044 1148.46 -29.152C1145.71 -29.2862 1144.52 -28.6021 1143.84 -28.2625C1142.46 -27.579 1143.32 -25.0265 1144.23 -21.5445C1144.83 -19.2521 1145.69 -16.5788 1147.08 -13.3769C1147.91 -11.4643 1148.43 -9.52848 1149.16 -7.8947C1150.74 -3.85496 1153.29 2.40453 1153.48 3.40174C1153.57 3.87203 1153.67 4.2697 1153.77 4.67943" stroke="#F2FF63" stroke-width="5" stroke-linecap="round"/>
<path d="M1167.51 231.261C1164.93 231.232 1162.08 231.307 1159.12 231.58C1156.35 231.836 1151.08 234.034 1144.37 237.426C1137.23 241.032 1137.27 244.722 1135.69 248.558C1134.81 250.703 1135.28 252.472 1135.85 255.452C1136.56 259.154 1138.69 260.053 1140.54 261.34C1142.59 262.766 1145.44 261.743 1150.86 259.196C1157.04 256.294 1157.26 253.493 1158.39 251.933C1159.73 250.075 1160.92 248.33 1162.1 245.736C1163.18 243.367 1164.62 241.566 1165.61 239.699C1167.16 236.775 1168.2 233.555 1168.99 231.56C1169.92 229.224 1172.25 227.637 1173.97 225.608C1175.79 223.447 1178.06 220.11 1179.28 218.433C1180.56 216.665 1181.75 215.353 1186.66 211.301C1189.97 208.574 1193.02 208.48 1193.92 208.737C1195.73 209.255 1196.9 210.822 1198.18 213.784C1199.1 215.9 1196.9 219.433 1195.41 221.666C1193.5 224.534 1191.75 225.831 1189.9 227.206C1188.07 228.563 1186.16 229.534 1183.76 230.787C1179.38 233.072 1173.19 235.422 1171.52 235.564C1170.69 235.635 1169.86 235.707 1169.46 235.948C1167.52 237.117 1173.32 239.088 1174.86 240.506C1176.28 241.807 1177.8 243.475 1179.54 245.022C1182.8 247.919 1184.67 250.422 1185.97 252.094C1187.11 253.401 1188.22 254.643 1189.27 255.915C1189.49 256.253 1189.64 256.613 1190.32 257.191" stroke="#F2FF63" stroke-width="5" stroke-linecap="round"/>
<path d="M1026.26 195.841C1023.68 195.812 1020.83 195.886 1017.87 196.16C1015.1 196.415 1009.83 198.613 1003.12 202.006C995.983 205.611 996.018 209.301 994.44 213.138C993.558 215.283 994.033 217.052 994.603 220.032C995.311 223.734 997.44 224.632 999.288 225.919C1001.34 227.346 1004.19 226.323 1009.61 223.776C1015.79 220.874 1016.01 218.073 1017.14 216.513C1018.48 214.654 1019.67 212.909 1020.85 210.316C1021.93 207.947 1023.37 206.145 1024.36 204.278C1025.91 201.355 1026.95 198.135 1027.74 196.139C1028.67 193.804 1031 192.217 1032.72 190.188C1034.54 188.027 1036.81 184.69 1038.03 183.013C1039.31 181.244 1040.5 179.933 1045.41 175.881C1048.72 173.154 1051.77 173.06 1052.67 173.317C1054.48 173.835 1055.65 175.402 1056.93 178.363C1057.85 180.48 1055.65 184.012 1054.16 186.246C1052.25 189.114 1050.5 190.41 1048.65 191.786C1046.82 193.143 1044.91 194.114 1042.51 195.367C1038.13 197.652 1031.94 200.001 1030.27 200.144C1029.44 200.215 1028.61 200.286 1028.21 200.528C1026.27 201.696 1032.07 203.667 1033.61 205.085C1035.03 206.387 1036.55 208.054 1038.29 209.602C1041.55 212.499 1043.42 215.002 1044.72 216.673C1045.86 217.981 1046.97 219.223 1048.02 220.495C1048.24 220.833 1048.39 221.193 1049.07 221.77" stroke="#F2FF63" stroke-width="5" stroke-linecap="round"/>
<path d="M1184.05 46.2869C1181.48 46.2582 1178.63 46.3326 1175.67 46.6061C1172.9 46.8616 1167.63 49.0597 1160.91 52.4523C1153.78 56.0575 1153.81 59.7475 1152.24 63.5842C1151.36 65.7289 1151.83 67.4979 1152.4 70.4779C1153.11 74.18 1155.24 75.0786 1157.08 76.3655C1159.13 77.792 1161.99 76.7691 1167.41 74.2223C1173.59 71.3199 1173.81 68.5189 1174.93 66.959C1176.27 65.1008 1177.47 63.3555 1178.65 60.7619C1179.73 58.3928 1181.16 56.5916 1182.15 54.7246C1183.71 51.8013 1184.75 48.5809 1185.54 46.5855C1186.46 44.2499 1188.8 42.6632 1190.51 40.634C1192.34 38.4732 1194.6 35.136 1195.82 33.4592C1197.11 31.6907 1198.3 30.3788 1203.21 26.3274C1206.51 23.5999 1209.56 23.5063 1210.46 23.7628C1212.28 24.2809 1213.45 25.8479 1214.73 28.8096C1215.64 30.926 1213.44 34.4586 1211.96 36.692C1210.05 39.5599 1208.3 40.8568 1206.45 42.2318C1204.62 43.5888 1202.71 44.5603 1200.31 45.8131C1195.93 48.0983 1189.73 50.4477 1188.07 50.5901C1187.24 50.6611 1186.41 50.7325 1186.01 50.974C1184.07 52.1427 1189.87 54.1137 1191.41 55.5314C1192.83 56.8332 1194.34 58.5007 1196.09 60.0484C1199.35 62.9452 1201.22 65.4481 1202.51 67.1194C1203.65 68.4273 1204.76 69.6688 1205.81 70.9408C1206.03 71.2793 1206.19 71.6391 1206.87 72.2164" stroke="#F2FF63" stroke-width="5" stroke-linecap="round"/>
<path d="M957.218 70.0159C954.646 69.9872 951.795 70.0616 948.832 70.3351C946.065 70.5906 940.793 72.7887 934.079 76.1813C926.944 79.7865 926.979 83.4765 925.401 87.3132C924.519 89.4579 924.994 91.2269 925.564 94.2069C926.271 97.909 928.401 98.8076 930.249 100.094C932.297 101.521 935.154 100.498 940.576 97.9513C946.755 95.0489 946.972 92.2479 948.097 90.688C949.436 88.8298 950.632 87.0845 951.815 84.4909C952.896 82.1218 954.326 80.3206 955.318 78.4536C956.872 75.5303 957.914 72.3099 958.704 70.3145C959.629 67.9789 961.964 66.3922 963.677 64.363C965.501 62.2022 967.768 58.865 968.988 57.1882C970.276 55.4197 971.465 54.1078 976.374 50.0564C979.679 47.3289 982.727 47.2353 983.626 47.4918C985.442 48.0099 986.611 49.5769 987.892 52.5386C988.808 54.655 986.609 58.1876 985.122 60.421C983.213 63.2889 981.465 64.5858 979.61 65.9608C977.779 67.3178 975.874 68.2893 973.473 69.5421C969.093 71.8273 962.899 74.1768 961.234 74.3191C960.405 74.3901 959.57 74.4615 959.17 74.703C957.233 75.8717 963.031 77.8427 964.576 79.2604C965.994 80.5622 967.509 82.2297 969.251 83.7774C972.512 86.6742 974.383 89.1771 975.678 90.8484C976.818 92.1563 977.926 93.3978 978.979 94.6698C979.198 95.0084 979.353 95.3681 980.033 95.9454" stroke="#F2FF63" stroke-width="5" stroke-linecap="round"/>
<path d="M876.98 126.705C874.995 126.682 872.796 126.74 870.51 126.951C868.375 127.148 864.308 128.844 859.128 131.461C853.624 134.243 853.65 137.089 852.433 140.049C851.753 141.704 852.119 143.069 852.559 145.368C853.105 148.224 854.748 148.917 856.173 149.91C857.753 151.011 859.958 150.221 864.141 148.257C868.908 146.017 869.075 143.857 869.943 142.653C870.976 141.219 871.899 139.873 872.812 137.872C873.645 136.044 874.749 134.655 875.514 133.214C876.713 130.959 877.517 128.474 878.126 126.935C878.84 125.133 880.641 123.909 881.963 122.343C883.37 120.676 885.119 118.102 886.061 116.808C887.054 115.444 887.972 114.431 891.759 111.306C894.308 109.202 896.66 109.129 897.354 109.327C898.755 109.727 899.656 110.936 900.645 113.221C901.351 114.854 899.655 117.579 898.508 119.302C897.035 121.515 895.686 122.515 894.255 123.576C892.843 124.623 891.373 125.372 889.52 126.339C886.142 128.102 881.363 129.915 880.078 130.024C879.439 130.079 878.794 130.134 878.486 130.321C876.992 131.222 881.465 132.743 882.656 133.837C883.75 134.841 884.919 136.127 886.263 137.321C888.78 139.556 890.222 141.487 891.222 142.777C892.101 143.786 892.956 144.744 893.768 145.725C893.937 145.986 894.057 146.264 894.582 146.709" stroke="#F2FF63" stroke-width="5" stroke-linecap="round"/>
<path d="M1031.2 1.05785C1028.63 1.02921 1025.78 1.10355 1022.82 1.37713C1020.05 1.63258 1014.78 3.83067 1008.06 7.22332C1000.93 10.8285 1000.96 14.5184 999.386 18.3552C998.504 20.4999 998.979 22.2689 999.548 25.2488C1000.26 28.951 1002.39 29.8496 1004.23 31.1365C1006.28 32.563 1009.14 31.5401 1014.56 28.9933C1020.74 26.0909 1020.96 23.2899 1022.08 21.73C1023.42 19.8718 1024.62 18.1265 1025.8 15.5329C1026.88 13.1638 1028.31 11.3626 1029.3 9.49557C1030.86 6.57226 1031.9 3.35189 1032.69 1.35647C1033.61 -0.979144 1035.95 -2.56585 1037.66 -4.59499C1039.49 -6.75576 1041.75 -10.093 1042.97 -11.7698C1044.26 -13.5383 1045.45 -14.8502 1050.36 -18.9016C1053.66 -21.6291 1056.71 -21.7227 1057.61 -21.4662C1059.43 -20.9481 1060.6 -19.3811 1061.88 -16.4194C1062.79 -14.303 1060.59 -10.7704 1059.11 -8.53703C1057.2 -5.66915 1055.45 -4.37223 1053.59 -2.9972C1051.76 -1.64017 1049.86 -0.668732 1047.46 0.584093C1043.08 2.86927 1036.88 5.21874 1035.22 5.36114C1034.39 5.43206 1033.55 5.50353 1033.15 5.74498C1031.22 6.91371 1037.02 8.88471 1038.56 10.3024C1039.98 11.6042 1041.49 13.2717 1043.24 14.8194C1046.5 17.7162 1048.37 20.2191 1049.66 21.8904C1050.8 23.1983 1051.91 24.4398 1052.96 25.7118C1053.18 26.0503 1053.34 26.4101 1054.02 26.9874" stroke="#F2FF63" stroke-width="5" stroke-linecap="round"/>
<path d="M924.007 10.2273C921.435 10.1986 918.584 10.273 915.621 10.5466C912.854 10.802 907.582 13.0001 900.868 16.3927C893.733 19.9979 893.768 23.6879 892.19 27.5247C891.308 29.6693 891.783 31.4384 892.353 34.4183C893.061 38.1204 895.19 39.019 897.038 40.3059C899.086 41.7324 901.943 40.7095 907.365 38.1627C913.544 35.2604 913.761 32.4594 914.886 30.8994C916.225 29.0412 917.421 27.2959 918.604 24.7023C919.685 22.3332 921.115 20.532 922.107 18.665C923.661 15.7417 924.703 12.5213 925.493 10.5259C926.418 8.19029 928.753 6.60359 930.466 4.57444C932.29 2.41368 934.557 -0.923551 935.777 -2.60037C937.065 -4.36886 938.254 -5.68078 943.163 -9.7322C946.468 -12.4597 949.516 -12.5533 950.415 -12.2968C952.231 -11.7787 953.4 -10.2117 954.681 -7.24996C955.597 -5.13353 953.398 -1.60096 951.911 0.632408C950.002 3.50029 948.254 4.79721 946.399 6.17223C944.568 7.52926 942.663 8.5007 940.262 9.75353C935.882 12.0387 929.688 14.3882 928.023 14.5306C927.194 14.6015 926.359 14.673 925.959 14.9144C924.022 16.0831 929.821 18.0541 931.365 19.4718C932.783 20.7736 934.298 22.4411 936.04 23.9888C939.302 26.8856 941.172 29.3886 942.467 31.0598C943.607 32.3678 944.715 33.6092 945.768 34.8812C945.987 35.2198 946.142 35.5795 946.822 36.1569" stroke="#F2FF63" stroke-width="5" stroke-linecap="round"/>
<path d="M845.637 71.1953C843.134 70.6055 840.335 70.0553 837.384 69.675C834.628 69.3199 829.003 70.3132 821.71 72.1573C813.96 74.1169 813.188 77.7253 810.811 81.1248C809.482 83.025 809.559 84.8551 809.464 87.8875C809.345 91.6548 811.227 92.9969 812.749 94.6563C814.436 96.4957 817.448 96.1217 823.295 94.8208C829.959 93.3383 830.783 90.6524 832.221 89.3758C833.934 87.855 835.483 86.4132 837.203 84.1407C838.775 82.0648 840.565 80.6196 841.941 79.0144C844.095 76.5009 845.816 73.586 847.022 71.8114C848.435 69.7342 851.061 68.6959 853.175 67.0899C855.427 65.3798 858.369 62.6184 859.926 61.2487C861.568 59.8041 863.016 58.7837 868.691 55.9025C872.512 53.9627 875.507 54.5373 876.328 54.984C877.987 55.8862 878.785 57.6707 879.389 60.8408C879.82 63.1062 876.903 66.0731 874.964 67.9277C872.474 70.3093 870.485 71.193 868.374 72.1296C866.292 73.054 864.22 73.5857 861.603 74.2838C856.831 75.5572 850.272 76.4967 848.617 76.2721C847.792 76.1602 846.962 76.0474 846.518 76.1956C844.373 76.9131 849.601 80.1031 850.798 81.8239C851.898 83.404 853.012 85.3622 854.374 87.2531C856.924 90.7924 858.202 93.6434 859.102 95.5574C859.928 97.0826 860.738 98.5362 861.487 100.007C861.627 100.386 861.7 100.771 862.237 101.483" stroke="#F2FF63" stroke-width="5" stroke-linecap="round"/>
<path d="M826.286 5.59569C823.782 5.0059 820.984 4.45568 818.032 4.07538C815.277 3.72029 809.652 4.71359 802.359 6.55767C794.609 8.51727 793.837 12.1257 791.459 15.5252C790.13 17.4254 790.207 19.2555 790.112 22.2879C789.994 26.0552 791.876 27.3972 793.397 29.0566C795.084 30.8961 798.096 30.5221 803.944 29.2212C810.607 27.7387 811.431 25.0528 812.869 23.7761C814.582 22.2554 816.131 20.8136 817.852 18.5411C819.424 16.4652 821.213 15.02 822.589 13.4148C824.743 10.9013 826.464 7.98639 827.671 6.21174C829.083 4.13455 831.709 3.09632 833.824 1.49033C836.076 -0.219836 839.017 -2.9812 840.574 -4.35091C842.217 -5.79551 843.664 -6.81587 849.34 -9.69715C853.16 -11.6369 856.155 -11.0623 856.977 -10.6156C858.636 -9.71339 859.434 -7.92889 860.037 -4.75879C860.469 -2.49346 857.551 0.473475 855.612 2.32811C853.123 4.70966 851.133 5.59334 849.023 6.53C846.94 7.45439 844.868 7.98608 842.252 8.68418C837.479 9.95755 830.921 10.8971 829.265 10.6724C828.441 10.5605 827.61 10.4478 827.167 10.596C825.022 11.3135 830.249 14.5035 831.447 16.2243C832.546 17.8044 833.66 19.7625 835.022 21.6535C837.572 25.1928 838.85 28.0438 839.75 29.9578C840.576 31.483 841.386 32.9366 842.136 34.4078C842.276 34.7861 842.349 35.171 842.886 35.8829" stroke="#F2FF63" stroke-width="5" stroke-linecap="round"/>
<path d="M728.286 3.59569C725.782 3.0059 722.984 2.45568 720.032 2.07538C717.277 1.72029 711.652 2.71359 704.359 4.55767C696.609 6.51727 695.837 10.1257 693.459 13.5252C692.13 15.4254 692.207 17.2555 692.112 20.2879C691.994 24.0552 693.876 25.3972 695.397 27.0566C697.084 28.8961 700.096 28.5221 705.944 27.2212C712.607 25.7387 713.431 23.0528 714.869 21.7761C716.582 20.2554 718.131 18.8136 719.852 16.5411C721.424 14.4652 723.213 13.02 724.589 11.4148C726.743 8.90132 728.464 5.98639 729.671 4.21174C731.083 2.13455 733.709 1.09632 735.824 -0.509673C738.076 -2.21984 741.017 -4.9812 742.574 -6.35091C744.217 -7.79551 745.664 -8.81587 751.34 -11.6971C755.16 -13.6369 758.155 -13.0623 758.977 -12.6156C760.636 -11.7134 761.434 -9.92889 762.037 -6.75879C762.469 -4.49346 759.551 -1.52653 757.612 0.328114C755.123 2.70966 753.133 3.59334 751.023 4.53C748.94 5.45439 746.868 5.98608 744.252 6.68418C739.479 7.95755 732.921 8.89709 731.265 8.67245C730.441 8.56055 729.61 8.44781 729.167 8.59603C727.022 9.31351 732.249 12.5035 733.447 14.2243C734.546 15.8044 735.66 17.7625 737.022 19.6535C739.572 23.1928 740.85 26.0438 741.75 27.9578C742.576 29.483 743.386 30.9366 744.136 32.4078C744.276 32.7861 744.349 33.171 744.886 33.8829" stroke="#F2FF63" stroke-width="5" stroke-linecap="round"/>
<path d="M745.286 78.5957C742.782 78.0059 739.984 77.4557 737.032 77.0754C734.277 76.7203 728.652 77.7136 721.359 79.5577C713.609 81.5173 712.837 85.1257 710.459 88.5252C709.13 90.4254 709.207 92.2555 709.112 95.2879C708.994 99.0552 710.876 100.397 712.397 102.057C714.084 103.896 717.096 103.522 722.944 102.221C729.607 100.739 730.431 98.0528 731.869 96.7761C733.582 95.2554 735.131 93.8136 736.852 91.5411C738.424 89.4652 740.213 88.02 741.589 86.4148C743.743 83.9013 745.464 80.9864 746.671 79.2117C748.083 77.1346 750.709 76.0963 752.824 74.4903C755.076 72.7802 758.017 70.0188 759.574 68.6491C761.217 67.2045 762.664 66.1841 768.34 63.3029C772.16 61.3631 775.155 61.9377 775.977 62.3844C777.636 63.2866 778.434 65.0711 779.037 68.2412C779.469 70.5065 776.551 73.4735 774.612 75.3281C772.123 77.7097 770.133 78.5933 768.023 79.53C765.94 80.4544 763.868 80.9861 761.252 81.6842C756.479 82.9575 749.921 83.8971 748.265 83.6724C747.441 83.5605 746.61 83.4478 746.167 83.596C744.022 84.3135 749.249 87.5035 750.447 89.2243C751.546 90.8044 752.66 92.7625 754.022 94.6535C756.572 98.1928 757.85 101.044 758.75 102.958C759.576 104.483 760.386 105.937 761.136 107.408C761.276 107.786 761.349 108.171 761.886 108.883" stroke="#F2FF63" stroke-width="5" stroke-linecap="round"/>
<path d="M801.286 137.596C798.782 137.006 795.984 136.456 793.032 136.075C790.277 135.72 784.652 136.714 777.359 138.558C769.609 140.517 768.837 144.126 766.459 147.525C765.13 149.425 765.207 151.256 765.112 154.288C764.994 158.055 766.876 159.397 768.397 161.057C770.084 162.896 773.096 162.522 778.944 161.221C785.607 159.739 786.431 157.053 787.869 155.776C789.582 154.255 791.131 152.814 792.852 150.541C794.424 148.465 796.213 147.02 797.589 145.415C799.743 142.901 801.464 139.986 802.671 138.212C804.083 136.135 806.709 135.096 808.824 133.49C811.076 131.78 814.017 129.019 815.574 127.649C817.217 126.204 818.664 125.184 824.34 122.303C828.16 120.363 831.155 120.938 831.977 121.384C833.636 122.287 834.434 124.071 835.037 127.241C835.469 129.507 832.551 132.473 830.612 134.328C828.123 136.71 826.133 137.593 824.023 138.53C821.94 139.454 819.868 139.986 817.252 140.684C812.479 141.958 805.921 142.897 804.265 142.672C803.441 142.561 802.61 142.448 802.167 142.596C800.022 143.314 805.249 146.504 806.447 148.224C807.546 149.804 808.66 151.763 810.022 153.653C812.572 157.193 813.85 160.044 814.75 161.958C815.576 163.483 816.386 164.937 817.136 166.408C817.276 166.786 817.349 167.171 817.886 167.883" stroke="#F2FF63" stroke-width="5" stroke-linecap="round"/>
<path d="M616.286 -1.40431C613.782 -1.9941 610.984 -2.54432 608.032 -2.92462C605.277 -3.27971 599.652 -2.28641 592.359 -0.442332C584.609 1.51727 583.837 5.12571 581.459 8.5252C580.13 10.4254 580.207 12.2555 580.112 15.2879C579.994 19.0552 581.876 20.3972 583.397 22.0566C585.084 23.8961 588.096 23.5221 593.944 22.2212C600.607 20.7387 601.431 18.0528 602.869 16.7761C604.582 15.2554 606.131 13.8136 607.852 11.5411C609.424 9.46519 611.213 8.01998 612.589 6.41475C614.743 3.90132 616.464 0.986389 617.671 -0.788255C619.083 -2.86545 621.709 -3.90368 623.824 -5.50967C626.076 -7.21984 629.017 -9.9812 630.574 -11.3509C632.217 -12.7955 633.664 -13.8159 639.34 -16.6971C643.16 -18.6369 646.155 -18.0623 646.977 -17.6156C648.636 -16.7134 649.434 -14.9289 650.037 -11.7588C650.469 -9.49346 647.551 -6.52653 645.612 -4.67189C643.123 -2.29034 641.133 -1.40666 639.023 -0.470002C636.94 0.454388 634.868 0.986076 632.252 1.68418C627.479 2.95755 620.921 3.89709 619.265 3.67245C618.441 3.56055 617.61 3.44781 617.167 3.59603C615.022 4.31351 620.249 7.50352 621.447 9.22431C622.546 10.8044 623.66 12.7625 625.022 14.6535C627.572 18.1928 628.85 21.0438 629.75 22.9578C630.576 24.483 631.386 25.9366 632.136 27.4078C632.276 27.7861 632.349 28.171 632.886 28.8829" stroke="#F2FF63" stroke-width="5" stroke-linecap="round"/>
<path d="M867.286 181.596C864.782 181.006 861.984 180.456 859.032 180.075C856.277 179.72 850.652 180.714 843.359 182.558C835.609 184.517 834.837 188.126 832.459 191.525C831.13 193.425 831.207 195.256 831.112 198.288C830.994 202.055 832.876 203.397 834.397 205.057C836.084 206.896 839.096 206.522 844.944 205.221C851.607 203.739 852.431 201.053 853.869 199.776C855.582 198.255 857.131 196.814 858.852 194.541C860.424 192.465 862.213 191.02 863.589 189.415C865.743 186.901 867.464 183.986 868.671 182.212C870.083 180.135 872.709 179.096 874.824 177.49C877.076 175.78 880.017 173.019 881.574 171.649C883.217 170.204 884.664 169.184 890.34 166.303C894.16 164.363 897.155 164.938 897.977 165.384C899.636 166.287 900.434 168.071 901.037 171.241C901.469 173.507 898.551 176.473 896.612 178.328C894.123 180.71 892.133 181.593 890.023 182.53C887.94 183.454 885.868 183.986 883.252 184.684C878.479 185.958 871.921 186.897 870.265 186.672C869.441 186.561 868.61 186.448 868.167 186.596C866.022 187.314 871.249 190.504 872.447 192.224C873.546 193.804 874.66 195.763 876.022 197.653C878.572 201.193 879.85 204.044 880.75 205.958C881.576 207.483 882.386 208.937 883.136 210.408C883.276 210.786 883.349 211.171 883.886 211.883" stroke="#F2FF63" stroke-width="5" stroke-linecap="round"/>
<path d="M826.286 5.59569C823.782 5.0059 820.984 4.45568 818.032 4.07538C815.277 3.72029 809.652 4.71359 802.359 6.55767C794.609 8.51727 793.837 12.1257 791.459 15.5252C790.13 17.4254 790.207 19.2555 790.112 22.2879C789.994 26.0552 791.876 27.3972 793.397 29.0566C795.084 30.8961 798.096 30.5221 803.944 29.2212C810.607 27.7387 811.431 25.0528 812.869 23.7761C814.582 22.2554 816.131 20.8136 817.852 18.5411C819.424 16.4652 821.213 15.02 822.589 13.4148C824.743 10.9013 826.464 7.98639 827.671 6.21174C829.083 4.13455 831.709 3.09632 833.824 1.49033C836.076 -0.219836 839.017 -2.9812 840.574 -4.35091C842.217 -5.79551 843.664 -6.81587 849.34 -9.69715C853.16 -11.6369 856.155 -11.0623 856.977 -10.6156C858.636 -9.71339 859.434 -7.92889 860.037 -4.75879C860.469 -2.49346 857.551 0.473475 855.612 2.32811C853.123 4.70966 851.133 5.59334 849.023 6.53C846.94 7.45439 844.868 7.98608 842.252 8.68418C837.479 9.95755 830.921 10.8971 829.265 10.6724C828.441 10.5605 827.61 10.4478 827.167 10.596C825.022 11.3135 830.249 14.5035 831.447 16.2243C832.546 17.8044 833.66 19.7625 835.022 21.6535C837.572 25.1928 838.85 28.0438 839.75 29.9578C840.576 31.483 841.386 32.9366 842.136 34.4078C842.276 34.7861 842.349 35.171 842.886 35.8829" stroke="#F2FF63" stroke-width="5" stroke-linecap="round"/>
<path d="M1067.94 51.8987C1065.36 51.87 1062.51 51.9444 1059.55 52.218C1056.78 52.4734 1051.51 54.6715 1044.8 58.0641C1037.66 61.6693 1037.7 65.3593 1036.12 69.196C1035.24 71.3407 1035.71 73.1097 1036.28 76.0897C1036.99 79.7918 1039.12 80.6904 1040.97 81.9773C1043.02 83.4038 1045.87 82.3809 1051.29 79.8341C1057.47 76.9318 1057.69 74.1307 1058.82 72.5708C1060.15 70.7126 1061.35 68.9673 1062.53 66.3737C1063.61 64.0046 1065.05 62.2034 1066.04 60.3364C1067.59 57.4131 1068.63 54.1927 1069.42 52.1973C1070.35 49.8617 1072.68 48.275 1074.4 46.2458C1076.22 44.0851 1078.49 40.7478 1079.71 39.071C1080.99 37.3025 1082.18 35.9906 1087.09 31.9392C1090.4 29.2117 1093.45 29.1181 1094.34 29.3746C1096.16 29.8927 1097.33 31.4597 1098.61 34.4214C1099.53 36.5379 1097.33 40.0704 1095.84 42.3038C1093.93 45.1717 1092.18 46.4686 1090.33 47.8436C1088.5 49.2006 1086.59 50.1721 1084.19 51.4249C1079.81 53.7101 1073.62 56.0596 1071.95 56.202C1071.12 56.2729 1070.29 56.3443 1069.89 56.5858C1067.95 57.7545 1073.75 59.7255 1075.29 61.1432C1076.71 62.445 1078.23 64.1125 1079.97 65.6602C1083.23 68.557 1085.1 71.06 1086.4 72.7312C1087.54 74.0391 1088.64 75.2806 1089.7 76.5526C1089.92 76.8912 1090.07 77.2509 1090.75 77.8282" stroke="#F2FF63" stroke-width="5" stroke-linecap="round"/>
<path d="M1153.08 163.393C1150.5 163.365 1147.65 163.439 1144.69 163.713C1141.92 163.968 1136.65 166.166 1129.94 169.559C1122.8 173.164 1122.84 176.854 1121.26 180.691C1120.38 182.835 1120.85 184.604 1121.42 187.584C1122.13 191.286 1124.26 192.185 1126.11 193.472C1128.16 194.898 1131.01 193.876 1136.44 191.329C1142.61 188.426 1142.83 185.625 1143.96 184.065C1145.3 182.207 1146.49 180.462 1147.67 177.868C1148.76 175.499 1150.19 173.698 1151.18 171.831C1152.73 168.908 1153.77 165.687 1154.56 163.692C1155.49 161.356 1157.82 159.77 1159.54 157.74C1161.36 155.58 1163.63 152.242 1164.85 150.566C1166.13 148.797 1167.32 147.485 1172.23 143.434C1175.54 140.706 1178.59 140.613 1179.49 140.869C1181.3 141.387 1182.47 142.954 1183.75 145.916C1184.67 148.032 1182.47 151.565 1180.98 153.798C1179.07 156.666 1177.32 157.963 1175.47 159.338C1173.64 160.695 1171.73 161.667 1169.33 162.92C1164.95 165.205 1158.76 167.554 1157.09 167.697C1156.26 167.768 1155.43 167.839 1155.03 168.08C1153.09 169.249 1158.89 171.22 1160.44 172.638C1161.85 173.94 1163.37 175.607 1165.11 177.155C1168.37 180.052 1170.24 182.555 1171.54 184.226C1172.68 185.534 1173.79 186.775 1174.84 188.047C1175.06 188.386 1175.21 188.746 1175.89 189.323" stroke="#F2FF63" stroke-width="5" stroke-linecap="round"/>
</g>
<defs>
<clipPath id="clip0_1745_3302">
<rect width="1200" height="221" fill="white"/>
</clipPath>
</defs>
</svg>
