<svg width="32" height="40" viewBox="0 0 32 40" fill="none" xmlns="http://www.w3.org/2000/svg">
<path d="M4.88672 9.48733C4.88672 9.47187 4.88672 9.45641 6.9158 13.2012C8.94488 16.9461 13.003 24.4517 15.198 28.5774C17.3929 32.7031 17.6016 33.2216 17.9104 34.2682" stroke="currentColor" stroke-width="2" stroke-linecap="round"/>
<path d="M5.48928 10.9729C6.09421 11.1836 7.74277 12.1018 11.3364 13.9596C14.4801 15.5849 20.4233 18.359 24.0688 20.0188C28.8595 22.2001 30.6753 22.5876 30.3093 22.7743C29.5087 23.1828 27.0829 22.9529 22.4857 23.8091C17.8885 24.6654 11.0971 26.2889 6.55429 27.561C2.01153 28.8332 -0.0767399 29.7048 1.54624 26.9835C3.16922 24.2622 8.56673 17.9216 12.238 13.2694C17.9441 6.03876 19.8161 2.30327 20.2227 1.64614C20.6433 0.966398 19.2387 7.58969 17.6878 16.2605C16.1922 24.6221 16.8682 29.776 17.1785 31.4227C17.6927 33.2042 18.0798 34.5231 18.3546 35.4719C18.5589 36.0481 18.8947 36.8168 19.51 38.0994" stroke="currentColor" stroke-width="2" stroke-linecap="round"/>
</svg>
