<?xml version="1.0" encoding="UTF-8"?>
<svg id="Layer_1" xmlns="http://www.w3.org/2000/svg" xmlns:xlink="http://www.w3.org/1999/xlink" version="1.1" viewBox="0 0 1200 349">
  <!-- Generator: Adobe Illustrator 29.7.1, SVG Export Plug-In . SVG Version: 2.1.1 Build 8)  -->
  <defs>
    <style>
      .st0, .st1, .st2, .st3, .st4, .st5, .st6, .st7, .st8, .st9, .st10, .st11, .st12 {
        fill: none;
      }

      .st1 {
        stroke: #fd5d36;
      }

      .st1, .st2, .st4, .st5, .st6, .st7, .st8, .st9, .st10, .st11, .st12 {
        stroke-width: 3px;
      }

      .st1, .st2, .st5, .st7, .st8, .st10, .st12 {
        stroke-linecap: round;
      }

      .st13 {
        fill: #e6b2e4;
      }

      .st2 {
        stroke: #fff2ea;
      }

      .st3 {
        stroke-width: 21px;
      }

      .st3, .st4 {
        stroke: #26417b;
      }

      .st5 {
        stroke: #e6b2e4;
      }

      .st6 {
        stroke: #fffefc;
      }

      .st14 {
        fill: #28232c;
      }

      .st7 {
        stroke: #f2ff63;
      }

      .st8 {
        stroke: #81c1ff;
      }

      .st9, .st10 {
        stroke: #5fe5ad;
      }

      .st15 {
        clip-path: url(#clippath);
      }

      .st11, .st12 {
        stroke: #ffb155;
      }
    </style>
    <clipPath id="clippath">
      <rect class="st0" width="1200" height="349" rx="12" ry="12"/>
    </clipPath>
  </defs>
  <g class="st15">
    <g>
      <rect class="st14" width="1200" height="349" rx="12" ry="12"/>
      <path class="st3" d="M373-340.4s-17.3,223.4-122.9,314.3C168.8,44,61.3,5.9-15.8,79.5c-68.6,65.5-44.5,135.4-97.8,211-102.8,145.7-386.3,279.2-386.3,279.2"/>
      <path class="st4" d="M322-393.4s-17.3,223.4-122.9,314.3C117.8-9,10.3-47.1-66.8,26.5c-68.6,65.5-44.5,135.4-97.8,211-102.8,145.7-386.3,279.2-386.3,279.2"/>
      <path class="st4" d="M294-449.4s-17.4,223.1-123.3,314C89.1-65.4-18.8-103.5-96.2-30c-68.9,65.5-44.6,135.2-98.2,210.8-103.2,145.6-387.7,278.8-387.7,278.8"/>
      <path class="st4" d="M244-502.4s-17.4,222.9-123.3,313.6c-81.6,69.9-189.5,31.9-266.8,105.3C-215.1-18.1-190.8,51.6-244.3,127.1c-103.2,145.4-387.7,278.5-387.7,278.5"/>
      <path class="st3" d="M575-146.4s-17.4,223.1-123.3,314c-81.6,69.9-189.5,31.9-266.8,105.4-68.9,65.5-44.6,135.2-98.2,210.8-103.2,145.6-387.7,278.8-387.7,278.8"/>
      <path class="st3" d="M524-199.4s-17.4,223.1-123.2,314c-81.5,69.9-189.3,31.9-266.5,105.4-68.8,65.5-44.6,135.2-98.1,210.8-103.1,145.6-387.2,278.8-387.2,278.8"/>
      <path class="st3" d="M494-256.4s-17.3,223.4-122.9,314.3c-81.3,70-188.8,31.9-265.9,105.5C36.5,229,60.7,298.8,7.3,374.5c-102.8,145.7-386.3,279.2-386.3,279.2"/>
      <path class="st3" d="M443-309.4S425.7-86.3,320.1,4.6C238.8,74.6,131.2,36.5,54.2,110-14.5,175.5,9.7,245.2-43.7,320.8c-102.8,145.6-386.3,278.8-386.3,278.8"/>
      <path class="st3" d="M988.6-450s-49.2,575.3-212.1,867.4c-125.4,224.8-277.2,191.5-396.9,422.8-106.6,206-79.1,368.5-164.6,591.3-164.8,429-590.2,932.8-590.2,932.8"/>
      <path class="st3" d="M920.1-556.4s-49.1,575.3-211.7,867.2c-125.1,224.7-276.6,191.2-396,422.5-106.4,205.9-78.9,368.5-164.3,591.1-164.5,428.9-588.9,932.2-588.9,932.2"/>
      <path class="st3" d="M884.6-681.4s-49.2,575.3-212.1,867.4c-125.4,224.8-277.2,191.5-396.9,422.8-106.6,206-79.1,368.5-164.6,591.3-164.8,429-590.2,932.8-590.2,932.8"/>
      <path class="st3" d="M819.1-789s-49.3,575.3-212.6,867.5c-125.7,224.9-277.8,191.7-397.8,423.2-106.8,206.1-79.2,368.6-165,591.4-165.2,429.2-591.5,933.3-591.5,933.3"/>
      <path class="st4" d="M1248.5-143.4s-49.8,592.9-211.8,891.7c-124.7,230-275.1,193.1-394.1,429.9-106,210.9-79,379-164.2,607.5-164.1,440.1-586.6,953-586.6,953"/>
      <path class="st3" d="M1190.3-183.1s-49.2,575.3-212.1,867.4c-125.4,224.8-277.2,191.5-396.9,422.8-106.6,206-79.1,368.5-164.6,591.3-164.8,429-590.2,932.8-590.2,932.8"/>
      <path class="st3" d="M1151.8-306.9s-49.2,575.3-211.7,867.2c-125.1,224.7-276.6,191.2-396,422.5-106.4,205.9-78.9,368.5-164.3,591.1-164.5,428.9-588.9,932.2-588.9,932.2"/>
      <path class="st3" d="M1086.3-414.5s-49.2,575.3-212.1,867.4c-125.4,224.8-277.2,191.5-396.9,422.8-106.6,206-79.1,368.5-164.6,591.3-164.8,429.1-590.2,932.8-590.2,932.8"/>
      <path class="st9" d="M1156.7,263.7c-1.1,5.3-2.1,8.5-5.6,12.6-3,3.6-5.3,5.8-9.8,7-6.5,1.8-11.2-.4-16.8-4.2-3.2-2.2-3.5-5.3-7-7-3.5-1.7-6.2,0-9.8-1.4-3-1.1-5-1.8-7-4.2-3.5-4.2-3-8.8-1.4-14,.7-2.3,1.7-3.4,2.8-5.6,2.2-4.4,2.9-7.1,5.6-11.2,1.9-2.9,3-4.7,5.6-7,4.1-3.5,5.2-5.7,12.6-5.6,7.4.1,13.3.1,16.8,8.4,3.5,8.3,9.8,7.2,12.6,14,2.8,6.6,2.9,11.2,1.4,18.2ZM1156.7,263.7l-22.5-4.2M1148.3,238.4l-15.4,14"/>
      <path class="st9" d="M1127.3,260.9l-8.4,11.2"/>
      <path class="st9" d="M1127.3,253.8l-11.2-26.7"/>
      <path class="st9" d="M1125.8,258.1l-26.7-1.4"/>
      <circle class="st9" cx="1130.1" cy="256.7" r="4.1"/>
      <path class="st9" d="M1106.2,297.4c3.4,0,5.5,2.1,5.5,4.1s-2.1,4.1-5.5,4.1c-3.4,0-5.5-2.1-5.5-4.1s2.1-4.1,5.5-4.1Z"/>
      <path class="st9" d="M1098,279.5c5.9.6,14.5-3.6,18.2,1,6.8,8.4,17.2,8.2,22.4,18.7,3.4,6.9,5.7,13.3,1.4,19.6-5.3,7.8-14-1.4-23.9,2.8-9.8,4.2-13.6.2-22.7,0-6.2-.1-7.9-3.5-13.8-5.6-4.4-1.6-7.3-3.9-8.4-8.4-1.3-5.2,3.4-7.7,5.6-12.6,2.2-4.9,1.5-9.2,5.6-12.6,4.7-3.9,9.3-3.5,15.4-2.8Z"/>
      <path class="st9" d="M1106.2,305.8l-2.8,18.2"/>
      <path class="st9" d="M1102,303l-29.5,7"/>
      <path class="st9" d="M1103.4,298.8l-14-19.6"/>
      <path class="st9" d="M1111.8,300.2l19.6-8.4"/>
      <path class="st9" d="M1110.4,304.4l30.9,14"/>
      <path class="st9" d="M1156.7,263.7c-1.1,5.3-2.1,8.5-5.6,12.6-3,3.6-5.3,5.8-9.8,7-6.5,1.8-11.2-.4-16.8-4.2-3.2-2.2-3.5-5.3-7-7-3.5-1.7-6.2,0-9.8-1.4-3-1.1-5-1.8-7-4.2-3.5-4.2-3-8.8-1.4-14,.7-2.3,1.7-3.4,2.8-5.6,2.2-4.4,2.9-7.1,5.6-11.2,1.9-2.9,3-4.7,5.6-7,4.1-3.5,5.2-5.7,12.6-5.6,7.4.1,13.3.1,16.8,8.4,3.5,8.3,9.8,7.2,12.6,14,2.8,6.6,2.9,11.2,1.4,18.2ZM1156.7,263.7l-22.4-4.2M1148.3,238.4l-15.4,14"/>
      <path class="st9" d="M1127.2,260.9l-8.4,11.2"/>
      <path class="st9" d="M1127.2,253.8l-11.2-26.7"/>
      <path class="st9" d="M1125.8,258.1l-26.7-1.4"/>
      <circle class="st9" cx="1130.1" cy="256.7" r="4.1"/>
      <circle class="st9" cx="1073.9" cy="248.2" r="4.1"/>
      <path class="st9" d="M1073.9,252.4v21.1"/>
      <path class="st9" d="M1078.1,249.6l15.4,8.4"/>
      <path class="st9" d="M1076.7,245.4l5.6-19.6"/>
      <path class="st9" d="M1071.1,245.4l-11.2-16.8"/>
      <path class="st9" d="M1071.1,251l-16.8,5.6"/>
      <path class="st9" d="M1106.2,297.4c3.4,0,5.5,2.1,5.5,4.1s-2.1,4.1-5.5,4.1c-3.4,0-5.5-2.1-5.5-4.1s2.1-4.1,5.5-4.1Z"/>
      <path class="st9" d="M1098,279.5c5.9.6,14.5-3.6,18.2,1,6.8,8.4,17.2,8.2,22.4,18.7,3.4,6.9,5.7,13.3,1.4,19.6-5.3,7.8-14-1.4-23.9,2.8-9.8,4.2-13.6.2-22.7,0-6.2-.1-7.9-3.5-13.8-5.6-4.4-1.6-7.3-3.9-8.4-8.4-1.3-5.2,3.4-7.7,5.6-12.6,2.2-4.9,1.5-9.2,5.6-12.6,4.7-3.9,9.3-3.5,15.4-2.8Z"/>
      <path class="st9" d="M1106.2,305.8l-2.8,18.2"/>
      <path class="st9" d="M1102,303l-29.5,7"/>
      <path class="st9" d="M1103.4,298.8l-14-19.6"/>
      <path class="st9" d="M1111.8,300.2l19.6-8.4"/>
      <path class="st9" d="M1110.4,304.4l30.9,14"/>
      <path class="st9" d="M1089.4,266.5c5.1-7.4,3.6-13.6,5.6-22.5,2-8.8-11.2-18.2-11.2-18.2-5.6-2.8-5-2.5-8.4-2.8-5.7-.5-11.1,2.5-14,4.2-6.2,3.6-6.4,10-8.4,16.8-1.3,4.2-1.2,7.7,1.4,11.2,4,5.4-.2,13.9,4.2,16.8,4.4,3,13.7,1.7,22.4,2.8,8.8,1.1,5.8-4.6,8.4-8.4Z"/>
      <path class="st9" d="M1255,317c-1.1,5.3-2.1,8.5-5.6,12.6-3,3.6-5.3,5.8-9.8,7-6.5,1.8-11.2-.4-16.8-4.2-3.2-2.2-3.6-5.3-7-7-3.5-1.7-6.2,0-9.8-1.4-3-1.1-5-1.8-7-4.2-3.5-4.2-3-8.8-1.4-14,.7-2.3,1.7-3.4,2.8-5.6,2.2-4.4,2.9-7.1,5.6-11.2,2-2.9,3-4.7,5.6-7,4.1-3.5,5.2-5.7,12.6-5.6,7.4.1,13.3.1,16.8,8.4,3.5,8.3,9.8,7.2,12.6,14,2.8,6.6,2.9,11.2,1.4,18.2ZM1255,317l-22.4-4.2M1246.5,291.7l-15.4,14"/>
      <path class="st9" d="M1224.1,311.4l-26.7-1.4"/>
      <path class="st9" d="M1196.2,332.9c5.9.6,14.5-3.6,18.2,1,6.8,8.4,17.2,8.2,22.5,18.7,3.4,6.9,5.7,13.3,1.4,19.6-5.3,7.8-14-1.4-23.9,2.8-9.8,4.2-13.6.2-22.7,0-6.2-.1-7.9-3.5-13.8-5.6-4.4-1.6-7.3-3.9-8.4-8.4-1.2-5.2,3.4-7.7,5.6-12.6,2.2-4.9,1.5-9.2,5.6-12.6,4.7-3.9,9.3-3.5,15.4-2.8Z"/>
      <path class="st9" d="M1201.6,352.1l-14-19.6"/>
      <path class="st9" d="M1255,317c-1.1,5.3-2.1,8.5-5.6,12.6-3,3.6-5.3,5.8-9.8,7-6.5,1.8-11.2-.4-16.8-4.2-3.2-2.2-3.6-5.3-7-7-3.5-1.7-6.2,0-9.8-1.4-3-1.1-5-1.8-7-4.2-3.5-4.2-3-8.8-1.4-14,.7-2.3,1.7-3.4,2.8-5.6,2.2-4.4,2.9-7.1,5.6-11.2,1.9-2.9,3-4.7,5.6-7,4.1-3.5,5.2-5.7,12.6-5.6,7.4.1,13.3.1,16.8,8.4,3.5,8.3,9.8,7.2,12.6,14,2.8,6.6,2.9,11.2,1.4,18.2ZM1255,317l-22.5-4.2M1246.5,291.7l-15.4,14"/>
      <path class="st9" d="M1224.1,311.4l-26.7-1.4"/>
      <circle class="st9" cx="1172.2" cy="301.6" r="4.1"/>
      <path class="st9" d="M1172.2,305.8v21.1"/>
      <path class="st9" d="M1176.4,303l15.4,8.4"/>
      <path class="st9" d="M1175,298.8l5.6-19.6"/>
      <path class="st9" d="M1169.3,298.8l-11.2-16.8"/>
      <path class="st9" d="M1169.3,304.4l-16.8,5.6"/>
      <path class="st9" d="M1196.2,332.9c5.9.6,14.5-3.6,18.2,1,6.8,8.4,17.2,8.2,22.5,18.7,3.4,6.9,5.7,13.3,1.4,19.6-5.3,7.8-14-1.4-23.9,2.8-9.8,4.2-13.6.2-22.7,0-6.2-.1-7.9-3.5-13.8-5.6-4.4-1.6-7.3-3.9-8.4-8.4-1.2-5.2,3.4-7.7,5.6-12.6,2.2-4.9,1.5-9.2,5.6-12.6,4.7-3.9,9.3-3.5,15.4-2.8Z"/>
      <path class="st9" d="M1201.6,352.1l-14-19.6"/>
      <path class="st9" d="M1187.6,319.8c5.1-7.4,3.6-13.6,5.6-22.5,2-8.8-11.2-18.2-11.2-18.2-5.6-2.8-5-2.5-8.4-2.8-5.7-.5-11.1,2.5-14,4.2-6.2,3.6-6.4,10-8.4,16.8-1.3,4.2-1.2,7.7,1.4,11.2,4,5.4-.2,13.9,4.2,16.8,4.4,3,13.7,1.7,22.5,2.8,8.8,1.1,5.8-4.6,8.4-8.4Z"/>
      <path class="st9" d="M1252.2,210.3c-1.1,5.3-2.1,8.5-5.6,12.6-3,3.6-5.3,5.8-9.8,7-6.5,1.8-11.2-.4-16.8-4.2-3.2-2.2-3.6-5.3-7-7-3.5-1.7-6.2,0-9.8-1.4-3-1.1-5-1.8-7-4.2-3.5-4.2-3-8.8-1.4-14,.7-2.3,1.7-3.4,2.8-5.6,2.2-4.4,2.9-7.1,5.6-11.2,1.9-2.9,2.9-4.7,5.6-7,4.1-3.5,5.2-5.7,12.6-5.6,7.4.1,13.3.1,16.8,8.4,3.5,8.3,9.8,7.2,12.6,14,2.8,6.6,2.9,11.2,1.4,18.2ZM1252.2,210.3l-22.5-4.2M1243.7,185.1l-15.4,14"/>
      <path class="st9" d="M1221.3,204.7l-26.7-1.4"/>
      <path class="st9" d="M1201.6,244.1c3.4,0,5.5,2.1,5.5,4.1s-2.2,4.1-5.5,4.1-5.5-2.1-5.5-4.1,2.1-4.1,5.5-4.1Z"/>
      <path class="st9" d="M1193.4,226.2c5.9.6,14.5-3.6,18.2,1,6.8,8.4,17.2,8.2,22.4,18.7,3.4,6.9,5.7,13.3,1.4,19.6-5.3,7.8-14-1.4-23.9,2.8-9.8,4.2-13.6.2-22.7,0-6.2-.1-7.9-3.5-13.8-5.6-4.4-1.6-7.3-3.9-8.4-8.4-1.3-5.2,3.4-7.7,5.6-12.6,2.2-4.9,1.5-9.2,5.6-12.6,4.7-3.9,9.3-3.5,15.4-2.8Z"/>
      <path class="st9" d="M1201.6,252.4l-2.8,18.2"/>
      <path class="st9" d="M1197.4,249.6l-29.5,7"/>
      <path class="st9" d="M1198.8,245.4l-14-19.6"/>
      <path class="st9" d="M1252.2,210.3c-1.1,5.3-2.1,8.5-5.6,12.6-3.1,3.6-5.3,5.8-9.8,7-6.5,1.8-11.2-.4-16.8-4.2-3.2-2.2-3.6-5.3-7-7-3.5-1.7-6.2,0-9.8-1.4-3-1.1-5-1.8-7-4.2-3.5-4.2-3-8.8-1.4-14,.7-2.3,1.7-3.4,2.8-5.6,2.2-4.4,2.9-7.1,5.6-11.2,1.9-2.9,2.9-4.7,5.6-7,4.1-3.5,5.2-5.7,12.6-5.6,7.4.1,13.3.1,16.8,8.4,3.5,8.3,9.8,7.2,12.6,14,2.8,6.6,2.9,11.2,1.4,18.2ZM1252.2,210.3l-22.5-4.2M1243.7,185.1l-15.4,14"/>
      <path class="st9" d="M1221.3,204.7l-26.7-1.4"/>
      <circle class="st9" cx="1169.3" cy="194.9" r="4.1"/>
      <path class="st9" d="M1169.4,199.1v21.1"/>
      <path class="st9" d="M1173.6,196.3l15.4,8.4"/>
      <path class="st9" d="M1172.2,192.1l5.6-19.6"/>
      <path class="st9" d="M1166.6,192.1l-11.2-16.8"/>
      <path class="st9" d="M1166.6,197.7l-16.8,5.6"/>
      <path class="st9" d="M1201.6,244.1c3.4,0,5.5,2.1,5.5,4.1s-2.1,4.1-5.5,4.1-5.5-2.1-5.5-4.1,2.1-4.1,5.5-4.1Z"/>
      <path class="st9" d="M1193.4,226.2c5.9.6,14.5-3.6,18.2,1,6.8,8.4,17.2,8.2,22.4,18.7,3.4,6.9,5.7,13.3,1.4,19.6-5.3,7.8-14-1.4-23.8,2.8-9.8,4.2-13.6.2-22.7,0-6.2-.1-7.9-3.5-13.8-5.6-4.4-1.6-7.3-3.9-8.4-8.4-1.3-5.2,3.4-7.7,5.6-12.6,2.2-4.9,1.5-9.2,5.6-12.6,4.7-3.9,9.3-3.5,15.4-2.8Z"/>
      <path class="st9" d="M1201.6,252.4l-2.8,18.2"/>
      <path class="st9" d="M1197.4,249.6l-29.5,7"/>
      <path class="st9" d="M1198.8,245.4l-14-19.6"/>
      <path class="st9" d="M1184.8,213.1c5.1-7.4,3.6-13.6,5.6-22.5,2-8.8-11.2-18.2-11.2-18.2-5.6-2.8-5-2.5-8.4-2.8-5.7-.5-11.1,2.5-14,4.2-6.2,3.6-6.4,10-8.4,16.8-1.3,4.2-1.2,7.7,1.4,11.2,4,5.4-.2,13.9,4.2,16.8,4.4,3,13.7,1.7,22.4,2.8,8.8,1.1,5.8-4.6,8.4-8.4Z"/>
      <path class="st9" d="M1162.3,373.1c-1.1,5.3-2.1,8.5-5.6,12.6-3,3.6-5.3,5.8-9.8,7-6.5,1.8-11.2-.4-16.8-4.2-3.2-2.2-3.6-5.3-7-7-3.5-1.7-6.2,0-9.8-1.4-3-1.1-5-1.8-7-4.2-3.5-4.2-3-8.8-1.4-14,.7-2.3,1.7-3.4,2.8-5.6,2.2-4.4,2.9-7.1,5.6-11.2,1.9-2.9,3-4.7,5.6-7,4.1-3.5,5.2-5.7,12.6-5.6,7.4.1,13.3.1,16.8,8.4,3.5,8.3,9.8,7.2,12.6,14,2.8,6.6,2.9,11.2,1.4,18.2ZM1162.3,373.1l-22.4-4.2M1153.9,347.9l-15.4,14"/>
      <path class="st9" d="M1132.9,363.3l-11.2-26.7"/>
      <path class="st9" d="M1162.3,373.1c-1.1,5.3-2.1,8.5-5.6,12.6-3,3.6-5.3,5.8-9.8,7-6.5,1.8-11.2-.4-16.8-4.2-3.2-2.2-3.6-5.3-7-7-3.5-1.7-6.2,0-9.8-1.4-3-1.1-5-1.8-7-4.2-3.5-4.2-3-8.8-1.4-14,.7-2.3,1.7-3.4,2.8-5.6,2.2-4.4,2.9-7.1,5.6-11.2,1.9-2.9,3-4.7,5.6-7,4.1-3.5,5.2-5.7,12.6-5.6,7.4.1,13.3.1,16.8,8.4,3.5,8.3,9.8,7.2,12.6,14,2.8,6.6,2.9,11.2,1.4,18.2ZM1162.3,373.1l-22.5-4.2M1153.9,347.9l-15.4,14"/>
      <path class="st9" d="M1132.9,363.3l-11.2-26.7"/>
      <path class="st9" d="M1082.3,354.9l5.6-19.6"/>
      <path class="st9" d="M1076.7,354.9l-11.2-16.8"/>
      <path class="st9" d="M1162.3,373.1c-1.1,5.3-2.1,8.5-5.6,12.6-3,3.6-5.3,5.8-9.8,7-6.5,1.8-11.2-.4-16.8-4.2-3.2-2.2-3.6-5.3-7-7-3.5-1.7-6.2,0-9.8-1.4-3-1.1-5-1.8-7-4.2-3.5-4.2-3-8.8-1.4-14,.7-2.3,1.7-3.4,2.8-5.6,2.2-4.4,2.9-7.1,5.6-11.2,1.9-2.9,3-4.7,5.6-7,4.1-3.5,5.2-5.7,12.6-5.6,7.4.1,13.3.1,16.8,8.4,3.5,8.3,9.8,7.2,12.6,14,2.8,6.6,2.9,11.2,1.4,18.2ZM1162.3,373.1l-22.5-4.2M1153.9,347.9l-15.4,14"/>
      <path class="st9" d="M1132.9,363.3l-11.2-26.7"/>
      <path class="st9" d="M1082.3,354.9l5.6-19.6"/>
      <path class="st9" d="M1076.7,354.9l-11.2-16.8"/>
      <path class="st9" d="M1095,375.9c5.1-7.4,3.6-13.6,5.6-22.5,2-8.8-11.2-18.2-11.2-18.2-5.6-2.8-5-2.5-8.4-2.8-5.7-.5-11,2.5-14,4.2-6.2,3.6-6.4,10-8.4,16.8-1.3,4.2-1.2,7.7,1.4,11.2,4,5.4-.2,13.9,4.2,16.8,4.4,3,13.7,1.7,22.5,2.8,8.8,1.1,5.8-4.6,8.4-8.4Z"/>
      <path class="st11" d="M915.5-16.1l-19.5,25.9M896,9.8l24.3-18.3M896,9.8l.9,1.8,30.3-10.2"/>
      <path class="st11" d="M945.6,8.6l7.1,31.6M952.7,40.2l1.8-30.3M952.7,40.2l1.9.5,11.9-29.7"/>
      <path class="st11" d="M982.9,32.9l-10,30.8M972.8,63.7l17-25.1M972.8,63.7l1.4,1.4,25.4-19.5"/>
      <path class="st11" d="M991.4-31.9l-10,30.8M981.4-1.1l17-25.1M981.4-1.1l1.4,1.4,25.4-19.5"/>
      <path class="st11" d="M1018.2-6.4l-16.9,27.6M1001.2,21.2l22.4-20.5M1001.2,21.2l1,1.7,29.2-13"/>
      <path class="st11" d="M997.4,87.6l14.9,28.8M1012.4,116.4l-6-29.8M1012.4,116.4h2s3.9-31.8,3.9-31.8"/>
      <path class="st11" d="M1039.7,101.6l-1.9,32.3M1037.8,133.9l10.1-28.6M1037.8,133.9l1.7,1,19.6-25.3"/>
      <path class="st11" d="M1031.5,36.8l-1.9,32.3M1029.6,69.1l10.1-28.6M1029.6,69.1l1.7,1,19.6-25.3"/>
      <path class="st11" d="M1063.8,54.7l-9.3,31M1054.5,85.7l16.4-25.5M1054.5,85.7l1.4,1.4,24.9-20"/>
      <path class="st11" d="M1039.1-8.7l14.9,28.8M1054,20l-6-29.8M1054,20h2s3.9-31.8,3.9-31.8"/>
      <path class="st11" d="M997.4,142.4l14.9,28.8M1012.3,171.2l-6-29.8M1012.3,171.2h2s3.9-31.8,3.9-31.8"/>
      <path class="st11" d="M1081.4,5.2l-1.9,32.3M1079.5,37.6l10.1-28.6M1079.5,37.6l1.7,1,19.6-25.3"/>
      <path class="st11" d="M1154.2-33.3l-5.2,32M1149.1-1.3l12.9-27.5M1149.1-1.3l1.6,1.2,22.1-23.2"/>
      <path class="st11" d="M836-19.9l7.1,31.6M843.1,11.7l1.8-30.3M843.1,11.7l1.9.5,11.9-29.7"/>
      <path class="st11" d="M848.1,169.5l-10,30.8M838,200.3l17-25.1M838,200.3l1.4,1.4,25.4-19.5"/>
      <path class="st11" d="M856.6,104.7l-10,30.8M846.5,135.5l17-25.1M846.5,135.5l1.4,1.4,25.4-19.5"/>
      <path class="st11" d="M883.3,130.2l-16.9,27.6M866.4,157.8l22.4-20.5M866.4,157.8l1,1.7,29.2-13"/>
      <path class="st11" d="M862.6,224.2l14.9,28.8M877.5,253l-6-29.8M877.5,253h2s3.9-31.8,3.9-31.8"/>
      <path class="st11" d="M896.6,173.4l-1.9,32.3M894.8,205.7l10.1-28.6M894.8,205.7l1.7,1,19.6-25.3"/>
      <path class="st11" d="M904.3,127.8l14.9,28.8M919.2,156.6l-6-29.8M919.2,156.6h2s3.9-31.8,3.9-31.8"/>
      <path class="st11" d="M938.3,77l-1.9,32.3M936.4,109.4l10.1-28.6M936.4,109.4l1.7,1,19.6-25.3"/>
      <path class="st11" d="M857.8,30.6l4.1,32.1M861.9,62.7l4.7-30M861.9,62.7l1.9.7,14.7-28.4"/>
      <path class="st11" d="M892.6,58.3l-12.9,29.7M879.7,88l19.3-23.4M879.7,88l1.3,1.5,27.1-16.9"/>
      <path class="st11" d="M931.5,22.6l-19.5,25.9M912,48.5l24.3-18.3M912,48.5l.9,1.8,30.3-10.2"/>
      <path class="st11" d="M812.8,80.7l-1.9,32.3M810.9,113l10.1-28.6M810.9,113l1.7,1,19.6-25.3"/>
      <path class="st11" d="M775.3,71.2l-1.9,32.3M773.4,103.6l10.1-28.6M773.4,103.6l1.7,1,19.6-25.3"/>
      <path class="st11" d="M836.9,33.8l-9.3,31M827.6,64.8l16.4-25.5M827.6,64.8l1.4,1.4,24.9-20"/>
      <path class="st11" d="M720.9,352.9l7.1,31.6M728,384.5l1.8-30.3M728,384.5l1.9.5,11.9-29.7"/>
      <path class="st11" d="M814.4,335.5l14.9,28.8M829.4,364.3l-6-29.8M829.4,364.3h2s3.9-31.8,3.9-31.8"/>
      <path class="st11" d="M848.6,272.6l11.7,30.2M860.4,302.8l-2.7-30.2M860.4,302.8l2,.2,7.3-31.2"/>
      <path class="st11" d="M891.9,323.9l4.1,32.1M896,356.1l4.7-30M896,356.1l1.9.7,14.7-28.4"/>
      <path class="st11" d="M802.8,266l-12.9,29.7M789.9,295.7l19.3-23.4M789.9,295.7l1.3,1.5,27.1-16.9"/>
      <path class="st11" d="M841.7,230.3l-19.5,25.9M822.2,256.2l24.3-18.3M822.2,256.2l.9,1.8,30.3-10.2"/>
      <path class="st11" d="M871,327.1l-9.3,31M861.7,358.1l16.4-25.5M861.7,358.1l1.4,1.4,24.9-20"/>
      <path class="st11" d="M1097.5,57.1l-4.5,32.1M1093,89.2l12.3-27.7M1093,89.2l1.6,1.1,21.6-23.6"/>
      <path class="st11" d="M1123.9,92.9l-20.2,25.3M1103.6,118.2l24.8-17.5M1103.6,118.2l.8,1.8,30.6-9.3"/>
      <path class="st11" d="M1119.6,8.8l6.5,31.8M1126.1,40.5l2.4-30.3M1126.1,40.5l1.9.5,12.5-29.5"/>
      <path class="st11" d="M1156.4,33.8l-10.7,30.6M1145.7,64.4l17.5-24.8M1145.7,64.4l1.4,1.4,25.8-18.9"/>
      <path class="st11" d="M1196.2-18.1l-20.2,25.3M1175.9,7.2l24.8-17.5M1175.9,7.2l.8,1.8,30.6-9.3"/>
      <path class="st11" d="M1212.2,15.2l-25.6,19.9M1186.6,35l28.2-11.3M1186.6,35l.4,2,31.9-1.9"/>
      <path class="st11" d="M1159.7,95.9l3.8,32.2M1163.5,128l4.9-30M1163.5,128l1.9.7,14.9-28.3"/>
      <path class="st11" d="M1194.3,123.8l-13.2,29.6M1181.2,153.4l19.5-23.3M1181.2,153.4l1.2,1.5,27.3-16.8"/>
      <path class="st11" d="M1209.4,60.3l-13.1,29.6M1196.3,89.9l19.5-23.3M1196.3,89.9l1.2,1.5,27.3-16.8"/>
      <path class="st13" d="M1137.5,145.2c1.7-4.5,6.2-6.1,10.8-5.5,5.6.7,10.7,5.4,9.5,11-1.1,4.9-5.9,7.3-10.8,6.9-6-.6-11.7-6.6-9.5-12.3Z"/>
      <path class="st13" d="M1071.5,172.5c1.8-4.7,6.4-6.4,11.4-5.8,5.8.8,11.2,5.7,9.9,11.6-1.1,5.2-6.2,7.7-11.4,7.2-6.3-.6-12.2-7-9.9-13Z"/>
      <path class="st13" d="M974.5,198.2c1.7-4.5,6.2-6.1,10.9-5.5,5.6.7,10.7,5.4,9.5,11-1.1,4.9-5.9,7.3-10.8,6.9-6-.6-11.7-6.6-9.5-12.3Z"/>
      <path class="st13" d="M965.5,121.2c1.8-4.5,6.4-6.1,11.4-5.5,5.8.7,11.2,5.4,9.9,11-1.1,4.9-6.2,7.3-11.4,6.9-6.3-.6-12.2-6.6-9.9-12.3Z"/>
      <path class="st13" d="M1013.5,253.9c1.8-5,6.4-6.8,11.4-6.1,5.8.8,11.2,6,9.9,12.2-1.1,5.5-6.2,8.1-11.4,7.6-6.3-.6-12.2-7.4-10-13.7Z"/>
      <path class="st13" d="M1015.5,188.9c1.9-5,6.7-6.8,11.9-6.1,6.1.8,11.7,6,10.4,12.2-1.2,5.5-6.4,8.1-11.9,7.6-6.6-.6-12.8-7.4-10.4-13.7Z"/>
      <path class="st13" d="M1096.5,192.5c1.9-4.7,6.7-6.4,11.9-5.8,6.1.8,11.7,5.7,10.4,11.6-1.2,5.2-6.4,7.7-11.9,7.2-6.6-.6-12.8-7-10.4-13Z"/>
      <path class="st13" d="M1128.2,164.4c.9-3,3.2-4.1,5.7-3.7,2.9.5,5.6,3.6,5,7.3-.6,3.3-3.1,4.9-5.7,4.6-3.2-.4-6.1-4.4-5-8.2Z"/>
      <path class="st13" d="M1066.2,138.4c.9-3,3.2-4.1,5.7-3.7,2.9.5,5.6,3.6,5,7.3-.6,3.3-3.1,4.9-5.7,4.6-3.2-.4-6.1-4.4-5-8.2Z"/>
      <path class="st13" d="M1057.3,196.1c1-2.7,3.5-3.7,6.2-3.4,3.2.4,6.1,3.3,5.4,6.7-.6,3-3.4,4.5-6.2,4.2-3.4-.3-6.7-4.1-5.4-7.5Z"/>
      <path class="st13" d="M1094.2,217.4c.9-3,3.2-4.1,5.7-3.7,2.9.5,5.6,3.6,5,7.3-.6,3.3-3.1,4.9-5.7,4.6-3.2-.4-6.1-4.4-5-8.2Z"/>
      <path class="st13" d="M1125.3,203.4c1-3,3.5-4.1,6.2-3.7,3.2.5,6.1,3.6,5.4,7.3-.6,3.3-3.4,4.9-6.2,4.6-3.4-.4-6.7-4.4-5.4-8.2Z"/>
      <path class="st13" d="M1036.2,159.1c.9-2.7,3.2-3.7,5.7-3.4,2.9.4,5.6,3.3,5,6.7-.6,3-3.1,4.5-5.7,4.2-3.2-.3-6.1-4.1-5-7.5Z"/>
      <path class="st13" d="M1108.2,142.4c.9-2.2,3.2-3,5.7-2.7,2.9.4,5.6,2.7,5,5.5-.6,2.5-3.1,3.7-5.7,3.4-3.2-.3-6.1-3.3-5-6.2Z"/>
      <path class="st13" d="M1010.3,221.1c1-2.7,3.5-3.7,6.2-3.4,3.2.4,6.1,3.3,5.4,6.7-.6,3-3.4,4.5-6.2,4.2-3.4-.3-6.7-4.1-5.4-7.5Z"/>
      <path class="st13" d="M1041.2,215.1c.9-2.7,3.2-3.7,5.7-3.4,2.9.4,5.6,3.3,5,6.7-.6,3-3.1,4.5-5.7,4.2-3.2-.3-6.1-4.1-5-7.5Z"/>
      <path class="st13" d="M443.5,305.9c1.8-4.7,6.4-6.4,11.4-5.8,5.9.8,11.2,5.7,9.9,11.6-1.1,5.2-6.2,7.7-11.4,7.2-6.3-.6-12.2-7-9.9-13Z"/>
      <path class="st13" d="M471.5,322.5c1.7-4.7,6.2-6.4,10.9-5.8,5.6.8,10.7,5.7,9.5,11.6-1.1,5.2-5.9,7.7-10.9,7.2-6-.6-11.7-7-9.5-13Z"/>
      <path class="st13" d="M524.5,308.5c1.9-4.7,6.7-6.4,11.9-5.8,6.1.8,11.7,5.7,10.4,11.6-1.2,5.2-6.4,7.7-11.9,7.2-6.6-.6-12.8-7-10.4-13Z"/>
      <path class="st13" d="M497.5,354.2c1.7-4.5,6.2-6.1,10.9-5.5,5.6.7,10.7,5.4,9.5,11-1.1,4.9-5.9,7.3-10.8,6.9-6-.6-11.7-6.6-9.5-12.3Z"/>
      <path class="st13" d="M494.5,306.6c1.7-4.5,6.2-6.1,10.9-5.5,5.6.7,10.7,5.4,9.5,11-1.1,4.9-5.9,7.3-10.8,6.9-6-.6-11.7-6.6-9.5-12.3Z"/>
      <path class="st13" d="M451.2,340.4c.9-3,3.2-4.1,5.7-3.7,2.9.5,5.6,3.6,5,7.3-.6,3.3-3.1,4.9-5.7,4.6-3.1-.4-6.1-4.4-5-8.2Z"/>
      <path class="st13" d="M428.3,334.7c1-2.5,3.5-3.4,6.2-3,3.2.4,6.1,3,5.4,6.1-.6,2.7-3.4,4.1-6.2,3.8-3.4-.3-6.7-3.7-5.4-6.9Z"/>
      <path class="st13" d="M976.3,173.1c1-2.7,3.5-3.7,6.2-3.4,3.2.4,6.1,3.3,5.4,6.7-.6,3-3.4,4.5-6.2,4.2-3.4-.3-6.7-4.1-5.4-7.5Z"/>
      <path class="st5" d="M247,151.6c-1.3,2.7-2.7,4.4-4.2,6.6-1.4,1.9-2.5,3.6-4.3,6-2.1,2.8-3.3,5-4.6,7-1.3,1.9-2.3,3.6-3.2,5.4-1,2-1.6,3.9-2.2,5.7-.9,1.8-1.3,3.1-1.7,4-.2.4-.5.9-.8,1.3"/>
      <path class="st5" d="M283,140.6c-1.4.8-4.9,3.9-7.4,6.6-2.1,2.3-4.7,4.5-6,6.4-1.3,1.8-3,4-4.3,5.9-1.2,1.7-2.3,3.4-3.5,5-.4.4-.8.8-1.7,2.1"/>
      <path class="st5" d="M274,178.6c-3.7,1.5-9.3,6.3-15.2,12.9-4.4,4.9-5.6,7.2-7.2,9.3-2.7,3.5-4.7,7.6-6,9.5-.6,1.1-1,2.1-1.4,3-.2.4-.5.9-1.2,2.2"/>
      <path class="st5" d="M295,179.6c-.3,4.9-3.2,10.4-6.4,14.2-2,2.4-4.2,5.9-5.6,8-1.4,2.2-3,3.8-4.4,5.5-.4.4-.8.7-1.2,1-.4.4-.7.8-1.4,1.2"/>
      <path class="st5" d="M303,208.6c0,2.5-.6,8.2-2.1,11.1-1.5,2.9-3,6.3-4,8.4-1.5,3-3.2,5.6-4.7,7.8-.3.4-.6.9-1,1.3-.4.4-.8.7-1.3,1.4"/>
      <path class="st5" d="M276,229.6c-.6.3-2.4,2.5-4.5,4.8-2.3,2.5-3.3,4.8-5,7.1-1.7,2.1-3,4.2-4.1,5.9-.4.8-.8,1.7-1.4,2.5-.2.4-.4.8-1,1.7"/>
      <path class="st5" d="M301,271.6c0,.9-.9,3.3-1.9,5.3-.9,1.8-1.9,3.9-3.7,6.9-2.1,3.5-6,8-8,10.1-2.8,2.9-4.8,4.5-5.6,5-.4.3-.7.7-1.9,1.6"/>
      <path class="st5" d="M278,256.6c0,.9-.8,3.3-1.8,5.3-.8,1.8-1.8,3.9-3.5,6.9-2,3.5-5.7,8-7.6,10.1-2.7,2.9-4.5,4.5-5.3,5-.4.3-.6.7-1.8,1.6"/>
      <path class="st5" d="M241,231.6c-.6,3.3-1.6,6.1-3.2,9-1.2,2.2-2.9,5.9-4,8.5-1.1,2.6-1.8,4.9-2.4,7.2-.8,2.8-1.3,4.9-1.8,6.8,0,1.1-.2,2.2-.5,3.1,0,.5,0,.9,0,1.4"/>
      <path class="st5" d="M228,207.6c-5.4,4.2-8.1,6.5-9.8,8.4-1.8,2-4.4,6.7-6.1,9.8-1.2,2.1-2.5,4-3.8,6.2-1,1.6-1.3,3.4-1.9,5.1-.2.4-.3.8-.4,1.3,0,.4,0,.8,0,1.3"/>
      <path class="st5" d="M202,210.6c-2.1,1.9-7.1,7.7-12.9,15.9-2.1,2.9-4.6,7.9-6.2,11.4-1.2,2.6-2.1,4.4-3.1,6.2-1.1,2-2.2,4.5-3.7,7.3-1.6,3.1-2.2,5.4-3.2,7.2-1.1,2-1.3,4-1.9,5.8-.2.5-.3.9-.5,1.4-.2.5-.3.9-.5,1.8"/>
      <path class="st5" d="M199,261.6c0,2.7,0,7.6-.4,14.9-.7,12.1-3.6,15.7-4.7,18.9-.9,2.5-2.3,7.3-3.6,11.2-1.7,4.7-2.4,7.7-3.1,9.5-.5.9-.9,1.8-1.3,2.7-.2.5-.5.9-.8,1.8"/>
      <path class="st5" d="M174,285.6c0,1.3-.8,4.2-1.8,6.6-1,2.5-1.6,4.6-2.4,6.9-.8,1.8-1.2,3.6-1.7,5.5-.1.6-.1,1.3-.1,2.1"/>
      <path class="st5" d="M219,287.6c-.1,5-.4,7.9-1.1,11.8-.6,3.4-1.5,8.1-2.2,11.6-.5,2.3-.7,4-.9,6.2-.2,1-.3,2-.4,3.1,0,.5-.2,1-.3,1.4"/>
      <path class="st5" d="M242.5,302.6c-.4,4.4-.6,12.9-.4,18,.5,1.7.9,3,1.2,3.9.2.4.4.9.7,2.1"/>
      <path class="st5" d="M268.6,320.6c-.2,2.8-.4,5.7-.5,11.3,0,5.6,0,13.9,0,18.3.7,5.8,1.4,7.5,2.2,9.2.2.4.4.9,1.7,2.2"/>
      <path class="st5" d="M291.3,337.8c-.3,1,0,3.5.5,5.8.3,1.2.9,2.3,1.6,3.5.3.7.6,1.5,1.4,3.1"/>
      <path class="st5" d="M154,315.6c-.4,5.2-.8,8.5-1,9.6-.3,1.2-1.5,8.4-2.8,19.2-.9,7.6-.8,13.2-1,18.6-.5,9.5.5,11.9,1,14.9.6,3.6.9,5.6,1.3,7.7.2,1,.4,1.8.7,2.7.1.4.2.9.7,2.2"/>
      <path class="st8" d="M955.7,145c-2.7,3-5.6,9.9-7.9,18.7-1.7,6.4-1.8,9-2.3,11.6-.9,4.4-.8,8.9-1.1,11.3,0,1.2,0,2.4.1,3.3,0,.5,0,1-.1,2.5"/>
      <path class="st8" d="M999.4,270.5c-2.1,4.5-6.8,8.6-11.2,11.1-2.7,1.5-6.1,4.1-8.2,5.6-2.1,1.5-4.2,2.5-6.1,3.6-.5.2-1,.3-1.5.5-.5.2-.9.5-1.8.7"/>
      <path class="st8" d="M953.1,290.6c-.8,4.9-4.2,10.2-7.7,13.7-2.2,2.2-4.7,5.6-6.3,7.6-1.6,2.1-3.4,3.6-4.9,5.1-.4.3-.9.6-1.3.9s-.7.7-1.5,1.1"/>
      <path class="st8" d="M955.6,327.7c-1.5,2.6-4.6,4.8-7.4,6-1.7.7-3.9,2.1-5.3,2.9-1.4.8-2.7,1.3-3.9,1.8-.3,0-.6.1-.9.2-.3,0-.6.2-1.1.3"/>
      <path class="st8" d="M959.7,215.8c-.6,0-3.1,1.6-5.8,3.1-3,1.6-4.8,3.5-7.2,5.1-2.3,1.5-4.3,3.1-5.9,4.3-.7.7-1.4,1.3-2.2,2-.4.3-.7.7-1.5,1.3"/>
      <path class="st8" d="M929.1,211.4c-1.7,2.8-3.5,4.9-5.9,7-1.8,1.6-4.5,4.4-6.4,6.3-1.9,2-3.2,3.8-4.6,5.7-1.6,2.3-2.8,4-4,5.5-.5,1-1,1.9-1.5,2.6-.2.4-.4.8-.6,1.2"/>
      <path class="st8" d="M995,224.1c-2.6,4.2-4.3,6.6-6.9,9.6-2.2,2.6-5.4,6.2-7.8,8.8-1.6,1.7-2.7,3.1-3.9,4.9-.7.7-1.3,1.5-1.9,2.5-.3.4-.7.7-1,1"/>
      <path class="st8" d="M952.1,244.1c-2.1,4.1-5.5,12.1-7.2,17.1,0,1.9-.2,3.2-.1,4.2,0,.5.2,1,0,2.4"/>
      <path class="st8" d="M921.2,263.5c-.7,1.8-2.6,8.3-2.9,16.3-.2,4,.8,6.5,1.3,8.5.2.5.5.9.7,1.4.2.5.3,1,.8,1.7"/>
      <path class="st8" d="M896.4,260.7c-.6,1.6-2.7,6.8-5.3,13.9-1.1,4-1.3,9.6-1.2,16.5,0,2.5.2,3,.4,4.5"/>
      <path class="st12" d="M411.6,343.8c-3.3-.2-9.9-.8-11.5-1.2-1.3-.3-3-.6-4.8-1-2.4-.6-4.5-.9-5.9-1.1-1.4-.3-2.9-.4-4.7-.7-1.4-.2-3.1-.5-4.4-.7-1.7-.2-3.4-.5-5-.5-1.4,0-2.6,1.3-4.1,3.1-.4.5-.2,1.3-.1,1.8.4,2.2,3,3.7,4.2,4.3,1.4.7,2.7,1.1,4.2,1.2.8,0,1.5.3,2.3.3.8,0,5.7.3,12.9.2,3.7,0,5.6-.6,7-.9,1.5-.3,2.8-.5,4.2-.9,1.2-.3,2.3-.6,3.5-.7,1.2-.2,2.3-.8,3.6-1.2.3,0,.6-.2.8-.4.2-.2.3-.5.2-.8-.4-.5-.9-.8-1.6-.9-.3,0-.7,0-1.1,0"/>
      <path class="st12" d="M420.7,330.6c-2.3-4.9-3.7-7.4-4.7-9.1-.9-1.4-2-2.2-2.6-3-.9-1.1-4.6-3.5-9.8-6.6-4.5-2.7-6.5-3.7-8.8-5.1-3.3-2.1-4.6-2.8-5.9-3.5-1.1-.7-2.4-1.1-3.6-1.8-1.2-.7-2.9-1.5-5.4-2.9-.9-.5-4.3-2.5-9.2-5.3-3.9-2.2-10-4.5-12.7-5-1.3-.2-2.9-.4-5.4-.6-2.7-.2-5.8,0-7,.4-.6.2-1.1.8-1.4,1.4-.3.6-.3,2-.1,3.9.3,2.5,2.4,3.1,3.6,3.8,1.1.7,2.4,1.1,5.3,2.5,2.2,1.1,8.2,4.1,11.2,5.7,2,1.1,5.3,2.7,7.7,3.8,1.7.8,2.9,1.5,4.3,2,1.6.6,2.7,1.3,4,2,2.1,1.1,4.2,1.7,5.7,2.3,1.3.6,2.7,1.3,5,2.3,3.4,1.5,4.9,2.5,7.1,3.6,5.7,2.8,7.5,4.3,9,5.2,1.2.7,2.6,1.3,3.9,1.8,1.4.5,2.8,1,4.1,1.5,1.2.5,2.6,1,4.1,1.4.6,0,1.2.1,1.7.1.2,0,.2-.4.2-.7"/>
      <path class="st12" d="M401.4,330.6c-3.7-.1-5.3-.5-7-1.2-1.9-.7-8.2-3-12.2-5-1.5-.7-2.7-1.5-4.2-2.5-1.5-1-2.9-1.7-4.2-2.5-1.3-.8-2.6-1.2-3.8-1.9-1.2-.8-2.3-1.5-3.5-2.1-1.1-.6-2.3-1.2-3.5-1.6-.6-.2-2.2-.3-4.5-.2-2.1.1-2.8,2.3-3.4,3.7-.7,1.9.9,3.3,2,4.5,1.2,1.4,3.1,2.6,4.4,3.4,1.3.8,2.8,1.2,4.4,1.7,2.6.8,4.9,1.7,6.3,2.1,1.5.4,2.8.8,4.3,1.2,1.3.4,2.9.8,4.5,1.2,1.8.4,3.2.7,4.3.9,1.5.3,3.9.7,5.5.9,2.3.4,7.6.4,10.5,0,.6,0,.4-1.1.2-1.7-.1-.2-.4-.3-.7-.4-.3,0-.6,0-.9,0"/>
      <path class="st12" d="M362,336.7c-4-1-7-2.7-9.7-4.6-2.8-2-6.4-6.2-8.1-8.3-1.6-2.1-2.4-4.1-3.1-5.7-.6-1.2-1.2-2.5-1.8-4.4-1-3-1.7-4.1-2.4-5.2-.8-1.2-1.7-2.1-2.9-3.5-1.5-1.6-2.9-2.4-4.6-3-1.3-.4-2.8-.5-4.2-.3-2.3.4-2.5,2.9-2.9,4.7-1.1,4.5,1.3,7.2,4,12.1,1.9,3.4,3.6,4.3,5.3,6.2,2.8,3.1,4.5,4.1,7.4,5.9,3.3,2,5.5,3.5,7.8,4.6,1.6.8,3.6,1.7,5.7,2.5,1.2.5,2.4.4,3.8.7.8.2,2.5.3,4.4.1.7-.1.7-.4.6-.7,0-.3-.3-.6-1-1.2"/>
      <path class="st12" d="M370.3,352.3c-2.2,0-3.9-.2-5.6-.8-1.3-.5-3.3-1.2-5.4-1.8-2.2-.6-3.4-1.7-4.8-2.4-1.9-1-5.5-2.3-8.2-3.2-1.7-.5-2.9-.5-8.9-.5-2,0-2.9,1-3.5,1.5-.3.2-.6.6-.7,1.1-.3,1.2,0,2.3.5,2.9,1.5,2,6.6,4.5,9.4,5.7,2.2.9,4.4,1.2,6.9,1.7,1.8.4,4.1.4,6.2.7.9.1,6.2.3,13.7.3,3.1,0,3.7-.4,4.3-.6.3-.1.6-.4.7-.7s.2-.7,0-1.1c-.6-1.4-2.2-1.5-3.4-1.9-.3-.1-.6-.2-.9-.3-.3-.1-.6-.2-1.2-.6"/>
      <path class="st12" d="M431.4,295c-.6,0-5.1-.2-11.6-.6-3.6-.2-5.2-1.9-8.9-4.4-3.1-2.1-5.3-4-7.1-5.4-1.1-.9-2.6-1.7-4.1-2.6-1.2-.7-2.7-1.7-4.2-2.6-2.2-1.3-3.9-2.2-5.1-2.6-.7-.2-2.6-.3-5.1-.2-.9,0-1.1.5-1.2,1.3-.5,3.7.9,5,1.9,6.5,1.1,1.6,4.1,4.3,6.9,6.7,2,1.7,5.6,4.2,10,6.8,2.7,1.6,5.6,3.4,6.9,4.1,1.4.8,2.7,1.3,4.9,2.6,1.9,1.2,3.8,1.7,5.3,2.5,1.3.7,2.9,1,4.5,1.3,2.9.5,7.8,0,9-.4,1.3-.4,2.6-1,3.7-1.9,1.1-.8.9-3.2.6-5-.3-1.4-1-2.5-1.7-3.7-.9-1.1-1.7-1.6-2.6-1.8-.6,0-1.6,0-3.1-.4"/>
      <path class="st12" d="M324,359.9c-.3-.8-.9-3.6-1.3-5.5-.3-1.4-.4-2.8-.7-4.1-.4-1.7-.5-3.1-1.9-6.6-.7-1.9-2.1-3.3-3.3-4.6-.9-1-2.3-1.1-4-1.5-.6-.1-1.5,0-2,0-.5.1-.7.4-.8.9-.4,2.2.8,4.2,2.2,6.3,1.2,1.7,2.3,3,3.1,4.2.7,1.1,1.1,2.4,1.8,3.6.7,1.2,1.2,2.4,1.7,3.6.5,1.2.8,2.4,1.5,3.5,1.1.6,2.2,1.4,3.2,1.8.1-.1.1-.6.1-1.1"/>
      <path class="st12" d="M318.9,332.7c-2.4-.9-3.4-2.1-4.3-3.3-1-1.4-2.4-3.4-3.3-5-.7-1.2-1.3-2.4-2.7-7.3-.6-2-.8-3.8-.6-8.9,0-1.2.9-1.7,1.4-2.1.7-.5,1.8-.6,3-.5,1.8.1,2.5,2.3,3.7,4.5.7,1.4,1,2.9,1.1,4.1.3,2,.5,4.8.6,6,.2,1.3.8,2.9,1.1,4.2.3,1.2.6,2.4,1,3.6.4,1.2.8,2.4,1.2,3.6,0,.6-.1,1.2-.6,1.7-.3.2-.6.3-1.2.4"/>
      <path class="st12" d="M319.1,295.6c0-2.1-.9-9-1.4-11.4-.3-1.6-1.2-4-1.5-5.6-.3-1.4-.3-4.2.3-6.1.4-1.2,2.6-.9,4.1-.7,1.6.1,1.8,2.4,2.4,4.2.6,1.6.6,3.3.7,4.6.2,1.5.7,2.7.8,4.8.1,1.5.4,3,.4,5.7,0,1.6-1.3,2.6-2.3,3.4-1.1.5-1.9.9-2.4.9-.3,0-.5.1-.8.2"/>
      <path class="st12" d="M369.2,277.4c-4.1-1.9-7.7-4-12.6-6.8-8.5-4.9-11-5.1-12.6-5.5-1.9-.5-3.4-.7-5.1-.9-1.4-.1-3.1-.5-7-.5-.8,0-1.1.3-1.3.6-1,1.3-.5,3.4-.4,4.1.5,3.6,7.4,4.1,9.2,4.7,1.7.5,3.1,1,6.2,2.1,2.3.9,5,2.1,7.2,3.1,1.4.7,2.9,1.9,4.4,2.8,1.2.8,3,1.8,4.5,2.6,1.7.9,3.9,1.4,5.3,2.1,1.5.7,2.9.9,4.3,1.3,1.2.4,2.6.6,3.8.5.5,0,.5-.5.6-.8.2-1.5-.7-2.8-1.6-4.1-1.2-2-2.3-3-3.4-4.2-.3-.3-.6-.5-.9-.7-.3-.2-.6-.4-1.5-.6"/>
      <path class="st12" d="M382.7,266c-1.4-.1-2.8-.7-8.1-3.2-3.2-1.5-8.3-4.7-11.1-6.4-4.4-2.7-6.6-4.8-8.1-5.8-2-1.4-4.5-2.9-6.2-3.6-2.2-.9-5.7-.1-6.3.4-.6.5-.9,2.2-.7,4.4.2,3.4,4.4,5.5,6.8,7.4,1.4,1.1,2.7,1.8,4.1,2.4,2,.9,3.6,1.8,5.3,2.6,3.8,1.8,5.3,2.9,6.4,3.5,1.4.7,2.8,1.7,4.2,2.2,2,.7,3.3,1.3,4.7,1.4,1.6.2,6.1.6,8.9.2,1.3-.2,2.3-.8,3.3-1.5.3-.2.3-.6.3-.9,0-.3,0-.6-.3-.9-1.1-.8-1.9-1.2-2.5-1.5-.3-.2-.6-.3-.9-.7"/>
      <path class="st12" d="M373.3,245.8c-2-1.4-4.5-3.2-6.6-4.3-2.6-1.4-4.6-3.2-8.2-5.8-4.4-3.2-6.7-3.1-9.9-2.9-.6,0-.6.9-.4,1.5.6,2.1,2.6,4.1,4.6,6.2,2.1,2.2,4.1,3.6,6,5,1.9,1.4,3.7,2.9,5.6,4.2,1.8,1.2,4.1,2,6.1,2.8,2,.8,3.7,1.9,5.6,2.8,1.9.9,3.7,1.6,6.7,1.5.7,0,.9-.7,1.1-1.5.4-1.8-.2-3.4-.9-4.4-1.9-2.4-4.1-3.3-5.9-4.2-1.9-1-3.3-1.6-4.2-2.2-.5-.2-.9-.4-1.4-.5"/>
      <path class="st12" d="M329,257.6c0-3.4-.3-7.6-2.1-11-4.7-9-9.1-9.7-11.3-11.1-1-.6-1.9-1.1-2.6-.9-3,.6,1.3,5.8,2.4,8.2,1.4,3.3,3.9,5.1,5.5,7.1,1.5,1.8,3,3.6,4.8,5,1,.6,1.9,1.1,2.9,1.4.5.2,1,.3,1.4.5"/>
      <path class="st1" d="M940.3,390.7c2.3-4.6,3.7-7.1,4.7-8.7.9-1.4,2-2.1,2.6-2.8.9-1.1,4.6-3.4,9.8-6.3,4.5-2.6,6.5-3.6,8.8-4.9,3.3-2,4.6-2.7,5.9-3.4,1.1-.6,2.4-1.1,3.6-1.7,1.2-.6,2.9-1.5,5.4-2.8.9-.5,4.3-2.4,9.2-5.1,3.9-2.1,10-4.3,12.7-4.8,1.3-.2,2.9-.4,5.4-.6,2.7-.1,5.8,0,7,.4.6.2,1.1.8,1.4,1.4.3.5.4,1.9.1,3.7-.3,2.4-2.4,2.9-3.6,3.7-1.1.7-2.4,1.1-5.3,2.4-2.2,1-8.2,3.9-11.2,5.5-2,1.1-5.3,2.6-7.7,3.6-1.7.8-2.9,1.4-4.3,1.9-1.6.5-2.7,1.3-4,1.9-2.1,1.1-4.2,1.6-5.7,2.2-1.3.5-2.7,1.3-5,2.2-3.4,1.4-4.9,2.4-7.1,3.4-5.7,2.7-7.5,4.1-9,4.9-1.2.7-2.6,1.2-3.9,1.7-1.4.5-2.8.9-4.1,1.5-1.2.5-2.6,1-4.1,1.3-.6,0-1.2.1-1.7.1-.2,0-.2-.4-.2-.7"/>
      <path class="st1" d="M929.6,357c.6,0,5.1-.2,11.6-.6,3.6-.2,5.2-1.9,8.9-4.4,3.1-2.1,5.3-4,7.1-5.4,1.1-.9,2.6-1.7,4.1-2.6,1.2-.7,2.7-1.7,4.2-2.6,2.2-1.3,3.9-2.2,5.1-2.6.7-.2,2.6-.3,5.1-.2.9,0,1.1.5,1.2,1.3.5,3.7-.9,5-1.9,6.5-1.1,1.6-4.1,4.3-6.9,6.7-2,1.7-5.6,4.2-10,6.8-2.7,1.6-5.6,3.4-6.9,4.1-1.4.8-2.7,1.3-4.9,2.6-1.9,1.2-3.8,1.7-5.3,2.5-1.3.7-2.9,1-4.5,1.3-2.9.5-7.8,0-9-.4-1.3-.4-2.6-1-3.7-1.9-1.1-.8-.9-3.2-.6-5,.3-1.4,1-2.5,1.7-3.7.9-1.1,1.7-1.6,2.6-1.8.6,0,1.6,0,3.1-.4"/>
      <path class="st1" d="M1041.2,358.6c0-2.2.8-9.4,1.2-11.9.3-1.7,1.1-4.2,1.4-5.8.2-1.4.3-4.3-.2-6.3-.3-1.3-2.3-.9-3.7-.8-1.4.1-1.6,2.5-2.2,4.4-.5,1.7-.5,3.5-.7,4.8-.1,1.5-.6,2.9-.7,5,0,1.6-.4,3.1-.4,6s1.1,2.7,2.1,3.5c1,.5,1.7.9,2.2,1,.2,0,.5.1.7.2"/>
      <path class="st1" d="M991.6,339.8c4-1.8,7.5-3.8,12.4-6.6,8.3-4.7,10.8-4.9,12.3-5.3,1.8-.5,3.4-.7,5-.9,1.4-.1,3.1-.5,6.8-.5.8,0,1.1.3,1.3.5,1,1.2.5,3.3.4,3.9-.5,3.5-7.2,4-9,4.5-1.7.5-3,1-6.1,2.1-2.3.8-4.9,2-7.1,3-1.4.6-2.8,1.8-4.3,2.7-1.2.7-2.9,1.7-4.4,2.5-1.7.8-3.8,1.4-5.2,2-1.4.7-2.8.9-4.2,1.3-1.2.4-2.6.6-3.8.5-.5,0-.5-.4-.6-.8-.2-1.5.7-2.7,1.5-4,1.2-1.9,2.3-2.9,3.3-4.1.3-.3.6-.5.9-.7.3-.2.6-.4,1.4-.6"/>
      <path class="st1" d="M977.4,328c1.5-.1,2.8-.7,8.3-3.2,3.3-1.5,8.5-4.7,11.4-6.4,4.5-2.7,6.7-4.8,8.3-5.8,2.1-1.4,4.6-2.9,6.4-3.6,2.3-.9,5.9-.1,6.5.4.6.5.9,2.2.7,4.4-.2,3.4-4.6,5.5-6.9,7.4-1.5,1.1-2.8,1.8-4.2,2.4-2,.9-3.7,1.8-5.4,2.6-3.9,1.8-5.4,2.9-6.6,3.5-1.4.7-2.8,1.7-4.3,2.2-2.1.7-3.4,1.3-4.8,1.4-1.6.2-6.2.6-9.1.2-1.3-.2-2.3-.8-3.4-1.5-.3-.2-.3-.6-.3-.9,0-.3,0-.6.3-.9,1.1-.8,2-1.2,2.5-1.5.3-.2.6-.3.9-.7"/>
      <path class="st1" d="M987.4,307.8c2-1.4,4.4-3.2,6.4-4.3,2.6-1.3,4.5-3.2,8-5.8,4.3-3.2,6.5-3.1,9.7-2.9.6,0,.5.9.4,1.5-.6,2.1-2.6,4.1-4.5,6.2-2,2.2-4,3.6-5.8,5-1.8,1.4-3.6,2.9-5.5,4.2-1.8,1.2-3.9,2-5.9,2.8-1.9.8-3.6,1.9-5.5,2.8-1.9.9-3.6,1.6-6.5,1.5-.7,0-.9-.7-1.1-1.5-.4-1.8.1-3.4.9-4.4,1.8-2.4,3.9-3.3,5.8-4.2,1.8-1,3.2-1.6,4.1-2.2.5-.2.9-.4,1.4-.5"/>
      <path class="st1" d="M1031,319.6c0-3.6.3-8,2.1-11.5,4.7-9.4,9.1-10.1,11.3-11.5,1-.6,1.9-1.1,2.6-.9,3,.6-1.3,6.1-2.4,8.6-1.4,3.4-3.9,5.3-5.5,7.4-1.5,1.9-3,3.8-4.8,5.2-1,.6-1.9,1.1-2.9,1.4-.5.2-.9.3-1.4.5"/>
      <path class="st1" d="M49.4,96.6c-8,0-20.7-.6-22.4-1.8-.8-.6-1.4-1.5-1.8-2.1-1.1-1.4,6.3-1.7,10-2.5,5.8-1.7,10.5-4,14.8-5.7.7-.2,1.1-.4,2-.9"/>
      <path class="st1" d="M28,116.6c-3.5,0-8.7.3-15.8,1.4-8.8,1.4-14.1,1.9-13.1,2.4,5.7,3.4,16.9,5.3,20.3,6,2.2.5,4.2,1.1,6,1.4.4,0,.9.2,1.3.3.4,0,.9,0,1.3.5"/>
      <path class="st1" d="M67.8,134.6c-7.8,0-14.4.6-16.9,1-2.3.3-4,1-4.6,1.4-1.6.9,4.1,2.1,10.4,5.1,5.2,2.5,11,5,15,6.6,1.3.7,2.2,1.1,3,1.5.4.2.9.3,1.3.5"/>
      <path class="st1" d="M72.8,164.6c-3.8,1.5-11.9,4.7-14.2,5.7-2.1.9-3.9,1.7-5.7,2.8-2.2,1.4-3.4,2.4-3.9,3.1-.3.3,0,.8.4,1.1,2.4,1.6,5.6,1.5,19.2,4.4,4.3.7,6.1,1,7.4,1.1.6,0,1,.2,1.9.8"/>
      <path class="st1" d="M93.8,112.6c-3.8,1.4-11.9,4.5-14.2,5.4-2.1.8-3.9,1.6-5.7,2.6-2.2,1.3-3.4,2.3-3.9,2.9-.3.3,0,.8.4,1,2.4,1.6,5.6,1.4,19.2,4.2,4.3.7,6.1,1,7.4,1.1.6,0,1,.2,1.9.8"/>
      <path class="st1" d="M85,195.6c-3.7,1.4-11.5,4.5-13.7,5.4-2,.8-3.7,1.6-5.5,2.6-2.1,1.3-3.2,2.3-3.8,2.9-.2.3,0,.8.4,1,2.3,1.6,5.4,1.4,18.5,4.2,4.1.7,5.9,1,7.2,1.1.6,0,1,.2,1.8.8"/>
      <path class="st1" d="M160.9,207.7c-3.3,2.6-10.1,8.2-12,9.8-1.8,1.5-3.2,2.8-4.6,4.4-1.7,2-2.5,3.4-2.9,4.2-.2.4.2.8.7.9,2.8.8,5.9-.4,20-1.9,4.4-.6,6.3-1,7.5-1.3.6-.1,1-.1,2.1.2"/>
      <path class="st1" d="M165.9,175.4c-3.3,2.6-10.1,8.2-12,9.8-1.8,1.5-3.2,2.8-4.6,4.4-1.7,2-2.5,3.4-2.9,4.2-.2.4.2.8.7.9,2.8.8,5.9-.4,20-1.9,4.4-.6,6.3-1,7.5-1.3.6-.1,1-.1,2.1.2"/>
      <path class="st1" d="M42.8,155.6c-3.9,0-12.4,0-21.8.1-2.9,0-2.1.4-.8.9,5.3,2,7.5,2.8,14,5.2,3.7,1.4,8.8,3.2,11.9,4.4.9.3,1.8.6,2.6.9.4.1.8.3,1.3.4"/>
      <path class="st1" d="M10.5,159.6c-13.7-4.3-17.9-6.2-20.6-7.1-1.9-.7-4.9-2-6.8-2.8-.6-.3,2.2-.7,4-1.2,1.6-.5,8.1-1.9,17.3-3.6,5.4-.8,8.2-1.4,9.9-1.8.4-.1.8-.3,1.7-.4"/>
      <path class="st1" d="M12,181.6c-.6,0-1.1,0-6.4,0-5.2,0-15.2-.2-20.1-.5-5-.3-4.7-.7-4.3-1.1,1.5-1.8,3.9-3.4,6.9-4.7,2-.8,3.6-1.6,5.3-2.5.8-.4,1.7-.8,2.5-1.3.4-.3.8-.6,1.3-.9"/>
      <path class="st1" d="M39,199.6h-9.3c-6.5,0-17.9,0-23.3-.2-5.4-.2-4.6-.6-3.7-1,1.7-.7,8.1-3.4,16.7-7.2,4.9-2.4,7.4-3.4,8.3-3.8.4-.2.9-.5,1.3-.8"/>
      <path class="st10" d="M55,220.6h-11.1c-5.6,0-14.1,0-18.3-.2-4.2-.2-3.9-.6-3.3-1.1,2.5-2.1,4.5-2.6,6.6-3.8,2.1-1.1,5.3-2.9,7.9-4.3,2.2-1,3.5-1.4,4.3-1.7.4-.1.9-.3,2.2-.9"/>
      <path class="st10" d="M11.5,258.6c-8,0-14.9.6-17.5,1-2.3.3-4.1,1-4.8,1.4-1.7.9,4.2,2.1,10.8,5.1,5.4,2.5,11.3,5,15.5,6.6,1.3.7,2.2,1.1,3.1,1.5.4.2.9.3,1.3.5"/>
      <path class="st10" d="M17,288.6c-3.7,1.5-11.5,4.7-13.7,5.7-2,.9-3.7,1.7-5.5,2.8-2.1,1.4-3.2,2.4-3.8,3.1-.2.3,0,.8.4,1.1,2.3,1.6,5.4,1.5,18.5,4.4,4.1.7,5.9,1,7.2,1.1.6,0,1,.2,1.8.8"/>
      <path class="st2" d="M0,343.6h-11.1c-5.6,0-14.1,0-18.3-.2-4.2-.2-3.9-.6-3.3-1,2.5-2,4.5-2.4,6.6-3.5,2.1-1,5.3-2.6,7.9-3.9,2.2-.9,3.5-1.3,4.3-1.6.4-.1.9-.3,2.2-.8"/>
      <path class="st1" d="M125.4,206.6c-8,0-20.7-.6-22.4-1.8-.8-.6-1.4-1.5-1.8-2.1-1.1-1.4,6.3-1.7,10-2.5,5.8-1.7,10.5-4,14.8-5.7.7-.2,1.1-.4,2-.9"/>
      <path class="st1" d="M111.3,186.6c-8.3,0-21.5-.6-23.2-1.8-.9-.6-1.4-1.5-1.9-2.1-1.1-1.4,6.5-1.7,10.4-2.5,6-1.7,10.9-4,15.4-5.7.7-.2,1.1-.4,2.1-.9"/>
      <path class="st10" d="M103,225.6c-3.4,0-8.4.3-15.2,1.4-8.5,1.4-13.6,1.9-12.7,2.4,5.5,3.4,16.3,5.3,19.6,6,2.1.5,4.1,1.1,5.8,1.4.4,0,.8.2,1.3.3s.8,0,1.3.5"/>
      <path class="st10" d="M142.8,244.6c-7.8,0-14.4.6-16.9,1-2.3.3-4,1-4.6,1.4-1.6.9,4.1,2.1,10.4,5.1,5.2,2.5,11,5,15,6.6,1.3.7,2.2,1.1,3,1.5.4.2.9.3,1.3.5"/>
      <path class="st10" d="M148.9,274.6c-3.8,1.5-11.9,4.7-14.2,5.7-2.1.9-3.9,1.7-5.7,2.8-2.2,1.4-3.4,2.4-3.9,3.1-.3.3,0,.8.4,1.1,2.4,1.6,5.6,1.5,19.2,4.4,4.3.7,6.1,1,7.4,1.1.6,0,1,.2,1.9.8"/>
      <path class="st10" d="M118.5,263.6c-4.1,0-12.8,0-22.5.1-3,0-2.1.4-.8,1,5.4,2.2,7.8,3.1,14.5,5.7,3.8,1.5,9.1,3.5,12.3,4.8,1,.4,1.8.7,2.7,1,.4.2.9.3,1.3.5"/>
      <path class="st10" d="M87.3,270.6c-14.1-4.8-18.4-6.9-21.2-8-2-.7-5.1-2.2-7.1-3.2-.6-.3,2.2-.8,4.1-1.4,1.6-.5,8.4-2.2,17.8-4,5.6-.9,8.5-1.6,10.2-2,.4-.2.9-.3,1.7-.5"/>
      <path class="st10" d="M50,261.6c-.3,0-8.2,0-19.9.1-3.8,0-3.4.4-2.6.9,3.3,2.3,5.4,3.6,7.9,5.2,4.4,2.8,7.6,4.5,9.7,5.6.9.4,1.8.6,2.7,1,.4.2.9.5,2.2,1.2"/>
      <path class="st10" d="M54.6,244.6c-23.5-2.1-27.1-2.6-30.1-3.5-.9-.3-.2-.5.4-.6,1.4-.1,3.3-.3,5.4-.8,1.7-.3,7.8-1.4,16.2-3.4,3.8-1.1,5-1.5,6.1-1.7.7,0,1.5,0,2.4,0"/>
      <path class="st10" d="M88,290.6c-.6,0-1.2,0-6.8,0-5.6,0-16.1-.2-21.4-.4-5.3-.3-5-.6-4.6-1,1.6-1.6,4.1-3.1,7.4-4.2,2.1-.8,3.8-1.4,5.6-2.2.9-.3,1.8-.7,2.7-1.2.5-.3.9-.5,1.4-.8"/>
      <path class="st1" d="M669.7,12.6c-2.3-3.5-7.3-10.8-8.7-12.8-1.3-1.9-2.5-3.5-4-5-1.8-1.9-3.1-2.8-3.9-3.2-.3-.2-.8.2-1,.7-1,2.7-.1,5.9.2,20.1.3,4.4.4,6.3.6,7.6,0,.6,0,1-.4,2"/>
      <path class="st1" d="M702.6,12.2c-2.3-3.5-7.3-10.8-8.7-12.8-1.3-1.9-2.5-3.5-4-5-1.8-1.9-3.1-2.8-3.9-3.2-.3-.2-.8.2-1,.7-1,2.7-.1,5.9.2,20.1.3,4.4.4,6.3.6,7.6,0,.6,0,1-.4,2"/>
      <path class="st1" d="M691.4,51.5c-2.3-3.5-7.3-10.8-8.7-12.8-1.3-1.9-2.5-3.5-4-5-1.8-1.9-3.1-2.8-3.9-3.2-.3-.2-.8.2-1,.7-1,2.7-.1,5.9.2,20.1.3,4.4.4,6.3.6,7.6,0,.6,0,1-.4,2"/>
      <path class="st2" d="M657.7,51.5c-2.3-3.5-7.3-10.8-8.7-12.8-1.3-1.9-2.5-3.5-4-5-1.8-1.9-3.1-2.8-3.9-3.2-.3-.2-.8.2-1,.7-1,2.7-.1,5.9.2,20.1.3,4.4.4,6.3.6,7.6,0,.6,0,1-.4,2"/>
      <path class="st2" d="M621.2,51.5c-2.3-3.5-7.3-10.8-8.7-12.8-1.3-1.9-2.5-3.5-4-5-1.8-1.9-3.1-2.8-3.9-3.2-.3-.2-.8.2-1,.7-1,2.7-.1,5.9.2,20.1.3,4.4.4,6.3.6,7.6,0,.6,0,1-.4,2"/>
      <path class="st2" d="M584.8,65.6c-2.3-3.5-7.3-10.8-8.7-12.8-1.3-1.9-2.5-3.5-4-5-1.8-1.9-3.1-2.8-3.9-3.2-.3-.2-.8.2-1,.7-1,2.7-.1,5.9.2,20.1.3,4.4.4,6.3.6,7.6,0,.6,0,1-.4,2"/>
      <path class="st2" d="M553.9,71.2c-2.3-3.5-7.3-10.8-8.7-12.8-1.3-1.9-2.5-3.5-4-5-1.8-1.9-3.1-2.8-3.9-3.2-.3-.2-.8.2-1,.7-1,2.7-.1,5.9.2,20.1.3,4.4.4,6.3.6,7.6,0,.6,0,1-.4,2"/>
      <path class="st1" d="M600.8-3c-3.2-2.7-10.1-8.2-12.1-9.7-1.8-1.4-3.4-2.6-5.3-3.6-2.3-1.3-3.8-1.8-4.7-2-.4,0-.7.4-.7.9-.2,2.9,1.6,5.7,6,19.2,1.5,4.1,2.2,5.9,2.8,7.1.2.5.3,1,.3,2.1"/>
      <path class="st1" d="M621.4,14.1c-4-6.9-9.8-18.1-9.6-20.2.1-1,.6-2,.9-2.6.7-1.7,4.6,4.5,7.2,7.4,4.4,4.1,8.8,7,12.4,9.9.5.5.9.8,1.8,1.2"/>
      <path class="st1" d="M583.9,27c-1.7-3-4.6-7.4-9.1-12.9-5.7-6.9-8.7-11.2-8.7-10.1-.2,6.7,3.8,17.3,4.8,20.6.7,2.2,1.1,4.3,1.8,5.9.2.4.2.9.4,1.3s.4.8.2,1.4"/>
      <path class="st1" d="M537.8,34.9c-3.2-14.5-3.6-19.4-4.2-22.2-.4-2.1-.7-5.5-1-7.6,0-.7,1.8,1.6,3.2,2.9,1.3,1.2,6,6.3,12.3,13.6,3.6,4.4,5.5,6.7,6.8,8,.3.3.7.6,1.3,1.3"/>
      <path class="st1" d="M526-1.3c-.1-.3-4.1-7.2-10.1-17.2-1.9-3.3-2.1-2.7-2.1-1.8-.4,4-.5,6.6-.7,9.5-.3,5.3-.3,8.9-.1,11.3.2,1,.3,1.9.5,2.9,0,.5,0,1,0,2.5"/>
      <path class="st1" d="M519.2,46.7c-.3-.5-.6-1-3.2-5.7-2.7-4.7-7.7-13.7-10-18.3-2.3-4.6-1.8-4.6-1.2-4.5,2.4.4,5,1.7,7.8,3.8,1.8,1.4,3.3,2.4,5,3.5.8.6,1.6,1.1,2.5,1.6.5.2.9.5,1.4.7"/>
      <path class="st10" d="M115,309.6h-9.3c-6.5,0-17.9,0-23.3-.2-5.4-.2-4.6-.6-3.7-1,1.7-.7,8.1-3.4,16.7-7.2,4.9-2.4,7.4-3.4,8.3-3.8.4-.2.9-.5,1.3-.8"/>
      <path class="st10" d="M131,328.6h-10.7c-5.5,0-13.6,0-17.7-.2-4.1-.2-3.8-.5-3.2-.9,2.4-1.8,4.3-2.2,6.4-3.2,2-1,5.1-2.4,7.6-3.6,2.1-.8,3.4-1.2,4.2-1.4.4-.1.8-.2,2.1-.7"/>
      <path class="st10" d="M56.4,340.6c-8,0-20.7-.6-22.4-1.8-.8-.6-1.4-1.5-1.8-2.1-1.1-1.4,6.3-1.7,10-2.5,5.8-1.7,10.5-4,14.8-5.7.7-.2,1.1-.4,2-.9"/>
      <path class="st8" d="M153.7-8.3c-1.7-3.2-3.1-4.3-4.2-4.8-1-.4-1.8-.9-3.7-1.5-1.8-.6-3.1-.6-4.8-.8-1.7-.1-3,0-5.5,1-2.4,1-5.2,4.1-6.1,5.1-1,1-1.8,1.7-2.7,2.6-1.4,1.6-2.2,3.2-3.5,5.5-.9,1.8-1.8,3.5-2.4,4.8-1.1,2.4-1.1,3.8-1.5,5.9-.2.9-.2,1.6-.3,2.9-.2,2.8.2,6,.8,8.5.6,2.5,1.4,4.1,1.8,5.3,1.5,4.5,3,6.1,5.3,9.4,1.5,2.1,2.9,2.6,4.1,3.3,1.2.8,2.5,1.5,5.2,2.9,2,1,4.4,1.5,6.2,1.6,1.9.1,5.7-.4,7.5-1.2,2.3-1,4.5-3.2,5.6-4.5.9-1,1.7-2,2.8-3.5,1.9-2.5,3.6-7.1,4.3-9.7.3-1.1.4-2.5.7-3.6.4-1.5.4-2.9.5-4,0-.5.2-3.6.1-8.1,0-3-.8-4.2-1.2-5.7-.6-2.1-1.2-3-1.9-4-1-1.4-1.8-2.2-2.5-3.1-.6-.9-1.6-1.5-2.5-2.1-.9-.6-1.8-1.2-2.5-2-.5-.9-.8-1.6-1.1-2-.1-.2-.2-.5-.3-.7"/>
      <path class="st8" d="M111.2,60.1c-.4-.6-.9-1.1-3.5-2.1-2.4-1-6.9-2.7-9.4-3.6-3.4-1.2-4.5-1.1-6.6-1.5-1.1-.2-4.1-.3-8.3-.1-4.2.1-5.7,1.4-6.9,2-1.5.7-3.9,3.2-5.3,5.3-1.5,2.3-1.7,3.4-2.3,4.8-.6,1.5-.9,3.4-.9,10,0,3.2,1.9,6,2.4,7,.7,1.4,1.8,2.7,2.6,3.6,1.1,1.3,3.2,2.8,4.5,3.8,1.3,1,2.9,1.8,3.8,2.3,1,.6,2.6.5,3.6.7,1.2.2,2.7.3,5.8.5,2.2.1,6.5,0,8.8,0,2.6,0,5.8-.2,10.1-.2,2.5,0,4.5.3,6.5.8,2.9.7,6.7-.3,7.9-.9,1.1-.5,2.4-1.5,3.4-2.8,1.3-1.7,1.3-4.7,1.5-6.4.2-2-.3-3.6-.8-5-.4-1.2-2.1-3-3.4-4.5-2.7-3.1-3.4-4.1-4.3-5.2-.7-.9-1.7-1.7-3.4-3.3-.8-1.1-2.4-2.9-3.8-4-.2-.1-.4-.2-.7-.3"/>
      <path class="st8" d="M178,65.3c-2.2-1.1-4.6-2.1-5.7-2.4-2.4-.6-6.6,0-8.1.9-1.3.7-2.1,1.6-3.1,2.6-.8.8-1.5,1.9-2.1,3.7-.9,2.5-1,3.8-1,7.8,0,1.9.5,4,2.5,9.8,1.6,4.4,3.7,6.3,4.6,7.5.9,1,2.1,2,2.9,2.7,1,.8,2.1,1.2,3.3,1.7,1.2.6,3.3,1,6.5,1.1,1.4,0,3.3-1.5,4.8-2.4,1.3-.8,3.6-3,5.1-4.8,1.2-1.4,2.4-4.1,2.9-6.3.3-1.2.4-2.5.4-5.5,0-1.6-.5-2.7-1.1-4.2-.6-1.7-.8-2.6-1.1-3.4-.3-.9-.8-1.8-1.4-2.7-1-1.5-2.6-2.5-3.5-3.1-1-.7-1.8-1.2-2.6-1.5-.2-.1-.4-.3-.7-.4-.2-.1-.4-.2-.9-.5"/>
      <path class="st8" d="M143.6,126.6c-1.7-.7-5.9-2.4-7.6-2.9-2.8-.8-7-1.7-8.8-1.9-5-.5-8.5,1.7-9.6,2.8-1.5,1.4-2.4,4.6-2.9,5.8-.2.5-.4,1.6-.6,4.5-.2,2,0,5.1.2,8,.6,5.6,1.6,8.7,2,9.6,1,2.3,1.9,3.3,2.7,4.5.8,1.2,2,2.5,2.8,3.2.8.7,1.6,1.5,2.4,2.2.8.6,2.1,1.1,3.1,1.7,1.5.7,3,1.3,5.8,1.7,1.5.2,4,0,6.2-.2,6.1-.7,7.5-2.2,9.1-3.5,2.2-1.8,2.6-3.2,3.3-4.9,1.1-2.5,1.9-7.1,2.1-10.1.5-6.6-.5-8.2-.8-9.7-.3-1.2-.9-2.5-1.5-3.8-.4-.9-1-1.8-1.8-2.7-.8-.9-1.7-1.3-2.6-1.6-.9-.4-1.7-.9-2.6-1.3-.2,0-.4-.1-.7-.2-.2,0-.4-.1-.7-.2"/>
      <path class="st8" d="M208.9,116.2c-2.2,0-4-.1-6.4-.4-3-.3-5.4.1-6.8.8-4.6,2.2-5.9,3.8-7.6,5.3-1,.9-2,2-2.8,3-.9,1.3-2.1,2.5-2.8,3.4-1.2,1.6-3.2,5.2-4.1,6.8-.7,1.3-1.6,4.5-2,6.5-.2,1.2-.3,2.7-.4,7.8,0,2.2.8,4.3,1.8,6.9.5,1.4,1.5,2.8,3.4,4.8,1.1,1.1,2.3,1.7,3.4,2.4,1.6,1.1,5.3,1.4,7.8.8,1.3-.3,2.6-1.3,4.1-2.3,2.4-1.5,3.6-2.9,6.5-5.9,1.5-1.5,4.1-5.4,5.9-7.7,1.1-1.4,1.7-2.9,2.6-4.6.6-1.2,1.2-2.4,1.6-3.3.4-.9.9-2,1.3-2.9.3-.9.9-1.8,1.3-2.9.3-1,.7-2.2.9-3.4.2-1.2.4-5.8.2-8.6,0-1.2-1.1-2.1-1.8-3.1-.7-.9-1.7-1.5-2.6-1.8-.9-.3-1.8-.5-2.7-.5-.4,0-.6-.1-1-.2"/>
      <path class="st8" d="M97.7-19.8c-2.3,0-4.1-.1-6.5-.4-3.1-.3-5.5.1-7,.8-4.7,2.2-6,3.8-7.8,5.3-1,.9-2,2-2.9,3-1,1.3-2.2,2.5-2.9,3.4-1.2,1.6-3.3,5.2-4.2,6.8-.7,1.3-1.6,4.5-2,6.5-.2,1.2-.3,2.7-.4,7.8,0,2.2.9,4.3,1.9,6.9.6,1.4,1.6,2.8,3.5,4.8,1.1,1.1,2.3,1.7,3.5,2.4,1.7,1.1,5.4,1.4,8,.8,1.3-.3,2.7-1.3,4.2-2.3,2.5-1.5,3.6-2.9,6.7-5.9,1.5-1.5,4.2-5.4,6-7.7,1.1-1.4,1.7-2.9,2.6-4.6.6-1.2,1.2-2.4,1.6-3.3.4-.9.9-2,1.3-2.9.3-.9,1-1.8,1.3-2.9.4-1,.7-2.2.9-3.4.2-1.2.4-5.8.2-8.6,0-1.2-1.1-2.1-1.8-3.1-.7-.9-1.7-1.5-2.6-1.8-.9-.3-1.9-.5-2.7-.5-.4,0-.6-.1-1-.2"/>
      <path class="st7" d="M200,129.6c-1.9,1.4-2.3,1.7-3.6,3-.9.9-1.8,1.8-2.3,2.5-.3.3-.6.8-1.1,1.5"/>
      <path class="st7" d="M201,136.6c-.6.8-1.3,2-1.8,2.6-.4.5-.8,1.1-1.4,1.7-.9.9-1.2,1.1-1.4,1.3-.1,0-.2.2-.4.4"/>
      <path class="st7" d="M190,143.6v7"/>
      <path class="st7" d="M127,136.6c0,.8.6,2.7,1.2,3.8.1.3.2.4.3.6.1.2.3.3.5.6"/>
      <path class="st7" d="M134,134.6c.7.6,1.9,2.2,2.2,2.8.3,1.2.7,2.9.7,3.3,0,.2,0,.4.1.9"/>
      <path class="st7" d="M134,148.6c.6.4,1,.9,3,1.9.4.1.5,0,.6,0,0-.1.2-.3.4-.8"/>
      <path class="st7" d="M169,77.6c0,.2.6,1.4,1.6,3.1.5.7.7,1,1.2,1.2.3.2.7.4,1.3.7"/>
      <path class="st7" d="M177,76.6c.5,1.2.8,2,.8,2.3,0,.1,0,.2,0,.3,0,0,0,.2,0,.4"/>
      <path class="st7" d="M178,86.6v2"/>
      <path class="st7" d="M83,72.6c.2,0,.4,0,1.8.4s3.9.8,5.3,1.1c1.5.3,1.7.3,2,.4.2,0,.4,0,.9.1"/>
      <path class="st7" d="M89,66.6s3.3,0,5.5,0c1,0,1.8.2,2.4.4.4,0,.9.2,1.5.3.2,0,.3,0,.7.2"/>
      <path class="st7" d="M99,79.6c.3,0,1.2,0,2.3,0,.4,0,.5,0,.7-.2.2-.2.5-.5,1-.8"/>
      <path class="st7" d="M111,76.6c.4.3.8.7,1.1.9.2.2.4.5.6.6,0,0,.1.2.3.4"/>
      <path class="st7" d="M140,2.6c-1.5,1.8-1.8,2.6-2,4.1,0,2.1,0,3.7.2,4.1,0,.2.1.3.4.8"/>
      <path class="st7" d="M147,6.6v.9c0,.7,0,2-.2,3.1-.2,1.1-.7,2-1.8,3"/>
      <path class="st7" d="M137,20.6c0,.9.6,2.2,1.8,3.3.3.2.4.4.8.4.3,0,.9.2,1.4.2"/>
      <path class="st7" d="M147,29.6c.1,0,.3,0,.6-.2.1-.1.2-.2.3-.3,0-.1.1-.2-.1-.4"/>
      <path class="st7" d="M80-1.3c-.1,0-.3,0-.4,0-.3,0-1.1,1-2.1,2.4-.8,1.1-1.1,2.6-1.2,3.3,0,.9-.2,1.5-.2,1.9,0,.1,0,.2,0,.4"/>
      <path class="st7" d="M83.9,7.6c0,0,.1.9,0,2.2-.2,1.1-.6,1.9-1.4,2.7-.6.5-1.5,1.3-2.6,2"/>
      <path class="st7" d="M90,1.6c.8-.6,1.3-1.1,1.6-1.3.1-.1.2-.2.2-.3,0-.1,0-.3.2-.4"/>
      <path class="st8" d="M793.9,6.7c-1.7-3.2-3-4.3-4.1-4.8-.9-.4-1.8-.9-3.6-1.5-1.8-.6-3-.6-4.7-.8-1.6-.1-3,0-5.4,1-2.4,1-5,4.1-6,5.1-.9,1-1.8,1.7-2.6,2.6-1.4,1.6-2.2,3.2-3.4,5.5-.9,1.8-1.8,3.5-2.3,4.8-1.1,2.4-1.1,3.8-1.5,5.9-.2.9-.2,1.6-.3,2.9-.2,2.8.2,6,.7,8.5.6,2.5,1.3,4.1,1.7,5.3,1.4,4.5,3,6.1,5.2,9.4,1.5,2.1,2.9,2.6,4,3.3,1.2.8,2.4,1.5,5.1,2.9,1.9,1,4.3,1.5,6,1.6,1.8.1,5.6-.4,7.3-1.2,2.2-1,4.4-3.2,5.5-4.5.9-1,1.7-2,2.7-3.5,1.8-2.5,3.5-7.1,4.2-9.7.3-1.1.4-2.5.7-3.6.4-1.5.4-2.9.5-4,0-.5.2-3.6.1-8.1,0-3-.8-4.2-1.1-5.7-.5-2.1-1.1-3-1.8-4-1-1.4-1.8-2.2-2.4-3.1-.6-.9-1.5-1.5-2.4-2.1-.9-.6-1.8-1.2-2.5-2-.5-.9-.8-1.6-1.1-2-.1-.2-.2-.5-.3-.7"/>
      <path class="st7" d="M781,17.6c-1.5,1.8-1.8,2.6-2,4.1,0,2.1,0,3.7.2,4.1,0,.2.1.3.4.8"/>
      <path class="st7" d="M786,20.6v1c0,.8,0,2.3-.1,3.5-.1,1.3-.4,2.3-.9,3.5"/>
      <path class="st7" d="M778,35.6c0,.9.5,2.2,1.4,3.3.2.2.3.4.6.4s.6.2,1,.2"/>
      <path class="st7" d="M786,44.6c.1,0,.3-.1.6-.5.1-.2.2-.5.3-.7,0-.2.1-.4-.1-.8"/>
      <path class="st8" d="M740.7,39.8c-1.7-3.3-3.1-4.4-4.2-4.9-1-.4-1.8-1-3.7-1.5-1.8-.6-3.1-.7-4.8-.8-1.7-.1-3,0-5.5,1-2.4,1.1-5.2,4.2-6.1,5.2-1,1-1.8,1.7-2.7,2.7-1.4,1.6-2.2,3.2-3.5,5.6-.9,1.8-1.8,3.6-2.4,4.9-1.1,2.4-1.1,3.9-1.5,6-.2.9-.2,1.6-.3,3-.2,2.9.2,6.1.8,8.6.6,2.6,1.4,4.1,1.8,5.4,1.5,4.6,3,6.2,5.3,9.5,1.5,2.1,2.9,2.6,4.1,3.3,1.2.8,2.5,1.6,5.2,3,2,1,4.4,1.5,6.2,1.6,1.9.1,5.7-.4,7.5-1.3,2.3-1.1,4.5-3.2,5.6-4.5.9-1.1,1.7-2.1,2.8-3.6,1.9-2.6,3.6-7.2,4.3-9.9.3-1.1.4-2.5.7-3.6.4-1.5.4-2.9.5-4,0-.5.2-3.6.1-8.3,0-3.1-.8-4.3-1.2-5.8-.6-2.2-1.2-3-1.9-4-1-1.4-1.8-2.2-2.5-3.1-.6-.9-1.6-1.5-2.5-2.1s-1.8-1.2-2.5-2.1c-.5-.9-.8-1.6-1.1-2.1-.1-.2-.2-.5-.3-.7"/>
      <path class="st7" d="M728,51.6c-1.5,1.6-1.8,2.3-2,3.6,0,1.9,0,3.3.2,3.6,0,.2.1.3.4.7"/>
      <path class="st7" d="M733,55.6v.9c0,.7,0,2-.1,3.1-.1,1.1-.4,2-.9,3"/>
      <path class="st7" d="M723,68.6c0,.9.8,2.2,2.3,3.3.3.2.5.4,1,.4.4,0,1.1.2,1.7.2"/>
      <path class="st7" d="M733,78.6c.1,0,.3-.1.6-.5.1-.2.2-.5.3-.7s.1-.4-.1-.8"/>
      <path class="st8" d="M746.9-34.5c-1.7-3.1-3-4.2-4.1-4.6-.9-.4-1.8-.9-3.6-1.5-1.8-.5-3-.6-4.7-.7-1.6-.1-3,0-5.4,1-2.4,1-5,4-6,5-.9,1-1.8,1.6-2.6,2.6-1.4,1.5-2.2,3.1-3.4,5.4-.9,1.7-1.8,3.4-2.3,4.6-1.1,2.3-1.1,3.7-1.5,5.7-.2.8-.2,1.5-.3,2.8-.2,2.7.2,5.8.7,8.2.6,2.4,1.3,3.9,1.7,5.1,1.4,4.3,3,5.9,5.2,9,1.5,2,2.9,2.5,4,3.2,1.2.7,2.4,1.5,5.1,2.8,1.9,1,4.3,1.4,6,1.5,1.8.1,5.6-.4,7.3-1.2,2.2-1,4.4-3.1,5.5-4.3.9-1,1.7-2,2.7-3.4,1.8-2.5,3.5-6.9,4.2-9.4.3-1,.4-2.4.7-3.5.4-1.4.4-2.8.5-3.8,0-.5.2-3.4.1-7.8,0-2.9-.8-4.1-1.1-5.5-.5-2-1.1-2.9-1.8-3.8-1-1.4-1.8-2.1-2.4-3-.6-.8-1.5-1.4-2.4-2-.9-.6-1.8-1.2-2.5-2-.5-.9-.8-1.5-1.1-2-.1-.2-.2-.4-.3-.7"/>
      <path class="st7" d="M739,2.6c.2,0,.6-.1,1.2-.5.3-.2.5-.5.6-.7.2-.2.3-.4-.3-.8"/>
      <path class="st9" d="M379.2,40.6c3.4,0,5.5,2.1,5.5,4.1,0,2-2.1,4.1-5.5,4.1-3.4,0-5.5-2.1-5.5-4.1,0-2,2.1-4.1,5.5-4.1Z"/>
      <path class="st9" d="M371,22.7c5.9.6,14.5-3.6,18.2,1,6.8,8.4,17.2,8.2,22.5,18.7,3.4,6.9,5.7,13.3,1.4,19.6-5.3,7.8-14-1.4-23.9,2.8-9.8,4.2-13.6.2-22.7,0-6.2-.1-7.9-3.5-13.8-5.6-4.4-1.6-7.3-3.9-8.4-8.4-1.3-5.2,3.4-7.7,5.6-12.6,2.2-4.9,1.5-9.2,5.6-12.6,4.7-3.9,9.3-3.5,15.4-2.8Z"/>
      <path class="st9" d="M379.2,48.9l-2.8,18.2"/>
      <path class="st9" d="M375,46.1l-29.5,7"/>
      <path class="st9" d="M376.4,41.9l-14-19.6"/>
      <path class="st9" d="M384.9,43.3l19.6-8.4"/>
      <path class="st9" d="M383.5,47.5l30.9,14"/>
      <path class="st9" d="M347-4.4v21.1"/>
      <path class="st9" d="M351.2-7.3l15.4,8.4"/>
      <path class="st9" d="M344.2-5.8L327.3-.2"/>
      <path class="st9" d="M379.2,40.6c3.4,0,5.5,2.1,5.5,4.1,0,2-2.1,4.1-5.5,4.1-3.4,0-5.5-2.1-5.5-4.1,0-2,2.1-4.1,5.5-4.1Z"/>
      <path class="st9" d="M371,22.7c5.9.6,14.5-3.6,18.2,1,6.8,8.4,17.2,8.2,22.5,18.7,3.4,6.9,5.7,13.3,1.4,19.6-5.3,7.8-14-1.4-23.9,2.8-9.8,4.2-13.6.2-22.7,0-6.2-.1-7.9-3.5-13.8-5.6-4.4-1.6-7.3-3.9-8.4-8.4-1.3-5.2,3.4-7.7,5.6-12.6,2.2-4.9,1.5-9.2,5.6-12.6,4.7-3.9,9.3-3.5,15.4-2.8Z"/>
      <path class="st9" d="M379.2,48.9l-2.8,18.2"/>
      <path class="st9" d="M375,46.1l-29.5,7"/>
      <path class="st9" d="M376.4,41.9l-14-19.6"/>
      <path class="st9" d="M384.9,43.3l19.6-8.4"/>
      <path class="st9" d="M383.5,47.5l30.9,14"/>
      <path class="st9" d="M362.4,9.6c5.1-7.4,3.6-13.6,5.6-22.5,2-8.8-11.2-18.2-11.2-18.2-5.6-2.8-5-2.5-8.4-2.8-5.7-.5-11.1,2.5-14,4.2-6.2,3.6-6.4,10-8.4,16.8-1.3,4.2-1.2,7.7,1.4,11.2,4,5.4-.2,13.9,4.2,16.8,4.4,3,13.7,1.7,22.5,2.8,8.8,1.1,5.8-4.6,8.4-8.4Z"/>
      <path class="st9" d="M267.2-33.5c5.9.6,14.5-3.6,18.2,1,6.8,8.4,17.2,8.2,22.5,18.7,3.4,6.9,5.7,13.3,1.4,19.6-5.3,7.8-14-1.4-23.9,2.8-9.8,4.2-13.6.2-22.7,0-6.2-.1-7.9-3.5-13.8-5.6-4.4-1.6-7.3-3.9-8.4-8.4-1.3-5.2,3.4-7.7,5.6-12.6,2.2-4.9,1.5-9.2,5.6-12.6,4.7-3.9,9.3-3.5,15.4-2.8Z"/>
      <path class="st9" d="M275.4-7.3l-2.8,18.2"/>
      <path class="st9" d="M279.6-8.7l30.9,14"/>
      <path class="st9" d="M267.2-33.5c5.9.6,14.5-3.6,18.2,1,6.8,8.4,17.2,8.2,22.5,18.7,3.4,6.9,5.7,13.3,1.4,19.6-5.3,7.8-14-1.4-23.9,2.8-9.8,4.2-13.6.2-22.7,0-6.2-.1-7.9-3.5-13.8-5.6-4.4-1.6-7.3-3.9-8.4-8.4-1.3-5.2,3.4-7.7,5.6-12.6,2.2-4.9,1.5-9.2,5.6-12.6,4.7-3.9,9.3-3.5,15.4-2.8Z"/>
      <path class="st9" d="M275.4-7.3l-2.8,18.2"/>
      <path class="st9" d="M279.6-8.7l30.9,14"/>
      <path class="st7" d="M-12.7,90.3c-.5-.2-1.6-.6-2.7-1.2-1.2-.6-2.1-.5-8.1-.5-2.2,0-3.2.5-3.6.8-.5.3-1.9,1.6-3.4,3.8-.9,1.3-.4,2.4,0,3.2.4,1,1.3,1.9,1.9,2.5,1.3,1.3,6,1.4,8,1,2.5-.4,3.7-2,4.9-2.9.9-.7,1.7-1.5,2.3-2.3.5-.6,1.2-1.7,1.7-2.4.4-.5,1-1.2,1.6-1.8.6-.6,1.1-1.3,3.2-3.6,1.1-1.2,2.1-1.9,4.6-3.5,2.3-1.5,5.1-2.2,7.5-2.7,2.3-.4,3.7,0,4,.2.6.5.8,1.5.8,4.4,0,1.4-1.3,2-1.9,2.3-1.6.8-4.6,1.4-5.3,1.5-.8.2-2.3.2-4,.3-4.4.4-5,.3-8,.4-1.2,0-1.6.4-1.9.5-.6.3-.1,1.4.4,2.9.3,1,.8,2.1,1.5,3.5.4.8.7,1.6,1,2.3.8,1.7,2.1,4.4,2.2,4.8,0,.2.1.4.2.5"/>
      <path class="st7" d="M-12.7,20.1c-.5-.1-1.6-.6-2.7-1-1.2-.5-2.1-.4-8.1-.4-2.2,0-3.2.5-3.6.7-.5.3-1.9,1.4-3.4,3.3-.9,1.1-.4,2.1,0,2.8.4.9,1.3,1.6,1.9,2.2,1.3,1.1,6,1.2,8,.9,2.5-.3,3.7-1.7,4.9-2.6.9-.6,1.7-1.3,2.3-2,.5-.6,1.2-1.5,1.7-2.1.4-.4,1-1.1,1.6-1.6.6-.5,1.1-1.2,3.2-3.2,1.1-1,2.1-1.6,4.6-3.1,2.3-1.3,5.1-2,7.5-2.3,2.3-.4,3.7,0,4,.2.6.5.8,1.3.8,3.8,0,1.2-1.3,1.8-1.9,2-1.6.7-4.6,1.2-5.3,1.3-.8.1-2.3.2-4,.3-4.4.3-5,.3-8,.4-1.2,0-1.6.3-1.9.5-.6.3-.1,1.3.4,2.6.3.9.8,1.9,1.5,3,.4.7.7,1.4,1,2,.8,1.5,2.1,3.8,2.2,4.2,0,.2.1.3.2.5"/>
      <path class="st7" d="M-3.8,61.5c-.2-.6-.7-1.5-1.9-2.8-.5-.6-1.7-1.9-3.4-3.5-1.4-1.3-3-2-5.1-2.8-2.6-1-5.1-1.1-6.6-1-1.3,0-2,.9-2.7,1.7-.5.5-.5,2-.4,3.7.2,2,2.2,2.9,4.1,4.4,1,.8,4.6,1.7,6.6,2.1,1.4.3,3.6.3,6.4.3,1.1,0,1.7-.5,2.4-1,1.5-1,2.3-3.3,3.6-4.9,1.6-2.1,3.2-3.4,4.4-4.4,3.9-3,5.2-3.3,6.2-3.5.8-.2,3.3-.2,4.8,0,.4,0,.7.5,1,1,.3.4.4,1,.3,2,0,1.3-1.2,2-2,2.7-1.2,1.1-2.2,1.4-2.9,1.7-.7.3-1.5.8-2.5,1.2-1.8.8-3.8,1.4-4.9,1.8-1.4.6-2.5.8-3.4,1-.8.2-1.5.3-2.2.7-.3.2-.6.4-.8.7-.4.8-.2,3.2,0,4.7,0,.7.4,1.4.7,2.2.2.8.6,1.4.8,2.1.3.8.9,1.4,1.3,2,.5.5.7,1.1,1,1.4.1.2.2.3.3.7"/>
      <path class="st7" d="M30.3,69c-1-.4-2.1-.8-3.3-1.2-1.1-.3-3.5-.4-6.6-.2-3.3.2-3.9,1.5-5.2,2.6-.7.6-.8,1.3-1.1,2.5-.3,1.4.3,2.1.8,2.8.6.8,1.8.9,4.3.8,2.9,0,3.4-1,4.1-1.4.8-.5,1.6-.9,2.5-1.6.8-.7,1.7-1.1,2.4-1.6,1.1-.8,2-1.8,2.7-2.4.7-.7,1.9-.9,2.9-1.3,1.1-.5,2.5-1.3,3.2-1.7.8-.4,1.5-.7,4-1.4,1.7-.5,2.9,0,3.2.2.6.5.8,1.2.8,2.4,0,.9-1.4,1.8-2.4,2.4-1.2.7-2.1.9-3,1.1-.9.2-1.8.3-3,.3-2.1.1-4.8,0-5.5-.2-.3-.1-.7-.2-.9-.2-.9.1,1,1.7,1.3,2.4.3.7.6,1.5,1.1,2.3.8,1.5,1.1,2.7,1.3,3.5.2.6.4,1.2.6,1.9,0,.2,0,.3.2.6"/>
      <path class="st7" d="M30.3,23.5c-1-.4-2.1-.9-3.3-1.3-1.1-.4-3.5-.4-6.6-.2-3.3.2-3.9,1.7-5.2,2.9-.7.7-.8,1.5-1.1,2.8-.3,1.6.3,2.3.8,3.1.6.9,1.8,1,4.3.9,2.9,0,3.4-1.2,4.1-1.6.8-.5,1.6-1,2.5-1.8.8-.8,1.7-1.2,2.4-1.8,1.1-.9,2-2,2.7-2.6.7-.8,1.9-1,2.9-1.5,1.1-.5,2.5-1.5,3.2-1.9.8-.5,1.5-.8,4-1.6,1.7-.5,2.9,0,3.2.2.6.5.8,1.3.8,2.7,0,1-1.4,2-2.4,2.6-1.2.8-2.1,1-3,1.3-.9.2-1.8.3-3,.4-2.1.2-4.8,0-5.5-.2-.3-.1-.7-.2-.9-.2-.9.1,1,1.9,1.3,2.7.3.8.6,1.7,1.1,2.6.8,1.7,1.1,3,1.3,3.9.2.7.4,1.4.6,2.1,0,.2,0,.3.2.7"/>
      <path class="st7" d="M49.8,46.2c-1-.4-2-.9-3.2-1.2-1.1-.4-3.4-.4-6.4-.2-3.2.2-3.8,1.6-5,2.8-.7.7-.8,1.4-1,2.6-.3,1.5.3,2.2.8,3,.5.9,1.8.9,4.2.9,2.8,0,3.3-1.1,4-1.5.8-.5,1.5-.9,2.4-1.7.8-.7,1.6-1.2,2.3-1.7,1-.8,2-1.9,2.6-2.5.7-.7,1.8-.9,2.8-1.4,1-.5,2.4-1.4,3.1-1.8.8-.5,1.4-.8,3.9-1.5,1.7-.5,2.8,0,3.1.2.6.5.8,1.3.8,2.6,0,.9-1.4,1.9-2.3,2.5-1.2.8-2,1-2.9,1.2-.9.2-1.8.3-2.9.4-2,.1-4.7,0-5.3-.2-.3-.1-.6-.2-.8-.2-.9.1.9,1.8,1.3,2.6.3.7.6,1.6,1,2.4.7,1.6,1,2.9,1.3,3.7.2.7.4,1.3.6,2,0,.2,0,.3.2.6"/>
      <path class="st7" d="M35.3-3.5c-1-.4-2.1-.9-3.3-1.3-1.1-.4-3.5-.4-6.6-.2-3.3.2-3.9,1.7-5.2,2.9-.7.7-.8,1.5-1.1,2.8-.3,1.6.3,2.3.8,3.1.6.9,1.8,1,4.3.9,2.9,0,3.4-1.2,4.1-1.6.8-.5,1.6-1,2.5-1.8.8-.8,1.7-1.2,2.4-1.8,1.1-.9,2-2,2.7-2.6.7-.8,1.9-1,2.9-1.5,1.1-.5,2.5-1.5,3.2-1.9.8-.5,1.5-.8,4-1.6,1.7-.5,2.9,0,3.2.2.6.5.8,1.3.8,2.7,0,1-1.4,2-2.4,2.6-1.2.8-2.1,1-3,1.3-.9.2-1.8.3-3,.4-2.1.2-4.8,0-5.5-.2-.3-.1-.7-.2-.9-.2-.9.1,1,1.9,1.3,2.7.3.8.6,1.7,1.1,2.6.8,1.7,1.1,3,1.3,3.9.2.7.4,1.4.6,2.1,0,.2,0,.3.2.7"/>
      <path class="st7" d="M681.5,331c-.5-.2-1.5-.8-2.5-1.4-1.1-.7-2-.7-7.9-1.5-2.2-.3-3.2.1-3.6.3-.6.2-2,1.2-3.7,3.1-1,1.1-.7,2.2-.5,3,.3,1,1,1.9,1.6,2.6,1.1,1.3,5.7,2,7.7,2,2.5,0,3.9-1.4,5.2-2.1,1-.5,1.8-1.2,2.5-1.8.6-.5,1.3-1.4,2-2,.5-.4,1.1-1,1.8-1.5.7-.5,1.2-1.1,3.6-3,1.2-.9,2.3-1.5,5-2.7,2.4-1.1,5.2-1.4,7.6-1.5,2.3,0,3.6.4,3.8.7.6.6.6,1.5.2,4.2-.2,1.3-1.5,1.7-2.2,1.9-1.7.5-4.6.7-5.3.7-.8,0-2.2-.1-3.9-.2-4.3-.2-4.9-.3-7.9-.6-1.1-.1-1.6.1-1.9.3-.6.3-.3,1.3,0,2.8.2,1,.5,2.1,1,3.4.3.8.5,1.6.7,2.3.6,1.7,1.5,4.3,1.5,4.7,0,.2,0,.4,0,.5"/>
      <path class="st7" d="M726.6,338.4c-.5-.2-1.5-.8-2.5-1.4-1.1-.7-2-.7-7.9-1.5-2.2-.3-3.2.1-3.6.3-.6.2-2,1.2-3.7,3.1-1,1.1-.7,2.2-.5,3,.3,1,1,1.9,1.6,2.6,1.1,1.3,5.7,2,7.7,2,2.5,0,3.9-1.4,5.2-2.1,1-.5,1.8-1.2,2.5-1.8.6-.5,1.3-1.4,2-2,.5-.4,1.1-1,1.8-1.5.7-.5,1.2-1.1,3.6-3,1.2-.9,2.3-1.5,5-2.7,2.4-1.1,5.2-1.4,7.6-1.5,2.3,0,3.6.4,3.8.7.6.6.6,1.5.2,4.2-.2,1.3-1.5,1.7-2.2,1.9-1.7.5-4.6.7-5.4.7-.8,0-2.2-.1-3.9-.2-4.3-.2-4.9-.3-7.9-.6-1.1-.1-1.6.1-1.9.3-.6.3-.3,1.3,0,2.8.2,1,.5,2.1,1,3.4.3.8.5,1.6.7,2.3.6,1.7,1.5,4.3,1.5,4.7,0,.2,0,.4,0,.5"/>
      <path class="st7" d="M727.1,309.3c-.4-.4-1.1-1.2-1.8-2.2-.8-1-1.7-1.4-6.9-4.1-2-1-3-1-3.5-1-.6,0-2.3.5-4.6,1.6-1.3.7-1.4,1.8-1.4,2.6,0,1,.3,2.1.6,3,.6,1.6,4.6,3.8,6.5,4.5,2.3.8,4.1,0,5.6-.2,1.1-.2,2.1-.5,3-.9.7-.3,1.7-.9,2.5-1.2.6-.2,1.4-.6,2.2-.8.8-.2,1.5-.6,4.4-1.6,1.4-.5,2.7-.6,5.6-.9,2.7-.2,5.4.4,7.7,1.1,2.2.7,3.2,1.6,3.4,2,.3.8,0,1.6-1.2,4-.6,1.2-2,1.1-2.7,1.1-1.8,0-4.6-.9-5.3-1.1-.8-.2-2.1-.9-3.6-1.5-4-1.7-4.5-2-7.2-3.3-1-.5-1.6-.4-1.9-.4-.6,0-.7,1.1-.9,2.6-.1,1-.2,2.1-.2,3.6,0,.9-.1,1.7,0,2.4,0,1.8,0,4.6-.2,5,0,.2,0,.4,0,.5"/>
      <path class="st7" d="M752.1,285.3c-.4-.4-1.1-1.2-1.8-2.2-.8-1-1.7-1.4-6.9-4.1-2-1-3-1-3.5-1-.6,0-2.3.5-4.6,1.6-1.3.7-1.4,1.8-1.4,2.6,0,1,.3,2.1.6,3,.6,1.6,4.6,3.8,6.5,4.5,2.3.8,4.1,0,5.6-.2,1.1-.2,2.1-.5,3-.9.7-.3,1.7-.9,2.5-1.2.6-.2,1.4-.6,2.2-.8.8-.2,1.5-.6,4.4-1.6,1.4-.5,2.7-.6,5.6-.9,2.7-.2,5.4.4,7.7,1.1,2.2.7,3.2,1.6,3.4,2,.3.8,0,1.6-1.2,4-.6,1.2-2,1.1-2.7,1.1-1.8,0-4.6-.9-5.3-1.1-.8-.2-2.1-.9-3.6-1.5-4-1.7-4.5-2-7.2-3.3-1-.5-1.6-.4-1.9-.4-.6,0-.7,1.1-.9,2.6-.1,1-.2,2.1-.2,3.6,0,.9-.1,1.7,0,2.4,0,1.8,0,4.6-.2,5,0,.2,0,.4,0,.5"/>
      <path class="st7" d="M780.1,340.3c-.4-.4-1.1-1.2-1.8-2.2-.8-1-1.7-1.4-6.9-4.1-2-1-3-1-3.5-1-.6,0-2.3.5-4.6,1.6-1.3.7-1.4,1.8-1.4,2.6,0,1,.3,2.1.6,3,.6,1.6,4.6,3.8,6.5,4.5,2.3.8,4.1,0,5.6-.2,1.1-.2,2.1-.5,3-.9.7-.3,1.7-.9,2.5-1.2.6-.2,1.4-.6,2.2-.8.8-.2,1.5-.6,4.4-1.6,1.4-.5,2.7-.6,5.6-.9,2.7-.2,5.4.4,7.7,1.1,2.2.7,3.2,1.6,3.4,2,.3.8,0,1.6-1.2,4-.6,1.2-2,1.1-2.7,1.1-1.8,0-4.6-.9-5.3-1.1-.8-.2-2.1-.9-3.6-1.5-4-1.7-4.5-2-7.2-3.3-1-.5-1.6-.4-1.9-.4-.6,0-.7,1.1-.9,2.6-.1,1-.2,2.1-.2,3.6,0,.9-.1,1.7,0,2.4,0,1.8,0,4.6-.2,5,0,.2,0,.4,0,.5"/>
      <path class="st7" d="M784.1,313.3c-.4-.4-1.1-1.2-1.8-2.2-.8-1-1.7-1.4-6.9-4.1-2-1-3-1-3.5-1-.6,0-2.3.5-4.6,1.6-1.3.7-1.4,1.8-1.4,2.6,0,1,.3,2.1.6,3,.6,1.6,4.6,3.8,6.5,4.5,2.3.8,4.1,0,5.6-.2,1.1-.2,2.1-.5,3-.9.7-.3,1.7-.9,2.5-1.2.6-.2,1.4-.6,2.2-.8.8-.2,1.5-.6,4.4-1.6,1.4-.5,2.7-.6,5.6-.9,2.7-.2,5.4.4,7.7,1.1,2.2.7,3.2,1.6,3.4,2,.3.8,0,1.6-1.2,4-.6,1.2-2,1.1-2.7,1.1-1.8,0-4.6-.9-5.3-1.1-.8-.2-2.1-.9-3.6-1.5-4-1.7-4.5-2-7.2-3.3-1-.5-1.6-.4-1.9-.4-.6,0-.7,1.1-.9,2.6-.1,1-.2,2.1-.2,3.6,0,.9-.1,1.7,0,2.4,0,1.8,0,4.6-.2,5,0,.2,0,.4,0,.5"/>
      <path class="st7" d="M831.3,306c-.3-.4-1-1.3-1.7-2.3-.7-1.1-1.6-1.5-6.6-4.5-1.9-1.1-2.9-1.2-3.4-1.2-.6,0-2.4.3-4.7,1.3-1.4.6-1.5,1.8-1.6,2.5-.1,1,.2,2.1.4,3,.5,1.7,4.4,4.1,6.2,4.9,2.3.9,4.1.3,5.6.1,1.1-.1,2.1-.4,3-.7.8-.3,1.8-.8,2.6-1,.6-.2,1.4-.5,2.2-.7.8-.2,1.6-.5,4.5-1.3,1.5-.4,2.7-.4,5.6-.5,2.7,0,5.4.8,7.6,1.6,2.1.8,3.1,1.8,3.2,2.2.3.8,0,1.6-1.4,3.9-.7,1.2-2,1-2.7.9-1.8-.2-4.5-1.2-5.2-1.5-.8-.3-2-1-3.5-1.7-3.9-1.9-4.4-2.3-7-3.7-1-.6-1.6-.5-1.9-.5-.6,0-.8,1.1-1.1,2.6-.2,1-.4,2.1-.5,3.5,0,.9-.2,1.7-.2,2.4-.2,1.8-.4,4.6-.5,5,0,.2,0,.4-.1.5"/>
      <path class="st7" d="M678.7,300.2c-.5-.2-1.5-.8-2.5-1.4-1.1-.7-2-.7-7.9-1.5-2.2-.3-3.2.1-3.6.3-.6.2-2,1.2-3.7,3.1-1,1.1-.7,2.2-.5,3,.3,1,1,1.9,1.6,2.6,1.1,1.3,5.7,2,7.7,2,2.5,0,3.9-1.4,5.2-2.1,1-.5,1.8-1.2,2.5-1.8.6-.5,1.3-1.4,2-2,.5-.4,1.1-1,1.8-1.5.7-.5,1.2-1.1,3.6-3,1.2-.9,2.3-1.5,5-2.7,2.4-1.1,5.2-1.4,7.6-1.5,2.3,0,3.6.4,3.8.7.6.6.6,1.5.2,4.2-.2,1.3-1.5,1.7-2.2,1.9-1.7.5-4.6.7-5.3.7-.8,0-2.2-.1-3.9-.2-4.3-.2-4.9-.3-7.9-.6-1.1-.1-1.6.1-1.9.3-.6.3-.3,1.3,0,2.8.2,1,.5,2.1,1,3.4.3.8.5,1.6.7,2.3.6,1.7,1.5,4.3,1.5,4.7,0,.2,0,.4,0,.5"/>
      <path class="st7" d="M621.6,317c-.5-.2-1.5-.8-2.5-1.4-1.1-.7-2-.7-7.9-1.5-2.2-.3-3.2.1-3.6.3-.6.2-2,1.2-3.7,3.1-1,1.1-.7,2.2-.5,3,.3,1,1,1.9,1.6,2.6,1.1,1.3,5.7,2,7.7,2,2.5,0,3.9-1.4,5.2-2.1,1-.5,1.8-1.2,2.5-1.8.6-.5,1.3-1.4,2-2,.5-.4,1.1-1,1.8-1.5.7-.5,1.2-1.1,3.6-3,1.2-.9,2.3-1.5,5-2.7,2.4-1.1,5.2-1.4,7.6-1.5,2.3,0,3.6.4,3.8.7.6.6.6,1.5.2,4.2-.2,1.3-1.5,1.7-2.2,1.9-1.7.5-4.6.7-5.4.7-.8,0-2.2-.1-3.9-.2-4.3-.2-4.9-.3-7.9-.6-1.1-.1-1.6.1-1.9.3-.6.3-.3,1.3,0,2.8.2,1,.5,2.1,1,3.4.3.8.5,1.6.7,2.3.6,1.7,1.5,4.3,1.5,4.7,0,.2,0,.4,0,.5"/>
      <path class="st7" d="M635.9,341.1c-1.1,0-2.2,0-3.5,0-1.1,0-3.4.8-6.2,2.1-3,1.3-3.1,2.8-3.8,4.4-.4.9-.3,1.6,0,2.8.2,1.5,1.1,2,1.8,2.5.8.6,2,.3,4.3-.7,2.6-1.1,2.8-2.2,3.3-2.8.6-.7,1.1-1.4,1.7-2.5.5-1,1.1-1.7,1.6-2.4.7-1.2,1.2-2.5,1.6-3.3.4-.9,1.4-1.5,2.2-2.3.8-.9,1.8-2.2,2.3-2.8.6-.7,1.1-1.2,3.2-2.8,1.4-1.1,2.7-1,3-.9.7.3,1.2.9,1.6,2.2.3.9-.7,2.3-1.3,3.2-.8,1.1-1.6,1.6-2.4,2.2-.8.5-1.6.9-2.6,1.3-1.9.8-4.5,1.7-5.1,1.7-.3,0-.7,0-.9.1-.8.4,1.5,1.4,2.1,2,.6.6,1.1,1.3,1.8,2,1.3,1.3,2,2.3,2.5,3.1.4.6.9,1.1,1.3,1.6,0,.1.1.3.4.5"/>
      <path class="st7" d="M591.6,342.5c-1.1,0-2.2-.1-3.5,0-1.1,0-3.4.8-6.2,2.1-3,1.3-3.1,2.8-3.8,4.4-.4.9-.3,1.6,0,2.8.2,1.5,1.1,2,1.8,2.5.8.6,2,.3,4.3-.7,2.6-1.1,2.8-2.2,3.3-2.8.6-.7,1.1-1.4,1.7-2.5.5-1,1.1-1.7,1.6-2.4.7-1.2,1.2-2.5,1.6-3.3.4-.9,1.4-1.5,2.2-2.3.8-.9,1.8-2.2,2.3-2.8.6-.7,1.1-1.2,3.2-2.8,1.4-1.1,2.7-1,3-.9.7.3,1.2.9,1.6,2.2.3.9-.7,2.3-1.3,3.2-.8,1.1-1.6,1.6-2.4,2.2-.8.5-1.6.9-2.6,1.3-1.9.8-4.5,1.7-5.1,1.7-.3,0-.7,0-.9.1-.8.4,1.5,1.4,2.1,2,.6.6,1.1,1.3,1.8,2,1.3,1.3,2,2.3,2.5,3.1.4.6.9,1.1,1.3,1.6,0,.1.1.3.4.5"/>
      <path class="st7" d="M565.7,326.4c-1.1,0-2.2,0-3.5,0-1.1,0-3.4.8-6.2,2.1-3,1.3-3.1,2.8-3.8,4.4-.4.9-.3,1.6,0,2.8.2,1.5,1.1,2,1.8,2.5.8.6,2,.3,4.3-.7,2.6-1.1,2.8-2.2,3.3-2.8.6-.7,1.1-1.4,1.7-2.5.5-1,1.1-1.7,1.6-2.4.7-1.2,1.2-2.5,1.6-3.3.4-.9,1.4-1.5,2.2-2.3.8-.9,1.8-2.2,2.3-2.8.6-.7,1.1-1.2,3.2-2.8,1.4-1.1,2.7-1,3-.9.7.3,1.2.9,1.6,2.2.3.9-.7,2.3-1.3,3.2-.8,1.1-1.6,1.6-2.4,2.2-.8.5-1.6.9-2.6,1.3-1.9.8-4.5,1.7-5.1,1.7-.3,0-.7,0-.9.1-.8.4,1.5,1.4,2.1,2,.6.6,1.1,1.3,1.8,2,1.3,1.3,2,2.3,2.5,3.1.4.6.9,1.1,1.3,1.6,0,.1.1.3.4.5"/>
      <path class="st7" d="M530.7,343.4c-1.1,0-2.2,0-3.5,0-1.1,0-3.4.8-6.2,2.1-3,1.3-3.1,2.8-3.8,4.4-.4.9-.3,1.6,0,2.8.2,1.5,1.1,2,1.8,2.5.8.6,2,.3,4.3-.7,2.6-1.1,2.8-2.2,3.3-2.8.6-.7,1.1-1.4,1.7-2.5.5-1,1.1-1.7,1.6-2.4.7-1.2,1.2-2.5,1.6-3.3.4-.9,1.4-1.5,2.2-2.3.8-.9,1.8-2.2,2.3-2.8.6-.7,1.1-1.2,3.2-2.8,1.4-1.1,2.7-1,3-.9.7.3,1.2.9,1.6,2.2.3.9-.7,2.3-1.3,3.2-.8,1.1-1.6,1.6-2.4,2.2-.8.5-1.6.9-2.6,1.3-1.9.8-4.5,1.7-5.1,1.7-.3,0-.7,0-.9.1-.8.4,1.5,1.4,2.1,2,.6.6,1.1,1.3,1.8,2,1.3,1.3,2,2.3,2.5,3.1.4.6.9,1.1,1.3,1.6,0,.1.1.3.4.5"/>
      <path class="st7" d="M510.7,327.4c-1.1,0-2.2,0-3.5,0-1.1,0-3.4.8-6.2,2.1-3,1.3-3.1,2.8-3.8,4.4-.4.9-.3,1.6,0,2.8.2,1.5,1.1,2,1.8,2.5.8.6,2,.3,4.3-.7,2.6-1.1,2.8-2.2,3.3-2.8.6-.7,1.1-1.4,1.7-2.5.5-1,1.1-1.7,1.6-2.4.7-1.2,1.2-2.5,1.6-3.3.4-.9,1.4-1.5,2.2-2.3.8-.9,1.8-2.2,2.3-2.8.6-.7,1.1-1.2,3.2-2.8,1.4-1.1,2.7-1,3-.9.7.3,1.2.9,1.6,2.2.3.9-.7,2.3-1.3,3.2-.8,1.1-1.6,1.6-2.4,2.2-.8.5-1.6.9-2.6,1.3-1.9.8-4.5,1.7-5.1,1.7-.3,0-.7,0-.9.1-.8.4,1.5,1.4,2.1,2,.6.6,1.1,1.3,1.8,2,1.3,1.3,2,2.3,2.5,3.1.4.6.9,1.1,1.3,1.6,0,.1.1.3.4.5"/>
      <path class="st7" d="M83,343.6c-.2,0-.6.1-1.2.3-.6.2-1.1.5-1.6.8-.3.2-.6.3-1.2.8"/>
      <path class="st2" d="M186.8,9.6c0,.1.2.6.2,1.6,0,.2-.1.3-.2.3s-.1,0-.2,0c-.3,0-.5-.7-.6-1.2,0-.1,0-.2,0-.3,0,0,0-.1.2-.1,0,0,.2,0,.3.2"/>
      <path class="st2" d="M179,19.3c.2,0,.9-.1,1.6-.2.3,0,.9,0,1.4,0,.1,0,0,.2-.2.2-.5.2-1.1.3-1.6.4-.1,0-.3,0-.4,0-.1,0-.1-.1-.1-.2.2-.3.7-.6.9-.7.1,0,.2,0,.4,0"/>
      <path class="st2" d="M196.5,14.3c0,0,.5,0,1.1,0,.2,0,0,.2,0,.4-.2.3-.5.6-.8.8-.2,0-.5,0-.6,0-.5-.4.8-1.3,1.3-1.7.1,0,.3-.1.5-.2.3,0,.7,0,1.1,0"/>
      <path class="st2" d="M191.6,25.6c0,.1,0,1.1.2,1.8,0,.5.2.9.2,1,.1.6-.3-1.2-.5-1.7,0-.1-.1-.3-.2-.4,0-.1-.2-.3-.3-.5"/>
      <path class="st5" d="M190,16.6v1c0,.1,0,0,0-.2"/>
      <path class="st2" d="M176.6,32.6c.2.2.4.9.4,2.4,0,.3-.2.4-.4.5-.1,0-.3.1-.4.1-.6-.1-.9-1.1-1.1-1.8,0-.2,0-.3,0-.5,0-.1.2-.2.4-.2.2,0,.4,0,.7.3"/>
      <path class="st2" d="M167,45.3c.2,0,.9-.1,1.6-.2.3,0,.9,0,1.4,0,.1,0,0,.2-.2.2-.5.2-1.1.3-1.6.4-.1,0-.3,0-.4,0-.1,0-.1-.1-.1-.2.2-.3.7-.6.9-.7.1,0,.2,0,.4,0"/>
      <path class="st2" d="M185.3,40c0,0,.4,0,.7,0,.1,0,0,.1,0,.2-.2.2-.3.3-.6.4-.1,0-.3,0-.4,0-.3-.2.5-.7.9-.9,0,0,.2,0,.4,0,.2,0,.4,0,.7,0"/>
      <path class="st2" d="M179.6,49.6c0,.1,0,1.1.2,1.8,0,.5.2.9.2,1,.1.6-.3-1.2-.5-1.7,0-.1-.1-.3-.2-.4,0-.1-.2-.3-.3-.5"/>
      <path class="st2" d="M198.5,46.6c.3.2.6.9.5,2.4,0,.3-.3.4-.5.5-.2,0-.4.1-.6.1-.9-.1-1.4-1.1-1.7-1.8,0-.2-.1-.3,0-.5,0-.1.3-.2.5-.2.3,0,.5,0,1,.3"/>
      <path class="st2" d="M191,59.3c.2,0,.9-.1,1.6-.2.3,0,.9,0,1.4,0,.1,0,0,.2-.2.2-.5.2-1.1.3-1.6.4-.1,0-.3,0-.4,0-.1,0-.1-.1-.1-.2.2-.3.7-.6.9-.7.1,0,.2,0,.4,0"/>
      <path class="st2" d="M207.6,53c.1,0,.7,0,1.5,0,.2,0,0,.1,0,.2-.3.2-.7.3-1.1.4-.3,0-.6,0-.7,0-.6-.2,1-.7,1.7-.9.2,0,.4,0,.7,0,.4,0,.9,0,1.4,0"/>
      <path class="st2" d="M202.2,64.6c0,0,.1.7.4,1.2.2.3.4.6.4.7.2.4-.7-.8-1-1.1-.1,0-.3-.2-.4-.3-.2,0-.3-.2-.5-.3"/>
      <path class="st2" d="M216.4,79.5c0,.2-.3.7-1.2,1.4-.2.2-.4,0-.5,0-.1,0-.2-.1-.3-.3-.3-.5.2-1.2.4-1.7,0-.1.2-.2.2-.3,0,0,.2,0,.3.2.1.1.2.2.2.6"/>
      <path class="st2" d="M202,80.7c.2.2.8.6,1.4,1.1.3.2.7.7,1,1.2,0,.1-.2.1-.4,0-.7-.2-1.1-.7-1.5-1-.1,0-.2-.2-.2-.4,0-.1,0-.2.2-.3.6-.1,1.1,0,1.4.2.1,0,.2.1.4.2"/>
      <path class="st2" d="M217.5,90.6c0,0,.3.4.6.9,0,.1-.1.2-.3.2-.4,0-.7,0-1-.3-.2-.1-.3-.3-.3-.4,0-.5,1.3,0,1.8.2.1,0,.2.1.4.3.2.2.4.5.7.8"/>
      <path class="st2" d="M205.9,93.1c-.1,0-.8.7-1.3,1.4-.3.4-.5.8-.6.9-.4.5.7-1.2.9-1.7,0-.1,0-.3,0-.5,0-.2,0-.4.2-.6"/>
      <path class="st5" d="M210.6,86.5s0,0-.1,0c0,0-.2.2-.3.2,0,0,0,0,0-.1"/>
      <path class="st2" d="M219.2,26.2c0,.2-.3.7-1.2,1.4-.2.2-.4,0-.5,0-.1,0-.2-.1-.3-.3-.3-.5.2-1.2.4-1.7,0-.1.2-.2.2-.3,0,0,.2,0,.3.2.1.1.2.2.2.6"/>
      <path class="st2" d="M204.8,27.4c.2.2.8.6,1.4,1.1.3.2.7.7,1,1.2,0,.1-.2.1-.4,0-.7-.2-1.1-.7-1.5-1-.1,0-.2-.2-.2-.4,0-.1,0-.2.2-.3.6-.1,1.1,0,1.4.2.1,0,.2.1.4.2"/>
      <path class="st2" d="M220.3,37.2c0,0,.3.4.6.9,0,.1-.1.2-.3.2-.4,0-.7,0-1-.3-.2-.1-.3-.3-.3-.4,0-.5,1.3,0,1.8.2.1,0,.2.1.4.3.2.2.4.5.7.8"/>
      <path class="st2" d="M208.7,39.8c-.1,0-.8.7-1.3,1.4-.3.4-.5.8-.6.9-.4.5.7-1.2.9-1.7,0-.1,0-.3,0-.5,0-.2,0-.4.2-.6"/>
      <path class="st5" d="M213.4,33.2s0,0-.1,0c0,0-.2.2-.3.2,0,0,0,0,0-.1"/>
      <path class="st2" d="M244.5,127.2c0,.2-.3.7-1.2,1.4-.2.2-.4,0-.5,0-.1,0-.2-.1-.3-.3-.3-.5.2-1.2.4-1.7,0-.1.2-.2.2-.2,0,0,.2,0,.3.2.1.1.2.2.2.6"/>
      <path class="st2" d="M230.1,128.4c.2.2.8.6,1.4,1.1.3.2.7.7,1,1.2,0,.1-.2.1-.4,0-.7-.2-1.1-.7-1.5-1-.1,0-.2-.2-.2-.4s0-.2.2-.3c.6-.1,1.1,0,1.4.2.1,0,.2.1.4.2"/>
      <path class="st2" d="M245.6,138.3c0,0,.3.4.6.9,0,.1-.1.2-.3.2-.4,0-.7-.1-1-.3-.2-.1-.3-.3-.3-.4,0-.5,1.3,0,1.8.2.1,0,.2.1.4.3.2.2.4.5.7.8"/>
      <path class="st2" d="M234,140.8c-.1,0-.8.7-1.3,1.4-.3.4-.6.8-.6.9-.4.5.7-1.2.9-1.7,0-.2,0-.3,0-.5,0-.2,0-.4.2-.6"/>
      <path class="st5" d="M238.7,134.2s0,0-.1,0c0,0-.2.2-.3.2s0,0,0-.1"/>
      <path class="st2" d="M320.3,14.9c0,.2-.3.7-1.2,1.4-.2.2-.4,0-.5,0-.1,0-.2-.1-.3-.3-.3-.5.2-1.2.4-1.7,0-.1.2-.2.2-.3s.2,0,.3.2c.1.1.2.2.2.6"/>
      <path class="st2" d="M305.9,16.2c.2.2.8.6,1.4,1.1.3.2.7.7,1,1.2,0,.1-.2.1-.4,0-.7-.2-1.1-.7-1.5-1-.1,0-.2-.2-.2-.4,0-.1,0-.2.2-.3.6-.1,1.1,0,1.4.2.1,0,.2.1.4.2"/>
      <path class="st2" d="M321.4,26c0,0,.3.4.6.9,0,.1-.1.2-.3.2-.4,0-.7,0-1-.3-.2-.1-.3-.3-.3-.4,0-.5,1.3,0,1.8.2.1,0,.2.1.4.3.2.2.4.5.7.8"/>
      <path class="st2" d="M309.8,28.5c-.1,0-.8.7-1.3,1.4-.3.4-.5.8-.6.9-.4.5.7-1.2.9-1.7,0-.1,0-.3,0-.5,0-.2,0-.4.2-.6"/>
      <path class="st5" d="M314.5,22s0,0-.1,0c0,0-.2.2-.3.2,0,0,0,0,0-.1"/>
      <path class="st2" d="M382,82.3c0,.2-.3.7-1.2,1.4-.2.2-.4,0-.5,0-.1,0-.2-.1-.3-.3-.3-.5.2-1.2.4-1.7,0-.1.2-.2.2-.3,0,0,.2,0,.3.2.1.1.2.2.2.6"/>
      <path class="st2" d="M367.6,83.5c.2.2.8.6,1.4,1.1.3.2.7.7,1,1.2,0,.1-.2.1-.4,0-.7-.2-1.1-.7-1.5-1-.1,0-.2-.2-.2-.4,0-.1,0-.2.2-.3.6-.1,1.1,0,1.4.2.1,0,.2.1.4.2"/>
      <path class="st2" d="M383.1,93.4c0,0,.3.4.6.9,0,.1-.1.2-.3.2-.4,0-.7,0-1-.3-.2-.1-.3-.3-.3-.4,0-.5,1.3,0,1.8.2.1,0,.2.1.4.3.2.2.4.5.7.8"/>
      <path class="st2" d="M371.5,95.9c-.1,0-.8.7-1.3,1.4-.3.4-.5.8-.6.9-.4.5.7-1.2.9-1.7,0-.1,0-.3,0-.5,0-.2,0-.4.2-.6"/>
      <path class="st5" d="M376.2,89.3s0,0-.1,0c0,0-.2.2-.3.2,0,0,0,0,0-.1"/>
      <path class="st2" d="M213.3-3.5c.2.2.8.6,1.4,1.1.3.2.7.7,1,1.2,0,.1-.2.1-.4,0-.7-.2-1.1-.7-1.5-1-.1,0-.2-.2-.2-.4,0-.1,0-.2.2-.3.6-.1,1.1,0,1.4.2.1,0,.2.1.4.2"/>
      <path class="st2" d="M228.7,6.4c0,0,.3.4.6.9,0,.1-.1.2-.3.2-.4,0-.7,0-1-.3-.2-.1-.3-.3-.3-.4,0-.5,1.3,0,1.8.2.1,0,.2.1.4.3.2.2.4.5.7.8"/>
      <path class="st2" d="M217.1,8.9c-.1,0-.8.7-1.3,1.4-.3.4-.5.8-.6.9-.4.5.7-1.2.9-1.7,0-.1,0-.3,0-.5,0-.2,0-.4.2-.6"/>
      <path class="st5" d="M221.8,2.3s0,0-.1,0-.2.2-.3.2c0,0,0,0,0-.1"/>
      <path class="st2" d="M261.3,54.2c0,.2-.3.7-1.2,1.4-.2.2-.4,0-.5,0-.1,0-.2-.1-.3-.3-.3-.5.2-1.2.4-1.7,0-.1.2-.2.2-.3,0,0,.2,0,.3.2.1.1.2.2.2.6"/>
      <path class="st2" d="M246.9,55.4c.2.2.8.6,1.4,1.1.3.2.7.7,1,1.2,0,.1-.2.1-.4,0-.7-.2-1.1-.7-1.5-1-.1,0-.2-.2-.2-.4,0-.1,0-.2.2-.3.6-.1,1.1,0,1.4.2.1,0,.2.1.4.2"/>
      <path class="st2" d="M262.4,65.3c0,0,.3.4.6.9,0,.1-.1.2-.3.2-.4,0-.7,0-1-.3-.2-.1-.3-.3-.3-.4,0-.5,1.3,0,1.8.2.1,0,.2.1.4.3.2.2.4.5.7.8"/>
      <path class="st2" d="M250.8,67.8c-.1,0-.8.7-1.3,1.4-.3.4-.6.8-.6.9-.4.5.7-1.2.9-1.7,0-.1,0-.3,0-.5,0-.2,0-.4.2-.6"/>
      <path class="st5" d="M255.5,61.3s0,0-.1,0c0,0-.2.2-.3.2,0,0,0,0,0-.1"/>
      <path class="st2" d="M314.7,99.1c0,.2-.3.7-1.2,1.4-.2.2-.4,0-.5,0-.1,0-.2-.1-.3-.3-.3-.5.2-1.2.4-1.7,0-.1.2-.2.2-.3,0,0,.2,0,.3.2.1.1.2.2.2.6"/>
      <path class="st2" d="M300.3,100.4c.2.2.8.6,1.4,1.1.3.2.7.7,1,1.2,0,.1-.2.1-.4,0-.7-.2-1.1-.7-1.5-1-.1,0-.2-.2-.2-.4,0-.1,0-.2.2-.3.6-.1,1.1,0,1.4.2.1,0,.2.1.4.2"/>
      <path class="st2" d="M315.7,110.2c0,0,.3.4.6.9,0,.1-.1.2-.3.2-.4,0-.7-.1-1-.3-.2-.1-.3-.3-.3-.4,0-.5,1.3,0,1.8.2.1,0,.2.1.4.3.2.2.4.5.7.8"/>
      <path class="st2" d="M304.1,112.7c-.1,0-.8.7-1.3,1.4-.3.4-.6.8-.6.9-.4.5.7-1.2.9-1.7,0-.2,0-.3,0-.5,0-.2,0-.4.2-.6"/>
      <path class="st5" d="M308.9,106.2s0,0-.1,0-.2.2-.3.2c0,0,0,0,0-.1"/>
      <path class="st2" d="M311.8,54.2c0,.2-.3.7-1.2,1.4-.2.2-.4,0-.5,0-.1,0-.2-.1-.3-.3-.3-.5.2-1.2.4-1.7,0-.1.2-.2.2-.3,0,0,.2,0,.3.2.1.1.2.2.2.6"/>
      <path class="st2" d="M297.5,55.4c.2.2.8.6,1.4,1.1.3.2.7.7,1,1.2,0,.1-.2.1-.4,0-.7-.2-1.1-.7-1.5-1-.1,0-.2-.2-.2-.4s0-.2.2-.3c.6-.1,1.1,0,1.4.2.1,0,.2.1.4.2"/>
      <path class="st2" d="M312.9,65.3c0,0,.3.4.6.9,0,.1-.1.2-.3.2-.4,0-.7,0-1-.3-.2-.1-.3-.3-.3-.4,0-.5,1.3,0,1.8.2.1,0,.2.1.4.3.2.2.4.5.7.8"/>
      <path class="st2" d="M301.3,67.8c-.1,0-.8.7-1.3,1.4-.3.4-.5.8-.6.9-.4.5.7-1.2.9-1.7,0-.1,0-.3,0-.5,0-.2,0-.4.2-.6"/>
      <path class="st5" d="M306,61.3s0,0-.1,0c0,0-.2.2-.3.2,0,0,0,0,0-.1"/>
      <path class="st2" d="M362.4,135.6c0,.2-.3.7-1.2,1.4-.2.2-.4,0-.5,0-.1,0-.2-.1-.3-.3-.3-.5.2-1.2.4-1.7,0-.1.2-.2.2-.2s.2,0,.3.2.2.2.2.6"/>
      <path class="st2" d="M348,136.8c.2.2.8.6,1.4,1.1.3.2.7.7,1,1.2,0,.1-.2.1-.4,0-.7-.2-1.1-.7-1.5-1-.1,0-.2-.2-.2-.4,0-.1,0-.2.2-.3.6-.1,1.1,0,1.4.2.1,0,.2.1.4.2"/>
      <path class="st2" d="M363.5,146.7c0,0,.3.4.6.9,0,.1-.1.2-.3.2-.4,0-.7-.1-1-.3-.2-.1-.3-.3-.3-.4,0-.5,1.3,0,1.8.2.1,0,.2.1.4.3.2.2.4.5.7.8"/>
      <path class="st2" d="M351.9,149.2c-.1,0-.8.7-1.3,1.4-.3.4-.6.8-.6.9-.4.5.7-1.2.9-1.7,0-.1,0-.3,0-.5,0-.2,0-.4.2-.6"/>
      <path class="st5" d="M356.6,142.7s0,0-.1,0c0,0-.2.2-.3.2,0,0,0,0,0-.1"/>
      <path class="st2" d="M359.6,177.7c0,.2-.3.7-1.2,1.4-.2.2-.4,0-.5,0-.1,0-.2-.1-.3-.3-.3-.5.2-1.2.4-1.7,0-.1.2-.2.2-.3,0,0,.2,0,.3.2.1.1.2.2.2.6"/>
      <path class="st2" d="M345.2,178.9c.2.2.8.6,1.4,1.1.3.2.7.7,1,1.2,0,.1-.2.1-.4,0-.7-.2-1.1-.7-1.5-1-.1,0-.2-.2-.2-.4,0-.1,0-.2.2-.3.6-.1,1.1,0,1.4.2.1,0,.2.1.4.2"/>
      <path class="st2" d="M360.6,188.8c0,0,.3.4.6.9,0,.1-.1.2-.3.2-.4,0-.7-.1-1-.3-.2-.1-.3-.3-.3-.4,0-.5,1.3,0,1.8.2.1,0,.2.1.4.3.2.2.4.5.7.8"/>
      <path class="st2" d="M349,191.3c-.1,0-.8.7-1.3,1.4-.3.4-.5.8-.6.9-.4.5.7-1.2.9-1.7,0-.1,0-.3,0-.5,0-.2,0-.4.2-.6"/>
      <path class="st5" d="M353.8,184.8s0,0-.1,0c0,0-.2.2-.3.2,0,0,0,0,0-.1"/>
      <path class="st2" d="M269.7,121.6c0,.2-.3.7-1.2,1.4-.2.2-.4,0-.5,0-.1,0-.2-.1-.3-.3-.3-.5.2-1.2.4-1.7,0-.1.2-.2.2-.2,0,0,.2,0,.3.2.1.1.2.2.2.6"/>
      <path class="st2" d="M255.4,122.8c.2.2.8.6,1.4,1.1.3.2.7.7,1,1.2,0,.1-.2.1-.4,0-.7-.2-1.1-.7-1.5-1-.1,0-.2-.2-.2-.4,0-.1,0-.2.2-.3.6-.1,1.1,0,1.4.2.1,0,.2.1.4.2"/>
      <path class="st2" d="M270.8,132.7c0,0,.3.4.6.9,0,.1-.1.2-.3.2-.4,0-.7-.1-1-.3-.2-.1-.3-.3-.3-.4,0-.5,1.3,0,1.8.2.1,0,.2.1.4.3.2.2.4.5.7.8"/>
      <path class="st2" d="M259.2,135.2c-.1,0-.8.7-1.3,1.4-.3.4-.6.8-.6.9-.4.5.7-1.2.9-1.7,0-.2,0-.3,0-.5,0-.2,0-.4.2-.6"/>
      <path class="st5" d="M263.9,128.6s0,0-.1,0c0,0-.2.2-.3.2,0,0,0,0,0-.1"/>
      <path class="st2" d="M241.7,99.1c0,.2-.3.7-1.2,1.4-.2.2-.4,0-.5,0-.1,0-.2-.1-.3-.3-.3-.5.2-1.2.4-1.7,0-.1.2-.2.2-.3,0,0,.2,0,.3.2.1.1.2.2.2.6"/>
      <path class="st2" d="M227.3,100.4c.2.2.8.6,1.4,1.1.3.2.7.7,1,1.2,0,.1-.2.1-.4,0-.7-.2-1.1-.7-1.5-1-.1,0-.2-.2-.2-.4,0-.1,0-.2.2-.3.6-.1,1.1,0,1.4.2.1,0,.2.1.4.2"/>
      <path class="st2" d="M242.8,110.2c0,0,.3.4.6.9,0,.1-.1.2-.3.2-.4,0-.7-.1-1-.3-.2-.1-.3-.3-.3-.4,0-.5,1.3,0,1.8.2.1,0,.2.1.4.3.2.2.4.5.7.8"/>
      <path class="st2" d="M231.2,112.7c-.1,0-.8.7-1.3,1.4-.3.4-.5.8-.6.9-.4.5.7-1.2.9-1.7,0-.2,0-.3,0-.5,0-.2,0-.4.2-.6"/>
      <path class="st5" d="M235.9,106.2s0,0-.1,0-.2.2-.3.2c0,0,0,0,0-.1"/>
      <path class="st2" d="M348.3,73.9c0,.2-.3.7-1.2,1.4-.2.2-.4,0-.5,0-.1,0-.2-.1-.3-.3-.3-.5.2-1.2.4-1.7,0-.1.2-.2.2-.3,0,0,.2,0,.3.2.1.1.2.2.2.6"/>
      <path class="st2" d="M333.9,75.1c.2.2.8.6,1.4,1.1.3.2.7.7,1,1.2,0,.1-.2.1-.4,0-.7-.2-1.1-.7-1.5-1-.1,0-.2-.2-.2-.4,0-.1,0-.2.2-.3.6-.1,1.1,0,1.4.2.1,0,.2.1.4.2"/>
      <path class="st2" d="M349.4,84.9c0,0,.3.4.6.9,0,.1-.1.2-.3.2-.4,0-.7,0-1-.3-.2-.1-.3-.3-.3-.4,0-.5,1.3,0,1.8.2.1,0,.2.1.4.3.2.2.4.5.7.8"/>
      <path class="st2" d="M337.8,87.5c-.1,0-.8.7-1.3,1.4-.3.4-.6.8-.6.9-.4.5.7-1.2.9-1.7,0-.1,0-.3,0-.5,0-.2,0-.4.2-.6"/>
      <path class="st5" d="M342.5,80.9s0,0-.1,0c0,0-.2.2-.3.2,0,0,0,0,0-.1"/>
      <path class="st2" d="M300.6,152.5c0,.2-.3.7-1.2,1.4-.2.2-.4,0-.5,0-.1,0-.2-.1-.3-.3-.3-.5.2-1.2.4-1.7,0-.1.2-.2.2-.3,0,0,.2,0,.3.2.1.1.2.2.2.7"/>
      <path class="st2" d="M286.2,153.7c.2.2.8.6,1.4,1.1.3.2.7.7,1,1.2,0,.1-.2.1-.4,0-.7-.2-1.1-.7-1.5-1-.1,0-.2-.2-.2-.4s0-.2.2-.3c.6-.1,1.1,0,1.4.2.1,0,.2.1.4.2"/>
      <path class="st2" d="M301.7,163.5c0,0,.3.4.6.9,0,.1-.1.2-.3.2-.4,0-.7-.1-1-.3-.2-.1-.3-.3-.3-.4,0-.5,1.3,0,1.8.2.1,0,.2.1.4.3.2.2.4.5.7.8"/>
      <path class="st2" d="M290.1,166.1c-.1,0-.8.7-1.3,1.4-.3.4-.5.8-.6.9-.4.5.7-1.2.9-1.7,0-.1,0-.3,0-.5,0-.2,0-.4.2-.6"/>
      <path class="st5" d="M294.8,159.5s0,0-.1,0c0,0-.2.2-.3.2,0,0,0,0,0-.1"/>
      <path class="st2" d="M326.5,136.6c-.2.1-.7,0-1.8-.5-.2-.1-.2-.3-.2-.5,0-.1,0-.3,0-.4.3-.5,1.1-.4,1.7-.4.1,0,.3,0,.3.1,0,0,0,.2,0,.4,0,.1-.1.3-.5.5"/>
      <path class="st2" d="M318.9,124.2c0,.3-.2,1-.4,1.7,0,.4-.3.9-.6,1.4,0,.1-.2-.1-.2-.4,0-.7.1-1.2.2-1.8,0-.2.1-.3.2-.4.1,0,.2,0,.4,0,.4.5.5,1,.5,1.3,0,.1,0,.3,0,.4"/>
      <path class="st2" d="M317,142.5c0,0-.2.5-.5.9,0,.1-.2,0-.3-.2-.1-.3-.2-.7-.2-1,0-.2.2-.4.3-.5.5-.3.6,1.1.7,1.7,0,.1,0,.3-.1.5,0,.2-.3.6-.4,1"/>
      <path class="st2" d="M309.6,133.2c-.1,0-1-.4-1.8-.6-.5,0-1-.1-1.1-.2-.6-.1,1.3,0,1.9,0,.2,0,.3,0,.5-.1.2,0,.3-.1.6-.1"/>
      <path class="st5" d="M317.6,134.5s0,0-.1,0c0,0-.2-.1-.3-.1,0,0,0,0,.1,0"/>
      <path class="st2" d="M345,161c-.2.1-.7,0-1.8-.5-.2-.1-.2-.3-.2-.5,0-.1,0-.3,0-.4.3-.5,1.1-.4,1.7-.4.1,0,.3,0,.3.1,0,0,0,.2,0,.4,0,.1-.1.3-.5.5"/>
      <path class="st2" d="M337.5,148.7c0,.3-.2,1-.4,1.7,0,.4-.3.9-.6,1.4,0,.1-.2-.1-.2-.4,0-.7.1-1.2.2-1.8,0-.2.1-.3.2-.4.1,0,.2,0,.4,0,.4.5.5,1,.5,1.3,0,.1,0,.3,0,.4"/>
      <path class="st2" d="M335.6,166.9c0,0-.2.5-.5.9,0,.1-.2,0-.3-.2-.1-.3-.2-.7-.2-1,0-.2.2-.4.3-.5.5-.3.6,1.1.7,1.7,0,.1,0,.3-.1.5,0,.2-.3.6-.4,1"/>
      <path class="st2" d="M328.2,157.7c-.1,0-1-.4-1.8-.6-.5-.1-1-.1-1.1-.2-.6-.1,1.3,0,1.9,0,.2,0,.3,0,.5-.1s.3-.1.6-.1"/>
      <path class="st5" d="M336.2,159s0,0-.1,0c0,0-.2-.1-.3-.1,0,0,0,0,.1,0"/>
      <path class="st2" d="M367.5,107.7c-.2.1-.7,0-1.8-.5-.2-.1-.2-.3-.2-.5,0-.1,0-.3,0-.4.3-.5,1.1-.4,1.7-.4.1,0,.3,0,.3.1,0,0,0,.2,0,.4,0,.1-.1.3-.5.5"/>
      <path class="st2" d="M360,95.4c0,.3-.2,1-.4,1.7,0,.4-.3.9-.6,1.4,0,.1-.2-.1-.2-.4,0-.7.1-1.2.2-1.8,0-.2.1-.3.2-.4.1,0,.2,0,.4,0,.4.5.5,1,.5,1.3,0,.1,0,.3,0,.4"/>
      <path class="st2" d="M358.1,113.6c0,0-.2.5-.5.9,0,.1-.2,0-.3-.2-.1-.3-.2-.7-.2-1,0-.2.2-.4.3-.5.5-.3.6,1.1.7,1.7,0,.1,0,.3-.1.5,0,.2-.3.6-.4,1"/>
      <path class="st2" d="M350.6,104.4c-.1,0-1-.4-1.8-.6-.5,0-1-.1-1.1-.2-.6-.1,1.3,0,1.9,0,.2,0,.3,0,.5-.1.2,0,.3-.1.6-.1"/>
      <path class="st5" d="M358.6,105.6s0,0-.1,0c0,0-.2-.1-.3-.1,0,0,0,0,.1,0"/>
      <path class="st2" d="M502.4,3.4c-.2.1-.7,0-1.8-.4-.2-.1-.2-.3-.2-.5,0-.1,0-.3,0-.4.3-.5,1.1-.4,1.7-.4.1,0,.3,0,.3,0,0,0,0,.2,0,.4,0,.2-.1.3-.5.5"/>
      <path class="st2" d="M493.3,9.8c0,0-.2.5-.5,1,0,.1-.2,0-.3-.2-.2-.3-.2-.7-.2-1,0-.2.1-.4.2-.5.5-.3.7,1.1.8,1.7,0,.1,0,.3,0,.5,0,.2-.2.6-.4,1"/>
      <path class="st2" d="M485.4.9c-.1,0-1-.3-1.8-.5-.5,0-1,0-1.1-.1-.6,0,1.3,0,1.9,0,.2,0,.3,0,.5-.2.2,0,.3-.1.6-.2"/>
      <path class="st5" d="M493.4,1.8s0,0-.1,0c0,0-.2,0-.3-.1,0,0,0,0,.1,0"/>
      <path class="st2" d="M440.6,11.5c-.2.1-.7,0-1.8-.4-.2-.1-.2-.3-.2-.5,0-.1,0-.3,0-.4.3-.5,1.1-.4,1.7-.4.1,0,.3,0,.3,0,0,0,0,.2,0,.4,0,.2-.1.3-.5.5"/>
      <path class="st2" d="M432.5-.4c0,.3-.2,1-.3,1.7,0,.4-.2.9-.5,1.4,0,.1-.2-.1-.3-.3-.1-.7,0-1.2.1-1.8,0-.2.1-.3.2-.4.1,0,.2,0,.4,0,.4.4.5,1,.6,1.3,0,.1,0,.3,0,.4"/>
      <path class="st2" d="M431.5,17.9c0,0-.2.5-.5,1,0,.1-.2,0-.3-.2-.2-.3-.2-.7-.2-1,0-.2.1-.4.2-.5.5-.3.7,1.1.8,1.7,0,.1,0,.3,0,.5,0,.2-.2.6-.4,1"/>
      <path class="st2" d="M423.6,9c-.1,0-1-.3-1.8-.5-.5,0-1,0-1.1-.1-.6,0,1.3,0,1.9,0,.2,0,.3,0,.5-.2.2,0,.3-.1.6-.2"/>
      <path class="st5" d="M431.7,9.9s0,0-.1,0-.2,0-.3-.1c0,0,0,0,.1,0"/>
      <path class="st2" d="M463.7,13.6c-.2-.1-.4-.6-.4-1.8,0-.3.2-.3.3-.4.1,0,.3-.1.4-.1.6,0,.9.8,1.1,1.3,0,.1.1.3,0,.3,0,0-.2.1-.3.2s-.3,0-.7-.2"/>
      <path class="st2" d="M470.8,1c-.3,0-.9.3-1.7.5-.3.1-.9.2-1.5.1-.2,0,0-.3.2-.4.6-.4,1.1-.5,1.7-.7.1,0,.3,0,.4,0,.1,0,.2.2.2.3-.2.5-.7.9-.9,1.1-.1,0-.3.1-.4.2"/>
      <path class="st2" d="M454,8.2c0,0-.5,0-1.1,0-.2,0,0-.2,0-.3.2-.3.5-.5.8-.7.2,0,.5,0,.5,0,.5.3-.7,1.1-1.2,1.4-.1,0-.3.1-.5.2-.3,0-.6,0-1,0"/>
      <path class="st5" d="M461.2,4.8s0,0,0-.1c0,0,0-.3,0-.3,0,0,0,0,0,.1"/>
      <path class="st2" d="M429.5,47.5c.2.1.7,0,1.8-.4.2-.1.2-.3.2-.5,0-.1,0-.3,0-.4-.3-.5-1.1-.4-1.7-.4-.1,0-.3,0-.3,0,0,0,0,.2,0,.4,0,.2.1.3.5.5"/>
      <path class="st2" d="M437.7,35.5c0,.3.2,1,.3,1.7,0,.4.2.9.5,1.4,0,.1.2-.1.3-.3.1-.7,0-1.2-.1-1.8,0-.2-.1-.3-.2-.4-.1,0-.2,0-.4,0-.4.4-.5,1-.6,1.3,0,.1,0,.3,0,.4"/>
      <path class="st2" d="M438.7,53.9c0,0,.2.5.5,1,0,.1.2,0,.3-.2.2-.3.2-.7.2-1,0-.2-.1-.4-.2-.5-.5-.3-.7,1.1-.8,1.7,0,.1,0,.3,0,.5,0,.2.2.6.4,1"/>
      <path class="st2" d="M446.6,45c.1,0,1-.3,1.8-.5.5,0,1,0,1.1-.1.7,0-1.3,0-1.9,0-.2,0-.3,0-.5-.2-.2,0-.3-.1-.6-.2"/>
      <path class="st5" d="M438.5,45.9s0,0,.1,0c0,0,.2,0,.3-.1,0,0,0,0-.1,0"/>
      <path class="st2" d="M480.1,37.1c.2.1.7,0,1.8-.4.2-.1.2-.3.2-.5,0-.1,0-.3,0-.4-.3-.5-1.1-.4-1.7-.4-.1,0-.3,0-.3,0,0,0,0,.2,0,.4,0,.2.1.3.5.5"/>
      <path class="st2" d="M488.2,25.2c0,.3.2,1,.3,1.7,0,.4.2.9.5,1.4,0,.1.2-.1.3-.3.1-.7,0-1.2-.1-1.8,0-.2-.1-.3-.2-.4-.1,0-.2,0-.4,0-.4.4-.5,1-.6,1.3,0,.1,0,.3,0,.4"/>
      <path class="st2" d="M489.2,43.5c0,0,.2.5.5,1,0,.1.2,0,.3-.2.2-.3.2-.7.2-1,0-.2-.1-.4-.2-.5-.5-.3-.7,1.1-.8,1.7,0,.1,0,.3,0,.5,0,.2.2.6.4,1"/>
      <path class="st2" d="M497.1,34.6c.1,0,1-.3,1.8-.5.5,0,1,0,1.1-.1.6,0-1.3,0-1.9,0-.2,0-.3,0-.5-.2-.2,0-.3-.1-.6-.2"/>
      <path class="st5" d="M489,35.5s0,0,.1,0c0,0,.2,0,.3-.1,0,0,0,0-.1,0"/>
      <path class="st2" d="M458.8,47.3c.2-.1.4-.6.4-1.8,0-.3-.2-.3-.3-.4-.1,0-.3-.1-.4-.1-.6,0-.9.8-1.1,1.3,0,.1-.1.3,0,.3,0,0,.2.1.3.2.2,0,.3,0,.7-.2"/>
      <path class="st2" d="M451.7,34.7c.3,0,.9.3,1.7.5.3.1.9.2,1.5.1.2,0,0-.3-.2-.4-.6-.4-1.1-.5-1.7-.7-.1,0-.3,0-.4,0-.1,0-.2.2-.2.3.2.5.7.9.9,1.1.1,0,.3.1.4.2"/>
      <path class="st2" d="M468.6,41.9c0,0,.5,0,1.1,0,.2,0,0-.2,0-.3-.2-.3-.5-.5-.8-.7-.2,0-.5,0-.5,0-.5.3.7,1.1,1.2,1.4.1,0,.3.1.5.2.3,0,.6,0,1,0"/>
      <path class="st2" d="M464.2,30.9c0-.1.2-1.1.4-1.9.2-.5.3-.9.4-1,.2-.6-.6,1.2-.9,1.7,0,.1-.2.2-.4.4-.1.1-.3.2-.4.5"/>
      <path class="st5" d="M461.4,38.5s0,0,0-.1c0,0,0-.3,0-.3,0,0,0,0,0,.1"/>
      <path class="st2" d="M395.9,92.4c.2.1.7,0,1.8-.4.2-.1.2-.3.2-.5,0-.1,0-.3,0-.4-.3-.5-1.1-.4-1.7-.4-.1,0-.3,0-.3,0,0,0,0,.2,0,.4,0,.2.1.3.5.5"/>
      <path class="st2" d="M404,80.5c0,.3.2,1,.3,1.7,0,.4.2.9.5,1.4,0,.1.2-.1.3-.3.1-.7,0-1.2-.1-1.8,0-.2-.1-.3-.2-.4-.1,0-.2,0-.4,0-.4.4-.5,1-.6,1.3,0,.1,0,.3,0,.4"/>
      <path class="st2" d="M405,98.8c0,0,.2.5.5,1,0,.1.2,0,.3-.2.2-.3.2-.7.2-1,0-.2-.1-.4-.2-.5-.5-.3-.7,1.1-.8,1.7,0,.1,0,.3,0,.5,0,.2.2.6.4,1"/>
      <path class="st2" d="M412.9,89.9c.1,0,1-.3,1.8-.5.5,0,1,0,1.1-.1.6,0-1.3,0-1.9,0-.2,0-.3,0-.5-.2-.2,0-.3-.1-.6-.2"/>
      <path class="st5" d="M404.8,90.8s0,0,.1,0,.2,0,.3-.1c0,0,0,0-.1,0"/>
      <path class="st2" d="M446.4,82c.2.1.7,0,1.8-.4.2-.1.2-.3.2-.5,0-.1,0-.3,0-.4-.3-.5-1.1-.4-1.7-.4-.1,0-.3,0-.3,0,0,0,0,.2,0,.4,0,.2.1.3.5.5"/>
      <path class="st2" d="M454.5,70.1c0,.3.2,1,.3,1.7,0,.4.2.9.5,1.4,0,.1.2-.1.3-.3.1-.7,0-1.2-.1-1.8,0-.2-.1-.3-.2-.4-.1,0-.2,0-.4,0-.4.4-.5,1-.6,1.3,0,.1,0,.3,0,.4"/>
      <path class="st2" d="M455.5,88.4c0,0,.2.5.5,1,0,.1.2,0,.3-.2.2-.3.2-.7.2-1,0-.2-.1-.4-.2-.5-.5-.3-.7,1.1-.8,1.7,0,.1,0,.3,0,.5,0,.2.2.6.4,1"/>
      <path class="st2" d="M463.4,79.5c.1,0,1-.3,1.8-.5.5,0,1,0,1.1-.1.6,0-1.3,0-1.9,0-.2,0-.3,0-.5-.2-.2,0-.3-.1-.6-.2"/>
      <path class="st5" d="M455.4,80.4s0,0,.1,0c0,0,.2,0,.3-.1,0,0,0,0-.1,0"/>
      <path class="st2" d="M425.1,92.2c.2-.1.4-.6.4-1.8,0-.3-.2-.3-.3-.4-.1,0-.3-.1-.4-.1-.6,0-.9.8-1.1,1.3,0,.1-.1.3,0,.3,0,0,.2.1.3.2.2,0,.3,0,.7-.2"/>
      <path class="st2" d="M418,79.6c.3,0,.9.3,1.7.5.3.1.9.2,1.5.1.2,0,0-.3-.2-.4-.6-.4-1.2-.5-1.7-.7-.1,0-.3,0-.4,0-.1,0-.2.2-.2.3.2.5.7.9.9,1.1.1,0,.3.1.4.2"/>
      <path class="st2" d="M434.9,86.8c0,0,.5,0,1.1,0,.2,0,0-.2,0-.3-.2-.3-.5-.5-.8-.7-.2,0-.5,0-.5,0-.5.3.7,1.1,1.2,1.4.1,0,.3.1.5.2.3,0,.6,0,1,0"/>
      <path class="st2" d="M430.5,75.8c0-.1.2-1.1.4-1.9.2-.5.3-.9.4-1,.2-.6-.6,1.2-.9,1.7,0,.1-.2.2-.4.4-.1.1-.3.2-.4.5"/>
      <path class="st5" d="M427.7,83.4s0,0,0-.1c0,0,0-.3,0-.3,0,0,0,0,0,.1"/>
      <path class="st2" d="M395.9,92.4c.2.1.7,0,1.8-.4.2-.1.2-.3.2-.5,0-.1,0-.3,0-.4-.3-.5-1.1-.4-1.7-.4-.1,0-.3,0-.3,0,0,0,0,.2,0,.4,0,.2.1.3.5.5"/>
      <path class="st2" d="M404,80.5c0,.3.2,1,.3,1.7,0,.4.2.9.5,1.4,0,.1.2-.1.3-.3.1-.7,0-1.2-.1-1.8,0-.2-.1-.3-.2-.4-.1,0-.2,0-.4,0-.4.4-.5,1-.6,1.3,0,.1,0,.3,0,.4"/>
      <path class="st2" d="M405,98.8c0,0,.2.5.5,1,0,.1.2,0,.3-.2.2-.3.2-.7.2-1,0-.2-.1-.4-.2-.5-.5-.3-.7,1.1-.8,1.7,0,.1,0,.3,0,.5,0,.2.2.6.4,1"/>
      <path class="st2" d="M412.9,89.9c.1,0,1-.3,1.8-.5.5,0,1,0,1.1-.1.6,0-1.3,0-1.9,0-.2,0-.3,0-.5-.2-.2,0-.3-.1-.6-.2"/>
      <path class="st5" d="M404.8,90.8s0,0,.1,0,.2,0,.3-.1c0,0,0,0-.1,0"/>
      <path class="st2" d="M446.4,82c.2.1.7,0,1.8-.4.2-.1.2-.3.2-.5,0-.1,0-.3,0-.4-.3-.5-1.1-.4-1.7-.4-.1,0-.3,0-.3,0,0,0,0,.2,0,.4,0,.2.1.3.5.5"/>
      <path class="st2" d="M454.5,70.1c0,.3.2,1,.3,1.7,0,.4.2.9.5,1.4,0,.1.2-.1.3-.3.1-.7,0-1.2-.1-1.8,0-.2-.1-.3-.2-.4-.1,0-.2,0-.4,0-.4.4-.5,1-.6,1.3,0,.1,0,.3,0,.4"/>
      <path class="st2" d="M455.5,88.4c0,0,.2.5.5,1,0,.1.2,0,.3-.2.2-.3.2-.7.2-1,0-.2-.1-.4-.2-.5-.5-.3-.7,1.1-.8,1.7,0,.1,0,.3,0,.5,0,.2.2.6.4,1"/>
      <path class="st2" d="M463.4,79.5c.1,0,1-.3,1.8-.5.5,0,1,0,1.1-.1.6,0-1.3,0-1.9,0-.2,0-.3,0-.5-.2-.2,0-.3-.1-.6-.2"/>
      <path class="st5" d="M455.4,80.4s0,0,.1,0c0,0,.2,0,.3-.1,0,0,0,0-.1,0"/>
      <path class="st2" d="M425.1,92.2c.2-.1.4-.6.4-1.8,0-.3-.2-.3-.3-.4-.1,0-.3-.1-.4-.1-.6,0-.9.8-1.1,1.3,0,.1-.1.3,0,.3,0,0,.2.1.3.2.2,0,.3,0,.7-.2"/>
      <path class="st2" d="M418,79.6c.3,0,.9.3,1.7.5.3.1.9.2,1.5.1.2,0,0-.3-.2-.4-.6-.4-1.2-.5-1.7-.7-.1,0-.3,0-.4,0-.1,0-.2.2-.2.3.2.5.7.9.9,1.1.1,0,.3.1.4.2"/>
      <path class="st2" d="M434.9,86.8c0,0,.5,0,1.1,0,.2,0,0-.2,0-.3-.2-.3-.5-.5-.8-.7-.2,0-.5,0-.5,0-.5.3.7,1.1,1.2,1.4.1,0,.3.1.5.2.3,0,.6,0,1,0"/>
      <path class="st2" d="M430.5,75.8c0-.1.2-1.1.4-1.9.2-.5.3-.9.4-1,.2-.6-.6,1.2-.9,1.7,0,.1-.2.2-.4.4-.1.1-.3.2-.4.5"/>
      <path class="st5" d="M427.7,83.4s0,0,0-.1c0,0,0-.3,0-.3,0,0,0,0,0,.1"/>
      <path class="st2" d="M269.3,107.7c-.2.1-.7,0-1.8-.5-.2-.1-.2-.3-.2-.5,0-.1,0-.3,0-.4.3-.5,1.1-.4,1.7-.4.1,0,.3,0,.3.1,0,0,0,.2,0,.4,0,.1-.1.3-.5.5"/>
      <path class="st2" d="M261.7,95.4c0,.3-.2,1-.4,1.7,0,.4-.3.9-.6,1.4,0,.1-.2-.1-.2-.4,0-.7.1-1.2.2-1.8,0-.2.1-.3.2-.4.1,0,.2,0,.4,0,.4.5.5,1,.5,1.3,0,.1,0,.3,0,.4"/>
      <path class="st2" d="M259.8,113.6c0,0-.2.5-.5.9,0,.1-.2,0-.3-.2-.1-.3-.2-.7-.2-1,0-.2.2-.4.3-.5.5-.3.6,1.1.7,1.7,0,.1,0,.3-.1.5,0,.2-.3.6-.4,1"/>
      <path class="st2" d="M252.4,104.4c-.1,0-1-.4-1.8-.6-.5,0-1-.1-1.1-.2-.6-.1,1.3,0,1.9,0,.2,0,.3,0,.5-.1.2,0,.3-.1.6-.1"/>
      <path class="st5" d="M260.4,105.6s0,0-.1,0c0,0-.2-.1-.3-.1,0,0,0,0,.1,0"/>
      <path class="st2" d="M246.8,23.5c-.2.1-.7,0-1.8-.5-.2-.1-.2-.3-.2-.5,0-.1,0-.3,0-.4.3-.5,1.1-.4,1.7-.4.1,0,.3,0,.3.1,0,0,0,.2,0,.4,0,.1-.1.3-.5.5"/>
      <path class="st2" d="M239.3,11.2c0,.3-.2,1-.4,1.7,0,.4-.3.9-.6,1.4,0,.1-.2-.1-.2-.4,0-.7.1-1.2.2-1.8,0-.2.1-.3.2-.4.1,0,.2,0,.4,0,.4.5.5,1,.5,1.3,0,.1,0,.3,0,.4"/>
      <path class="st2" d="M237.4,29.4c0,0-.2.5-.5.9,0,.1-.2,0-.3-.2-.1-.3-.2-.7-.2-1,0-.2.2-.4.3-.5.5-.3.6,1.1.7,1.7,0,.1,0,.3-.1.5,0,.2-.3.6-.4,1"/>
      <path class="st2" d="M229.9,20.2c-.1,0-1-.4-1.8-.6-.5,0-1-.1-1.1-.2-.6-.1,1.3,0,1.9,0,.2,0,.3,0,.5-.1.2,0,.3-.1.6-.1"/>
      <path class="st5" d="M237.9,21.4s0,0-.1,0c0,0-.2-.1-.3-.1,0,0,0,0,.1,0"/>
      <path class="st2" d="M232.8,65.6c-.2.1-.7,0-1.8-.5-.2-.1-.2-.3-.2-.5,0-.1,0-.3,0-.4.3-.5,1.1-.4,1.7-.4.1,0,.3,0,.3.1,0,0,0,.2,0,.4,0,.1-.1.3-.5.5"/>
      <path class="st2" d="M225.2,53.3c0,.3-.2,1-.4,1.7,0,.4-.3.9-.6,1.4,0,.1-.2-.1-.2-.4,0-.7.1-1.2.2-1.8,0-.2.1-.3.2-.4.1,0,.2,0,.4,0,.4.5.5,1,.5,1.3,0,.1,0,.3,0,.4"/>
      <path class="st2" d="M223.3,71.5c0,0-.2.5-.5.9,0,.1-.2,0-.3-.2-.1-.3-.2-.7-.2-1,0-.2.2-.4.3-.5.5-.3.6,1.1.7,1.7,0,.1,0,.3-.1.5,0,.2-.3.6-.4,1"/>
      <path class="st2" d="M215.9,62.3c-.1,0-1-.4-1.8-.6-.5,0-1-.1-1.1-.2-.6-.1,1.3,0,1.9,0,.2,0,.3,0,.5-.1.2,0,.3-.1.6-.1"/>
      <path class="st5" d="M223.9,63.5s0,0-.1,0c0,0-.2-.1-.3-.1,0,0,0,0,.1,0"/>
      <path class="st2" d="M266.5,37.5c-.2.1-.7,0-1.8-.5-.2-.1-.2-.3-.2-.5,0-.1,0-.3,0-.4.3-.5,1.1-.4,1.7-.4.1,0,.3,0,.3.1,0,0,0,.2,0,.4,0,.1-.1.3-.5.5"/>
      <path class="st2" d="M258.9,25.2c0,.3-.2,1-.4,1.7,0,.4-.3.9-.6,1.4,0,.1-.2-.1-.2-.4,0-.7.1-1.2.2-1.8,0-.2.1-.3.2-.4.1,0,.2,0,.4,0,.4.5.5,1,.5,1.3,0,.1,0,.3,0,.4"/>
      <path class="st2" d="M257,43.4c0,0-.2.5-.5.9,0,.1-.2,0-.3-.2-.1-.3-.2-.7-.2-1,0-.2.2-.4.3-.5.5-.3.6,1.1.7,1.7,0,.1,0,.3-.1.5,0,.2-.3.6-.4,1"/>
      <path class="st2" d="M249.6,34.2c-.1,0-1-.4-1.8-.6-.5,0-1-.1-1.1-.2-.6-.1,1.3,0,1.9,0,.2,0,.3,0,.5-.1.2,0,.3-.1.6-.1"/>
      <path class="st5" d="M257.6,35.5s0,0-.1,0c0,0-.2-.1-.3-.1,0,0,0,0,.1,0"/>
      <path class="st2" d="M283.3,79.6c-.2.1-.7,0-1.8-.5-.2-.1-.2-.3-.2-.5s0-.3,0-.4c.3-.5,1.1-.4,1.7-.4.1,0,.3,0,.3.1,0,0,0,.2,0,.4,0,.1-.1.3-.5.5"/>
      <path class="st2" d="M275.8,67.3c0,.3-.2,1-.4,1.7,0,.4-.3.9-.6,1.4,0,.1-.2-.1-.2-.4,0-.7.1-1.2.2-1.8,0-.2.1-.3.2-.4.1,0,.2,0,.4,0,.4.5.5,1,.5,1.3,0,.1,0,.3,0,.4"/>
      <path class="st2" d="M273.9,85.5c0,0-.2.5-.5.9,0,.1-.2,0-.3-.2-.1-.3-.2-.7-.2-1,0-.2.2-.4.3-.5.5-.3.6,1.1.7,1.7,0,.1,0,.3-.1.5,0,.2-.3.6-.4,1"/>
      <path class="st2" d="M266.4,76.3c-.1,0-1-.4-1.8-.6-.5,0-1-.1-1.1-.2-.6-.1,1.3,0,1.9,0,.2,0,.3,0,.5-.1.2,0,.3-.1.6-.1"/>
      <path class="st5" d="M274.4,77.6s0,0-.1,0c0,0-.2-.1-.3-.1,0,0,0,0,.1,0"/>
      <path class="st2" d="M300.1,37.5c-.2.1-.7,0-1.8-.5-.2-.1-.2-.3-.2-.5,0-.1,0-.3,0-.4.3-.5,1.1-.4,1.7-.4.1,0,.3,0,.3.1,0,0,0,.2,0,.4,0,.1-.1.3-.5.5"/>
      <path class="st2" d="M292.6,25.2c0,.3-.2,1-.4,1.7,0,.4-.3.9-.6,1.4,0,.1-.2-.1-.2-.4,0-.7.1-1.2.2-1.8,0-.2.1-.3.2-.4.1,0,.2,0,.4,0,.4.5.5,1,.5,1.3,0,.1,0,.3,0,.4"/>
      <path class="st2" d="M290.7,43.4c0,0-.2.5-.5.9,0,.1-.2,0-.3-.2-.1-.3-.2-.7-.2-1,0-.2.2-.4.3-.5.5-.3.6,1.1.7,1.7,0,.1,0,.3-.1.5,0,.2-.3.6-.4,1"/>
      <path class="st2" d="M283.3,34.2c-.1,0-1-.4-1.8-.6-.5,0-1-.1-1.1-.2-.6-.1,1.3,0,1.9,0,.2,0,.3,0,.5-.1.2,0,.3-.1.6-.1"/>
      <path class="st5" d="M291.2,35.5s0,0-.1,0c0,0-.2-.1-.3-.1,0,0,0,0,.1,0"/>
      <path class="st2" d="M336.6,48.7c-.2.1-.7,0-1.8-.5-.2-.1-.2-.3-.2-.5,0-.1,0-.3,0-.4.3-.5,1.1-.4,1.7-.4.1,0,.3,0,.3.1,0,0,0,.2,0,.4,0,.1-.1.3-.5.5"/>
      <path class="st2" d="M329.1,36.4c0,.3-.2,1-.4,1.7,0,.4-.3.9-.6,1.4,0,.1-.2-.1-.2-.4,0-.7.1-1.2.2-1.8,0-.2.1-.3.2-.4.1,0,.2,0,.4,0,.4.5.5,1,.5,1.3,0,.1,0,.3,0,.4"/>
      <path class="st2" d="M327.2,54.7c0,0-.2.5-.5.9,0,.1-.2,0-.3-.2-.1-.3-.2-.7-.2-1,0-.2.2-.4.3-.5.5-.3.6,1.1.7,1.7,0,.1,0,.3-.1.5,0,.2-.3.6-.4,1"/>
      <path class="st2" d="M319.7,45.4c-.1,0-1-.4-1.8-.6-.5,0-1-.1-1.1-.2-.6-.1,1.3,0,1.9,0,.2,0,.3,0,.5-.1.2,0,.3-.1.6-.1"/>
      <path class="st5" d="M327.7,46.7s0,0-.1,0c0,0-.2-.1-.3-.1s0,0,.1,0"/>
      <path class="st2" d="M345,118.9c-.2.1-.7,0-1.8-.5-.2-.1-.2-.3-.2-.5,0-.1,0-.3,0-.4.3-.5,1.1-.4,1.7-.4.1,0,.3,0,.3.1,0,0,0,.2,0,.4,0,.1-.1.3-.5.5"/>
      <path class="st2" d="M337.5,106.6c0,.3-.2,1-.4,1.7,0,.4-.3.9-.6,1.4,0,.1-.2-.1-.2-.4,0-.7.1-1.2.2-1.8,0-.2.1-.3.2-.4.1,0,.2,0,.4,0,.4.5.5,1,.5,1.3,0,.1,0,.3,0,.4"/>
      <path class="st2" d="M335.6,124.8c0,0-.2.5-.5.9,0,.1-.2,0-.3-.2-.1-.3-.2-.7-.2-1,0-.2.2-.4.3-.5.5-.3.6,1.1.7,1.7,0,.1,0,.3-.1.5,0,.2-.3.6-.4,1"/>
      <path class="st2" d="M328.2,115.6c-.1,0-1-.4-1.8-.6-.5,0-1-.1-1.1-.2-.6-.1,1.3,0,1.9,0,.2,0,.3,0,.5-.1.2,0,.3-.1.6-.1"/>
      <path class="st5" d="M336.2,116.9s0,0-.1,0-.2-.1-.3-.1c0,0,0,0,.1,0"/>
      <path class="st2" d="M342.2,214.3c-.2.1-.7,0-1.8-.5-.2-.1-.2-.3-.2-.5,0-.1,0-.3,0-.4.3-.5,1.1-.4,1.7-.4.1,0,.3,0,.3.1,0,0,0,.2,0,.4,0,.1-.1.3-.5.5"/>
      <path class="st2" d="M334.7,202c0,.3-.2,1-.4,1.7,0,.4-.3.9-.6,1.4,0,.1-.2-.1-.2-.4,0-.7.1-1.2.2-1.8,0-.2.1-.3.2-.4.1,0,.2,0,.4,0,.4.5.5,1,.5,1.3,0,.1,0,.3,0,.4"/>
      <path class="st2" d="M332.8,220.3c0,0-.2.5-.5.9,0,.1-.2,0-.3-.2-.1-.3-.2-.7-.2-1,0-.2.2-.4.3-.5.5-.3.6,1.1.7,1.7,0,.1,0,.3-.1.5,0,.2-.3.6-.4,1"/>
      <path class="st2" d="M325.4,211c-.1,0-1-.4-1.8-.6-.5-.1-1-.1-1.1-.2-.6-.1,1.3,0,1.9,0,.2,0,.3,0,.5-.1.2,0,.3-.1.6-.1"/>
      <path class="st5" d="M333.3,212.3s0,0-.1,0c0,0-.2-.1-.3-.1,0,0,0,0,.1,0"/>
      <path class="st2" d="M328.2,189.1c-.2.1-.7,0-1.8-.5-.2-.1-.2-.3-.2-.5,0-.1,0-.3,0-.4.3-.5,1.1-.4,1.7-.4.1,0,.3,0,.3.1,0,0,0,.2,0,.4,0,.1-.1.3-.5.5"/>
      <path class="st2" d="M320.7,176.8c0,.3-.2,1-.4,1.7,0,.4-.3.9-.6,1.4,0,.1-.2-.1-.2-.4,0-.7.1-1.2.2-1.8,0-.2.1-.3.2-.4.1,0,.2,0,.4,0,.4.5.5,1,.5,1.3,0,.1,0,.3,0,.4"/>
      <path class="st2" d="M318.8,195c0,0-.2.5-.5.9,0,.1-.2,0-.3-.2-.1-.3-.2-.7-.2-1,0-.2.2-.4.3-.5.5-.3.6,1.1.7,1.7,0,.1,0,.3-.1.5,0,.2-.3.6-.4,1"/>
      <path class="st2" d="M311.3,185.8c-.1,0-1-.4-1.8-.6-.5-.1-1-.1-1.1-.2-.6-.1,1.3,0,1.9,0,.2,0,.3,0,.5-.1.2,0,.3-.1.6-.1"/>
      <path class="st5" d="M319.3,187s0,0-.1,0c0,0-.2-.1-.3-.1,0,0,0,0,.1,0"/>
      <ellipse class="st14" cx="600.5" cy="174.5" rx="249.5" ry="151.5"/>
      <path class="st6" d="M600.5,45.5c63.2,0,120.3,14.6,161.5,38.2,41.3,23.6,66.5,55.9,66.5,91.3s-25.2,67.7-66.5,91.3c-41.3,23.6-98.4,38.2-161.5,38.2s-120.3-14.6-161.5-38.2c-41.3-23.6-66.5-55.9-66.5-91.3s25.2-67.7,66.5-91.3c41.3-23.6,98.4-38.2,161.5-38.2Z"/>
    </g>
  </g>
</svg>