<?xml version="1.0" encoding="UTF-8"?>
<svg id="Layer_1" xmlns="http://www.w3.org/2000/svg" version="1.1" viewBox="0 0 64 64">
  <!-- Generator: Adobe Illustrator 29.7.1, SVG Export Plug-In . SVG Version: 2.1.1 Build 8)  -->
  <defs>
    <style>
      .st0 {
        fill: #81c1ff;
      }

      .st1 {
        fill: #06000c;
      }

      .st2 {
        fill: #5fe5ad;
      }

      .st3 {
        fill: #f2ff63;
      }
    </style>
  </defs>
  <path class="st3" d="M32,63.9h-.1c0,0-23.9,0-23.9,0-4.4,0-8-3.6-8-8V8C0,3.6,3.6,0,8,0h24c-9.1,8.1-14.8,19.4-14.8,32s5.7,23.9,14.8,31.9Z"/>
  <path class="st2" d="M46.8,32c0,12.6-5.7,23.9-14.8,31.9-9.1-8-14.8-19.3-14.8-31.9S22.9,8.1,32,.1c9.1,8,14.8,19.3,14.8,31.9Z"/>
  <path class="st0" d="M64,8v48c0,4.4-3.6,8-8,8h-24c9.1-8.1,14.8-19.4,14.8-32S41.1,8.1,32,.1h0c0-.1,23.9-.1,23.9-.1,4.4,0,8,3.6,8,8Z"/>
  <g>
    <path class="st1" d="M19.7,46.8c-3.2,0-14.5-1.7-14.5-14.7s10.2-14.8,14.5-14.8,8.3,1.5,10.8,4.3c3.5,4.1,3.7,10.3,3.4,12.9H12.3c.1,1.6.8,3.1,1.9,4.3,1.4,1.4,3.4,2.2,5.4,2.2h.3c4.8,0,6.4-3.5,6.4-3.5h7.1s-2.4,9.4-13.7,9.4ZM12.4,29.2h14.5c0-1.6-.7-3.2-1.8-4.4-1.2-1.3-3-1.9-5.3-1.9h0c-2.3,0-4.2.6-5.5,1.9-1.2,1.2-1.8,2.8-1.9,4.4Z"/>
    <path class="st1" d="M52.9,46.8c-3.6,0-7.1-1.4-9.8-3.8-2.1-1.9-4.5-5.2-4.5-10.6,0-8.1,6.5-14.8,14.5-14.9,1.6,0,3.9.2,5.7,1v6c-4-1-7.7-.8-10.1,1.1-1.9,1.5-3,3.8-3,6.7s1,4.8,2.8,6.3c2.3,1.9,6.1,2.3,10.3,1.3v5.9c-1.8.8-4.1.9-5.9.9Z"/>
  </g>
</svg>