<svg width="185" height="186" viewBox="0 0 185 186" fill="none" xmlns="http://www.w3.org/2000/svg">
<title>Joshua Korenblat</title> 

<circle cx="92.2619" cy="92.9254" r="91.215" fill="currentColor" stroke="#FFFEFC" stroke-width="2"/>
<path d="M112.468 66.118C112.473 66.0499 112.594 64.3798 112.793 61.8528C112.893 60.5794 113.07 60.1447 113.237 59.9669C113.654 59.5228 114.574 59.7687 115.582 59.8233C116.481 59.872 117.503 60.6006 117.894 60.9058C118.322 61.2401 118.769 61.6258 119.069 62.0105C119.371 62.3991 119.831 62.6361 120.221 62.9414C120.612 63.2466 121.006 63.4825 121.621 63.7686C122.335 64.1014 122.8 64.3383 123.201 64.5057C123.602 64.6732 124.001 64.84 124.401 65.0244C124.826 65.2209 125.117 65.5762 125.471 65.914C125.816 66.2444 126.263 66.352 126.65 66.7078C127.023 67.0503 127.434 67.2666 127.828 67.5367C128.236 67.8173 128.608 68.146 128.999 68.4513C129.39 68.7565 129.779 69.0606 130.176 69.2801C130.586 69.5071 130.965 69.7687 131.344 70.0041C131.746 70.2541 131.961 70.7391 132.623 71.5469C133.041 72.0573 133.518 72.4763 133.984 72.926C134.693 73.6096 135.012 74.1757 135.531 74.818C135.992 75.3873 136.233 75.8201 136.572 76.3633C137.024 77.0882 137.637 77.7891 138.216 78.7968C138.824 79.8553 138.894 80.3699 139.036 80.7957C139.185 81.2406 139.243 81.7438 139.418 82.172C139.438 82.3805 139.452 82.6585 139.477 83.0224C139.481 83.2136 139.466 83.418 139.451 83.6285" stroke="#FFF2EA" stroke-width="1.5" stroke-linecap="round"/>
<path d="M103.582 87.7842C103.601 87.992 103.775 88.4186 104.121 88.8591C104.468 89.3002 104.894 89.5722 105.285 89.8774C105.676 90.1826 106.065 90.4867 106.464 90.6892C106.851 90.8862 107.399 91.0332 108.035 91.2866C108.455 91.4541 109.895 91.5599 110.853 91.5258C111.369 91.5075 111.841 91.3891 112.396 91.3259C112.926 91.2656 113.407 91.1224 113.862 91.0167C114.276 90.9208 114.695 90.904 115.224 90.7176C115.723 90.5415 116.16 90.5948 116.682 90.511C117.193 90.4289 118.02 90.4862 118.781 90.455C119.88 90.41 122.19 90.5796 123.583 90.5941C123.998 90.5984 124.48 90.5374 124.948 90.4851C125.446 90.4296 126.066 90.4443 126.588 90.3788C127.04 90.3072 127.523 90.2735 127.977 90.1848C128.115 90.1772 128.284 90.1894 128.458 90.202" stroke="#FFF2EA" stroke-width="1.5" stroke-linecap="round"/>
<path d="M128.444 90.2632C128.592 90.2739 128.92 90.2703 129.101 90.2284C129.265 90.1902 129.487 90.1604 129.717 90.1079C129.908 90.0642 130.101 89.9846 130.305 89.91C130.487 89.8431 130.687 89.8207 130.854 89.7709C131.033 89.7179 131.192 89.6238 131.397 89.5353C131.579 89.4562 131.782 89.405 131.965 89.3222C132.199 89.2166 132.373 89.1591 132.584 89.0714C132.808 88.9784 133.049 88.8648 133.361 88.7086C133.737 88.5203 133.948 88.3385 134.301 88.1719C134.59 88.035 134.82 87.7839 135.03 87.6333C135.254 87.4719 135.453 87.348 135.624 87.2431C135.784 87.1459 136.022 87.0181 136.259 86.8701C136.452 86.7495 136.575 86.5632 136.737 86.3895C136.999 86.1106 137.23 85.9921 137.444 85.8699C137.679 85.7351 137.833 85.5822 138.005 85.4705C138.168 85.3648 138.311 85.2044 138.479 85.0514C138.628 84.9161 138.727 84.7397 138.882 84.5857C139.024 84.4436 139.129 84.274 139.21 84.1147C139.287 83.9597 139.342 83.7946 139.408 83.6343C139.425 83.5941 139.441 83.5544 139.458 83.5142C139.474 83.474 139.491 83.4343 139.514 83.3115" stroke="#FFF2EA" stroke-width="1.5" stroke-linecap="round"/>
<path d="M103.44 87.7154C103.877 87.8979 104.061 87.9936 104.307 88.0867C104.868 88.2997 105.194 88.3639 105.416 88.4282C105.672 88.5025 106.055 88.5226 106.448 88.5851C107.27 88.716 107.641 88.5141 107.99 88.4152C108.202 88.3551 108.415 88.199 108.705 87.9795C108.971 87.7775 109.115 87.5899 109.309 87.3635C109.481 87.1632 109.536 86.865 109.585 86.6753C109.606 86.5934 109.647 86.4739 109.695 86.0952C109.87 84.7053 109.749 84.5024 109.711 84.2661C109.682 84.0816 109.629 83.8893 109.464 83.6368C109.25 83.3102 108.897 82.904 108.504 82.5641C108.287 82.3768 108.093 82.2935 107.871 82.1472C107.684 82.0239 107.505 81.9213 107.278 81.8498C107.073 81.7851 106.708 81.6304 106.401 81.5118C106.194 81.4318 105.946 81.3825 105.254 81.0794C104.935 80.9399 104.441 80.7255 103.586 80.3474C103.381 80.2568 103.219 80.2102 102.987 80.125C102.711 80.0238 102.198 79.8212 101.591 79.6263C101.078 79.4614 100.805 79.4036 100.485 79.3053C100.166 79.2073 100.002 79.1808 99.3036 78.9525C98.9468 78.8358 98.629 78.7247 98.2761 78.6031C97.9063 78.4758 97.6987 78.3689 97.49 78.3262C97.0856 78.2435 96.8031 78.0982 96.6076 78.0632C96.4363 78.0326 96.2793 77.9779 95.0546 77.8823C94.6075 77.8474 94.4128 77.9248 94.2332 77.9467C94.0472 77.9694 93.8563 78.0636 93.6504 78.1722C93.4773 78.2636 93.3259 78.4095 93.1921 78.6539C93.0313 78.9476 92.9705 79.1672 92.8749 80.393C92.8403 80.8371 92.9289 81.0606 93.0066 81.3066C93.0879 81.5638 93.2046 81.7814 93.348 82.0595C93.45 82.2575 93.5808 82.4269 93.7832 82.7435C93.9185 82.9551 94.0602 83.1624 94.1767 83.3495C94.3353 83.604 94.5278 83.8689 94.8724 84.2923C95.0594 84.5219 95.2307 84.731 95.3978 84.874C95.5629 85.0153 95.7141 85.2194 95.9644 85.4368C96.3277 85.7522 96.7442 86.27 96.9327 86.4959C97.1833 86.7961 97.4613 87.1182 97.6465 87.2967C97.8105 87.4548 97.9565 87.6347 98.1405 87.8269C98.3163 88.0104 98.4616 88.2075 98.6859 88.4832C99.486 89.467 99.6919 89.6975 99.8447 89.8535C99.997 90.0089 100.107 90.195 100.224 90.3686C100.352 90.5569 100.491 90.7446 100.752 91.0863C100.926 91.314 101.13 91.5188 101.354 91.7417C101.597 91.9842 101.773 92.266 101.959 92.4384C102.244 92.726 102.571 93.135 102.718 93.2765C102.763 93.3142 102.814 93.3586 102.904 93.4484" stroke="#FFF2EA" stroke-width="1.5" stroke-linecap="round"/>
<path d="M102.895 93.4902C103.005 93.6762 103.155 93.852 103.471 94.2037C103.697 94.4565 103.885 94.7012 104.39 95.2657C104.678 95.5879 104.909 95.8469 105.132 96.0763C105.418 96.3709 105.903 96.8108 106.153 97.064C106.326 97.24 106.608 97.4537 107.002 97.7707C107.329 98.0337 107.716 98.3574 108.055 98.6098C108.373 98.8471 108.959 99.2848 109.569 99.7559C109.876 99.9933 110.038 100.079 110.233 100.21C110.497 100.387 110.838 100.713 111.154 100.97C111.689 101.404 111.861 101.503 112.037 101.618C112.289 101.784 112.448 101.875 112.607 101.942C112.767 102.008 113.25 102.071 113.586 102.006C113.809 101.963 113.901 101.61 114.036 101.352C114.224 100.992 114.132 100.322 114.038 99.8274C113.947 99.349 113.641 98.8014 113.49 98.5368C113.187 98.0063 112.983 97.8882 112.835 97.6784C112.569 97.3031 112.377 97.212 112.191 97.0475C112.02 96.8969 111.847 96.6115 111.653 96.3561C111.5 96.1543 111.29 96.0073 111.168 95.7852C111.071 95.6066 110.975 95.4346 110.879 95.2625C110.783 95.0929 110.641 94.957 110.544 94.7849C110.434 94.5895 110.272 94.3945 110.175 94.2223C110.151 94.1792 110.127 94.1366 110.103 94.0934C110.078 94.0502 110.054 94.0077 110.03 93.9639" stroke="#FFF2EA" stroke-width="1.5" stroke-linecap="round"/>
<path d="M101.707 92.2408C101.532 92.2282 101.177 92.2379 100.619 92.3754C100.187 92.482 99.981 92.6146 99.5843 92.7199C99.2412 92.811 98.8081 92.9224 98.5427 93.0367C98.1537 93.2041 97.7886 93.3119 97.3527 93.4588C97.0712 93.5536 96.6698 93.6055 96.2807 93.7113C95.8155 93.8379 95.2326 93.8942 94.7303 93.9737C94.1025 94.0731 93.2759 94.2695 92.9238 94.3337C92.5772 94.3968 92.1119 94.4529 91.5016 94.5428C91.2099 94.5858 90.8517 94.718 90.4906 94.7997C90.2392 94.8566 89.987 94.9059 89.7002 94.9566C89.3446 95.0194 89.0937 95.02 88.7606 95.0936C88.3779 95.178 87.6974 95.2572 87.2364 95.3579C86.8193 95.4489 86.2783 95.5291 85.7331 95.5793C85.3279 95.6166 84.7964 95.6724 84.2791 95.7326C83.9178 95.7747 83.6362 95.8025 83.2971 95.8312C83.0445 95.8526 82.7973 95.8842 82.4872 95.8888C82.1717 95.8935 81.8549 95.9413 81.4786 96.0029C81.1794 96.0519 80.9244 96.0699 80.5792 96.072C80.2153 96.0903 79.8076 96.0786 79.6915 96.0969C79.629 96.1015 79.5592 96.0965 79.4873 96.0913" stroke="#FFF2EA" stroke-width="1.5" stroke-linecap="round"/>
<path d="M79.7572 96.0566C79.5125 96.0389 79.0158 96.0384 78.6673 96.0934C77.9703 96.2035 77.6094 96.1508 76.9996 96.2669C76.4669 96.3683 75.5344 96.5165 74.3946 96.7109C73.8216 96.8087 72.7577 96.9021 71.5387 96.9318C70.3196 96.9614 68.9741 96.8996 68.2467 96.8565C67.2551 96.7977 66.9082 96.6981 66.6107 96.6497C66.3283 96.6036 65.9127 96.5194 65.4649 96.46C65.1201 96.4144 64.7745 96.3303 64.409 96.2413C64.0798 96.1612 63.7303 96.0763 63.4089 95.9911C62.9089 95.8585 62.6059 95.7107 62.3241 95.5564C62.1118 95.4403 61.8774 95.2486 61.6996 95.0039C61.4534 94.6653 61.3215 94.3529 61.2479 94.0182C61.1631 93.6323 61.1638 93.3438 61.2936 91.7811C61.3776 90.7694 61.8174 90.3976 61.9837 90.0696C62.3031 89.4396 63.0642 88.5798 63.2441 88.307C63.384 88.0947 63.9297 87.5931 64.6029 86.9736C64.893 86.7066 65.3921 86.2197 66.1394 85.552C66.7502 85.0064 67.3379 84.5742 67.6293 84.3455C67.9306 84.1092 68.423 83.7617 68.9258 83.4237C69.3833 83.1161 69.8831 82.9046 70.7211 82.4576C71.206 82.1989 71.5994 81.959 71.9131 81.7937C72.2131 81.6356 72.5002 81.5064 72.8057 81.4477C73.1544 81.3807 73.6531 81.4463 74.0097 81.5785C74.3659 81.7105 74.7826 82.2561 75.0429 82.7214C75.3143 83.2067 75.6067 83.6181 76.1839 84.5573C76.5689 85.1838 76.7809 86.0011 77.0852 86.9202C77.4212 87.9354 77.5988 88.6636 77.6299 88.8436C77.6618 89.0286 77.7189 89.2069 77.8021 89.6378C77.9832 90.5764 78.1532 91.2878 78.1879 91.539C78.2959 92.3196 78.4216 92.9648 78.4864 93.4138C78.5979 94.1862 78.7928 94.6823 78.9453 95.1494C79.2107 95.9622 79.3003 96.4835 79.4968 97.1922C79.7882 98.2439 79.9659 99.0473 80.0424 99.213C80.2053 99.5658 80.3512 100.091 80.6224 100.981C80.7527 101.409 80.823 101.887 80.9819 102.391C81.0948 102.749 81.0864 103.155 81.0566 103.697C81.0355 104.079 80.7168 104.359 80.5302 104.498C80.2899 104.676 79.2212 104.573 78.6383 104.46C78.2095 104.377 77.8064 103.992 77.4585 103.751C77.153 103.54 76.4392 103.074 76.0151 102.65C75.8148 102.449 75.5549 102.048 75.2646 101.642C74.7108 100.869 74.4893 100.117 74.2308 99.5282C73.8195 98.5921 73.6118 98.2888 73.4197 97.8731C73.3043 97.6234 73.1524 97.2931 72.9338 96.6368C72.5674 95.5364 72.3984 94.9758 72.2269 94.5253C72.1235 94.2536 71.9982 93.8947 71.9074 93.5486C71.8025 93.1488 71.6935 92.7145 71.5944 92.2429C71.5393 91.9805 71.425 91.7669 71.3762 91.4604C71.3646 91.3875 71.35 91.3337 71.3236 91.331C71.056 91.3035 70.9418 91.8368 70.3632 92.6393C70.1032 93.0001 69.7604 93.5129 69.4008 93.9355C69.1096 94.2778 68.9206 94.5784 68.78 94.8C68.5035 95.236 68.0214 95.7604 67.7026 96.1208C67.2205 96.6659 66.8195 96.9398 66.6143 97.086C66.3662 97.2626 65.5867 97.6508 64.8726 97.9313C64.0659 98.2482 63.7715 98.1999 63.4231 98.2462C63.1619 98.2987 62.9628 98.3555 62.8529 98.4098C62.7978 98.4329 62.7443 98.4466 62.689 98.4608" stroke="#FFF2EA" stroke-width="1.5" stroke-linecap="round"/>
<path d="M112.517 66.0635C112.391 66.0111 112.144 65.8186 111.901 65.5712C111.684 65.3514 111.36 65.2367 111.036 65.0488C110.779 64.8998 110.442 64.7108 110.096 64.5213C109.835 64.3786 109.584 64.2325 109.266 64.1111C108.934 63.9841 108.491 63.7386 108.069 63.5214C107.748 63.3558 107.308 63.2369 106.976 63.1467C106.628 63.052 106.354 62.8831 105.961 62.7562C105.432 62.5853 104.976 62.3897 104.542 62.227C104.22 62.1066 103.874 61.9818 103.51 61.9115C102.899 61.7938 102.53 61.6221 101.914 61.4355C101.385 61.2751 101.122 61.2356 100.759 61.1548C100.418 61.0792 100.028 61.0253 99.7617 60.9515C99.4564 60.8671 99.0655 60.8245 98.7112 60.7444C98.2549 60.6413 97.7768 60.6001 97.4225 60.5201C96.9871 60.4217 96.6387 60.3867 96.3285 60.3098C95.7896 60.1762 95.1821 60.0846 94.7428 59.9875C94.1988 59.8674 93.7225 59.8046 92.9155 59.7132C92.6427 59.6823 91.7881 59.577 90.5548 59.4988C89.7016 59.4447 89.136 59.4946 88.6562 59.4931C88.1729 59.4916 87.6926 59.5874 87.182 59.5837C86.8187 59.5811 86.5149 59.6337 85.975 59.7369C85.4675 59.834 84.9395 59.7827 84.3664 59.8727C83.6463 59.9857 82.4514 60.1941 81.8994 60.3073C81.4743 60.3945 81.0838 60.4671 80.6273 60.5987C80.2699 60.7017 79.8222 60.7701 79.1463 60.9508C78.1171 61.226 77.6128 61.551 77.1631 61.7385C77.0015 61.8059 76.5363 62.0203 75.6623 62.4152C73.9959 63.1681 73.6706 63.4334 73.2853 63.6364C73.1944 63.6847 73.1041 63.7432 73.0338 63.8041C72.9635 63.865 72.916 63.9266 72.867 63.9901" stroke="#FFF2EA" stroke-width="1.5" stroke-linecap="round"/>
<path d="M72.9043 63.9435C72.6498 64.1226 72.3941 64.3171 72.1499 64.4446C72.036 64.5041 71.9476 64.6204 71.2581 65.2352C70.6241 65.8006 69.3874 66.8508 68.7291 67.424C67.861 68.1798 67.6143 68.4515 67.2339 68.8043C66.9537 69.0643 66.5777 69.4115 66.3183 69.6304C66.0925 69.8209 65.818 70.0587 65.5583 70.3064C65.3206 70.5331 65.1053 70.7084 64.1556 71.5282C63.7194 71.9047 63.3113 72.2847 62.6114 72.9934C61.7542 73.8613 61.5018 74.3005 61.1665 74.6358C60.817 74.9854 60.4309 75.5035 60.0614 75.9106C59.6545 76.3588 59.3093 76.7787 58.9396 77.1721C58.6017 77.5317 58.1343 77.9444 57.8978 78.179C57.6424 78.4323 57.4406 78.7473 57.0849 79.1709C56.8235 79.4821 56.4824 79.8665 56.1683 80.9598C55.9486 81.7244 55.7771 82.2838 55.6555 82.6091C55.3668 83.3818 55.1791 83.8559 55.0487 84.1966C55.0107 84.3008 54.9722 84.4187 54.9359 84.5009C54.8995 84.5831 54.8665 84.6259 54.8324 84.6701" stroke="#FFF2EA" stroke-width="1.5" stroke-linecap="round"/>
<path d="M54.9033 84.6243C54.065 85.7872 53.7881 86.1459 53.4968 86.5475C53.1938 86.9652 52.459 87.7546 51.8564 88.6543C51.2331 89.585 51.0241 89.8521 50.7212 90.2834C50.6286 90.4152 50.5343 90.5539 50.198 91.1692C49.8616 91.7845 49.2849 92.8712 48.9412 93.5009C48.3945 94.5026 48.2361 94.7801 47.9376 95.2854C47.7421 95.6162 47.4813 96.2416 47.1716 97.1808C46.964 97.8103 46.7856 98.3057 46.6111 98.8491C46.0033 100.742 45.8032 101.169 45.6846 101.792C45.5985 102.245 45.5941 102.611 45.5274 103.098C45.4061 104.919 45.452 105.155 45.472 105.314C45.4758 105.409 45.4668 105.534 45.4575 105.662" stroke="#FFF2EA" stroke-width="1.5" stroke-linecap="round"/>
<path d="M45.4727 105.604C45.4306 106.186 45.3967 107.005 45.3828 107.465C45.375 107.723 45.4082 107.903 45.4109 108.133C45.414 108.408 45.5023 108.715 45.6516 109.454C45.7798 110.088 45.9332 110.502 45.9694 110.702C46.0317 111.047 46.1022 111.333 46.137 111.552C46.1929 111.905 46.3541 112.412 46.5044 112.884C46.5737 113.101 46.7001 113.436 46.8761 114.074C47.2127 115.294 47.2349 115.729 47.3166 115.922C47.4382 116.207 47.5873 116.664 47.7057 116.961C47.8416 117.301 47.8839 117.492 47.9793 117.755C48.1172 118.135 48.4517 118.774 48.6555 119.046C48.8476 119.303 49.0565 119.574 49.4922 120.034C50.003 120.572 50.1859 120.668 50.5123 120.985C50.882 121.345 51.4413 121.782 51.8813 122.191C52.1087 122.402 52.2487 122.584 52.4378 122.769C52.7731 123.098 53.274 123.501 53.8228 123.816C54.2546 124.008 54.5187 124.092 54.7315 124.127C54.87 124.143 55.0704 124.158 55.277 124.173" stroke="#FFF2EA" stroke-width="1.5" stroke-linecap="round"/>
<path d="M54.8776 124.18C55.1287 124.198 55.6346 124.263 55.797 124.367C55.9497 124.465 56.1258 124.512 56.2903 124.588C56.4768 124.674 56.6593 124.764 56.8728 124.844C57.1616 124.951 57.4008 125.074 57.6784 125.144C57.9124 125.203 58.167 125.229 58.3973 125.281C58.5845 125.324 59.0035 125.375 59.3478 125.435C59.6618 125.49 60.3314 125.556 61.105 125.648C62.7194 125.838 62.9539 125.745 63.1606 125.725C63.3377 125.707 63.5387 125.674 63.7332 125.631C63.9408 125.585 64.1121 125.573 64.2912 125.543C64.5143 125.506 64.7144 125.46 64.8945 125.416C65.1011 125.365 65.2775 125.302 65.5037 125.204C65.7537 125.096 66.0209 124.985 66.3123 124.878C66.515 124.803 66.6785 124.705 66.8547 124.618C66.943 124.568 67.032 124.517 67.1277 124.46C67.1797 124.428 67.2385 124.39 67.3412 124.354" stroke="#FFF2EA" stroke-width="1.5" stroke-linecap="round"/>
<path d="M66.946 124.539C67.0871 124.535 67.2879 124.493 67.5783 124.386C67.7041 124.339 68.4475 124.025 69.5089 123.525C70.1093 123.242 70.3895 123.065 70.6591 122.858C71.0483 122.558 71.2725 122.389 71.5894 122.12C71.8163 121.928 72.0669 121.579 72.2593 121.371C72.4475 121.168 72.7924 120.721 73.1107 120.252C73.332 119.925 73.3919 119.695 73.6663 119.118C73.8143 118.807 73.9308 118.496 74.0244 118.281C74.1431 118.009 74.2465 117.849 74.3579 117.579C74.4573 117.339 74.5383 116.945 74.5939 116.664C74.6355 116.381 74.6821 116.13 74.7355 115.877C74.7488 115.793 74.7579 115.666 74.7673 115.536" stroke="#FFF2EA" stroke-width="1.5" stroke-linecap="round"/>
<path d="M74.7663 115.536C74.7684 115.508 74.7878 115.044 74.7965 114.241C74.8062 113.35 74.696 113.183 74.664 112.939C74.6361 112.726 74.6184 112.494 74.5819 112.214C74.5526 111.988 74.5057 111.703 74.4657 111.472C74.4092 111.145 74.3176 110.794 74.2169 110.415C74.0521 109.796 73.7712 109.344 73.617 109.126C73.4349 108.868 73.1861 108.632 72.9873 108.447C72.7576 108.232 72.4804 108.026 72.1706 107.811C71.9907 107.686 71.8172 107.607 71.4439 107.403C70.9297 107.121 70.4276 106.881 70.1015 106.694C69.6453 106.432 69.4 106.408 69.2281 106.338C69.0309 106.259 68.8635 106.198 68.6895 106.157C68.4356 106.097 68.1704 106.006 67.9895 105.957C67.8245 105.913 67.4327 105.867 67.019 105.802C66.1882 105.671 65.9773 105.818 65.7693 105.853C65.4295 105.911 65.1836 106.032 65.0009 106.111C64.7876 106.204 64.5742 106.244 64.3985 106.324C64.2284 106.401 64.0213 106.46 63.8238 106.546C63.6087 106.639 63.4068 106.743 63.2152 106.843C63.0171 106.947 62.814 107.113 62.6007 107.226C62.3041 107.384 61.9629 107.735 61.669 107.991C61.2832 108.327 61.1005 108.512 60.9045 108.776C60.6917 109.062 60.4965 109.238 60.3757 109.436C60.2082 109.71 60.0973 109.864 59.9256 110.186C59.7604 110.495 59.7231 110.734 59.6558 110.978C59.5858 111.232 59.5412 111.49 59.5021 111.736C59.4828 111.857 59.4165 112.43 59.3652 113.238C59.3298 113.795 59.3534 114.28 59.338 114.791C59.3293 115.078 59.3663 115.278 59.4168 115.46C59.4773 115.677 59.5654 115.848 59.6958 116.099C59.7974 116.295 59.9282 116.5 60.142 116.772C60.2886 116.958 60.3773 117.145 60.5105 117.255C60.7587 117.459 61.0707 117.722 61.2615 117.921C61.4074 118.073 61.6456 118.176 61.8576 118.284C62.1206 118.419 62.2871 118.508 62.4525 118.569C62.6276 118.635 62.8535 118.691 63.139 118.754C63.3569 118.802 63.6609 118.863 64.8256 118.955C65.2994 118.992 65.619 118.792 65.7937 118.726C66.0213 118.64 66.2747 118.525 66.6307 118.289C67.0562 118.006 67.3894 117.781 67.6205 117.612C68.1183 117.25 68.2672 116.99 68.4634 116.72C68.6154 116.51 68.6714 116.293 68.7561 116.001C68.846 115.691 68.9106 115.33 68.9826 115.02C69.0179 114.868 69.0263 114.71 69.0768 114.304C69.1932 113.368 69.1878 112.671 69.1694 112.535C69.1335 112.269 69.0942 112.01 68.9627 111.78C68.807 111.507 68.6345 111.336 68.432 111.101C68.1536 110.777 67.9185 110.672 67.5562 110.503C67.2452 110.359 66.7906 110.249 66.4495 110.153C65.8329 109.979 64.8798 110.053 64.653 110.15C64.379 110.268 64.1954 110.317 63.9491 110.399C63.7506 110.464 63.552 110.611 63.1502 110.895C62.6096 111.277 62.4045 111.624 62.1862 111.887C62.0606 112.038 61.9222 112.414 61.8028 112.982C61.5581 114.144 61.7679 114.341 61.8189 114.516C61.8875 114.75 62.254 115.214 62.5096 115.427C62.6782 115.568 62.8983 115.718 63.2142 115.848C63.407 115.927 63.5717 115.995 64.2313 116.043C64.5233 116.064 64.6618 115.79 64.7868 115.628C64.9237 115.451 65.0538 115.263 65.1644 115.1C65.2752 114.937 65.3439 114.772 65.3775 114.603C65.4359 114.309 65.4091 113.879 65.3156 113.702C65.2728 113.62 65.2504 113.526 65.1929 113.443C65.0814 113.284 64.8445 113.283 64.587 113.228C64.4699 113.204 64.2734 113.199 64.1575 113.211C64.0416 113.224 64.0107 113.264 63.9927 113.313C63.9112 113.534 63.8767 114.134 63.8828 114.536C63.8845 114.65 63.8865 114.779 63.8807 115.153C63.8678 115.99 63.7331 116.717 63.6398 117.03C63.5175 117.441 63.4438 117.779 63.3509 117.993C63.2705 118.179 63.1733 118.4 63.0342 118.66C62.8978 118.916 62.7854 119.07 62.631 119.251C62.3803 119.545 61.9823 119.638 61.6196 119.748C61.3943 119.816 61.1629 119.808 60.9556 119.828C60.7229 119.851 60.4928 119.873 59.6925 119.823C59.39 119.804 59.2334 119.683 59.0269 119.604C58.811 119.521 58.6319 119.398 58.4497 119.271C58.2041 119.099 57.9789 118.838 57.8255 118.706C57.6812 118.582 57.5152 118.407 57.3405 118.272C57.1383 118.117 56.8029 117.716 56.2875 117.102C55.9944 116.752 55.814 116.306 55.687 115.997C55.457 115.436 55.2379 114.869 55.0986 114.454C54.8913 113.836 54.7812 113.354 54.7015 113.094C54.4043 112.123 54.4231 111.848 54.3866 111.568C54.3573 111.342 54.3342 111.115 54.2842 110.735C54.2361 110.37 54.2328 110.169 54.2353 109.645C54.2409 108.506 54.3824 107.702 54.4111 107.597C54.4962 107.289 54.5019 107.027 54.5779 106.656C54.6641 106.236 54.8123 105.855 54.9582 105.403C55.0877 105.002 55.2328 104.732 55.322 104.481C55.3937 104.273 55.5239 104.027 55.6339 103.785C55.6586 103.736 55.6895 103.696 55.7666 103.616" stroke="#FFF2EA" stroke-width="1.5" stroke-linecap="round"/>
<path d="M55.7552 103.828C55.7942 103.675 55.9228 103.456 56.0553 103.288C56.2244 103.073 56.4756 102.842 56.6107 102.652C56.7269 102.488 56.9128 102.276 57.2353 102.014C58.0242 101.375 58.4813 100.922 58.7048 100.774C58.9764 100.594 59.1688 100.416 59.5177 100.185C59.7849 100.008 60.0251 99.9222 60.2233 99.8229C60.5372 99.6655 60.7353 99.49 60.9111 99.4096C61.093 99.3263 61.2644 99.2147 61.4837 99.1165C61.7033 99.0181 61.9656 98.8954 62.1864 98.7898C62.3549 98.7093 62.5377 98.6232 62.715 98.522C62.8912 98.4347 63.021 98.4014 63.1072 98.3792C63.1507 98.368 63.1935 98.357 63.2798 98.3487" stroke="#FFF2EA" stroke-width="1.5" stroke-linecap="round"/>
<path d="M50.7229 155.899C50.3987 155.693 50.1182 155.458 49.8815 155.194C49.6448 154.93 49.4506 154.649 49.2989 154.35C49.1529 154.043 49.0511 153.726 48.9935 153.398C48.9416 153.062 48.9265 152.718 48.9482 152.365L50.7099 151.949C50.7234 152.286 50.7535 152.576 50.8005 152.821C50.8474 153.065 50.9081 153.268 50.9827 153.429C51.0664 153.596 51.1643 153.74 51.2765 153.862C51.3977 153.99 51.5304 154.099 51.6745 154.191C51.9627 154.374 52.2548 154.471 52.551 154.482C52.8529 154.484 53.1367 154.405 53.4024 154.245C53.6771 154.091 53.9087 153.865 54.0974 153.568L57.1586 148.746L55.4161 147.64L56.4194 146.059L61.3498 149.189L60.3466 150.769L58.8877 149.843L55.715 154.841C55.4349 155.283 55.1011 155.639 54.7136 155.911C54.3318 156.174 53.9156 156.352 53.4649 156.445C53.0233 156.544 52.5648 156.55 52.0893 156.463C51.6287 156.373 51.1732 156.184 50.7229 155.899ZM61.2979 161.717C60.5266 161.377 59.9135 160.904 59.4585 160.296C59.0079 159.678 58.74 158.989 58.6549 158.229C58.5698 157.469 58.697 156.703 59.0364 155.932C59.3758 155.161 59.8544 154.55 60.4722 154.099C61.0901 153.648 61.7769 153.385 62.5325 153.31C63.2925 153.225 64.0582 153.352 64.8295 153.691C65.591 154.027 66.1971 154.503 66.6477 155.121C67.1027 155.729 67.3678 156.411 67.4432 157.167C67.5283 157.927 67.4011 158.692 67.0617 159.463C66.7223 160.235 66.2437 160.846 65.6258 161.296C65.0177 161.751 64.3337 162.021 63.5737 162.106C62.818 162.182 62.0594 162.052 61.2979 161.717ZM62.0003 160.121C62.4202 160.305 62.8384 160.361 63.2551 160.288C63.6816 160.219 64.067 160.045 64.4115 159.766C64.7657 159.49 65.0389 159.121 65.2311 158.658C65.4471 158.194 65.5369 157.738 65.5006 157.291C65.4741 156.848 65.34 156.451 65.0982 156.1C64.8706 155.743 64.5468 155.472 64.127 155.288C63.7072 155.103 63.2792 155.043 62.8429 155.107C62.4208 155.166 62.0353 155.34 61.6865 155.63C61.3421 155.909 61.0689 156.279 60.867 156.737C60.665 157.196 60.5773 157.647 60.6039 158.09C60.6304 158.533 60.7624 158.935 60.9998 159.296C61.247 159.661 61.5805 159.936 62.0003 160.121ZM71.1458 165.446C70.4272 165.243 69.8138 164.942 69.3055 164.544C68.8104 164.138 68.4469 163.659 68.2151 163.106L69.7468 162.391C69.9563 162.827 70.2292 163.176 70.5656 163.437C70.902 163.698 71.2806 163.888 71.7015 164.007C71.8761 164.056 72.0358 164.079 72.1809 164.075C72.3362 164.075 72.4768 164.048 72.6026 163.995C72.7284 163.942 72.8315 163.871 72.9118 163.783C73.0052 163.687 73.0708 163.573 73.1085 163.439C73.178 163.193 73.1406 162.972 72.9964 162.776C72.914 162.675 72.7715 162.552 72.5688 162.406C72.3764 162.263 72.1173 162.101 71.7914 161.921C71.2776 161.62 70.862 161.326 70.5445 161.037C70.23 160.737 70.0034 160.441 69.8647 160.147C69.7452 159.902 69.6741 159.644 69.6512 159.372C69.6386 159.102 69.6728 158.824 69.7539 158.536C69.8553 158.177 70.0236 157.875 70.2587 157.631C70.5069 157.38 70.8 157.185 71.1381 157.048C71.4761 156.911 71.8458 156.838 72.2472 156.829C72.6486 156.82 73.0495 156.873 73.4499 156.986C73.8605 157.101 74.2413 157.264 74.5922 157.474C74.9533 157.687 75.2706 157.937 75.5441 158.225C75.8307 158.505 76.0544 158.812 76.2152 159.146L74.8422 160.005C74.6993 159.765 74.5301 159.54 74.3345 159.33C74.1492 159.122 73.9501 158.944 73.7372 158.796C73.5271 158.637 73.3194 158.528 73.1141 158.47C72.9191 158.415 72.7388 158.386 72.5732 158.384C72.4105 158.371 72.2677 158.386 72.1448 158.429C72.0218 158.472 71.9136 158.541 71.8202 158.637C71.7399 158.725 71.6795 158.841 71.6389 158.985C71.6144 159.111 71.6119 159.238 71.6314 159.365C71.664 159.485 71.7215 159.596 71.8039 159.696C71.8965 159.8 72.0427 159.93 72.2425 160.086C72.4423 160.242 72.7102 160.412 73.0464 160.596C73.5117 160.871 73.8906 161.139 74.1831 161.398C74.4755 161.658 74.6888 161.924 74.823 162.194C74.9659 162.434 75.0437 162.689 75.0563 162.958C75.0689 163.228 75.0332 163.511 74.9492 163.809C74.8131 164.292 74.5528 164.684 74.1685 164.985C73.7944 165.29 73.3408 165.483 72.8077 165.566C72.2849 165.651 71.731 165.611 71.1458 165.446ZM77.5189 166.912L79.1202 155.18L81.0543 155.444L80.3596 160.533L79.969 160.674C80.1267 160.308 80.3796 159.992 80.728 159.728C81.0777 159.452 81.477 159.248 81.9257 159.116C82.3744 158.983 82.8207 158.947 83.2646 159.008C83.8987 159.095 84.4098 159.294 84.798 159.605C85.1966 159.918 85.4671 160.342 85.6092 160.878C85.7619 161.416 85.7863 162.065 85.6824 162.826L84.9856 167.931L83.0357 167.665L83.713 162.703C83.7707 162.28 83.7602 161.923 83.6815 161.633C83.6042 161.331 83.4526 161.101 83.2269 160.941C83.0025 160.77 82.7153 160.666 82.3651 160.629C82.0797 160.59 81.809 160.602 81.5529 160.664C81.3089 160.717 81.0855 160.815 80.8827 160.96C80.692 161.095 80.5294 161.261 80.3948 161.458C80.2708 161.657 80.1915 161.883 80.1569 162.136L79.4688 167.178L78.5017 167.046C78.3115 167.02 78.1318 166.995 77.9627 166.972C77.8042 166.95 77.6563 166.93 77.5189 166.912ZM91.6932 168.39C91.0853 168.399 90.5554 168.273 90.1036 168.013C89.6516 167.742 89.3047 167.358 89.0628 166.86C88.8207 166.351 88.6946 165.745 88.6844 165.041L88.609 159.842L90.5768 159.813L90.6461 164.597C90.6526 165.045 90.7275 165.428 90.8708 165.746C91.0139 166.053 91.2201 166.29 91.4892 166.457C91.7583 166.624 92.0795 166.704 92.4528 166.699C92.7301 166.695 92.9801 166.649 93.2029 166.56C93.4361 166.461 93.6369 166.33 93.8052 166.167C93.9734 165.994 94.1039 165.795 94.1966 165.569C94.2892 165.333 94.3336 165.082 94.3297 164.815L94.2564 159.76L96.2242 159.731L96.3464 168.163L94.4266 168.19L94.3691 166.431L94.7183 166.234C94.5962 166.641 94.3828 167.007 94.0781 167.331C93.784 167.645 93.4303 167.901 93.0171 168.099C92.6038 168.286 92.1625 168.383 91.6932 168.39ZM103.39 167.555C102.707 167.671 102.054 167.587 101.432 167.303C100.811 167.019 100.276 166.58 99.8293 165.985C99.3821 165.39 99.088 164.677 98.947 163.846C98.8061 163.015 98.8485 162.246 99.0744 161.536C99.3002 160.827 99.6711 160.24 100.187 159.773C100.703 159.307 101.324 159.012 102.049 158.889C102.47 158.818 102.865 158.816 103.233 158.883C103.6 158.94 103.933 159.056 104.234 159.233C104.534 159.409 104.792 159.625 105.009 159.88C105.236 160.134 105.409 160.418 105.527 160.733L105.082 160.695L104.729 158.613L106.685 158.281L108.096 166.594L106.124 166.929L105.787 164.941L106.231 164.785C106.205 165.081 106.116 165.383 105.962 165.69C105.818 165.986 105.616 166.263 105.357 166.523C105.107 166.771 104.814 166.989 104.478 167.176C104.152 167.361 103.79 167.487 103.39 167.555ZM103.635 165.745C104.087 165.668 104.468 165.49 104.777 165.21C105.087 164.93 105.303 164.58 105.427 164.159C105.559 163.725 105.581 163.251 105.493 162.735C105.408 162.231 105.232 161.801 104.966 161.445C104.711 161.088 104.391 160.829 104.006 160.667C103.622 160.505 103.204 160.462 102.751 160.539C102.299 160.616 101.918 160.794 101.609 161.074C101.31 161.352 101.099 161.701 100.975 162.123C100.852 162.544 100.833 163.007 100.919 163.512C101.006 164.027 101.179 164.468 101.436 164.836C101.691 165.193 102.006 165.453 102.38 165.617C102.764 165.779 103.183 165.821 103.635 165.745ZM118.341 159.991L117.215 158.232L120.147 150.607L122.533 149.555L118.341 159.991ZM118.183 163.716L113.662 153.468L115.565 152.629L120.086 162.876L118.183 163.716ZM124.902 160.751L118.743 157.295L119.58 155.545L127.215 159.731L124.902 160.751ZM132.628 156.624C131.923 157.085 131.191 157.34 130.433 157.39C129.67 157.43 128.946 157.279 128.263 156.935C127.58 156.592 127.007 156.068 126.546 155.362C126.085 154.657 125.834 153.923 125.794 153.159C125.753 152.395 125.908 151.676 126.257 151.002C126.6 150.319 127.125 149.746 127.83 149.285C128.526 148.83 129.256 148.582 130.02 148.542C130.778 148.492 131.494 148.642 132.168 148.991C132.852 149.335 133.424 149.859 133.885 150.564C134.346 151.27 134.597 152.004 134.637 152.768C134.687 153.526 134.54 154.246 134.197 154.93C133.847 155.604 133.324 156.169 132.628 156.624ZM131.674 155.164C132.058 154.913 132.333 154.593 132.499 154.204C132.674 153.809 132.738 153.391 132.692 152.95C132.655 152.503 132.494 152.073 132.211 151.659C131.94 151.224 131.607 150.9 131.212 150.687C130.827 150.467 130.421 150.363 129.995 150.374C129.572 150.37 129.168 150.494 128.784 150.745C128.401 150.996 128.117 151.322 127.932 151.723C127.752 152.108 127.687 152.527 127.739 152.977C127.786 153.418 127.946 153.848 128.22 154.268C128.495 154.688 128.825 155.007 129.21 155.227C129.596 155.446 130.005 155.555 130.437 155.553C130.877 155.545 131.29 155.415 131.674 155.164ZM138.91 152.149L133.428 145.742L134.899 144.484L136.671 146.505L136.069 146.22C135.88 145.82 135.785 145.396 135.782 144.949C135.778 144.503 135.856 144.085 136.015 143.697C136.175 143.293 136.413 142.956 136.729 142.685C136.867 142.567 137.007 142.469 137.149 142.389C137.3 142.302 137.429 142.24 137.538 142.204L138.542 144.188C138.411 144.216 138.267 144.269 138.109 144.347C137.952 144.426 137.808 144.521 137.679 144.632C137.476 144.805 137.316 145.012 137.199 145.252C137.083 145.478 137.016 145.719 136.996 145.974C136.976 146.23 137.005 146.486 137.084 146.741C137.163 146.982 137.3 147.216 137.494 147.443L140.418 150.859L138.91 152.149ZM147.648 144.051C147.051 144.706 146.385 145.159 145.649 145.412C144.921 145.657 144.19 145.706 143.459 145.559C142.726 145.396 142.053 145.035 141.438 144.474C140.949 144.028 140.576 143.544 140.318 143.019C140.059 142.495 139.91 141.962 139.87 141.42C139.829 140.864 139.906 140.32 140.101 139.79C140.294 139.245 140.603 138.74 141.027 138.275C141.401 137.865 141.828 137.555 142.309 137.344C142.79 137.133 143.287 137.023 143.801 137.015C144.306 136.999 144.809 137.096 145.309 137.307C145.809 137.503 146.276 137.806 146.71 138.217L147.208 138.692L142.605 143.741L141.364 143.107L145.104 139.004L145.133 139.377L144.873 139.14C144.607 138.94 144.322 138.825 144.019 138.794C143.707 138.755 143.403 138.796 143.107 138.915C142.81 139.02 142.546 139.198 142.316 139.45C141.964 139.836 141.74 140.232 141.646 140.636C141.559 141.033 141.596 141.428 141.757 141.82C141.911 142.206 142.197 142.589 142.614 142.97C143.016 143.337 143.443 143.574 143.893 143.681C144.351 143.781 144.802 143.752 145.248 143.596C145.693 143.424 146.106 143.13 146.487 142.712C146.753 142.42 146.95 142.109 147.078 141.779C147.207 141.448 147.278 141.029 147.292 140.523L148.955 140.718C148.958 141.111 148.904 141.509 148.795 141.915C148.684 142.305 148.532 142.686 148.338 143.057C148.144 143.428 147.914 143.76 147.648 144.051ZM152.121 138.658L145.127 133.948L146.199 132.356L147.651 133.294L147.604 133.707C147.345 133.404 147.174 133.038 147.09 132.608C146.998 132.173 146.991 131.725 147.07 131.264C147.149 130.802 147.314 130.386 147.564 130.015C147.921 129.484 148.325 129.113 148.776 128.902C149.233 128.682 149.733 128.627 150.277 128.736C150.827 128.836 151.42 129.101 152.057 129.53L156.33 132.408L155.231 134.04L151.077 131.242C150.723 131.004 150.399 130.856 150.103 130.799C149.799 130.735 149.525 130.769 149.282 130.901C149.029 131.027 148.81 131.239 148.622 131.537C148.461 131.776 148.352 132.024 148.294 132.281C148.234 132.523 148.224 132.767 148.264 133.013C148.302 133.244 148.379 133.463 148.496 133.671C148.62 133.87 148.788 134.041 149 134.184L153.22 137.026L152.675 137.835C152.568 137.995 152.466 138.145 152.371 138.287C152.282 138.419 152.198 138.543 152.121 138.658ZM160.431 125.025C160.272 125.362 160.067 125.672 159.816 125.955C159.56 126.223 159.283 126.447 158.987 126.626C158.69 126.804 158.395 126.93 158.101 127.004C157.797 127.073 157.521 127.084 157.271 127.038L157.281 126.529L159.084 127.432L158.272 129.154L147.591 124.12L148.43 122.34L153.279 124.625L152.984 124.875C152.775 124.718 152.608 124.509 152.483 124.25C152.352 123.976 152.264 123.675 152.219 123.347C152.163 123.014 152.158 122.676 152.202 122.331C152.237 121.982 152.327 121.653 152.473 121.344C152.796 120.659 153.249 120.136 153.832 119.774C154.42 119.402 155.083 119.208 155.823 119.191C156.566 119.164 157.319 119.33 158.082 119.69C158.853 120.053 159.468 120.526 159.925 121.107C160.382 121.688 160.66 122.326 160.757 123.02C160.849 123.7 160.74 124.368 160.431 125.025ZM158.691 124.664C158.882 124.259 158.951 123.849 158.898 123.435C158.836 123.017 158.67 122.632 158.399 122.28C158.119 121.924 157.743 121.635 157.27 121.412C156.807 121.194 156.353 121.092 155.91 121.107C155.471 121.112 155.075 121.227 154.723 121.45C154.37 121.672 154.096 121.991 153.9 122.406C153.705 122.821 153.633 123.235 153.686 123.649C153.738 124.063 153.9 124.446 154.17 124.798C154.441 125.149 154.808 125.434 155.271 125.652C155.744 125.875 156.207 125.981 156.66 125.971C157.103 125.956 157.506 125.839 157.868 125.621C158.221 125.398 158.495 125.079 158.691 124.664ZM163.221 118.41L151.996 114.646L152.626 112.765L163.852 116.529L163.221 118.41ZM165.727 109.852C165.585 110.53 165.267 111.107 164.775 111.581C164.283 112.055 163.679 112.392 162.961 112.59C162.244 112.788 161.473 112.8 160.648 112.627C159.823 112.454 159.123 112.132 158.546 111.662C157.968 111.192 157.558 110.632 157.313 109.981C157.068 109.33 157.021 108.644 157.173 107.924C157.26 107.507 157.403 107.139 157.601 106.82C157.788 106.5 158.018 106.232 158.292 106.018C158.567 105.803 158.862 105.641 159.179 105.533C159.498 105.415 159.826 105.359 160.163 105.364L159.964 105.764L157.897 105.33L158.305 103.388L166.557 105.121L166.146 107.079L164.173 106.664L164.19 106.194C164.457 106.326 164.705 106.52 164.935 106.775C165.156 107.018 165.341 107.307 165.488 107.643C165.627 107.967 165.722 108.319 165.773 108.701C165.826 109.071 165.81 109.455 165.727 109.852ZM164.132 108.961C164.226 108.512 164.2 108.092 164.053 107.702C163.906 107.311 163.66 106.981 163.313 106.712C162.958 106.431 162.525 106.236 162.013 106.129C161.512 106.024 161.048 106.03 160.62 106.147C160.194 106.253 159.835 106.456 159.544 106.755C159.252 107.053 159.059 107.427 158.965 107.875C158.871 108.324 158.897 108.744 159.044 109.135C159.193 109.515 159.441 109.839 159.787 110.108C160.134 110.377 160.558 110.564 161.059 110.67C161.571 110.777 162.045 110.779 162.481 110.674C162.906 110.567 163.264 110.37 163.553 110.082C163.845 109.783 164.038 109.41 164.132 108.961ZM167.305 100.409L156.773 99.4382L156.954 97.4785L167.485 98.449L167.305 100.409ZM160.572 101.459L158.756 101.292L159.258 95.843L161.074 96.0104L160.572 101.459Z" fill="#FFFEFC"/>
</svg>
