<svg width="185" height="185" viewBox="0 0 185 185" fill="none" xmlns="http://www.w3.org/2000/svg">
<title>Samrat Pathania</title> 
<circle cx="92.2127" cy="92.4978" r="91.2127" fill="currentColor" stroke="#FFFEFC" stroke-width="2"/>
<path d="M54.4159 157.765C53.8503 157.444 53.3705 157.079 52.9766 156.671C52.588 156.254 52.2853 155.794 52.0685 155.29C51.8517 154.786 51.7109 154.246 51.646 153.67L53.5874 153.006C53.6834 153.895 53.8808 154.584 54.1796 155.073C54.4784 155.562 54.9013 155.962 55.4485 156.273C55.7638 156.452 56.0776 156.569 56.39 156.624C56.7076 156.669 56.988 156.651 57.2313 156.568C57.4798 156.476 57.6673 156.319 57.7938 156.097C57.8834 155.939 57.9327 155.777 57.9415 155.61C57.965 155.439 57.9454 155.269 57.8828 155.098C57.8255 154.918 57.7351 154.732 57.6116 154.539C57.4882 154.346 57.3336 154.154 57.1479 153.963C56.9622 153.771 56.7508 153.571 56.5135 153.363C56.0614 152.971 55.6927 152.583 55.4074 152.2C55.1273 151.808 54.9286 151.413 54.8113 151.015C54.6992 150.608 54.6725 150.212 54.7312 149.828C54.7951 149.435 54.943 149.035 55.1749 148.627C55.4069 148.219 55.7084 147.893 56.0796 147.65C56.4601 147.413 56.8792 147.258 57.3368 147.187C57.7944 147.116 58.2714 147.129 58.7678 147.227C59.2641 147.325 59.7534 147.511 60.2356 147.786C60.7828 148.097 61.2327 148.438 61.5855 148.81C61.9476 149.188 62.2171 149.599 62.3941 150.043C62.5856 150.483 62.6852 150.945 62.6929 151.428L60.8246 151.93C60.8025 151.537 60.7283 151.182 60.6019 150.865C60.4807 150.538 60.3121 150.252 60.0958 150.007C59.8849 149.752 59.6311 149.54 59.3343 149.371C59.0005 149.182 58.682 149.062 58.3789 149.012C58.0851 148.968 57.8186 148.994 57.5793 149.092C57.3453 149.179 57.1598 149.344 57.0228 149.585C56.9174 149.77 56.8642 149.961 56.8633 150.157C56.8677 150.343 56.9125 150.535 56.9976 150.73C57.092 150.931 57.236 151.142 57.4297 151.362C57.6234 151.583 57.8548 151.812 58.1239 152.051C58.576 152.443 58.9559 152.843 59.2638 153.251C59.577 153.65 59.8088 154.052 59.9592 154.456C60.1149 154.852 60.18 155.244 60.1544 155.635C60.1341 156.016 60.0185 156.392 59.8077 156.763C59.444 157.403 58.9774 157.867 58.4078 158.157C57.8528 158.443 57.2305 158.555 56.5411 158.495C55.8569 158.425 55.1485 158.182 54.4159 157.765ZM64.2016 162.55C63.5529 162.305 63.0319 161.903 62.6385 161.344C62.2451 160.786 62.0054 160.137 61.9195 159.397C61.8335 158.658 61.9393 157.894 62.2367 157.106C62.5342 156.317 62.9593 155.674 63.5121 155.176C64.0649 154.678 64.6816 154.357 65.3623 154.215C66.043 154.073 66.7276 154.132 67.4162 154.391C67.8154 154.542 68.1571 154.739 68.4413 154.983C68.7292 155.217 68.9584 155.486 69.1288 155.79C69.2993 156.094 69.4135 156.41 69.4715 156.74C69.5395 157.073 69.5451 157.406 69.4883 157.738L69.1236 157.481L69.8691 155.505L71.7254 156.205L68.7492 164.094L66.8779 163.388L67.5895 161.502L68.0519 161.591C67.8803 161.834 67.6508 162.05 67.3633 162.238C67.0895 162.419 66.7753 162.557 66.4205 162.652C66.0795 162.74 65.7168 162.779 65.3323 162.771C64.9578 162.767 64.5809 162.693 64.2016 162.55ZM65.3262 161.11C65.7553 161.272 66.1741 161.31 66.5825 161.225C66.9909 161.14 67.3546 160.946 67.6736 160.645C68.0063 160.337 68.2648 159.939 68.4493 159.45C68.6301 158.971 68.6953 158.511 68.6449 158.07C68.6046 157.633 68.4593 157.247 68.209 156.914C67.9587 156.58 67.619 156.332 67.1899 156.17C66.7607 156.008 66.342 155.97 65.9336 156.055C65.5351 156.144 65.1764 156.339 64.8575 156.641C64.5385 156.942 64.2887 157.333 64.108 157.812C63.9235 158.301 63.8495 158.769 63.8861 159.216C63.9265 159.653 64.0668 160.036 64.3071 160.367C64.5573 160.7 64.8971 160.948 65.3262 161.11ZM72.3942 165.243L73.8275 156.934L75.7354 157.263L75.4786 158.94L75.1415 159.012C75.2832 158.755 75.4687 158.527 75.6978 158.328C75.9287 158.119 76.19 157.953 76.4818 157.83C76.7754 157.697 77.0776 157.608 77.3882 157.565C77.7006 157.51 78.0093 157.509 78.3141 157.562C78.7661 157.64 79.1528 157.782 79.4743 157.989C79.8082 158.188 80.0644 158.459 80.2431 158.804C80.4322 159.151 80.5438 159.57 80.5779 160.063L80.2892 159.948L80.4588 159.718C80.618 159.486 80.8199 159.288 81.0646 159.124C81.3111 158.95 81.5793 158.807 81.8693 158.695C82.1611 158.572 82.4561 158.493 82.7545 158.458C83.0633 158.425 83.3596 158.432 83.6434 158.481C84.2741 158.59 84.7779 158.807 85.1548 159.132C85.5318 159.457 85.7809 159.895 85.9023 160.446C86.0237 160.997 86.0191 161.651 85.8886 162.408L85.0236 167.422L83.0685 167.085L83.9117 162.197C83.9842 161.777 83.9862 161.42 83.9177 161.126C83.8598 160.835 83.726 160.606 83.5166 160.44C83.3194 160.266 83.0526 160.149 82.7163 160.091C82.4535 160.046 82.193 160.05 81.935 160.103C81.6892 160.147 81.4677 160.238 81.2705 160.378C81.0751 160.506 80.912 160.668 80.7812 160.861C80.6503 161.055 80.5631 161.278 80.5196 161.531L79.6628 166.497L77.7077 166.16L78.5536 161.256C78.6225 160.857 78.6218 160.516 78.5515 160.233C78.483 159.94 78.3502 159.706 78.153 159.531C77.9577 159.346 77.7023 159.226 77.387 159.172C77.1242 159.127 76.869 159.131 76.6214 159.186C76.3757 159.23 76.1551 159.317 75.9597 159.445C75.7643 159.574 75.6012 159.735 75.4703 159.929C75.3395 160.123 75.2523 160.346 75.2088 160.598L74.3493 165.581L72.3942 165.243ZM88.7349 167.873L88.8073 159.442L90.7432 159.458L90.7521 162.147L90.4854 161.536C90.6064 161.111 90.8123 160.728 91.1033 160.39C91.3942 160.051 91.7271 159.787 92.1021 159.598C92.4878 159.399 92.8887 159.301 93.3047 159.304C93.486 159.306 93.6565 159.323 93.8162 159.357C93.9866 159.39 94.1249 159.429 94.2312 159.472L93.6847 161.628C93.5679 161.563 93.4244 161.508 93.2541 161.464C93.0838 161.42 92.9133 161.397 92.7427 161.396C92.476 161.393 92.2196 161.444 91.9733 161.549C91.7378 161.643 91.5287 161.78 91.3458 161.96C91.1629 162.139 91.0171 162.352 90.9083 162.596C90.8103 162.83 90.76 163.096 90.7574 163.395L90.7188 167.891L88.7349 167.873ZM99.877 167.565C99.1888 167.649 98.5408 167.535 97.9331 167.222C97.3253 166.91 96.812 166.446 96.3929 165.831C95.9739 165.216 95.7133 164.49 95.6111 163.653C95.5089 162.817 95.5871 162.05 95.8457 161.352C96.1044 160.654 96.5022 160.084 97.0392 159.643C97.5763 159.201 98.2101 158.935 98.9407 158.846C99.3642 158.794 99.7584 158.811 100.123 158.895C100.487 158.969 100.815 159.101 101.107 159.291C101.398 159.481 101.647 159.708 101.851 159.974C102.066 160.237 102.225 160.53 102.329 160.85L101.886 160.791L101.63 158.695L103.6 158.454L104.622 166.824L102.637 167.067L102.392 165.065L102.843 164.93C102.804 165.225 102.701 165.522 102.533 165.822C102.375 166.11 102.161 166.378 101.89 166.626C101.629 166.862 101.326 167.066 100.981 167.237C100.647 167.406 100.279 167.516 99.877 167.565ZM100.205 165.768C100.661 165.712 101.049 165.552 101.372 165.287C101.694 165.022 101.926 164.682 102.069 164.267C102.221 163.84 102.265 163.367 102.202 162.848C102.14 162.34 101.984 161.902 101.735 161.535C101.497 161.167 101.189 160.893 100.813 160.713C100.436 160.533 100.02 160.471 99.5651 160.527C99.1098 160.583 98.7211 160.743 98.3988 161.008C98.0872 161.272 97.86 161.611 97.7173 162.026C97.5746 162.441 97.5343 162.903 97.5964 163.411C97.6597 163.93 97.8113 164.379 98.051 164.758C98.2895 165.126 98.5917 165.401 98.9577 165.582C99.3342 165.762 99.7502 165.824 100.205 165.768ZM109.317 165.976L106.659 155.739L108.564 155.245L111.222 165.481L109.317 165.976ZM106.046 159.998L105.587 158.233L110.884 156.857L111.342 158.623L106.046 159.998ZM122.146 161.691L117.097 151.694L121.253 149.595C121.825 149.307 122.408 149.185 123.005 149.23C123.611 149.271 124.172 149.459 124.689 149.796C125.205 150.133 125.613 150.596 125.911 151.186C126.214 151.786 126.35 152.399 126.319 153.024C126.283 153.639 126.104 154.208 125.782 154.729C125.469 155.245 125.027 155.648 124.455 155.936L122.156 157.097L124.002 160.754L122.146 161.691ZM121.291 155.384L123.461 154.287C123.7 154.167 123.88 153.992 124.003 153.763C124.136 153.529 124.204 153.273 124.208 152.996C124.221 152.715 124.158 152.436 124.018 152.16C123.879 151.884 123.694 151.672 123.465 151.525C123.24 151.364 122.996 151.272 122.734 151.249C122.476 151.212 122.228 151.254 121.99 151.374L119.819 152.47L121.291 155.384ZM134.879 154.671C134.317 155.077 133.695 155.29 133.012 155.311C132.329 155.331 131.655 155.173 130.991 154.838C130.327 154.502 129.748 153.993 129.254 153.31C128.76 152.627 128.457 151.918 128.346 151.182C128.235 150.446 128.307 149.755 128.564 149.109C128.82 148.462 129.247 147.923 129.843 147.492C130.189 147.242 130.542 147.065 130.902 146.963C131.256 146.852 131.607 146.808 131.954 146.834C132.301 146.859 132.628 146.938 132.936 147.071C133.251 147.198 133.532 147.377 133.778 147.607L133.362 147.77L132.124 146.059L133.731 144.896L138.674 151.727L137.054 152.9L135.872 151.266L136.201 150.93C136.309 151.207 136.363 151.517 136.361 151.86C136.362 152.189 136.304 152.527 136.187 152.875C136.072 153.208 135.906 153.533 135.687 153.849C135.477 154.159 135.207 154.433 134.879 154.671ZM134.297 152.939C134.669 152.67 134.932 152.342 135.086 151.954C135.24 151.566 135.279 151.156 135.203 150.724C135.129 150.276 134.94 149.841 134.633 149.418C134.333 149.003 133.985 148.695 133.59 148.494C133.203 148.287 132.801 148.196 132.385 148.22C131.968 148.245 131.574 148.392 131.202 148.661C130.831 148.93 130.568 149.258 130.414 149.646C130.269 150.028 130.234 150.435 130.31 150.867C130.386 151.299 130.574 151.723 130.874 152.138C131.18 152.561 131.53 152.881 131.923 153.096C132.31 153.304 132.707 153.398 133.115 153.379C133.532 153.355 133.926 153.208 134.297 152.939ZM142.378 148.719L135.126 141.021L136.559 139.672L143.81 147.37L142.378 148.719ZM136.636 145.05L135.385 143.723L139.368 139.971L140.619 141.298L136.636 145.05ZM147.297 143.888L138.165 136.351L139.408 134.846L143.369 138.115L143.283 138.521C143.055 138.195 142.92 137.814 142.878 137.378C142.828 136.936 142.865 136.489 142.988 136.038C143.112 135.587 143.316 135.188 143.601 134.843C144.009 134.349 144.447 134.019 144.916 133.853C145.392 133.679 145.895 133.672 146.426 133.834C146.963 133.987 147.528 134.308 148.12 134.797L152.094 138.076L150.841 139.594L146.979 136.406C146.65 136.135 146.341 135.956 146.052 135.87C145.755 135.777 145.48 135.784 145.225 135.892C144.962 135.993 144.722 136.183 144.506 136.461C144.323 136.683 144.19 136.919 144.108 137.169C144.025 137.405 143.991 137.647 144.007 137.895C144.022 138.129 144.078 138.354 144.174 138.572C144.278 138.782 144.428 138.969 144.625 139.132L148.55 142.37L147.928 143.123C147.806 143.271 147.691 143.411 147.582 143.543C147.48 143.666 147.385 143.781 147.297 143.888ZM156.14 132.391C155.784 132.987 155.297 133.429 154.678 133.717C154.058 134.006 153.377 134.128 152.634 134.082C151.891 134.036 151.158 133.797 150.435 133.365C149.711 132.934 149.153 132.402 148.76 131.77C148.367 131.138 148.16 130.474 148.14 129.779C148.12 129.084 148.299 128.42 148.676 127.788C148.895 127.422 149.149 127.12 149.439 126.884C149.72 126.642 150.025 126.463 150.354 126.349C150.683 126.235 151.015 126.178 151.35 126.179C151.69 126.171 152.019 126.224 152.336 126.339L152.018 126.653L150.204 125.57L151.221 123.867L158.462 128.187L157.437 129.905L155.706 128.872L155.875 128.432C156.084 128.644 156.256 128.908 156.39 129.224C156.521 129.526 156.601 129.859 156.631 130.225C156.658 130.576 156.633 130.94 156.557 131.317C156.486 131.685 156.347 132.043 156.14 132.391ZM154.921 131.03C155.156 130.637 155.267 130.231 155.255 129.814C155.243 129.397 155.117 129.005 154.877 128.638C154.632 128.256 154.286 127.931 153.837 127.663C153.397 127.401 152.956 127.256 152.513 127.228C152.076 127.19 151.671 127.265 151.298 127.453C150.926 127.64 150.622 127.931 150.387 128.325C150.152 128.719 150.04 129.124 150.052 129.541C150.07 129.949 150.199 130.337 150.439 130.704C150.68 131.071 151.02 131.386 151.459 131.648C151.908 131.916 152.356 132.071 152.802 132.114C153.24 132.151 153.642 132.081 154.009 131.902C154.382 131.715 154.686 131.424 154.921 131.03ZM160.286 124.787L152.47 121.623L153.191 119.843L154.805 120.462L154.844 120.875C154.528 120.632 154.285 120.309 154.115 119.907C153.934 119.5 153.835 119.063 153.817 118.595C153.799 118.128 153.874 117.686 154.042 117.271C154.283 116.678 154.601 116.231 154.999 115.932C155.4 115.623 155.878 115.465 156.433 115.46C156.992 115.444 157.627 115.58 158.339 115.869L163.114 117.802L162.376 119.626L157.734 117.747C157.338 117.587 156.99 117.509 156.689 117.514C156.378 117.514 156.117 117.604 155.906 117.784C155.686 117.959 155.514 118.212 155.392 118.542C155.284 118.809 155.228 119.074 155.225 119.338C155.216 119.587 155.257 119.828 155.347 120.06C155.431 120.279 155.552 120.477 155.71 120.656C155.872 120.825 156.071 120.958 156.308 121.054L161.024 122.963L160.658 123.868C160.586 124.046 160.518 124.214 160.454 124.372C160.394 124.52 160.338 124.659 160.286 124.787ZM164.471 114.018L156.336 111.799L156.854 109.9L164.989 112.12L164.471 114.018ZM154.86 110.401C154.756 110.782 154.582 111.055 154.338 111.22C154.086 111.373 153.786 111.401 153.436 111.306C153.106 111.216 152.868 111.035 152.721 110.763C152.575 110.491 152.552 110.169 152.653 109.799C152.76 109.408 152.939 109.136 153.19 108.983C153.435 108.818 153.737 108.784 154.097 108.883C154.416 108.97 154.649 109.149 154.796 109.421C154.943 109.694 154.964 110.02 154.86 110.401ZM166.61 105.027C166.5 105.712 166.21 106.303 165.741 106.8C165.272 107.297 164.684 107.661 163.977 107.893C163.27 108.125 162.5 108.174 161.668 108.04C160.836 107.906 160.121 107.618 159.522 107.176C158.924 106.734 158.487 106.194 158.211 105.555C157.936 104.917 157.857 104.234 157.974 103.508C158.042 103.086 158.167 102.712 158.349 102.385C158.521 102.056 158.738 101.778 159.002 101.55C159.265 101.322 159.553 101.147 159.864 101.024C160.178 100.891 160.502 100.819 160.839 100.809L160.66 101.217L158.575 100.882L158.89 98.9229L167.215 100.263L166.897 102.238L164.907 101.917L164.901 101.446C165.174 101.566 165.431 101.748 165.673 101.992C165.905 102.224 166.103 102.504 166.266 102.833C166.421 103.149 166.532 103.497 166.601 103.875C166.671 104.243 166.674 104.627 166.61 105.027ZM164.975 104.213C165.048 103.76 165.001 103.342 164.836 102.959C164.671 102.576 164.409 102.258 164.05 102.006C163.682 101.742 163.24 101.568 162.724 101.485C162.218 101.403 161.754 101.431 161.333 101.569C160.912 101.696 160.564 101.915 160.287 102.227C160.01 102.539 159.835 102.921 159.762 103.374C159.689 103.827 159.735 104.245 159.9 104.628C160.067 105.001 160.33 105.313 160.689 105.565C161.048 105.818 161.481 105.984 161.986 106.066C162.502 106.149 162.976 106.128 163.406 106.003C163.826 105.876 164.174 105.662 164.45 105.36C164.727 105.048 164.902 104.666 164.975 104.213Z" fill="#FFFEFC"/>
<path d="M59.6358 101.728C59.1767 101.757 58.7745 101.814 58.343 101.9C57.4094 102.086 56.0424 102.619 55.5673 102.777C54.9116 102.997 54.2871 103.252 53.7702 103.467C52.8497 103.851 52.2453 103.942 51.6844 104.143C51.1045 104.351 50.7489 104.431 50.3891 104.518C49.9386 104.627 49.5701 104.949 49.1952 105.165C48.8658 105.355 48.4483 105.496 48.0017 105.754C47.5783 105.999 46.9812 106.3 46.6063 106.631C46.259 106.938 45.7161 107.363 45.3118 107.853C44.8321 108.435 44.3043 109.062 44.1032 109.407C44.0508 109.497 43.9885 109.579 44.0018 109.638C44.0765 109.963 44.7617 109.954 45.1366 110.113C45.4986 110.266 45.8835 110.472 46.5161 110.716C47.1476 110.961 47.4662 111.248 47.8118 111.393C48.173 111.544 48.9868 111.566 50.3248 111.294C51.5778 111.039 52.3523 110.648 53.0034 110.444C53.5725 110.267 54.1111 110.301 54.7143 110.2C55.3133 110.1 56.0061 110.099 57.0831 110.027C58.9172 109.905 60.239 110.041 60.4681 110.098C61.1202 110.262 61.8173 110.385 62.3955 110.544C62.8499 110.669 63.2292 110.846 63.8902 111.133C64.6714 111.472 65.1846 111.766 65.746 111.953C66.6712 112.262 67.2281 112.486 67.6454 112.529C68.4036 112.609 69.5581 112.544 70.0323 112.415C70.7178 112.228 71.4532 111.856 72.0892 111.638C72.7661 111.407 73.4121 111.279 74.0305 111.121C74.7706 110.93 75.6265 110.732 76.389 110.56C76.8565 110.454 77.5527 110.444 78.3021 110.372C78.5324 110.35 78.7919 110.329 80.1614 110.286C81.3596 110.248 83.5813 110.271 84.7684 110.286C86.2143 110.358 86.6155 110.415 87.1337 110.458C87.2498 110.472 87.3352 110.501 87.5096 110.53" stroke="#FFFEFC" stroke-width="1.5" stroke-linecap="round"/>
<path d="M87.5078 110.53C88.2819 110.53 89.087 110.587 90.0346 110.803C91.4705 111.129 92.1074 111.278 92.5117 111.321C92.9518 111.369 94.4288 111.878 95.7146 112.226C98.2999 112.925 98.6953 113.003 99.3568 113.119C99.7641 113.19 100.447 113.262 101.126 113.306C101.374 113.322 102.342 113.378 103.779 113.335C105.482 113.285 106.578 112.315 107.252 111.855C107.989 111.354 108.82 110.877 109.482 110.532C110.234 110.139 110.634 110.214 113.071 110.199C113.952 110.194 114.572 110.501 115.107 110.673C115.508 110.803 116.326 110.903 116.876 110.976C117.371 111.042 117.824 111.191 118.271 111.249C118.935 111.335 119.436 111.536 120.024 111.68C120.908 111.896 121.305 111.968 121.981 112.083C122.14 112.112 122.254 112.141 122.512 112.155C122.77 112.17 123.169 112.17 123.58 112.256" stroke="#FFFEFC" stroke-width="1.5" stroke-linecap="round"/>
<path d="M123.577 112.255C123.95 111.768 124.065 111.251 123.995 110.504C123.872 109.202 123.033 108.864 122.6 108.36C122.129 107.81 121.766 107.368 121.392 106.936C120.815 106.27 120.442 105.785 120.083 105.44C119.457 104.838 119.12 104.377 117.915 103.084C117.258 102.381 116.592 101.732 116.113 101.182C115.573 100.561 114.949 100.146 113.242 98.9274C112.654 98.5074 112.217 98.3341 111.77 98.2038C111.395 98.0942 110.41 98.1028 108.768 98.7043C108.119 98.9418 107.729 99.4818 107.254 99.9133C106.554 100.549 105.801 101.408 105.556 101.827C105.316 102.235 105.225 102.732 105.181 103.193C105.124 103.797 105.166 104.402 105.295 104.545C105.545 104.823 107.793 104.834 109.078 104.762C109.425 104.743 109.881 104.547 111.002 104.274C112.196 103.983 114.053 103.626 114.914 103.426C116.342 103.094 117.419 102.849 117.965 102.692C118.533 102.528 119.742 102.276 120.812 101.873C121.665 101.551 122.249 100.725 122.669 100.247C123.1 99.758 123.489 99.4559 123.905 98.9968C124.584 98.2491 124.812 97.8457 125.029 97.5C125.23 97.1777 125.417 96.7531 125.647 96.2349C125.82 95.8458 126.021 95.5156 126.237 95.1558C126.309 94.9409 126.367 94.7381 126.424 94.5517C126.453 94.4507 126.481 94.3368 126.597 94.0469" stroke="#FFFEFC" stroke-width="1.5" stroke-linecap="round"/>
<path d="M126.602 94.0465C126.63 93.4432 126.688 93.0989 126.774 92.4526C126.841 91.9448 126.917 91.3178 126.961 90.7547C126.982 90.4799 127.033 90.2218 127.147 89.3515C127.246 88.593 127.489 87.1997 127.649 86.3384C127.95 84.7158 128.069 84.0395 128.24 83.1049C128.397 82.2508 128.471 81.7371 128.572 81.2905C128.658 80.909 128.673 80.4427 128.744 80.025C128.844 79.4417 128.845 78.52 128.931 77.7243C128.995 77.1303 129.075 76.675 129.176 76.1848C129.275 75.7037 129.334 75.1786 129.435 74.7894C129.449 74.6884 129.449 74.5745 129.464 74.4731C129.478 74.3717 129.506 74.2863 129.536 74.1982" stroke="#FFFEFC" stroke-width="1.5" stroke-linecap="round"/>
<path d="M129.532 74.1987C129.532 73.5722 129.731 72.4236 130.062 71.1295C130.449 69.6149 131.66 67.9871 131.947 67.5413C132.291 67.0073 132.637 66.6063 133.326 66.0609C134.46 65.1622 134.822 64.7078 135.226 64.3764C135.695 63.9924 136.689 63.1579 137.468 62.4796C138.753 61.3599 139.194 60.8262 139.613 60.3209C139.928 59.9421 140.203 59.53 140.405 59.1844C140.606 58.8384 140.721 58.4944 140.822 58.1061C140.855 57.98 140.837 57.8058 140.794 57.7035C140.657 57.3753 140.148 57.4002 139.689 57.2992C138.788 57.1013 138.422 57.4848 138.048 57.7579C137.529 58.1368 137.444 58.5773 137.099 59.023C136.656 59.5955 136.265 60.015 135.919 60.4758C135.491 61.0469 134.77 61.8255 134.366 62.2311C133.949 62.649 133.048 63.5203 132.467 64.0865C132.095 64.4502 131.605 64.82 131.259 65.0504C130.914 65.2808 130.512 65.5673 130.037 65.9272C129.5 66.3338 129.189 66.7185 128.915 67.0348C128.614 67.3819 128.44 67.7247 128.238 68.1131C127.923 68.7231 127.835 69.2781 127.72 69.6379C127.586 70.0586 127.404 70.3999 127.045 70.9746C126.876 71.2455 126.657 71.4648 126.441 71.6516C126.281 71.791 126.053 71.7824 125.851 71.7254C125.418 71.6027 125.592 70.8072 125.577 70.0306C125.567 69.523 125.878 69.1952 126.38 68.6632C126.596 68.5325 126.798 68.4462 127.127 68.3599C127.343 68.3305 127.656 68.3305 128.065 68.5031" stroke="#FFFEFC" stroke-width="1.5" stroke-linecap="round"/>
<path d="M127.901 68.5034C127.415 68.361 126.495 68.015 126.019 67.8998C125.598 67.7979 125.141 67.6698 124.653 67.6262C124.132 67.5798 123.502 67.4972 122.297 67.4821C121.765 67.4754 121.431 67.7544 120.999 68.0132C120.738 68.17 120.624 68.5017 120.581 68.846C120.538 69.188 120.623 69.4518 120.752 69.5955C120.872 69.7293 121.083 69.74 121.298 69.7832C121.593 69.8424 121.86 69.7409 122.018 69.6119C122.336 69.3513 122.435 68.8797 122.536 68.4335C122.693 67.7416 122.178 67.3833 121.933 67.0377C121.634 66.6142 121.172 66.3753 120.755 66.2027C120.417 66.0633 120.05 65.9732 119.633 65.8144C119.217 65.6563 118.842 65.3691 118.496 65.0528C118.076 64.6685 117.634 64.1333 117.36 63.7584C117.065 63.3558 116.655 63.0684 116.11 62.4937C115.674 62.0345 115.39 61.6307 115.116 61.2416C114.796 60.7873 114.498 60.3933 114.124 59.976C113.816 59.6323 113.491 59.2144 113.232 58.8395C112.872 58.3201 112.311 57.7181 112.038 57.3008C111.8 56.9361 111.621 56.5962 111.491 56.2363C111.323 55.77 111.046 55.3881 110.73 55.1425C110.292 54.8026 109.435 55.1551 109.118 55.3281C108.813 55.4946 108.916 56.9 109.016 57.715C109.092 58.333 110.663 59.463 111.317 60.0597C111.621 60.3373 112.247 61.1337 112.741 61.6989C113.177 62.1982 113.631 62.8907 113.949 63.367C114.323 63.9288 114.61 64.3301 114.87 64.7335C115.183 65.2206 115.473 65.8817 115.733 66.3447C115.948 66.7279 116.193 67.1209 116.409 67.4666C116.617 67.7997 116.883 68.1565 117.099 68.5021C117.301 68.8244 117.487 69.1921 117.632 69.5377C117.772 69.8738 117.861 70.2276 117.991 70.6591C118.134 71.1355 118.293 71.579 118.337 72.0256C118.383 72.503 118.466 73.0754 118.481 75.14C118.486 75.8414 118.295 76.4099 118.222 76.9445C118.155 77.4314 117.863 78.1652 117.719 78.5988C117.595 78.9702 117.432 79.3751 117.187 79.7491C116.829 80.2967 116.369 80.8128 116.065 81.1877C115.776 81.5448 115.419 81.9346 114.958 82.2522C114.47 82.5891 114.039 82.9132 113.578 83.2588C113.13 83.5945 112.658 83.8625 112.054 84.2655C111.581 84.5811 111.104 84.955 110.73 85.2441C110.401 85.4977 110.04 85.761 109.608 86.1209C109.161 86.4934 108.888 86.7966 108.529 87.1133C107.956 87.6191 107.623 87.8615 107.206 88.1635C106.846 88.4371 106.501 88.7244 106.142 88.9691C106.041 89.0411 105.927 89.1266 105.637 89.3872" stroke="#FFFEFC" stroke-width="1.5" stroke-linecap="round"/>
<path d="M105.633 89.3868C104.8 89.5301 104.34 89.7027 103.923 89.918C103.429 90.1725 102.959 90.5363 102.428 90.7952C101.798 91.1016 101.093 91.6271 100.343 92.1177C99.3577 92.7612 98.9895 93.0095 98.5722 93.2835C98.1455 93.5638 97.6105 94.1297 96.9762 94.7782C96.6091 95.1535 96.3143 95.6554 95.9544 96.1305C95.4621 96.7804 94.8472 97.3813 94.5016 97.7705C94.1416 98.1759 93.8686 98.5325 93.5524 98.964C93.2381 99.3927 92.8624 99.7113 92.531 100.086C92.0241 100.66 91.366 101.553 90.9781 102.042C90.4404 102.719 89.4986 103.795 88.9933 104.286C88.6462 104.623 88.1454 104.862 87.6272 105.235C87.2251 105.525 86.8217 105.754 86.2042 106.027C85.5532 106.314 85.0681 106.415 84.6353 106.559C84.079 106.745 83.5424 106.789 83.0535 106.905C82.6717 106.995 82.3342 107.078 82.0598 107.107C81.7434 107.14 82.7605 106.391 83.28 105.943C83.7065 105.575 84.3984 105.012 84.9917 104.462C85.672 103.831 86.3298 102.88 86.7319 102.434C87.121 102.001 87.7364 101.415 88.1994 100.88C88.5789 100.442 89.2897 99.7182 90.025 98.6387C90.4152 98.0657 90.7878 97.5298 91.105 97.0115C91.3736 96.5726 91.908 95.5208 92.3416 94.7967C92.6729 94.2437 92.9159 93.7051 93.2477 93.1429C93.8128 92.1855 95.0975 90.8608 96.1939 90.0793C97.1041 89.4306 98.4907 88.529 99.7437 87.8369C101.287 86.9845 102.381 86.281 102.596 86.1373C103.066 85.8236 103.732 85.5328 104.121 85.3317C104.852 84.9528 105.631 84.6129 106.305 84.3255C107.337 83.8858 107.987 83.4065 108.479 83.1023C108.987 82.7885 109.773 82.3985 110.104 82.1245C110.177 82.0525 110.234 81.967 110.292 81.8803C110.35 81.7936 110.407 81.7081 110.551 81.6201" stroke="#FFFEFC" stroke-width="1.5" stroke-linecap="round"/>
<path d="M110.546 81.448C110.546 80.6178 110.376 78.8401 109.873 77.4115C109.738 77.0286 109.43 76.624 108.458 75.4927C107.486 74.3613 105.805 72.5387 104.869 71.5429C103.932 70.547 103.789 70.4331 103.132 69.8476C102.475 69.2621 101.308 68.2084 100.364 67.4235C98.7784 66.1039 97.8056 65.4564 97.019 64.8838C96.4758 64.4883 95.5775 63.9695 94.2114 63.3917C92.8453 62.814 91.0227 62.2159 89.856 61.8794C87.5584 61.2166 86.8166 61.3987 85.7888 61.3556C84.9325 61.3196 83.3941 61.3409 82.2459 61.3978C81.0977 61.4548 80.3858 61.5687 78.8657 61.9264C77.3456 62.2841 75.0389 62.8821 73.1813 63.5035C71.3238 64.1248 69.9853 64.7513 68.9826 65.2592C67.9798 65.767 67.3533 66.1373 66.6746 66.5843C65.2635 67.5136 64.2656 68.3283 63.7772 68.7879C63.4353 69.1095 63.0574 69.565 62.3127 70.4806C61.8201 71.0862 61.2262 72.0796 60.6045 73.2334C59.9827 74.3872 59.3847 75.6972 59.0481 76.5144C58.6025 77.5964 58.482 78.28 58.2809 79.0261C58.0832 79.7597 58.0212 80.3529 57.8922 81.0679C57.6523 82.3971 57.6466 83.5735 57.6324 84.1051C57.6234 84.4399 57.5603 85.409 57.6173 87.031C57.6947 89.2353 58.0488 89.729 58.4647 91.0938C58.6629 91.7439 59.0257 92.4612 59.2423 93.0527C59.5233 93.8203 59.8886 94.4184 60.091 95.0086C60.3416 95.7396 60.8086 96.4602 61.2694 97.1229C61.6196 97.6265 62.1306 98.0998 62.4926 98.5334C62.787 98.886 63.1386 99.3373 63.6425 99.8132C63.9984 100.149 64.5469 100.632 65.0518 101.021C65.4528 101.331 66.4411 102.068 67.7343 102.916C68.8672 103.658 69.666 103.854 70.9031 104.186C71.8255 104.434 73.8583 104.403 75.0613 104.303C75.2536 104.287 75.4203 104.203 76.1918 103.732C76.9633 103.261 78.3302 102.378 79.547 101.539C80.7638 100.7 81.789 99.931 82.9009 98.8941C84.0128 97.8573 85.1804 96.5758 85.9528 95.6736C86.7251 94.7713 87.0669 94.2872 87.3996 93.6961C88.1004 92.4508 88.4252 91.404 88.54 90.844C88.6269 90.4196 88.7704 89.7376 88.8567 88.5481C88.9654 87.0488 88.8575 85.938 88.7574 85.3219C88.6233 84.4963 88.1982 83.3819 87.4112 81.6633C86.9163 80.5826 86.0831 79.1473 85.5299 78.2425C84.7588 76.9811 84.1992 76.5308 83.8545 76.215C82.9872 75.4204 81.6406 74.2871 81.1927 74.0274C80.6915 73.7367 79.4883 73.11 78.4471 72.7471C78.0618 72.6128 77.6977 72.6173 77.0263 72.5741C74.4246 72.4069 73.558 72.7597 73.0092 72.8468C72.4078 72.9423 71.7441 73.2774 71.2263 73.4647C70.4689 73.7386 69.5349 74.3958 68.4657 75.1458C67.5481 75.7893 66.9391 76.5274 66.4221 77.0879C66.012 77.5326 65.7016 78.0807 65.1713 78.9558C64.6191 79.867 64.4365 80.4659 64.0196 81.6452C63.9106 81.9537 63.8609 82.4508 63.7314 83.9519C63.6366 85.0511 63.6874 86.8484 63.8156 88.2853C64.0369 90.7673 64.521 91.9175 64.65 92.204C64.9817 92.9406 65.4099 93.6969 65.9001 94.4184C66.804 95.7488 67.9418 95.9734 68.5036 96.2612C69.0192 96.5253 69.6401 96.5206 70.0427 96.5641C71.0718 96.6755 72.229 96.5792 72.9026 96.4645C74.7217 96.1545 75.7051 95.3745 76.4714 94.7541C77.1094 94.2375 77.5225 93.7901 78.111 93.158C78.6436 92.586 78.9895 91.6327 79.3489 90.4996C79.5128 89.983 79.5082 89.647 79.5656 89.4037C79.6551 89.0241 79.6523 87.7295 79.638 86.0191C79.6278 84.7839 79.509 84.2699 78.9498 82.7196C78.6887 81.9956 77.9885 80.9941 77.3965 80.2856C76.5458 79.2675 75.888 78.9471 74.9241 78.7016C73.7642 78.4062 72.3499 78.7141 70.9846 79.2595C70.085 79.6189 69.2156 80.2364 68.4505 80.9708C67.8481 81.5491 67.286 82.5923 66.9675 83.4876C66.7565 84.0809 66.6802 85.0656 66.65 87.0357C66.6334 88.1157 67.1669 88.6089 67.8698 89.3411C68.4498 89.9453 68.9498 90.1346 69.4235 90.3499C70.3874 90.7879 71.19 90.6817 71.8118 90.5959C72.0874 90.5578 72.544 90.3668 73.1041 90.0656C74.3113 89.4164 74.5884 87.6631 74.7329 87.1742C74.8675 86.7191 74.906 85.8543 74.8201 85.3184C74.7386 84.8096 74.2173 84.3269 73.8575 84.0093C73.6373 83.815 73.3828 83.6348 72.9535 83.5485C72.2528 83.4076 71.7139 83.5761 71.5417 83.7051C71.1866 83.9712 71.2246 84.4667 71.181 84.9124C71.1255 85.48 71.0226 86.0761 71.0653 86.5792C71.0818 86.7731 71.1935 86.826 71.2802 86.8696C71.4524 86.9416 71.6828 86.971 71.9555 86.914C72.0858 86.8571 72.1997 86.7432 72.4897 86.6258" stroke="#FFFEFC" stroke-width="1.5" stroke-linecap="round"/>
</svg>
