<svg width="185" height="186" viewBox="0 0 185 186" fill="none" xmlns="http://www.w3.org/2000/svg">
<title>Olivia Wilson</title> 

<circle cx="92.7384" cy="92.9254" r="91.215" fill="currentColor" stroke="#FFFEFC" stroke-width="2"/>
<path d="M79.3837 116.913C79.3081 117.092 79.1782 117.511 79.0438 117.849C78.9522 118.08 78.8697 118.319 78.6782 118.759C78.4338 119.322 78.4011 119.71 78.2842 120.219C78.1721 120.708 78.0081 121.619 77.9636 122.398C77.9337 122.921 77.8991 123.165 77.8804 123.514C77.8648 123.804 77.8219 124.047 77.7806 124.377C77.7396 124.705 77.7822 125.087 77.8169 125.417C77.8304 125.546 77.9126 125.724 77.9698 125.818C78.0271 125.912 78.0778 125.911 78.1293 125.911C78.3651 125.91 78.6612 125.867 78.9584 125.834C79.2087 125.807 79.5467 125.805 79.8343 125.793C80.1212 125.782 80.4281 125.78 80.6969 125.714C81.0324 125.633 81.4144 125.565 81.7355 125.498C81.8307 125.478 81.9666 125.428 82.0368 125.379C82.2124 125.256 82.074 124.881 82.0232 124.529C81.9723 124.178 81.8975 123.558 81.7879 122.805C81.7164 122.315 81.6614 121.754 81.5832 121.121C81.5267 120.663 81.5037 120.233 81.4916 119.944C81.4827 119.734 81.5656 119.509 81.5648 119.304C81.564 119.072 81.1791 118.973 80.9275 118.81C80.7288 118.682 80.5313 118.526 80.3379 118.335C80.1569 118.156 80.0564 117.935 79.7575 117.132C79.6917 116.963 79.661 116.922 79.6323 116.864C79.6036 116.805 79.5778 116.729 79.5512 116.651" stroke="#FFFEFC" stroke-width="1.5" stroke-linecap="round"/>
<path d="M77.8985 125.681C77.981 125.924 78.1577 126.444 78.3794 127.146C78.5389 127.651 78.5572 127.971 78.6533 128.33C78.9772 129.537 79.1872 129.776 79.3089 129.983C79.4322 130.194 79.5799 130.378 79.7404 130.649C79.9172 130.947 80.1174 131.256 80.2753 131.443C80.4506 131.65 80.6543 131.878 80.9197 132.207C81.0895 132.417 81.2883 132.587 81.4713 132.747C81.6894 132.938 81.7989 133.132 81.9742 133.32C82.0509 133.403 82.1239 133.484 82.1906 133.504C82.4248 133.576 81.9772 132.548 81.8756 132.098C81.7891 131.716 81.7437 131.459 81.6887 131.221C81.6027 130.848 81.5987 130.277 81.5866 130.015C81.5723 129.707 81.6087 129.4 81.6327 129.144C81.6542 128.914 81.6593 128.495 81.7037 128.145C81.7315 127.925 81.792 127.526 81.8691 127.122C81.9206 126.852 81.9919 126.601 82.0617 126.329C82.1205 126.1 82.1107 125.893 82.1171 125.686C82.1244 125.631 82.1392 125.576 82.1468 125.521C82.1543 125.467 82.154 125.417 82.138 125.318" stroke="#FFFEFC" stroke-width="1.5" stroke-linecap="round"/>
<path d="M79.5339 116.912C79.7214 116.66 80.5406 115.974 81.4762 115.286C82.0344 114.875 82.4223 114.289 82.6133 114.069C82.7753 113.883 83.0378 113.635 83.2346 113.43C83.4761 113.179 83.7356 112.867 83.9669 112.566C84.2379 112.213 84.4614 111.834 84.6686 111.609C84.8858 111.372 85.1584 111.015 85.3903 110.637C85.5806 110.326 85.8597 109.904 86.0857 109.562C86.2407 109.327 86.3467 109.02 86.4806 108.709C86.5785 108.482 86.6755 108.275 86.7997 108.087C86.9138 107.914 87.0253 107.694 87.2264 107.531C87.4411 107.357 87.8626 107.443 88.7139 107.384C89.2376 107.347 89.6912 107.232 89.9497 107.212C90.2403 107.191 90.4439 107.181 90.7864 107.108C90.8624 107.091 90.91 107.142 90.9337 107.185C91.0309 107.363 90.8632 107.654 90.6686 108.062C90.5178 108.379 90.2557 108.784 89.7951 109.564C89.287 110.424 88.9615 110.815 88.7171 111.155C88.3756 111.631 87.7151 112.231 87.5052 112.449C87.1518 112.815 86.5389 113.452 86.3365 113.667C86.1796 113.834 85.9826 113.984 85.8246 114.149C85.7362 114.241 85.6306 114.309 85.2341 114.69C84.8789 115.031 84.1868 115.648 83.798 115.989C83.2283 116.489 82.9364 116.747 82.5385 117.139C82.3413 117.333 82.1569 117.577 81.9604 117.832C81.7879 118.055 81.5679 118.46 81.4507 118.775C81.4057 118.996 81.4069 119.2 81.4592 119.43C81.47 119.487 81.4703 119.538 81.5019 119.682" stroke="#FFFEFC" stroke-width="1.5" stroke-linecap="round"/>
<path d="M107.926 100.748C107.406 100.925 107.018 101.09 106.749 101.208C106.069 101.504 105.033 101.902 105.095 102.034C105.241 102.345 105.461 102.457 105.776 102.734C106.23 103.132 106.919 103.483 107.578 103.814C108.207 104.13 108.637 104.253 109.086 104.372C110.067 104.633 110.762 104.865 111.218 105.033C112.33 105.442 113.149 105.696 113.318 105.767C113.819 105.976 114.129 106.014 114.385 106.038C114.635 106.061 114.943 106.045 115.358 106.032C115.739 106.02 116.054 106.094 116.629 106.224C116.984 106.304 117.346 106.323 117.645 106.367C117.909 106.406 118.492 106.378 118.959 106.382C119.08 106.384 119.183 106.384 119.28 106.368C119.482 106.335 119.544 106.04 119.668 105.724C119.812 105.355 119.851 105.029 119.937 104.325C119.992 103.873 119.945 103.492 119.936 103.237C119.934 103.188 119.867 103.158 119.818 103.14C119.723 103.105 119.306 103.11 118.651 103.093C117.671 103.068 117.044 103.056 116.653 103.036C115.83 102.992 115.513 102.978 115.212 102.926C114.846 102.863 114.635 102.814 114.422 102.792C114.13 102.762 113.773 102.697 112.963 102.545C112.597 102.477 112.174 102.368 111.617 102.113C111.335 101.984 111.024 101.955 110.712 101.821C110.462 101.713 110.013 101.547 109.67 101.422C109.313 101.292 109.047 101.274 108.601 101.068C108.512 101.011 108.481 100.971 108.437 100.943C108.394 100.914 108.338 100.9 108.203 100.808" stroke="#FFFEFC" stroke-width="1.5" stroke-linecap="round"/>
<path d="M120.166 103.258C120.299 103.298 120.535 103.388 121.179 103.655C121.915 103.96 122.558 104.359 122.93 104.6C123.157 104.747 123.62 105.023 124.308 105.489C125.202 106.095 125.332 106.326 125.854 106.959C126.167 107.338 126.467 107.855 126.608 108.142C126.839 108.614 127.057 109.436 127.05 109.643C127.043 109.867 126.733 109.991 126.465 110.108C126.207 110.221 125.815 110.457 125.476 110.598C125.108 110.752 124.817 110.899 124.063 111.164C123.742 111.277 123.492 111.23 123.307 111.114C123.062 110.961 123.037 110.598 122.887 110.333C122.723 110.043 122.654 109.822 122.532 109.59C122.418 109.373 122.204 109.002 121.709 108.323C121.495 108.03 121.255 107.817 121.05 107.595C120.763 107.283 120.573 107.124 120.411 106.974C120.239 106.814 120.048 106.635 119.878 106.487C119.786 106.416 119.693 106.345 119.595 106.284C119.544 106.259 119.488 106.244 119.43 106.228" stroke="#FFFEFC" stroke-width="1.5" stroke-linecap="round"/>
<path d="M123.371 111.307C123.511 111.618 123.727 111.852 124.19 112.437C124.929 113.369 125.266 113.912 125.496 114.262C125.677 114.538 125.758 114.755 125.908 115.123C126.248 115.95 126.695 117.363 126.696 117.414C126.697 117.609 126.815 116.812 126.878 116.217C126.918 115.844 126.962 115.631 127.019 115.296C127.127 114.658 127.276 114.242 127.313 113.972C127.344 113.752 127.429 113.285 127.476 112.941C127.507 112.722 127.532 112.478 127.605 112.188C127.667 111.941 127.661 111.647 127.68 111.426C127.704 111.155 127.687 110.919 127.661 110.663C127.592 110.386 127.499 110.01 127.351 109.75C127.312 109.712 127.266 109.676 127.157 109.61" stroke="#FFFEFC" stroke-width="1.5" stroke-linecap="round"/>
<path d="M90.958 107.073C91.029 107.049 91.1001 107.025 91.93 106.743C92.7599 106.461 94.3466 105.922 95.2035 105.644C96.6823 105.164 97.7354 104.876 98.6012 104.622C99.3943 104.389 100.88 103.861 101.68 103.576C102.543 103.243 103.271 102.969 104.303 102.592C104.672 102.44 104.727 102.368 104.784 102.295" stroke="#FFFEFC" stroke-width="1.5" stroke-linecap="round"/>
<path d="M86.6968 107.242C86.4829 107.315 86.0685 107.509 85.4765 107.883C85.1253 108.106 84.4871 108.419 84.0376 108.64C83.5701 108.869 82.9625 109.125 82.3534 109.372C81.9036 109.555 81.2675 109.861 80.0361 110.32C79.6305 110.471 78.7203 110.834 77.4375 111.257C76.4559 111.58 76.0425 111.611 75.671 111.697C74.9643 111.86 74.2457 111.741 73.4518 111.679C72.4586 111.6 71.8475 111.596 71.4477 111.558C71.0706 111.523 70.5139 111.436 70.009 111.407C69.5215 111.379 69.1379 111.396 68.6032 111.391C68.0489 111.386 67.3494 111.31 66.8276 111.154C66.4533 111.042 65.9803 110.975 65.6074 110.901C65.2902 110.839 64.9714 110.678 64.5946 110.512C64.2281 110.352 64.0954 109.909 63.7744 109.006C63.6267 108.59 63.7175 108.328 63.7483 108.185C63.779 108.041 64.1291 108.053 64.5211 107.988C64.8879 107.926 65.3817 107.815 65.8696 107.756C66.0523 107.734 66.2614 107.73 66.8444 107.691C68.0821 107.607 69.1675 107.648 69.7059 107.705C70.588 107.798 71.0392 107.813 71.4785 107.851C72.1005 107.903 72.8034 107.907 73.4444 107.943C73.8459 107.966 74.5284 107.881 75.1097 107.818C75.5368 107.771 76.0153 107.776 76.3958 107.715C76.8292 107.644 77.1815 107.594 77.7476 107.495C78.3739 107.385 78.8251 107.329 79.289 107.278C79.8022 107.222 80.1983 107.13 80.6498 107.043C81.1729 106.942 81.5158 106.842 81.8709 106.788C82.4471 106.7 83.5424 106.313 84.2118 106.019C84.2938 105.983 84.3863 105.946 84.4827 105.953C84.9108 105.984 85.2282 106.379 85.5771 106.581C85.8871 106.761 86.1262 106.982 86.4354 107.144C86.726 107.296 87.0946 107.24 87.4186 107.25C87.5901 107.285 87.767 107.332 87.9386 107.367C88.023 107.379 88.1021 107.378 88.3515 107.401" stroke="#FFFEFC" stroke-width="1.5" stroke-linecap="round"/>
<path d="M63.9414 107.852C63.7506 107.917 63.2296 108.066 62.8849 108.189C62.7688 108.231 62.624 108.342 62.1264 108.823C61.6288 109.304 60.7902 110.17 60.2572 110.756C59.4927 111.597 59.2642 112.015 59.1586 112.208C58.9864 112.523 58.781 112.737 58.513 113.085C58.2399 113.44 58.0453 113.688 57.8559 113.91C57.6882 114.106 57.5778 114.333 57.1977 115.083C56.9999 115.473 56.8698 115.618 56.8194 115.807C56.7943 115.901 56.8117 116.038 56.8766 116.187C57.007 116.487 57.4744 116.685 57.6743 116.811C57.9243 116.968 58.1496 117.157 58.3257 117.233C58.5019 117.309 58.6731 117.351 58.8488 117.342C59.145 117.326 59.3773 116.898 59.5284 116.754C59.999 116.304 60.4273 115.569 60.5718 115.384C60.7491 115.156 60.9113 114.847 61.0431 114.687C61.2573 114.428 61.3953 114.167 61.5528 113.999C61.8199 113.714 61.9611 113.517 62.1479 113.289C62.5 112.861 62.7572 112.703 63.0315 112.481C63.3386 112.233 63.4473 112.082 63.5921 111.94C63.811 111.725 63.9197 111.579 64.0519 111.462C64.1972 111.333 64.4146 111.267 64.594 111.184C64.637 111.163 64.6708 111.137 64.705 111.111C64.7393 111.085 64.7731 111.059 64.8079 111.033" stroke="#FFFEFC" stroke-width="1.5" stroke-linecap="round"/>
<path d="M56.7718 115.912C56.7213 116.057 56.7055 116.262 56.7406 116.472C56.7555 116.561 56.7755 117.305 56.827 118.445C56.8653 119.295 56.9943 119.554 57.133 120.319C57.3512 121.522 57.3925 121.735 57.5058 122.133C57.5417 122.258 57.6926 122.788 57.9667 123.573C58.1937 124.224 58.359 124.539 58.6987 125.265C58.8561 125.602 59.1371 126.073 59.3595 126.43C59.4707 126.609 59.5803 126.827 59.641 126.901C59.8778 127.189 59.4881 126.303 59.4501 126.087C59.3962 125.779 59.2215 125.225 58.9831 124.314C58.7457 123.408 58.7737 122.855 58.7815 122.731C58.7982 122.47 58.7809 121.87 58.7629 120.977C58.7393 119.81 58.7159 119.529 58.7284 119.168C58.7637 118.146 58.8903 117.939 58.9407 117.75C58.9533 117.702 58.9657 117.656 58.972 117.61C58.9783 117.565 58.9781 117.523 59.0032 117.427" stroke="#FFFEFC" stroke-width="1.5" stroke-linecap="round"/>
<path d="M50.6934 106.608C50.3574 106.922 50.1375 107.238 49.7834 107.935C49.5496 108.395 49.2625 109.099 49.0535 109.674C48.8445 110.25 48.7368 110.683 48.6036 111.386C48.4703 112.088 48.3148 113.047 48.237 113.569C48.1342 114.258 48.1367 114.611 48.152 115.057C48.1656 115.452 48.1873 115.98 48.237 116.423C48.2659 116.682 48.3776 117.047 48.6686 117.905C48.7178 118.05 48.7428 117.999 48.8921 117.395C49.0414 116.791 49.3272 115.632 49.5703 114.776C49.8135 113.92 50.0055 113.401 50.2449 112.86C50.4842 112.319 50.765 111.77 50.9833 111.392C51.2016 111.013 51.3489 110.822 51.6017 110.535C52.5794 109.428 52.7213 109.295 52.8237 109.174C52.9179 109.063 52.4474 108.903 52.0795 108.642C51.5206 108.245 51.3966 108.086 51.2668 107.916C51.1313 107.738 51.0336 107.566 50.9271 107.316C50.7992 107.045 50.6904 106.767 50.6321 106.658C50.6037 106.596 50.5778 106.52 50.5511 106.442" stroke="#FFFEFC" stroke-width="1.5" stroke-linecap="round"/>
<path d="M50.5112 106.968C50.4979 106.887 50.5477 106.699 50.6111 106.505C50.672 106.32 50.7456 106.145 50.8518 105.952C50.9629 105.749 51.1236 105.616 51.3171 105.407C51.5319 105.176 51.7274 104.996 51.9048 104.821C52.1049 104.624 52.2688 104.483 52.6514 104.117C52.8341 103.943 53.1231 103.636 53.3399 103.425C53.4811 103.288 53.792 103.036 54.1342 102.776C54.4409 102.543 55.0104 102.122 55.4008 101.874C55.6144 101.738 55.9755 101.464 56.2242 101.286C56.4507 101.124 56.853 100.809 57.3532 100.445C57.6692 100.215 57.9254 100.043 58.2091 99.8895C58.5262 99.7178 58.9637 99.6466 59.2098 99.6348C59.4434 99.6237 59.6743 99.6342 59.8631 99.6203C59.9642 99.6128 60.0558 99.5762 60.1328 99.5928C60.1705 99.6008 60.1931 99.6433 60.2001 99.684C60.2313 99.8662 60.1446 100.046 60.2217 100.525C60.3758 101.483 60.6549 101.717 60.8233 101.982C60.8808 102.072 60.9402 102.136 60.9729 102.21C61.008 102.291 60.6753 102.441 60.2183 102.589C59.9774 102.667 59.4206 102.824 58.6623 103.096C58.1593 103.277 57.8802 103.604 57.4092 103.965C57.1713 104.147 56.8328 104.474 56.571 104.701C56.2903 104.943 55.9195 105.33 55.5074 105.669C55.0241 106.068 54.8889 106.294 54.7506 106.478C54.5804 106.703 54.4296 106.88 54.3062 107.022C54.1608 107.19 54.0386 107.37 53.8731 107.619C53.7281 107.838 53.614 108.015 53.4993 108.183C53.3891 108.345 53.2615 108.493 53.1315 108.616C53.0699 108.686 53.0101 108.764 52.9486 108.835C52.9165 108.868 52.8828 108.893 52.8357 109.01" stroke="#FFFEFC" stroke-width="1.5" stroke-linecap="round"/>
<path d="M61.1888 102.396C61.6292 102.432 61.9122 102.508 62.2015 102.623C62.6299 102.795 63.0854 102.894 63.5072 102.952C63.6447 102.971 63.8603 103.031 64.3475 103.122C64.8346 103.213 65.5857 103.34 66.0087 103.407C66.5027 103.486 66.7139 103.507 67.0597 103.561C67.8997 103.691 68.481 103.792 68.8809 103.844C69.2902 103.897 69.5602 103.97 69.9006 104.026C70.6324 104.146 71.2825 104.286 71.5455 104.318C71.6514 104.332 72.1755 104.353 72.9164 104.409C73.4286 104.447 73.857 104.412 74.2025 104.374C74.7291 104.315 75.2194 104.335 75.6079 104.346C76.6903 104.376 77.099 104.44 77.3703 104.456C77.5611 104.467 77.7555 104.475 78.0148 104.48C78.2399 104.484 78.564 104.415 79.8982 103.955C80.1662 103.862 80.1719 103.798 80.1655 103.757C80.1529 103.677 80.0814 103.614 80.0149 103.544C79.8203 103.339 79.1542 103.273 78.6325 103.134C78.3653 103.063 78.1678 102.906 77.8711 102.743C76.8648 102.193 76.6263 102.072 76.4128 101.929C76.1608 101.76 75.9896 101.63 75.8042 101.485C75.5622 101.296 75.3573 101.158 75.1186 101.003C74.8093 100.802 74.5319 100.666 74.3212 100.509C74.0822 100.33 73.8183 100.208 73.6205 100.067C73.4636 99.9562 73.2731 99.9493 73.0887 99.933C72.8196 99.9093 71.8418 100.05 71.1444 100.122C70.6318 100.175 70.4185 100.218 69.6283 100.202C69.1505 100.192 68.8769 100.227 68.4983 100.227C68.2082 100.228 67.9182 100.224 67.6539 100.207C67.3828 100.189 67.0653 100.199 66.8677 100.167C66.616 100.125 66.3191 100.067 66.0537 100C65.6698 99.9039 65.4874 99.892 65.2943 99.8502C65.0888 99.8057 64.8705 99.8014 64.673 99.7895C64.4521 99.7763 64.2491 99.7405 64.0155 99.7058C63.5782 99.6407 63.2505 99.6225 63.0317 99.5893C62.8068 99.5552 62.5391 99.5493 62.2204 99.5149C61.8632 99.4764 61.6226 99.4609 61.4206 99.436C61.1945 99.4081 60.9713 99.4385 60.7657 99.4867C60.5899 99.4965 60.4276 99.5229 60.291 99.5622C60.2306 99.5757 60.1882 99.5759 60.1445 99.5762" stroke="#FFFEFC" stroke-width="1.5" stroke-linecap="round"/>
<path d="M109.667 96.9116C109.622 97.0919 109.462 97.5249 109.379 97.756C109.348 97.8418 109.3 97.9605 109.184 98.2418C108.777 99.2234 108.507 99.4278 108.387 99.6172C108.361 99.6583 108.334 99.6885 108.332 99.7189C108.33 99.7492 108.351 99.7772 108.385 99.7898C108.56 99.8546 108.763 99.8038 109.082 99.8373C109.411 99.8718 109.887 99.7657 110.201 99.6891C110.361 99.6498 110.541 99.6266 110.823 99.5488C111.02 99.4943 111.18 99.4807 111.466 99.4013C111.548 99.3786 111.625 99.3648 112.032 99.2268C112.438 99.0889 113.171 98.828 113.574 98.6794C114.145 98.4682 114.526 98.2729 114.901 98.1154C115.037 98.0585 115.376 97.9126 115.85 97.7219C116.3 97.5412 116.612 97.3622 117.005 97.1753C117.155 97.1039 117.209 97.088 118.075 96.594C118.941 96.1 120.619 95.1305 121.535 94.5903C122.45 94.0501 122.551 93.9687 122.681 93.8771C123.186 93.5189 123.458 93.3873 124.08 93.0221C124.45 92.8046 124.901 92.5413 125.296 92.2529C125.48 92.1188 125.626 91.951 125.763 91.827C126.006 91.6069 126.351 91.2536 126.478 91.1217C126.686 90.9057 127.142 90.4888 127.424 90.1894C127.589 90.0143 127.678 89.8542 127.816 89.7182C127.876 89.6681 127.932 89.625 127.964 89.5787C127.968 89.5538 127.947 89.5258 127.925 89.4969" stroke="#FFFEFC" stroke-width="1.5" stroke-linecap="round"/>
<path d="M109.672 96.8046C109.714 96.7903 110.062 96.672 110.768 96.4026C111.153 96.2558 111.573 96.0412 111.917 95.8586C112.524 95.5373 112.865 95.3163 113.183 95.1433C113.414 95.0182 113.772 94.7964 113.989 94.6566C114.206 94.5167 114.269 94.4601 114.652 94.2004C115.035 93.9407 115.735 93.4796 116.131 93.2242C116.527 92.9689 116.597 92.9333 117.388 92.4237C118.178 91.9141 119.688 90.9315 120.483 90.4076C121.278 89.8838 121.313 89.8484 121.462 89.7503C121.868 89.4835 122.327 89.2073 122.626 89.0052C122.899 88.8199 123.127 88.6626 123.656 88.323C124.12 88.0252 124.475 87.7421 124.653 87.6044C124.917 87.4003 125.264 87.2718 125.488 87.1659C126.048 86.9022 126.292 86.9814 126.746 86.9929C127.045 87.0005 127.28 87.0606 127.437 87.1377C127.504 87.1708 127.544 87.314 127.604 87.4715C127.64 87.5678 127.839 88.0753 128.088 88.8265C128.173 89.1286 128.174 89.2 128.156 89.2709C128.139 89.3067 128.104 89.3421 128.068 89.3785" stroke="#FFFEFC" stroke-width="1.5" stroke-linecap="round"/>
<path d="M126.944 86.6765C126.939 86.6602 127.214 86.557 127.713 86.3967C127.932 86.3264 128.086 86.2973 128.598 86.224C129.111 86.1508 129.978 86.039 130.723 85.9851C131.467 85.9312 132.064 85.9387 132.544 85.9661C133.024 85.9936 133.369 86.0408 133.758 86.1214C134.147 86.202 134.569 86.3145 134.941 86.4386C135.633 86.669 135.968 86.8502 136.022 86.8872C136.198 87.0079 136.745 87.459 137.018 87.7255C137.26 87.9622 137.552 88.2293 137.763 88.4511C137.816 88.5072 137.844 88.567 137.869 88.6137C137.93 88.7257 137.812 89.0381 137.72 89.531C137.656 89.8771 137.587 90.2791 137.521 90.4951C137.468 90.6736 137.412 90.7452 137.366 90.7703C137.258 90.828 137.051 90.6844 136.785 90.5945C136.574 90.5232 136.408 90.5056 136.174 90.4005C136.034 90.338 135.881 90.2874 135.604 90.2434C135.224 90.1832 134.943 90.1075 134.724 90.058C134.238 89.9476 133.872 89.8899 133.649 89.8417C133.151 89.7338 132.77 89.6916 132.675 89.6826C132.576 89.6731 132.223 89.6479 131.736 89.6424C131.502 89.6398 131.339 89.6613 131.02 89.6823C130.502 89.7165 130.161 89.7843 130.072 89.7917C129.714 89.8212 129.421 89.8327 129.13 89.8442C128.951 89.8513 128.824 89.8419 128.589 89.8157C128.447 89.7998 128.32 89.7455 128.205 89.7336C128.176 89.7296 128.146 89.7216 128.117 89.7175C128.087 89.7135 128.06 89.7136 128.007 89.7223" stroke="#FFFEFC" stroke-width="1.5" stroke-linecap="round"/>
<path d="M137.163 90.987C137.191 91.0142 137.218 91.0414 137.438 91.269C137.657 91.4967 138.067 91.924 138.296 92.1563C138.556 92.4189 138.705 92.5388 139.011 92.8574C139.216 93.0701 139.497 93.4076 139.684 93.6154C139.944 93.9035 140.08 94.0295 140.215 94.1815C140.421 94.4145 140.689 94.7077 140.992 95.1518C141.176 95.4224 141.378 95.8144 141.556 96.1996C141.734 96.5848 141.87 96.959 141.946 97.1818C142.078 97.5705 142.096 97.7304 142.139 97.9C142.184 98.072 142.229 98.3123 142.248 98.4225C142.266 98.5311 142.221 97.968 142.223 97.7115C142.224 97.5398 142.185 97.3693 142.145 97.1841C142.111 97.027 142.06 96.894 141.97 96.586C141.891 96.3197 141.72 95.8383 141.611 95.5428C141.409 94.9996 141.228 94.659 141.116 94.3993C141.095 94.3509 141.067 94.2964 140.966 94.0006C140.866 93.7047 140.693 93.1694 140.598 92.8635C140.416 92.2739 140.331 91.8593 140.263 91.6194C140.248 91.564 140.246 91.5281 140.175 91.2912C140.104 91.0544 139.964 90.6173 139.873 90.3621C139.702 89.882 139.528 89.6854 139.384 89.4531C139.28 89.2843 139.116 89.1245 138.993 88.9808C138.893 88.8645 138.793 88.7995 138.617 88.6887C138.284 88.4789 138.158 88.4519 138.036 88.4194C138.005 88.4112 137.975 88.4032 137.942 88.4005C137.909 88.3979 137.873 88.4008 137.803 88.3874" stroke="#FFFEFC" stroke-width="1.5" stroke-linecap="round"/>
<path d="M113.677 86.5178C113.598 87.4579 113.497 87.9499 113.314 88.6682C113.253 88.9058 113.034 89.4948 112.769 90.3375C112.576 90.9482 112.25 91.7241 112.034 92.2777C111.912 92.591 111.9 92.8378 111.811 93.2486C111.772 93.4303 111.75 93.5752 111.762 93.6665C111.775 93.7698 112.429 93.5165 113.234 93.224C114.002 92.9451 114.559 92.4884 115.219 92.0167C115.556 91.776 115.856 91.476 116.174 91.2345C116.625 90.892 116.888 90.5354 117.133 90.2699C117.366 90.0178 117.75 89.6512 118.261 89.1063C118.733 88.6031 119.384 87.9524 119.775 87.5627C120.243 87.096 120.66 86.5477 120.951 86.1444C121.355 85.5837 121.606 85.3485 122.149 84.6225C122.484 84.1737 122.71 83.8299 122.874 83.5552C123.107 83.1658 123.422 82.7887 123.779 82.2671C124.246 81.5839 124.6 81.2632 124.958 80.9695C125.202 80.7691 125.391 80.6127 125.444 80.4902C125.569 80.2048 125.398 79.8497 125.215 79.1136C125.02 78.3312 124.753 77.8376 124.648 77.7783C124.421 77.6512 123.325 78.0936 122.202 78.7316C121.564 79.0936 120.661 80.026 120.256 80.3842C119.696 80.8801 119.344 81.2556 119.064 81.5329C118.864 81.73 118.644 81.8948 117.712 82.6767C117.299 83.024 116.924 83.3369 116.691 83.5494C116.365 83.8456 116.14 84.0036 115.788 84.2563C115.458 84.4934 115.147 84.779 114.757 85.0641C114.489 85.26 114.351 85.469 114.172 85.6157C113.974 85.7775 113.84 85.9855 113.687 86.1803C113.642 86.3 113.586 86.4152 113.518 86.5236C113.489 86.5811 113.473 86.6433 113.456 86.7074" stroke="#FFFEFC" stroke-width="1.5" stroke-linecap="round"/>
<path d="M125.65 80.4226C125.665 80.4178 125.679 80.413 126.216 80.2385C126.752 80.0641 127.811 79.7202 128.408 79.5332C129.006 79.3463 129.111 79.3266 129.502 79.305C130.568 79.2462 131.317 79.2507 131.52 79.2617C131.918 79.2831 132.558 79.2291 133.313 79.2605C134.433 79.3072 134.661 79.3659 135.529 79.5185C135.939 79.5906 136.176 79.7165 136.468 79.8664C136.531 79.8986 136.572 79.9353 136.613 79.9379C136.654 79.9406 136.692 79.9118 136.711 79.8732C136.796 79.7031 136.772 79.4842 136.817 79.148C136.88 78.6893 137.003 78.0903 136.98 77.7848C136.97 77.6527 136.919 77.4611 136.824 77.2528C136.701 76.9822 136.292 77.0313 135.796 76.9359C134.802 76.7445 134.49 76.8254 133.638 76.6749C133.317 76.6183 133.114 76.6029 132.704 76.5503C132.44 76.5165 132.115 76.4937 131.539 76.4728C131.211 76.4609 130.856 76.4719 130.465 76.5244C130.03 76.5826 129.548 76.6759 128.998 76.7421C128.587 76.7917 128.115 76.8097 127.798 76.8931C127.564 76.9546 127.232 76.997 126.893 77.0642C126.464 77.1494 125.653 77.3891 125.187 77.4996C124.976 77.5498 124.732 77.5743 124.539 77.5754C124.491 77.5757 124.443 77.576 124.39 77.5858C124.337 77.5956 124.28 77.615 124.207 77.5918" stroke="#FFFEFC" stroke-width="1.5" stroke-linecap="round"/>
<path d="M136.664 79.973C136.684 79.9758 136.704 79.9786 136.971 80.0733C137.237 80.1681 137.749 80.3547 138.11 80.4955C138.472 80.6362 138.668 80.7255 139.318 81.1111C139.967 81.4966 141.065 82.1757 141.723 82.5964C142.381 83.0172 142.566 83.1591 142.683 83.2539C142.943 83.4644 143.187 83.6784 143.439 83.884C143.611 84.0238 143.912 84.1902 144.099 84.3047C144.256 84.4008 144.356 84.5415 144.55 84.6776C144.74 84.8108 144.825 84.9044 144.924 84.9938C145.038 85.0973 145.185 85.2435 145.25 85.3165C145.272 85.3413 145.175 85.2108 145.058 84.8938C144.94 84.5768 144.761 84.0236 144.63 83.6645C144.498 83.3054 144.418 83.1571 144.245 82.9064C144.072 82.6558 143.807 82.3073 143.281 81.7391C142.754 81.171 141.974 80.3938 141.558 79.9833C141.12 79.5496 140.99 79.4097 140.825 79.2148C140.741 79.1153 140.648 79.0427 140.551 78.9432C140.49 78.8819 140.127 78.6028 139.586 78.2113C139.286 77.9944 139.08 77.8734 138.903 77.771C138.628 77.6126 138.41 77.5503 138.214 77.4685C138.068 77.4075 137.802 77.2947 137.585 77.2099C137.418 77.1445 137.281 77.0967 137.151 77.0621C137.026 77.0287 136.9 77.0194 136.778 77.0067C136.634 76.9918 136.49 76.942 136.366 76.9398C136.29 76.9315 136.219 76.9259 136.154 76.9234C136.119 76.9207 136.078 76.9151 136 76.8919" stroke="#FFFEFC" stroke-width="1.5" stroke-linecap="round"/>
<path d="M115.445 76.8736C115.557 77.2025 115.689 77.817 115.695 78.3774C115.711 79.7345 115.568 80.092 115.53 80.406C115.484 80.779 115.325 81.0868 115.236 81.3701C115.156 81.625 115.143 81.9256 115.064 82.2341C114.997 82.4943 114.974 82.7402 114.906 82.9967C114.833 83.268 114.73 83.6188 114.597 83.9169C114.493 84.1505 114.455 84.4693 114.393 84.7436C114.336 84.993 114.309 85.2378 114.191 85.4628C114.171 85.5759 114.131 85.6872 114.05 85.7921C114.01 85.8449 113.97 85.8969 113.929 85.9505" stroke="#FFFEFC" stroke-width="1.5" stroke-linecap="round"/>
<path d="M111.634 93.4538C111.543 93.5121 111.451 93.6725 111.376 93.8367C111.348 93.8989 111.153 94.2339 110.889 94.7211C110.738 94.999 110.513 95.477 110.375 95.7855C110.288 95.9783 110.101 96.2023 110.024 96.3025C109.947 96.4027 109.884 96.4887 109.837 96.5553C109.815 96.5861 109.796 96.6109 109.743 96.703" stroke="#FFFEFC" stroke-width="1.5" stroke-linecap="round"/>
<path d="M108.537 99.6908C108.471 99.7406 108.4 99.8571 108.32 99.9628C108.228 100.084 108.144 100.166 108.066 100.276C108.023 100.354 107.982 100.424 107.942 100.47C107.922 100.491 107.9 100.508 107.877 100.525" stroke="#FFFEFC" stroke-width="1.5" stroke-linecap="round"/>
<path d="M80.2422 103.71C80.265 103.753 80.376 103.833 80.5234 103.918C80.5626 103.94 80.6116 103.955 80.8645 104.07C81.1173 104.185 81.574 104.398 81.8255 104.519C82.1791 104.688 82.2799 104.764 82.3965 104.859C82.6547 105.07 82.8256 105.203 83.0091 105.297C83.319 105.455 83.5199 105.583 83.6977 105.671C83.8737 105.758 84.0547 105.765 84.2547 105.857C84.3459 105.902 84.4249 105.935 84.4956 105.957C84.5288 105.967 84.5564 105.974 84.6152 105.997" stroke="#FFFEFC" stroke-width="1.5" stroke-linecap="round"/>
<path d="M66.8828 93.0825C66.985 93.3831 67.1902 93.8887 67.3103 94.0926C67.4621 94.3504 67.6334 94.5476 68.0017 95.0142C68.2632 95.3456 68.7098 95.8417 68.9671 96.1443C69.294 96.5287 69.4254 96.6911 69.5524 96.8165C69.7345 96.9964 69.8655 97.1663 70.0621 97.3731C70.5019 97.8355 70.6585 97.9097 70.8258 98.0551C71.0212 98.225 71.1996 98.4095 71.3289 98.5172C71.6048 98.7472 71.9661 98.9259 72.098 99.0035C72.2079 99.0683 72.3691 99.1936 72.6037 99.3252C72.8376 99.4563 73.1682 99.6316 73.2634 99.7006C73.3203 99.7318 73.389 99.7844 73.4575 99.8496C73.4883 99.8775 73.5109 99.8949 73.5342 99.9128" stroke="#FFFEFC" stroke-width="1.5" stroke-linecap="round"/>
<path d="M61.0568 85.641C60.9732 85.8867 60.9253 86.0483 60.9044 86.1227C60.8793 86.2121 60.7292 86.4846 60.4874 87.1339C60.3353 87.5424 60.1802 88.1313 60.0944 88.4484C60.0005 88.7952 59.9973 88.9792 59.9731 89.3781C59.9367 89.9786 59.9649 90.3756 59.9595 90.52C59.9397 91.0399 59.9822 91.1714 60.0056 91.3276C60.0656 91.7275 60.2164 92.0349 60.3478 92.1869C60.4415 92.2954 60.7071 92.1912 60.8635 92.2143C60.8955 92.219 60.9303 92.2252 61.3758 92.3666C61.8213 92.5079 62.6761 92.7856 63.2129 92.9419C63.7496 93.0982 63.9424 93.1246 64.1668 93.1249C64.9391 93.1261 65.0773 93.0276 65.2805 92.9923C65.3495 92.9804 65.6756 92.8835 66.1496 92.7266C66.4681 92.6211 66.7272 92.5935 66.8855 92.5232C66.9516 92.4939 66.7874 92.2208 66.6854 91.8345C66.6336 91.6385 66.6358 91.4303 66.6394 91.217C66.643 91.0037 66.6617 90.7884 66.7597 90.3718C66.8576 89.9551 67.0342 89.3436 67.1384 88.9321C67.2901 88.3329 67.2958 88.0792 67.3048 87.9082C67.3329 87.3746 67.3665 87.2201 67.4541 86.8949C67.5124 86.6784 67.5816 86.4121 67.6871 86.1403C67.7653 85.9392 67.9018 85.5958 67.9888 85.3873C68.0138 85.3275 68.0375 85.2693 68.0248 85.2189C67.9571 84.9503 67.3804 85.1465 67.1862 85.1451C66.7608 85.1421 66.5726 85.227 66.3101 85.2613C66.0875 85.2904 65.9176 85.2891 65.8445 85.2844C65.7664 85.2795 65.5625 85.2836 65.0821 85.2788C64.7644 85.2755 64.2967 85.3107 64.032 85.3276C63.5186 85.3604 63.0765 85.4696 62.9166 85.5112C62.8027 85.5408 62.5643 85.5763 62.3851 85.599C62.2654 85.6141 62.1316 85.6221 61.9709 85.6091C61.7628 85.5923 61.6155 85.5696 61.5052 85.5436C61.4001 85.5329 61.3192 85.5181 61.2687 85.5184C61.2433 85.5186 61.2183 85.5187 61.1925 85.5189" stroke="#FFFEFC" stroke-width="1.5" stroke-linecap="round"/>
<path d="M61.1917 85.519C60.3282 85.0436 59.8155 84.7466 59.6977 84.6602C59.5663 84.5639 59.43 84.4809 59.242 84.3506C59.183 84.3098 59.1526 84.2624 59.0014 84.1379C58.3633 83.6125 58.2236 83.49 58.1391 83.3915C58.0683 83.3089 58.014 83.1728 57.9553 83.0741C57.9035 82.9871 57.8331 82.9132 57.7357 82.8742C57.6241 82.8296 57.4544 82.8895 57.2738 82.9298C57.1804 82.9507 57.1031 82.9751 56.6468 83.1092C56.2211 83.2343 55.4088 83.5006 54.9694 83.6371C54.492 83.7854 54.4188 83.7945 54.3422 83.8163C54.2346 83.847 53.884 83.9509 53.4315 84.1089C53.111 84.2207 52.9638 84.331 52.6846 84.4386C52.5298 84.4983 52.4045 84.5717 52.2858 84.6458C52.2301 84.6807 52.195 84.7272 52.1839 84.7815C52.1736 84.8323 52.234 85.0163 52.3517 85.3258C52.4672 85.6295 52.5802 85.8115 52.6816 85.9993C52.8967 86.3975 53.141 86.6926 53.235 86.8081C53.3007 86.8888 53.4837 87.1565 53.7511 87.5212C53.8796 87.6965 54.0117 87.8897 54.234 88.1721C54.5614 88.5879 54.6514 88.6781 54.8126 88.8549C55.0629 89.1294 55.3828 89.4161 55.6008 89.6589C55.6877 89.7558 55.7601 89.8543 55.8867 89.9793C56.084 90.1742 56.3464 90.4639 56.6117 90.7112C56.7507 90.8407 56.8957 90.9366 57.0907 91.0893C57.4591 91.3778 57.7353 91.4953 57.9512 91.6207C58.2067 91.7692 58.3901 91.881 58.512 91.9412C58.6116 91.9905 58.8124 92.0327 59.1706 92.1431C59.4384 92.2256 59.6179 92.2406 59.7962 92.2687C59.9975 92.2638 60.1136 92.258 60.2336 92.251C60.2629 92.2496 60.2879 92.2494 60.3818 92.2261" stroke="#FFFEFC" stroke-width="1.5" stroke-linecap="round"/>
<path d="M52.2737 84.5316C51.9933 84.4029 51.8812 84.2919 51.7721 84.1731C51.6025 83.9886 51.3854 83.6766 51.0768 82.9336C50.836 82.3539 50.5121 81.328 50.3123 80.5769C50.1126 79.8258 50.0693 79.3717 50.0503 79.075C50.0313 78.7783 50.038 78.6527 50.0719 78.1151C50.1058 77.5774 50.1667 76.6316 50.3603 75.4601C50.5539 74.2886 50.8783 72.9201 51.1657 71.9338C51.453 70.9474 51.6935 70.3846 51.9125 69.939C52.1315 69.4934 52.3217 69.182 52.5518 68.8657C52.7818 68.5495 53.0459 68.2377 53.3638 67.9042C53.6816 67.5708 54.0453 67.2252 54.5949 66.7884C55.1445 66.3515 55.869 65.8339 56.8037 65.2592C57.7384 64.6846 58.8613 64.0686 59.7696 63.633C60.678 63.1974 61.3377 62.9609 61.7089 62.8222C62.3234 62.5926 62.6158 62.4641 63.1458 62.2591C63.5991 62.0838 64.4387 61.7949 64.8882 61.6419C65.4612 61.4469 65.7172 61.4718 65.9065 61.5134C65.9999 61.534 66.0768 61.5742 66.1199 61.5906C66.251 61.6403 65.8191 61.873 64.9789 62.5364C64.4359 62.9652 63.5163 63.7927 62.9309 64.3383C62.3456 64.8839 62.1366 65.14 61.9227 65.4314C61.4823 66.0314 61.1897 66.474 60.9446 66.7928C60.7824 67.0038 60.5641 67.3303 60.3667 67.617C59.7865 68.4593 59.6727 68.6844 59.5783 68.8473C59.397 69.1604 59.1561 69.6943 58.8694 70.2954C58.7464 70.5535 58.6626 70.7344 58.5682 70.9162C58.5274 70.9946 58.5186 71.0828 58.5243 71.1369C58.5403 71.2891 58.8563 70.9811 59.1094 70.8452C59.1629 70.8164 59.1914 70.7925 59.9105 70.5109C60.6295 70.2294 62.0372 69.6893 62.974 69.2898C63.9109 68.8903 64.3342 68.6477 64.6442 68.4484C65.1523 68.1216 65.4631 67.8021 65.6928 67.5622C65.9708 67.2718 66.2491 66.9241 66.4013 66.6917C66.5336 66.4897 66.6682 66.3952 66.7632 66.325C66.9934 66.1548 66.6092 67.0619 66.5739 67.3788C66.5531 67.5659 66.4905 67.7377 66.3293 68.1775C66.1805 68.5836 66.0381 68.8637 65.8656 69.1388C65.7241 69.3644 65.481 69.7696 65.1403 70.2542C64.7996 70.7387 64.3707 71.2915 64.0782 71.6561C63.452 72.4367 63.1803 72.5887 62.9929 72.7518C62.6758 73.0279 62.5082 73.1408 62.1007 73.4784C61.8214 73.7234 61.6501 73.844 61.5908 73.889C61.5609 73.9117 61.5315 73.934 61.4342 73.9798" stroke="#FFFEFC" stroke-width="1.5" stroke-linecap="round"/>
<path d="M58.5508 71.2207C58.7869 71.4765 58.9589 71.6165 59.111 71.7523C59.2827 71.9055 59.6839 72.289 60.0338 72.6345C60.1789 72.7778 60.4477 73.1022 60.6747 73.4382C60.7696 73.6436 60.875 73.8802 60.9773 74.163C61.0195 74.2689 61.0418 74.2983 61.0762 74.3621" stroke="#FFFEFC" stroke-width="1.5" stroke-linecap="round"/>
<path d="M61.1329 74.3068C61.1372 74.3921 61.1308 74.5931 61.0632 75.0508C60.9351 75.9176 60.7864 76.18 60.6804 76.5643C60.5337 77.0966 60.3648 77.5078 60.3041 77.6404C60.2603 77.736 60.1674 78.096 59.9646 78.7058C59.6484 79.6564 59.4467 79.9374 59.3785 80.1605C59.3284 80.3244 59.0581 80.8395 58.8431 81.3697C58.6735 81.7881 58.4736 81.9509 58.366 82.1121C58.278 82.244 58.1512 82.3595 58.0474 82.4946C58.0214 82.5285 57.9957 82.5619 57.9697 82.5958C57.9436 82.6297 57.918 82.6631 57.791 82.7316" stroke="#FFFEFC" stroke-width="1.5" stroke-linecap="round"/>
<path d="M109.561 70.7546C109.912 71.0553 110.204 71.2186 110.396 71.3379C110.685 71.5165 111.121 71.7882 111.767 72.2237C112.623 72.8002 112.853 73.0928 113.169 73.327C113.381 73.484 113.592 73.6825 113.777 73.8376C114.004 74.0281 114.127 74.1721 114.254 74.3326C114.399 74.5152 114.528 74.6537 114.641 74.7931C114.769 74.9504 114.897 75.12 115.006 75.2673C115.148 75.4588 115.266 75.6257 115.377 75.7985C115.433 75.8845 115.505 76.0569 115.586 76.2396C115.613 76.3001 115.655 76.2704 115.687 76.2465C115.816 76.1485 116.065 75.8952 116.302 75.7155C116.599 75.4897 116.949 75.2392 117.351 74.9264C117.701 74.6542 118.355 74.1618 118.708 73.8814C119.229 73.4676 119.397 73.2371 119.55 73.0669C119.767 72.8249 119.917 72.6005 120.056 72.4672C120.227 72.3034 120.324 72.1333 120.335 71.9523C120.355 71.6473 120.081 71.4544 119.386 70.774C119.022 70.4179 118.341 69.942 117.888 69.5705C117.189 68.9966 116.943 68.7197 116.878 68.6436C116.57 68.2839 116.213 67.7721 116.061 67.6131C115.839 67.3818 115.636 67.2709 115.464 67.1714C115.241 67.0425 115.016 67.0735 114.771 67.1432C114.64 67.1802 114.533 67.3158 114.329 67.4834C113.993 67.7585 113.564 68.1702 113.133 68.5071C112.881 68.7047 112.747 68.7908 112.49 68.9761C111.456 69.7222 111.205 69.7485 111.052 69.8205C110.838 69.9212 110.632 70.0749 110.495 70.1544C110.327 70.2515 110.045 70.3536 109.855 70.4573C109.792 70.5048 109.714 70.5449 109.628 70.5808C109.588 70.6007 109.557 70.6243 109.525 70.6486" stroke="#FFFEFC" stroke-width="1.5" stroke-linecap="round"/>
<path d="M115.961 63.0167C116.151 63.9625 116.155 64.5136 116.119 64.7375C116.085 64.9491 115.955 65.2789 115.835 65.6417C115.683 66.1029 115.521 66.3597 115.39 66.5568C115.27 66.6698 115.184 66.7649 115.123 66.8182C115.094 66.848 115.067 66.8832 115.051 66.9549" stroke="#FFFEFC" stroke-width="1.5" stroke-linecap="round"/>
<path d="M120.308 72.1915C120.593 71.574 120.817 71.0606 120.985 70.5909C121.082 70.3187 121.179 69.9691 121.295 69.4955C121.411 69.0218 121.536 68.4326 121.677 67.5303C121.817 66.6281 121.97 65.4307 122.049 64.7943C122.149 63.9817 122.223 63.6661 122.259 63.3652C122.364 62.4808 122.373 61.7082 122.372 61.5506C122.371 61.3929 122.343 61.2321 122.262 61.1086C122.114 60.8824 121.702 61.0422 121.192 61.0646C120.866 61.0789 120.403 61.1432 119.831 61.2837C119.26 61.4242 118.595 61.6503 118.219 61.7845C117.585 62.0108 117.294 62.1579 117.114 62.2653C116.872 62.4093 116.581 62.4926 116.379 62.6004C116.249 62.6841 116.116 62.7554 115.993 62.8565C115.963 62.8863 115.936 62.9215 115.908 62.9578" stroke="#FFFEFC" stroke-width="1.5" stroke-linecap="round"/>
<path d="M108.495 53.6826C108.274 53.7579 108.052 53.8333 106.881 54.192C105.711 54.5507 103.598 55.1906 102.485 55.5223C101.323 55.8682 101.171 55.8826 100.979 55.9152C100.578 55.9831 100.148 55.9284 99.8364 55.8634C99.4574 55.7843 99.186 55.7292 98.9531 55.6638C98.7035 55.5937 98.476 55.5366 98.3139 55.4862C98.2898 55.4787 98.2901 55.5327 98.3116 55.5585C98.3595 55.6157 98.6629 55.7465 99.5245 56.1664C100.136 56.4643 101.132 56.8665 101.969 57.1857C102.807 57.5049 103.463 57.7115 103.828 57.8217C104.193 57.9319 104.248 57.9393 104.625 58.0522C105.003 58.1651 105.702 58.3832 106.235 58.5276C107.109 58.7641 107.7 58.8167 108.064 58.8441C108.33 58.864 108.447 58.8795 108.511 58.8576C108.685 58.7993 108.601 58.4075 108.642 57.8686C108.656 57.6737 108.683 57.5246 108.72 57.114C108.802 56.1931 108.904 55.5428 108.903 55.4251C108.901 55.1128 108.95 54.7917 109.016 54.5386C109.06 54.3682 109.018 54.2157 108.886 53.8078C108.85 53.7202 108.826 53.6891 108.768 53.689C108.709 53.6889 108.616 53.7206 108.531 53.7886" stroke="#FFFEFC" stroke-width="1.5" stroke-linecap="round"/>
<path d="M108.777 58.9482C108.875 59.0448 109.239 59.4208 109.447 59.5482C109.613 59.6493 109.969 59.9081 110.387 60.2069C110.915 60.5844 111.315 60.8465 111.5 60.9665C112.167 61.4006 112.593 61.7498 113.003 62.0016C113.243 62.1495 113.597 62.3047 113.905 62.4705C114.429 62.7532 114.614 62.7759 114.767 62.7635C114.934 62.75 115.09 62.7851 115.346 62.7836C115.523 62.7826 115.642 62.7819 115.722 62.7873C115.764 62.7929 115.807 62.8043 115.934 62.8274" stroke="#FFFEFC" stroke-width="1.5" stroke-linecap="round"/>
<path d="M122.329 61.0896C122.234 60.8096 122.16 60.4784 122.117 60.1192C122.078 59.7958 122.079 59.4669 122.076 58.9187C122.071 57.9646 121.992 57.2739 121.96 57.1011C121.908 56.8292 121.802 56.4453 121.473 55.5142C121.214 54.7793 121.012 54.6224 120.607 54.1433C120.291 53.7699 119.835 53.3951 119.293 52.9026C119.086 52.7144 119.025 52.6423 118.435 52.2101C117.845 51.7779 116.73 50.9855 116.124 50.5618C115.461 50.0987 115.289 50.0061 115.108 49.8775C114.968 49.7786 114.502 49.5005 113.845 49.1521C113.294 48.8601 112.516 48.5306 112.183 48.4117C111.962 48.3325 111.107 48.1298 110.607 48.0663C110.311 48.0289 109.951 47.954 109.471 47.8746C108.977 47.7928 108.761 47.8194 108.415 47.8056C108.139 47.7945 107.746 47.8093 107.381 47.8018C107.257 47.7993 107.15 47.8012 106.816 47.7972C106.034 47.7878 105.43 47.8465 105.262 47.8711C104.899 47.924 104.549 47.9617 104.037 48.0376C103.727 48.0835 103.433 48.1574 103.136 48.2121C102.89 48.2575 102.448 48.3477 102.07 48.4427C101.717 48.5316 101.354 48.6137 100.51 48.8678C100.013 49.0175 99.1413 49.3263 98.6691 49.4933C97.9625 49.7431 97.6237 49.9075 97.4178 49.9974C97.1988 50.093 97.0233 50.1904 96.7173 50.3143C96.4783 50.4111 96.3281 50.5056 96.2025 50.6009C96.171 50.6249 96.14 50.6484 96.1182 50.682C96.0965 50.7156 96.0851 50.7586 96.1007 50.7864C96.1911 50.9481 96.5334 50.9218 96.7489 51.013C97.023 51.1292 97.4938 51.2383 97.8905 51.394C98.1992 51.5152 98.5645 51.5987 98.8372 51.6644C99.0377 51.7127 99.2786 51.7639 99.7096 51.8736C100.038 51.9573 100.355 52.0292 101.117 52.19C101.529 52.2767 101.699 52.2698 102.033 52.3071C102.285 52.3352 102.656 52.4173 103.065 52.4624C103.449 52.5047 103.641 52.5691 103.858 52.5878C104.076 52.6066 104.369 52.6633 104.738 52.7419C105.3 52.8614 106.049 52.9216 106.236 52.9498C106.473 52.9854 106.805 53.019 107.058 53.0651C107.277 53.1051 107.467 53.11 107.635 53.1385C107.835 53.1725 108.09 53.2007 108.303 53.2663C108.477 53.3199 108.646 53.3273 108.819 53.3736C108.863 53.3852 108.906 53.3967 108.946 53.4551C109.047 53.7696 109.024 53.8958 109.011 53.9725C108.997 54.0101 108.97 54.0454 108.907 54.0937" stroke="#FFFEFC" stroke-width="1.5" stroke-linecap="round"/>
<path d="M109.747 70.6306C109.549 70.6679 109.133 70.6886 108.702 70.7137C108.325 70.7357 107.963 70.7227 107.305 70.6588C106.613 70.5914 105.959 70.7072 105.486 70.701C105.029 70.695 104.669 70.6603 104.071 70.6367C103.137 70.5999 102.483 70.6453 101.451 70.5888C100.569 70.5404 99.6451 70.4899 98.6238 70.4735C98.1347 70.4656 97.7198 70.5371 96.49 70.6533C95.8811 70.7108 95.3631 70.8236 94.9824 70.9071C94.4265 71.029 93.9503 71.0311 93.3924 71.1748C92.8818 71.3063 92.4005 71.2851 91.9645 71.3874C91.1877 71.5696 90.1635 71.7417 89.6631 71.8364C89.0275 71.9566 88.3156 72.188 87.5177 72.3837C87.0871 72.4893 86.7282 72.6066 85.8922 72.8452C83.9376 73.4032 82.5095 74.0094 82.1621 74.1879C81.6023 74.4755 81.0561 74.806 80.4572 75.1459C79.8958 75.4644 79.4635 75.7417 78.9971 76.0661C78.6565 76.3029 78.198 76.5644 77.8627 76.8306C77.5781 77.0565 77.2667 77.2154 76.9545 77.4119C76.513 77.6899 76.0383 78.0564 75.6448 78.3265C75.2574 78.5923 74.8298 79.0415 74.3178 79.4137C73.9893 79.6524 73.7261 79.902 73.4328 80.1539C73.0305 80.4994 72.5443 80.8799 72.0473 81.2455C71.6882 81.5098 71.379 81.8212 71.0897 82.0409C70.7788 82.2769 70.4305 82.5071 70.1458 82.7402C69.8424 82.9885 69.5912 83.2468 69.3065 83.4799C69.0031 83.7282 68.7702 84.0403 68.4948 84.3011C68.3644 84.4508 68.2377 84.6157 68.1074 84.7659C68.0395 84.8348 67.968 84.8891 67.922 85.0266" stroke="#FFFEFC" stroke-width="1.5" stroke-linecap="round"/>
<path d="M62.9283 162.104C62.1906 161.794 61.5626 161.375 61.0445 160.845C60.5263 160.315 60.1302 159.716 59.8561 159.045C59.5959 158.37 59.4741 157.653 59.4906 156.897C59.5072 156.14 59.6763 155.379 59.9981 154.611C60.3199 153.844 60.7448 153.189 61.2728 152.647C61.8009 152.106 62.3951 151.695 63.0554 151.417C63.7297 151.133 64.4373 150.99 65.1782 150.989C65.9192 150.987 66.6585 151.141 67.3963 151.451C68.1438 151.764 68.7767 152.186 69.2949 152.715C69.813 153.245 70.2022 153.848 70.4623 154.524C70.7225 155.2 70.8443 155.916 70.8278 156.672C70.8154 157.419 70.6483 158.176 70.3265 158.943C70.0088 159.7 69.586 160.35 69.0579 160.892C68.5299 161.434 67.9337 161.849 67.2692 162.137C66.6047 162.425 65.902 162.57 65.1611 162.572C64.4202 162.573 63.6759 162.417 62.9283 162.104ZM63.6957 160.274C64.1678 160.472 64.6308 160.568 65.0846 160.562C65.5523 160.55 65.9948 160.446 66.4121 160.251C66.8335 160.046 67.2115 159.765 67.5463 159.408C67.8909 159.055 68.1685 158.628 68.3789 158.126C68.5893 157.625 68.6995 157.127 68.7097 156.634C68.7297 156.145 68.6631 155.683 68.5099 155.249C68.3607 154.805 68.1245 154.416 67.8012 154.084C67.4918 153.746 67.1011 153.478 66.6289 153.28C66.1666 153.086 65.7016 152.995 65.2339 153.007C64.7703 153.01 64.3298 153.108 63.9125 153.303C63.4953 153.499 63.1192 153.775 62.7845 154.132C62.4497 154.489 62.175 154.923 61.9605 155.434C61.7501 155.936 61.6328 156.436 61.6087 156.935C61.5887 157.424 61.6553 157.886 61.8085 158.32C61.9618 158.755 62.198 159.143 62.5172 159.485C62.8405 159.817 63.2334 160.08 63.6957 160.274ZM71.432 165.324L74.4772 153.882L76.3945 154.392L73.3492 165.834L71.432 165.324ZM77.3674 166.794L78.9021 158.503L80.8372 158.861L79.3025 167.152L77.3674 166.794ZM80.1722 156.915C79.7842 156.843 79.4975 156.693 79.3122 156.463C79.1393 156.225 79.0858 155.928 79.1518 155.571C79.214 155.235 79.3746 154.983 79.6337 154.814C79.8928 154.645 80.2111 154.596 80.5887 154.665C80.9872 154.739 81.273 154.895 81.4458 155.133C81.6312 155.363 81.6898 155.661 81.6219 156.028C81.5617 156.353 81.4021 156.6 81.143 156.769C80.8839 156.938 80.5603 156.987 80.1722 156.915ZM86.0408 167.952L83.0758 159.296L85.2147 159.443L87.1765 165.897L86.7538 165.98L89.7161 159.753L91.8072 159.896L87.5093 168.053L86.0408 167.952ZM94.4752 168.372L94.0724 159.949L96.0381 159.855L96.4409 168.278L94.4752 168.372ZM94.9457 158.113C94.5515 158.132 94.2379 158.051 94.005 157.87C93.7822 157.678 93.6622 157.401 93.6449 157.038C93.6286 156.697 93.7272 156.415 93.9407 156.191C94.1543 155.967 94.4528 155.846 94.8364 155.828C95.2413 155.809 95.5551 155.895 95.7779 156.087C96.0108 156.268 96.1362 156.545 96.154 156.918C96.1698 157.249 96.0709 157.526 95.8574 157.749C95.6438 157.973 95.3399 158.095 94.9457 158.113ZM103.682 167.58C102.998 167.694 102.346 167.608 101.725 167.323C101.104 167.037 100.571 166.597 100.125 166.001C99.6791 165.405 99.3868 164.691 99.2478 163.86C99.1088 163.029 99.153 162.259 99.3806 161.551C99.6082 160.842 99.9805 160.255 100.498 159.79C101.015 159.325 101.636 159.032 102.362 158.911C102.783 158.84 103.177 158.839 103.546 158.907C103.912 158.965 104.245 159.082 104.545 159.259C104.845 159.436 105.103 159.653 105.319 159.909C105.545 160.163 105.717 160.448 105.835 160.763L105.391 160.724L105.042 158.641L106.999 158.314L108.39 166.63L106.417 166.96L106.085 164.972L106.529 164.816C106.503 165.112 106.413 165.414 106.259 165.721C106.113 166.016 105.911 166.293 105.652 166.553C105.401 166.8 105.107 167.017 104.771 167.203C104.445 167.387 104.082 167.513 103.682 167.58ZM103.931 165.77C104.383 165.694 104.765 165.517 105.075 165.238C105.385 164.959 105.602 164.609 105.727 164.188C105.86 163.755 105.883 163.28 105.797 162.765C105.712 162.26 105.538 161.829 105.273 161.474C105.018 161.116 104.699 160.856 104.315 160.693C103.931 160.53 103.512 160.486 103.06 160.562C102.608 160.638 102.226 160.815 101.916 161.094C101.616 161.371 101.404 161.72 101.28 162.141C101.156 162.562 101.136 163.025 101.22 163.53C101.307 164.046 101.478 164.488 101.734 164.856C101.989 165.213 102.303 165.474 102.676 165.639C103.06 165.802 103.479 165.845 103.931 165.77ZM120.497 162.758L112.512 154.165L114.474 153.225L119.119 158.326C119.264 158.481 119.414 158.658 119.568 158.856C119.722 159.054 119.871 159.255 120.016 159.458C120.156 159.651 120.284 159.832 120.4 160.001C120.517 160.17 120.62 160.31 120.708 160.421L120.312 160.593C120.211 160.086 120.127 159.677 120.06 159.365C119.994 159.054 119.941 158.796 119.902 158.59C119.867 158.37 119.84 158.164 119.819 157.973L119.433 152.8L121.035 152.032L124.782 155.594C125.008 155.818 125.219 156.036 125.416 156.249C125.608 156.453 125.785 156.663 125.949 156.88C126.117 157.084 126.285 157.299 126.453 157.526L126.142 157.764C126.069 157.515 126.008 157.313 125.958 157.16C125.909 157.006 125.866 156.867 125.829 156.743C125.793 156.618 125.76 156.498 125.728 156.383C125.692 156.258 125.656 156.11 125.621 155.938C125.591 155.751 125.549 155.516 125.497 155.234L124.43 148.453L126.377 147.52L128.058 159.134L126.702 159.784L121.188 154.869L121.389 154.843L121.868 162.101L120.497 162.758ZM134.002 156.049L129.222 149.103L130.843 147.987L135.623 154.933L134.002 156.049ZM128.997 147.082C128.672 147.306 128.362 147.402 128.069 147.371C127.778 147.325 127.53 147.153 127.325 146.854C127.131 146.573 127.066 146.281 127.13 145.978C127.193 145.675 127.383 145.415 127.7 145.198C128.033 144.968 128.346 144.876 128.636 144.922C128.93 144.953 129.182 145.122 129.394 145.43C129.581 145.702 129.643 145.99 129.58 146.293C129.516 146.595 129.322 146.859 128.997 147.082ZM138.949 152.523L131.427 143.379L132.96 142.119L140.481 151.263L138.949 152.523ZM145.53 146.817C145.002 147.345 144.44 147.734 143.844 147.983C143.248 148.217 142.653 148.3 142.057 148.232L142.181 146.546C142.663 146.576 143.101 146.508 143.493 146.342C143.885 146.176 144.236 145.938 144.545 145.629C144.673 145.501 144.771 145.373 144.839 145.244C144.914 145.109 144.959 144.973 144.974 144.837C144.989 144.701 144.978 144.577 144.94 144.464C144.903 144.335 144.835 144.222 144.737 144.124C144.556 143.943 144.344 143.868 144.103 143.898C143.975 143.921 143.798 143.985 143.571 144.091C143.353 144.189 143.085 144.336 142.768 144.532C142.255 144.834 141.795 145.053 141.388 145.189C140.973 145.317 140.604 145.37 140.279 145.348C140.008 145.333 139.748 145.269 139.499 145.156C139.257 145.035 139.031 144.869 138.82 144.658C138.556 144.394 138.375 144.1 138.276 143.776C138.178 143.437 138.152 143.086 138.197 142.724C138.242 142.362 138.359 142.003 138.547 141.649C138.736 141.294 138.977 140.97 139.271 140.676C139.572 140.374 139.9 140.121 140.255 139.917C140.617 139.706 140.99 139.551 141.375 139.453C141.759 139.34 142.136 139.294 142.506 139.317L142.586 140.935C142.307 140.942 142.028 140.98 141.749 141.048C141.477 141.109 141.225 141.195 140.991 141.309C140.749 141.414 140.553 141.543 140.403 141.693C140.259 141.837 140.146 141.98 140.063 142.124C139.973 142.259 139.916 142.391 139.894 142.52C139.871 142.648 139.879 142.776 139.917 142.904C139.954 143.017 140.026 143.127 140.132 143.232C140.23 143.315 140.339 143.379 140.46 143.424C140.58 143.455 140.705 143.458 140.833 143.436C140.969 143.405 141.154 143.341 141.387 143.243C141.621 143.145 141.9 142.994 142.224 142.79C142.692 142.519 143.111 142.319 143.48 142.19C143.85 142.062 144.185 142.005 144.487 142.02C144.766 142.012 145.026 142.069 145.268 142.189C145.509 142.31 145.739 142.48 145.958 142.698C146.313 143.053 146.528 143.471 146.603 143.954C146.686 144.429 146.634 144.919 146.445 145.425C146.265 145.923 145.959 146.387 145.53 146.817ZM152.372 138.991C151.864 139.663 151.262 140.151 150.566 140.454C149.861 140.75 149.129 140.852 148.369 140.76C147.61 140.668 146.894 140.368 146.222 139.86C145.55 139.352 145.065 138.746 144.769 138.041C144.472 137.336 144.375 136.607 144.475 135.854C144.567 135.095 144.867 134.379 145.375 133.707C145.876 133.043 146.48 132.563 147.185 132.266C147.881 131.964 148.606 131.863 149.358 131.963C150.118 132.055 150.833 132.355 151.506 132.863C152.178 133.371 152.663 133.977 152.959 134.682C153.262 135.379 153.367 136.106 153.275 136.866C153.174 137.618 152.873 138.327 152.372 138.991ZM150.98 137.94C151.257 137.574 151.407 137.179 151.432 136.757C151.464 136.326 151.383 135.911 151.19 135.512C151.004 135.103 150.707 134.753 150.301 134.459C149.898 134.142 149.476 133.95 149.032 133.882C148.595 133.806 148.178 133.845 147.78 134C147.381 134.139 147.043 134.392 146.767 134.758C146.49 135.124 146.333 135.527 146.296 135.966C146.256 136.39 146.337 136.805 146.538 137.211C146.731 137.611 147.027 137.962 147.427 138.264C147.827 138.566 148.246 138.755 148.683 138.831C149.12 138.907 149.542 138.871 149.947 138.723C150.36 138.567 150.704 138.306 150.98 137.94ZM156.761 132.65L149.395 128.545L150.33 126.868L151.855 127.681L151.843 128.096C151.56 127.816 151.358 127.466 151.239 127.045C151.11 126.619 151.065 126.173 151.105 125.707C151.145 125.241 151.274 124.812 151.492 124.421C151.804 123.861 152.175 123.458 152.607 123.21C153.043 122.952 153.537 122.855 154.088 122.918C154.644 122.972 155.258 123.185 155.929 123.559L160.429 126.067L159.471 127.786L155.097 125.348C154.724 125.141 154.388 125.021 154.088 124.988C153.78 124.95 153.51 125.008 153.279 125.16C153.038 125.306 152.837 125.536 152.675 125.849C152.534 126.1 152.447 126.357 152.411 126.618C152.371 126.864 152.382 127.108 152.443 127.35C152.499 127.577 152.595 127.789 152.729 127.986C152.869 128.173 153.051 128.33 153.274 128.454L157.719 130.931L157.243 131.784C157.15 131.951 157.062 132.11 156.979 132.259C156.901 132.399 156.828 132.529 156.761 132.65Z" fill="#FFFEFC"/>
</svg>
