<svg width="185" height="186" viewBox="0 0 185 186" fill="none" xmlns="http://www.w3.org/2000/svg">
<title>Sarah Wyman</title> 

<circle cx="92.7853" cy="92.9254" r="91.215" fill="currentColor" stroke="#FFFEFC" stroke-width="2"/>
<path d="M61.3934 161.514C60.7988 161.249 60.2856 160.933 59.8535 160.566C59.4258 160.189 59.0793 159.761 58.8141 159.281C58.5488 158.801 58.3556 158.277 58.2344 157.71L60.1012 156.859C60.2841 157.734 60.5482 158.4 60.8936 158.857C61.239 159.314 61.6992 159.671 62.2742 159.927C62.6056 160.074 62.9294 160.16 63.2457 160.183C63.5662 160.198 63.8435 160.152 64.0775 160.046C64.3157 159.93 64.4869 159.755 64.5909 159.521C64.6646 159.355 64.6977 159.189 64.6901 159.022C64.6967 158.85 64.6604 158.682 64.5814 158.519C64.5067 158.345 64.3984 158.169 64.2566 157.989C64.1148 157.809 63.942 157.633 63.7385 157.461C63.5349 157.289 63.3048 157.11 63.0482 156.926C62.5598 156.581 62.1548 156.231 61.8332 155.878C61.516 155.515 61.2794 155.142 61.1235 154.757C60.972 154.363 60.9065 153.972 60.9272 153.584C60.9522 153.187 61.06 152.773 61.2507 152.345C61.4415 151.916 61.7096 151.562 62.0551 151.284C62.4104 151.01 62.8123 150.815 63.2607 150.699C63.7091 150.584 64.1851 150.55 64.6887 150.599C65.1923 150.648 65.6975 150.785 66.2043 151.01C66.7793 151.266 67.2607 151.562 67.6483 151.898C68.0457 152.238 68.3543 152.62 68.5741 153.045C68.8079 153.464 68.9524 153.913 69.0076 154.393L67.1977 155.077C67.1371 154.688 67.0283 154.342 66.8713 154.039C66.7187 153.726 66.5227 153.457 66.2834 153.234C66.0485 153.001 65.775 152.816 65.4631 152.677C65.1123 152.521 64.7836 152.433 64.4771 152.413C64.1803 152.398 63.9177 152.451 63.6892 152.571C63.4649 152.681 63.2965 152.863 63.1838 153.117C63.0971 153.312 63.063 153.507 63.0813 153.701C63.104 153.887 63.1674 154.072 63.2713 154.259C63.385 154.449 63.549 154.645 63.7634 154.845C63.9778 155.046 64.2306 155.252 64.5219 155.463C65.0103 155.808 65.4277 156.169 65.7742 156.545C66.1251 156.911 66.3952 157.288 66.5846 157.676C66.7784 158.054 66.8818 158.438 66.8947 158.829C66.9119 159.211 66.8339 159.596 66.6605 159.986C66.3614 160.659 65.9427 161.167 65.4044 161.511C64.8801 161.85 64.272 162.023 63.5799 162.031C62.8922 162.028 62.1633 161.856 61.3934 161.514ZM71.596 165.33C70.9271 165.147 70.3705 164.796 69.9262 164.277C69.4818 163.758 69.182 163.134 69.0268 162.406C68.8716 161.679 68.9048 160.908 69.1266 160.095C69.3484 159.282 69.711 158.602 70.2143 158.053C70.7177 157.505 71.3015 157.128 71.9657 156.923C72.6299 156.717 73.3171 156.711 74.0271 156.904C74.4388 157.017 74.7975 157.181 75.1034 157.397C75.4121 157.603 75.6656 157.849 75.864 158.135C76.0623 158.422 76.2059 158.726 76.2947 159.049C76.3938 159.374 76.4308 159.705 76.4055 160.041L76.0182 159.819L76.574 157.782L78.4881 158.304L76.2689 166.439L74.3394 165.912L74.87 163.967L75.3387 164.012C75.1909 164.27 74.9827 164.507 74.7142 164.721C74.4588 164.928 74.1589 165.095 73.8146 165.222C73.4834 165.341 73.1261 165.415 72.7425 165.443C72.3692 165.474 71.9871 165.436 71.596 165.33ZM72.5798 163.79C73.0223 163.911 73.4429 163.91 73.8414 163.786C74.2399 163.663 74.5838 163.436 74.8729 163.106C75.1751 162.768 75.3949 162.347 75.5325 161.843C75.6673 161.349 75.6888 160.885 75.5972 160.451C75.5158 160.019 75.3348 159.649 75.0542 159.341C74.7735 159.032 74.412 158.817 73.9695 158.696C73.527 158.576 73.1065 158.577 72.7079 158.701C72.3197 158.827 71.981 159.055 71.6919 159.385C71.4028 159.716 71.1908 160.128 71.0561 160.622C70.9185 161.126 70.889 161.599 70.9676 162.04C71.0489 162.472 71.2248 162.84 71.4951 163.146C71.7758 163.455 72.1373 163.67 72.5798 163.79ZM80.0303 167.305L81.1393 158.946L83.0585 159.201L82.7367 161.869L82.547 161.231C82.7194 160.823 82.9708 160.469 83.3012 160.169C83.6316 159.868 83.9945 159.648 84.3898 159.506C84.7971 159.356 85.207 159.308 85.6194 159.363C85.7991 159.387 85.9662 159.425 86.1206 159.478C86.2856 159.532 86.4182 159.587 86.5183 159.643L85.7108 161.715C85.6029 161.636 85.4671 161.565 85.3036 161.5C85.14 161.435 84.9736 161.391 84.8044 161.369C84.5401 161.334 84.2793 161.353 84.0221 161.427C83.7768 161.491 83.5524 161.601 83.3488 161.757C83.1452 161.913 82.9743 162.105 82.8363 162.335C82.7103 162.555 82.6277 162.813 82.5884 163.109L81.997 167.566L80.0303 167.305ZM91.1263 168.36C90.4329 168.36 89.8035 168.168 89.238 167.785C88.6725 167.401 88.219 166.878 87.8774 166.217C87.5358 165.556 87.3649 164.804 87.3645 163.961C87.3642 163.119 87.5346 162.367 87.8757 161.705C88.2168 161.044 88.6806 160.526 89.2671 160.153C89.8536 159.779 90.5149 159.592 91.2509 159.592C91.6775 159.592 92.0669 159.656 92.4189 159.783C92.771 159.901 93.0804 160.071 93.3471 160.295C93.6139 160.519 93.8326 160.775 94.0034 161.063C94.1849 161.351 94.3077 161.66 94.3718 161.991L93.9397 161.879L93.9389 159.767L95.9229 159.766L95.9262 168.198L93.9262 168.199L93.9254 166.183L94.3894 166.103C94.3148 166.391 94.1763 166.673 93.9737 166.951C93.7818 167.218 93.5366 167.458 93.238 167.671C92.9501 167.874 92.6248 168.039 92.2622 168.167C91.9102 168.296 91.5316 168.36 91.1263 168.36ZM91.6696 166.616C92.1282 166.616 92.5335 166.503 92.8854 166.279C93.2374 166.055 93.5092 165.746 93.7011 165.351C93.9036 164.945 94.0048 164.481 94.0045 163.959C94.0044 163.447 93.9028 162.993 93.7 162.599C93.5079 162.204 93.2357 161.895 92.8837 161.671C92.5316 161.447 92.1262 161.336 91.6675 161.336C91.2089 161.336 90.8036 161.448 90.4517 161.672C90.1104 161.896 89.8439 162.206 89.652 162.6C89.4602 162.995 89.3644 163.449 89.3645 163.961C89.3648 164.483 89.4609 164.947 89.6531 165.352C89.8452 165.747 90.112 166.056 90.4534 166.28C90.8055 166.504 91.2109 166.616 91.6696 166.616ZM99.7808 168.022L97.9836 156.319L99.913 156.023L100.693 161.1L100.358 161.345C100.405 160.949 100.558 160.575 100.817 160.222C101.074 159.859 101.399 159.55 101.792 159.296C102.184 159.041 102.602 158.88 103.045 158.812C103.677 158.715 104.224 158.76 104.684 158.949C105.156 159.135 105.535 159.466 105.824 159.939C106.123 160.411 106.331 161.027 106.447 161.786L107.229 166.878L105.284 167.177L104.524 162.227C104.459 161.805 104.348 161.466 104.19 161.21C104.03 160.943 103.819 160.765 103.557 160.676C103.294 160.576 102.989 160.558 102.643 160.622C102.358 160.666 102.102 160.754 101.874 160.886C101.655 161.006 101.469 161.164 101.315 161.36C101.171 161.544 101.062 161.75 100.989 161.977C100.927 162.202 100.915 162.441 100.954 162.694L101.726 167.723L100.761 167.872C100.572 167.901 100.392 167.928 100.224 167.954C100.065 167.978 99.9179 168.001 99.7808 168.022ZM119.34 163.237L111.508 154.504L113.487 153.599L118.041 158.782C118.183 158.94 118.33 159.119 118.48 159.32C118.631 159.521 118.777 159.724 118.917 159.929C119.054 160.125 119.179 160.308 119.292 160.479C119.406 160.65 119.506 160.792 119.593 160.905L119.193 161.07C119.101 160.561 119.024 160.15 118.964 159.838C118.903 159.525 118.854 159.266 118.819 159.06C118.788 158.839 118.764 158.633 118.747 158.441L118.453 153.262L120.068 152.523L123.752 156.151C123.973 156.378 124.18 156.6 124.373 156.817C124.562 157.024 124.736 157.238 124.895 157.458C125.06 157.664 125.224 157.882 125.388 158.112L125.072 158.345C125.005 158.094 124.947 157.892 124.9 157.737C124.853 157.583 124.812 157.443 124.778 157.318C124.744 157.193 124.713 157.072 124.683 156.957C124.65 156.831 124.617 156.682 124.584 156.509C124.557 156.322 124.52 156.087 124.473 155.804L123.526 149.005L125.49 148.107L126.964 159.749L125.596 160.375L120.171 155.362L120.372 155.34L120.722 162.605L119.34 163.237ZM135.935 159.111L134.987 154.697L135.762 155.756L126.986 150.617L128.835 149.298L133.921 152.431C134.062 152.5 134.231 152.609 134.428 152.757C134.619 152.896 134.801 153.041 134.975 153.192L134.723 153.529C134.667 153.32 134.608 153.1 134.547 152.868C134.48 152.628 134.406 152.386 134.324 152.143L132.743 146.51L134.605 145.181L136.637 154.09L137.602 157.922L135.935 159.111ZM141.637 150.271L135.569 144.416L136.913 143.023L138.156 144.178L138.026 144.497C137.893 144.235 137.809 143.954 137.773 143.653C137.73 143.344 137.74 143.035 137.802 142.725C137.857 142.407 137.953 142.107 138.091 141.825C138.222 141.536 138.395 141.281 138.61 141.058C138.928 140.728 139.263 140.488 139.615 140.339C139.967 140.174 140.335 140.115 140.721 140.16C141.114 140.199 141.524 140.342 141.951 140.591L141.693 140.765L141.598 140.496C141.495 140.233 141.445 139.955 141.447 139.661C141.442 139.359 141.474 139.057 141.544 138.754C141.607 138.444 141.707 138.155 141.846 137.889C141.992 137.614 142.165 137.374 142.365 137.166C142.809 136.706 143.272 136.411 143.752 136.282C144.233 136.152 144.735 136.193 145.259 136.402C145.783 136.611 146.322 136.983 146.875 137.516L150.536 141.049L149.158 142.477L145.589 139.033C145.282 138.736 144.988 138.534 144.707 138.426C144.433 138.31 144.169 138.292 143.914 138.372C143.659 138.437 143.412 138.592 143.175 138.838C142.99 139.03 142.847 139.247 142.746 139.491C142.644 139.719 142.596 139.954 142.6 140.195C142.596 140.429 142.638 140.654 142.725 140.872C142.812 141.089 142.947 141.286 143.132 141.464L146.758 144.964L145.381 146.391L141.8 142.936C141.508 142.655 141.226 142.464 140.952 142.363C140.671 142.255 140.403 142.233 140.148 142.298C139.885 142.355 139.642 142.499 139.42 142.73C139.235 142.922 139.095 143.135 139.002 143.371C138.9 143.599 138.848 143.83 138.844 144.064C138.841 144.298 138.883 144.523 138.969 144.741C139.056 144.958 139.192 145.155 139.376 145.333L143.014 148.844L141.637 150.271ZM154.861 135.646C154.479 136.225 153.973 136.645 153.341 136.906C152.709 137.166 152.023 137.257 151.283 137.178C150.543 137.099 149.821 136.828 149.118 136.364C148.414 135.9 147.88 135.344 147.516 134.695C147.152 134.046 146.975 133.374 146.986 132.679C146.998 131.983 147.206 131.328 147.611 130.714C147.846 130.358 148.113 130.068 148.414 129.844C148.706 129.615 149.018 129.451 149.352 129.351C149.686 129.252 150.02 129.21 150.354 129.226C150.695 129.233 151.02 129.301 151.332 129.43L151 129.729L149.237 128.567L150.329 126.91L157.369 131.551L156.268 133.221L154.585 132.111L154.774 131.68C154.973 131.9 155.133 132.172 155.253 132.494C155.37 132.801 155.435 133.138 155.449 133.504C155.46 133.856 155.419 134.219 155.326 134.592C155.239 134.957 155.084 135.308 154.861 135.646ZM153.704 134.232C153.957 133.849 154.086 133.449 154.093 133.032C154.1 132.615 153.991 132.218 153.767 131.84C153.54 131.448 153.209 131.108 152.772 130.82C152.345 130.538 151.911 130.374 151.469 130.326C151.034 130.269 150.626 130.325 150.246 130.496C149.865 130.667 149.548 130.943 149.296 131.326C149.043 131.709 148.914 132.109 148.907 132.527C148.906 132.935 149.018 133.328 149.242 133.705C149.465 134.083 149.791 134.412 150.219 134.694C150.655 134.982 151.095 135.157 151.539 135.22C151.974 135.277 152.38 135.224 152.754 135.063C153.135 134.892 153.452 134.615 153.704 134.232ZM159.353 128.24L151.72 124.658L152.536 122.92L154.113 123.625L154.131 124.04C153.829 123.78 153.603 123.445 153.455 123.033C153.296 122.617 153.221 122.175 153.228 121.707C153.236 121.24 153.335 120.803 153.525 120.397C153.797 119.818 154.139 119.39 154.552 119.112C154.97 118.825 155.456 118.693 156.01 118.718C156.568 118.733 157.195 118.903 157.891 119.229L162.555 121.418L161.719 123.199L157.185 121.072C156.799 120.891 156.455 120.794 156.154 120.783C155.844 120.767 155.578 120.842 155.358 121.01C155.128 121.173 154.944 121.417 154.804 121.74C154.681 122 154.612 122.262 154.594 122.525C154.572 122.774 154.599 123.017 154.677 123.253C154.749 123.476 154.859 123.68 155.007 123.868C155.159 124.045 155.351 124.188 155.583 124.297L160.189 126.458L159.775 127.342C159.693 127.516 159.616 127.68 159.544 127.835C159.476 127.979 159.412 128.115 159.353 128.24Z" fill="#FFFEFC"/>
<path d="M82.8026 53.5846C82.3942 53.497 82.1446 53.4963 81.6337 53.5428C81.4271 53.5616 81.2627 53.6331 80.9187 53.7509C79.6164 54.1967 79.0802 54.6716 78.8067 54.8681C78.546 55.0555 78.2182 55.3007 77.9599 55.503C77.7376 55.6771 77.2557 56.0804 76.933 56.3901C76.3845 56.9163 75.9045 57.3025 75.6424 57.5134C75.4169 57.6949 74.926 58.2009 74.474 58.6868C74.1733 59.0101 73.9829 59.2631 73.7649 59.4794C72.8742 60.3633 72.6794 60.6651 72.4569 60.8907C72.1069 61.2455 71.8685 61.548 71.6687 61.7212C71.3955 61.9579 71.233 62.1495 70.1843 63.0503C69.7344 63.4368 69.5605 63.6606 69.2902 63.8741C68.6671 64.366 67.937 64.9022 67.4325 65.2343C66.932 65.5637 66.5451 65.7173 66.2239 65.7763C66.1 65.7941 65.983 65.8154 65.8637 65.8439C65.802 65.862 65.7379 65.8874 65.6719 65.9136" stroke="#FFFEFC" stroke-width="1.5" stroke-linecap="round"/>
<path d="M65.6812 65.9101C64.4798 65.9622 64.0543 65.9563 63.6892 66.0132C63.3183 66.071 63.0833 66.091 62.5927 66.1111C62.2982 66.1231 61.9893 66.1006 61.7342 66.089C61.4518 66.0761 61.2021 66.1002 60.9919 66.0898C60.7597 66.0782 60.5 66.1538 60.231 66.2164C59.9504 66.2817 59.6634 66.1857 59.4489 66.1646C59.3227 66.1521 59.0615 66.0509 58.7658 65.8877C58.6527 65.8252 58.6599 65.7357 58.6707 65.6685C58.7103 65.4228 58.9279 64.9076 59.1631 64.4872C59.313 64.2191 59.5499 64.0471 59.8792 63.698C60.1867 63.372 60.5138 63.1402 61.117 62.5285C61.9815 61.6518 62.3719 61.4058 62.7125 61.1149C62.8527 60.9952 63.2773 60.6738 63.813 60.1996C64.424 59.6588 65.0611 58.8681 65.2537 58.6293C65.646 58.1428 65.834 57.825 66.287 57.2722C66.7575 56.6981 67.2805 56.2162 67.4632 56.0622C67.6291 55.9224 67.8483 55.7291 68.0531 55.5664C68.2513 55.4088 68.4668 55.2092 68.6892 54.9839C68.9592 54.7104 69.2424 54.3658 69.3788 54.1552C69.5183 53.9398 69.7281 53.6989 69.7774 53.5237C69.847 53.2759 69.1139 53.0209 68.6852 52.9511C68.1935 52.871 67.7102 52.7893 67.4413 52.7264C67.1099 52.6489 66.6546 52.5463 66.1754 52.5538C65.8888 52.5584 65.6375 52.661 65.3353 52.718C65.0817 52.7659 64.8393 52.8522 64.5673 52.9845C64.3006 53.1142 64.1206 53.274 63.9021 53.3855C63.6839 53.4968 63.4215 53.5263 63.1852 53.5761C62.9288 53.6302 62.7035 53.6985 62.4866 53.7034C62.248 53.7087 61.9691 53.7027 61.74 53.6935C61.6369 53.6845 61.533 53.6755 61.4331 53.6591C61.3843 53.6472 61.3396 53.6278 61.274 53.6531" stroke="#FFFEFC" stroke-width="1.5" stroke-linecap="round"/>
<path d="M61.2724 53.6536C61.168 53.6084 61.0636 53.5633 60.5103 53.3241C59.9571 53.0848 58.9581 52.6528 58.4243 52.4131C57.8457 52.1533 57.3953 51.9234 56.7286 51.6262C56.266 51.4201 56.0839 51.2673 55.9054 51.163C55.6828 51.033 55.4606 50.8905 55.2454 50.7258C55.1382 50.6438 55.0516 50.5527 54.9981 50.4494C54.9447 50.3461 54.9596 50.2271 54.9857 50.1048C55.0215 49.937 55.1201 49.8138 55.1966 49.7398C55.3772 49.5653 55.6804 49.591 56.5706 49.5491C57.5536 49.5027 58.3473 49.4577 58.7033 49.4598C58.9811 49.4615 59.2974 49.4931 59.8367 49.5214C60.6686 49.5652 61.3587 49.6872 61.7254 49.6852C62.2349 49.6823 62.5695 49.6568 62.9683 49.6238C63.9487 49.5428 64.2848 49.2894 64.7229 49.1847C65.0696 49.1019 65.5602 49.1083 66.0991 49.0383C66.6355 48.9687 67.3938 48.9546 68.0871 49.0042C68.6393 49.0437 69.021 49.0849 69.3302 49.0937C69.892 49.1095 70.7975 49.1044 71.2115 49.0847C71.5788 49.0673 71.9182 49.1224 72.3429 49.1541C72.8251 49.19 73.1962 49.2278 73.4024 49.2899C73.599 49.3491 73.7995 49.3632 74.0265 49.4168C74.1051 49.4417 74.2094 49.4868 74.2888 49.5123C74.3682 49.5378 74.4193 49.5422 74.4721 49.5468" stroke="#FFFEFC" stroke-width="1.5" stroke-linecap="round"/>
<path d="M74.4727 49.5391C74.7498 49.6412 74.9689 49.6292 75.1858 49.6243C75.4607 49.6182 75.8133 49.6189 76.0455 49.6207C76.2698 49.6224 76.4752 49.6188 76.7359 49.6154C76.9754 49.6123 77.225 49.6212 77.477 49.5964C77.8973 49.555 78.652 49.4542 79.633 49.2785C80.0006 49.2127 80.408 49.1216 80.712 49.02C81.1357 48.8785 81.7877 48.6992 82.16 48.6271C82.4955 48.5622 83.0437 48.4389 83.5297 48.3525C83.9835 48.2718 84.8166 48.2584 85.6197 48.2107C86.0273 48.1865 86.3569 48.0996 86.6284 48.092C86.9222 48.0838 87.1715 48.0764 87.4209 48.1395C87.9101 48.2632 88.1575 48.2346 88.3873 48.2624C88.6483 48.294 88.9134 48.347 89.2182 48.4072C89.4766 48.4583 89.6846 48.466 89.8755 48.5214C90.0877 48.583 90.3476 48.6271 90.5633 48.6671C90.7632 48.7041 90.9571 48.7481 91.2392 48.7984C91.4866 48.8426 91.7387 48.9251 91.9745 49C92.2236 49.0453 92.3787 49.0587 92.485 49.0602C92.5402 49.0572 92.5978 49.0467 92.7671 49.0298" stroke="#FFFEFC" stroke-width="1.5" stroke-linecap="round"/>
<path d="M92.7463 49.0871C92.7762 49.1 93.0301 49.2098 93.6495 49.4245C95.099 49.9271 95.3905 49.8733 95.6116 49.9418C95.884 50.0262 96.1139 50.0606 96.4309 50.1532C97.1729 50.3698 97.6414 50.6139 98.0071 50.7275C98.2904 50.8155 98.5247 50.8532 98.7233 50.8498C98.7699 50.849 98.8011 50.7946 98.7996 50.7578C98.7809 50.2973 97.5369 50.2104 96.9714 50.0914C96.6391 50.0214 96.4249 49.9269 96.0705 49.8182C95.6424 49.6868 95.3439 49.5308 94.7743 49.3113C94.2506 49.1095 93.2718 48.6707 92.7382 48.4311C92.0389 48.1171 91.7951 47.9431 90.9403 47.2793C90.5243 46.9562 90.2581 46.7421 89.9688 46.5009C89.851 46.4027 89.7565 46.3284 89.6932 46.2476C89.6578 46.1436 89.6514 46.033 89.671 45.9256C89.6862 45.8694 89.712 45.8098 89.7386 45.7484" stroke="#FFFEFC" stroke-width="1.5" stroke-linecap="round"/>
<path d="M89.7148 45.7915C89.8372 45.7554 90.0525 45.6704 90.2899 45.576C90.4948 45.4945 90.7294 45.5512 90.9397 45.5617C91.1862 45.574 91.47 45.657 91.6998 45.6848C91.9764 45.7182 92.2711 45.7888 92.5009 45.8166C92.7463 45.8463 92.9391 45.8986 93.1586 45.949C93.4719 46.0209 94.0138 46.256 94.481 46.4047C94.7285 46.4835 94.9278 46.5087 95.2067 46.5665C95.4826 46.6237 95.8064 46.7094 96.0933 46.789C96.5692 46.9209 97.107 47.1646 97.6004 47.3334C98.357 47.6338 98.5633 47.6517 98.8417 47.7093C98.9649 47.7535 99.1588 47.8373 99.3585 47.9237" stroke="#FFFEFC" stroke-width="1.5" stroke-linecap="round"/>
<path d="M99.3989 47.8257C99.8038 48.0008 100.244 48.2264 100.422 48.3307C100.631 48.4526 100.822 48.5837 101.074 48.7645C101.299 48.925 101.561 49.0643 101.809 49.2786C101.984 49.4308 102.455 49.8423 102.742 50.1382C102.934 50.3355 103.138 50.5862 103.316 50.8152C103.531 51.0912 103.885 51.4981 104.39 52.0922C104.605 52.3457 104.812 52.6677 105.048 52.9497C105.228 53.1637 105.743 53.6069 106.175 53.9199C106.401 54.0836 106.656 54.2353 106.982 54.4298C107.27 54.6016 107.472 54.7848 107.734 54.925C107.83 54.9929 107.907 55.0625 107.988 55.1241C108.03 55.1514 108.075 55.1707 108.121 55.1907" stroke="#FFFEFC" stroke-width="1.5" stroke-linecap="round"/>
<path d="M108.072 55.0696C108.281 55.1599 108.672 55.3289 109.252 55.6153C110.368 56.1658 110.632 56.5877 110.816 56.7832C111.027 57.0084 111.347 57.2893 111.542 57.4817C111.732 57.6695 111.915 57.8394 112.68 58.6867C113.194 59.2565 113.436 59.5687 113.713 59.8593C114.204 60.3727 114.51 60.8015 114.795 61.1405C115.363 61.8158 115.765 62.4542 115.997 62.7239C116.09 62.8329 116.262 63.0795 116.524 63.4245C116.724 63.6895 117.089 64.222 117.571 64.8418C117.916 65.2848 118.192 65.6488 118.47 66.0987C118.78 66.6007 119.149 67.1514 119.452 67.6322C119.624 67.9046 119.795 68.1827 119.94 68.4691C120.117 68.8192 120.324 69.1089 120.49 69.3868C120.675 69.6952 120.877 70.0634 120.97 70.2827C121.063 70.4989 121.246 70.7409 121.386 71.0164C121.51 71.2604 121.635 71.5347 121.739 71.8127C121.842 72.0897 122.039 72.4603 122.215 72.716C122.262 72.7725 122.309 72.8281 122.352 72.8739C122.396 72.9197 122.434 72.9539 122.454 73.0344" stroke="#FFFEFC" stroke-width="1.5" stroke-linecap="round"/>
<path d="M122.196 72.6447C122.491 73.201 122.623 73.4721 122.799 73.7273C122.984 73.996 123.086 74.2622 123.278 74.871C123.547 75.7259 123.645 75.9875 123.724 76.4058C123.794 76.7801 123.831 77.0871 123.935 77.5075C124.023 77.8619 124.098 78.5752 124.183 79.1874C124.278 79.8697 124.42 80.1488 124.508 80.5442C124.579 80.8607 124.62 81.0933 124.597 81.4765C124.577 81.8282 124.631 82.2247 124.635 82.4854C124.638 82.7099 124.636 82.9591 124.608 83.189C124.578 83.4343 124.556 83.64 124.538 83.8471C124.52 84.0541 124.502 84.2604 124.491 84.5944C124.463 85.4435 124.469 85.7822 124.424 86.2997C124.385 86.7524 124.29 87.1892 124.267 87.4304C124.246 87.6442 124.174 87.8726 124.125 88.3776C124.071 88.9271 123.957 89.5286 123.894 89.9238C123.83 90.3265 123.751 90.5861 123.693 90.8649C123.639 91.1251 123.561 91.5218 123.479 91.7736C123.387 92.0575 123.3 92.3742 123.199 92.7513C123.066 93.2523 122.943 93.4899 122.798 93.9267C122.53 94.7389 122.279 95.273 122.1 95.789C121.96 96.1939 121.841 96.5339 121.735 96.8826C121.61 97.292 121.475 97.6275 121.369 97.9758C121.267 98.2335 121.189 98.4533 121.005 98.9411C120.832 99.3628 120.497 100.138 120.151 100.937" stroke="#FFFEFC" stroke-width="1.5" stroke-linecap="round"/>
<path d="M116.594 106.167C117.406 106.518 117.84 106.671 118.11 106.751C118.364 106.827 118.641 106.802 118.948 106.819C119.372 106.842 119.842 106.839 120.509 106.78C120.976 106.739 121.326 106.713 121.623 106.689C122.159 106.645 122.827 106.417 123.448 106.272C123.756 106.199 124.443 105.99 125.234 105.689C125.575 105.559 125.79 105.444 126.109 105.305C126.387 105.184 126.897 104.905 127.528 104.624C128.328 104.268 129.392 103.854 129.733 103.707C130.139 103.531 130.971 103.254 131.659 102.993C131.996 102.866 132.449 102.693 132.973 102.516C133.684 102.277 133.892 102.171 134.495 102.013C135.255 101.813 135.627 101.546 135.979 101.437C136.341 101.326 136.697 101.222 137.458 101.032C138.19 100.829 138.605 100.741 138.795 100.671C138.879 100.644 138.937 100.634 138.996 100.623" stroke="#FFFEFC" stroke-width="1.5" stroke-linecap="round"/>
<path d="M138.992 100.623C139.19 100.495 139.389 100.366 139.639 100.242C140.099 100.014 140.724 99.3026 140.99 98.9584C141.167 98.73 141.248 98.5071 141.413 98.2298C141.566 97.9704 141.617 97.7362 141.622 97.6224C141.639 97.212 141.32 96.7317 141.149 96.5059C140.924 96.2082 140.708 95.9128 140.454 95.6334C140.107 95.2518 139.545 94.927 139.275 94.7832C139.09 94.6846 138.876 94.5303 138.651 94.4062C138.256 94.1873 137.696 93.9128 137.343 93.7331C137.152 93.6361 136.714 93.4163 136.175 93.1745C135.932 93.0653 135.156 92.689 134.007 92.1834C133.407 91.8791 133.127 91.7401 133.039 91.6753C132.989 91.6448 132.93 91.619 132.868 91.5924" stroke="#FFFEFC" stroke-width="1.5" stroke-linecap="round"/>
<path d="M132.875 91.5908C131.606 91.2206 131.224 91.1975 130.923 91.2289C130.558 91.2669 130.225 91.3553 129.911 91.4611C129.389 91.6374 128.623 91.9651 128.219 92.1687C127.918 92.3203 127.706 92.4654 127.534 92.6146C127.323 92.7984 127.068 92.9926 126.84 93.2701C126.647 93.5045 126.231 94.4286 126.005 95.0548C125.91 95.3183 125.86 95.6174 125.759 95.9135C125.547 96.5332 125.128 97.3928 124.873 97.6749C124.318 98.2879 123.901 98.4162 123.656 98.6069C123.402 98.8047 122.919 98.9924 122.571 99.1743C122.117 99.4112 121.488 99.6972 121.207 99.8455C121.006 99.9523 120.856 100.122 120.694 100.267C120.527 100.417 120.38 100.56 120.211 100.702C120.058 100.831 119.965 101.024 119.864 101.195C119.743 101.399 119.547 101.7 119.27 102.135C119.02 102.526 118.604 103.097 118.216 103.663C117.967 104.026 117.834 104.214 117.537 104.612C117.305 104.924 117.12 105.121 116.95 105.37C116.764 105.642 116.676 105.859 116.547 106.054C116.384 106.301 115.976 107.228 115.685 107.799C115.502 108.158 115.252 108.654 115.06 108.995C114.943 109.204 114.654 109.789 114.346 110.4C114.219 110.673 113.999 111.18 113.793 111.657" stroke="#FFFEFC" stroke-width="1.5" stroke-linecap="round"/>
<path d="M93.9808 92.7397C93.5651 93.1887 92.5718 94.1041 92.143 94.4048C91.7383 94.6886 91.3147 94.9412 90.8127 95.1537C90.3538 95.3481 89.8262 95.4544 89.3078 95.529C88.8363 95.5968 88.4046 95.549 87.9504 95.5204C86.5286 95.4309 84.525 94.1712 83.8551 93.825C83.6069 93.6967 82.2966 93.0576 80.356 92.2C79.2431 91.7081 78.7195 91.2131 78.0083 90.8306C77.159 90.3738 76.5614 89.9062 76.1141 89.6015C76.017 89.522 75.9372 89.4505 75.8561 89.378C75.775 89.3054 75.6951 89.234 75.5186 89.1196" stroke="#FFFEFC" stroke-width="1.5" stroke-linecap="round"/>
<path d="M75.5188 89.1187C74.5149 88.6846 74.0394 88.4052 73.7163 88.1161C73.3933 87.827 73.0983 87.4768 73.0152 86.9754C72.906 86.3158 73.5676 86.0395 74.0066 85.6699C74.5231 85.235 75.1165 84.9571 75.785 84.5743C76.302 84.2782 76.8892 84.0454 77.4044 83.7636C78.0259 83.4235 78.6154 83.0755 79.4375 82.5936C80.6303 81.8943 81.4406 81.7999 82.0451 81.6116C82.7715 81.3852 83.3088 81.4487 83.7786 81.484C84.4643 81.5355 85.0208 81.6295 86.4158 82.2317C87.061 82.5102 87.3093 83.0645 87.6118 83.4012C87.9484 83.7758 88.1143 84.3077 88.3918 84.7449C88.7207 85.263 88.9729 85.6859 89.3198 86.1347C89.6487 86.5602 90.0286 87.0376 90.3693 87.5021C90.8361 88.1386 91.2289 88.4897 91.5114 88.8726C91.8329 89.3082 92.1282 89.7737 92.4263 90.1633C92.7618 90.6018 93.0821 90.9314 93.3508 91.3463C93.6195 91.7612 93.8871 92.1746 94.0215 92.6427C94.0436 92.7648 94.0655 92.885 94.0721 93.0003C94.0788 93.1156 94.0695 93.2224 94.0727 93.5617" stroke="#FFFEFC" stroke-width="1.5" stroke-linecap="round"/>
<path d="M113.813 111.655C113.748 111.806 113.37 112.628 112.826 113.781C112.509 114.455 112.256 114.84 112.107 115.104C111.978 115.335 111.804 115.571 111.619 115.92C111.441 116.256 111.268 116.445 111.009 116.784C110.779 117.085 110.579 117.411 110.389 117.668C110.091 118.072 109.828 118.261 109.585 118.483C109.261 118.78 108.767 119.201 108.535 119.451C108.335 119.665 108.117 119.868 107.862 120.12C107.63 120.348 107.408 120.622 107.183 120.854C106.869 121.178 106.523 121.573 106.133 121.9C105.669 122.289 105.455 122.578 104.672 123.219C104.143 123.652 103.625 124.045 103.218 124.308C102.905 124.511 102.635 124.768 102.251 125.109C101.948 125.377 101.64 125.557 101.318 125.7C100.989 125.846 100.767 126.059 100.531 126.24C100.236 126.466 99.9271 126.645 99.6513 126.864C99.3752 127.084 99.1252 127.246 98.8376 127.415C98.4261 127.658 98.1144 127.757 97.8438 127.911C97.7187 127.992 97.5927 128.074 97.4622 128.142C97.3938 128.169 97.3211 128.182 97.2461 128.196" stroke="#FFFEFC" stroke-width="1.5" stroke-linecap="round"/>
<path d="M97.2462 128.198C96.8007 128.453 95.8007 128.881 95.4179 129.009C95.1144 129.11 94.8121 129.131 94.5218 129.175C94.2511 129.216 93.9547 129.234 93.6849 129.231C93.4153 129.228 93.0843 129.264 92.7383 129.228C92.4177 129.195 92.1753 129.12 91.8604 129.04C91.2661 128.89 91.0042 128.749 90.7808 128.585C90.5634 128.426 90.415 128.179 90.2387 127.934C90.005 127.609 89.8546 127.282 89.6452 126.775C89.512 126.452 89.5285 126.104 89.3459 125.562C89.2237 125.199 89.1652 124.908 89.1145 124.581C89.0397 124.099 88.968 123.694 88.8702 123.189C88.7952 122.802 88.6867 122.309 88.6779 121.988C88.6691 121.666 88.5433 121.231 88.5291 120.896C88.5111 120.468 88.4219 120.048 88.3724 119.745C88.3172 119.405 88.3238 119.126 88.3575 118.813C88.3367 118.521 88.3619 118.306 88.3895 118.138C88.4035 118.053 88.4172 117.97 88.4237 117.745" stroke="#FFFEFC" stroke-width="1.5" stroke-linecap="round"/>
<path d="M88.42 117.749C88.502 117.56 88.6119 117.203 88.6174 116.876C88.6187 116.801 88.6594 116.726 88.6917 116.057C88.724 115.388 88.7551 114.127 88.782 113.427C88.8297 112.186 88.8771 111.111 88.9392 110.728C88.9849 110.447 88.9943 110.053 89.0636 109.71C89.1274 109.393 89.2673 108.952 89.354 108.672C89.4354 108.41 89.507 108.085 89.6754 107.616C89.8447 107.145 90.0176 106.59 90.1168 106.282C90.2165 105.972 90.3392 105.533 90.4171 105.17C90.5064 104.753 90.6341 104.485 90.6937 104.217C90.7795 103.832 90.9636 103.41 91.0934 102.98C91.2285 102.532 91.4411 101.992 91.6043 101.485C91.773 100.961 92.3268 99.6309 92.6746 98.6967C92.7803 98.4129 92.8424 98.1254 92.9143 97.8291C93.0006 97.4736 93.1316 96.9867 93.1915 96.7183C93.2461 96.4734 93.3709 96.1203 93.4421 95.7996C93.5176 95.4603 93.5767 95.1243 93.6098 94.8111C93.6373 94.5512 93.7445 94.3164 93.8041 94.0485C93.9156 93.7124 93.9382 93.4519 94.0082 93.2109C94.0236 93.1495 94.0292 93.0849 94.035 93.0183" stroke="#FFFEFC" stroke-width="1.5" stroke-linecap="round"/>
<path d="M93.951 93.8068C94.1207 93.4144 94.6444 92.2033 95.3377 90.6385C95.5857 90.0787 95.6591 90.0108 96.2134 88.7685C96.7677 87.5263 97.81 85.1159 98.3792 83.8382C98.9483 82.5605 99.0127 82.4885 99.2944 81.8769C100.677 78.8733 100.651 78.3922 100.703 77.9601C100.766 77.4402 100.923 76.8303 101.032 76.3049C101.067 76.1849 101.116 76.0728 101.145 75.9669C101.174 75.861 101.182 75.7648 101.228 75.5808" stroke="#FFFEFC" stroke-width="1.5" stroke-linecap="round"/>
<path d="M101.112 75.7152C101.178 75.5617 101.345 75.1759 101.608 74.4643C102.141 73.0177 102.071 72.5638 102.098 72.1605C102.124 71.7788 102.118 71.2244 102.121 70.8089C102.123 70.5705 102.119 70.2843 102.092 70.0051C102.066 69.734 102.064 69.4329 101.987 68.9944C101.921 68.6198 101.802 68.2523 101.76 67.9854C101.72 67.7264 101.725 67.4099 101.603 66.9893C101.43 66.3893 101.406 66.0215 101.351 65.7205C101.303 65.4578 101.194 65.1925 101.089 64.8814C100.87 64.2292 100.765 64.0139 100.492 63.3728C100.309 63.0253 100.221 62.8041 100.122 62.5861C100.1 62.5304 100.089 62.4711 100.025 62.2768" stroke="#FFFEFC" stroke-width="1.5" stroke-linecap="round"/>
<path d="M100.158 62.3397C99.5453 62.0566 99.3073 61.8438 99.0802 61.6441C98.8726 61.4615 98.6708 61.2739 98.3644 61.0037C98.0602 60.7355 97.8792 60.5089 97.6482 60.2983C97.244 59.93 96.6979 59.5014 96.3923 59.2677C96.0587 59.0127 95.6886 58.7702 95.3739 58.5605C95.0452 58.3414 94.5339 58.0866 93.9909 57.806C93.4256 57.5139 92.9717 57.3923 92.8522 57.414C92.7327 57.4357 92.621 57.4796 92.5268 57.5489C92.4385 57.6138 92.385 57.7269 92.3612 57.8451C92.3128 58.0852 92.6099 58.3936 92.9352 58.8925C93.801 60.2199 94.2216 60.4525 94.3896 60.6816C94.6908 61.0923 95.0856 61.4332 95.3338 61.6879C95.618 61.9794 95.947 62.3763 96.5854 63.1471C97.0718 63.7343 97.3273 64.2402 97.7969 64.9225C98.0066 65.2274 98.1452 65.4603 98.3705 65.9799C98.5163 66.316 98.7871 66.8217 98.9699 67.2329C99.157 67.6541 99.2754 68.3749 99.4951 69.2061C99.6083 69.6342 99.6123 69.9388 99.6756 70.4069C99.7519 70.9709 99.953 71.3179 100.064 71.6154C100.155 71.8577 100.336 72.0916 100.673 72.2476C100.97 72.3851 101.048 71.5552 101.09 71.0965C101.153 70.4209 101.021 69.8352 100.911 69.1517C100.833 68.6667 100.732 68.1647 100.66 67.5626C100.56 66.7238 100.431 66.4322 100.366 66.0917C100.315 65.8195 100.298 65.5471 100.289 65.3129C100.277 65.0154 100.201 64.7512 100.121 64.4678C100.041 64.181 100.051 63.9501 100.007 63.7102C99.9637 63.4703 99.9202 63.2313 99.9229 63.0115C99.9254 62.7977 99.9597 62.5862 99.9705 62.3699C99.9829 62.1218 99.8009 61.8917 99.7139 61.6245C99.5677 61.1754 99.4474 60.8383 99.3295 60.5566C99.2334 60.3272 99.0683 60.1402 98.9525 59.8969C98.8456 59.6724 98.6781 59.5112 98.5355 59.33C98.3974 59.1547 98.2409 58.991 98.0519 58.7898C97.8705 58.5967 97.6905 58.4771 97.4652 58.2969C97.1558 58.0494 96.9567 57.9203 96.7361 57.77C96.6489 57.6955 96.5469 57.6327 96.4342 57.5748C96.3829 57.5435 96.3435 57.5083 96.2766 57.4054" stroke="#FFFEFC" stroke-width="1.5" stroke-linecap="round"/>
<path d="M96.4576 57.5179C96.2652 57.4347 96.0729 57.3516 95.8485 57.2545C95.3735 57.0491 95.0945 56.9215 95.0251 56.8811C94.8113 56.7563 94.7298 56.715 94.6453 56.6679C94.5599 56.6065 94.4711 56.554 94.2579 56.4445C94.0986 56.372 93.7956 56.241 93.4833 56.1059" stroke="#FFFEFC" stroke-width="1.5" stroke-linecap="round"/>
<path d="M93.5096 56.1143C93.2364 55.9962 92.9633 55.878 92.0394 55.4785C91.1156 55.0791 89.5495 54.4018 88.7114 54.0502C87.6146 53.59 87.1799 53.4859 86.6629 53.2954C86.5381 53.2522 86.4574 53.2389 85.7784 52.9565C85.0994 52.674 83.8246 52.1227 82.5664 51.5786" stroke="#FFFEFC" stroke-width="1.5" stroke-linecap="round"/>
<path d="M82.5661 51.5787C81.4847 51.1543 81.0324 51.0898 80.7319 51.1016C80.4023 51.1146 79.9729 51.0679 79.4893 51.0228C79.1507 50.9913 78.8459 50.9958 78.5086 50.9918C78.2162 50.9883 77.8749 50.969 77.5522 50.9821C77.1295 50.9992 76.8456 51.0256 76.4952 51.1034C76.1021 51.1907 75.5846 51.2664 75.1368 51.3672C74.6921 51.4674 74.1892 51.6666 73.3768 51.9805C72.9582 52.1422 72.599 52.3113 72.3194 52.4527C72.0632 52.5823 71.8837 52.8535 71.5154 53.7289C71.4469 53.8916 71.5361 53.9059 71.6035 53.9023C72.0923 53.8761 72.745 53.5339 73.3199 53.3141C73.7387 53.154 74.3416 52.9168 75.072 52.6198C75.6187 52.3976 76.0445 52.1662 76.4538 51.9505C76.9123 51.7089 77.6035 51.5329 78.0577 51.3985C78.3616 51.3085 78.8459 51.2382 79.4198 51.0495C79.7825 50.9302 80.2918 50.9241 80.7378 50.8546C81.2345 50.7773 81.6485 50.768 81.9832 50.727C82.4245 50.673 82.7098 50.6374 82.9747 50.6314C83.2485 50.6252 83.5152 50.5926 83.7762 50.5958C84.03 50.5988 84.281 50.6395 84.6635 50.6631C85.0356 50.686 85.3926 50.7926 85.7408 50.8993C86.0864 51.0052 86.6616 51.0361 87.5052 51.1825C88.0288 51.2733 88.536 51.3004 89.2565 51.3725C90.5014 51.4972 91.3602 51.7801 91.9527 51.9587C92.1559 52.02 92.8057 52.2729 93.6738 52.6375C94.0673 52.8027 94.633 52.9976 95.3817 53.3105C96.1699 53.64 97.1642 54.0699 97.5556 54.3266C97.9639 54.5944 98.338 54.8395 98.6761 55.0188C98.7464 55.06 98.7932 55.1018 98.8146 55.1546C98.836 55.2074 98.8305 55.27 98.825 55.3344" stroke="#FFFEFC" stroke-width="1.5" stroke-linecap="round"/>
<path d="M103.737 103.233C102.875 103.718 102.352 103.973 101.197 104.144C100.487 104.249 100.029 104.174 99.6311 104.14C99.2031 104.103 98.6915 104.008 98.1664 103.988C97.7601 103.972 97.3686 103.884 96.8529 103.883C96.2911 103.883 95.8763 103.994 95.3965 104.148C94.9588 104.288 94.5192 104.507 94.1479 104.846C93.976 105.002 93.7194 105.398 93.5182 105.981C93.4001 106.324 93.614 106.594 93.7248 106.813C93.9286 107.217 95.1844 107.79 96.0187 108.031C96.6228 108.205 97.1775 107.896 97.8383 107.719C98.9076 107.431 99.3113 107.1 99.7886 106.91C100.378 106.675 101.107 106.603 101.585 106.534C102.089 106.462 102.712 106.471 103.167 106.495C103.733 106.525 104.353 106.733 105.053 106.984C106.371 107.455 108.435 108.428 108.986 108.907C109.447 109.307 109.923 109.759 110.4 110.052C110.657 110.211 111.02 110.407 111.415 110.526C111.855 110.66 112.129 109.995 112.324 109.545C112.529 109.075 111.922 108.493 111.603 107.994C111.092 107.194 110.027 106.194 109.658 105.811C109.339 105.479 109.005 105.133 108.671 104.714C108.238 104.172 108.165 103.498 107.925 102.502C107.718 101.642 108.183 100.588 108.743 99.8451C109.227 99.2042 110.008 99.0676 110.536 98.7621C110.955 98.5192 111.573 97.9918 112.529 97.3256C114.638 95.8576 115.295 94.9557 115.544 94.581C115.845 94.1286 116.038 93.797 116.952 91.7235C117.346 90.8315 117.097 89.9208 117.004 89.0222C116.917 88.1727 116.562 87.4194 116.216 86.5148C115.495 84.6305 114.837 84.0933 114.484 83.596C114.059 82.998 113.77 82.1892 113.61 81.5167C113.594 80.5974 113.811 79.9367 114.089 79.0944C114.2 78.7985 114.373 78.3968 114.639 78.0206" stroke="#FFFEFC" stroke-width="1.5" stroke-linecap="round"/>
<path d="M114.645 78.0087C114.72 77.8365 115.366 76.3421 116.296 74.1136C116.835 72.8202 116.7 72.2266 116.677 71.6825C116.658 71.251 116.536 70.7789 116.361 70.1874C116.168 69.5334 115.82 69.0928 115.523 68.5862C115.221 68.0713 114.625 67.6472 114.133 67.3472C113.478 66.9484 112.92 66.4972 112.25 66.0175C111.467 65.457 111.157 65.0806 110.857 64.7791C110.464 64.3843 110.315 63.9259 110 63.3433C109.505 62.429 109.433 61.8256 109.187 61.3228C108.833 60.6007 108.376 59.579 108.122 59.2107C107.846 58.8097 107.345 58.3076 106.995 57.8807C106.58 57.374 106.195 57.2243 105.885 56.9872C105.574 56.75 105.252 56.5419 104.851 56.3162C104.474 56.0332 104.065 55.7869 103.811 55.66C103.7 55.5951 103.626 55.5292 103.376 55.3861" stroke="#FFFEFC" stroke-width="1.5" stroke-linecap="round"/>
<path d="M103.773 103.179C103.921 102.916 104.137 102.734 104.336 102.595C104.516 102.468 104.688 102.299 104.859 102.123C105.086 101.89 105.251 101.715 105.413 101.56C105.579 101.402 105.747 101.206 105.867 100.99C105.966 100.81 106.125 100.611 106.318 100.264C106.563 99.8248 106.693 99.4584 106.954 98.9132C107.188 98.425 107.581 97.4846 107.812 96.9702C108.134 96.2518 108.341 95.9656 108.649 95.3517C109.223 94.2097 109.514 93.3329 109.543 93.2075C109.599 92.9591 109.689 92.6509 109.795 92.3254C109.903 91.9926 109.916 91.7655 109.994 91.446C110.067 91.1445 110.125 90.9245 110.194 90.7043C110.259 90.4967 110.301 90.2767 110.367 89.9862C110.441 89.6527 110.522 89.4069 110.578 89.1378C110.649 88.7957 110.746 88.4524 110.83 88.0571C110.873 87.799 110.915 87.5417 110.896 87.3264C110.893 87.273 110.897 87.2237 110.877 87.1104" stroke="#FFFEFC" stroke-width="1.5" stroke-linecap="round"/>
<path d="M110.829 87.2401C110.893 87.0618 110.947 86.6999 110.96 86.4131C110.964 86.3306 111.023 85.6901 111.105 84.7381C111.169 84.0046 111.134 83.4592 111.148 83.2461C111.171 82.9091 111.238 82.4734 111.27 82.0086C111.284 81.8116 111.335 81.4733 111.37 80.9905C111.404 80.5078 111.428 79.8914 111.444 79.55C111.471 78.9848 111.512 78.6117 111.583 77.9401C111.604 77.7426 111.623 77.3703 111.678 76.8263C111.733 76.2748 111.763 76.0591 111.793 75.7817C111.817 75.5589 111.846 75.2698 111.873 74.9832C111.894 74.7637 111.9 74.6073 111.901 74.3368C111.902 74.0332 111.851 73.8243 111.858 73.6589C111.865 73.4893 111.808 73.2376 111.767 72.5436C111.799 71.7348 111.763 71.4611 111.693 71.2627C111.675 71.2157 111.657 71.1694 111.605 71.1076" stroke="#FFFEFC" stroke-width="1.5" stroke-linecap="round"/>
<path d="M111.695 71.344C111.462 70.5983 111.376 70.3801 111.24 70.0379C111.13 69.7616 111.079 69.4261 111.001 69.1718C110.923 68.9181 110.855 68.6577 110.792 68.4292C110.735 68.2214 110.66 67.9147 110.556 67.7068C110.47 67.5378 110.391 67.3711 110.285 67.0931C110.176 66.8065 110.067 66.5978 109.968 66.4069C109.825 66.1287 109.702 65.9493 109.563 65.702C109.383 65.3808 109.198 65.0211 109.09 64.7938C108.944 64.4875 108.799 64.2417 108.658 63.9868C108.538 63.7701 108.441 63.5186 108.318 63.3097C108.226 63.1543 108.098 62.9954 108.005 62.8517C107.916 62.7132 107.762 62.5789 107.591 62.4075C107.526 62.3473 107.47 62.2971 107.411 62.2395C107.38 62.2066 107.346 62.1665 107.274 62.0315" stroke="#FFFEFC" stroke-width="1.5" stroke-linecap="round"/>
<path d="M107.256 61.9863C107.053 61.8345 106.614 61.4128 106.426 61.1757C106.3 61.0177 106.132 60.8547 105.993 60.711C105.884 60.5972 105.724 60.4845 105.522 60.339C105.308 60.185 105.115 60.0407 104.893 59.88C104.749 59.7751 104.578 59.6402 104.406 59.5141C104.215 59.3744 104.014 59.2414 103.774 59.0794C103.622 58.9767 103.497 58.8241 103.279 58.6397C103.062 58.4551 102.753 58.2187 102.518 58.0392C102.297 57.8695 102.038 57.6894 101.854 57.5583C101.697 57.4461 101.486 57.2316 101.292 57.0825C101.163 56.9842 101.057 56.8779 100.948 56.7724C100.824 56.6528 100.67 56.491 100.496 56.3832C100.341 56.2867 100.216 56.1654 100.054 56.0758C99.9095 55.9957 99.7688 55.8557 99.607 55.7662C99.4871 55.6692 99.2586 55.5444 99.0733 55.4321C99.0321 55.4077 98.9783 55.3844 98.9043 55.3137" stroke="#FFFEFC" stroke-width="1.5" stroke-linecap="round"/>
</svg>
