<svg width="185" height="185" viewBox="0 0 185 185" fill="none" xmlns="http://www.w3.org/2000/svg">
<title>Stephan Macaluso</title> 
<circle cx="92.7869" cy="92.4978" r="91.2127" fill="currentColor" stroke="#FFFEFC" stroke-width="2"/>
<path d="M88.0312 99.4425C88.0312 99.0695 88.0312 98.6965 88.0652 97.3684C88.0991 96.0404 88.1669 93.7685 88.2188 92.4965C88.279 91.0197 88.4073 90.3706 88.5609 89.4484C88.9061 87.3763 89.3321 85.8156 89.4862 85.0429C89.6916 84.0131 90.3226 82.4618 90.787 81.6685C91.078 81.1717 91.3172 80.6081 91.5412 80.1268C91.7387 79.7024 91.9687 79.3053 92.3453 78.6209C92.6804 78.0119 93.064 77.4229 93.4755 76.7539C93.8531 76.2217 94.0247 75.9134 94.11 75.7084C94.1614 75.6052 94.2292 75.5035 94.5046 75.2959" stroke="#FFFEFC" stroke-width="2" stroke-linecap="round"/>
<path d="M88.0619 99.2734C88.0619 99.7338 88.0378 100.073 87.8925 100.685C87.8251 100.969 87.6263 101.443 87.2981 102.142C87.182 102.39 87.0669 102.551 86.9456 102.763C86.8352 102.956 86.7267 103.109 86.5401 103.416C86.0921 104.154 85.7193 104.687 85.5503 104.941C85.4238 105.13 85.2371 105.458 85.0179 105.794C84.7986 106.129 84.5583 106.466 84.4104 106.681C84.2625 106.897 84.2145 106.981 83.6669 107.667C83.1193 108.353 82.0737 109.639 81.0783 110.783C80.083 111.926 79.1695 112.887 78.669 113.425C78.1684 113.962 78.1083 114.046 77.3261 114.931C76.544 115.815 75.0417 117.498 74.2317 118.389C73.3651 119.342 73.2393 119.413 73.1366 119.498C72.8363 119.746 72.5484 119.886 72.3231 119.96C72.1044 120.031 71.9525 120.033 71.8617 120.015C71.8161 120.006 71.7828 119.961 71.7582 119.918C71.7094 119.833 71.7093 119.429 71.7393 118.721C71.7701 117.996 71.9515 117.365 72.0545 116.934C72.1095 116.704 72.1583 116.586 72.4409 115.834C72.7023 115.138 73.2404 113.82 73.9214 112.472C74.6025 111.123 75.4197 109.789 75.9369 108.976C76.4541 108.162 76.6464 107.91 77.0219 107.486C77.3973 107.061 77.9502 106.472 78.2651 106.145C78.7229 105.669 78.9073 105.562 79.6459 105.042C79.9347 104.839 80.1813 104.677 80.4007 104.573C80.6736 104.444 80.8135 104.361 81.2794 104.167C81.6437 104.015 81.8701 103.875 82.0149 103.796C82.2966 103.644 82.8381 103.451 83.4023 103.263C83.9007 103.097 84.4177 102.977 84.9097 102.885C85.1206 102.846 85.2572 102.831 85.5281 102.812C86.7111 102.733 87.0523 102.927 87.3204 103C87.772 103.123 88.2906 103.436 88.6313 103.679C88.9053 103.875 89.0809 104.044 89.2328 104.159C89.3235 104.226 89.409 104.299 89.4817 104.366C89.5183 104.396 89.5544 104.42 89.5915 104.445" stroke="#FFFEFC" stroke-width="2" stroke-linecap="round"/>
<path d="M86.7518 103.003C86.6517 103.153 86.4843 103.354 86.1749 103.806C86.0635 103.968 85.8815 104.208 85.4899 104.8C85.2251 105.2 84.783 105.773 84.5359 106.097C84.2888 106.421 84.239 106.471 83.9728 106.845C83.7066 107.219 83.2255 107.916 82.9113 108.408C82.2291 109.475 82.044 109.905 81.8007 110.3C81.3816 110.98 80.9721 111.863 80.803 112.336C80.6454 112.776 80.5015 113.123 80.2351 113.823C80.0487 114.313 79.7032 115.054 79.5239 115.472C79.318 115.952 79.1783 116.456 78.9772 117.142C78.7937 117.769 78.6745 118.519 78.524 119.114C78.3999 119.604 78.3558 119.945 78.3141 120.271C78.2788 120.547 78.2552 120.916 78.2135 121.227C78.1857 121.433 78.1884 121.704 78.1632 122.254C78.0827 124.016 78.2382 124.318 78.3053 124.587C78.4026 124.977 78.5901 125.441 78.8741 126.528C78.9971 126.998 79.2095 127.184 79.5941 127.436C79.8942 127.57 80.1149 127.654 80.406 127.68C80.6473 127.688 81.0787 127.688 81.5231 127.688" stroke="#FFFEFC" stroke-width="2" stroke-linecap="round"/>
<path d="M81.4258 127.694C81.5408 127.694 81.6558 127.694 82.06 127.677C82.4642 127.659 83.1542 127.623 83.5229 127.601C84.0178 127.57 84.2838 127.498 84.5433 127.458C84.7294 127.429 84.91 127.408 85.0974 127.377C85.1507 127.368 85.2043 127.373 85.9526 127.222C86.7009 127.072 88.1428 126.771 88.9077 126.607C89.7185 126.434 89.8155 126.399 90.0595 126.323C90.5871 126.161 90.9946 125.961 91.2082 125.859C91.5189 125.71 91.7634 125.648 92.1135 125.529C92.4213 125.423 92.9855 125.206 93.3347 125.07C93.6838 124.934 93.7988 124.881 93.9863 124.783C94.4334 124.549 94.73 124.388 94.7969 124.366C95.0104 124.295 95.3369 124.085 95.5071 123.986C95.6944 123.878 95.82 123.826 96.0163 123.732C96.1557 123.665 96.2934 123.602 96.4632 123.517C96.7112 123.394 97.0171 123.201 97.138 123.124C97.299 123.022 97.446 122.914 97.5891 122.816C97.7324 122.718 97.8749 122.628 98.0002 122.521C98.1416 122.4 98.277 122.254 98.3624 122.097C98.4027 121.976 98.4384 121.798 98.4697 121.619C98.4743 121.548 98.4743 121.433 98.4743 121.314" stroke="#FFFEFC" stroke-width="2" stroke-linecap="round"/>
<path d="M89.6523 104.444C90.0702 104.653 90.2552 104.792 90.5631 105.042C90.7435 105.188 90.9522 105.35 91.4103 105.801C91.6657 106.053 91.9733 106.475 92.3563 106.91C92.7331 107.338 92.8697 107.545 93.4081 108.165C93.7031 108.504 93.8454 108.753 93.9847 108.928C94.0927 109.063 94.1824 109.184 94.3957 109.454C94.5791 109.687 94.8965 110.128 95.1141 110.41C95.426 110.815 95.5879 110.995 95.6749 111.111C95.7366 111.194 95.9929 111.608 96.3238 112.264C96.5636 112.739 96.6104 112.912 96.761 113.248C96.9494 113.669 97.0398 113.933 97.1157 114.196C97.1731 114.394 97.3067 114.803 97.3888 115.073C97.4348 115.224 97.4817 115.409 97.5282 115.567C97.581 115.745 97.6441 115.909 97.7082 116.054C97.7952 116.252 97.8998 116.432 97.9464 116.577C98.0044 116.746 98.0626 116.85 98.0858 116.92C98.0974 116.955 98.1089 116.989 98.1556 117.06" stroke="#FFFEFC" stroke-width="2" stroke-linecap="round"/>
<path d="M98.0973 117.042C98.0973 117.142 98.0806 117.362 98.0971 117.689C98.118 118.106 98.2822 118.558 98.3708 118.874C98.4235 119.062 98.4262 119.183 98.4472 119.314C98.4653 119.427 98.4768 119.713 98.4978 120.142C98.5021 120.393 98.5021 120.861 98.4979 121.114C98.4937 121.367 98.4854 121.392 98.4768 121.443" stroke="#FFFEFC" stroke-width="2" stroke-linecap="round"/>
<path d="M86.8397 102.861C86.053 101.934 85.6597 101.597 85.1815 101.133C84.7307 100.695 84.1404 100.218 83.2418 99.712C82.789 99.4572 82.4522 99.2891 82.0724 99.1338C81.5034 98.9012 80.5446 98.5312 79.6537 98.1496C79.0056 97.8721 78.5982 97.7411 78.2036 97.5444C77.7398 97.3133 77.3878 97.2347 76.9096 97.0519C76.4975 96.8944 75.8701 96.7012 74.4512 96.237C73.6613 95.9785 72.7757 95.6039 72.0857 95.3642C70.5976 94.8472 69.4839 94.5336 68.4148 94.2808C67.9689 94.1754 67.0394 93.9445 65.8446 93.5929C64.6322 93.2361 63.6024 93.0143 63.025 92.8315C62.4606 92.6529 61.7201 92.5365 61.1393 92.4513C60.5781 92.3689 60.1417 92.2546 59.7462 92.212C59.2391 92.1573 58.5649 92.0858 55.8175 92.085C54.3875 92.0845 53.671 92.5062 52.7708 92.9835C51.9823 93.4015 51.4764 94.1065 50.9683 94.7978C50.4823 95.4589 50.4044 95.8538 50.2217 96.4298C50.0081 97.1031 49.9537 99.1321 50.0377 100.509C50.0668 100.987 50.4854 102.205 50.8805 103.39C51.6259 105.628 51.5009 106.067 51.5431 107.253C51.5793 108.272 51.5574 110.139 51.5713 111.142C51.59 112.485 51.7819 112.988 52.0065 113.592C52.2876 114.349 52.653 114.872 53.0472 115.338C53.4012 115.756 53.9191 116.14 54.9295 116.702C55.5475 117.046 56.0006 116.957 56.9679 117.027C58.1517 117.113 59.263 116.93 59.937 116.72C60.9474 116.404 61.7099 115.723 62.4434 115.159C63.1389 114.623 63.5973 114.062 63.9501 113.737C64.2877 113.425 64.806 112.88 65.3559 112.429C66.1035 111.816 66.636 111.332 67.3517 110.826C68.8485 109.768 69.3657 109.502 69.7595 109.165C70.3591 108.652 71.4134 108.044 72.5141 107.352C74.1498 106.323 74.5416 105.902 75.105 105.493C75.7055 105.058 76.3428 104.691 76.7792 104.438C77.5305 104.002 78.0597 103.818 79 103.342C79.6668 103.003 80.364 102.834 80.9713 102.693C81.7905 102.502 82.589 102.439 83.4714 102.369C86.1071 102.411 86.4447 102.579 86.6553 102.678C86.7545 102.72 86.838 102.748 87.0929 102.861" stroke="#FFFEFC" stroke-width="2" stroke-linecap="round"/>
<path d="M66.2988 49.1836C65.9781 49.1836 64.9647 49.275 64.4875 49.3911C64.1219 49.4799 63.8066 49.6906 63.5866 49.9445C63.3453 50.2231 63.1139 50.544 62.9054 50.9025C62.7328 51.1992 62.5362 51.4681 62.3627 51.7455C62.2009 52.0042 62.0513 52.3907 61.8664 52.7956C61.6763 53.2116 61.6122 53.5461 61.3933 54.0417C61.1508 54.5907 61.058 54.9315 60.908 55.2089C60.7629 55.4773 60.5967 55.7627 60.4117 56.1551C60.266 56.4643 60.1118 56.7324 59.9958 57.0099C59.8717 57.3066 59.7419 57.6329 59.6494 57.9218C59.5367 58.274 59.4648 58.6027 59.3149 59.0179C59.1539 59.4637 59.0728 59.9867 58.9107 60.6222C58.8268 60.9511 58.7722 61.4177 58.5647 62.2836C58.4065 62.9439 58.2637 63.4515 58.1719 63.8892C58.0015 64.7022 57.9409 64.9754 57.906 65.2756C57.86 65.6703 57.8024 66.0823 57.7674 66.476C57.7429 66.7524 57.7096 67.0763 57.6982 67.3644C57.6893 67.5865 57.6403 68.6154 57.6289 70.0697C57.6221 70.9336 57.5253 71.4866 57.4443 71.7868C57.3415 72.1678 57.3175 72.4563 57.2251 72.8027C57.1267 73.171 57.0405 73.4953 56.9366 73.8302C56.8278 74.1809 56.6027 74.8544 56.4631 75.4231C56.3695 75.8045 56.3242 76.4933 56.2667 77.0855C56.2478 77.281 56.2321 77.5129 56.1975 78.1436C56.07 80.4651 56.3921 81.0206 56.4742 81.4037C56.5464 81.7409 56.6927 82.1525 56.8088 82.5005C56.9241 82.778 57.0398 82.9858 57.0858 83.124C57.109 83.1936 57.1319 83.2622 57.1554 83.4021" stroke="#FFFEFC" stroke-width="2" stroke-linecap="round"/>
<path d="M57.1523 83.4028C57.4287 84.1177 57.8423 84.6691 58.2018 85.0985C58.6241 85.6031 59.1126 86.0794 59.4372 86.3228C59.7975 86.5932 60.2445 86.9341 60.7179 87.269C61.1086 87.5454 61.5606 87.8346 61.8844 88.066C62.302 88.3643 62.6231 88.5966 63.1756 88.9886C64.1801 89.7016 64.5627 89.6591 65.1733 89.9705C65.4996 90.1369 65.9923 90.3054 66.7744 90.6043C68.5303 91.2754 68.8794 91.5058 69.2725 91.6797C69.9592 91.9834 70.3812 92.1528 70.7736 92.3263C71.1578 92.4962 71.7194 92.7069 72.1589 92.823C72.4634 92.9033 72.7363 93.0076 73.0826 93.1575C73.4297 93.2618 73.6375 93.3539 73.7871 93.446C73.8681 93.4924 73.9596 93.5382 74.123 93.6545" stroke="#FFFEFC" stroke-width="2" stroke-linecap="round"/>
<path d="M74.125 93.6533C74.4235 93.6533 75.4342 93.9276 76.4514 94.4011C77.9507 95.0989 79.0652 95.5921 79.2495 95.7189C79.6039 95.9627 80.2164 96.3063 80.7723 96.573C81.8024 97.0672 82.1587 97.2774 82.62 97.5084C82.9906 97.6473 83.1984 97.763 83.3366 97.8091C83.4062 97.8323 83.4748 97.8551 83.684 97.9479" stroke="#FFFEFC" stroke-width="2" stroke-linecap="round"/>
<path d="M83.6797 97.9491C83.6797 97.6291 83.6797 96.2984 83.6911 94.4749C83.6973 93.4921 83.7947 93.1252 83.8297 92.3529C83.8376 92.1775 83.8639 92.0862 83.8757 91.0562C83.8875 90.0262 83.8875 88.0604 83.8761 87.0019C83.8646 85.9435 83.8418 85.8521 83.83 85.405C83.8182 84.9578 83.8182 84.1578 83.8182 83.3335" stroke="#FFFEFC" stroke-width="2" stroke-linecap="round"/>
<path d="M83.823 83.3335C83.823 83.0135 83.823 82.6935 83.7888 81.4086C83.7545 80.1236 83.6859 77.8835 83.6277 76.6038C83.5397 74.6684 83.3382 74.2608 83.1657 73.6959C82.995 73.137 82.784 72.3905 82.5198 71.4239C82.2434 70.413 82.1384 69.944 81.9764 69.3895C81.8844 69.0748 81.7921 68.7429 81.5272 68.0062C80.9219 66.3234 80.5453 65.4637 80.3603 64.9449C80.2177 64.5448 79.9911 64.2404 79.7487 63.652C79.5538 63.1789 79.2292 62.693 78.9985 62.2895C78.567 61.5346 78.3287 60.9848 78.1323 60.6496C77.9947 60.4147 77.9124 60.1758 77.6606 59.7058C77.0775 58.6174 76.367 57.7071 76.0557 57.2229C75.71 56.6854 75.558 56.3439 75.3155 55.9279C75.1405 55.6276 74.9581 55.3506 74.7382 55.0617C74.4791 54.7214 74.2419 54.4501 73.988 54.0462C73.9184 53.9416 73.8498 53.8502 73.8031 53.7688C73.7563 53.6874 73.7334 53.6189 73.6406 53.4097" stroke="#FFFEFC" stroke-width="2" stroke-linecap="round"/>
<path d="M73.638 53.41C73.3387 53.2722 72.8788 52.9501 72.4043 52.6491C71.63 52.1579 70.453 51.5869 69.8767 51.2755C69.4303 51.0343 69.0912 50.71 68.7903 50.5015C68.5162 50.3116 68.0993 49.9494 67.7512 49.6702C67.4808 49.4534 67.1974 49.2775 66.92 49.1275C66.6426 49.0233 66.3891 48.9769 66.193 49.0112C66.1113 49.0454 66.0656 49.114 65.9492 49.1847" stroke="#FFFEFC" stroke-width="2" stroke-linecap="round"/>
<path d="M88.1133 95.8714C88.1133 94.6038 88.2047 93.6825 88.4357 92.9414C88.4796 92.8005 88.5053 92.71 88.7914 92.1143C89.0775 91.5186 89.6261 90.4214 90.0116 89.7076C90.8172 88.2157 91.2054 87.7463 91.4257 87.3646C91.8056 86.7063 92.2444 86.2002 92.6029 85.6907C92.9422 85.2085 93.2613 84.7442 93.7451 83.9833C94.2548 83.1817 95.1773 82.227 95.6386 81.6507C95.9872 81.2151 96.6056 80.5908 97.496 79.8154C98.1151 79.2763 98.57 78.9492 98.9295 78.6936C99.3085 78.4241 99.8861 78.1401 100.234 77.9891C100.372 77.9088 100.512 77.8388 100.661 77.7928C100.742 77.7696 100.834 77.7467 101.066 77.7231" stroke="#FFFEFC" stroke-width="2" stroke-linecap="round"/>
<path d="M133.974 79.8011C133.905 79.6861 133.583 79.5019 133.225 79.2594C132.573 78.8189 131.229 78.3021 130.179 78.0355C129.558 77.8776 128.991 77.8851 128.515 77.8041C127.843 77.6896 127.325 77.6773 126.691 77.6424C126.446 77.6288 126.171 77.5845 125.814 77.5731C125.478 77.5623 124.378 77.5152 122.924 77.5267C122.196 77.5324 121.557 77.676 121.045 77.792C120.234 77.976 119.314 78.3229 118.323 78.7143C117.868 78.8938 117.513 79.0613 116.913 79.3038C116.494 79.473 115.99 79.6612 115.619 79.8582C115.304 80.0251 114.835 80.2389 114.292 80.5617C113.982 80.7463 113.748 80.863 113.278 81.1376C112.114 81.8183 111.232 82.4326 110.83 82.6394C109.651 83.2451 109.039 83.633 108.693 83.8062C108.021 84.1425 107.585 84.4171 106.72 84.9252C105.928 85.3902 104.813 86.1724 104.306 86.5648C103.646 87.0751 102.644 87.8348 101.779 88.6297C101.584 88.809 101.466 88.8738 100.836 89.4463C100.205 90.0188 99.0625 91.0932 98.428 91.6809C97.7101 92.346 97.5393 92.4993 97.2411 92.8436C96.1914 94.0554 95.7626 94.3225 95.3127 94.7149C94.5052 95.4192 94.1694 95.7771 93.6959 96.2391C93.3735 96.5538 92.9004 97.0461 92.4952 97.5088C91.9724 98.1058 91.515 98.4315 91.2359 98.7795C91.0273 99.0396 90.9124 99.3333 90.7396 99.645C90.4611 100.147 90.2197 100.557 90.0698 100.858C89.9408 101.116 89.9426 101.411 89.9077 101.689C89.8496 102.149 89.9413 102.842 90.1605 103.224C90.43 103.693 90.7489 103.859 91.3481 104.343C91.809 104.715 92.18 104.829 92.5038 105.025C92.889 105.259 93.3105 105.429 93.6928 105.591C94.1499 105.786 94.6487 106.029 95.2385 106.375C96.2546 106.973 96.8431 107.23 97.363 107.542C98.1927 108.039 98.507 108.108 98.7958 108.258C99.114 108.423 99.6818 108.661 100.204 108.847C100.808 109.062 101.208 109.332 101.52 109.47C102.133 109.743 103.189 110.207 104.288 110.59C104.989 110.834 105.661 110.855 107.415 110.891C108.072 110.904 108.663 110.535 109.588 109.912C110.161 109.526 110.673 109.011 110.987 108.698C111.103 108.583 111.299 108.433 111.666 107.986C112.358 107.143 112.845 106.333 113.156 105.747C114.024 104.11 114.07 103.377 114.403 102.709C114.796 101.923 115.224 101.368 115.374 101.16C115.48 101.014 116.005 100.196 116.847 99.0424C117.378 98.3153 117.855 97.9064 118.341 97.3623C118.664 97 119.056 96.5654 119.989 95.6327C120.468 95.1544 120.788 94.788 121.158 94.4756C121.626 94.08 122.356 93.4275 122.935 92.9177C123.612 92.3207 124.455 91.6058 125.427 90.8061C126.583 89.8544 126.953 89.6386 127.449 89.2922C127.698 89.1181 128.06 88.8309 128.75 88.3367C129.8 87.5839 130.51 87.0749 130.819 86.8225C131.98 85.8756 132.677 85.3924 133.038 84.9744C133.385 84.5719 133.787 84.2827 134.054 83.9468C134.311 83.6228 134.481 83.3352 134.608 83.0463C134.765 82.691 134.851 82.3654 134.886 82.0305C134.919 81.7148 134.989 81.3957 135.001 80.7158C135.005 80.4926 134.921 80.3559 134.863 80.2177C134.667 79.986 134.391 79.8482 134.113 79.7322C134.044 79.709 133.975 79.6861 133.904 79.6626" stroke="#FFFEFC" stroke-width="2" stroke-linecap="round"/>
<path d="M51.549 155.637C51.0016 155.285 50.5422 154.895 50.1709 154.466C49.8054 154.029 49.5281 153.553 49.3388 153.038C49.1495 152.524 49.0381 151.977 49.0045 151.397L50.9789 150.84C51.0267 151.733 51.1866 152.431 51.4585 152.935C51.7305 153.44 52.1312 153.862 52.6607 154.202C52.9659 154.398 53.2729 154.532 53.5819 154.603C53.8966 154.666 54.1776 154.663 54.425 154.594C54.6781 154.515 54.8738 154.368 55.0122 154.153C55.1102 154 55.1681 153.841 55.186 153.675C55.2186 153.506 55.2083 153.334 55.155 153.161C55.1075 152.978 55.0273 152.787 54.9144 152.588C54.8015 152.389 54.6576 152.188 54.4825 151.987C54.3075 151.786 54.1071 151.575 53.8814 151.354C53.4512 150.938 53.104 150.531 52.8398 150.134C52.5814 149.727 52.4043 149.321 52.3086 148.918C52.2188 148.505 52.2135 148.109 52.2928 147.728C52.3779 147.339 52.5472 146.947 52.8009 146.553C53.0545 146.158 53.3732 145.849 53.757 145.626C54.1498 145.41 54.5766 145.278 55.0374 145.232C55.4982 145.185 55.9737 145.225 56.4641 145.349C56.9544 145.474 57.4329 145.686 57.8996 145.986C58.4291 146.326 58.86 146.692 59.1921 147.083C59.5332 147.479 59.7801 147.904 59.9329 148.357C60.1003 148.807 60.1749 149.273 60.1565 149.756L58.2637 150.156C58.2629 149.763 58.208 149.404 58.0989 149.081C57.9956 148.748 57.8426 148.453 57.64 148.196C57.4431 147.93 57.2011 147.705 56.9139 147.521C56.5908 147.313 56.2793 147.177 55.9793 147.111C55.6883 147.051 55.4207 147.063 55.1766 147.147C54.9382 147.222 54.7441 147.376 54.5942 147.609C54.4789 147.789 54.4155 147.976 54.4041 148.172C54.3984 148.358 54.4328 148.551 54.5072 148.751C54.5906 148.957 54.723 149.175 54.9045 149.406C55.086 149.637 55.3046 149.878 55.5604 150.131C55.9906 150.547 56.3484 150.967 56.6338 151.391C56.9249 151.807 57.1347 152.22 57.263 152.632C57.3971 153.035 57.4409 153.431 57.3942 153.819C57.3534 154.199 57.2177 154.568 56.9871 154.927C56.5893 155.546 56.0983 155.985 55.5139 156.244C54.9442 156.499 54.3168 156.578 53.6316 156.48C52.9522 156.373 52.258 156.092 51.549 155.637ZM59.0247 159.931L63.543 150.369L65.3224 151.21L60.8041 160.772L59.0247 159.931ZM60.3433 153.246L61.1225 151.597L66.07 153.934L65.2908 155.584L60.3433 153.246ZM68.951 164.105C68.1101 163.827 67.424 163.405 66.8925 162.836C66.3712 162.272 66.0283 161.625 65.864 160.897C65.7132 160.162 65.768 159.4 66.0284 158.609C66.2355 157.981 66.5255 157.442 66.8984 156.993C67.2713 156.543 67.6968 156.189 68.175 155.931C68.6665 155.666 69.1939 155.514 69.7571 155.475C70.3338 155.429 70.9209 155.505 71.5186 155.702C72.0454 155.876 72.5034 156.139 72.8924 156.492C73.2815 156.845 73.5848 157.254 73.8022 157.718C74.023 158.173 74.1393 158.672 74.1512 159.215C74.1766 159.751 74.0907 160.301 73.8936 160.865L73.663 161.514L67.1745 159.375L67.2457 157.983L72.5186 159.721L72.1903 159.899L72.3005 159.565C72.3737 159.241 72.3625 158.934 72.2671 158.644C72.1751 158.344 72.014 158.084 71.7839 157.862C71.5672 157.633 71.2968 157.465 70.9726 157.358C70.4762 157.195 70.0241 157.152 69.6162 157.231C69.2185 157.314 68.8734 157.509 68.5809 157.817C68.2918 158.115 68.0588 158.532 67.8818 159.069C67.7115 159.585 67.6693 160.071 67.7551 160.526C67.8511 160.985 68.0615 161.386 68.3865 161.728C68.7249 162.065 69.1626 162.321 69.6995 162.498C70.0743 162.622 70.4388 162.675 70.7929 162.657C71.147 162.638 71.5582 162.533 72.0264 162.339L72.5276 163.936C72.1706 164.099 71.7847 164.213 71.3701 164.279C70.9688 164.337 70.5591 164.354 70.1407 164.328C69.7224 164.303 69.3258 164.228 68.951 164.105ZM75.1248 169.449L77.0882 157.659L78.9979 157.977L78.714 159.876L78.4062 159.679C78.5237 159.363 78.7534 159.088 79.0953 158.853C79.439 158.608 79.8361 158.43 80.2868 158.322C80.748 158.215 81.21 158.2 81.673 158.277C82.4095 158.399 83.0312 158.692 83.538 159.155C84.0554 159.62 84.4237 160.2 84.643 160.896C84.8728 161.594 84.9177 162.364 84.7775 163.206C84.6391 164.037 84.3472 164.751 83.9018 165.347C83.4688 165.934 82.9314 166.369 82.2896 166.652C81.6601 166.925 80.9876 167.003 80.2721 166.884C79.7881 166.803 79.3357 166.63 78.9148 166.366C78.5044 166.103 78.1668 165.792 77.9019 165.434C77.6476 165.079 77.5117 164.726 77.4941 164.377L78.0044 164.235L77.0818 169.775L75.1248 169.449ZM80.164 165.098C80.6059 165.171 81.0189 165.126 81.4029 164.963C81.7869 164.8 82.1061 164.54 82.3603 164.182C82.625 163.826 82.7995 163.395 82.8836 162.89C82.9677 162.385 82.9466 161.928 82.8203 161.517C82.6957 161.096 82.4782 160.747 82.1678 160.468C81.8574 160.189 81.4759 160.012 81.0235 159.937C80.5605 159.859 80.1371 159.903 79.753 160.066C79.3813 160.22 79.0631 160.475 78.7983 160.831C78.5336 161.187 78.3591 161.618 78.275 162.123C78.1909 162.628 78.2164 163.092 78.3515 163.514C78.4866 163.937 78.7041 164.287 79.004 164.564C79.3144 164.842 79.7011 165.02 80.164 165.098ZM87.3957 167.744L87.5174 155.904L89.4693 155.925L89.4165 161.06L89.0465 161.248C89.1571 160.866 89.3687 160.521 89.6812 160.215C89.9938 159.898 90.3644 159.646 90.793 159.458C91.2216 159.271 91.6599 159.179 92.1079 159.184C92.7479 159.19 93.2799 159.324 93.7039 159.584C94.1386 159.845 94.4599 160.232 94.668 160.746C94.8867 161.261 94.9921 161.902 94.9842 162.67L94.9313 167.821L92.9634 167.801L93.0148 162.793C93.0192 162.367 92.9642 162.014 92.8497 161.736C92.7353 161.446 92.5562 161.237 92.3122 161.106C92.0683 160.965 91.7703 160.898 91.4182 160.905C91.1302 160.902 90.863 160.947 90.6167 161.041C90.3812 161.124 90.1719 161.249 89.9888 161.418C89.8165 161.576 89.6759 161.762 89.5671 161.974C89.4689 162.186 89.4185 162.42 89.4159 162.676L89.3635 167.764L88.3876 167.754C88.1956 167.752 88.0143 167.75 87.8436 167.748C87.6836 167.747 87.5343 167.745 87.3957 167.744ZM101.897 167.393C101.21 167.491 100.56 167.39 99.9462 167.09C99.3322 166.79 98.8094 166.337 98.3779 165.731C97.9464 165.124 97.671 164.404 97.5517 163.57C97.4324 162.736 97.4949 161.967 97.7392 161.264C97.9835 160.561 98.3695 159.983 98.8975 159.531C99.4254 159.078 100.054 158.8 100.782 158.695C101.205 158.635 101.599 158.643 101.966 158.72C102.331 158.786 102.661 158.912 102.957 159.096C103.252 159.28 103.505 159.502 103.715 159.763C103.935 160.022 104.1 160.311 104.211 160.629L103.767 160.58L103.468 158.489L105.432 158.208L106.626 166.555L104.646 166.838L104.36 164.843L104.808 164.698C104.775 164.993 104.678 165.293 104.517 165.596C104.364 165.887 104.156 166.16 103.89 166.413C103.634 166.654 103.335 166.864 102.994 167.042C102.664 167.219 102.298 167.336 101.897 167.393ZM102.188 165.59C102.642 165.525 103.028 165.357 103.345 165.085C103.661 164.813 103.887 164.469 104.021 164.051C104.164 163.621 104.199 163.147 104.125 162.63C104.052 162.123 103.888 161.688 103.631 161.326C103.385 160.963 103.072 160.695 102.692 160.523C102.312 160.351 101.895 160.298 101.441 160.363C100.987 160.428 100.601 160.596 100.285 160.868C99.9785 161.138 99.7583 161.482 99.6241 161.9C99.4899 162.317 99.4591 162.78 99.5316 163.287C99.6056 163.804 99.7663 164.25 100.014 164.624C100.26 164.987 100.567 165.256 100.937 165.429C101.317 165.601 101.734 165.655 102.188 165.59ZM110.416 165.834L107.949 157.771L109.785 157.209L110.321 158.852L110.025 159.143C110.015 158.745 110.112 158.353 110.317 157.966C110.52 157.57 110.797 157.217 111.148 156.909C111.5 156.6 111.89 156.381 112.319 156.25C112.931 156.062 113.478 156.029 113.961 156.149C114.454 156.265 114.878 156.537 115.231 156.965C115.595 157.389 115.89 157.968 116.114 158.702L117.622 163.629L115.74 164.205L114.275 159.416C114.15 159.008 113.991 158.688 113.797 158.458C113.601 158.216 113.367 158.071 113.095 158.02C112.819 157.959 112.515 157.985 112.182 158.099C111.906 158.183 111.665 158.307 111.459 158.47C111.259 158.621 111.098 158.804 110.974 159.02C110.858 159.223 110.78 159.442 110.741 159.677C110.711 159.909 110.734 160.148 110.809 160.393L112.297 165.258L111.364 165.544C111.181 165.6 111.007 165.653 110.844 165.703C110.691 165.75 110.548 165.793 110.416 165.834ZM127.199 159.525L121.243 150.04L122.91 148.993L129.896 152.447L128.912 153.046L128.886 145.241L130.471 144.246L136.427 153.731L134.679 154.828L132.441 151.265C131.931 150.452 131.489 149.709 131.117 149.035C130.754 148.357 130.421 147.665 130.117 146.962L130.7 147.408L130.61 153.794L129.715 154.355L124.045 151.643L123.843 150.901C124.323 151.444 124.782 152.025 125.221 152.643C125.663 153.247 126.159 153.987 126.71 154.864L128.947 158.427L127.199 159.525ZM142.342 149.287C141.83 149.755 141.236 150.038 140.559 150.136C139.883 150.234 139.196 150.154 138.498 149.896C137.8 149.638 137.166 149.198 136.598 148.576C136.029 147.954 135.648 147.284 135.454 146.565C135.259 145.847 135.253 145.152 135.434 144.481C135.615 143.809 135.977 143.225 136.521 142.729C136.835 142.441 137.166 142.226 137.512 142.083C137.851 141.932 138.195 141.849 138.543 141.834C138.891 141.82 139.225 141.861 139.545 141.959C139.873 142.049 140.172 142.194 140.443 142.395L140.048 142.604L138.623 141.045L140.088 139.707L145.777 145.931L144.3 147.28L142.94 145.792L143.229 145.42C143.368 145.683 143.456 145.985 143.494 146.326C143.532 146.653 143.513 146.995 143.436 147.354C143.36 147.698 143.232 148.04 143.051 148.379C142.877 148.711 142.641 149.014 142.342 149.287ZM141.566 147.633C141.905 147.323 142.129 146.967 142.237 146.564C142.346 146.162 142.338 145.75 142.214 145.329C142.09 144.893 141.851 144.482 141.499 144.096C141.153 143.718 140.773 143.452 140.357 143.298C139.949 143.136 139.539 143.091 139.128 143.163C138.717 143.235 138.343 143.426 138.004 143.735C137.666 144.045 137.442 144.401 137.333 144.804C137.233 145.2 137.244 145.608 137.369 146.029C137.493 146.449 137.728 146.849 138.074 147.227C138.427 147.613 138.81 147.89 139.226 148.06C139.634 148.222 140.039 148.27 140.442 148.205C140.853 148.133 141.228 147.942 141.566 147.633ZM150.922 140.507C150.423 141.119 149.825 141.546 149.129 141.791C148.434 142.035 147.715 142.088 146.974 141.951C146.232 141.813 145.539 141.481 144.895 140.955C144.251 140.428 143.787 139.815 143.505 139.116C143.222 138.417 143.131 137.702 143.232 136.972C143.333 136.241 143.633 135.571 144.132 134.959C144.612 134.373 145.158 133.931 145.773 133.635C146.387 133.338 147.001 133.219 147.613 133.279L147.941 134.951C147.666 134.934 147.381 134.962 147.085 135.037C146.79 135.113 146.513 135.224 146.255 135.371C145.997 135.519 145.78 135.7 145.604 135.914C145.307 136.278 145.132 136.678 145.077 137.116C145.021 137.538 145.083 137.96 145.261 138.382C145.432 138.797 145.711 139.163 146.1 139.48C146.488 139.798 146.902 139.998 147.343 140.083C147.79 140.159 148.223 140.127 148.641 139.986C149.059 139.846 149.413 139.598 149.703 139.243C149.879 139.028 150.014 138.795 150.11 138.542C150.205 138.275 150.26 137.997 150.276 137.707C150.293 137.417 150.266 137.113 150.196 136.794L151.912 136.792C152.046 137.37 152.027 138.001 151.853 138.685C151.678 139.355 151.367 139.962 150.922 140.507ZM156.613 132.552C156.256 133.146 155.768 133.587 155.147 133.875C154.527 134.162 153.846 134.282 153.103 134.234C152.36 134.187 151.628 133.946 150.905 133.513C150.183 133.079 149.625 132.546 149.234 131.913C148.842 131.28 148.637 130.616 148.619 129.921C148.601 129.226 148.781 128.563 149.159 127.932C149.379 127.566 149.634 127.265 149.925 127.029C150.207 126.787 150.512 126.61 150.841 126.496C151.171 126.383 151.503 126.327 151.837 126.329C152.178 126.322 152.506 126.376 152.823 126.491L152.504 126.804L150.693 125.717L151.714 124.016L158.945 128.353L157.916 130.068L156.187 129.031L156.357 128.592C156.566 128.804 156.737 129.069 156.87 129.385C157 129.687 157.08 130.021 157.109 130.387C157.135 130.738 157.109 131.102 157.032 131.479C156.961 131.847 156.821 132.204 156.613 132.552ZM155.397 131.188C155.633 130.795 155.745 130.39 155.734 129.973C155.723 129.555 155.598 129.163 155.358 128.795C155.115 128.413 154.769 128.088 154.321 127.819C153.882 127.555 153.441 127.409 152.998 127.38C152.561 127.341 152.156 127.416 151.783 127.602C151.41 127.789 151.105 128.079 150.869 128.472C150.633 128.865 150.521 129.271 150.532 129.688C150.548 130.096 150.676 130.483 150.916 130.851C151.156 131.219 151.495 131.534 151.934 131.798C152.382 132.067 152.83 132.223 153.276 132.267C153.713 132.305 154.116 132.236 154.483 132.058C154.856 131.871 155.161 131.582 155.397 131.188ZM160.822 124.96L150.028 120.093L150.844 118.284L161.637 123.151L160.822 124.96ZM164.13 116.869C163.946 117.449 163.658 117.911 163.268 118.257C162.868 118.6 162.393 118.807 161.844 118.878C161.285 118.946 160.67 118.873 160 118.659L155.045 117.08L155.643 115.205L160.201 116.658C160.628 116.794 161.015 116.845 161.362 116.81C161.698 116.772 161.989 116.651 162.232 116.449C162.476 116.247 162.654 115.968 162.768 115.612C162.852 115.348 162.887 115.096 162.874 114.857C162.854 114.604 162.794 114.372 162.693 114.161C162.582 113.947 162.435 113.76 162.25 113.6C162.056 113.437 161.832 113.315 161.578 113.234L156.761 111.699L157.358 109.824L165.392 112.385L164.809 114.214L163.122 113.71L163.046 113.316C163.394 113.561 163.673 113.88 163.884 114.272C164.088 114.65 164.218 115.067 164.274 115.522C164.321 115.973 164.273 116.422 164.13 116.869ZM167.062 105.891C166.934 106.626 166.698 107.267 166.354 107.814C166.001 108.348 165.562 108.759 165.035 109.046L164.167 107.596C164.579 107.343 164.898 107.036 165.123 106.674C165.348 106.313 165.498 105.917 165.573 105.486C165.604 105.307 165.61 105.146 165.592 105.002C165.575 104.847 165.534 104.71 165.469 104.591C165.403 104.471 165.322 104.376 165.226 104.305C165.121 104.222 165.001 104.168 164.864 104.145C164.612 104.101 164.396 104.161 164.216 104.324C164.124 104.417 164.016 104.571 163.892 104.788C163.769 104.994 163.635 105.268 163.489 105.611C163.243 106.153 162.993 106.596 162.738 106.942C162.472 107.286 162.201 107.542 161.922 107.71C161.692 107.854 161.442 107.951 161.173 108.002C160.906 108.042 160.626 108.037 160.332 107.986C159.964 107.922 159.646 107.785 159.38 107.577C159.104 107.355 158.881 107.084 158.709 106.762C158.538 106.44 158.427 106.079 158.377 105.681C158.327 105.283 158.338 104.878 158.409 104.469C158.482 104.048 158.605 103.653 158.778 103.282C158.952 102.901 159.169 102.56 159.427 102.258C159.676 101.944 159.958 101.69 160.274 101.496L161.27 102.773C161.046 102.94 160.839 103.131 160.65 103.348C160.463 103.553 160.306 103.77 160.18 103.997C160.044 104.222 159.957 104.44 159.921 104.65C159.886 104.85 159.876 105.032 159.89 105.197C159.895 105.36 159.924 105.5 159.98 105.618C160.035 105.736 160.115 105.837 160.22 105.92C160.316 105.991 160.437 106.039 160.584 106.064C160.712 106.076 160.838 106.065 160.963 106.033C161.079 105.988 161.183 105.919 161.275 105.827C161.369 105.724 161.483 105.566 161.618 105.351C161.752 105.136 161.894 104.852 162.042 104.499C162.268 104.008 162.495 103.603 162.723 103.286C162.952 102.968 163.194 102.728 163.449 102.567C163.673 102.4 163.918 102.297 164.185 102.257C164.452 102.216 164.738 102.223 165.042 102.276C165.536 102.361 165.953 102.58 166.293 102.931C166.634 103.272 166.873 103.703 167.01 104.225C167.148 104.736 167.166 105.291 167.062 105.891ZM168.207 95.5559C168.17 96.3977 167.95 97.1408 167.548 97.7851C167.135 98.4289 166.59 98.928 165.913 99.2825C165.235 99.6371 164.475 99.7958 163.633 99.7587C162.792 99.7217 162.049 99.4967 161.405 99.084C160.761 98.6713 160.267 98.1264 159.923 97.4493C159.569 96.7717 159.41 96.0119 159.447 95.1701C159.484 94.3389 159.709 93.6014 160.121 92.9576C160.523 92.3133 161.063 91.8193 161.74 91.4754C162.418 91.1209 163.177 90.9621 164.019 90.9992C164.861 91.0363 165.604 91.2612 166.248 91.6739C166.892 92.076 167.391 92.6158 167.746 93.2934C168.09 93.9705 168.243 94.7247 168.207 95.5559ZM166.464 95.4791C166.485 95.0209 166.385 94.6108 166.166 94.2488C165.948 93.8762 165.646 93.58 165.261 93.3601C164.876 93.1296 164.433 93.0087 163.931 92.9973C163.42 92.9641 162.963 93.0454 162.559 93.2411C162.156 93.4263 161.835 93.695 161.595 94.0475C161.345 94.3888 161.21 94.7886 161.19 95.2468C161.169 95.7051 161.268 96.1258 161.486 96.5091C161.694 96.8813 161.996 97.1775 162.392 97.3978C162.777 97.6177 163.221 97.7386 163.721 97.7607C164.222 97.7827 164.674 97.7012 165.078 97.5161C165.481 97.331 165.808 97.0624 166.058 96.7105C166.309 96.3478 166.444 95.9374 166.464 95.4791Z" fill="#FFFEFC"/>
</svg>
