<svg width="185" height="185" viewBox="0 0 185 185" fill="none" xmlns="http://www.w3.org/2000/svg">
<circle cx="92.2635" cy="92.4978" r="91.2127" fill="currentColor" stroke="#FFFEFC" stroke-width="2"/>
<path d="M67.335 163.673L70.4115 152.903L74.8884 154.182C75.5038 154.358 76.0152 154.665 76.4225 155.103C76.8401 155.544 77.1244 156.064 77.2753 156.661C77.4262 157.259 77.4109 157.876 77.2292 158.512C77.0446 159.158 76.7289 159.7 76.282 160.138C75.8381 160.566 75.3209 160.862 74.7304 161.026C74.1502 161.193 73.5524 161.189 72.937 161.013L70.4601 160.306L69.335 164.244L67.335 163.673ZM70.9875 158.459L73.326 159.127C73.5824 159.201 73.8337 159.195 74.0798 159.11C74.3362 159.028 74.5596 158.886 74.7501 158.686C74.9508 158.488 75.0937 158.24 75.1787 157.943C75.2636 157.645 75.2717 157.365 75.2028 157.101C75.1471 156.83 75.0306 156.597 74.8533 156.402C74.6892 156.2 74.479 156.062 74.2226 155.989L71.8841 155.321L70.9875 158.459ZM81.4481 167.179C80.7601 167.093 80.1596 166.824 79.6465 166.373C79.1333 165.922 78.7485 165.347 78.4922 164.648C78.2358 163.949 78.16 163.182 78.2649 162.346C78.3697 161.51 78.6327 160.785 79.0536 160.171C79.4746 159.557 79.9994 159.102 80.628 158.804C81.2565 158.507 81.936 158.404 82.6662 158.496C83.0896 158.549 83.4679 158.661 83.8013 158.831C84.1359 158.992 84.4216 159.199 84.6583 159.455C84.895 159.71 85.0802 159.992 85.2137 160.299C85.3577 160.607 85.441 160.929 85.4633 161.265L85.0486 161.1L85.3114 159.005L87.28 159.252L86.2307 167.618L84.2462 167.369L84.4971 165.369L84.9675 165.347C84.8575 165.624 84.6848 165.887 84.4492 166.137C84.2255 166.378 83.9522 166.585 83.6293 166.76C83.3183 166.925 82.9749 167.048 82.5992 167.13C82.234 167.214 81.8503 167.23 81.4481 167.179ZM82.2049 165.517C82.66 165.574 83.0761 165.513 83.4533 165.335C83.8304 165.156 84.1388 164.883 84.3784 164.515C84.6299 164.138 84.7882 163.691 84.8533 163.172C84.917 162.664 84.8728 162.202 84.7209 161.785C84.5795 161.369 84.3481 161.029 84.0267 160.762C83.7053 160.496 83.3171 160.335 82.862 160.278C82.4069 160.221 81.9907 160.281 81.6136 160.46C81.2471 160.64 80.944 160.913 80.7043 161.281C80.4647 161.649 80.313 162.087 80.2493 162.595C80.1843 163.113 80.2218 163.586 80.3619 164.012C80.5033 164.427 80.7294 164.767 81.0402 165.032C81.3616 165.298 81.7498 165.46 82.2049 165.517ZM92.8549 167.974C92.2472 167.992 91.7154 167.875 91.2596 167.622C90.8035 167.358 90.4506 166.979 90.2009 166.485C89.951 165.98 89.8154 165.376 89.7942 164.673L89.6377 159.475L91.6048 159.416L91.7488 164.197C91.7623 164.645 91.8431 165.027 91.9914 165.343C92.1393 165.648 92.3491 165.882 92.6208 166.044C92.8924 166.207 93.2149 166.282 93.588 166.271C93.8652 166.263 94.1145 166.213 94.3358 166.121C94.5675 166.017 94.7662 165.883 94.932 165.718C95.0975 165.543 95.2248 165.341 95.314 165.115C95.4029 164.877 95.4433 164.625 95.4353 164.359L95.2832 159.305L97.2503 159.246L97.504 167.674L95.5849 167.732L95.4999 165.973L95.846 165.771C95.7303 166.18 95.5226 166.549 95.223 166.878C94.9338 167.196 94.5842 167.458 94.1742 167.662C93.7638 167.856 93.3241 167.96 92.8549 167.974ZM101.402 167.42L99.6644 155.708L101.627 155.417L103.365 167.129L101.402 167.42ZM120.364 162.25L116.415 151.769L118.362 151.036L122.31 161.517L120.364 162.25ZM113.641 164.783L109.693 154.302L111.639 153.569L115.588 164.05L113.641 164.783ZM112.825 160.166L112.137 158.34L118.994 155.756L119.683 157.583L112.825 160.166ZM126.413 159.77L122.389 152.36L124.119 151.421L128.143 158.831L126.413 159.77ZM122.377 150.327C122.031 150.516 121.713 150.579 121.425 150.517C121.14 150.441 120.912 150.243 120.739 149.925C120.576 149.625 120.542 149.327 120.637 149.033C120.732 148.739 120.948 148.5 121.286 148.317C121.642 148.123 121.962 148.065 122.246 148.141C122.535 148.203 122.768 148.398 122.946 148.726C123.104 149.016 123.135 149.309 123.04 149.603C122.945 149.898 122.724 150.139 122.377 150.327ZM131.684 156.784L126.981 149.786L128.587 148.706L130.113 150.919L129.548 150.566C129.408 150.147 129.362 149.715 129.41 149.271C129.459 148.827 129.585 148.421 129.788 148.054C129.993 147.671 130.269 147.364 130.614 147.132C130.764 147.031 130.915 146.949 131.066 146.886C131.225 146.817 131.361 146.771 131.473 146.747L132.24 148.834C132.107 148.847 131.958 148.883 131.792 148.942C131.627 149.002 131.473 149.08 131.332 149.175C131.11 149.324 130.928 149.511 130.783 149.736C130.642 149.947 130.547 150.178 130.498 150.429C130.448 150.681 130.448 150.939 130.496 151.202C130.547 151.45 130.656 151.698 130.823 151.946L133.331 155.677L131.684 156.784ZM140.752 150.312C140.186 150.799 139.597 151.145 138.984 151.349C138.373 151.538 137.772 151.576 137.183 151.464L137.432 149.793C137.912 149.858 138.353 149.823 138.756 149.687C139.16 149.551 139.527 149.34 139.859 149.054C139.996 148.936 140.103 148.815 140.18 148.692C140.266 148.563 140.321 148.431 140.346 148.296C140.371 148.162 140.369 148.037 140.34 147.921C140.312 147.791 140.253 147.673 140.162 147.568C139.995 147.374 139.79 147.283 139.547 147.295C139.417 147.308 139.236 147.359 139.002 147.448C138.777 147.529 138.499 147.656 138.169 147.828C137.635 148.091 137.16 148.275 136.743 148.38C136.32 148.477 135.948 148.502 135.626 148.456C135.356 148.42 135.102 148.337 134.862 148.206C134.63 148.067 134.417 147.885 134.222 147.659C133.978 147.376 133.819 147.069 133.746 146.739C133.673 146.393 133.673 146.041 133.745 145.683C133.817 145.326 133.96 144.977 134.174 144.638C134.389 144.298 134.654 143.993 134.969 143.721C135.292 143.443 135.638 143.215 136.007 143.038C136.383 142.854 136.767 142.728 137.158 142.659C137.55 142.575 137.929 142.557 138.296 142.607L138.255 144.227C137.976 144.213 137.695 144.23 137.412 144.277C137.137 144.317 136.878 144.385 136.637 144.481C136.388 144.568 136.183 144.681 136.021 144.82C135.868 144.953 135.744 145.087 135.651 145.224C135.551 145.353 135.484 145.48 135.452 145.606C135.42 145.733 135.418 145.861 135.446 145.992C135.476 146.107 135.539 146.222 135.636 146.335C135.728 146.425 135.832 146.497 135.949 146.551C136.067 146.59 136.191 146.603 136.321 146.59C136.458 146.57 136.647 146.52 136.888 146.439C137.128 146.359 137.418 146.229 137.756 146.05C138.243 145.814 138.675 145.646 139.053 145.545C139.431 145.445 139.77 145.413 140.07 145.451C140.349 145.464 140.604 145.54 140.836 145.678C141.068 145.816 141.284 146.003 141.486 146.237C141.814 146.617 141.997 147.05 142.036 147.537C142.084 148.017 141.995 148.502 141.769 148.992C141.552 149.475 141.213 149.915 140.752 150.312ZM148.039 143.234C147.511 143.821 146.894 144.22 146.188 144.431C145.482 144.642 144.761 144.661 144.027 144.489C143.293 144.316 142.616 143.952 141.998 143.396C141.379 142.839 140.945 142.205 140.696 141.493C140.447 140.781 140.39 140.063 140.525 139.338C140.66 138.614 140.992 137.958 141.52 137.371C142.026 136.808 142.593 136.392 143.221 136.125C143.849 135.858 144.467 135.768 145.076 135.857L145.324 137.543C145.051 137.512 144.764 137.527 144.466 137.588C144.167 137.65 143.885 137.748 143.62 137.883C143.355 138.017 143.13 138.188 142.945 138.394C142.631 138.743 142.437 139.135 142.361 139.569C142.285 139.989 142.327 140.413 142.486 140.843C142.636 141.266 142.898 141.645 143.271 141.98C143.644 142.315 144.048 142.535 144.484 142.641C144.928 142.738 145.361 142.726 145.785 142.605C146.209 142.485 146.575 142.254 146.882 141.913C147.067 141.707 147.214 141.48 147.321 141.232C147.428 140.97 147.497 140.694 147.527 140.406C147.557 140.117 147.544 139.812 147.489 139.49L149.204 139.569C149.311 140.153 149.261 140.782 149.055 141.458C148.849 142.118 148.51 142.71 148.039 143.234ZM152.216 138.127L142.462 131.416L143.568 129.808L147.799 132.719L147.749 133.131C147.493 132.825 147.325 132.458 147.246 132.027C147.157 131.591 147.155 131.143 147.239 130.683C147.322 130.222 147.491 129.808 147.745 129.438C148.108 128.911 148.516 128.544 148.968 128.338C149.427 128.123 149.928 128.072 150.471 128.187C151.019 128.293 151.61 128.563 152.243 128.998L156.487 131.919L155.372 133.54L151.246 130.701C150.895 130.459 150.571 130.308 150.276 130.248C149.973 130.181 149.698 130.213 149.454 130.342C149.201 130.466 148.979 130.676 148.788 130.972C148.625 131.209 148.513 131.456 148.453 131.712C148.39 131.954 148.378 132.198 148.416 132.444C148.451 132.675 148.526 132.895 148.641 133.104C148.763 133.304 148.929 133.477 149.14 133.622L153.331 136.506L152.778 137.31C152.669 137.468 152.566 137.617 152.47 137.758C152.379 137.89 152.294 138.013 152.216 138.127Z" fill="#FFFEFC"/>
<path d="M88.4608 63.2793C88.4608 62.8439 88.4275 62.3722 88.3183 62.1702C88.2126 61.9747 88.0582 61.7335 87.6889 61.3471C87.2686 60.9073 87.0664 60.7074 86.2526 60.2123C85.8577 59.9719 85.6366 59.8155 85.309 59.6225C85.0781 59.4865 84.7962 59.3453 84.2924 58.9843C83.7934 58.6267 83.6187 58.2859 83.4502 58.0003C83.2127 57.5979 83.1808 57.3778 83.172 56.1289C83.1689 55.6938 83.2474 55.4274 83.4318 54.9323C83.5626 54.581 83.7014 54.3503 84.0432 53.692C84.3575 53.0866 84.9344 51.9182 85.2595 51.2846C85.5847 50.6509 85.6346 50.5843 85.8102 50.267C86.2958 49.3893 86.6441 48.7339 86.8363 48.4415C87.5943 47.2886 87.9048 46.8673 88.1402 46.5487C88.554 45.9885 89.163 45.3235 89.5361 44.9086C89.8032 44.6114 90.0398 44.3458 90.2845 44.2182C90.5021 44.1047 91.1628 44.1592 91.5878 44.2596C91.6885 44.3267 91.7732 44.4109 91.8487 44.5116C91.8908 44.5623 91.9407 44.6122 91.9922 44.7141" stroke="#FFFEFC" stroke-width="1.5" stroke-linecap="round"/>
<path d="M92.296 47.3872C92.0791 47.3872 91.6412 47.4205 91.4056 47.5882C91.1997 47.7348 91.1529 47.9916 91.0772 48.3023C91.0296 48.498 90.9844 48.8644 90.9761 49.3012C90.9715 49.5396 90.9339 50.4394 90.9423 51.7256C90.9467 52.4152 91.0177 52.7842 91.0432 53.204C91.0667 53.5925 91.1186 53.995 91.144 54.5068C91.1622 54.8718 91.2195 55.1382 91.2449 55.4578C91.2706 55.7796 91.3204 56.1128 91.3292 57.8402C91.3321 58.4043 91.2033 58.7362 91.0858 59.0565C90.9608 59.3972 90.8502 59.5948 90.7243 59.8052C90.5695 60.0639 90.4466 60.2507 90.2872 60.5783C90.1732 60.8127 90.0269 61.0407 89.9169 61.2599C89.7998 61.4933 89.6061 61.747 89.4295 62.008C89.2868 62.2191 89.1521 62.42 89.0592 62.6639C88.9498 62.8745 88.8494 63.0758 88.723 63.2778C88.6975 63.3285 88.6809 63.3785 88.6133 63.4299" stroke="#FFFEFC" stroke-width="1.5" stroke-linecap="round"/>
<path d="M92.3921 47.3364C92.4088 47.4368 92.5092 47.6714 92.5937 47.8989C92.6836 48.141 92.7786 48.3444 92.804 48.6302C92.84 49.0331 92.8795 49.6389 92.8883 50.6537C92.8916 51.0398 92.7957 51.3037 92.7455 51.5229C92.698 51.7305 92.6111 51.9929 92.5437 52.3213C92.4863 52.6015 92.4093 52.8343 92.3336 53.1787C92.2626 53.5016 92.1237 53.7253 92.0392 53.9445C91.9569 54.158 91.9048 54.3983 91.7956 54.7259C91.7146 54.9687 91.6525 55.2387 91.5852 55.4579C91.5178 55.6766 91.4674 55.8618 91.4422 55.9707C91.4336 56.0298 91.4336 56.0964 91.4336 56.165" stroke="#FFFEFC" stroke-width="1.5" stroke-linecap="round"/>
<path d="M90.9389 59.6406C90.9389 59.7399 90.9389 60.0763 90.9327 60.5272C90.9288 60.8089 90.7893 61.03 90.6919 61.2248C90.4815 61.6459 90.3942 61.7701 90.3377 61.883C90.2791 62.0002 90.1875 62.1396 90.1001 62.2989C89.9989 62.4833 89.8867 62.6471 89.818 62.7785C89.7111 62.9825 89.5552 63.2542 89.4731 63.3962C89.4491 63.4375 89.4105 63.5057 89.2674 63.7669C89.151 63.9795 88.9383 64.3507 88.8266 64.5517C88.658 64.8549 88.5771 65.0469 88.5364 65.1472C88.5167 65.1958 88.4895 65.2848 88.4302 65.4501C88.3431 65.6929 88.3014 65.8864 88.2641 66.0701C88.1771 66.446 88.1072 66.757 88.0884 66.8728C88.082 66.9204 88.082 66.9452 88.082 66.9707" stroke="#FFFEFC" stroke-width="1.5" stroke-linecap="round"/>
<path d="M88.1366 66.707C88.1366 66.7567 88.1366 66.9435 88.1056 67.346C88.0869 67.5885 88.0126 67.9035 87.9775 68.0913C87.9192 68.4038 87.8987 68.5542 87.8767 68.6676C87.8515 68.7976 87.8111 69.0237 87.7515 69.2624C87.7221 69.3803 87.6919 69.5068 87.5576 69.9038C87.4605 70.1912 87.2912 70.5281 87.2441 70.6285C87.173 70.7799 87.0845 70.8728 86.9874 70.9919C86.8878 71.114 86.8026 71.2171 86.6899 71.3864C86.5854 71.5433 86.3034 71.8851 86.1196 72.1134C85.9823 72.284 85.8628 72.4392 85.7876 72.53C85.6446 72.7026 85.5497 72.8087 85.4619 72.9121C85.2967 73.1066 85.205 73.141 85.1266 73.2099C85.0085 73.3136 84.8482 73.4913 84.7383 73.5857C84.5616 73.7373 84.4535 73.9296 84.2999 74.1834C84.1584 74.4003 84.096 74.4879 84.0364 74.5631C84.0207 74.582 84.0021 74.6006 83.9453 74.6574" stroke="#FFFEFC" stroke-width="1.5" stroke-linecap="round"/>
<path d="M84.1238 74.396C84.0835 74.4363 83.7405 74.9203 83.1717 75.7531C82.4968 76.7412 82.233 77.2011 81.8567 77.8117C81.6532 78.142 81.4395 78.5243 81.0633 79.1441C80.7352 79.6845 80.4825 80.5384 80.3504 80.915C80.2267 81.2675 79.9955 82.0398 79.7913 82.7243C79.4458 83.8827 79.1203 84.4628 78.856 85.1745C78.4874 86.167 78.2853 86.9274 78.1337 87.3213C77.564 88.8011 77.4113 89.3858 77.1568 89.9574C76.8276 90.6967 76.6985 91.1179 76.5968 91.3926C76.4134 91.7899 76.2517 92.114 76.068 92.3999C76.0271 92.4613 75.9868 92.5217 75.9453 92.706" stroke="#FFFEFC" stroke-width="1.5" stroke-linecap="round"/>
<path d="M75.9462 92.7065C75.8046 92.889 75.1173 93.6159 73.9867 94.7374C73.5188 95.2015 73.3632 95.4921 73.0483 95.97C72.8397 96.2866 72.7529 96.5907 72.6 96.866C72.4189 97.1921 72.3257 97.6283 72.2234 97.9542C72.1213 98.2799 71.9998 98.6048 71.9283 99.0919C71.7657 100.201 72.0193 100.577 72.1008 100.894C72.1822 101.23 72.2433 101.495 72.2738 101.798C72.2842 102.04 72.2842 102.463 72.2842 102.899" stroke="#FFFEFC" stroke-width="1.5" stroke-linecap="round"/>
<path d="M72.2847 102.777C72.2847 103.101 72.2445 103.508 72.1023 103.985C71.9504 104.495 71.6756 105.052 71.4721 105.592C71.0861 106.616 70.6393 107.166 70.444 107.648C70.3192 107.956 70.0485 108.752 69.9047 109.448C69.8368 109.777 69.7824 110.261 69.7216 110.72C69.6636 111.158 69.62 111.483 69.5285 111.95C69.4197 112.506 69.2746 112.906 69.1116 113.223C68.9447 113.547 68.685 113.863 68.4506 114.128C68.2412 114.365 68.1552 114.717 68.0737 114.983C67.9981 115.229 67.9514 115.833 68.0829 116.264C68.1735 116.561 68.6008 116.55 68.9468 116.621C69.3669 116.708 69.7397 116.733 70.0763 116.764C70.3745 116.791 70.8175 116.855 71.1443 116.936C71.5512 117.038 72.0382 117.2 72.3549 117.363C72.6629 117.522 73.116 117.708 73.4331 117.983C73.6427 118.165 74.1127 118.44 74.7215 118.846C75.7467 119.53 76.413 119.479 76.8098 119.52C77.2681 119.642 77.7948 119.683 78.1934 119.734C78.3051 119.744 78.4662 119.744 78.6322 119.744" stroke="#FFFEFC" stroke-width="1.5" stroke-linecap="round"/>
<path d="M78.6329 119.744C79.1199 119.764 79.5264 119.845 79.8929 119.927C80.2015 119.995 80.5237 120.089 80.8893 120.161C81.5297 120.286 82.0275 120.232 82.4557 120.283C83.2046 120.371 83.5338 120.192 83.8198 120.06C84.1214 119.92 84.5311 119.724 84.8064 119.551C85.139 119.342 85.3661 119.074 85.4784 118.819C85.609 118.523 85.692 118.2 85.6926 117.65C85.693 117.285 85.1659 117 84.5552 116.612C84.2315 116.406 83.7621 116.245 82.6653 115.92C81.9597 115.711 81.4416 115.553 80.8429 115.421C80.229 115.286 79.5728 115.208 78.707 115.055C78.2291 114.971 77.8211 114.943 77.1 114.781C76.2976 114.6 75.9486 114.455 75.5421 114.252C75.1727 114.067 74.8708 113.785 74.7167 113.519C74.6855 113.466 74.7865 113.398 74.9083 113.366C75.4437 113.23 76.266 113.274 77.093 113.325C78.8121 113.43 79.3006 113.274 79.74 113.224C80.4179 113.145 80.8288 113.112 81.2454 113.041C81.6385 112.973 82.0483 112.889 82.355 112.776C82.6256 112.677 82.8832 112.421 83.1887 112.187C83.6748 111.815 83.8598 111.465 84.0743 111.2C84.2705 110.958 84.3895 110.712 84.4917 110.468C84.5732 110.223 84.6343 110.04 84.6749 109.908C84.6953 109.837 84.7154 109.756 84.7362 109.612" stroke="#FFFEFC" stroke-width="1.5" stroke-linecap="round"/>
<path d="M84.7324 109.612C84.7324 109.371 84.7324 109.129 84.7324 108.31C84.7324 107.49 84.7324 106.1 84.672 104.841C84.6115 103.581 84.4907 102.493 84.4184 101.832C84.2946 100.701 84.2441 100.418 84.1834 99.8391C84.1349 99.3761 84.061 98.8925 83.9701 97.9312C83.9137 97.3354 83.8389 96.2875 83.7873 95.7077C83.7284 95.0461 83.6948 94.1184 83.7049 92.7461C83.7101 92.0378 83.7559 91.7509 83.8566 91.256C84.2796 89.1764 84.7727 88.6785 84.8639 88.5668C84.9097 88.5108 84.9753 88.4753 85.0064 88.5854C85.1079 88.9447 85.0577 89.3279 85.0882 89.8128C85.1541 90.8597 85.0785 91.7076 85.0379 92.1531C84.9754 92.8387 84.9564 93.3561 84.9259 94.1029C84.8995 94.7484 84.9155 95.9372 84.9256 96.6098C84.9405 97.6095 85.0168 98.0136 85.0476 98.7051C85.0688 99.1799 85.1596 99.4991 85.2204 100.018C85.2792 100.52 85.3427 100.924 85.4035 101.422C85.4575 101.865 85.5661 102.265 85.6375 102.805C85.6871 103.18 85.7089 103.548 85.7697 103.884C85.7901 103.976 85.8102 104.077 85.8206 104.169C85.831 104.261 85.831 104.342 85.831 104.425" stroke="#FFFEFC" stroke-width="1.5" stroke-linecap="round"/>
<path d="M85.8348 104.326C85.8348 104.739 85.9072 105.201 86.0293 105.682C86.1758 106.26 86.2121 106.505 86.2793 106.883C86.3383 107.215 86.3948 107.576 86.4257 107.865C86.4435 108.031 86.5045 108.465 86.5597 108.754C86.5998 108.964 86.6025 109.187 86.6388 109.491C86.671 109.76 86.7238 110.269 86.7547 110.612C86.7757 110.845 86.8335 111.352 86.8947 112.018C86.9055 112.136 86.919 112.196 86.9313 113.475C86.9435 114.755 86.9556 117.252 86.9497 118.562C86.9437 119.921 86.8828 120.019 86.8525 120.134C86.7497 120.525 86.5783 120.908 86.3718 121.316C86.2527 121.551 86.0673 121.76 85.9268 121.986C85.6806 122.382 85.6038 122.675 85.4516 122.979C85.3399 123.202 85.2624 123.43 84.9771 124.256C84.672 125.139 84.6651 125.672 84.6348 125.867C84.5708 126.277 84.592 127.08 84.6284 127.567C84.6651 127.72 84.6892 127.83 84.7378 127.902C84.7623 127.939 84.7865 127.975 84.8113 128.013" stroke="#FFFEFC" stroke-width="1.5" stroke-linecap="round"/>
<path d="M84.8125 128.012C84.9949 128.182 85.1649 128.304 85.3904 128.408C85.58 128.495 86.3653 128.487 86.8769 128.445C87.1654 128.421 87.2613 128.305 87.3281 128.329C87.5377 128.404 87.6264 128.73 87.7971 128.919C87.9394 129.077 88.1016 129.278 88.3507 129.443C88.8503 129.774 89.2706 129.62 89.5695 129.572C89.8774 129.522 90.0507 129.353 90.234 129.249C90.452 129.126 90.5873 128.987 90.7214 128.799C90.9939 128.417 90.9777 128.268 91.0323 128.22C91.149 128.115 91.3791 128.377 91.7556 128.553C92.5577 128.93 92.8171 128.877 93.0545 128.895C93.2812 128.913 93.5723 128.902 93.7796 128.762C94.0484 128.581 94.0482 128.378 94.1091 128.238C94.1247 128.202 94.1696 128.183 94.2063 128.171C94.391 128.108 94.6448 128.256 95.0096 128.244C95.1623 128.239 95.23 128.049 95.2909 127.91C95.3974 127.665 95.3642 127.428 95.3402 126.39C95.3335 126.099 95.2552 125.869 95.164 125.565C95.0937 125.331 94.9873 125.041 94.8477 124.616C94.683 124.115 94.5603 123.76 94.5119 123.56C94.3818 123.022 94.2193 122.749 94.1402 122.536C94.0663 122.337 94 122.14 93.9208 121.975C93.7662 121.653 93.5738 121.177 93.4822 121C93.3952 120.833 93.342 120.605 93.2872 120.416C93.2393 120.25 93.1351 120.021 93.0375 119.612C93.013 119.508 92.9889 119.412 92.9704 119.344C92.952 119.276 92.9399 119.24 92.8909 119.166" stroke="#FFFEFC" stroke-width="1.5" stroke-linecap="round"/>
<path d="M92.8867 119.203C92.8867 119.143 92.8867 119.082 92.8988 118.538C92.9108 117.995 92.935 116.969 92.9534 116.405C92.9779 115.657 93.0688 115.294 93.1121 115.018C93.1532 114.756 93.2274 114.465 93.2826 114.178C93.3207 113.979 93.3495 113.733 93.368 113.568C93.3906 113.366 93.4226 113.172 93.4411 113.026C93.4471 112.989 93.4592 112.953 93.4654 112.892C93.4716 112.831 93.4716 112.747 93.4716 112.66" stroke="#FFFEFC" stroke-width="1.5" stroke-linecap="round"/>
<path d="M93.4371 112.733C93.4371 112.043 93.4129 111.114 93.3641 110.864C93.3035 110.553 93.2543 110.261 93.2239 110.071C93.1996 109.92 93.1812 109.749 93.1448 109.535C93.0899 109.214 93.0474 108.872 92.9622 108.391C92.8834 107.946 92.8646 107.678 92.8219 107.428C92.7631 107.084 92.7425 106.739 92.6515 106.228C92.5688 105.765 92.4135 105.106 92.2922 104.486C92.226 104.148 92.2308 103.827 92.2004 103.493C92.1138 102.539 92.279 102.074 92.3342 101.78C92.3404 101.694 92.3525 101.621 92.3708 101.494C92.377 101.403 92.377 101.258 92.377 101.109" stroke="#FFFEFC" stroke-width="1.5" stroke-linecap="round"/>
<path d="M92.375 101.109C92.375 100.222 92.3991 99.466 92.4843 99.1421C92.6172 98.6367 92.8612 98.0287 93.0021 97.7708C93.135 97.5276 93.3488 97.2962 93.5076 97.0642C93.6592 96.8429 93.9695 96.4203 94.2323 96.0168C94.3907 95.7735 94.7123 95.554 95.1452 95.2067C95.6492 94.8025 95.98 94.6277 96.4427 94.2688C96.7648 94.019 96.8832 93.7618 96.9075 93.6888C96.9664 93.5121 96.8236 93.118 96.6827 92.8846C96.5824 92.7184 96.3967 92.6772 96.2503 92.6284C96.1773 92.6041 96.0436 92.5917 95.8792 92.5977C95.6583 92.6058 95.4587 92.9557 95.2088 93.4185C95.1266 93.5709 95.0197 93.7479 94.8077 94.2505C94.6523 94.6189 94.4147 95.2236 94.2844 95.5644C94.0909 96.0706 93.96 96.5117 93.8072 96.91C93.6801 97.2413 93.4731 97.9234 93.3561 98.4694C93.2819 98.8158 93.2768 99.0248 93.2585 99.6104C93.2414 100.16 93.2523 101.221 93.2583 101.786C93.2662 102.522 93.313 102.814 93.3314 103.009C93.3523 103.229 93.3861 103.447 93.4045 103.691C93.4224 103.926 93.4957 104.142 93.5142 104.325C93.5334 104.515 93.642 104.654 93.7211 104.891C93.7516 104.983 93.7882 105.056 93.8247 105.153C93.8372 105.214 93.8372 105.299 93.8372 105.386" stroke="#FFFEFC" stroke-width="1.5" stroke-linecap="round"/>
<path d="M93.8398 105.385C93.8398 105.714 93.9122 106.39 93.9859 106.828C94.0383 107.14 94.0957 107.48 94.2171 108.052C94.274 108.32 94.315 108.492 94.4061 108.85C94.4656 109.085 94.5461 109.501 94.6073 109.862C94.6436 110.076 94.6923 110.367 94.7475 110.672C94.7537 110.866 94.7658 111.014 94.784 111.449C94.7902 111.848 94.7902 112.608 94.7902 113.391" stroke="#FFFEFC" stroke-width="1.5" stroke-linecap="round"/>
<path d="M94.7891 113.391C94.7891 113.609 94.8373 113.902 94.9409 114.079C95.0465 114.259 95.1904 114.462 95.3427 114.67C95.6109 115.035 95.8959 115.266 96.1226 115.45C96.3861 115.664 96.7491 115.803 97.0059 115.877C97.2133 115.936 97.5291 116.011 97.7432 116.029C97.91 116.043 98.1264 116.084 98.3704 116.102C98.6395 116.122 98.9548 116.157 99.2295 116.175C99.696 116.207 100.502 116.23 100.746 116.248C101.005 116.268 101.222 116.34 101.501 116.443C101.894 116.588 102.05 116.717 102.209 116.796C102.421 116.903 102.684 117.034 102.952 117.204C103.141 117.324 103.342 117.436 103.713 117.673C104.06 117.85 104.45 118.045 104.628 118.112C104.67 118.131 104.719 118.155 104.805 118.216" stroke="#FFFEFC" stroke-width="1.5" stroke-linecap="round"/>
<path d="M104.8 118.216C104.836 118.216 104.872 118.216 105.554 118.228C106.236 118.24 107.563 118.264 108.391 118.24C109.513 118.208 109.856 118.045 109.989 117.991C110.359 117.839 110.538 117.79 111.097 117.48C111.521 117.245 111.781 116.901 111.927 116.778C112.088 116.644 112.098 116.462 112.074 116.255C112.026 115.831 111.599 115.718 111.362 115.59C111.196 115.501 110.979 115.402 110.777 115.316C110.536 115.214 110.321 115.109 110.089 114.981C109.614 114.719 109.223 114.622 108.81 114.488C108.482 114.381 108.153 114.184 107.21 113.891C106.763 113.753 106.374 113.66 105.959 113.562C105.749 113.512 105.472 113.428 105.119 113.355C104.744 113.277 104.375 113.196 103.986 113.069C103.105 112.78 102.815 112.538 102.583 112.416C102.371 112.305 102.071 112.149 101.809 111.881C101.559 111.515 101.388 111.175 101.297 110.888C101.278 110.832 101.266 110.796 101.254 110.759" stroke="#FFFEFC" stroke-width="1.5" stroke-linecap="round"/>
<path d="M101.26 110.759C101.381 109.713 101.648 109.032 101.778 108.749C101.847 108.598 101.93 108.457 102.143 108.038C102.26 107.806 102.489 107.17 102.667 106.721C102.87 106.209 102.977 105.838 103.166 105.217C103.214 105.062 103.258 104.791 103.355 104.396C103.52 103.726 103.636 103.01 103.666 102.743C103.753 101.979 103.612 101.78 103.527 101.615C103.434 101.436 103.308 101.268 103.161 101.103C103.015 100.939 102.869 100.817 102.717 100.744C102.541 100.659 101.899 100.67 101.42 100.719C101.02 100.759 100.822 100.95 100.524 101.096C100.24 101.235 99.9083 101.474 99.0523 102.148C98.6053 102.5 98.3971 102.754 98.0285 103.14C97.7008 103.484 97.117 104.154 96.7582 104.58C96.1149 105.344 96.0701 105.604 96.0509 105.8C96.0479 105.83 96.1052 105.824 96.1419 105.818C96.1787 105.812 96.2148 105.8 97.4096 104.895C98.6044 103.991 100.957 102.193 102.259 101.213C103.561 100.233 103.742 100.124 103.908 100.02C104.22 99.8232 104.464 99.6717 104.658 99.5624C104.853 99.4289 105.097 99.2458 105.443 98.9546C105.644 98.7721 105.897 98.5187 106.195 98.2212" stroke="#FFFEFC" stroke-width="1.5" stroke-linecap="round"/>
<path d="M106.229 98.1842C106.338 97.9046 106.46 97.6856 106.648 97.2735C107.032 96.4311 107.338 95.809 107.374 95.6571C107.452 95.332 107.593 95.0304 107.648 94.6948C107.694 94.4141 107.63 94.2002 107.582 94.1273C107.533 94.0544 107.472 93.9929 107.393 93.9564C107.22 93.8763 106.986 93.9315 106.705 94.0288C106.369 94.1454 106.061 94.8776 105.888 95.2288C105.792 95.425 105.657 95.6847 105.504 96.0385C105.405 96.2677 105.316 96.562 105.218 96.9098C105.169 97.0822 105.145 97.3296 105.06 97.6893C104.969 98.0706 104.962 98.22 104.919 98.4878C104.886 98.6934 104.876 98.9387 104.816 99.419C104.772 99.7655 104.767 100.349 104.736 100.73C104.71 101.059 104.694 101.351 104.657 101.613C104.608 101.971 104.596 102.192 104.548 102.478C104.509 102.704 104.487 102.995 104.444 103.246C104.396 103.529 104.401 103.727 104.371 103.959C104.365 104.164 104.353 104.349 104.334 104.531C104.328 104.652 104.328 104.833 104.328 105.02" stroke="#FFFEFC" stroke-width="1.5" stroke-linecap="round"/>
<path d="M104.328 105.02C104.328 105.044 104.328 105.068 104.358 105.973C104.388 106.878 104.449 108.664 104.486 109.626C104.526 110.672 104.547 110.928 104.553 111.202C104.564 111.695 104.608 112.403 104.627 112.883C104.633 112.988 104.645 113.025 104.651 113.073C104.657 113.122 104.657 113.183 104.657 113.245" stroke="#FFFEFC" stroke-width="1.5" stroke-linecap="round"/>
<path d="M104.625 112.989C104.625 113.109 104.625 113.23 104.625 113.829C104.625 114.428 104.625 115.501 104.631 116.097C104.639 116.901 104.698 117.046 104.741 117.258C104.853 117.823 104.917 118.142 105.136 119.017C105.212 119.32 105.343 119.953 105.556 120.781C105.646 121.131 105.709 121.261 105.764 121.425C105.816 121.583 106.049 122.195 106.353 123.084C106.519 123.569 106.623 123.735 106.792 124.031C107.213 124.768 107.5 125.331 107.627 125.525C108.047 126.166 108.28 126.221 108.468 126.355C108.65 126.484 108.876 126.441 109.114 126.489C109.464 126.56 109.644 126.684 109.858 126.763C110.097 126.852 110.327 126.867 110.497 126.891C110.77 126.93 110.96 126.977 111.452 127.14C111.913 127.294 112.069 127.403 112.282 127.482C112.622 127.608 112.873 127.744 113.062 127.823C113.222 127.89 113.638 127.903 114.346 127.685C114.843 127.531 115.017 127.282 115.267 127.105C115.52 126.927 115.748 126.722 115.883 126.521C116.005 126.339 116.091 126.064 116.097 125.207C116.1 124.743 115.836 124.286 115.659 124.017C115.493 123.765 115.36 123.627 115.19 123.438C114.938 123.159 114.413 122.449 114.087 122.055C113.669 121.549 113.496 121.287 113.307 121.08C113.107 120.86 112.814 120.544 112.51 120.209C112.279 119.956 112.119 119.704 111.906 119.417C111.695 119.133 111.499 118.803 111.26 118.382C111.094 118.089 111.034 117.851 110.652 116.801C110.547 116.316 110.523 116.048 110.48 115.46C110.474 115.103 110.474 114.476 110.474 113.83" stroke="#FFFEFC" stroke-width="1.5" stroke-linecap="round"/>
<path d="M110.406 113.862C110.406 113.297 110.384 112.626 110.367 112.354C110.354 112.135 110.317 111.825 110.3 111.429C110.288 111.144 110.25 110.789 110.234 110.161C110.23 110.019 110.217 109.953 110.211 109.583C110.206 109.212 110.206 108.54 110.211 108.149C110.239 107.502 110.25 107.29 110.267 107.102C110.272 106.969 110.272 106.759 110.272 106.543" stroke="#FFFEFC" stroke-width="1.5" stroke-linecap="round"/>
<path d="M110.277 106.543C110.277 106.213 110.277 105.882 110.277 105.325C110.277 104.769 110.277 103.997 110.332 103.258C110.388 102.518 110.498 101.834 110.566 101.427C110.678 100.752 110.7 100.596 110.751 100.268C110.837 99.706 110.901 99.2819 110.918 98.8425C110.928 98.5772 110.979 98.2908 111.007 98.1173C111.033 97.9568 111.046 97.712 111.079 97.4381C111.09 97.3875 111.101 97.3544 111.113 97.3098C111.124 97.2652 111.135 97.2101 111.146 97.0864" stroke="#FFFEFC" stroke-width="1.5" stroke-linecap="round"/>
<path d="M111.148 97.3202C111.148 97.0225 111.148 96.7247 111.143 96.2074C111.137 95.6901 111.126 94.9623 111.104 94.455C111.07 93.6819 111.015 93.3442 110.998 93.1833C110.953 92.7461 110.749 92.178 110.647 91.7629C110.575 91.4669 110.558 91.2396 110.541 91.0385C110.508 90.6399 110.536 90.0359 110.608 89.7191C110.667 89.4602 110.691 89.1464 110.77 88.7056C110.781 88.5769 110.792 88.4984 110.814 88.4262C110.825 88.3871 110.836 88.343 110.848 88.2642" stroke="#FFFEFC" stroke-width="1.5" stroke-linecap="round"/>
<path d="M110.844 88.2637C110.844 88.0542 110.844 87.8447 110.888 86.9814C110.932 86.118 111.02 84.6072 111.082 83.6801C111.144 82.7529 111.177 82.4552 111.205 82.1309C111.263 81.4653 111.289 81.0573 111.306 80.8801C111.335 80.5718 111.323 80.3111 111.339 79.5492C111.355 78.8536 111.345 77.5301 111.351 76.8319C111.356 76.1336 111.367 76.1006 111.373 76.0063C111.378 75.9121 111.378 75.7577 111.378 75.5986" stroke="#FFFEFC" stroke-width="1.5" stroke-linecap="round"/>
<path d="M111.383 75.6323C111.328 74.8273 111.273 74.0223 111.222 73.5248C111.172 73.0274 111.128 72.862 111 72.264C110.873 71.666 110.663 70.6404 110.522 70.0239C110.34 69.2249 110.236 69.005 110.181 68.8389C109.978 68.2296 109.825 67.8815 109.74 67.6463C109.679 67.4745 109.623 67.3455 109.584 67.1951C109.579 67.0788 109.568 66.9776 109.551 66.8833C109.545 66.8222 109.545 66.734 109.512 66.6431" stroke="#FFFEFC" stroke-width="1.5" stroke-linecap="round"/>
<path d="M93.4688 61.3296C93.6672 61.5943 93.8136 61.7968 94.3712 62.2995C94.8717 62.7509 95.8661 63.5411 96.4213 63.9779C97.0596 64.48 97.3435 64.6035 97.6106 64.7594C97.7409 64.8354 97.8678 64.9046 98.0401 65.0324C98.1999 65.151 98.5675 65.4817 99.0406 65.927C99.3875 66.2536 99.6603 66.3522 100.289 66.5477C100.617 66.6498 100.919 66.6095 101.409 66.5098C101.699 66.4509 102.01 66.2098 102.323 65.9976C102.524 65.8612 102.791 65.7082 103.069 65.4862C103.382 65.2358 103.649 64.9179 103.932 64.5186C104.324 63.9645 104.518 63.5248 104.602 63.2755C104.875 62.4999 104.897 62.2773 104.925 62.0659C104.931 61.9662 104.931 61.8008 104.897 61.5969" stroke="#FFFEFC" stroke-width="1.5" stroke-linecap="round"/>
<path d="M104.897 61.5973C104.685 61.3972 104.419 61.2197 104.09 60.9136C103.731 60.5793 103.627 60.3726 103.494 59.9968C103.382 59.6802 103.229 59.0917 103.149 58.7465C103.051 58.3189 103.147 58.1009 103.302 57.8454C103.494 57.5299 103.793 57.354 104.031 57.2262C104.328 57.0672 104.584 57.0416 104.828 57.0194C105.334 56.9731 105.842 57.0078 106.197 57.0688C106.795 57.1714 106.934 57.3306 107.268 57.597C107.773 58.0014 107.793 58.2102 107.832 58.4494C107.89 58.8076 107.726 58.9901 107.565 59.257C107.317 59.6674 106.914 59.9927 106.68 60.2097C106.473 60.4016 106.212 60.5607 106.061 60.6613C105.89 60.7754 105.733 60.8842 105.549 60.9897C105.309 61.2405 105.231 61.3741 105.17 61.4575C105.142 61.4968 105.12 61.5298 105.097 61.5973" stroke="#FFFEFC" stroke-width="1.5" stroke-linecap="round"/>
<path d="M105.098 61.5977C105.23 61.8844 105.364 62.1204 105.652 62.4525C106.225 63.1143 106.668 63.5245 106.784 63.6131C107.173 63.9093 107.303 63.981 107.52 64.0925C107.666 64.1679 107.848 64.2484 108.121 64.3376C108.354 64.4138 108.616 64.4936 108.806 64.5105C108.896 64.5185 108.996 64.5274 109.107 64.4941C109.338 64.425 109.485 64.1167 109.575 63.9098C109.636 63.7714 109.609 63.3829 109.587 62.8602C109.559 62.1979 109.364 61.8784 109.303 61.51C109.264 61.2883 109.23 61.1302 109.214 60.865C109.208 60.633 109.208 60.2029 109.208 59.7598" stroke="#FFFEFC" stroke-width="1.5" stroke-linecap="round"/>
<path d="M109.207 59.759C109.207 59.6597 109.207 59.5605 109.207 59.1124C109.207 58.6643 109.207 57.8703 109.251 57.2021C109.295 56.5339 109.383 56.0156 109.44 55.7155C109.545 55.1555 109.808 54.8808 110.047 54.4086C110.162 54.1825 110.187 54.0784 110.22 54.0338C110.378 53.8225 110.51 54.7678 110.632 55.1937C110.728 55.5294 110.864 56.1159 110.96 56.4776C111.14 57.1564 111.223 57.3964 111.395 57.7304C111.463 57.8613 111.546 58.0313 111.734 58.2977C112.227 58.9943 112.68 59.2009 112.882 59.2965C113.038 59.37 113.194 59.4024 113.278 59.4026C113.479 59.403 113.495 59.0024 113.512 58.4246C113.522 58.0867 113.385 57.8221 113.273 57.5548C112.997 56.892 112.694 56.5516 112.588 56.318C112.48 56.0781 112.404 55.8726 112.387 55.239C112.404 55.0592 112.437 54.9696 112.482 54.8863C112.504 54.847 112.526 54.8139 112.616 54.713" stroke="#FFFEFC" stroke-width="1.5" stroke-linecap="round"/>
<path d="M110.275 54.4797C110.264 53.6747 110.253 52.8697 110.214 52.2289C110.176 51.5881 110.109 51.136 109.932 50.4951C109.755 49.8541 109.468 49.0381 109.028 48.138C108.588 47.2379 108.004 46.2785 107.647 45.7291C107.208 45.0512 107.001 44.9117 106.851 44.8008C106.505 44.5445 106.377 44.355 106.232 44.2766C106.199 44.2544 106.166 44.2213 106.132 44.1988C106.098 44.1762 106.065 44.1652 106.031 44.1538" stroke="#FFFEFC" stroke-width="1.5" stroke-linecap="round"/>
<path d="M91.7656 44.4207C92.2883 44.1096 92.5777 43.8867 93.0831 43.5313C93.264 43.4041 93.4986 43.2651 94.2245 42.9432C94.9503 42.6212 96.1633 42.1249 96.8654 41.8472C97.7162 41.5107 97.9361 41.4579 98.3781 41.3694C98.7629 41.2923 99.4817 41.1926 100.386 41.1192C101.29 41.0459 102.36 41.0128 102.933 41.0013C103.629 40.9873 103.762 41.0897 104.007 41.2121C104.063 41.2457 104.096 41.2788 104.129 41.3069C104.163 41.335 104.196 41.357 104.23 41.4132" stroke="#FFFEFC" stroke-width="1.5" stroke-linecap="round"/>
<path d="M104.227 41.4135C104.437 41.3246 104.726 41.2798 105.154 41.2466C105.919 41.187 106.498 41.235 106.621 41.2795C106.724 41.3169 106.81 41.3577 107.125 41.5508C107.404 41.7214 107.892 42.0858 108.17 42.2952C108.503 42.546 108.835 42.9253 109.297 43.4097C109.583 43.7091 109.751 43.9191 109.874 44.064C110.018 44.2344 110.163 44.4197 110.336 44.6431C110.475 44.7993 110.564 44.9219 110.614 44.9941C110.642 45.0332 110.675 45.0773 110.776 45.1562" stroke="#FFFEFC" stroke-width="1.5" stroke-linecap="round"/>
<path d="M110.777 45.1562C111.044 45.4563 111.245 45.6348 111.611 45.9345C112.027 46.2747 112.29 46.525 112.514 46.7207C112.701 46.884 112.871 47.1158 113.293 47.6936C113.51 47.99 113.573 48.1631 113.662 48.3631C113.774 48.6156 113.785 48.8428 113.79 48.9262C113.795 49.0003 113.818 49.5509 113.807 50.4079C113.801 50.8911 113.751 51.0818 113.707 51.2975C113.536 52.1363 113.373 52.3837 113.273 52.696C113.116 53.1835 112.995 53.4972 112.866 53.8601C112.737 54.2252 112.638 54.3674 112.554 54.5958C112.537 54.6464 112.526 54.6795 112.521 54.7296C112.515 54.7797 112.515 54.8459 112.515 54.9141" stroke="#FFFEFC" stroke-width="1.5" stroke-linecap="round"/>
</svg>
