<svg width="185" height="185" viewBox="0 0 185 185" fill="none" xmlns="http://www.w3.org/2000/svg">
<circle cx="92.7361" cy="92.4978" r="91.2127" fill="currentColor" stroke="#FFFEFC" stroke-width="2"/>
<path d="M57.2374 158.979L61.7754 148.739L63.4869 149.498L65.8796 160.131L65.5319 160.047C65.6139 159.757 65.7029 159.464 65.799 159.168C65.8994 158.862 66.0041 158.547 66.1132 158.222C66.232 157.901 66.3573 157.566 66.489 157.216C66.6306 156.87 66.7785 156.51 66.933 156.135C67.0918 155.751 67.2642 155.349 67.45 154.929L68.8114 151.857L70.6984 152.694L66.1604 162.933L64.4197 162.162L61.9458 151.632L62.3715 151.698C62.1782 152.266 62.0098 152.751 61.8662 153.155C61.7366 153.552 61.6189 153.897 61.5131 154.188C61.4116 154.47 61.3247 154.705 61.2523 154.895C61.1897 155.089 61.1238 155.264 61.0546 155.42C60.9996 155.571 60.9418 155.714 60.8813 155.851L59.1244 159.815L57.2374 158.979ZM70.3002 164.56L72.6176 156.452L74.5098 156.993L72.1924 165.101L70.3002 164.56ZM74.0331 154.993C73.6536 154.885 73.3826 154.707 73.22 154.461C73.0706 154.208 73.0457 153.907 73.1453 153.558C73.2392 153.23 73.4231 152.994 73.6971 152.85C73.9711 152.707 74.2927 152.688 74.6619 152.793C75.0516 152.905 75.3212 153.087 75.4706 153.341C75.6332 153.587 75.6632 153.889 75.5606 154.248C75.4697 154.566 75.2873 154.797 75.0133 154.941C74.7393 155.084 74.4126 155.102 74.0331 154.993ZM79.6936 166.87C78.9155 166.737 78.2487 166.428 77.693 165.944C77.1374 165.459 76.7365 164.86 76.4904 164.147C76.2443 163.434 76.1914 162.668 76.3315 161.848C76.4717 161.028 76.7762 160.322 77.2451 159.731C77.714 159.141 78.291 158.709 78.976 158.436C79.661 158.164 80.3926 158.094 81.1706 158.227C81.9171 158.355 82.571 158.613 83.1323 159.001C83.6937 159.389 84.0994 159.864 84.3496 160.426L83.0561 161.536C82.9362 161.288 82.7705 161.054 82.5593 160.834C82.348 160.614 82.1146 160.428 81.8592 160.276C81.6038 160.125 81.3395 160.025 81.0661 159.979C80.6035 159.9 80.1684 159.944 79.7608 160.113C79.3656 160.272 79.0287 160.534 78.7502 160.898C78.4734 161.251 78.2928 161.674 78.2083 162.168C78.1239 162.663 78.1536 163.122 78.2974 163.547C78.4517 163.974 78.6931 164.334 79.0215 164.629C79.35 164.923 79.7403 165.109 80.1924 165.186C80.4658 165.233 80.7358 165.235 81.0025 165.194C81.2815 165.145 81.5511 165.056 81.8112 164.927C82.0712 164.798 82.3227 164.625 82.5656 164.406L83.4143 165.899C82.9778 166.3 82.4189 166.594 81.7378 166.781C81.0689 166.959 80.3875 166.988 79.6936 166.87ZM90.0939 167.913C89.2515 167.893 88.5043 167.687 87.8523 167.298C87.2007 166.898 86.691 166.362 86.3234 165.692C85.9558 165.021 85.7824 164.265 85.8032 163.422C85.8239 162.58 86.0344 161.833 86.4346 161.181C86.8347 160.529 87.37 160.025 88.0403 159.668C88.7109 159.301 89.4674 159.127 90.3098 159.148C91.1415 159.168 91.8833 159.379 92.5349 159.779C93.1869 160.168 93.6913 160.698 94.0482 161.369C94.4158 162.039 94.5893 162.796 94.5685 163.638C94.5478 164.481 94.3373 165.228 93.9371 165.879C93.5476 166.531 93.0176 167.041 92.347 167.409C91.6767 167.766 90.9256 167.934 90.0939 167.913ZM90.1368 166.17C90.5953 166.181 91.0034 166.074 91.3611 165.848C91.7295 165.622 92.0198 165.315 92.2321 164.925C92.4551 164.536 92.5674 164.09 92.5691 163.589C92.5924 163.077 92.5023 162.622 92.2987 162.222C92.1058 161.822 91.8309 161.506 91.4738 161.273C91.1277 161.03 90.7254 160.903 90.2668 160.891C89.8083 160.88 89.3896 160.987 89.0106 161.213C88.6425 161.428 88.3522 161.735 88.1396 162.135C87.9272 162.525 87.8149 162.97 87.8026 163.472C87.7902 163.973 87.8805 164.423 88.0734 164.823C88.2663 165.222 88.5411 165.544 88.8979 165.787C89.2653 166.031 89.6783 166.159 90.1368 166.17ZM97.8245 167.806L96.719 156.018L98.6944 155.832L99.7998 167.621L97.8245 167.806ZM107.424 166.517C106.557 166.693 105.751 166.667 105.008 166.437C104.275 166.205 103.657 165.814 103.153 165.263C102.657 164.7 102.326 164.011 102.16 163.196C102.028 162.548 102.013 161.936 102.113 161.36C102.214 160.785 102.408 160.266 102.695 159.805C102.99 159.331 103.373 158.938 103.842 158.624C104.32 158.299 104.868 158.073 105.484 157.947C106.028 157.837 106.556 157.838 107.069 157.951C107.582 158.065 108.048 158.269 108.467 158.565C108.885 158.85 109.233 159.225 109.513 159.691C109.801 160.144 109.999 160.664 110.108 161.252L110.23 161.929L103.535 163.292L102.906 162.048L108.347 160.941L108.15 161.258L108.08 160.913C107.983 160.596 107.821 160.335 107.594 160.13C107.365 159.916 107.096 159.769 106.786 159.691C106.485 159.6 106.167 159.588 105.832 159.656C105.32 159.761 104.906 159.948 104.591 160.219C104.287 160.488 104.084 160.829 103.983 161.241C103.88 161.643 103.885 162.121 103.997 162.675C104.106 163.208 104.31 163.651 104.611 164.003C104.921 164.354 105.303 164.597 105.755 164.734C106.216 164.858 106.723 164.863 107.277 164.75C107.664 164.672 108.006 164.537 108.305 164.345C108.603 164.154 108.908 163.858 109.218 163.457L110.446 164.595C110.217 164.914 109.939 165.205 109.611 165.467C109.292 165.717 108.944 165.935 108.568 166.12C108.192 166.306 107.811 166.438 107.424 166.517ZM123.773 161.246C123.184 161.522 122.609 161.702 122.048 161.787C121.483 161.863 120.932 161.844 120.396 161.729C119.86 161.615 119.338 161.418 118.83 161.137L119.412 159.17C120.192 159.605 120.868 159.843 121.44 159.882C122.011 159.921 122.582 159.807 123.152 159.54C123.481 159.387 123.758 159.199 123.983 158.976C124.204 158.743 124.351 158.503 124.425 158.257C124.494 158.001 124.474 157.757 124.365 157.525C124.289 157.361 124.185 157.227 124.054 157.123C123.928 157.006 123.778 156.923 123.602 156.875C123.423 156.818 123.218 156.784 122.989 156.773C122.761 156.762 122.515 156.777 122.251 156.818C121.987 156.859 121.702 156.916 121.395 156.989C120.814 157.131 120.284 157.207 119.807 157.219C119.325 157.22 118.887 157.154 118.495 157.019C118.098 156.875 117.76 156.668 117.481 156.398C117.197 156.119 116.956 155.767 116.757 155.341C116.558 154.916 116.467 154.482 116.484 154.039C116.51 153.591 116.626 153.16 116.833 152.745C117.039 152.331 117.326 151.949 117.693 151.601C118.061 151.253 118.495 150.961 118.998 150.727C119.568 150.46 120.107 150.291 120.615 150.218C121.132 150.141 121.623 150.159 122.088 150.271C122.558 150.37 122.992 150.555 123.39 150.828L122.719 152.643C122.386 152.434 122.053 152.289 121.722 152.209C121.385 152.119 121.054 152.091 120.729 152.125C120.399 152.15 120.079 152.234 119.77 152.379C119.422 152.542 119.14 152.732 118.925 152.951C118.719 153.165 118.586 153.397 118.527 153.649C118.463 153.891 118.49 154.137 118.607 154.388C118.698 154.581 118.823 154.735 118.982 154.849C119.137 154.953 119.318 155.027 119.527 155.071C119.746 155.11 120.001 155.115 120.293 155.084C120.585 155.054 120.906 154.998 121.256 154.916C121.837 154.774 122.384 154.696 122.895 154.681C123.401 154.656 123.863 154.699 124.28 154.81C124.692 154.912 125.05 155.086 125.354 155.333C125.653 155.57 125.893 155.881 126.074 156.268C126.385 156.935 126.494 157.584 126.401 158.216C126.313 158.834 126.045 159.407 125.597 159.934C125.145 160.452 124.536 160.889 123.773 161.246ZM130.822 157.6L126.393 150.424L128.068 149.391L132.496 156.566L130.822 157.6ZM126.269 148.395C125.933 148.603 125.619 148.683 125.328 148.638C125.04 148.577 124.801 148.393 124.61 148.084C124.431 147.794 124.381 147.499 124.459 147.2C124.538 146.9 124.741 146.65 125.067 146.448C125.412 146.235 125.729 146.159 126.017 146.22C126.308 146.265 126.552 146.447 126.748 146.765C126.922 147.046 126.969 147.336 126.891 147.636C126.812 147.935 126.605 148.188 126.269 148.395ZM135.851 154.293L130.37 147.886L131.841 146.627L132.967 147.895L132.808 148.201C132.7 147.928 132.643 147.639 132.637 147.336C132.623 147.025 132.662 146.718 132.754 146.415C132.839 146.104 132.963 145.815 133.128 145.548C133.285 145.272 133.482 145.034 133.717 144.833C134.065 144.535 134.422 144.328 134.786 144.213C135.152 144.083 135.525 144.059 135.904 144.141C136.292 144.217 136.686 144.399 137.087 144.687L136.815 144.836L136.745 144.558C136.668 144.288 136.645 144.006 136.675 143.713C136.699 143.412 136.76 143.115 136.858 142.82C136.95 142.517 137.077 142.239 137.241 141.987C137.412 141.728 137.607 141.505 137.826 141.318C138.313 140.902 138.801 140.652 139.292 140.569C139.782 140.487 140.279 140.574 140.781 140.833C141.282 141.091 141.783 141.513 142.282 142.096L145.59 145.963L144.082 147.252L140.858 143.483C140.58 143.159 140.307 142.929 140.038 142.795C139.776 142.654 139.515 142.611 139.253 142.666C138.993 142.706 138.733 142.837 138.474 143.059C138.271 143.232 138.108 143.435 137.984 143.668C137.861 143.885 137.79 144.114 137.771 144.355C137.746 144.587 137.766 144.816 137.831 145.04C137.897 145.265 138.013 145.474 138.179 145.669L141.456 149.499L139.948 150.788L136.713 147.007C136.45 146.699 136.187 146.482 135.924 146.356C135.655 146.221 135.39 146.174 135.13 146.214C134.862 146.246 134.607 146.366 134.364 146.574C134.161 146.748 134.002 146.947 133.886 147.173C133.763 147.39 133.689 147.615 133.663 147.848C133.638 148.08 133.658 148.309 133.723 148.533C133.789 148.758 133.905 148.967 134.072 149.162L137.358 153.004L135.851 154.293ZM150.838 140.479C150.308 141.135 149.69 141.602 148.984 141.881C148.269 142.154 147.534 142.232 146.779 142.115C146.023 141.998 145.318 141.674 144.662 141.144C144.007 140.615 143.543 139.992 143.27 139.278C142.997 138.564 142.924 137.832 143.049 137.083C143.166 136.327 143.49 135.622 144.02 134.967C144.543 134.32 145.161 133.86 145.876 133.587C146.582 133.307 147.31 133.23 148.058 133.356C148.814 133.473 149.52 133.796 150.175 134.326C150.83 134.856 151.294 135.478 151.567 136.193C151.847 136.899 151.928 137.63 151.811 138.385C151.685 139.134 151.361 139.832 150.838 140.479ZM149.482 139.383C149.77 139.026 149.934 138.637 149.972 138.216C150.018 137.786 149.951 137.369 149.771 136.963C149.599 136.549 149.314 136.188 148.918 135.881C148.526 135.551 148.11 135.345 147.669 135.263C147.234 135.172 146.816 135.198 146.414 135.339C146.01 135.465 145.664 135.706 145.376 136.063C145.087 136.42 144.917 136.817 144.865 137.255C144.811 137.678 144.878 138.095 145.066 138.508C145.245 138.913 145.53 139.274 145.92 139.589C146.31 139.904 146.722 140.107 147.156 140.198C147.59 140.288 148.013 140.266 148.423 140.132C148.84 139.989 149.193 139.739 149.482 139.383ZM155.431 134.286L148.194 129.96L149.179 128.312L150.678 129.171L150.654 129.585C150.379 129.297 150.189 128.94 150.082 128.516C149.966 128.086 149.935 127.639 149.989 127.174C150.043 126.71 150.185 126.285 150.415 125.9C150.743 125.351 151.127 124.959 151.565 124.724C152.009 124.48 152.506 124.398 153.055 124.477C153.609 124.548 154.216 124.78 154.875 125.174L159.298 127.817L158.288 129.507L153.989 126.937C153.623 126.718 153.291 126.588 152.993 126.546C152.685 126.499 152.414 126.548 152.178 126.693C151.933 126.833 151.725 127.056 151.553 127.364C151.406 127.611 151.31 127.864 151.266 128.124C151.219 128.37 151.222 128.614 151.276 128.857C151.326 129.086 151.415 129.3 151.543 129.501C151.677 129.693 151.854 129.855 152.074 129.986L156.441 132.597L155.94 133.434C155.842 133.599 155.749 133.755 155.661 133.901C155.579 134.039 155.502 134.167 155.431 134.286Z" fill="#FFFEFC"/>
<path d="M62.187 112.046C61.5024 112.046 60.8178 112.046 59.2364 112.038C57.6549 112.029 55.1974 112.011 53.8612 111.994C52.5249 111.976 52.3845 111.958 51.9348 111.949C51.485 111.94 50.7302 111.94 50.2711 111.949C49.6712 111.96 48.8599 111.993 47.779 111.985C46.991 111.978 46.6736 111.905 46.2659 111.834C45.9604 111.781 45.4342 111.622 44.822 111.462C43.958 111.237 43.6778 110.984 43.2692 110.762C43.087 110.663 43.0198 110.504 43.0019 110.39C42.9924 110.328 43.0192 110.257 43.0546 110.203C43.1933 109.993 43.7076 109.796 44.2235 109.644C44.6932 109.506 45.0214 109.511 45.8092 109.484C46.2125 109.471 46.5641 109.405 47.3253 109.378C48.1929 109.347 49.2599 109.299 49.4729 109.219C49.6912 109.137 49.7216 108.821 49.7485 108.457C49.7716 108.145 49.828 107.757 49.8903 107.447C50.0215 106.793 50.0057 106.427 50.1645 106.011C50.2887 105.685 50.5898 105.593 50.9701 105.513C51.6565 105.368 52.3771 105.786 52.9385 106.035C53.4252 106.251 54.2378 106.636 54.721 106.851C55.113 107.025 55.324 107.135 55.8006 107.426C57.1079 108.224 57.3804 108.287 57.6379 108.438C57.7177 108.482 57.823 108.535 57.9036 108.571C57.9842 108.606 58.0369 108.624 58.1443 108.695" stroke="#FFFEFC" stroke-width="1.5" stroke-linecap="round"/>
<path d="M54.4217 86.0342C54.4217 86.7959 54.3515 87.114 54.2182 87.5486C54.1028 87.925 54.0142 88.4258 53.952 88.7901C53.8875 89.1681 53.8015 89.7375 53.7746 90.2878C53.7401 90.9945 53.7653 92.1674 53.9688 92.6374C54.0812 92.8971 54.1909 93.1079 54.306 93.3209C54.4175 93.5271 54.5451 93.7462 54.6871 93.968C54.8457 94.2156 54.9356 94.4377 55.0154 94.6507C55.1034 94.8859 55.2547 95.1111 55.3699 95.3423C55.4788 95.5607 55.5207 95.8207 55.5829 96.2271C55.7335 97.2104 55.5037 97.54 55.3797 98.0009C55.2555 98.4629 55.1143 98.9219 54.963 99.4813C54.8472 99.9091 54.8122 100.2 54.7411 100.572C54.6607 100.994 54.6526 101.282 54.5903 101.645C54.5107 102.11 54.5281 102.399 54.4839 102.77C54.375 103.688 54.5632 103.976 54.5901 104.287C54.6188 104.62 54.7579 104.899 54.8558 105.209C54.9875 105.627 55.0951 105.909 55.2191 106.185C55.3273 106.425 55.4675 106.619 55.5914 106.832C55.7335 107.045 55.8223 107.205 55.8577 107.311C55.8755 107.364 55.893 107.417 55.9643 107.524" stroke="#FFFEFC" stroke-width="1.5" stroke-linecap="round"/>
<path d="M62.1836 111.979C62.3331 111.938 62.4492 111.855 62.5493 111.743C62.6965 111.578 62.7822 111.448 62.8615 111.306C63.0109 111.038 63.2151 110.607 63.3107 110.407C63.4424 110.132 63.5721 109.695 63.6563 109.371C63.6726 109.309 63.7061 109.209 63.7765 108.977C63.8963 108.583 63.956 108.302 64.0384 107.939C64.1137 107.607 64.2856 106.983 64.3828 106.627C64.4985 106.204 64.5961 105.924 64.7166 105.554C64.8486 105.148 64.9706 104.908 65.0542 104.691C65.1126 104.515 65.1376 104.44 65.1542 104.391C65.1625 104.366 65.1708 104.341 65.1793 104.315" stroke="#FFFEFC" stroke-width="1.5" stroke-linecap="round"/>
<path d="M65.1875 104.316C65.1875 104.217 65.2205 103.985 65.3037 103.685C65.3563 103.495 65.3952 103.377 65.4785 103.144C65.5239 103.017 65.5784 102.919 65.6325 102.757C65.6874 102.592 65.877 102.081 66.0027 101.708C66.0654 101.522 66.1771 101.239 66.24 101.051C66.3226 100.803 66.5186 100.447 66.639 100.169C66.809 99.7773 66.8266 99.5661 66.8807 99.2995C66.9277 99.0676 66.935 98.9001 66.9557 98.7167C66.9782 98.5175 66.9849 97.939 66.9642 97.5641C66.952 97.3436 66.9185 97.1276 66.9059 96.7536C66.9033 96.6775 66.8935 96.6528 66.8769 96.636C66.7696 96.5271 66.5111 96.6189 66.3863 96.6812C66.2511 96.7486 66.1207 96.9589 66.0158 97.1301C65.8649 97.3766 65.7956 97.583 65.6166 98.2309C65.5355 98.5246 65.537 98.7818 65.5204 99.2906C65.5095 99.6251 65.5285 100.227 65.5369 100.565C65.5467 100.962 65.562 101.103 65.5661 101.257C65.568 101.328 65.5784 101.386 65.5868 102.013C65.5952 102.64 65.6034 103.834 65.6777 105.002C65.7519 106.169 65.892 107.273 66.0053 108.056C66.1187 108.839 66.201 109.267 66.2476 109.5C66.3158 109.842 66.3523 110.024 66.3856 110.219C66.4162 110.399 66.4686 110.631 66.4897 110.827C66.5074 110.991 66.5356 111.139 66.5811 111.368C66.6138 111.532 66.6684 111.663 66.735 111.846C66.7848 111.983 66.8431 112.08 66.889 112.184C66.918 112.246 66.9432 112.304 66.9598 112.354C66.9682 112.379 66.9764 112.404 66.9849 112.43" stroke="#FFFEFC" stroke-width="1.5" stroke-linecap="round"/>
<path d="M67.0273 112.357C67.0273 112.377 67.225 112.634 67.5493 113.034C67.7179 113.241 67.8948 113.424 68.1091 113.664C68.2625 113.835 68.5529 114.103 69.0008 114.511C69.2277 114.718 69.5081 114.86 69.8433 115.021C70.5621 115.365 71.0306 115.512 71.1302 115.537C71.4316 115.613 71.8289 115.682 72.1531 115.732C72.2772 115.751 72.7047 115.782 73.3035 115.842C73.7349 115.885 74.1737 115.892 74.534 115.922C74.6827 115.934 74.9399 115.942 75.1069 115.952C75.2739 115.962 75.3431 115.972 76.1497 116.001C76.9563 116.031 78.4984 116.081 80.0871 116.132" stroke="#FFFEFC" stroke-width="1.5" stroke-linecap="round"/>
<path d="M80.0918 116.132C80.1116 116.132 80.1313 116.132 81.0954 116.132C82.0594 116.132 83.9672 116.132 84.9747 116.127C86.1229 116.121 86.2616 116.022 86.3717 115.922C86.5295 115.78 86.3922 115.413 86.3025 115.219C86.2351 115.072 86.1526 114.934 86.053 114.789C85.9073 114.577 85.4756 114.286 84.8516 113.936C84.624 113.809 84.1391 113.627 83.7322 113.421C83.5381 113.323 83.3579 113.187 83.1827 113.072C82.8934 112.881 82.7984 112.668 82.6882 112.503C82.5549 112.303 82.4485 112.129 82.3437 111.964C82.2345 111.792 82.179 111.639 82.0344 111.514C81.8611 111.364 81.611 111.299 81.2215 111.2C80.9565 111.132 80.7124 111.139 80.3427 111.124C80.1312 111.116 79.8929 111.08 79.7082 111.064C79.6434 111.059 79.5544 111.05 78.8661 111.044C78.1778 111.039 76.8928 111.039 76.2061 111.034C75.4698 111.029 75.34 111.009 75.1757 111.005C74.8103 110.994 74.4917 110.96 74.2616 110.945C74.09 110.933 73.9717 110.91 73.9019 110.88C73.8686 110.866 73.8519 110.83 73.8516 110.8C73.8502 110.665 74.0705 110.61 74.3148 110.451C74.5142 110.321 74.7193 110.161 74.9137 110.012C75.1589 109.824 75.3687 109.702 75.7696 109.425C76.1346 109.172 76.8131 108.673 77.1793 108.404C77.7243 107.985 78.0639 107.725 78.2341 107.615C78.2742 107.585 78.3137 107.546 78.3844 107.505" stroke="#FFFEFC" stroke-width="1.5" stroke-linecap="round"/>
<path d="M78.5 107.385C78.668 107.197 78.8361 107.009 79.1401 106.68C79.4441 106.351 79.8791 105.887 80.1179 105.623C80.3568 105.359 80.3865 105.309 80.5945 105.032C80.8025 104.754 81.188 104.25 81.7276 103.481C82.2673 102.713 82.9493 101.694 83.3353 101.111C83.7968 100.412 83.8815 100.237 83.9509 100.093C84.0666 99.8527 84.2798 99.4698 84.4744 99.0459C84.6601 98.6414 84.7297 98.3708 84.8545 97.9721C85.0513 97.3432 85.0898 96.8617 85.0947 96.7623C85.1194 96.265 85.0802 95.5647 85.0549 95.3941C85.02 95.2242 84.99 95.1244 84.9701 95.0497C84.9601 95.0145 84.9502 94.9848 84.9101 94.9243" stroke="#FFFEFC" stroke-width="1.5" stroke-linecap="round"/>
<path d="M84.9078 94.9253C84.8781 94.8361 84.6004 94.4389 84.265 94.1275C84.1842 94.0526 84.081 93.9686 83.7138 93.7103C83.3466 93.4519 82.714 93.0269 82.3683 92.803C81.8564 92.4714 81.3756 92.3302 81.1442 92.2298C80.9295 92.1367 80.7059 92.0702 80.4604 92.02C80.3843 92.0044 80.256 91.9899 80.0914 92.0047C79.9865 92.0142 79.9358 92.1193 79.876 92.2088C79.8069 92.3125 79.7659 92.5276 79.736 92.8856C79.6962 93.3608 79.7357 93.6868 79.7507 93.7864C79.7655 93.885 79.8348 94.3026 79.9645 94.8815C80.024 95.1467 80.0849 95.3432 80.1447 95.6123C80.1717 95.7339 80.2045 95.8221 80.3136 96.4512C80.4228 97.0802 80.6106 98.2466 80.7321 99.4998C80.8535 100.753 80.903 102.058 80.9235 102.77C80.944 103.481 80.9341 103.56 80.8994 103.739C80.7452 104.534 80.6843 104.709 80.6446 104.894C80.5844 105.174 80.5447 105.289 80.455 105.578C80.3798 105.82 80.395 105.987 80.3599 106.147C80.3128 106.363 80.3249 106.526 80.3 106.682C80.2691 106.875 80.265 106.996 80.2302 107.275C80.19 107.598 80.1553 107.774 80.1402 107.944C80.1128 108.253 80.0954 108.554 80.0902 109.146C80.0882 109.365 80.2045 109.482 80.2996 109.597C80.401 109.72 80.6136 109.742 81.1911 109.747C81.5747 109.751 82.049 109.623 82.3063 109.598C82.5028 109.578 82.7996 109.503 83.0896 109.478C83.1903 109.469 83.6159 109.453 84.2247 109.458C84.448 109.46 84.4974 109.473 84.7601 109.547C85.0228 109.621 85.4972 109.76 85.8801 109.851C86.5342 110.006 86.9137 110.022 87.1326 110.032C87.2626 110.038 87.4304 110.061 87.8877 110.086C88.3449 110.111 89.0863 110.141 89.5077 110.151C90.1391 110.142 90.3581 110.122 90.5284 110.087C90.5783 110.082 90.6475 110.082 90.7187 110.082" stroke="#FFFEFC" stroke-width="1.5" stroke-linecap="round"/>
<path d="M90.7344 110.045C90.7907 110.045 90.8469 110.045 91.692 110.045C92.5372 110.045 94.1694 110.045 95.0313 110.038C95.9357 110.03 96.2182 110.002 96.6299 109.995C96.8025 109.992 96.9008 109.974 97.5214 109.96C98.1421 109.946 99.2818 109.931 99.9112 109.917C100.541 109.903 100.625 109.889 101.85 109.882C103.076 109.874 105.44 109.874 106.777 109.853C108.355 109.828 108.699 109.732 108.897 109.697C109.246 109.635 109.466 109.576 109.665 109.533C109.842 109.496 110.035 109.42 110.255 109.363C110.446 109.314 110.702 109.264 110.98 109.192C111.257 109.121 111.598 109.008 111.875 108.894C112.158 108.778 112.465 108.596 112.657 108.51C112.857 108.421 113.034 108.354 113.247 108.297C113.36 108.269 113.461 108.24 113.574 108.219C113.645 108.211 113.743 108.211 113.845 108.211" stroke="#FFFEFC" stroke-width="1.5" stroke-linecap="round"/>
<path d="M113.848 108.212C114.425 108.001 115.001 107.79 117.1 107.013C119.198 106.236 122.8 104.899 124.712 104.182C126.624 103.465 126.737 103.409 126.837 103.366C127.165 103.225 127.363 103.11 127.534 103.053C127.577 103.038 127.619 103.024 127.662 103.01C127.705 102.996 127.747 102.982 127.919 102.967" stroke="#FFFEFC" stroke-width="1.5" stroke-linecap="round"/>
<path d="M114.484 107.957C114.709 108.013 114.896 108.112 115.009 108.24C115.086 108.326 115.095 108.735 115.089 109.331C115.079 110.169 114.216 110.812 114.002 111.075C113.581 111.595 112.925 112.046 112.567 112.355C112.143 112.719 111.702 113.127 111.457 113.421C111.307 113.602 111.258 113.854 111.258 114.414C111.258 114.598 111.357 114.693 111.428 114.778C111.617 115.005 111.953 115.063 112.202 115.113C112.375 115.147 112.537 115.106 112.988 114.866C113.389 114.653 114.114 114.205 114.744 113.868C115.375 113.53 115.881 113.305 116.318 113.14C117.096 112.846 117.638 112.747 117.964 112.676C118.523 112.554 119.128 112.265 119.719 112.065C120.355 111.85 120.809 111.652 120.964 111.603C121.625 111.393 122.272 111.141 122.528 111.055C123.136 110.852 123.962 110.657 124.212 110.607C124.319 110.6 124.433 110.586 124.736 110.565C124.983 110.558 125.42 110.558 125.869 110.558" stroke="#FFFEFC" stroke-width="1.5" stroke-linecap="round"/>
<path d="M125.746 110.541C125.981 110.541 126.216 110.541 126.517 110.581C126.818 110.622 127.178 110.703 127.896 110.906C128.614 111.109 129.678 111.432 130.249 111.602C130.82 111.772 130.864 111.78 131.085 111.839C131.306 111.897 131.702 112.008 132.31 112.207C132.919 112.407 133.726 112.694 134.466 112.922C135.205 113.151 135.851 113.312 136.206 113.406C136.685 113.534 137.019 113.7 137.232 113.808C137.35 113.868 137.606 113.945 137.811 114.009C137.982 114.062 138.133 114.109 138.278 114.15C138.439 114.195 138.556 114.242 138.66 114.283C138.814 114.344 138.979 114.383 139.116 114.432C139.243 114.476 139.409 114.509 139.561 114.532C139.781 114.569 139.928 114.584 140.07 114.595C140.1 114.599 140.122 114.606 140.167 114.613" stroke="#FFFEFC" stroke-width="1.5" stroke-linecap="round"/>
<path d="M140.167 114.613C140.81 114.613 141.324 114.598 141.361 114.565C141.432 114.501 141.465 114.347 141.502 114.217C141.566 113.992 141.495 113.612 141.421 113.438C141.306 113.169 141.205 113.078 141.065 112.83C140.94 112.61 140.783 112.477 140.683 112.366C140.579 112.25 140.479 112.114 140.415 111.991C140.306 111.779 140.152 111.669 139.971 111.417C139.817 111.204 139.722 111.105 139.393 110.772C139.264 110.642 139.151 110.563 139.051 110.474C138.884 110.326 138.647 110.104 138.413 109.885C138.224 109.708 138.127 109.629 138.027 109.536C137.919 109.436 137.816 109.347 137.719 109.254C137.626 109.165 137.519 109.065 137.434 108.968C137.274 108.812 137.185 108.753 137.096 108.69C137.074 108.671 137.052 108.649 136.984 108.604" stroke="#FFFEFC" stroke-width="1.5" stroke-linecap="round"/>
<path d="M136.986 108.606C136.927 108.547 136.72 108.369 136.299 108.044C136.013 107.824 135.498 107.383 135.218 107.153C134.842 106.842 134.694 106.707 134.553 106.581C134.391 106.436 134.205 106.315 133.971 106.147C133.763 105.998 133.478 105.795 133.252 105.669C133.048 105.555 132.87 105.439 132.736 105.346C132.632 105.273 132.44 105.179 132.243 105.072C132.131 105.01 131.921 104.89 131.625 104.698C131.316 104.497 131.149 104.401 130.989 104.3C130.795 104.178 130.593 104.037 130.425 103.951C130.037 103.753 129.651 103.592 129.45 103.473C129.332 103.403 129.227 103.361 129.064 103.31C128.905 103.259 128.819 103.206 128.712 103.157C128.615 103.114 128.508 103.094 128.418 103.061C128.323 103.025 128.241 102.968 128.151 102.931C128.107 102.916 128.062 102.901 128.018 102.887C127.995 102.879 127.973 102.872 127.906 102.864" stroke="#FFFEFC" stroke-width="1.5" stroke-linecap="round"/>
<path d="M110.312 109.291C110.341 109.122 110.383 108.971 110.451 108.833C110.53 108.669 110.681 108.467 111.101 108.005C111.42 107.653 111.993 107.099 112.346 106.759C112.699 106.42 112.826 106.322 112.962 106.229C113.232 106.043 113.418 105.936 113.545 105.848C113.778 105.686 114.078 105.532 114.312 105.418C114.445 105.354 114.625 105.276 114.944 105.109C115.36 104.892 115.643 104.756 115.735 104.721C115.931 104.645 116.026 104.593 116.221 104.518C116.268 104.5 116.296 104.486 116.321 104.472C116.346 104.458 116.367 104.444 116.389 104.429" stroke="#FFFEFC" stroke-width="1.5" stroke-linecap="round"/>
<path d="M127.983 102.767C127.884 102.618 127.799 102.505 127.667 102.309C127.636 102.262 127.607 102.228 127.406 101.872C127.205 101.516 126.832 100.84 126.612 100.433C126.329 99.9088 126.256 99.7539 126.221 99.6972C126.142 99.5707 126.057 99.42 125.997 99.3205C125.941 99.228 125.866 99.1428 125.794 99.0751C125.728 99.0115 125.695 98.9083 125.635 98.8194C125.617 98.7944 125.596 98.7663 125.578 98.7412C125.56 98.7162 125.546 98.6951 125.531 98.6733" stroke="#FFFEFC" stroke-width="1.5" stroke-linecap="round"/>
<path d="M125.558 98.6421C125.449 98.4795 125.298 98.285 125.038 98.0676C124.68 97.7691 124.374 97.5238 124.153 97.3833C123.449 96.9369 123.115 96.7417 122.816 96.5521C122.508 96.3565 122.268 96.1343 121.953 95.8895C121.838 95.8008 121.724 95.7208 121.508 95.5372C121.093 95.1839 120.768 94.9603 120.612 94.8361C120.285 94.5769 119.922 94.3311 119.651 94.1144C119.367 93.887 118.956 93.6471 118.463 93.3439C117.655 92.8468 117.542 92.6797 117.288 92.5114C117.146 92.4176 116.881 92.1919 116.507 91.9045C116.217 91.6812 115.817 91.4639 115.405 91.236C115.202 91.1241 115.002 91.0071 114.736 90.8769C114.582 90.8015 114.426 90.7135 113.918 90.5139C113.528 90.3604 112.874 90.0885 112.299 89.8747C111.725 89.661 111.251 89.5104 110.981 89.4275C110.71 89.3446 110.656 89.3338 110.209 89.1831C109.762 89.0324 108.924 88.7421 108.465 88.5871C108.006 88.4322 107.952 88.4214 107.72 88.3406C107.488 88.2598 107.079 88.1093 106.777 87.9887C106.288 87.7933 106.061 87.6612 105.921 87.5693C105.68 87.4119 105.464 87.292 105.194 87.1193C104.617 86.7497 104.075 86.51 103.836 86.4394C103.566 86.3596 103.26 86.2926 102.844 86.2276C102.599 86.1949 102.287 86.1626 101.723 86.146C101.16 86.1294 100.353 86.1294 99.5547 86.1294" stroke="#FFFEFC" stroke-width="1.5" stroke-linecap="round"/>
<path d="M99.6212 86.1291C99.4381 86.1291 98.7453 86 98.4216 85.8633C98.2579 85.7943 98.1555 85.6625 97.9926 85.5484C97.8388 85.4408 97.6993 85.3907 97.5149 85.2716C97.2483 85.0994 97.1128 85.0433 96.9228 84.9022C96.7256 84.7558 96.3542 84.4581 96.0487 84.2129C95.7214 83.9502 95.5063 83.7302 95.2393 83.5607C95.0645 83.4498 94.6924 83.2414 94.2088 82.9641C93.5388 82.5799 93.3551 82.5128 93.197 82.4364C93.0299 82.3556 92.5437 81.994 92.1494 81.7307C91.9355 81.5879 91.5857 81.3084 91.1684 80.956C90.5641 80.4456 90.2595 80.3081 90.0258 80.1504C89.7219 79.9452 89.553 79.8082 89.1847 79.5858C88.8384 79.3768 88.565 79.1676 88.2882 78.8478C87.9306 78.4345 87.5992 78.2663 87.3861 78.1731C87.1625 78.0753 86.7852 78.0806 86.3942 78.172C86.0975 78.2413 86.3258 78.9463 86.4289 79.435C86.4951 79.7485 86.6086 79.948 86.738 80.3739C86.8446 80.7249 87.0394 81.3482 87.1552 81.7017C87.2933 82.1232 87.3688 82.3046 87.4285 82.5107C87.4701 82.6545 87.564 82.9335 87.6779 83.3079C87.7443 83.5262 87.8465 83.781 88.0947 84.4936C88.2769 85.0171 88.6224 85.8515 88.8264 86.4018C89.1153 87.1815 89.1721 87.5293 89.1938 87.7189C89.2142 87.8979 89.2265 88.0402 89.2104 88.1324C89.2032 88.1735 89.162 88.1924 89.1185 88.1873C88.7842 88.1485 88.5321 87.6075 88.2299 87.0734C87.9966 86.6611 87.6266 85.9479 87.4273 85.5608C87.1658 85.0527 87.055 84.6979 86.8871 84.1564C86.7997 83.8745 86.7299 83.5718 86.6588 83.2554C86.5157 82.618 86.4568 82.241 86.446 82.1382C86.4131 81.8237 86.316 81.4818 86.2614 81.188C86.2204 80.9673 86.142 80.8184 86.0985 80.6338C86.0574 80.4593 85.9902 80.1569 85.9085 79.8413C85.8393 79.5735 85.8377 79.3097 85.8106 79.1184C85.7838 78.9284 85.7292 78.7652 85.6967 78.7055C85.6751 78.6782 85.6428 78.6567 85.5939 78.6456C85.5451 78.6345 85.4805 78.6345 85.4141 78.6345" stroke="#FFFEFC" stroke-width="1.5" stroke-linecap="round"/>
<path d="M85.3127 78.5698C85.1834 78.3756 84.9654 78.0491 84.7759 77.7833C84.6546 77.6133 84.4883 77.2801 84.4168 76.963C84.382 76.8087 84.227 76.6916 84.1129 76.577C84.0098 76.4734 83.8366 76.3442 83.684 76.2186C83.5501 76.1084 83.3159 75.9532 83.0598 75.7735C82.8503 75.6265 82.6851 75.583 82.5272 75.6151C82.4929 75.6221 82.4889 75.669 82.4887 76.2072C82.4886 76.7453 82.4993 77.7884 82.5801 78.9279C82.661 80.0674 82.8115 81.2717 82.9374 82.1771C83.0634 83.0825 83.1602 83.6524 83.21 83.9675C83.2938 84.4971 83.325 85.0405 83.3521 85.4868C83.3749 85.8636 83.3469 86.1292 83.3145 86.1727C83.2822 86.2159 83.195 86.1406 83.13 86.0919C83.0595 86.0391 82.9027 85.8056 82.6104 85.2866C82.4318 84.9692 82.2536 84.5094 82.1163 84.1316C81.9789 83.7537 81.9037 83.4634 81.8058 82.3837C81.7078 81.304 81.5896 79.4437 81.5232 78.4585C81.4569 77.4733 81.4462 77.4195 81.4406 77.2198C81.4136 76.2464 81.4025 76.0073 81.3755 75.7956C81.3279 75.4231 81.3158 75.1607 81.267 74.9373C81.1986 74.6248 81.1203 74.3669 81.0174 74.0634C80.9412 73.839 80.7951 73.6292 80.6806 73.3949C80.5911 73.2118 80.5012 73.0961 80.4199 72.9602C80.3122 72.7802 80.1649 72.6184 79.9479 72.385C79.7458 72.1675 79.5139 71.9667 79.3448 71.8251C79.1795 71.6868 78.9704 71.5757 78.5907 71.2178C78.4157 71.0527 78.3613 70.8911 78.3397 70.7935C78.3299 70.7494 78.318 70.7174 78.3125 70.7761C78.2742 71.1816 78.3395 71.4858 78.3719 71.7857C78.3973 72.0204 78.4262 72.2365 78.4426 72.4322C78.4574 72.6075 78.4914 72.8231 78.5295 73.1052C78.5603 73.3332 78.6002 73.5725 78.6326 73.7302C78.6801 73.9613 78.7084 74.2236 78.7683 74.5227C78.8205 74.7829 78.9039 75.1457 78.9585 75.5056C78.9814 75.6571 78.9912 75.8747 78.9966 76.1241C79.0127 76.309 79.0238 76.9027 79.0184 77.7009C79.013 77.9829 79.0023 78.0152 78.9586 78.1136" stroke="#FFFEFC" stroke-width="1.5" stroke-linecap="round"/>
<path d="M78.9317 78.1784C78.5191 77.9181 78.3679 77.7021 78.2207 77.392C78.1757 77.2973 78.0313 76.7177 77.8467 75.8706C77.7436 75.3975 77.6719 75.1161 77.6284 74.8504C77.5918 74.6264 77.5631 74.3451 77.509 74.0359C77.4552 73.7283 77.4002 73.3135 77.3677 72.9933C77.3275 72.5963 77.2809 72.2923 77.2645 72.0588C77.2478 71.8225 77.2047 71.3714 77.1776 70.9838C77.1522 70.6195 77.118 70.403 77.0745 70.1633C77.0528 70.055 77.0417 69.9566 77.0364 69.8753C77.031 69.837 77.0202 69.8047 76.9766 69.7715" stroke="#FFFEFC" stroke-width="1.5" stroke-linecap="round"/>
<path d="M76.9913 69.7497C76.9879 69.7026 76.9846 69.6555 76.9559 69.5354C76.9273 69.4152 76.8735 69.2235 76.8424 69.118C76.7949 68.957 76.7638 68.8834 76.7366 68.8138C76.7081 68.7412 76.689 68.6728 76.6686 68.5829C76.6538 68.5176 76.6549 68.4757 76.6465 68.4315C76.6355 68.3744 76.6345 68.2657 76.6261 68.1666C76.6124 68.0072 76.6141 67.9391 76.6057 67.8827C76.6039 67.8708 76.6039 67.8573 76.6023 67.8453C76.6006 67.8334 76.5972 67.8233 76.5938 67.7925" stroke="#FFFEFC" stroke-width="1.5" stroke-linecap="round"/>
<path d="M76.636 67.8691C76.636 67.7542 76.6152 67.5225 76.5782 67.3332C76.5417 67.1461 76.5205 66.9965 76.4783 66.8279C76.4386 66.669 76.3942 66.5437 76.3468 66.3806C76.2892 66.1822 76.1946 65.9968 76.1258 65.8437C76.0476 65.6697 75.9837 65.4809 75.9364 65.3123C75.8792 65.1089 75.7842 64.756 75.6943 64.3816C75.6302 64.114 75.5733 63.8606 75.5049 63.6653C75.4301 63.4517 75.3522 63.2601 75.1791 62.924C75.0763 62.7246 74.9317 62.5131 74.758 62.3235C74.6344 62.1884 74.4897 62.0395 74.2376 61.7766C73.9844 61.5126 73.6915 61.199 73.4687 61.0024C73.248 60.8077 73.0165 60.6395 72.9003 60.513C72.7535 60.3533 72.5429 60.2082 72.4057 60.0972C72.275 59.9915 72.1741 59.8817 72.0636 59.7815C71.952 59.6803 71.8691 59.5344 71.774 59.408C71.6827 59.2865 71.6266 59.1556 71.5478 59.0239C71.5215 58.987 71.4902 58.9453 71.4637 58.9082C71.4372 58.8711 71.4163 58.8398 71.3633 58.8076" stroke="#FFFEFC" stroke-width="1.5" stroke-linecap="round"/>
<path d="M52.7969 76.6339C52.7969 76.6601 52.7969 77.342 52.8034 78.394C52.8071 78.9907 52.8628 79.1748 52.9488 79.7096C53.0018 80.0392 53.1273 80.4044 53.2399 80.8813C53.4092 81.5984 53.6039 82.2312 53.7099 82.5634C53.8223 82.9154 53.8557 83.186 53.9482 83.569C54.0351 83.9289 54.1464 84.2964 54.2923 84.6814C54.3995 84.9641 54.4514 85.2376 54.5439 85.4824C54.6961 85.8851 54.7556 86.2431 54.9671 86.8514C55.0786 87.1721 55.1924 87.3162 55.305 87.5148C55.4248 87.726 55.6023 87.8984 56.058 88.519C56.4889 89.1057 56.9383 89.3011 57.2369 89.6123C57.776 90.174 58.1162 90.4131 58.4154 90.6127C58.6972 90.8006 58.9121 90.7984 59.1833 90.7791C59.2921 90.7714 59.0078 90.1939 58.6112 89.434C58.4344 89.095 58.3195 88.8444 58.1605 88.5523C58.0014 88.2602 57.8048 87.9326 57.6118 87.5672C57.2163 86.8184 57.0201 86.2988 56.9673 86.1071C56.8378 85.6375 56.7024 85.0541 56.6164 84.5787C56.5805 84.3802 56.4649 83.8925 56.2864 83.1655C56.154 82.6264 56.1198 82.2352 56.0868 81.8986C56.0499 81.5217 56.0137 81.1891 55.9941 80.8398C55.9419 79.9125 55.8549 79.5219 55.8219 79.2691C55.7824 78.9663 55.7754 78.0191 55.815 77.4489C55.835 77.1599 55.9208 76.8738 55.9738 76.6742C56.018 76.5077 56.1194 76.3567 56.1789 76.1977C56.2447 76.0221 56.4101 75.9326 56.5757 75.8466C56.7732 75.744 57.0185 75.6021 57.3298 75.3112C57.4999 75.1524 57.5753 74.9667 57.6879 74.8077C57.81 74.6351 57.9196 74.5557 57.9988 74.5424C58.1641 74.5146 58.395 74.8055 58.6009 75.0313C58.9789 75.4457 59.4673 75.6141 59.7194 75.7135C59.9847 75.7733 60.1301 75.813 60.4129 75.8329C60.6301 75.8396 60.9971 75.8396 61.3751 75.8396" stroke="#FFFEFC" stroke-width="1.5" stroke-linecap="round"/>
<path d="M61.3802 75.8395C61.3802 75.8526 61.3802 75.8657 61.3802 76.3508C61.3802 76.8359 61.3802 77.7926 61.4588 78.6918C61.5375 79.5909 61.6947 80.4035 61.7889 80.8614C61.8996 81.4 61.9755 81.6624 62.1596 82.3467C62.295 82.8501 62.5534 83.66 62.7013 84.1179C62.9329 84.8348 63.1395 85.3018 63.3385 85.7661C63.6401 86.4698 63.8806 86.8371 64.0472 87.1439C64.2015 87.428 64.2921 87.6989 64.4046 87.9382C64.5672 88.2837 64.7551 88.5472 65.0986 89.1016C65.3762 89.5496 65.6805 89.9094 66.1247 90.3078C66.1837 90.3607 66.2118 90.2573 66.1465 89.7581C66.0812 89.2589 65.937 88.3415 65.8627 87.8362C65.7885 87.3308 65.7885 87.2653 65.7492 86.9628C65.6398 86.1219 65.5502 85.4646 65.5305 85.1419C65.5172 84.9236 65.4716 84.5965 65.4513 83.72C65.4311 82.8435 65.4311 81.4281 65.4376 80.6596C65.4461 79.6654 65.497 79.297 65.5236 78.9585C65.5639 78.4452 65.6161 78.2366 65.6757 77.906C65.7467 77.512 66.0776 76.9158 66.3173 76.5552C66.4988 76.282 66.767 76.1445 66.9857 75.9725C67.2139 75.793 67.4819 75.6814 67.7531 75.5158C68.095 75.3071 68.3683 75.1389 68.6402 74.9533C68.9834 74.7189 69.2682 74.6227 69.4944 74.516C69.8416 74.3523 70.2357 74.1588 70.4342 74.0528C70.5384 73.9971 70.6332 73.9467 70.6731 73.9267C70.8299 73.8479 70.2118 74.131 69.8274 74.277C69.5717 74.374 69.2976 74.4225 68.8429 74.5546C68.0993 74.7705 67.5629 74.9523 67.4311 75.0051C67.0963 75.1392 66.6129 75.2692 65.9495 75.4023C65.5762 75.4771 65.3921 75.5083 65.1672 75.5613C64.9447 75.6137 64.6773 75.6274 64.4062 75.6739C64.1118 75.7244 63.8171 75.7466 63.5589 75.7666C63.2838 75.788 62.9187 75.8395 62.6189 75.8725C62.4414 75.8792 62.294 75.8923 62.0837 75.9122C61.9128 75.9189 61.6113 75.9189 61.3008 75.9586" stroke="#FFFEFC" stroke-width="1.5" stroke-linecap="round"/>
<path d="M52.5988 64.5205C52.3625 64.5205 51.8585 64.5729 51.6728 64.6526C51.3561 64.7884 51.038 65.1281 50.8718 65.3273C50.5024 65.77 50.0579 66.3863 49.7606 66.8746C49.5552 67.212 49.3823 67.4586 49.2769 67.7153C48.9306 68.5585 48.9189 69.0328 48.8988 69.5358C48.8903 69.7484 48.8656 70.3402 48.8722 71.1144C48.8761 71.5776 48.9975 71.9455 49.2155 72.7052C49.3515 73.179 49.5003 73.507 49.6133 73.7401C49.721 73.9624 49.8053 74.21 50.069 74.6851C50.4048 75.2902 50.7449 75.5602 50.9365 75.7324C51.2127 75.9805 51.5908 76.1297 51.8434 76.2227C52.0318 76.292 52.227 76.3021 52.9336 76.3091C53.2912 76.3126 53.656 76.1178 54.1393 75.906C54.3804 75.8003 54.5702 75.7334 54.7427 75.6474C54.9018 75.5876 55.0865 75.5348 55.3049 75.4884C55.3907 75.4816 55.5217 75.4816 55.6568 75.5213" stroke="#FFFEFC" stroke-width="1.5" stroke-linecap="round"/>
<path d="M52.8438 64.5208C52.87 64.6129 52.9494 64.798 53.1474 65.1153C53.2668 65.3067 53.727 65.7741 54.1335 66.1681C54.3362 66.3646 54.6166 66.5851 54.8221 66.8035C54.9705 66.9613 55.2512 67.1538 55.6621 67.3927C55.9195 67.5424 56.3108 67.605 56.9254 67.6054C57.2013 67.6055 57.3704 67.3548 57.5294 67.1756C57.7402 66.9383 57.9526 66.574 58.1317 66.4012C58.4276 66.1158 58.7461 65.6216 58.9589 65.3557C59.122 65.1521 59.395 64.8011 59.666 64.3782C59.9949 63.865 60.0447 63.4374 60.1047 63.1383C60.1166 63.0791 60.1114 63.0259 60.0983 62.9793C60.0139 62.6785 59.3982 62.5223 59.1527 62.4097C58.7753 62.2366 58.0527 62.0339 57.4057 61.8998C57.0983 61.8361 56.75 61.8337 55.8986 61.8267C55.3966 61.8226 55.0288 61.9655 54.7512 62.091C54.4506 62.227 54.1559 62.3492 53.9168 62.4882C53.6819 62.6248 53.48 62.8258 53.3473 62.991C53.1528 63.2333 53.0955 63.408 53.0425 63.5736C52.9709 63.7973 52.9764 64.0434 52.976 64.5122C52.9891 64.626 53.0153 64.6915 53.0354 64.7449C53.0554 64.7984 53.0685 64.8377 53.1217 64.9576" stroke="#FFFEFC" stroke-width="1.5" stroke-linecap="round"/>
<path d="M60.2227 62.8525C60.3279 62.8656 60.6182 62.9971 60.8178 63.1037C61.0926 63.2506 61.4657 63.5531 61.6714 63.7257C62.1489 64.1262 62.9351 64.5992 63.1871 64.7187C63.3642 64.8027 63.7016 64.9431 64.0277 65.1025C64.3417 65.2561 64.7493 65.4205 65.0267 65.5525C65.4434 65.7509 65.8327 65.8303 66.1194 65.9433C66.4166 66.0604 66.7215 66.1218 66.9532 66.2014C67.262 66.3075 67.4363 66.4133 67.7737 66.5982C67.9615 66.7011 68.2036 66.8232 68.5612 67.0612C68.9233 67.3023 69.1702 67.5642 69.3299 67.7433C69.514 67.9499 69.7 68.1861 69.9254 68.537C70.0634 68.7518 70.1377 69.0074 70.2828 69.3833C70.6072 70.2234 70.4427 70.6881 70.3831 70.8808C70.3051 71.133 70.1782 71.4165 70.0722 71.5891C69.9663 71.7613 69.8605 71.9463 69.7215 72.2372C69.6087 72.4232 69.5162 72.5424 69.4435 72.6216C69.4101 72.6615 69.3839 72.7009 69.3569 72.7414" stroke="#FFFEFC" stroke-width="1.5" stroke-linecap="round"/>
<path d="M70.9091 73.3362C70.9919 73.2847 71.1583 73.1182 71.6101 72.5006C71.7781 72.2709 71.8355 72.0875 71.9809 71.755C72.0552 71.5851 72.0953 71.2873 72.1375 71.0466C72.17 70.8609 72.1896 70.414 72.1845 69.8834C72.1808 69.5046 72.1172 69.2771 72.0494 68.9649C71.9476 68.4962 71.8049 68.2564 71.6128 67.9499C71.364 67.5528 71.0565 67.3307 70.8266 67.1267C70.5317 66.8651 70.3581 66.6635 70.2224 66.5537C70.0932 66.4492 69.9109 66.32 69.7436 66.205C69.5478 66.0705 69.3899 65.9345 69.218 65.7887C69.171 65.7571 69.1194 65.7365 69.0774 65.7156C69.0354 65.6947 69.0045 65.6741 68.9102 65.6216" stroke="#FFFEFC" stroke-width="1.5" stroke-linecap="round"/>
<path d="M68.9109 65.6218C68.8384 65.6012 68.6929 65.4975 68.4282 65.3777C67.9375 65.1557 67.7353 64.9977 67.5477 64.883C67.377 64.7785 67.0388 64.6023 66.793 64.4769C66.6298 64.3937 66.4547 64.3106 65.8783 64.0144C65.6672 63.9059 65.5177 63.8315 65.3044 63.7689C65.0243 63.6866 64.7175 63.5716 64.2745 63.4205C63.8421 63.2729 63.6856 63.2068 63.5289 63.1286C63.3331 63.0308 63.1127 62.9776 62.7756 62.8533C62.3156 62.6837 61.854 62.4266 61.5575 62.2653C61.3208 62.1365 61.062 62.0718 60.9156 62.0042C60.7735 61.9385 60.5416 61.8432 60.3795 61.7543C60.2378 61.6766 60.1037 61.5933 59.9786 61.5201C59.8168 61.4253 59.5528 61.2916 59.3593 61.2129C59.2018 61.1488 59.0418 61.0723 58.8805 61.0203C58.6851 60.9574 58.5733 60.8849 58.4482 60.8433C58.3138 60.7985 58.1467 60.76 57.9747 60.7235C57.7955 60.6854 57.6675 60.6663 57.4906 60.6505C57.3429 60.6374 57.199 60.6038 56.9184 60.5881C56.8552 60.5829 56.8242 60.5726 56.6279 60.5673C56.4316 60.562 56.0709 60.562 55.6992 60.5308" stroke="#FFFEFC" stroke-width="1.5" stroke-linecap="round"/>
<path d="M55.6988 60.5301C55.4202 60.5301 54.8561 60.5507 54.7155 60.5716C54.4923 60.6048 54.3564 60.7068 54.1483 60.7796C53.9672 60.843 53.7635 60.9355 53.6014 61.0035C53.4487 61.0677 53.3257 61.1335 53.2263 61.1652C53.1179 61.1998 53.3144 60.9367 53.496 60.568C53.6332 60.2895 53.7411 60.0622 53.8607 59.8957C54.0376 59.6495 54.1783 59.4169 54.3081 59.209C54.6357 58.6843 54.8442 58.4905 55.0577 58.2457C55.2847 57.9853 55.7906 57.5541 55.9845 57.3967C56.1422 57.2688 56.2603 57.1575 56.4268 57.0429C56.6524 56.8875 56.7601 56.8033 56.8955 56.7096C57.1081 56.5625 57.301 56.3354 57.5562 56.0854C57.7292 55.9159 58.0806 55.7732 58.301 55.6891C58.4691 55.6248 58.6234 55.6371 58.7851 55.6213C58.8527 55.6058 59.0082 55.5952 59.2111 55.59C59.2903 55.5849 59.3212 55.5746 59.3843 55.564" stroke="#FFFEFC" stroke-width="1.5" stroke-linecap="round"/>
<path d="M59.3867 55.5647C59.5004 55.5338 59.7915 55.4092 60.0521 55.3255C60.3901 55.217 60.9684 55.2212 61.3215 55.1901C61.8119 55.1469 62.2464 55.1069 62.5717 55.0703C62.6751 55.0587 62.8936 55.0444 63.4733 55.0132C63.8876 54.9908 64.5477 55.0025 64.903 55.0077C65.3938 55.0148 65.6221 55.0544 65.763 55.0702C65.9697 55.0933 66.1949 55.1587 66.4651 55.2519C66.7345 55.3449 67.0988 55.5529 67.3453 55.6737C67.6027 55.8 67.7254 55.8665 67.9282 55.96C68.0808 56.0303 68.2869 56.1782 68.7133 56.433C69.0938 56.6605 69.3176 56.8134 69.5471 56.9488C69.804 57.1005 69.9529 57.2713 70.12 57.407C70.2404 57.5048 70.3696 57.6255 70.4794 57.7506C70.589 57.8755 70.6719 58.0003 70.8072 58.2032C70.9012 58.3442 71.0049 58.4482 71.104 58.5575C71.161 58.6044 71.2135 58.6565 71.2602 58.7137C71.2863 58.7399 71.3172 58.7605 71.3803 58.813" stroke="#FFFEFC" stroke-width="1.5" stroke-linecap="round"/>
</svg>
