<svg width="185" height="186" viewBox="0 0 185 186" fill="none" xmlns="http://www.w3.org/2000/svg">
<title>Kristoff Lalicki</title>
<circle cx="92.215" cy="92.9254" r="91.215" fill="currentColor" stroke="#FFFEFC" stroke-width="2"/>
<path d="M41.9095 90.2207C41.9095 90.8944 41.8286 91.139 41.7259 91.4455C41.6249 91.7469 41.603 91.9972 41.542 92.2528C41.466 92.5712 41.3786 92.8959 41.2459 93.2842C41.1244 93.6398 41.1334 93.938 41.1025 94.2145C41.0578 94.6131 41.0108 95.1432 41.0001 97.0687C40.9964 97.723 41.1126 98.0048 41.2143 98.413C41.2943 98.7337 41.3774 99.1474 41.5208 99.4763C41.622 99.7082 41.7047 100.007 41.9595 100.924C42.122 101.51 42.2356 101.785 42.4704 102.498C42.7548 103.362 42.9308 103.808 43.0635 104.135C43.1913 104.45 43.2777 104.869 43.4414 105.411C43.5754 105.855 43.6664 106.097 43.6973 106.342C43.7131 106.467 43.7688 106.588 43.7994 106.629C43.9702 106.86 43.8711 106.099 43.922 105.803C43.969 105.529 44.0342 105.16 44.116 104.873C44.1922 104.605 44.2794 104.24 44.3612 103.943C44.4429 103.646 44.5246 103.402 44.5963 102.954C44.7581 101.943 44.4645 101.564 44.311 101.246C44.1648 100.943 44.0354 100.643 43.9226 100.388C43.7914 100.09 43.6676 99.7249 43.4531 99.2032C43.2842 98.7927 43.0951 98.3554 42.9522 97.8546C42.8482 97.4899 42.7481 97.0485 42.6963 96.5467C42.6115 95.7253 42.6856 94.4125 42.7775 94.0024C42.8857 93.5198 43.0938 93.043 43.2575 92.5621C43.3906 92.1712 43.6247 91.6552 43.85 91.0602C43.958 90.775 44.0342 90.5891 44.0955 90.568C44.5021 90.4277 44.2181 91.4038 44.2491 91.691C44.2806 91.9841 44.3615 92.3442 44.4937 92.7932C44.7102 93.5293 44.8311 94.0594 45.0147 94.7138C45.1385 95.1551 45.1781 95.6532 45.2299 96.0532C45.2789 96.432 45.3215 96.8388 45.4034 97.3096C45.4755 97.7248 45.628 98.1274 45.8217 98.5966C45.9888 99.0012 46.0976 99.373 46.2512 99.6703C46.3968 99.9522 46.5267 100.212 46.6294 100.457C46.7392 100.72 46.8945 101.049 46.9972 101.315C47.0928 101.563 47.2219 101.805 47.3037 102.102C47.3804 102.379 47.4671 102.664 47.5489 102.96C47.6256 103.238 47.7123 103.522 47.784 103.839C47.8635 104.189 47.8557 104.765 47.7337 105.411C47.6359 105.93 47.4475 106.321 47.3046 106.628C47.1052 107.056 47.0797 107.363 46.9368 107.822C46.7819 108.321 46.6714 108.812 46.406 109.813C46.2312 110.472 46.0988 110.878 46.017 111.124C45.9369 111.364 45.9149 111.695 45.884 112.063C45.8492 112.477 45.7715 112.758 45.7206 113.176C45.5981 114.182 45.6084 114.434 45.5775 114.74C45.5422 115.09 45.6072 115.414 45.7099 115.66C45.8097 115.899 45.9137 116.15 46.1384 116.335C46.3581 116.515 46.5678 116.539 47.6004 116.57C48.572 116.599 50.4537 116.58 51.4633 116.57C52.473 116.56 52.5539 116.54 53.0103 116.529C54.2958 116.5 55.2113 116.499 55.3336 116.448C55.3971 116.421 55.4559 116.377 55.4973 116.326C55.8398 115.902 55.5393 114.886 55.4574 114.62C55.3814 114.372 55.3345 113.563 55.2836 112.843C55.2186 111.924 55.375 111.677 55.4568 111.432C55.4773 111.37 55.4976 111.31 55.5282 111.248C55.5589 111.186 55.5993 111.126 55.641 111.063" stroke="#FFFEFC" stroke-width="1.5" stroke-linecap="round"/>
<path d="M55.6016 111.1C55.6186 111.006 55.6874 110.816 55.7564 110.691C55.8183 110.579 55.8942 110.48 55.9804 110.333C56.0431 110.227 56.101 110.118 56.1914 109.993C56.2749 109.878 56.3936 109.722 56.4587 109.601C56.5311 109.466 56.6438 109.317 56.7385 109.145C56.8228 108.991 56.9023 108.86 57.0013 108.735C57.14 108.56 57.2295 108.412 57.3073 108.287C57.3875 108.158 57.4968 108.024 57.5658 107.899C57.6358 107.772 57.7553 107.662 57.8458 107.555C57.939 107.443 57.9879 107.326 58.0912 107.15C58.2492 106.88 58.2811 106.732 58.3198 106.628C58.3652 106.507 58.4362 106.396 58.4921 106.292C58.5463 106.192 58.5913 106.068 58.5958 105.759C58.5657 105.594 58.5398 105.508 58.5269 105.439C58.5225 105.405 58.5225 105.371 58.4967 105.31" stroke="#FFFEFC" stroke-width="1.5" stroke-linecap="round"/>
<path d="M41.9258 90.171C41.9258 89.7476 41.9624 89.2288 41.9904 88.9145C42.0154 88.6341 42.0734 88.3411 42.1014 88.0176C42.1296 87.6915 42.1843 87.3978 42.2124 86.7519C42.2294 86.3595 42.2953 86.0295 42.3602 85.7057C42.4424 85.296 42.4252 85.0673 42.4804 84.7991C42.5365 84.5265 42.5916 84.1618 42.6468 83.8558C42.6923 83.6038 42.7392 83.3473 42.8133 83.0146C42.9001 82.6247 42.98 82.293 43.0444 82.0525C43.1421 81.6874 43.2575 81.3686 43.3496 81.0354C43.4202 80.7797 43.516 80.4808 43.544 80.1476C43.5661 79.8851 43.6636 79.593 43.7566 79.352C43.7751 79.2962 43.7935 79.2413 43.812 79.1855C43.8306 79.1297 43.8489 79.0748 43.9788 78.9072" stroke="#FFFEFC" stroke-width="1.5" stroke-linecap="round"/>
<path d="M43.9766 78.9073C43.9766 78.484 44.0132 77.9652 44.4096 76.4074C44.5367 75.9081 44.6968 75.6902 44.9462 75.3487C45.433 74.682 45.7144 74.5805 45.9178 74.4043C46.141 74.211 46.4346 73.9524 46.6946 73.7476C46.9044 73.5824 47.1382 73.4885 47.6548 73.258C48.3261 72.9583 49.462 72.6773 50.2263 72.3791C50.5825 72.2401 50.929 72.1757 51.2533 72.1288C51.5806 72.0815 51.8357 71.9904 52.2699 71.9071C52.8373 71.7984 53.1307 71.7129 53.353 71.6389C53.6212 71.5495 53.9997 71.5465 54.2407 71.4816C54.457 71.4233 54.6844 71.38 54.9066 71.2968C55.1433 71.2081 55.3868 71.1026 55.6371 71.0194C55.9163 70.9265 56.127 70.8618 56.3492 70.8066C56.5935 70.7459 56.8483 70.6953 57.0706 70.6401C57.2979 70.5836 57.5142 70.4922 57.7364 70.4182C57.9769 70.3624 58.1806 70.3258 58.2821 70.2428C58.3287 70.1965 58.3653 70.1416 58.4031 70.085" stroke="#FFFEFC" stroke-width="1.5" stroke-linecap="round"/>
<path d="M58.4609 69.9736C58.4976 69.8632 58.6818 69.6052 58.8854 69.3367C59.1822 68.9452 59.4586 68.8095 59.6808 68.6242C59.9325 68.4143 60.161 68.1992 60.5034 67.977C60.8204 67.7712 61.0677 67.57 61.3634 67.4035C61.7621 67.1791 62.1941 66.8686 63.0999 66.2491C63.7661 65.7935 64.469 65.315 64.9237 64.9993C65.1966 64.8098 65.5432 64.6847 65.7843 64.5826C66.032 64.4777 66.5398 64.2419 67.0783 63.9542C67.4327 63.7648 68.1489 63.5383 68.5584 63.4726C68.911 63.4159 69.353 63.3707 70.2543 63.3247C70.8783 63.3153 72.0318 63.3153 72.6536 63.3061C73.2753 63.2969 73.3302 63.2786 73.4978 63.2598" stroke="#FFFEFC" stroke-width="1.5" stroke-linecap="round"/>
<path d="M73.4961 63.2602C73.5144 63.2602 73.5327 63.2602 74.1647 63.251C74.7967 63.2419 76.0418 63.2235 76.729 63.205C77.6596 63.1798 77.9883 63.0571 78.3775 62.937C78.7403 62.825 79.1169 62.743 79.5333 62.604C79.8647 62.4934 80.1345 62.5022 80.4217 62.4281C80.6572 62.3674 80.9113 62.2803 81.2351 62.1879C81.7847 62.0311 82.243 61.7077 82.668 61.4302C83.1474 61.1173 83.4271 61.0041 83.7228 60.8196C84.0818 60.5957 84.3149 60.5047 84.6292 60.3846C84.8895 60.2851 85.257 60.1352 85.628 59.9962C85.7026 59.9682 85.7575 59.9498 85.8133 59.9313C85.869 59.9127 85.924 59.8944 86.0915 59.8755" stroke="#FFFEFC" stroke-width="1.5" stroke-linecap="round"/>
<path d="M86.1406 59.8534C86.4378 59.8458 86.6213 59.8154 86.7739 59.7467C86.84 59.717 87.1006 59.6252 87.4594 59.4839C87.7655 59.3634 88.193 59.1821 88.4958 59.0443C88.6147 58.9902 88.8575 58.8994 89.107 58.8074C89.4176 58.6928 89.8899 58.4865 90.0883 58.3988C90.2224 58.3396 90.4539 58.2578 90.7639 58.1278C90.9326 58.0571 91.0891 57.9902 91.1922 57.9443C91.4011 57.8512 91.6765 57.7611 91.8032 57.7227C91.9642 57.674 92.2113 57.6236 92.3758 57.5853C92.5546 57.5435 92.7534 57.5013 92.8801 57.4707C92.999 57.442 93.1204 57.4096 93.2199 57.3791C93.3332 57.3443 93.5021 57.318 93.8109 57.2304C94.0293 57.1881 94.1746 57.1576 94.2432 57.1309C94.274 57.1194 94.2967 57.1118 94.3659 57.104" stroke="#FFFEFC" stroke-width="1.5" stroke-linecap="round"/>
<path d="M94.2734 57.1042C94.3875 57.1042 94.525 57.089 94.6776 57.0775C94.8101 57.0674 95.0808 57.0354 95.3906 57.0164C96.1505 56.9698 96.2585 57.0354 96.3656 57.0544C96.4941 57.0773 96.708 57.1417 96.9795 57.2259C97.492 57.3849 97.6025 57.463 97.782 57.5354C97.9661 57.6096 98.0763 57.6463 98.2289 57.6959C98.3521 57.7359 98.4429 57.7837 98.6107 57.8789C98.8239 57.9999 99.1073 58.1654 99.1991 58.2418C99.2908 58.2953 99.3596 58.3565 99.4053 58.3832C99.4283 58.3948 99.451 58.4023 99.4744 58.433" stroke="#FFFEFC" stroke-width="1.5" stroke-linecap="round"/>
<path d="M53.6868 81.9917C53.5436 82.2057 53.2912 82.7472 53.1558 83.0981C53.0468 83.381 52.8232 83.8798 52.7054 84.2332C52.5685 84.6442 52.4082 84.9627 52.3361 85.1792C52.2639 85.3956 52.1921 85.6112 52.1289 85.8814C52.0669 86.1463 52.0478 86.3677 52.0208 87.2788C51.9969 88.0826 52.0116 89.5809 52.0205 90.3793C52.032 91.4121 52.1013 91.8072 52.1286 92.0869C52.1513 92.32 52.2634 92.5281 52.3355 92.7983C52.4158 93.0989 52.4255 93.3927 52.4977 93.6181C52.5962 93.9259 52.6417 94.2573 52.7138 94.4738C52.786 94.6902 52.8578 94.9058 52.9389 95.1671C53.019 95.4251 53.128 95.6623 53.245 95.8788C53.3582 96.0882 53.4879 96.3108 53.5873 96.5721C53.6864 96.8323 53.8662 97.0673 54.0105 97.3286C54.1519 97.5846 54.3525 97.8239 54.4609 98.0403C54.6233 98.2567 54.6951 98.4188 54.7581 98.5266C54.7854 98.5809 54.8032 98.6344 54.8756 98.7436" stroke="#FFFEFC" stroke-width="1.5" stroke-linecap="round"/>
<path d="M54.8711 98.7295C54.9882 98.9888 55.0882 99.1556 55.2349 99.4153C55.3941 99.697 55.6741 100.185 55.8087 100.379C55.9387 100.566 56.0596 100.697 56.1731 100.835C56.258 100.939 56.3113 101.066 56.3576 101.175C56.4227 101.328 56.4958 101.443 56.6042 101.597C56.8715 101.978 56.9641 102.287 57.0526 102.485C57.1836 102.778 57.241 102.875 57.329 102.996C57.4007 103.095 57.4752 103.251 57.5594 103.398C57.6191 103.503 57.6682 103.604 57.7353 103.725C57.7969 103.837 57.844 103.955 57.9403 104.089C58.0652 104.263 58.1456 104.382 58.1918 104.483C58.2413 104.591 58.3215 104.684 58.3635 104.785C58.4129 104.903 58.4054 105.061 58.4348 105.166C58.439 105.228 58.4556 105.287 58.4849 105.337C58.4976 105.363 58.5059 105.387 58.5144 105.463" stroke="#FFFEFC" stroke-width="1.5" stroke-linecap="round"/>
<path d="M53.6922 81.9839C53.7119 81.9839 53.7912 81.9839 53.9058 81.9987C53.9841 82.0088 54.0111 82.1033 54.046 82.163C54.1921 82.4132 54.0614 82.9305 54.0264 83.0754C53.9782 83.2748 53.9914 83.4194 53.9665 83.5641C53.9436 83.6977 53.9118 83.858 53.8967 84.0427C53.8829 84.2106 53.8418 84.3864 53.8169 84.5809C53.7657 84.9824 53.7819 85.3816 53.7571 85.7919C53.7149 86.4902 53.7221 86.7692 53.6973 87.0294C53.6822 87.1875 53.6823 87.3191 53.6674 87.6456C53.6298 88.4648 53.6721 89.0545 53.692 89.1341C53.7021 89.1742 53.7119 89.2136 53.717 89.2488C53.7221 89.284 53.7221 89.3136 53.7221 89.3441" stroke="#FFFEFC" stroke-width="1.5" stroke-linecap="round"/>
<path d="M53.7227 89.1943C53.7227 89.3326 53.7227 89.5914 53.7819 90.1076C53.82 90.4394 53.9596 90.9003 54.0305 91.1641C54.1666 91.6704 54.3007 92.0259 54.3558 92.1857C54.4221 92.3782 54.4904 92.5944 54.58 92.7989C54.6518 92.9628 54.7297 93.1431 54.8194 93.3175C54.9196 93.5127 54.999 93.7415 55.0985 94.0053C55.192 94.253 55.2779 94.4093 55.3977 94.6686C55.5085 94.9083 55.607 95.0873 55.6673 95.2426C55.7386 95.4262 55.8565 95.6857 55.9315 95.8658C55.9928 96.0132 56.0462 96.1351 56.1159 96.3294C56.1718 96.4852 56.2754 96.6335 56.3354 96.7783C56.4191 96.9805 56.495 97.1122 56.5647 97.2472C56.6528 97.4176 56.7637 97.6999 56.859 97.9699C56.9121 98.1206 56.9737 98.2791 57.0385 98.4389C57.102 98.5954 57.173 98.7973 57.2479 98.9725C57.3016 99.0979 57.3824 99.2563 57.4773 99.471C57.4925 99.5459 57.5123 99.606 57.5471 99.6657C57.5622 99.6958 57.5721 99.7254 57.6122 99.7859" stroke="#FFFEFC" stroke-width="1.5" stroke-linecap="round"/>
<path d="M57.6133 99.7852C57.6133 99.8447 57.633 99.9641 57.6828 100.128C57.7216 100.256 57.7826 100.383 57.931 100.675C58.0515 100.912 58.2966 101.313 58.4483 101.561C58.6514 101.893 58.7894 102.078 58.9336 102.307C59.2015 102.731 59.3678 102.945 59.5425 103.185C59.6045 103.27 59.8549 103.691 60.2287 104.274C60.4318 104.591 60.6435 104.86 60.8093 105.08C60.9158 105.222 61.0235 105.369 61.1136 105.499C61.1944 105.616 61.3227 105.709 61.4425 105.799C61.5624 105.869 61.6817 105.928 61.9754 106.078C62.0411 106.108 62.0707 106.118 62.1311 106.188" stroke="#FFFEFC" stroke-width="1.5" stroke-linecap="round"/>
<path d="M62.1914 106.158C62.3805 106.158 62.5199 106.178 62.6646 106.218C62.7884 106.252 62.9089 106.268 63.0336 106.303C63.1738 106.342 63.3176 106.357 63.4476 106.373C63.5692 106.387 63.7065 106.417 63.8961 106.432C64.0869 106.448 64.2648 106.477 64.4795 106.492C64.525 106.495 64.5545 106.507 64.8462 106.512C65.1379 106.517 65.6908 106.517 66.0151 106.522C66.3395 106.527 66.4184 106.537 66.7455 106.542C67.0725 106.547 67.6451 106.547 67.9599 106.552C68.4048 106.559 68.5637 106.597 68.6884 106.632C68.8286 106.671 69.0316 106.667 69.2913 106.692C69.4403 106.697 69.5612 106.707 69.6358 106.722C69.671 106.727 69.7006 106.727 69.791 106.787" stroke="#FFFEFC" stroke-width="1.5" stroke-linecap="round"/>
<path d="M69.7891 106.787C70.2463 106.787 70.6263 106.806 70.7908 106.831C70.8287 106.837 70.8459 106.876 70.8412 106.896C70.815 107.01 70.6275 107.065 70.4331 107.245C70.2948 107.372 70.0895 107.603 69.7157 108.091C69.5328 108.33 69.2913 108.611 69.1414 108.815C69.0355 108.96 68.9717 109.09 68.8719 109.234C68.7933 109.349 68.7324 109.479 68.6574 109.623C68.5877 109.758 68.5726 109.928 68.5078 110.072C68.4927 110.107 68.4828 110.137 68.4777 110.167C68.4727 110.197 68.4727 110.227 68.4727 110.257" stroke="#FFFEFC" stroke-width="1.5" stroke-linecap="round"/>
<path d="M68.4769 110.257C68.4769 110.416 68.467 110.656 68.452 110.982C68.4145 111.801 68.4568 112.381 68.4767 112.456C68.536 112.678 68.6061 112.899 68.6909 113.178C68.7929 113.513 68.7958 113.657 68.8556 113.911C68.8892 114.054 68.8957 114.176 68.9255 114.37C68.953 114.55 69.0352 114.823 69.1049 115.187C69.1674 115.514 69.1949 115.85 69.1007 116.2C69.0343 116.447 68.8167 116.529 68.6867 116.625C68.5658 116.713 68.21 116.779 67.9937 116.814C67.8198 116.843 67.541 116.859 66.5261 116.874C66.0537 116.881 65.8146 116.919 65.5162 116.934C65.3367 116.943 65.1468 116.959 64.9528 116.964C64.7681 116.969 64.45 116.989 64.017 116.974C63.3649 116.952 63.132 116.839 62.8681 116.78C62.5363 116.705 62.2159 116.68 61.9849 116.655C61.8127 116.636 61.636 116.6 61.5011 116.57C61.3358 116.534 61.1573 116.491 61.0273 116.446C60.8985 116.401 60.7881 116.321 60.6336 116.202C60.4186 116.035 60.3489 115.823 60.2841 115.678C60.2145 115.523 60.1796 115.275 60.1543 115.11C60.132 114.965 60.1096 114.806 60.0944 114.532C60.0804 114.277 60.0497 113.998 60.0346 113.779C60.0207 113.577 59.9797 113.28 59.9251 112.917C59.8705 112.553 59.86 112.372 59.8253 112.054C59.8154 111.963 59.7906 111.875 59.7706 111.478C59.7505 111.082 59.7308 110.381 59.7305 109.961C59.73 109.23 59.8295 108.814 59.8849 108.523C59.9206 108.334 59.9893 108.193 60.0989 108.103C60.2402 107.987 60.4973 107.914 60.6424 107.834C60.8264 107.733 61.1747 107.674 61.4151 107.649C61.5151 107.639 61.99 107.624 62.6481 107.629C63.0125 107.632 63.2104 107.684 63.4296 107.709C63.5989 107.728 63.8579 107.744 64.2414 107.769C64.7755 107.803 65.0541 107.804 65.3046 107.829C65.4038 107.838 65.5142 107.844 65.7718 107.858C66.7193 107.914 66.9204 107.814 67.0848 107.799C67.3101 107.778 67.4291 107.754 67.7724 107.739C67.8788 107.734 68.3231 107.714 68.9662 107.709C69.3444 107.706 69.603 107.664 69.7827 107.629C69.9208 107.602 70.1212 107.594 70.3359 107.569C70.6589 107.532 70.7998 107.515 70.9298 107.5C71.0803 107.482 71.2588 107.455 71.4531 107.395C71.6023 107.349 71.7674 107.335 71.9915 107.32C72.1777 107.308 72.3359 107.275 72.5054 107.24C72.5752 107.235 72.6354 107.225 72.6951 107.205C72.7251 107.195 72.7548 107.186 72.8152 107.146" stroke="#FFFEFC" stroke-width="1.5" stroke-linecap="round"/>
<path d="M72.8164 107.146C73.2449 107.076 73.562 106.957 73.7981 106.892C74.093 106.81 74.3908 106.728 74.6355 106.657C74.9477 106.568 75.5044 106.419 75.8378 106.328C75.967 106.293 76.077 106.228 76.1622 106.129C76.184 106.103 76.1871 106.069 76.1725 106.034C76.1011 105.864 75.8203 105.671 75.1974 105.054C74.9283 104.787 74.8016 104.583 74.6231 104.355C74.0009 103.561 73.9641 103.278 73.8887 103.102C73.8103 102.919 73.7146 102.639 73.5997 102.29C73.5746 102.21 73.5548 102.15 73.5348 102.105C73.5147 102.06 73.495 102.03 73.4746 101.97" stroke="#FFFEFC" stroke-width="1.5" stroke-linecap="round"/>
<path d="M74.8778 85.4843C74.7001 85.4544 74.0628 85.5531 73.8311 85.7132C73.7088 85.7977 73.602 85.9918 73.2436 86.6534C72.9908 87.1201 72.9534 87.5865 72.9133 87.842C72.8502 88.2442 72.7541 88.4942 72.7187 88.6853C72.6924 88.8267 72.6638 89.0238 72.6389 89.164C72.6127 89.3119 72.6039 89.6114 72.5791 89.7923C72.5627 89.9119 72.5441 90.1105 72.5192 90.3504C72.5017 90.5201 72.4842 90.6598 72.4594 90.9087C72.4415 91.0886 72.4244 91.248 72.3747 91.5964C72.3323 91.8941 72.3346 92.1157 72.3098 92.315C72.2653 92.6721 72.2748 92.8733 72.25 93.1279C72.2339 93.2929 72.215 93.6296 72.1901 94.1876C72.1532 95.0171 72.1752 95.6067 72.1602 95.6814C72.1218 95.8732 72.0953 96.1746 72.0655 96.3593C72.0248 96.6123 72.0256 96.8131 72.0106 97.229C71.9985 97.5657 72.0055 98.1583 72.0105 98.4881C72.0175 98.9583 72.0552 99.1366 72.0703 99.3314C72.0824 99.4879 72.115 99.6848 72.155 99.8849C72.1968 100.094 72.2347 100.234 72.2796 100.413C72.3269 100.603 72.4142 100.713 72.479 100.833C72.5399 100.945 72.5836 101.072 72.6386 101.192C72.6999 101.325 72.8229 101.451 72.9375 101.561C73.0731 101.691 73.2215 101.78 73.3266 101.905C73.3516 101.93 73.3812 101.95 73.4064 101.975C73.4315 102 73.4512 102.029 73.5015 102.12" stroke="#FFFEFC" stroke-width="1.5" stroke-linecap="round"/>
<path d="M74.8236 85.5137C74.9205 85.5137 75.1159 85.5434 75.2061 85.6035C75.295 85.6628 75.3487 85.7609 75.4089 85.8511C75.469 85.9413 75.514 86.0311 75.5404 86.1213C75.5679 86.2156 75.5964 86.3833 75.6155 86.5452C75.623 86.6095 75.6343 86.9294 75.6306 87.3833C75.6285 87.6383 75.5969 87.7574 75.5818 87.9373C75.5589 88.2105 75.5068 88.373 75.4917 88.4743C75.4797 88.5549 75.4244 88.7101 75.3794 88.8901C75.357 88.9795 75.312 89.212 75.1924 89.7168C75.1221 90.0129 75.0429 90.3924 74.9971 90.5988C74.9347 90.8798 74.9065 91.0743 74.8427 91.2662C74.748 91.5509 74.689 91.7795 74.64 92.0127C74.5315 92.5294 74.4786 92.733 74.426 93.0037C74.3899 93.1892 74.3958 93.3117 74.3771 93.4283C74.3503 93.5954 74.321 93.8363 74.302 94.0286C74.2851 94.1989 74.2607 94.3178 74.242 94.5752C74.2282 94.7645 74.2382 95.1217 74.2344 95.3203C74.2302 95.5488 74.2156 95.8988 74.2194 96.3978C74.2231 96.5772 74.2305 96.607 74.238 96.6334C74.2456 96.6599 74.253 96.6822 74.2607 96.7276" stroke="#FFFEFC" stroke-width="1.5" stroke-linecap="round"/>
<path d="M74.2578 96.5698C74.2578 96.877 74.2727 97.0423 74.3214 97.1548C74.3711 97.2695 74.3853 97.4097 74.4153 97.5152C74.4468 97.6256 74.4677 97.8223 74.5465 98.0701C74.6061 98.2575 74.6478 98.3929 74.7042 98.6069C74.7528 98.7911 74.8428 99.0455 74.9069 99.2003C74.9884 99.3971 75.1207 99.6994 75.1584 99.7896C75.1961 99.8797 75.2707 100.014 75.3385 100.168C75.3912 100.289 75.4436 100.375 75.6267 100.697C75.7602 100.931 75.9163 101.088 76.0209 101.237C76.1731 101.455 76.3365 101.651 76.4376 101.804C76.6159 102.075 76.742 102.311 76.7984 102.48C76.8375 102.598 76.8996 102.747 76.9448 102.874C76.9886 102.998 77.0573 103.077 77.1174 103.167C77.1473 103.212 77.1701 103.257 77.1888 103.302C77.2 103.325 77.2149 103.347 77.2527 103.415" stroke="#FFFEFC" stroke-width="1.5" stroke-linecap="round"/>
<path d="M77.2461 103.416C77.3661 103.798 77.4406 103.977 77.5946 104.266C77.6843 104.435 77.8604 104.697 77.9626 104.886C78.1438 105.221 78.2441 105.561 78.3415 105.764C78.4994 106.17 78.5593 106.334 78.5933 106.481C78.5972 106.53 78.5972 106.604 78.5972 106.681" stroke="#FFFEFC" stroke-width="1.5" stroke-linecap="round"/>
<path d="M78.5808 106.5C78.5734 106.838 78.5435 106.958 78.5134 107.078C78.4688 107.257 78.4457 107.378 78.3075 107.958C78.224 108.308 78.198 108.564 78.1756 108.703C78.1427 108.908 78.1233 109.193 78.1042 109.39C78.0882 109.555 78.0706 109.72 78.0592 109.87C78.0467 110.036 78.0255 110.261 78.0142 110.545C78.0114 110.613 78.003 110.651 77.9918 111.071C77.9805 111.491 77.9656 112.294 77.9617 112.73C77.9574 113.21 77.9728 113.33 77.9766 113.465C77.9795 113.571 77.9954 113.913 77.9991 114.382C78.0015 114.682 78.0327 114.847 78.0441 114.948C78.0566 115.06 78.1003 115.177 78.1304 115.308C78.1604 115.44 78.1904 115.545 78.2017 115.661C78.2119 115.765 78.2579 115.868 78.3291 116.04C78.3967 116.204 78.4529 116.34 78.5353 116.449C78.6942 116.659 78.8429 116.753 78.9558 116.858C78.9785 116.881 78.9934 116.903 79.0122 116.919C79.031 116.934 79.0533 116.941 79.0987 116.949" stroke="#FFFEFC" stroke-width="1.5" stroke-linecap="round"/>
<path d="M78.8945 116.836C79.142 116.941 79.2764 117.061 79.7671 117.316C79.9425 117.407 80.1168 117.444 80.3125 117.512C80.4833 117.571 80.6203 117.58 80.7592 117.602C80.9068 117.626 81.0855 117.647 81.2321 117.669C81.3798 117.692 81.5733 117.729 81.7649 117.778C81.8951 117.811 82.0759 117.834 82.7351 117.846C82.9701 117.827 83.1045 117.812 83.2549 117.786C83.3 117.782 83.3594 117.782 83.4207 117.805" stroke="#FFFEFC" stroke-width="1.5" stroke-linecap="round"/>
<path d="M83.4219 117.804C83.5482 117.804 83.6745 117.804 83.9923 117.804C84.31 117.804 84.8153 117.804 85.0905 117.808C85.3656 117.811 85.3954 117.819 85.5964 117.823C86.169 117.833 86.5816 117.819 86.6378 117.808C86.7306 117.789 86.8514 117.781 86.9756 117.759C87.0797 117.74 87.1968 117.684 87.317 117.643C87.449 117.597 87.6242 117.512 87.8011 117.451C87.9053 117.416 88.03 117.406 88.1689 117.357C88.2818 117.318 88.3903 117.316 88.5255 117.286C88.5781 117.271 88.6233 117.256 88.6608 117.234C88.676 117.219 88.6834 117.196 88.6911 117.151" stroke="#FFFEFC" stroke-width="1.5" stroke-linecap="round"/>
<path d="M88.6016 117.231C88.8115 117.193 88.9672 117.115 89.092 117.037C89.2233 116.955 89.3024 116.873 89.3921 116.788C89.4742 116.709 89.5286 116.624 89.5599 116.53C89.6047 116.396 89.5679 116.203 89.5135 116.106C89.4487 115.99 89.3968 115.861 89.3458 115.759C89.2857 115.639 89.2173 115.487 89.1667 115.385C89.1221 115.296 89.0695 115.198 89.0147 115.101C88.9368 114.988 88.8977 114.917 88.8822 114.871C88.8744 114.847 88.8666 114.824 88.8587 114.8" stroke="#FFFEFC" stroke-width="1.5" stroke-linecap="round"/>
<path d="M88.8513 114.801C88.7501 114.419 88.719 114.31 88.6413 114.131C88.5675 113.961 88.4932 113.843 88.4424 113.734C88.3547 113.545 88.244 113.43 88.0999 113.146C88.0114 112.972 87.971 112.838 87.9203 112.697C87.8679 112.552 87.8153 112.394 87.7567 112.218C87.7115 112.083 87.6671 111.91 87.6397 111.72C87.6182 111.57 87.628 111.45 87.6163 111.265C87.5892 110.833 87.6201 110.523 87.6318 110.476C87.6837 110.269 87.7526 109.939 87.7991 109.78C87.8744 109.522 87.9237 109.301 87.9823 109.14C88.0339 108.999 88.0874 108.825 88.1536 108.654C88.251 108.381 88.3291 108.194 88.4068 108.03C88.4303 107.991 88.4534 107.96 88.5006 107.905" stroke="#FFFEFC" stroke-width="1.5" stroke-linecap="round"/>
<path d="M88.5078 107.904C88.5155 107.577 88.5466 107.438 88.5817 107.317C88.6181 107.191 88.7021 107.056 88.9227 106.719C89.0918 106.461 89.3671 106.02 89.5256 105.774C89.7718 105.392 89.8865 105.209 89.9878 105.073C90.1081 104.911 90.2601 104.719 90.3969 104.485C90.4974 104.313 90.6654 104.088 90.802 103.888C90.9239 103.711 91.0707 103.557 91.1296 103.44C91.1881 103.346 91.2657 103.238 91.3942 103.097C91.4218 103.066 91.4373 103.043 91.4999 102.972" stroke="#FFFEFC" stroke-width="1.5" stroke-linecap="round"/>
<path d="M91.4258 102.996C91.7996 102.552 92.0317 102.273 92.193 102.084C92.305 101.953 92.4071 101.718 92.551 101.439C92.7758 101.002 92.9284 100.777 93.0579 100.585C93.172 100.415 93.3033 100.238 93.4977 100.028C93.6125 99.9037 93.7007 99.7469 93.7941 99.5798C93.9608 99.2813 94.0976 99.0232 94.2419 98.7892C94.5431 98.3005 94.589 98.1106 94.6359 98.0054C94.7307 97.7925 94.9158 97.5346 95.0059 97.3859C95.0833 97.2583 95.15 97.1522 95.228 96.9771C95.2748 96.8403 95.3216 96.7314 95.3722 96.6378C95.384 96.6143 95.3917 96.5912 95.3997 96.5439" stroke="#FFFEFC" stroke-width="1.5" stroke-linecap="round"/>
<path d="M95.3978 96.5442C95.3978 96.4439 95.3978 96.3436 95.3978 96.0721C95.3978 95.8006 95.3978 95.3609 95.3284 94.7641C95.259 94.1674 95.1201 93.4268 95.0177 92.9682C94.8795 92.3489 94.7669 92.1655 94.7241 92.0994C94.6797 92.0309 94.6038 91.8625 94.4754 91.6215C94.3584 91.4018 94.176 91.0378 93.95 90.6522C93.8184 90.4276 93.7695 90.28 93.6801 90.1049C93.6137 89.975 93.5825 89.8283 93.5086 89.6336C93.4142 89.3849 93.3646 89.0972 93.3369 88.8853C93.3194 88.7512 93.2786 88.5969 93.2861 88.1501C93.2875 88.0651 93.3323 88.0742 93.3637 88.0936C93.5251 88.1936 93.6671 88.4936 93.7962 88.6855C93.8849 88.8172 93.9714 89.0471 94.1233 89.3744C94.1872 89.5123 94.2905 89.7556 94.4769 90.1248C94.6791 90.525 94.8597 90.8316 94.9376 91.0068C95.0115 91.1732 95.1014 91.3076 95.1599 91.4243C95.2213 91.5471 95.3427 91.7353 95.4516 91.9455C95.6216 92.2735 95.7947 92.6475 95.8805 92.8422C95.9919 93.0949 96.0907 93.2239 96.2078 93.4384C96.3344 93.6702 96.4652 94.0654 96.5196 94.2527C96.5727 94.4352 96.6288 94.5722 96.6561 94.697C96.6813 94.812 96.6835 95.1697 96.6564 95.445C96.6369 95.6423 96.5124 95.8654 96.4538 96.0061C96.3975 96.1415 96.3642 96.302 96.2942 96.4424C96.2334 96.5642 96.1617 96.7074 96.1072 96.8126C95.948 97.1193 95.7176 97.4788 95.5816 97.7546C95.4415 98.0385 95.367 98.1567 95.2308 98.3667C95.1334 98.5613 95.0161 98.788 95.0006 98.8347C94.9927 98.8582 94.985 98.8813 94.9771 98.9285" stroke="#FFFEFC" stroke-width="1.5" stroke-linecap="round"/>
<path d="M94.9823 98.9282C94.9278 99.0682 94.835 99.2232 94.6362 99.5233C94.5367 99.6734 94.4451 99.9011 94.3476 100.077C94.2025 100.338 94.1567 100.556 94.0942 100.712C94.0302 100.872 94.0085 100.985 93.919 101.241C93.8446 101.455 93.7981 101.678 93.7863 101.784C93.7667 101.958 93.7822 102.192 93.8832 102.333C93.9708 102.455 94.0935 102.489 94.2181 102.532C94.4495 102.612 94.7555 102.544 95.0241 102.462C95.1737 102.417 95.4629 102.234 95.6714 102.123C95.8469 102.03 95.987 101.952 96.1 101.901C96.2853 101.818 96.548 101.671 96.6532 101.617C96.8388 101.521 97.0464 101.407 97.3421 101.282C97.709 101.127 98.2544 101.258 98.348 101.293C98.3986 101.312 98.4494 101.367 98.4961 101.429C98.5172 101.457 98.512 101.491 98.4966 101.53C98.4164 101.733 98.2166 101.85 98.0685 101.986C97.9231 102.12 97.7878 102.17 97.3644 102.414C97.1836 102.519 97.0244 102.606 96.8957 102.711C96.7722 102.812 96.5578 102.917 96.3505 103.026C96.153 103.131 95.95 103.236 95.7352 103.357C95.3137 103.595 95.2165 103.634 94.9796 103.735C94.7723 103.824 94.5702 103.915 94.3683 103.992C93.8839 104.179 93.6817 104.242 93.553 104.281C93.3885 104.331 93.2296 104.367 93.1282 104.417C92.9956 104.46 92.9023 104.507 92.8087 104.558C92.7852 104.569 92.7621 104.577 92.7148 104.609" stroke="#FFFEFC" stroke-width="1.5" stroke-linecap="round"/>
<path d="M92.6883 104.656C92.6574 104.887 92.6261 105.084 92.5642 105.32C92.4584 105.724 92.3379 106.011 92.2874 106.124C92.1719 106.381 92.1198 106.525 92.0768 106.685C92.001 106.967 91.8547 107.429 91.8235 107.569C91.786 107.739 91.7846 107.881 91.7728 107.998C91.7624 108.101 91.7378 108.255 91.726 108.384C91.7078 108.582 91.6911 108.769 91.6716 108.925C91.631 109.248 91.5667 109.493 91.539 109.673C91.5078 109.876 91.4573 110.078 91.4455 110.215C91.4342 110.346 91.4026 110.515 91.3832 110.616C91.3553 110.762 91.3325 110.967 91.3092 111.119C91.2883 111.255 91.2703 111.473 91.243 111.602C91.2146 111.736 91.2002 111.894 91.1884 112.061C91.1695 112.329 91.1534 112.673 91.1416 112.848C91.1292 113.032 91.1067 113.234 91.0949 113.747C91.085 114.176 91.0908 114.66 91.1026 114.754C91.1148 114.85 91.1609 114.941 91.196 115.085C91.2375 115.255 91.2932 115.377 91.3362 115.482C91.3843 115.6 91.4568 115.735 91.4999 115.876C91.5381 116.001 91.6205 116.086 91.6867 116.184C91.7713 116.308 91.8542 116.413 91.9399 116.503C91.9865 116.538 92.0335 116.569 92.0802 116.601C92.1037 116.616 92.1268 116.632 92.1974 116.671" stroke="#FFFEFC" stroke-width="1.5" stroke-linecap="round"/>
<path d="M92.1055 116.647C92.5727 116.749 92.6814 116.78 92.8024 116.826C92.9327 116.877 93.1102 116.935 93.227 116.959C93.3648 116.987 93.5459 117.037 93.7178 117.049C93.8976 117.061 94.0608 117.076 94.4163 117.088C94.733 117.098 95.3271 117.092 95.6601 117.088C96.1417 117.082 96.2967 117.053 96.6041 117.041C96.8886 117.03 97.3094 117.006 97.458 116.994C97.6527 116.979 97.9793 116.959 98.1553 116.947C98.2853 116.939 98.5474 116.897 98.7437 116.877C98.901 116.861 99.071 116.834 99.18 116.811C99.357 116.773 99.4684 116.772 99.7366 116.725C99.9187 116.694 100.123 116.671 100.228 116.647C100.378 116.614 100.52 116.593 100.715 116.558C100.862 116.531 101.096 116.507 101.299 116.488C101.432 116.475 101.865 116.399 102.18 116.316C102.441 116.248 102.654 116.142 102.838 116.071C103.099 115.971 103.247 115.892 103.368 115.829C103.471 115.776 103.559 115.689 103.606 115.596C103.651 115.508 103.669 115.409 103.673 115.156C103.675 114.992 103.591 114.856 103.56 114.735C103.53 114.621 103.482 114.482 103.42 114.361C103.368 114.261 103.303 114.155 103.217 114.03C103.076 113.825 103.038 113.726 102.991 113.609C102.932 113.463 102.827 113.321 102.73 113.134C102.654 112.987 102.532 112.722 102.423 112.48C102.138 111.85 102.033 111.661 101.97 111.54C101.892 111.388 101.83 111.256 101.756 111.1C101.581 110.733 101.518 110.625 101.475 110.519C101.425 110.395 101.355 110.259 101.312 110.149C101.269 110.025 101.261 109.892 101.249 109.815C101.245 109.76 101.245 109.675 101.222 109.588" stroke="#FFFEFC" stroke-width="1.5" stroke-linecap="round"/>
<path d="M101.223 109.588C101.223 109.572 101.223 109.317 101.281 108.724C101.315 108.373 101.454 107.937 101.521 107.695C101.624 107.325 101.729 107.065 101.787 106.904C101.807 106.85 101.869 106.745 101.935 106.604C101.973 106.523 102.141 106.14 102.37 105.579C102.482 105.306 102.647 105.001 102.746 104.773C102.796 104.656 102.889 104.3 102.937 104.04C102.976 103.884 102.984 103.806 102.999 103.744C103.007 103.713 103.015 103.682 103.023 103.604" stroke="#FFFEFC" stroke-width="1.5" stroke-linecap="round"/>
<path d="M99.457 58.4312C99.5998 58.5024 99.7662 58.6215 99.9631 58.7526C100.174 58.8931 100.315 59.0151 100.488 59.1403C100.634 59.2463 100.804 59.3607 101.054 59.5337C101.248 59.6677 101.388 59.7665 101.561 59.9214C101.704 60.049 101.854 60.1601 102.009 60.2674C102.239 60.4265 102.461 60.6367 102.789 60.9406C102.964 61.102 103.153 61.2686 103.333 61.4124C103.578 61.6092 103.845 61.7938 104.09 61.9963C104.419 62.269 104.62 62.4257 104.794 62.5159C104.967 62.6057 105.133 62.7241 105.348 62.915C105.492 63.043 105.729 63.1771 105.951 63.3326C106.099 63.4372 106.219 63.5592 106.392 63.6845C106.552 63.8 106.72 63.917 106.94 64.0659C107.228 64.26 107.364 64.418 107.507 64.5135C107.664 64.6181 107.876 64.8109 108.044 64.9488C108.198 65.0755 108.389 65.193 108.61 65.4016C108.795 65.576 108.915 65.6939 109.046 65.8016C109.184 65.9153 109.332 66.0281 109.511 66.1889C109.678 66.3383 109.762 66.4339 109.833 66.4815C109.869 66.5054 109.904 66.529 110.012 66.6249" stroke="#FFFEFC" stroke-width="1.5" stroke-linecap="round"/>
<path d="M109.941 66.5527C110.201 66.7889 110.394 66.9578 110.584 67.1297C111.256 67.7388 111.574 68.185 111.772 68.4185C111.947 68.6257 112.158 68.8885 112.386 69.1103C112.515 69.2364 112.613 69.3433 112.755 69.5032C113.069 69.8564 113.446 70.1655 113.744 70.3856C114.27 70.7751 114.413 70.8936 114.681 71.1019C115.104 71.4306 115.415 71.7166 115.891 72.1447C116.043 72.2815 116.226 72.4551 116.446 72.7052C116.595 72.8748 116.739 73.0637 117.189 73.5613C117.539 73.9476 118.112 74.6256 118.451 75.0313C118.883 75.5473 119.005 75.7359 119.171 75.9257C119.695 76.5241 119.852 76.7016 119.995 76.9223C120.119 77.113 120.222 77.2504 120.288 77.3937C120.329 77.4651 120.377 77.5371 120.437 77.6143C120.472 77.6562 120.52 77.7034 120.568 77.7521" stroke="#FFFEFC" stroke-width="1.5" stroke-linecap="round"/>
<path d="M120.547 77.7065C120.723 78.0152 120.811 78.1907 120.931 78.437C120.979 78.5344 121.007 78.6264 121.038 78.7117C121.072 78.8007 121.101 78.8912 121.133 78.9953C121.174 79.1284 121.202 79.257 121.243 79.3703C121.297 79.5177 121.36 79.7479 121.417 79.9439C121.448 80.0534 121.492 80.1768 121.527 80.3064C121.589 80.5379 121.65 80.6436 121.678 80.7697C121.713 80.923 121.757 81.0411 121.785 81.1882C121.851 81.5327 121.927 81.7725 121.971 81.9537C122.085 82.4266 122.192 82.7559 122.202 82.8124C122.232 82.9964 122.312 83.1147 122.347 83.2473C122.379 83.37 122.425 83.4804 122.444 83.5721C122.464 83.6669 122.488 83.7391 122.514 83.8777C122.53 83.9668 122.545 84.0417 122.57 84.152C122.583 84.2056 122.589 84.562 122.593 85.0725C122.594 85.3096 122.621 85.3845 122.646 85.4602C122.671 85.5343 122.678 85.6114 122.7 85.6872C122.721 85.7605 122.734 85.8384 122.756 85.9141C122.778 85.9874 122.791 86.0653 122.801 86.1725C122.809 86.2619 122.829 86.349 122.838 86.4562C122.841 86.4816 122.848 86.5003 122.851 86.5224C122.854 86.5446 122.854 86.5695 122.873 86.6142" stroke="#FFFEFC" stroke-width="1.5" stroke-linecap="round"/>
<path d="M122.879 86.5971C123.026 86.5971 123.327 86.5971 123.677 86.5997C123.817 86.6008 123.901 86.613 124.012 86.6156C124.072 86.617 124.255 86.6289 124.517 86.6263C124.708 86.6244 124.96 86.5392 125.146 86.4913C125.413 86.4225 125.581 86.3748 125.714 86.3191C125.976 86.2091 126.101 86.1891 126.275 86.1125C126.394 86.0605 126.603 85.9723 126.729 85.9268C126.982 85.8348 127.341 85.6009 127.418 85.5612C127.524 85.5063 127.601 85.4791 127.849 85.3655C128.1 85.2506 128.189 85.1455 128.282 85.0869C128.362 85.0362 128.501 84.9547 128.692 84.8195C128.819 84.7294 129.026 84.5891 129.151 84.4934C129.251 84.4162 129.402 84.2816 129.49 84.1967C129.572 84.117 129.683 84.0062 129.763 83.9289C129.837 83.8571 129.927 83.7674 129.98 83.6959C130.066 83.5795 130.128 83.5025 130.248 83.3833C130.319 83.3116 130.394 83.3219 130.441 83.3298C130.525 83.3436 130.547 83.4488 130.603 83.5547C130.647 83.6378 130.664 83.7137 130.685 83.8196C130.71 83.9412 130.717 84.0262 130.73 84.1925C130.772 84.7244 130.717 84.8212 130.701 84.9745C130.667 85.308 130.669 85.4145 130.656 85.5156C130.636 85.6683 130.627 85.7856 130.601 85.9525C130.569 86.1497 130.532 86.2416 130.518 86.358C130.496 86.5531 130.431 86.7599 130.402 86.9305C130.383 87.0408 130.362 87.1685 130.346 87.2962C130.333 87.3997 130.309 87.4712 130.277 87.6193C130.254 87.7296 130.23 87.8576 130.158 88.0563C130.059 88.333 129.975 88.4992 129.901 88.6923C129.88 88.7641 129.869 88.8069 129.853 88.8386C129.843 88.8546 129.827 88.8703 129.763 88.8865" stroke="#FFFEFC" stroke-width="1.5" stroke-linecap="round"/>
<path d="M129.843 88.8521C129.805 88.989 129.744 89.1264 129.664 89.2372C129.596 89.3308 129.538 89.4393 129.477 89.5426C129.413 89.6515 129.355 89.7448 129.317 89.8365C129.279 89.9257 129.24 90.0196 129.195 90.1151C129.138 90.2327 129.08 90.3174 128.981 90.4851C128.904 90.615 128.813 90.7676 128.74 90.8862C128.672 90.9976 128.584 91.1112 128.481 91.2297C128.394 91.3295 128.271 91.5079 128.16 91.6608C128.017 91.8585 127.882 92.0268 127.744 92.1838C127.578 92.3729 127.424 92.5838 127.298 92.7223C127.186 92.8441 127.019 92.9663 126.87 93.0886C126.747 93.19 126.615 93.2567 126.42 93.3331C126.27 93.3919 126.08 93.4019 125.931 93.4135C125.624 93.4373 125.118 93.4175 124.981 93.3793C124.607 93.2756 124.18 93.1353 123.905 93.0018C123.708 92.9062 123.584 92.7918 123.393 92.643C123.151 92.4543 122.828 92.1358 122.664 91.9335C122.486 91.714 122.302 91.4336 122.123 91.1975C121.964 90.9885 121.874 90.7617 121.797 90.5749C121.671 90.2653 121.583 89.9216 121.553 89.7763C121.541 89.7219 121.537 89.6692 121.556 89.6121C121.574 89.5587 121.621 89.5316 121.667 89.5163C121.712 89.5011 121.774 89.4933 121.853 89.5084C122.038 89.5434 122.125 89.6761 122.247 89.8475C122.334 89.9703 122.415 90.1186 122.533 90.3351C122.861 90.9393 122.942 91.0503 123.014 91.199C123.104 91.3844 123.239 91.7062 123.323 91.905C123.483 92.281 123.72 92.6993 123.827 92.924C123.905 93.0878 123.995 93.2718 124.09 93.4244C124.17 93.5524 124.255 93.6534 124.346 93.7757C124.432 93.8895 124.506 93.9818 124.613 94.1077C124.766 94.2871 124.865 94.3863 124.961 94.5199C125.096 94.709 125.262 94.7756 125.407 94.8789C125.566 94.9919 125.856 95.1265 126.071 95.2036C126.258 95.2704 126.483 95.356 126.659 95.4211C126.83 95.4844 127.033 95.5319 127.201 95.5852C127.45 95.6643 127.742 95.7151 127.919 95.7419C128.07 95.7648 128.368 95.7687 128.919 95.712C129.298 95.673 129.87 95.5419 130.2 95.4722C130.599 95.3877 130.736 95.3413 130.858 95.3108C130.952 95.2874 131.117 95.2421 131.402 95.1738C131.749 95.0906 131.988 94.9598 132.106 94.8951C132.417 94.7248 132.789 94.5095 132.95 94.4253C133.062 94.3667 133.202 94.2805 133.328 94.1925C133.472 94.0919 133.622 94.0359 133.736 93.9825C133.797 93.952 133.851 93.9289 133.897 93.9137C133.92 93.906 133.942 93.8984 133.989 93.8907" stroke="#FFFEFC" stroke-width="1.5" stroke-linecap="round"/>
<path d="M133.984 93.8902C134.091 93.8827 134.636 93.6406 134.95 93.4782C135.095 93.4029 135.448 93.2576 135.652 93.1538C135.857 93.0491 136.045 92.9517 136.164 92.8827C136.273 92.8192 136.396 92.7455 136.56 92.6235C136.808 92.4395 137.022 92.2724 137.247 92.055C137.42 91.8884 137.678 91.708 138.003 91.414C138.213 91.2239 138.328 91.1423 138.537 90.9366C138.656 90.8201 138.853 90.5785 139 90.4132C139.091 90.3098 139.198 90.1731 139.286 90.0582C139.313 90.0277 139.35 89.9899 139.378 89.9591C139.405 89.9283 139.42 89.9056 139.458 89.8364" stroke="#FFFEFC" stroke-width="1.5" stroke-linecap="round"/>
<path d="M139.461 89.8371C139.476 89.8068 139.491 89.7766 139.575 89.6325C139.658 89.4885 139.809 89.2315 140.102 88.7855C140.396 88.3394 140.826 87.7121 141.056 87.3739C141.304 87.0078 141.429 86.8306 141.654 86.5526C141.983 86.1458 142.033 86.0434 142.186 85.8109C142.268 85.6847 142.316 85.5547 142.457 85.2312C142.598 84.9066 142.736 84.6542 142.789 84.5355C142.86 84.3797 142.904 84.257 142.946 84.1385C142.983 84.0335 143.049 83.9515 143.121 83.8408C143.154 83.7903 143.194 83.7452 143.24 83.7335C143.408 83.6904 143.347 84.2085 143.373 84.5902C143.387 84.7868 143.377 85.1424 143.374 85.3443C143.37 85.5462 143.362 85.584 143.358 85.8945C143.354 86.2049 143.354 86.7869 143.351 87.1093C143.345 87.5771 143.316 87.7295 143.305 87.9011C143.294 88.0671 143.248 88.2787 143.236 88.4889C143.229 88.609 143.202 88.7144 143.171 88.8517C143.132 89.027 143.102 89.2255 143.083 89.5257C143.047 90.0956 143.072 90.5086 143.061 90.5884C143.023 90.8497 143.011 91.0958 142.927 91.5561C142.893 91.7438 142.836 92 142.794 92.1853C142.752 92.3706 142.721 92.4764 142.664 92.7085C142.52 93.2948 142.423 93.692 142.381 93.8059C142.242 94.1865 142.225 94.3177 142.183 94.4476C142.13 94.6097 142.065 94.7451 142.022 94.8714C141.958 94.9746 141.889 95.0511 141.839 95.074C141.813 95.0818 141.782 95.0818 141.751 95.0818" stroke="#FFFEFC" stroke-width="1.5" stroke-linecap="round"/>
<path d="M102.415 73.5845C102.423 73.2844 102.466 73.0947 102.511 72.9255C102.531 72.8465 102.664 72.5103 102.814 72.016C102.917 71.6752 102.95 71.4972 102.987 71.2841C103.043 70.9598 102.995 70.485 102.98 70.3205C102.956 70.0563 102.885 69.8695 102.779 69.4644C102.692 69.1314 102.614 68.8948 102.562 68.7635C102.49 68.5767 102.445 68.4329 102.419 68.3781C102.275 68.0688 102.057 67.488 102.016 67.3814C101.972 67.2661 101.939 67.1653 101.946 66.9896C101.953 66.8093 102.407 66.9375 102.627 66.9486C102.841 66.9594 103.045 67.0034 103.29 67.0327C103.706 67.0824 103.807 67.2158 103.997 67.2817C104.256 67.3713 104.438 67.4651 104.634 67.5814C105.132 67.8767 105.493 68.0735 105.584 68.1171C105.919 68.2776 106.042 68.3661 106.153 68.4215C106.242 68.4664 106.372 68.542 106.573 68.6556C106.859 68.8166 107.017 68.8937 107.16 68.9746C107.346 69.0794 107.493 69.1505 107.64 69.2421C107.731 69.2986 107.867 69.3484 107.988 69.4107C108.13 69.4835 108.248 69.5388 108.384 69.6085C108.649 69.7449 108.739 69.8246 108.838 69.8762C108.966 69.9424 109.055 70.0519 109.27 70.2602C109.34 70.3303 109.385 70.3672 109.428 70.3964C109.45 70.4112 109.472 70.4257 109.517 70.4626" stroke="#FFFEFC" stroke-width="1.5" stroke-linecap="round"/>
<path d="M109.512 70.4624C109.759 70.637 110.141 71.0472 110.274 71.246C110.354 71.3665 110.406 71.4733 110.475 71.6051C110.551 71.7488 110.72 72.1592 110.827 72.4077C110.885 72.5425 110.889 72.682 110.933 72.8691C110.961 72.9881 110.977 73.1508 110.992 73.3855C111.011 73.681 111.043 73.8398 111.054 74.0306C111.057 74.0821 111.065 74.1401 111.069 74.3768C111.073 74.6134 111.073 75.027 111.069 75.2582C111.065 75.5258 111.051 75.6936 111.058 75.9132C111.062 76.0475 111.131 76.1777 111.244 76.4112C111.585 76.9991 111.702 77.087 111.801 77.1457C111.827 77.1604 111.856 77.175 111.908 77.1899" stroke="#FFFEFC" stroke-width="1.5" stroke-linecap="round"/>
<path d="M111.91 77.1898C112.186 77.1898 112.538 77.1898 112.922 77.2007C113.393 77.214 113.565 77.2848 113.694 77.3216C113.807 77.3538 113.939 77.3802 114.05 77.4095C114.191 77.4471 114.306 77.5266 114.391 77.5889C114.432 77.6198 114.46 77.6732 114.493 77.7207C114.509 77.7438 114.504 77.7755 114.494 77.7977C114.472 77.8418 114.293 77.9872 114.048 78.2142C113.904 78.3475 113.7 78.4858 113.465 78.658C113.351 78.7418 113.201 78.8305 112.967 78.9841C112.587 79.2334 112.46 79.2489 112.267 79.3036C112.099 79.3514 111.777 79.409 111.377 79.4426C110.977 79.4763 110.505 79.4763 110.241 79.4726C109.828 79.467 109.479 79.2432 109.302 79.0919C109.221 79.0235 109.09 78.8182 108.896 78.464C108.788 78.2667 108.695 78.0155 108.625 77.8268C108.554 77.6381 108.518 77.5147 108.474 77.2698C108.43 77.0249 108.379 76.6621 108.353 76.2431C108.327 75.8241 108.327 75.3597 108.323 75.1024C108.319 74.8086 108.305 74.7351 108.279 74.5641C108.224 74.1934 108.107 73.8564 108.038 73.6843C107.95 73.4669 107.865 73.2258 107.763 72.9806C107.717 72.8705 107.653 72.6914 107.536 72.4501C107.425 72.2205 107.345 72.0749 107.192 71.7987C107.058 71.5563 106.793 71.1161 106.644 70.87C106.471 70.5844 106.392 70.4777 106.239 70.2771C105.985 69.9433 105.667 69.7009 105.492 69.5764C105.338 69.4676 105.111 69.3489 104.941 69.2972C104.793 69.2519 104.67 69.3043 104.622 69.3262C104.517 69.3747 104.523 69.604 104.578 69.91C104.681 70.4911 104.867 70.8651 104.893 70.9272C104.92 70.9935 104.984 71.2516 105.108 71.7482C105.178 72.0248 105.218 72.3609 105.244 72.6925C105.271 73.024 105.271 73.3432 105.249 73.6238C105.227 73.9043 105.184 74.1365 105.085 74.4846C104.986 74.8327 104.834 75.2898 104.752 75.5507C104.655 75.8599 104.655 75.9582 104.651 76.0568C104.647 76.1775 104.633 76.4838 104.637 76.8756C104.641 77.3078 104.918 77.6655 105.043 77.8411C105.322 78.2347 105.607 78.3401 105.896 78.4864C105.988 78.5234 106.091 78.5672 106.211 78.6258C106.26 78.6481 106.281 78.6553 106.304 78.6628" stroke="#FFFEFC" stroke-width="1.5" stroke-linecap="round"/>
<path d="M102.344 73.5186C102.344 73.5696 102.315 73.7591 102.279 73.892C102.25 73.9948 102.205 74.1262 102.125 74.3056C102.049 74.4735 102 74.5879 101.989 74.7418C101.979 74.8749 101.956 75.0056 101.945 75.1742C101.941 75.2338 101.927 75.5311 101.93 75.9633C101.932 76.2229 101.963 76.3687 101.992 76.5445C102.018 76.6982 102.029 76.874 102.095 77.1196C102.11 77.1679 102.117 77.1897 102.124 77.2118C102.132 77.2338 102.139 77.2556 102.19 77.322" stroke="#FFFEFC" stroke-width="1.5" stroke-linecap="round"/>
<path d="M102.195 77.2998C102.247 77.4607 102.319 77.6212 102.517 78.027C102.691 78.3849 102.898 78.6548 103.008 78.7866C103.108 78.907 103.17 78.9922 103.323 79.1533C103.42 79.255 103.499 79.322 103.58 79.4064C103.658 79.4877 103.756 79.5493 103.891 79.67C104.037 79.7995 104.195 79.9007 104.437 80.0767C104.566 80.1704 104.672 80.2234 104.826 80.3297C104.948 80.4145 105.031 80.4947 105.119 80.5534C105.224 80.6233 105.353 80.7291 105.431 80.8207C105.527 80.9351 105.552 81.1244 105.577 81.2784C105.628 81.5825 105.545 81.6744 105.457 81.799C105.42 81.8506 105.311 81.9743 105.15 82.1427C104.899 82.4052 104.57 82.6493 104.475 82.7335C104.313 82.8765 104.087 83.0446 103.845 83.2203C103.513 83.462 103.442 83.6017 103.339 83.7118C103.317 83.734 103.295 83.7485 103.277 83.7669C103.258 83.7852 103.244 83.807 103.229 83.8294" stroke="#FFFEFC" stroke-width="1.5" stroke-linecap="round"/>
<path d="M103.273 83.7202C103.192 83.7932 103.046 83.9102 102.742 84.21C102.523 84.427 102.284 84.6726 102.21 84.7568C102.116 84.8645 102.013 84.98 101.91 85.1012C101.827 85.1986 101.756 85.3027 101.664 85.4126C101.566 85.5307 101.507 85.6325 101.411 85.7607C101.333 85.8664 101.258 86.0058 101.144 86.2111C101.052 86.3768 100.914 86.5919 100.785 86.8119C100.64 87.0601 100.511 87.3456 100.327 87.6876C100.263 87.8067 100.122 88.1582 100.023 88.5085C100.003 88.5781 99.9822 88.63 99.924 88.7973C99.7917 89.1771 99.6821 89.5815 99.5979 89.8195C99.5057 90.0802 99.4036 90.3879 99.3374 90.6228C99.3007 90.7529 99.2567 90.894 99.2456 91.0335C99.2272 91.1871 99.2345 91.3854 99.2455 91.4549C99.2492 91.4881 99.2492 91.5171 99.2712 91.5909" stroke="#FFFEFC" stroke-width="1.5" stroke-linecap="round"/>
<path d="M99.25 91.3477C99.25 91.3714 99.25 91.5322 99.2797 91.8939C99.2973 92.1083 99.3688 92.3803 99.4054 92.5419C99.4705 92.8298 99.5078 92.9971 99.5529 93.1324C99.5638 93.165 99.5679 93.2012 99.6304 93.3681C99.805 93.8346 99.946 94.1559 99.967 94.1918C100.077 94.3796 100.252 94.7494 100.342 94.9445C100.396 95.0618 100.456 95.2294 100.54 95.46C100.64 95.7359 100.75 95.938 100.813 96.0455C100.914 96.2193 100.966 96.3522 101.008 96.4535C101.104 96.6875 101.2 96.8741 101.304 97.0767C101.389 97.2414 101.522 97.5406 101.779 97.9639C102.037 98.3872 102.411 98.9279 102.788 99.3995C103.165 99.871 103.533 100.257 103.794 100.518C104.055 100.78 104.198 100.905 104.345 101.033" stroke="#FFFEFC" stroke-width="1.5" stroke-linecap="round"/>
<path d="M141.828 95.0811C141.817 95.1773 141.753 95.3058 141.603 95.5039C141.21 96.0233 141.044 96.1431 140.878 96.3255C140.747 96.4695 140.605 96.6898 140.47 96.8409C140.26 97.0774 140.078 97.3023 139.966 97.4045C139.78 97.5726 139.563 97.8497 139.21 98.2192C139.038 98.3991 138.898 98.5369 138.79 98.6549C138.652 98.8066 138.469 98.9871 138.323 99.1112C138.196 99.2197 137.997 99.4269 137.851 99.5994C137.692 99.7881 137.545 99.8784 137.411 99.9859C137.248 100.117 137.021 100.339 136.773 100.554C136.297 100.969 136.118 101.155 135.951 101.301C135.741 101.484 135.506 101.606 135.345 101.725C135.147 101.87 134.98 101.982 134.803 102.122C134.621 102.265 134.433 102.39 134.239 102.567C134.112 102.684 133.95 102.755 133.805 102.841C133.643 102.937 133.488 103.013 133.354 103.072C133.189 103.145 133.016 103.185 132.759 103.292C132.392 103.445 132.147 103.507 131.98 103.577C131.783 103.659 131.503 103.764 131.357 103.813C131.186 103.87 131.041 103.947 130.853 104.006C130.681 104.06 130.558 104.097 130.397 104.156C130.238 104.214 130.086 104.247 129.935 104.296C129.73 104.362 129.432 104.43 129.227 104.484C129.044 104.527 128.894 104.569 128.754 104.586C128.722 104.591 128.69 104.602 128.625 104.613" stroke="#FFFEFC" stroke-width="1.5" stroke-linecap="round"/>
<path d="M128.652 104.614C128.623 104.614 128.594 104.614 128.35 104.614C128.106 104.614 127.649 104.614 127.395 104.61C127.105 104.606 127.024 104.592 126.875 104.563C126.352 104.461 126.21 104.299 125.973 104.171C125.663 104.004 125.484 103.771 125.371 103.647C125.221 103.483 125.139 103.316 125.055 103.116C124.896 102.736 124.919 102.62 124.908 102.502C124.905 102.473 124.897 102.444 124.894 102.411C124.89 102.378 124.89 102.341 124.959 102.323C125.359 102.214 125.564 102.399 125.787 102.487C126.02 102.579 126.187 102.714 126.355 102.842C126.478 102.935 126.682 103.078 126.929 103.28C127.175 103.482 127.458 103.736 127.622 103.889C127.827 104.08 127.954 104.217 128.253 104.52C128.462 104.731 128.77 105.077 128.971 105.31C129.263 105.651 129.399 105.904 129.52 106.149C129.634 106.38 129.686 106.55 129.748 106.699C129.859 106.967 129.949 107.369 130.015 107.761C130.09 108.201 129.965 108.398 129.921 108.489C129.856 108.624 129.73 108.713 129.507 108.925C129.354 109.071 129.246 109.153 129.129 109.307C128.902 109.604 128.579 109.886 128.484 109.993C128.413 110.071 128.221 110.23 127.957 110.446C127.62 110.723 127.392 110.919 127.2 111.064C127.127 111.118 127.061 111.177 126.908 111.305C126.576 111.582 126.313 111.757 126.211 111.826C126.011 111.961 125.742 112.159 125.489 112.295C125.33 112.38 125.148 112.424 124.675 112.618C124.394 112.733 124.062 112.879 123.846 112.956C123.585 113.048 123.468 113.062 123.361 113.084C123.071 113.144 122.668 113.092 122.547 113.041C122.386 112.972 122.265 112.938 122.158 112.887C122.046 112.832 121.87 112.762 121.693 112.689C121.348 112.542 121.158 112.454 121.018 112.421C120.996 112.417 120.974 112.41 120.93 112.402" stroke="#FFFEFC" stroke-width="1.5" stroke-linecap="round"/>
<path d="M104.395 101.064C104.593 101.192 104.803 101.379 104.979 101.52C105.122 101.634 105.236 101.8 105.4 101.935C105.672 102.159 105.798 102.269 106.008 102.409C106.257 102.575 106.418 102.748 106.774 102.965C106.956 103.075 107.132 103.146 107.319 103.246C107.566 103.377 107.752 103.497 107.91 103.562C108.107 103.642 108.417 103.929 108.798 104.204C109.205 104.498 109.472 104.784 109.606 104.872C110.053 105.163 110.57 105.637 110.969 105.954C111.34 106.249 111.519 106.491 111.666 106.68C111.827 106.885 112.092 107.182 112.303 107.463C112.445 107.652 112.526 107.931 112.631 108.235C112.702 108.44 112.702 108.726 112.743 108.938C112.792 109.191 112.784 109.568 112.813 109.937C112.847 110.364 112.877 110.598 112.924 110.944C112.96 111.209 113.017 111.418 113.163 111.553C113.301 111.68 113.485 111.723 113.666 111.805C113.888 111.904 114.082 111.933 114.316 111.951C114.541 111.968 114.772 112.062 115.058 112.138C115.481 112.25 115.708 112.319 116.111 112.361C116.676 112.418 117.076 112.25 117.503 112.133C117.919 112.039 118.387 111.876 118.563 111.759C118.587 111.723 118.599 111.677 118.61 111.594" stroke="#FFFEFC" stroke-width="1.5" stroke-linecap="round"/>
<path d="M118.758 110.943C118.768 111.051 118.819 111.123 118.907 111.244C118.97 111.332 119.025 111.391 119.092 111.488C119.244 111.711 119.391 111.746 119.491 111.818C119.565 111.871 119.709 111.952 119.841 112.009C119.943 112.053 120.028 112.086 120.106 112.119C120.192 112.157 120.255 112.183 120.325 112.214C120.428 112.26 120.487 112.297 120.549 112.32C120.619 112.346 120.698 112.374 120.765 112.395C120.832 112.415 120.924 112.436 121.009 112.456C121.027 112.461 121.042 112.467 121.074 112.472" stroke="#FFFEFC" stroke-width="1.5" stroke-linecap="round"/>
<path d="M42.4763 144.831L43.5905 143.064L51.738 142.479L53.7048 144.192L42.4763 144.831ZM39.0374 146.27L46.3928 137.824L47.9614 139.19L40.6059 147.636L39.0374 146.27ZM44.5756 151.093L45.0874 144.049L47.0276 144.063L46.4821 152.753L44.5756 151.093ZM48.829 154.585L53.4282 147.517L55.0508 148.573L53.6115 150.844L53.7152 150.186C54.0462 149.892 54.4255 149.681 54.8531 149.552C55.2807 149.423 55.7033 149.38 56.1209 149.423C56.5533 149.462 56.9438 149.595 57.2925 149.822C57.4445 149.921 57.5788 150.028 57.6954 150.142C57.821 150.262 57.9169 150.369 57.983 150.463L56.3623 151.985C56.2989 151.867 56.2073 151.744 56.0875 151.615C55.9677 151.486 55.8363 151.375 55.6933 151.282C55.4698 151.137 55.2261 151.042 54.9623 150.998C54.7133 150.95 54.4633 150.953 54.2124 151.006C53.9615 151.059 53.7245 151.159 53.5012 151.307C53.2928 151.451 53.1071 151.648 52.9442 151.899L50.4918 155.667L48.829 154.585ZM56.0664 159.132L59.9426 151.644L61.6903 152.548L57.8141 160.037L56.0664 159.132ZM61.619 150.494C61.2685 150.312 61.0379 150.085 60.9272 149.811C60.8309 149.533 60.8662 149.233 61.0329 148.911C61.1898 148.608 61.4168 148.413 61.7138 148.327C62.0107 148.24 62.3298 148.285 62.6708 148.462C63.0307 148.648 63.2589 148.88 63.3552 149.158C63.4658 149.432 63.4353 149.734 63.2637 150.066C63.1117 150.36 62.8872 150.55 62.5902 150.636C62.2932 150.723 61.9695 150.675 61.619 150.494ZM64.0565 162.997C63.3622 162.722 62.7824 162.361 62.3171 161.913C61.8657 161.459 61.5528 160.945 61.3782 160.372L62.9745 159.816C63.1387 160.271 63.3749 160.645 63.683 160.939C63.9912 161.233 64.3486 161.46 64.7553 161.621C64.9239 161.688 65.0806 161.727 65.2252 161.738C65.3798 161.754 65.5223 161.741 65.6529 161.701C65.7835 161.661 65.8932 161.601 65.982 161.521C66.0847 161.436 66.1615 161.329 66.2125 161.2C66.3067 160.962 66.2919 160.738 66.1683 160.528C66.0966 160.42 65.9673 160.282 65.7805 160.117C65.6035 159.955 65.3622 159.768 65.0563 159.555C64.5756 159.204 64.192 158.869 63.9055 158.549C63.623 158.22 63.4276 157.902 63.3195 157.595C63.2254 157.34 63.1808 157.076 63.1857 156.802C63.2005 156.533 63.2628 156.259 63.3726 155.981C63.5099 155.634 63.7079 155.351 63.9665 155.132C64.239 154.907 64.5503 154.744 64.9005 154.641C65.2507 154.539 65.626 154.504 66.0262 154.536C66.4264 154.568 66.82 154.661 67.2068 154.814C67.6036 154.971 67.9658 155.171 68.2936 155.416C68.6313 155.664 68.9216 155.945 69.1645 156.259C69.4212 156.567 69.6126 156.895 69.7388 157.243L68.2857 157.959C68.1678 157.706 68.0223 157.465 67.8491 157.236C67.6858 157.011 67.5058 156.813 67.309 156.644C67.1162 156.464 66.9206 156.335 66.7222 156.257C66.5337 156.182 66.3572 156.135 66.1928 156.116C66.0322 156.087 65.8886 156.088 65.762 156.118C65.6353 156.148 65.5206 156.206 65.418 156.291C65.3292 156.371 65.2573 156.48 65.2024 156.619C65.1652 156.742 65.1498 156.868 65.1563 156.997C65.1766 157.119 65.2226 157.235 65.2943 157.344C65.376 157.456 65.5082 157.6 65.6911 157.776C65.8741 157.951 66.1234 158.148 66.4392 158.364C66.8742 158.685 67.224 158.99 67.4886 159.278C67.7531 159.566 67.9385 159.852 68.0445 160.135C68.1624 160.388 68.2139 160.649 68.1991 160.919C68.1843 161.188 68.12 161.467 68.0063 161.754C67.8219 162.22 67.5232 162.584 67.1102 162.845C66.7072 163.11 66.2363 163.257 65.6977 163.284C65.1689 163.316 64.6219 163.22 64.0565 162.997ZM71.1229 165.362L73.845 155.142L75.7467 155.649L73.0246 165.868L71.1229 165.362ZM71.2157 158.548L71.6852 156.786L76.9728 158.194L76.5034 159.957L71.2157 158.548ZM81.5486 167.641C80.7133 167.53 79.9925 167.246 79.3861 166.788C78.7812 166.32 78.332 165.733 78.0385 165.027C77.745 164.321 77.6538 163.55 77.7649 162.715C77.876 161.88 78.1654 161.16 78.6333 160.555C79.1011 159.95 79.6874 159.506 80.3922 159.223C81.0983 158.929 81.8691 158.838 82.7044 158.949C83.5291 159.059 84.244 159.348 84.8489 159.816C85.4553 160.273 85.8999 160.854 86.1828 161.559C86.4763 162.265 86.5675 163.036 86.4564 163.871C86.3453 164.706 86.0559 165.426 85.588 166.031C85.1308 166.638 84.5491 167.088 83.8429 167.381C83.1381 167.664 82.3733 167.75 81.5486 167.641ZM81.7785 165.912C82.2332 165.973 82.6504 165.91 83.0303 165.723C83.4207 165.539 83.7424 165.264 83.9953 164.899C84.2588 164.536 84.4183 164.106 84.4738 163.607C84.5519 163.101 84.5112 162.638 84.3518 162.219C84.2029 161.801 83.9635 161.457 83.6335 161.187C83.3155 160.908 82.9292 160.739 82.4745 160.678C82.0198 160.618 81.592 160.679 81.191 160.863C80.802 161.037 80.4803 161.311 80.226 161.687C79.973 162.051 79.8135 162.482 79.7474 162.979C79.6814 163.476 79.7228 163.933 79.8716 164.351C80.0205 164.769 80.2592 165.118 80.5878 165.399C80.9269 165.68 81.3238 165.852 81.7785 165.912ZM89.6878 168.238L89.3601 159.06C89.3418 158.548 89.4376 158.091 89.6473 157.689C89.8567 157.276 90.1546 156.95 90.5411 156.712C90.9271 156.464 91.3813 156.33 91.9036 156.311C92.2661 156.298 92.6041 156.35 92.9178 156.467C93.2312 156.574 93.4982 156.729 93.719 156.935L93.1645 158.444C93.0217 158.331 92.8693 158.246 92.7071 158.188C92.5556 158.129 92.4105 158.102 92.2719 158.107C92.0587 158.115 91.8789 158.159 91.7323 158.239C91.596 158.308 91.493 158.413 91.4233 158.554C91.3643 158.695 91.3382 158.861 91.3451 159.053L91.6705 168.167L90.6791 168.203C90.4873 168.21 90.306 168.216 90.1355 168.222C89.9756 168.228 89.8263 168.233 89.6878 168.238ZM88.1437 161.761L88.082 160.034L93.2787 159.849L93.3404 161.576L88.1437 161.761ZM95.9718 168.014L95.6441 158.836C95.6258 158.324 95.7216 157.867 95.9313 157.464C96.1407 157.051 96.4386 156.726 96.8251 156.488C97.2111 156.239 97.6653 156.106 98.1876 156.087C98.5501 156.074 98.8881 156.126 99.2018 156.243C99.5151 156.349 99.7822 156.505 100.003 156.711L99.4485 158.219C99.3057 158.107 99.1533 158.022 98.9911 157.964C98.8396 157.905 98.6945 157.878 98.5559 157.883C98.3427 157.891 98.1629 157.934 98.0163 158.014C97.88 158.083 97.777 158.188 97.7073 158.33C97.6483 158.47 97.6222 158.637 97.6291 158.829L97.9545 167.943L96.9631 167.978C96.7713 167.985 96.59 167.992 96.4195 167.998C96.2596 168.003 96.1103 168.009 95.9718 168.014ZM94.4277 161.537L94.366 159.81L99.5627 159.624L99.6244 161.351L94.4277 161.537ZM109.57 166.32L106.42 155.572L108.416 154.987L111.026 163.893L115.985 162.44L116.525 164.282L109.57 166.32ZM122.582 161.981C121.954 162.275 121.303 162.369 120.628 162.261C119.953 162.154 119.321 161.873 118.731 161.419C118.141 160.966 117.667 160.357 117.309 159.594C116.951 158.832 116.786 158.078 116.814 157.335C116.842 156.591 117.043 155.925 117.415 155.338C117.788 154.751 118.307 154.301 118.973 153.989C119.36 153.807 119.739 153.7 120.112 153.666C120.481 153.623 120.833 153.646 121.17 153.736C121.507 153.825 121.813 153.964 122.09 154.152C122.377 154.336 122.619 154.564 122.817 154.836L122.379 154.918L121.482 153.006L123.278 152.163L126.859 159.797L125.049 160.646L124.192 158.821L124.579 158.552C124.633 158.844 124.628 159.159 124.562 159.496C124.502 159.819 124.381 160.141 124.202 160.461C124.027 160.766 123.803 161.054 123.529 161.324C123.265 161.59 122.949 161.808 122.582 161.981ZM122.334 160.171C122.749 159.976 123.068 159.702 123.292 159.35C123.515 158.998 123.63 158.602 123.636 158.163C123.648 157.71 123.542 157.247 123.32 156.774C123.103 156.31 122.818 155.943 122.467 155.672C122.126 155.396 121.748 155.232 121.334 155.178C120.921 155.125 120.506 155.196 120.091 155.391C119.676 155.585 119.356 155.859 119.133 156.211C118.919 156.559 118.809 156.952 118.803 157.391C118.796 157.83 118.902 158.281 119.12 158.745C119.342 159.218 119.626 159.597 119.972 159.883C120.313 160.158 120.686 160.325 121.09 160.383C121.504 160.436 121.918 160.365 122.334 160.171ZM130.312 158.03L124.093 147.955L125.781 146.912L132 156.987L130.312 158.03ZM135.452 154.717L130.422 147.95L132.002 146.776L137.032 153.543L135.452 154.717ZM130.124 145.939C129.807 146.175 129.501 146.282 129.207 146.262C128.915 146.226 128.661 146.063 128.444 145.772C128.241 145.498 128.165 145.209 128.218 144.904C128.27 144.599 128.45 144.332 128.759 144.103C129.084 143.861 129.393 143.758 129.685 143.793C129.979 143.814 130.238 143.974 130.46 144.273C130.658 144.539 130.73 144.824 130.677 145.129C130.625 145.434 130.44 145.704 130.124 145.939ZM143.004 148.671C142.424 149.206 141.773 149.547 141.05 149.692C140.327 149.836 139.608 149.789 138.893 149.549C138.178 149.31 137.538 148.884 136.973 148.273C136.409 147.662 136.035 146.99 135.853 146.258C135.671 145.526 135.681 144.806 135.882 144.097C136.084 143.388 136.475 142.765 137.055 142.23C137.611 141.716 138.214 141.355 138.864 141.147C139.514 140.939 140.138 140.907 140.736 141.051L140.827 142.753C140.558 142.697 140.271 142.686 139.968 142.719C139.665 142.752 139.375 142.824 139.099 142.934C138.823 143.044 138.583 143.193 138.379 143.381C138.034 143.699 137.805 144.071 137.689 144.497C137.575 144.907 137.577 145.334 137.695 145.777C137.806 146.211 138.032 146.613 138.372 146.981C138.712 147.349 139.095 147.606 139.519 147.751C139.951 147.889 140.384 147.918 140.818 147.837C141.251 147.756 141.636 147.56 141.973 147.249C142.177 147.06 142.344 146.848 142.474 146.612C142.605 146.36 142.699 146.092 142.755 145.808C142.812 145.523 142.828 145.218 142.803 144.893L144.503 145.13C144.555 145.721 144.447 146.343 144.18 146.997C143.913 147.635 143.521 148.193 143.004 148.671ZM146.799 140.91L145.132 140.042L144.558 134.403L146.22 132.373L146.799 140.91ZM147.627 143.966L138.465 136.466L139.712 134.943L148.873 142.443L147.627 143.966ZM151.235 139.558L146.359 139.579L146.325 137.751L152.775 137.677L151.235 139.558ZM154.631 135.19L147.6 130.536L148.686 128.895L155.717 133.549L154.631 135.19ZM146.636 128.746C146.418 129.075 146.167 129.28 145.883 129.361C145.597 129.427 145.302 129.36 145 129.16C144.715 128.971 144.546 128.725 144.491 128.42C144.437 128.116 144.516 127.803 144.728 127.483C144.952 127.145 145.207 126.943 145.494 126.877C145.777 126.796 146.075 126.859 146.386 127.065C146.662 127.248 146.827 127.491 146.881 127.796C146.935 128.1 146.854 128.417 146.636 128.746Z" fill="#FFFEFC"/>
</svg>
