<svg width="45" height="26" viewBox="0 0 45 26" fill="none" xmlns="http://www.w3.org/2000/svg">
<title>Earthrise Commons Home</title>
<path d="M11.952 25.192C9.312 25.192 0 23.752 0 13.048C0 2.05598 8.4 0.807983 11.952 0.807983C15.84 0.807983 18.816 2.00798 20.88 4.35998C23.808 7.71998 23.952 12.856 23.664 14.968H5.904C6 16.264 6.528 17.512 7.44 18.52C8.592 19.672 10.224 20.344 11.856 20.296H12.144C16.128 20.296 17.424 17.416 17.424 17.416H23.28C23.28 17.416 21.264 25.192 11.952 25.192ZM5.952 10.696H17.952C17.904 9.35198 17.376 8.05598 16.464 7.04798C15.504 5.99198 14.016 5.46398 12.096 5.46398H12.048C10.176 5.46398 8.544 5.99198 7.536 7.04798C6.576 8.05598 6.048 9.35198 5.952 10.696Z" fill="currentColor"/>
<path d="M39.4129 25.192C36.4369 25.192 33.5569 24.04 31.3489 22.072C29.6209 20.536 27.6049 17.752 27.6049 13.288C27.6529 6.56798 32.9329 1.04798 39.5569 0.999984C40.9009 0.999984 42.7729 1.14398 44.2609 1.81598V6.75998C40.9489 5.89598 37.8769 6.13598 35.9569 7.67198C34.3729 8.91998 33.4609 10.84 33.4609 13.24C33.4609 15.4 34.2769 17.224 35.7649 18.424C37.6849 20.008 40.8049 20.296 44.2609 19.528V24.424C42.7729 25.048 40.9009 25.192 39.4129 25.192Z" fill="currentColor"/>
</svg>
